<?xml version='1.0' encoding='ASCII' standalone='yes'?>
<svg xmlns="http://www.w3.org/2000/svg" xmlns:xlink="http://www.w3.org/1999/xlink" version="1.1" width="1000.0px" viewBox="0 0 1000.0 1000.0" height="1000.0px">
  <g transform="translate(856.0, 436.0) scale(1 1) translate(0, 0) scale(3.5555555555555554 3.5555555555555554) ">
    <path fill="#D99E82" d="M31.034 14.374c3.508-.65 3.587-6.297-.051-6.254-2.847.034-2.56 2.795-2.945 2.252-.748-1.055-.989-3.769 1.862-4.894 2.461-.971 5.846.996 6.063 4.591.139 2.302-1.297 6.554-6.453 5.846-7.222-.991-1.983-.892 1.524-1.541z"/>
    <path fill="#C1694F" d="M10.321 21.935s1.016 2.352.676 8.242c-.061 1.057-.209 2.136-.242 3.022-1.812 0-1.652 2.064-1.268 2.064h2.902c.683 0 1.893-3.438 2.212-8.209.319-4.772-4.28-5.119-4.28-5.119zm11.89-.331s.575 3.528 3.651 6.413c.257 1.163.769 4.232.949 5.195-1.889 0-1.282 2.047-.731 2.047h2.646c.951 0 1.092-3.442.206-7.694-.885-4.251-6.721-5.961-6.721-5.961z"/>
    <path fill="#D99E82" d="M32.202 15.654c-1.253-3.752-7.214-3.628-13.997-2.765-3.055.389-3.64-4.453-3.64-5.286 0-3.626-3.244-5.455-6.496-4.229-.779.293-1.402 1.33-1.754 1.872-1.977 3.037-4.658.015-4.917 2.822-.313 3.395 1.721 4.534 5.051 4.821 1.892.163 3.459 1.095 3.871 5.044.154 1.472-.295 5.644 2.388 7.076.78 2.959 1.836 6.615 2.25 8.475-2.252.476-1.341 2.179-1.341 2.179s3.151-.043 3.836-.043c.814 0 .191-5.976-.935-9.787 4.764.043 7.828-1.337 8.799-1.762 1.028 2.96 4.152 3.633 4.851 4.892.433.78 1.878 3.383 2.001 4.496-1.602.52-1.091 1.732-.909 2.122 1.083-.043 3.22-.043 3.498-.043 1.11 0-1.137-6.904-2.083-8.713-1.082-2.071.781-7.419-.473-11.171z"/>
    <path fill="#F4C7B5" d="M16.266 24.464c.044.371.141.891.253 1.369 4.764.043 7.828-1.337 8.799-1.762-.215-.78-.23-1.27-.171-1.538-3.394.557-4.548 2.205-8.881 1.931zM6.449 12.889c1.892.163 2.425 1.069 2.838 5.018.154 1.472.739 5.67 3.421 7.102-.72-2.788-1.959-12.388-6.259-12.12z"/>
    <path fill="#F4C7B5" d="M3.153 6.665c-2.793 0-1.909.526-2.002 1.692-.093 1.166-.074 2.976.776 3.929 1.127 1.262 3.858 1.266 5.215.277s-.424-5.898-3.989-5.898z"/>
    <path fill="#272B2B" d="M2.503 8.326c-.109.762-.494 1.192-.879 1.133C.864 9.342.232 8.372.232 7.603s.624-.963 1.392-.928c1.043.048 1.002.788.879 1.651z"/>
    <path fill="#662113" d="M15.167 9.026c.348 2.515-1.157 2.898-2.383 2.898s-3.054-1.25-2.748-3.77c.134-1.107.555-2.193.809-3.175.336-1.303 1.199-1.732 1.894-1.367 1.665.874 2.203 3.797 2.428 5.414z"/>
    <circle fill="#292F33" cx="8.069" cy="6.675" r=".928"/>
    <path fill="#C1694F" d="M19.035 12.789c.073 1.532.906 3.178 2.733 3.663 1.901.505 4.12.127 4.67-2.475.091-.43.13-1.224.073-1.514-2.151-.179-4.73 0-7.476.326z"/>
    <circle fill="#D99E82" cx="3.053" cy="10.503" r=".488"/>
    <circle fill="#D99E82" cx="3.695" cy="9.804" r=".269"/>
    <circle fill="#D99E82" cx="4.1" cy="10.503" r=".269"/>
  </g>
  <g transform="translate(819.6890922098924, 606.8293900918361) scale(1 1) translate(0, 0) scale(3.5555555555555554 3.5555555555555554) ">
    <path fill="#66757F" d="M14.858 9.497c.475 2.326-.182 4.236-2.921 4.638-2.741.403-6.7 3.898-8.848-1.798C1.844 9.038 1.092 2.234 2.628 2.009c1.537-.226 11.756 5.162 12.23 7.488z"/>
    <path fill="#CCD6DD" d="M12.784 9.851c.865 1.392-2.205 3.833-3.844 4.568-1.639.736-2.915-.66-4.173-4.1-.55-1.503-1.234-5.532-.634-5.802.599-.268 7.785 3.942 8.651 5.334z"/>
    <path fill="#66757F" d="M21.372 9.497c-.458 2.326.176 4.236 2.818 4.638 2.644.403 6.464 3.898 8.536-1.798 1.201-3.3 1.927-10.103.445-10.329-1.483-.225-11.342 5.163-11.799 7.489z"/>
    <path fill="#CCD6DD" d="M23.373 9.851c-.835 1.392 2.127 3.833 3.708 4.568 1.581.736 2.812-.66 4.026-4.1.531-1.503 1.19-5.532.611-5.802-.577-.268-7.509 3.942-8.345 5.334z"/>
    <path fill="#66757F" d="M32.347 26.912c0-.454-.188-1.091-.407-1.687.585.028 1.519.191 2.77.817-.008-.536-.118-.984-.273-1.393.041.02.075.034.116.055-1.104-3.31-3.309-5.517-3.309-5.517h2.206c-2.331-4.663-4.965-8.015-8.075-9.559-1.39-.873-3.688-1.338-7.373-1.339h-.003c-3.696 0-5.996.468-7.385 1.346-3.104 1.547-5.734 4.896-8.061 9.552H4.76s-2.207 2.206-3.311 5.517l.084-.039c-.201.392-.307.847-.282 1.377 1.263-.632 2.217-.792 2.813-.818-.189.513-.343 1.044-.386 1.475-.123.371-.191.812-.135 1.343 3.207-1.458 4.707-1.25 6.457-.375C11.213 31.29 14.206 34 18.001 34c3.793 0 6.746-2.794 7.958-6.416 1.458-1.25 3.708-.875 6.416.416.066-.413.036-.773-.036-1.093l.008.005z"/>
    <path fill="#CCD6DD" d="M34.553 24.704c-.437-1.313-3.665-3.101-6.973-4.513.26-.664.42-1.401.42-2.191 0-2.761-1.791-5-4-5s-4 2.239-4 5c0 3 4 10-2.001 11.118-5.125-.955-2.954-6.201-2.212-9.58.072-.276.125-.559.158-.853.034-.245.055-.476.055-.685 0-2.761-1.791-5-4-5s-4 2.239-4 5c0 .79.16 1.527.421 2.191-3.308 1.412-6.535 3.2-6.973 4.513C3.655 23.6 4.759 23.6 4.759 23.6s-1.104 2.208-1.104 3.312c2.67-1.78 5.339-2.122 7.429-.452C12.297 30.083 14 33 18.001 30.124c3.999 2.876 5.7-.04 6.912-3.662 2.092-1.673 4.763-1.33 7.434.45 0-1.104-1.103-3.312-1.103-3.312s1.103.001 3.309 1.104z"/>
    <path fill="#292F33" d="M11 17s0-1.5 1.5-1.5S14 17 14 17v1.5s0 1.5-1.5 1.5-1.5-1.5-1.5-1.5V17zm11 0s0-1.5 1.5-1.5S25 17 25 17v1.5s0 1.5-1.5 1.5-1.5-1.5-1.5-1.5V17zm-7.061 9.156c-1.021.208 2.041 3.968 3.062 3.968 1.02 0 4.082-3.76 3.062-3.968s-5.103-.208-6.124 0z"/>
  </g>
  <g transform="translate(717.0348546707205, 748.1208267005055) scale(1 1) translate(0, 0) scale(3.5555555555555554 3.5555555555555554) ">
    <path fill="#F4900C" d="M13.431 9.802c.658 2.638-8.673 10.489-11.244 4.098C.696 10.197-.606 2.434.874 2.065c1.48-.368 11.9 5.098 12.557 7.737z"/>
    <path fill="#A0041E" d="M11.437 10.355c.96 1.538-1.831 4.561-3.368 5.522-1.538.961-2.899-.552-4.414-4.414-.662-1.689-1.666-6.27-1.103-6.622.562-.351 7.924 3.976 8.885 5.514z"/>
    <path fill="#F4900C" d="M22.557 9.802C21.9 12.441 31.23 20.291 33.802 13.9c1.49-3.703 2.792-11.466 1.312-11.835-1.48-.368-11.899 5.098-12.557 7.737z"/>
    <path fill="#A0041E" d="M24.552 10.355c-.96 1.538 1.831 4.561 3.368 5.522 1.537.961 2.898-.552 4.413-4.414.662-1.688 1.666-6.269 1.104-6.621-.563-.352-7.924 3.975-8.885 5.513z"/>
    <path fill="#F18F26" d="M32.347 26.912c0-.454-.188-1.091-.407-1.687.585.028 1.519.191 2.77.817-.008-.536-.118-.984-.273-1.393.041.02.075.034.116.055-1.103-3.31-3.309-5.517-3.309-5.517h2.206c-2.331-4.663-4.965-8.015-8.075-9.559-1.39-.873-3.688-1.338-7.373-1.339h-.003c-3.695 0-5.996.468-7.385 1.346-3.104 1.547-5.734 4.896-8.061 9.552H4.76s-2.207 2.206-3.311 5.517c.03-.015.055-.025.084-.04-.201.392-.307.847-.282 1.377 1.263-.632 2.217-.792 2.813-.818-.189.513-.343 1.044-.386 1.475-.123.371-.191.812-.135 1.343C6.75 26.584 8.25 26.792 10 27.667 11.213 31.29 14.206 34 18.001 34c3.793 0 6.746-2.794 7.958-6.416 1.458-1.25 3.708-.875 6.416.416.066-.414.036-.773-.036-1.093l.008.005z"/>
    <path fill="#FFD983" d="M31.243 23.601c.006 0 1.108.003 3.309 1.103-1.249-2.839-7.525-4.07-9.931-3.291-1.171 1.954-1.281 5.003-3.383 6.622-1.741 1.431-4.713 1.458-6.479 0-2.345-1.924-2.559-5.813-3.382-6.622-2.407-.781-8.681.454-9.931 3.291 2.201-1.101 3.304-1.103 3.309-1.103 0 .001-1.103 2.208-1.103 3.311l.001-.001v.001c2.398-1.573 5.116-2.271 7.429-.452 1.666 7.921 12.293 7.545 13.833 0 2.314-1.818 5.03-1.122 7.429.452v-.001l.001.001c.002-1.103-1.101-3.311-1.102-3.311z"/>
    <path fill="#272B2B" d="M11 17s0-1.5 1.5-1.5S14 17 14 17v1.5s0 1.5-1.5 1.5-1.5-1.5-1.5-1.5V17zm11 0s0-1.5 1.5-1.5S25 17 25 17v1.5s0 1.5-1.5 1.5-1.5-1.5-1.5-1.5V17zm-7.061 10.808c-1.021.208 2.041 3.968 3.062 3.968 1.02 0 4.082-3.76 3.062-3.968-1.021-.208-5.103-.208-6.124 0z"/>
  </g>
  <g transform="translate(565.7871376374779, 835.4437368439644) scale(1 1) translate(0, 0) scale(3.5555555555555554 3.5555555555555554) ">
    <path fill="#99AAB5" d="M10.668 5.616C9.032 2.479 4.439 1.005 3.584 2.298s.707 10.152 1.757 9.967c1.051-.185 5.327-6.649 5.327-6.649z"/>
    <path fill="#292F33" d="M9.841 7.674c-1.27-2.68-4.696-4.82-5.304-3.745-.435.771.122 5.263.757 7.696l4.547-3.951z"/>
    <path fill="#99AAB5" d="M25.284 5.616c1.636-3.137 6.228-4.611 7.084-3.318s-.708 10.152-1.758 9.967c-1.051-.185-5.326-6.649-5.326-6.649z"/>
    <path fill="#292F33" d="M26.36 7.674c1.231-2.686 4.501-4.854 5.07-3.786.416.78-.178 5.425-.815 7.825L26.36 7.674z"/>
    <path fill="#99AAB5" d="M33.13 13.316c-2.583-3.164-9.048-11.601-15.155-11.601S5.404 10.152 2.821 13.316C-.317 17.16-.23 21.613.573 24.193c.805 2.587 3.155 5.038 9.261 7.431 2.065.809 5.705 2.393 8.142 2.393s6.076-1.583 8.142-2.393c6.106-2.393 8.457-4.843 9.261-7.431.802-2.58.89-7.033-2.249-10.877z"/>
    <path fill="#E1E8ED" d="M17.976 14.408c0-4.913-4.078-4.855-6.542-4.572C6.922 10.353.076 16.597.076 20.569c0 1.39.16 2.631.496 3.624.584 1.726 1.875 3.015 5.034 5.266 3.49-8.351 12.37-11.246 12.37-15.051z"/>
    <path fill="#292F33" d="M17.976 15.777c0-2.399-4.389-3.04-6.649-2.678C6.443 13.882.587 20.633.572 24.07v.013c.002.006.001.111.001.111s.384 1.401 1.623 2.815c.867.991 2.346 2.068 3.333 2.584l.01-.011c2.952-3.861 6.877-6.416 10.022-7.617 1.763-.673 2.415-3.5 2.415-6.188z"/>
    <circle fill="#99AAB5" cx="13.396" cy="17.489" r="1.527"/>
    <path fill="#E1E8ED" d="M17.976 14.408c0-4.913 4.078-4.855 6.542-4.572 4.511.518 11.357 6.762 11.357 10.734 0 1.39-.16 2.631-.496 3.624-.584 1.726-1.875 3.015-5.034 5.266-3.489-8.352-12.369-11.247-12.369-15.052z"/>
    <path fill="#292F33" d="M17.976 15.777c0-2.399 4.389-3.04 6.649-2.678 4.884.783 10.74 7.534 10.755 10.971v.013c-.002.006-.001.111-.001.111s-.384 1.401-1.623 2.815c-.868.991-2.347 2.068-3.333 2.584l-.01-.011c-2.952-3.861-6.877-6.416-10.022-7.617-1.763-.673-2.415-3.5-2.415-6.188z"/>
    <circle fill="#99AAB5" cx="22.555" cy="17.489" r="1.527"/>
    <path fill="#66757F" d="M20.746 22.102c-.923-1.073-1.75-19.035-2.77-19.035s-1.847 17.962-2.77 19.035h5.54z"/>
    <path fill="#E1E8ED" d="M24.915 24.184c-1.636-2.06-4.164-3.705-6.94-3.705s-5.304 1.646-6.94 3.705c-1.388 1.748-1.388 3.061-.925 4.226.482 1.214 1.388 2.821 4.164 3.986.939.394 2.594 1.165 3.701 1.165 1.108 0 2.762-.771 3.701-1.165 2.776-1.165 3.682-2.772 4.164-3.986.463-1.165.463-2.478-.925-4.226z"/>
    <path fill="#292F33" d="M21.614 28.372c-.689-.562-1.629.184-3.639.184s-2.95-.746-3.639-.184c-.689.562.585 2.308 3.639 2.308s4.328-1.746 3.639-2.308z"/>
    <path fill="#66757F" d="M13.165 24.769c-.133 0-.268-.035-.391-.107-3.002-1.792-8.357-.913-9.664-.286-.378.184-.835.023-1.019-.357-.182-.381-.022-.837.358-1.019 1.744-.838 7.624-1.725 11.107.35.362.217.481.685.264 1.047-.142.239-.395.372-.655.372z"/>
    <path fill="#66757F" d="M2.141 29.702c-.168 0-.337-.056-.478-.169-.328-.264-.38-.744-.116-1.073 1.455-1.807 4.896-4.888 11.581-5.216.419-.035.779.304.8.725.021.421-.304.779-.725.8-6.089.299-9.171 3.041-10.467 4.649-.151.187-.372.284-.595.284zm31.669 0c-.223 0-.443-.097-.594-.284-1.295-1.608-4.377-4.35-10.467-4.649-.42-.021-.745-.379-.725-.8.021-.42.383-.763.8-.725 6.685.328 10.124 3.409 11.58 5.216.264.329.213.809-.115 1.073-.141.113-.31.169-.479.169z"/>
    <path fill="#66757F" d="M22.787 24.769c-.26 0-.514-.133-.657-.373-.216-.362-.097-.83.264-1.047 3.482-2.076 9.366-1.188 11.107-.35.381.182.541.638.358 1.018-.182.381-.636.544-1.018.358-1.31-.628-6.664-1.505-9.664.286-.123.074-.257.108-.39.108z"/>
    <path fill="#292F33" d="M21.614 22.244c0 1.765-2.539 3.223-3.639 3.223-1.1 0-3.639-1.458-3.639-3.223s1.629-1.81 3.639-1.81 3.639.045 3.639 1.81z"/>
  </g>
  <g transform="translate(392.0980454275856, 853.6991960546748) scale(1 1) translate(0, 0) scale(3.5555555555555554 3.5555555555555554) ">
    <path fill="#292F33" d="M35.876 23.572c0-3.299-1.021-5.408-4.901-9.145-2.746-2.645-2.088-5.807-.237-5.365s2.229 2.293 2.229 2.293 1.133-1.448-.378-2.937c1.096.362 1.73 1.158 2.005 2.271 1.431-1.817 2.426-6.125-1.376-8.94C29.695-.86 24.025-.332 20.915 3.361c-3.516 4.175-1.506 8.346 1.266 10.672 1.676 1.406 3.089 2.617 3.878 3.925-3.408-.743-7.49.538-9.063 1.167-1.629.652-2.544-.231-2.863-.324 1.077-2.555-2.966-2.347-2.997-.726-.39-.05-.802-.07-1.22-.071-.023-1.44-2.206-.909-2.111.295-.223.066-.447.123-.669.216-3.235 1.355-2.583 3.237-4.578 4.597-1.179.803-2.345.388-2.345 2.18 0 .985 1.584 1.759 3.171 1.835 3.058.146 4.583-.806 5.801-.48 3.326.89 4.07 4.401 4.498 6.752.387 2.13.339 2.597 1.317 2.542.978-.054 3 .168 3-2.832 1.704-.273 3.974.717 7 .387.422-.046.697 2.074 1.272 2.339.515.238 2.15.147 2.931-.634.569-.569.59-1.485.595-2.466 4.87-2.039 6.078-6.188 6.078-9.163z"/>
    <g fill="#E1E8ED">
      <circle cx="8.17" cy="21.424" r="1"/>
      <path d="M4.951 21.424c.413-1.834 1.85-3.156 4.073-3.374 1.541-.151 2.111.026 2.111.026s-.692 1.065-1.502 1.285c-1.134.31-2.783-.18-4.682 2.063zm10.629-1.99c2.747 1.123 4.557 4.732 7.591 6.159 6.083 2.862 9.112-.932 9.826-3.385.853-2.932-1.514-6.22-4.541-9.067-3.595-3.381-2.754-7.868-.798-9.456 1.899-1.541 4.23-2.085 7.122-.364-2.415-2.553-5.112-2.596-7.534-1.59s-5.036 4.145-3.605 7.982c1.294 3.468 5.367 5.672 6.33 8.397.492 1.393-.282 4.22-2.835 4.566-4.223.572-6.579-2.725-11.556-3.242z"/>
      <path d="M17.117 19.373s2.972-.699 5.835-.534c2.862.165 4.156.534 4.156.534s.734-1.84-2.394-4.569c-3.557-3.103-5.712-5.296-4.483-9.159 1.085-3.41 6.272-6.86 11.46-4.779-5.463-1.2-8.463 2.02-9.564 3.974-1.101 1.954-1.183 4.761 1.624 7.872s5.367 4.761 4.183 6.853c-.401.709-2.175 1.472-4.679.816-1.882-.491-3.992-1.228-6.138-1.008z"/>
    </g>
  </g>
  <g transform="translate(226.0000000000001, 799.7306695894642) scale(1 1) translate(0, 0) scale(3.5555555555555554 3.5555555555555554) ">
    <path fill="#A78E81" d="M2.381 8.671c-1.573 0-2.359.786-1.573 1.573 1.573 1.573 3.145 1.573 3.931.786L2.381 8.671zm6.29-6.29c0-1.573.786-2.359 1.573-1.573 1.573 1.573 1.573 3.145.786 3.931L8.671 2.381zm-4.717 9.435s8.547 14.433 14.939 16.512c3.344 1.087 5.692.599 7.863-1.573s2.406-4.447 1.573-7.863C26.937 13.188 11.816 3.954 11.816 3.954l-7.862 7.862z"/>
    <path fill="#A78E81" d="M16.129 26.852c4.231 5.36 8.793 7.807 10.465 6.519 1.624-1.25-.324-2.578-2.174-6.954-1.936-4.58-10.526-2.397-8.291.435zM26.85 16.07c5.36 4.231 7.803 8.858 6.516 10.53-1.25 1.624-2.578-.324-6.954-2.174-4.581-1.936-2.394-10.591.438-8.356z"/>
    <path fill="#846659" d="M17.008 21.564c.699-1.287-.914-3.363-2.504-3.314-1.172.036-3.617 1.934-5.883-.746-.209.209-.304.496-.311.829 1.158 1.577 2.472 3.242 3.848 4.765 1.656.479 3.913.192 4.85-1.534zm1.242-7.06c-.049 1.589 2.028 3.203 3.314 2.504 1.712-.93 2.007-3.159 1.544-4.81-1.545-1.372-3.246-2.703-4.851-3.882-.3.02-.56.113-.753.306 2.679 2.265.782 4.71.746 5.882z"/>
    <path fill="#CAB8AC" d="M13.341 16.895c1.589-.049 3.203 2.028 2.504 3.314-1.12 2.061-4.135 2.086-5.74 1.183-1.79-1.007-3.732-4.157-2.646-5.243 2.265 2.68 4.709.783 5.882.746zm3.553-3.553c-.049 1.589 2.028 3.203 3.314 2.504 2.061-1.12 2.086-4.135 1.183-5.74-1.007-1.79-4.157-3.732-5.243-2.646 2.679 2.265.782 4.71.746 5.882z"/>
    <path fill="#A78E81" d="M27.542 24.397c3.474 3.474 8.731 10.139 7.863 11.008-.868.868-7.534-4.389-11.008-7.863s-4.014-5.422-3.145-6.29c.868-.869 2.816-.329 6.29 3.145zM12.603 3.167c2.171 2.171 1.554 4.736-1.573 7.863s-5.692 3.744-7.863 1.573-2.34-5.523.787-8.649 6.477-2.958 8.649-.787z"/>
    <path fill="#CAB8AC" d="M13.738 4.303c1.223 1.223 1.991 5.173-1.136 8.3s-7.076 2.359-8.3 1.136c-1.93-1.93 1.223-5.067 2.796-6.64s4.71-4.726 6.64-2.796z"/>
    <path fill="#292F33" d="M9.457 6.312c.868.868.868 2.277 0 3.145s-2.277.868-3.145 0-.082-1.49.787-2.358 1.49-1.655 2.358-.787z"/>
    <circle fill="#292F33" cx="4.74" cy="9.457" r="1.112"/>
    <circle fill="#292F33" cx="9.457" cy="4.74" r="1.112"/>
    <path fill="#A78E81" d="M10.655 10.401c-.426 0-.82-.101-1.132-.308-.189-.125-.241-.38-.116-.57.125-.19.38-.242.57-.116.452.299 1.339.188 2.019-.253.276-.179.906-.674.785-1.399-.037-.224.114-.436.338-.473.225-.036.436.114.473.338.139.836-.291 1.668-1.15 2.224-.565.368-1.205.557-1.787.557z"/>
    <path fill="#A78E81" d="M7.931 13.619c-.103 0-.207-.009-.31-.026-.224-.038-.376-.249-.338-.473.038-.224.251-.375.473-.338.722.121 1.22-.509 1.399-.786.441-.681.553-1.568.253-2.019-.125-.189-.074-.444.116-.57.189-.126.445-.074.57.116.489.739.387 1.939-.249 2.92-.488.753-1.187 1.176-1.914 1.176z"/>
    <path fill="#846659" d="M25.635 28.904c-1.021-1.634-1.501-3.563-.898-4.166.613-.613 2.073-.745 4.186.878-1.348-1.286-3.757-2.695-4.186-5.044.123 2.164-.419 4.625-4.125 4.043 2.082.614 5.023 4.289 5.023 4.289z"/>
    <g fill="#67757F">
      <path d="M2.928 15.73c-.028 0-.057-.002-.086-.008-.264-.047-.44-.3-.393-.564.407-2.269 1.793-3.891 3.707-4.338.261-.06.523.102.584.363.061.262-.101.523-.363.584-1.524.356-2.634 1.689-2.971 3.564-.042.233-.246.399-.478.399z"/>
      <path d="M5.072 15.974c-.253 0-.466-.195-.484-.451-.079-1.078.493-2.498 1.586-3.008.244-.113.533-.009.646.235.113.243.009.533-.235.646-.671.313-1.08 1.335-1.028 2.056.02.268-.181.501-.449.52-.013.002-.024.002-.036.002zm6.208-9.209c-.037 0-.074-.004-.111-.013-.262-.061-.424-.323-.363-.584.448-1.914 2.07-3.299 4.338-3.707.264-.047.517.129.564.393.047.264-.128.517-.393.564-1.875.337-3.207 1.447-3.564 2.971-.05.225-.25.376-.471.376z"/>
      <path d="M12.944 6.877c-.069 0-.139-.015-.205-.046-.244-.113-.348-.403-.235-.646.51-1.093 1.919-1.664 3.008-1.586.268.019.469.253.449.52-.019.267-.248.468-.52.449-.712-.048-1.742.357-2.056 1.028-.083.177-.258.281-.441.281z"/>
    </g>
  </g>
  <g transform="translate(96.21286236252212, 682.8698059628388) scale(1 1) translate(0, 0) scale(3.5555555555555554 3.5555555555555554) ">
    <path fill="#31373D" d="M34.157 20.709c-.807-1.404-1.932-2.604-3.565-3.526-.431-.244-1.826-.275-1.826-.275s-.707-.809-1.344-.978c-3.476-.923-8.798.434-10.427 1.086-1.628.652-1.914.299-3.995-.016-.277-.042-.586-.066-.918-.073-.503-.431-.114-1.509-1.114-1.509S9.535 16.465 9 17c-.226.031-.456.074-.688.125-.207.042-.412.097-.621.155-.32-.673-.774-1.347-1.222-1.28-.402.06-.466 1.098-.421 1.943-.272.152-1.946 3.729-3.019 6.198-.092.212-1.882.83-2.064 1.011-.616.612-1.062 1.152-.653 1.642.631.757 2.649.694 3.91.505 1.261-.189 3.847-1.513 5.108-1.513 3.443 0 3.925 3.154 4.353 5.505.387 2.128.339 4.763 1.317 4.709s3-2 3-5c1 0 7.728.674 8 1s1 4 2 4 5-7 5-13c1 2 .668 4.172.668 4.878S34 30 35 30s1-2.009 1-3-.594-4.119-1.843-6.291z"/>
    <path fill="#99AAB5" d="M32.62 20.788c-.43-1.59-1.333-2.86-2.031-3.598-.895-.506-1.934-.933-3.166-1.26.261 1.098-.923 6.903-8.923 11.133-.94.497.857 2.652 3.469 3.312 4.907 1.241 8.457.855 10.098-1.79.553-1.802.933-3.74.933-5.585.02.04.032.081.051.121v-.001c-.097-.937-.277-1.761-.431-2.332z"/>
    <path fill="#E1E8ED" d="M4.958 22c.853-2.352 1.615-3.78 4.042-5-1.229.167-2.579.554-3.75 1.458-2.775 2.144-1.659 3.795-3.235 5.624-.329.381-.714.736-1.049 1.069C2.75 25 4.11 24.34 4.958 22zm11.596-3.809c-2.504.888-5.941 3.094-7.679 4.553C6.5 24.74 4.559 25.473 3.562 26c-1.631.863.755 1.177 3.438 0 2.108-.925 5.94-2.519 8.875-2.5 6.462.041 9.625-5.292 11.548-7.57-3.792-.334-8.162 1.301-10.869 2.261z"/>
    <circle fill="#E1E8ED" cx="7" cy="21" r="1"/>
  </g>
  <g transform="translate(25.17800769180161, 523.3229101434589) scale(1 1) translate(0, 0) scale(3.5555555555555554 3.5555555555555554) ">
    <g fill="#99AAB5">
      <path d="M3.016 5.201c-.062 0-.116-.043-.128-.105-.105-.555-.092-1.586.168-1.875.047-.053.129-.058.184-.01.053.048.058.13.01.184-.159.176-.216 1.072-.106 1.652.013.071-.033.139-.104.152-.008.002-.016.002-.024.002zm.517.9c-.057 0-.109-.038-.125-.096-.203-.74-.075-1.858-.008-2.097.019-.068.093-.107.16-.09.069.019.109.091.09.16-.069.246-.172 1.299.008 1.959.019.069-.022.141-.091.16-.011.003-.023.004-.034.004z"/>
      <path d="M4.17 7.035c-.054 0-.105-.035-.123-.089-.45-1.338-.336-2.578-.331-2.63.007-.07.066-.121.142-.116.071.007.124.07.117.142-.001.012-.113 1.238.318 2.521.023.068-.014.142-.082.165-.013.005-.027.007-.041.007zm.87.931c-.05 0-.098-.029-.12-.079-.779-1.808-.767-3.11-.766-3.164.001-.071.059-.128.13-.128h.002c.072.001.129.06.128.132 0 .013-.011 1.305.745 3.059.028.066-.002.142-.068.171-.017.006-.034.009-.051.009z"/>
    </g>
    <path fill="#292F33" d="M7.708 16.15c-.002 2.273.264 7.198.191 7.812-.074.614-.588 1.462-1.51 1.562s-4.156.409-4.99.453-.651.443.198.538 4.364.221 5.254.265 1.967-.352 2.424-.868 1.872-2.953 2.367-3.985-.37-4.296-1.56-5.379-2.372-2.543-2.374-.398z"/>
    <path fill="#66757F" d="M8.11 19.867c-.153-1.414-.339-5.618.171-4.463s1.666 4.203 1.097 7.238c-.115.613-.422 1.719-.684 2.352-.262.633-.751.882-1.518.91s-.575-.294.012-.467.967-.54 1.052-2.122c.07-1.295-.13-3.448-.13-3.448z"/>
    <path fill="#99AAB5" d="M8.375 20.025c-.008.362.047 1.3.042 1.829s-.154 2.317-.353 2.773c-.199.457.334.213.458-.36.125-.573.516-2.418.528-2.885.012-.468-.654-2.323-.675-1.357z"/>
    <path fill="#66757F" d="M2.85 1.802c.708-.674 1.726-.02 2.38.023.939.062 1.79-.263 3.018-.116s3.479.487 4.434 2.202c.787 1.415 1.852 3.802 2.682 4.979 1.019 1.445 2.753 3.657 3.875 4.803 1.206 1.232 4.908 2.917 6.094 3.118 2.351.399 6.989 1.903 8.042 5.612s1.328 5.824.563 6.513c-.765.689-1.571-.297-2.595-1.585-1.025-1.288-4.498-1.939-7.478-1.897s-8.146 1.437-11.177-.752c-3.034-2.19-4.614-6.029-5.104-9.706s-.205-4.92-.574-6.185C6.6 7.406 5.704 5.782 4.375 5.133S2.131 2.486 2.85 1.802z"/>
    <path fill="#99AAB5" d="M2.85 1.802c.708-.674 1.726-.02 2.38.023.939.062 1.79-.263 3.018-.116s3.479.487 4.434 2.202c.787 1.415 1.852 3.802 2.682 4.979 1.019 1.445 2.753 3.657 3.875 4.803 1.206 1.232 4.908 2.917 6.094 3.118 2.351.399 6.989 1.903 8.042 5.612s1.328 5.824.563 6.513c-.765.689-1.158-.539-2.183-1.827-1.025-1.288-4.751-2.343-7.73-2.301s-8.188 1.199-11.22-.989c-3.034-2.19-4.73-5.144-5.22-8.821s-.205-4.92-.574-6.185c-.41-1.405-1.306-3.029-2.635-3.678S2.131 2.486 2.85 1.802z"/>
    <path fill="#292F33" d="M15.746 19.496c-.933 1.551-1.064 3.557-1.218 4.784s-.098 2.076.517 2.618 1.714.754 2.466.816c.752.063 5.063.575 6.082.517s.714-.306-.047-.461-3.053-.967-3.58-1.566-.27-3.185-.324-4.158-.696-3.519-1.228-4.163c-.532-.643-1.951.422-2.668 1.613z"/>
    <path fill="#66757F" d="M16.148 19.095c-.924 1.556-1.073 3.877-1.221 5.105-.147 1.228-.048 1.855.569 2.394s1.608.79 2.519.878c.751.073 3.179.372 4.367.43 1.02.05.436-.28-.326-.431-.762-.151-1.831-.548-2.361-1.144-.53-.595-.134-3.979-.193-4.952s-.473-3.228-1.008-3.869-1.636.394-2.346 1.589z"/>
    <path fill="#99AAB5" d="M15.817 19.193c-.924 1.556-.411 2.811-.643 4.7-.15 1.228.116 2.225.586 2.548.676.464 1.421.779 2.331.867.751.073 2.026.341 3.213.399 1.02.05.603-.174-.159-.325-.762-.151-1.264-.485-1.795-1.081s.263-4.248.528-5.185c.562-1.988-.677-3.392-1.212-4.034s-2.139.916-2.849 2.111z"/>
    <path fill="#292F33" d="M2.932 1.7c.567-.453 1.162-.032.464.416s-.936-.038-.464-.416zm.3 2.346s-.177-.773.274-.915c.451-.142 2.077.242 2.929 1.222 0 0-2.116-1.03-2.659-.878s-.544.571-.544.571z"/>
    <path fill="#66757F" d="M11.228 3.835c.614.074 1.113.812.397.656-.716-.155-.397-.656-.397-.656z"/>
    <path fill="#292F33" d="M7.584 2.037c.616.048.535.642.059.553-.475-.088-.812-.611-.059-.553zm25.477 25.458c1.51-.349 2.406 3.478 1.786 5.029-.63 1.575-2.047 1.961-3.222 2.137-.587.088-1.068.122-1.475-.043-.397-.161-.362-.509.09-.589.384-.067 1.006-.244 1.309-.356.35-.13.523-.437.523-.437s-1.84.665-3.083.379c-1.278-.293-.694-.811.417-.884.802-.053 1.698-.253 2.426-.845 0 0-.93.38-1.975.493-1.045.113-2.13.04-1.423-.662.144-.143 1.235-.286 1.906-.485.797-.238 1.448-.623 1.448-.623s-1.43.331-2.018.311c-.697-.023-.758-.423-.502-.552.531-.267 1.41-.367 1.929-.558.957-.352.348-1.965 1.864-2.315z"/>
    <path d="M5.216 4.637c-.06 0-.113-.041-.127-.102-.213-.949-.958-1.66-.965-1.667-.052-.049-.055-.131-.005-.183s.131-.055.183-.006c.033.031.81.771 1.041 1.8.016.07-.028.14-.099.155-.009.002-.018.003-.028.003zm1.249.775c-.056 0-.107-.036-.124-.091-.377-1.214-1.404-2.154-1.415-2.164-.053-.048-.057-.13-.009-.184.049-.053.131-.056.184-.009.044.041 1.09.997 1.488 2.279.021.068-.017.142-.085.163-.013.004-.026.006-.039.006zm1.057.724c-.054 0-.104-.034-.123-.087-.524-1.521-1.584-2.511-1.595-2.521-.053-.049-.055-.131-.007-.184.05-.053.131-.056.184-.008.045.042 1.118 1.042 1.665 2.627.023.068-.013.142-.081.166-.014.005-.028.007-.043.007zm1.194 1.34c-.057 0-.109-.038-.125-.095-.521-1.892-1.608-3.114-1.62-3.126-.048-.053-.044-.135.01-.184.053-.048.134-.044.184.01.045.05 1.138 1.276 1.677 3.231.019.069-.021.141-.091.16-.012.003-.023.004-.035.004z" fill="#CCD6DD"/>
  </g>
  <g transform="translate(25.17800769180161, 348.6770898565412) scale(1 1) translate(0, 0) scale(3.5555555555555554 3.5555555555555554) ">
    <circle fill="#C1694F" cx="7" cy="6" r="6"/>
    <circle fill="#C1694F" cx="29" cy="6" r="6"/>
    <circle fill="#E6AAAA" cx="7" cy="6" r="4"/>
    <circle fill="#E6AAAA" cx="29" cy="6" r="4"/>
    <path fill="#C1694F" d="M35 22S33.692 0 18 0 1 22 1 22c0 5.872 4.499 10.323 12.216 11.61C14.311 35.06 16.044 36 18 36s3.688-.94 4.784-2.39C30.501 32.323 35 27.872 35 22z"/>
    <circle fill="#DD2E44" cx="18" cy="30" r="4"/>
    <path fill="#D99E82" d="M18 20S7 23.687 7 27s2.687 6 6 6c2.088 0 3.925-1.067 5-2.685C19.074 31.933 20.912 33 23 33c3.313 0 6-2.687 6-6s-11-7-11-7z"/>
    <path fill="#272B2B" d="M11 17s0-2 2-2 2 2 2 2v2s0 2-2 2-2-2-2-2v-2zm10 0s0-2 2-2 2 2 2 2v2s0 2-2 2-2-2-2-2v-2zm-7.875 8c-1.624 1 3.25 4 4.875 4s6.499-3 4.874-4-8.124-1-9.749 0z"/>
  </g>
  <g transform="translate(96.212862362522, 189.13019403716132) scale(1 1) translate(0, 0) scale(3.5555555555555554 3.5555555555555554) ">
    <path fill="#CCD6DD" d="M10.378 3.072c2.343 2.343 1.636 5.435-.707 7.778s-5.435 3.05-7.778.707-2.429-7.47-.707-9.192 6.849-1.636 9.192.707z"/>
    <path fill="#66757F" d="M8.695 4.467c1.562 1.562.855 3.388-.707 4.95s-3.388 2.269-4.95.707-1.414-5.657-.706-6.364 4.802-.855 6.363.707z"/>
    <path fill="#CCD6DD" d="M25.622 3.072c-2.343 2.343-1.636 5.435.707 7.778s5.435 3.05 7.778.707 2.429-7.47.707-9.192-6.849-1.636-9.192.707z"/>
    <path fill="#66757F" d="M27.305 4.467c-1.562 1.562-.855 3.388.707 4.95s3.388 2.269 4.95.707c1.562-1.562 1.414-5.657.707-6.364-.708-.707-4.803-.855-6.364.707z"/>
    <path fill="#E1E8ED" d="M34.017 15s1-13-16-13c-17.178 0-16 12-16 12 0 13 11 19 16 19s16-5 16-18z"/>
    <circle fill="#DD2E44" cx="18" cy="30" r="4"/>
    <path fill="#CCD6DD" d="M18 15c-5 0-7 9.687-7 13s2 7 7 7 7-3.687 7-7-2-13-7-13z"/>
    <path fill="#272B2B" d="M14.579 24.298C12.726 25.438 15.719 30 18 30s5.275-4.562 3.421-5.702c-1.853-1.141-4.989-1.141-6.842 0z"/>
    <path fill="#DD2E44" d="M16 32s.095 2 2.095 2 2.095-2 2.095-2-2.095.158-2.095-2c0 1-2.095 2-2.095 2z"/>
    <path fill="#292F33" d="M16 32.5c-1.693 0-2.404-1.199-2.433-1.25-.138-.239-.056-.545.183-.684.24-.138.544-.056.683.184.016.026.469.75 1.567.75 1.312 0 1.487-1.389 1.502-1.547.027-.273.277-.463.544-.45.274.026.476.268.452.541-.076.85-.695 2.456-2.498 2.456z"/>
    <path fill="#292F33" d="M20 32.5c-1.803 0-2.422-1.606-2.498-2.456-.024-.274.179-.518.454-.542.281-.011.519.179.542.454.015.155.19 1.544 1.502 1.544 1.098 0 1.551-.724 1.569-.755.143-.233.448-.313.684-.173.236.14.317.44.18.678-.03.051-.741 1.25-2.433 1.25z"/>
    <path fill="#272B2B" d="M25.5 19c-.825 0-1.5-.675-1.5-1.5v-1c0-.825.675-1.5 1.5-1.5s1.5.675 1.5 1.5v1c0 .825-.675 1.5-1.5 1.5zm-15 0c-.825 0-1.5-.675-1.5-1.5v-1c0-.825.675-1.5 1.5-1.5s1.5.675 1.5 1.5v1c0 .825-.675 1.5-1.5 1.5z"/>
  </g>
  <g transform="translate(225.99999999999977, 72.26933041053587) scale(1 1) translate(0, 0) scale(3.5555555555555554 3.5555555555555554) ">
    <circle fill="#272B2B" cx="7" cy="6" r="6"/>
    <circle fill="#272B2B" cx="29" cy="6" r="6"/>
    <circle fill="#66757F" cx="7" cy="6" r="4"/>
    <circle fill="#66757F" cx="29" cy="6" r="4"/>
    <path fill="#EEE" d="M35 22c0 7-6.375 12-17 12S1 29 1 22C1 22 2.308 0 18 0s17 22 17 22z"/>
    <circle fill="#CCD6DD" cx="18" cy="30" r="6"/>
    <circle fill="#DD2E44" cx="18" cy="30" r="4"/>
    <path fill="#272B2B" d="M20.709 12.654C25.163 9.878 32 17 26.952 22.67 23.463 26.591 20 25 20 25s-2.636-10.26.709-12.346zm-5.442.011C10.813 9.888 3.976 17.01 9.023 22.681c3.49 3.92 6.953 2.329 6.953 2.329s2.636-10.26-.709-12.345z"/>
    <path fill="#66757F" d="M11 17s0-2 2-2 2 2 2 2v2s0 2-2 2-2-2-2-2v-2z"/>
    <path fill="#FFF" d="M18 20S7 23.687 7 27s2.687 6 6 6c2.088 0 3.925-1.067 5-2.685C19.074 31.933 20.912 33 23 33c3.313 0 6-2.687 6-6s-11-7-11-7z"/>
    <path fill="#66757F" d="M21 17s0-2 2-2 2 2 2 2v2s0 2-2 2-2-2-2-2v-2z"/>
    <path fill="#272B2B" d="M13.125 25c-1.624 1 3.25 4 4.875 4s6.499-3 4.874-4-8.124-1-9.749 0z"/>
  </g>
  <g transform="translate(392.09804542758525, 18.300803945325242) scale(1 1) translate(0, 0) scale(3.5555555555555554 3.5555555555555554) ">
    <path fill="#F18F26" d="M10.478 22.439s.702 2.281-.337 7.993c-.186 1.025-.46 2.072-.599 2.93-1.757 0-1.851 2.002-1.478 2.002h2.094c1.337 0 2.971-3.334 3.854-7.961s-3.534-4.964-3.534-4.964zm13.042 3.702s2.272 1.22 2.188 4.081c-.033 1.131-.249 2.091-.355 3.024-1.832 0-1.839 1.985-1.305 1.985h1.856c.923 0 3.001-3.158 3.379-7.281.379-4.122-5.763-1.809-5.763-1.809z"/>
    <path fill="#FFCC4E" d="M36 8.447C36 3.525 31.859 1 27 1c-.553 0-1 .448-1 1s.447 1 1 1c1.804 0 6.717.934 6.717 5.447 0 2.881-1.567 5.462-3.77 5.982-.164-.073-.345-.104-.509-.192-7.239-3.917-13.457.902-15.226-.29-1.752-1.182-.539-3.255-2.824-5.243-.33-1.841-1.073-4.477-1.794-4.477-.549 0-1.265 1.825-1.74 3.656-.591-1.381-1.363-2.756-1.86-2.756-.64 0-1.278 2.273-1.594 4.235-1.68 1.147-2.906 2.809-2.906 4.765 0 2.7 4.05 3.357 5.4 3.411 1.35.054 3.023 3.562 3.585 5.072 1.242 4.367 2.051 8.699 2.698 11.183-1.649 0-1.804 2.111-1.348 2.111.713 0 1.953-.003 2.225 0 1.381.014 2.026-4.706 2.026-8.849 0-.212-.011-.627-.011-.627s1.93.505 6.038-.208c2.444-.424 5.03.849 5.746 3.163.527 1.704 1.399 3.305 1.868 4.484-1.589 0-1.545 2.037-1.084 2.037.787 0 1.801.014 2.183 0 1.468-.055.643-7.574 1.03-10.097s1.267-5.578-.229-8.797C34.857 15.236 36 11.505 36 8.447z"/>
    <circle fill="#292F33" cx="5.994" cy="11.768" r=".9"/>
    <path fill="#E75A70" d="M2.984 12.86c-.677.423-.677 1.777-1.015 1.777S.954 13.841.954 12.86c-.001-.981 2.862-.52 2.03 0z"/>
    <path fill="#FEE7B8" d="M6.578 14.343c-.041.026-.09.036-.142.026-.018-.004-1.548-.241-2.545.146-.129.05-.341-.023-.413-.191s.023-.365.152-.415c1.44-.569 2.857-.234 2.934-.218.139.029.195.19.188.372-.004.114-.104.235-.174.28zm-.472 2.339c-.048.009-.097-.001-.141-.031-.015-.01-1.331-.83-2.402-.853-.138-.003-.305-.154-.305-.341 0-.186.165-.335.304-.333 1.552.024 2.724.891 2.789.937.117.082.104.255.027.424-.049.107-.189.182-.272.197z"/>
    <path fill="#F18F26" d="M7.854 7.881s.372-.039.859.033c.217-.46.585-.887.585-.887s.281.668.386 1.179c.025.12.218.117.322.189 0 0 .038-3.463-.863-3.836.001-.002-.755 1.124-1.289 3.322zM4.399 9.36s.384-.267.883-.574c.217-.624.568-1.333.568-1.333s.307.602.345.81c.21-.114.21-.106.403-.19 0 0-.114-2.286-1.099-2.527 0 0-.732 1.372-1.1 3.814z"/>
    <path fill="#FD9" d="M18.45 23.644c-2.649.57-2.38 2.782-2.38 2.782s1.93.505 6.038-.208c1.067-.185 2.153-.03 3.107.377-1.607-3.047-4.315-3.479-6.765-2.951z"/>
    <path fill="#F18F26" d="M14.686 14.109c.476.676 2.397 2.368 2.745 2.159.338-.203.59-2.055.342-2.706-1.329.359-2.385.658-3.087.547zm7.024 2.689c.623.138 1.507-2.979 1.41-4.123-1.449.017-2.78.256-3.965.537.335 1.08 1.953 3.452 2.555 3.586zm2.627-4.082c.042.723.982 2.603 1.285 2.737.307.137 1.685-1.319 1.866-2.061-1.086-.378-2.142-.597-3.151-.676z"/>
  </g>
  <g transform="translate(565.7871376374778, 36.55626315603547) scale(1 1) translate(0, 0) scale(3.5555555555555554 3.5555555555555554) ">
    <path fill="#662113" d="M32.325 10.958s2.315.024 3.511 1.177c-.336-4.971-2.104-8.249-5.944-10.13-3.141-1.119-6.066 1.453-6.066 1.453s.862-1.99 2.19-2.746C23.789.236 21.146 0 18 0c-3.136 0-5.785.227-8.006.701 1.341.745 2.215 2.758 2.215 2.758S9.194.803 6 2.053C2.221 3.949.481 7.223.158 12.174c1.183-1.19 3.55-1.215 3.55-1.215S-.105 13.267.282 16.614c.387 2.947 1.394 5.967 2.879 8.722C3.039 22.15 5.917 20 5.917 20s-2.492 5.96-.581 8.738c1.935 2.542 4.313 4.641 6.976 5.916-.955-1.645-.136-3.044-.103-2.945.042.125.459 3.112 2.137 3.743 1.178.356 2.4.548 3.654.548 1.292 0 2.55-.207 3.761-.583 1.614-.691 2.024-3.585 2.064-3.708.032-.098.843 1.287-.09 2.921 2.706-1.309 5.118-3.463 7.064-6.073 1.699-2.846-.683-8.557-.683-8.557s2.85 2.13 2.757 5.288c1.556-2.906 2.585-6.104 2.911-9.2-.035-3.061-3.459-5.13-3.459-5.13z"/>
    <path fill="#FFCC4D" d="M13.859 9.495c.596 2.392.16 4.422-2.231 5.017-2.392.596-6.363.087-6.958-2.304-.596-2.392.469-5.39 1.81-5.724 1.341-.334 6.784.62 7.379 3.011zm9.104 18.432c0 2.74-2.222 4.963-4.963 4.963s-4.963-2.223-4.963-4.963c0-2.741 2.223-4.964 4.963-4.964 2.741 0 4.963 2.222 4.963 4.964z"/>
    <path fill="#DD2E44" d="M21.309 27.927c0 1.827-1.481 3.309-3.309 3.309s-3.309-1.481-3.309-3.309c0-1.827 1.481-3.31 3.309-3.31s3.309 1.483 3.309 3.31z"/>
    <path fill="#E6AAAA" d="M11.052 8.997c.871 1.393.447 3.229-.946 4.1-1.394.871-2.608.797-3.479-.596-.871-1.394-.186-4.131.324-4.45.51-.319 3.23-.448 4.101.946z"/>
    <path fill="#FFCC4D" d="M22.141 9.495c-.596 2.392-.159 4.422 2.232 5.017 2.392.596 6.363.087 6.959-2.304.596-2.392-.47-5.39-1.811-5.724-1.342-.334-6.786.62-7.38 3.011z"/>
    <path fill="#E6AAAA" d="M24.948 8.997c-.871 1.393-.447 3.229.945 4.1 1.394.871 2.608.797 3.479-.596.871-1.394.185-4.131-.324-4.45-.51-.319-3.229-.448-4.1.946z"/>
    <path fill="#FFCC4D" d="M18 7.125h-.002C5.167 7.126 7.125 12.083 8.5 18.667 9.875 25.25 10.384 27 10.384 27h15.228s.51-1.75 1.885-8.333C28.872 12.083 30.829 7.126 18 7.125z"/>
    <path fill="#272B2B" d="M12 16s0-1.5 1.5-1.5S15 16 15 16v1.5s0 1.5-1.5 1.5-1.5-1.5-1.5-1.5V16zm9 0s0-1.5 1.5-1.5S24 16 24 16v1.5s0 1.5-1.5 1.5-1.5-1.5-1.5-1.5V16z"/>
    <path fill="#FFE8B6" d="M20.168 21.521c-1.598 0-1.385.848-2.168 2.113-.783-1.266-.571-2.113-2.168-2.113-6.865 0-6.837.375-6.865 2.828-.058 4.986 2.802 6.132 5.257 6.06 1.597-.048 2.994-.88 3.777-2.131.783 1.251 2.179 2.083 3.776 2.131 2.455.072 5.315-1.073 5.257-6.06-.029-2.453-.001-2.828-6.866-2.828z"/>
    <path fill="#272B2B" d="M14.582 21.411c-1.14.233 2.279 4.431 3.418 4.431s4.559-4.198 3.419-4.431c-1.14-.232-5.698-.232-6.837 0z"/>
    <circle fill="#D99E82" cx="11.5" cy="24.5" r=".5"/>
    <circle fill="#D99E82" cx="10.5" cy="26.5" r=".5"/>
    <circle fill="#D99E82" cx="12.5" cy="27.5" r=".5"/>
    <circle fill="#D99E82" cx="24.5" cy="24.5" r=".5"/>
    <circle fill="#D99E82" cx="25.5" cy="26.5" r=".5"/>
    <circle fill="#D99E82" cx="23.5" cy="27.5" r=".5"/>
  </g>
  <g transform="translate(717.0348546707205, 123.87917329949448) scale(1 1) translate(0, 0) scale(3.5555555555555554 3.5555555555555554) ">
    <path fill="#FFCC4D" d="M32.855 16.484c-.259-.171-.543-.328-.855-.484-2-1-5 0-9 0-2 0-4.901-3-10-3-.801 0-2.256.635-4.341.89C8.62 12.837 8.044 12 7.333 12 6.597 12 6 12.895 6 14c0 .051.007.1.01.15C3.19 14.916 0 18.589 0 20.375 0 22.375 2 24 2 24s1 0 3-2c1.581-1.581 5-1 5-1l1 12s-1 1-2 1-1 2-1 2h6l1-9h3c2 0 7-1 7-1 2 3 4 4 4 4v3l-2 1c-2 1-1 2-1 2h6s1-8 2-13v5c0 .553.447 1 1 1s1-.447 1-1v-7c0-2.666-1.357-3.928-3.145-4.516z"/>
    <circle fill="#292F33" cx="4" cy="17" r="1"/>
    <path fill="#292F33" d="M0 20s0 2 1 2c0-2 1-2 1-2s-1-1-2 0z"/>
    <g fill="#F4900C">
      <circle cx="10.5" cy="16.5" r="2"/>
      <circle cx="17.5" cy="16.5" r="2"/>
      <circle cx="14.5" cy="21.5" r="2"/>
      <circle cx="21.5" cy="23.5" r="2"/>
      <circle cx="24.5" cy="18.5" r="2"/>
      <circle cx="28.5" cy="23.5" r="2"/>
      <circle cx="31.5" cy="18.5" r="2"/>
    </g>
    <g fill="#FFAC33">
      <circle cx="10.5" cy="16.5" r="1"/>
      <circle cx="17.5" cy="16.5" r="1"/>
      <circle cx="14.5" cy="21.5" r="1"/>
      <circle cx="21.5" cy="23.5" r="1"/>
      <circle cx="24.5" cy="18.5" r="1"/>
      <circle cx="28.5" cy="23.5" r="1"/>
      <circle cx="31.5" cy="18.5" r="1"/>
    </g>
  </g>
  <g transform="translate(819.6890922098924, 265.1706099081639) scale(1 1) translate(0, 0) scale(3.5555555555555554 3.5555555555555554) ">
    <path fill="#FFAC33" d="M32.338 16.852c-.367-.33-.818-.592-1.338-.852-2-1-5 0-9 0-2 0-3.901-3-9-3-.801 0-2.256.635-4.341.89C8.62 12.837 8.044 12 7.333 12 6.597 12 6 12.895 6 14c0 .051.007.1.01.15C3.19 14.916 0 18.589 0 20.375 0 22.375 2 24 2 24s2.171-1 5-1h3l1 10s-1 1-2 1-1 2-1 2h6l1-8h3c2 0 6-1 6-1 2 3 4 4 4 4v2l-2 1c-2 1-1 2-1 2h6s1-8 2-13c.232-1.162.353-2.101.382-2.881.396.549.618 1.183.618 1.881 0 2.93 0 5.697-1.832 8.445-.307.46-.183 1.08.277 1.387.171.113.364.168.554.168.323 0 .641-.156.833-.445C36 28.303 36 25.099 36 22c0-2.297-1.396-4.137-3.662-5.148z"/>
    <circle fill="#292F33" cx="5" cy="17" r="1"/>
    <path fill="#292F33" d="M0 20s0 2 1 2c0-2 1-2 1-2s-1-1-2 0zm16 5c2.154-2.872 2.759-7.794 2.93-10.348-.779-.443-1.685-.901-2.804-1.223.403 1.455 1.562 6.506-.126 11.571zm4-2c1.264-1.896 1.729-4.988 1.9-7.009-.783-.039-1.562-.518-2.529-1.085.524 1.452 1.345 4.512.629 8.094zm3-1c1.094-1.641 1.588-4.177 1.812-6.141-.59.053-1.218.09-1.864.114.331 1.592.518 3.698.052 6.027zm3-1c.961-1.442 1.458-3.574 1.717-5.403-.515.033-1.052.08-1.63.138.232 1.478.308 3.291-.087 5.265zm3 2.444c1.364-2.046 1.797-5.486 1.935-7.468-.707-.336-1.538-.432-2.489-.414.523 1.528 1.236 4.471.554 7.882zM13 21c1.455-2.182 1.85-5.942 1.958-7.835C14.36 13.063 13.714 13 13 13c-.161 0-.356.032-.568.075.523 1.516 1.256 4.483.568 7.925z"/>
  </g>
  <g>
    <defs/>
    <path d="M 485.33358744419047 554.7357968230472 L 500.0 500.0 L 560.9225514227011 341.2913274954757" fill="none" stroke="black" stroke-width="12.8"/>
    <path d="M 696.2990915244727 613.3333333333333 L 549.0747728811182 528.3333333333334 A 56.666666666666664 56.666666666666664 0 0,1 443.3333333333333 500.0 L 386.6666666666667 500.0" fill="none" stroke="black" stroke-width="12.8"/>
    <path d="M 777.1418202079117 558.9083123983652 L 721.7134561663293 547.1266499186921 A 226.66666666666666 226.66666666666666 0 0,1 651.6696041080079 668.4461604415427 L 727.5044061620118 752.669240662314" fill="none" stroke="black" stroke-width="12.8"/>
    <path d="M 840.0 500.0 L 783.3333333333334 500.0 A 283.33333333333337 283.33333333333337 0 0,1 758.8378796654035 615.2420488714768 L 810.6054555984842 638.2904586457721" fill="none" stroke="black" stroke-width="12.8"/>
    <path d="M 373.66537966884295 613.7522030810059 L 415.77691977922865 575.834802054004 A 113.33333333333333 113.33333333333333 0 0,1 415.77691977922865 424.16519794599606 L 331.5538395584573 348.3303958919921" fill="none" stroke="black" stroke-width="12.8"/>
    <path d="M 429.95614794167864 715.5728103602348 L 447.4671109562589 661.6796077701761 A 170.0 170.0 0 0,1 333.71490787525306 535.3449874390191 L 167.42981575050607 570.6899748780381" fill="none" stroke="black" stroke-width="12.8"/>
    <path d="M 529.6163979258351 781.7812036876775 L 523.6931183406681 725.4249629501419 A 226.66666666666666 226.66666666666666 0 0,1 348.3303958919922 668.4461604415427 L 310.4129948649902 710.5577005519285" fill="none" stroke="black" stroke-width="12.8"/>
    <path d="M 605.0657780874822 823.3592155403521 L 587.5548150729018 769.4660129502936 A 283.33333333333337 283.33333333333337 0 0,1 470.38360207416486 781.7812036876775 L 464.46032248899786 838.137444425213" fill="none" stroke="black" stroke-width="12.8"/>
    <path d="M 330.0000000000001 794.4486372867092 L 358.33333333333337 745.373864405591 A 283.33333333333337 283.33333333333337 0 0,1 270.77851826043155 666.5391548162008 L 224.9342219125179 699.846985779441" fill="none" stroke="black" stroke-width="12.8"/>
    <path d="M 241.1621203345963 384.75795112852336 L 292.92969626767706 407.8063609028187 A 226.66666666666666 226.66666666666666 0 0,1 386.6666666666666 303.7009084755273 L 329.9999999999999 205.55136271329093" fill="none" stroke="black" stroke-width="12.8"/>
    <path d="M 167.42981575050607 429.3100251219619 L 222.85817979208838 441.09168760163493 A 283.33333333333337 283.33333333333337 0 0,1 270.7785182604315 333.4608451837993 L 224.93422191251784 300.15301422055916" fill="none" stroke="black" stroke-width="12.8"/>
    <path d="M 464.4603224889976 161.8625555747871 L 482.2301612444988 330.9312777873936 A 170.0 170.0 0 0,1 626.3346203311569 386.247796918994 L 668.4461604415426 348.330395891992" fill="none" stroke="black" stroke-width="12.8"/>
    <path d="M 641.6666666666667 254.62613559440902 L 613.3333333333334 303.7009084755273 A 226.66666666666666 226.66666666666666 0 0,1 707.0703037323228 407.80636090281865 L 810.6054555984844 361.70954135422795" fill="none" stroke="black" stroke-width="12.8"/>
    <path d="M 605.065778087482 176.64078445964776 L 587.5548150729018 230.5339870497064 A 283.33333333333337 283.33333333333337 0 0,1 689.5870051350099 289.4422994480717 L 727.504406162012 247.33075933768603" fill="none" stroke="black" stroke-width="12.8"/>
  </g>
</svg>
