<?xml version='1.0' encoding='ASCII' standalone='yes'?>
<svg xmlns="http://www.w3.org/2000/svg" xmlns:xlink="http://www.w3.org/1999/xlink" version="1.1" width="1000.0px" viewBox="0 0 1000.0 1000.0" height="1000.0px">
  <g transform="translate(943.4513322353837, 474.8672587712816) scale(1 1) translate(0, 0) scale(1.3962634015954636 1.3962634015954636) ">
    <path fill="#5C913B" d="M1.062 5.125s4.875-5 10-5C17.188.125 19 5.062 19 5.062s.625-4 5-4 6.938 3.125 6.938 3.125-3.562 2.125-4.625 2.562c-2.801 1.153-11.375 3.562-15.375 2.562S1.062 5.125 1.062 5.125z"/>
    <path fill="#FF886C" d="M18 6s1.042-.896 6-.896c6.542 0 12 4.812 12 12.927 0 11.531-14.958 17.881-14.958 17.881S1 34.833 1 17.977C1 8.018 7.75 5 12 5c4.958 0 6 1 6 1z"/>
    <path fill="#77B255" d="M1.062 5.125s4.875-5 10-5C17.188.125 19 5.062 19 5.062s-4.062 5.25-8.062 4.25-9.876-4.187-9.876-4.187z"/>
    <path fill="#DD2E44" d="M22.999 30c-.19 0-.383-.055-.554-.168-.46-.307-.584-.927-.277-1.387C22.183 28.423 24 25.538 24 19c0-6.445-4.578-10.182-4.625-10.219-.431-.345-.501-.974-.156-1.405.346-.431.975-.501 1.406-.156C20.844 7.395 26 11.604 26 19c0 7.22-2.079 10.422-2.168 10.555-.192.289-.51.445-.833.445z"/>
  </g>
  <g transform="translate(939.7564068568406, 533.596415895271) scale(1 1) translate(0, 0) scale(1.3962634015954636 1.3962634015954636) ">
    <path fill="#77B255" d="M25.999 24c-.198 0-.397-.059-.572-.181-6.543-4.58-12.166-12.366-15.397-17.439 1.699 10.528.997 16.458.962 16.744-.068.548-.562.93-1.115.868-.548-.068-.937-.567-.869-1.115.009-.079.936-8.033-1.986-21.668-.105-.487.166-.978.634-1.148.466-.172.991.028 1.226.468.079.148 8.007 14.873 17.691 21.652.453.316.562.94.246 1.392-.194.279-.504.427-.82.427z"/>
    <path fill="#5C913B" d="M26.547 8.818c-3.476.96-5.051 2.546-10.749.667-4.72-1.557-7.037-4.207-6.345-6.305.692-2.098 3.18-3.163 7.9-1.606 4.749 1.567 4.123 3.466 9.194 7.244z"/>
    <circle fill="#BE1931" cx="26" cy="28" r="8"/>
    <circle fill="#BE1931" cx="11" cy="28" r="8"/>
  </g>
  <g transform="translate(928.7299019016723, 591.3993791283172) scale(1 1) translate(0, 0) scale(1.3962634015954636 1.3962634015954636) ">
    <path fill="#DD2E44" d="M24 7c-3 0-3 1-6 1s-3-1-6-1c-4 0-9 2-9 9 0 11 6 20 10 20 3 0 3-1 5-1s2 1 5 1c4 0 10-9 10-20 0-7.001-5-9-9-9z"/>
    <path fill="#77B255" d="M19 7s3-4 8-4c4 0 6 2 6 2s-4 3-7 3-7-1-7-1z"/>
    <path fill="#662113" d="M18 10c-.552 0-1-.448-1-1 0-3.441 1.2-6.615 3.293-8.707.391-.391 1.023-.391 1.414 0s.391 1.024 0 1.414C19.986 3.427 19 6.085 19 9c0 .552-.448 1-1 1z"/>
  </g>
  <g transform="translate(910.5457119399367, 647.3645612104184) scale(1 1) translate(0, 0) scale(1.3962634015954636 1.3962634015954636) ">
    <path fill="#A6D388" d="M7.681 9.097c1.587-3.151 7.698-1.916 11.958 2.171 2.697 2.586 8.056 1.498 11.498 4.804 3.493 3.354 3.259 9.361-3.053 15.767C23 37 16 37 11.835 33.384c-4.388-3.811-2.476-8.61-4.412-13.585C5.487 14.823 3.1 9.375 7.681 9.097z"/>
    <path fill="#662113" d="M8.178 9.534c-.43.448-1.114.489-1.527.093-3.208-3.079-3.918-7.544-3.946-7.776-.074-.586.348-1.157.939-1.278.592-.121 1.131.257 1.205.842.006.05.657 3.997 3.359 6.59.413.397.4 1.081-.03 1.529z"/>
  </g>
  <g transform="translate(885.4906125100388, 700.6093577881609) scale(1 1) translate(0, 0) scale(1.3962634015954636 1.3962634015954636) ">
    <path fill="#3E721D" d="M19.32 25.358c-.113 0-.217.003-.32.005v-.415c4.805-.479 8.548-4.264 8.548-7.301 0-3.249 0 1.47-9.562 1.47-9.558 0-9.558-4.719-9.558-1.47 0 3.043 3.757 6.838 8.572 7.305v.411c-.104-.002-.207-.005-.321-.005-2.553 0-6.603-2.05-6.603-1.32 0 .646 4.187 4.017 6.924 4.796V35c0 .553.447 1 1 1s1-.447 1-1v-6.166c2.738-.779 6.924-4.15 6.924-4.796 0-.729-4.05 1.32-6.604 1.32z"/>
    <path fill="#A0041E" d="M26.527 7.353c-3.887-4.412 1.506-5.882-2.592-5.882-.713 0-1.921.44-3.29 1.189C19.951 1.088 19.023 0 18 0c-2.05 0-3.726 4.342-3.873 8.269-1.108 1.543-1.855 3.235-1.855 4.966 0 6.092 2.591 8.823 6.479 8.823 7.776.001 13.644-8.047 7.776-14.705z"/>
    <path fill="#BE1931" d="M23.728 13.235c0 6.092-2.59 8.823-6.48 8.823-7.776 0-13.643-8.048-7.776-14.706C13.361 2.94 7.967 1.47 12.064 1.47c2.593.001 11.664 5.674 11.664 11.765z"/>
  </g>
  <g transform="translate(853.959737497179, 750.2940666126136) scale(1 1) translate(0, 0) scale(1.3962634015954636 1.3962634015954636) ">
    <path fill="#BE1931" d="M22.614 34.845c3.462-1.154 6.117-3.034 6.12-9.373C28.736 21.461 33 17 32.999 12.921 32.998 9 28.384 2.537 17.899 3.635 7.122 4.764 3 8 2.999 15.073c0 4.927 5.304 8.381 8.127 13.518C13 32 18.551 38.187 22.614 34.845z"/>
    <path fill="#77B255" d="M26.252 3.572c-1.278-1.044-3.28-1.55-5.35-1.677.273-.037.542-.076.82-.094.973-.063 3.614-1.232 1.4-1.087-.969.063-1.901.259-2.837.423.237-.154.479-.306.74-.442C21 0 17 0 14.981 1.688 14.469 1.576 14 1 11 1c-2 0-4.685.926-3 1 .917.041 2 0 1.858.365C9.203 2.425 6 3 6 4c0 .353 2.76-.173 3 0-1.722.644-3 2-3 3 0 .423 2.211-.825 3-1-1 1-1.4 1.701-1.342 2.427.038.475 2.388-.09 2.632-.169.822-.27 3.71-1.258 4.6-2.724.117.285 2.963 1.341 4.11 1.466.529.058 2.62.274 2.141-.711C21 6 20 5 19.695 4.025c.446-.019 8.305.975 6.557-.453z"/>
    <path fill="#F4ABBA" d="M9.339 17.306c-.136-1.46-2.54-3.252-2.331-1 .136 1.46 2.54 3.252 2.331 1zm7.458.553c-.069-.622-.282-1.191-.687-1.671-.466-.55-1.075-.362-1.234.316-.187.799.082 1.752.606 2.372l.041.048c-.213-.525-.427-1.05-.642-1.574l.006.047c.071.64.397 1.73 1.136 1.906.754.182.826-.988.774-1.444zm5.752-4.841c.476-.955.17-3.962-.831-1.954-.476.954-.171 3.962.831 1.954zm7.211-1.457c-.03-.357-.073-.78-.391-1.01-1.189-.858-2.381 2.359-1.385 3.08.02.012.036.025.055.039l-.331-.919c0 .018.001.035.003.052.049.564.376 1.377 1.084.948.667-.406 1.028-1.444.965-2.19zm-1.345 8.567c1.016-1.569-.545-3.451-1.78-1.542-1.016 1.568.546 3.45 1.78 1.542zm-5.748 2.894c.173-1.938-2.309-2.752-2.51-.496-.173 1.938 2.309 2.752 2.51.496zm-9.896-1.212l-.049.004 1.362.715c-.006-.004-.011-.011-.018-.017-.306-.28-1.353-1.083-1.788-.592-.44.497.498 1.421.804 1.703.342.314.928.763 1.429.73 1.437-.093-.783-2.605-1.74-2.543zm13.227 5.907c.969-1.066.725-4.05-.798-2.376-.969 1.066-.724 4.05.798 2.376zM12.599 13.753c.093-.005.187-.012.28-.019.703-.046 1.004-1.454 1.042-1.952.044-.571-.043-1.456-.785-1.407l-.281.019c-.702.047-1.004 1.454-1.042 1.952-.044.571.044 1.457.786 1.407zm7.846 15.257c.395.764.252 1.623-.32 1.919s-1.357-.081-1.753-.844c-.395-.764-.252-1.623.32-1.919.573-.296 1.357.081 1.753.844z"/>
  </g>
  <g transform="translate(816.450347635942, 795.6351301454087) scale(1 1) translate(0, 0) scale(1.3962634015954636 1.3962634015954636) ">
    <path fill="#FFAC33" d="M31 5.718h-6v4h4s2 0 2 2v12c0 2-2 2-2 2h-4v4h6c2.206 0 4-1.794 4-4v-16c0-2.206-1.794-4-4-4z"/>
    <path fill="#FFCC4D" d="M27 6H3v26c0 2.209 1.791 4 4 4h16c2.209 0 4-1.791 4-4V6z"/>
    <path fill="#F4900C" d="M8.5 32c-.552 0-1-.447-1-1V15c0-.552.448-1 1-1s1 .448 1 1v16c0 .553-.448 1-1 1zm6.5 0c-.552 0-1-.447-1-1V15c0-.552.448-1 1-1s1 .448 1 1v16c0 .553-.448 1-1 1zm6.5 0c-.553 0-1-.447-1-1V15c0-.552.447-1 1-1s1 .448 1 1v16c0 .553-.447 1-1 1z"/>
    <path fill="#FFAC33" d="M3 5v7.445c.59.344 1.268.555 2 .555 1.674 0 3.104-1.031 3.701-2.491.35.302.801.491 1.299.491.677 0 1.273-.338 1.635-.853C12.345 11.258 13.583 12 15 12c1.301 0 2.445-.631 3.176-1.593C18.54 11.338 19.44 12 20.5 12c.949 0 1.765-.535 2.188-1.314l.147-.361c.497.271 1.059.439 1.665.439.981 0 1.865-.406 2.5-1.056V5H3z"/>
    <path fill="#EEE" d="M24 0H4C2.343 0 1 1.343 1 3v4c0 2.209 1.791 4 4 4 1.674 0 3.104-1.031 3.701-2.491.35.302.801.491 1.299.491.677 0 1.273-.338 1.635-.853C12.345 9.258 13.583 10 15 10c1.301 0 2.445-.631 3.176-1.593C18.54 9.338 19.44 10 20.5 10c.949 0 1.765-.535 2.188-1.314.398.195.839.314 1.312.314 1.657 0 3-1.343 3-3V3c0-1.657-1.343-3-3-3z"/>
  </g>
  <g transform="translate(773.5539884114627, 835.9174927291955) scale(1 1) translate(0, 0) scale(1.3962634015954636 1.3962634015954636) ">
    <path fill="#A6D388" d="M31.924 10.982c4.418 7.652 1.99 17.326-5.424 21.607-7.414 4.28-16.505 2.413-20.924-5.241C.577 18.688 3.086 9.156 10.5 4.876c7.414-4.28 17.924.044 21.424 6.106z"/>
    <path fill="#77B255" d="M24 6c3 1 6 4 8 7 .836 1.254.729-.078-.294-2.348C28.02 4.768 17.777.675 10.5 4.876c-3.01 1.738-5.194 4.349-6.413 7.408C4.808 11.471 5.52 11 6 11c1 0-1.896 3.279 1 11 3 8 3 4 3 4s-2-9-1-12 2-5 3-4 5 9 7 14c2.259 5.647 2-1-1-8-2.841-6.628-3-8-2-8s3.465 1.464 7 5c2 2 3 5 4 6s1-1 0-4c-.707-2.121-3-6-6-8-2.496-1.664 0-2 3-1z"/>
    <path fill="#5C913B" d="M11.934 6.358c-.479.276-1.091.112-1.367-.366-1.104-1.914-1.26-4.303-1.266-4.404-.033-.55.387-1.022.937-1.058.552-.034 1.025.385 1.061.936.001.021.137 2.027 1.001 3.525.275.479.112 1.091-.366 1.367z"/>
    <path fill="#77B255" d="M11.961 30.533C11 30 10.234 28.557 9.552 27.308c-.682-1.249.276-1.276.886-.159.681 1.249 1.204 1.612 1.886 2.861.682 1.249.194.832-.363.523zm9.543.373c-.874-2.059-.812-3.057-1.686-5.114-.874-2.059-.749-4.055.124-1.997.874 2.059 1.748 4.118 1.687 5.115-.064.999-.125 1.996-.125 1.996zM27 19c1 3 0 2 1 5s1 5 1 0c0-3.162-1-6-2-7-1.581-1.581 0 2 0 2z"/>
  </g>
  <g transform="translate(725.9471610337541, 870.5058774425107) scale(1 1) translate(0, 0) scale(1.3962634015954636 1.3962634015954636) ">
    <path fill="#5C913B" d="M20.958 8.542c-2.811 4.371-6.701 7.706-8.542 9.125C7.938 21.122.488 25.179 1 30.15c.375 3.642 2.714 5.669 8.143 5.283 5.184-.368 11.058-4.834 15.763-10.48 5.197-6.236 8.195-10.559 9.355-14.551.974-3.355 1.468-7.515-1.219-9.027C30.71.063 25.83.965 20.958 8.542z"/>
    <circle fill="#5C913B" cx="18.217" cy="30.997" r=".639"/>
    <circle fill="#5C913B" cx="21.417" cy="27.975" r=".639"/>
    <circle fill="#5C913B" cx="20.987" cy="28.668" r=".639"/>
    <circle fill="#5C913B" cx="23.958" cy="25.404" r=".639"/>
    <circle fill="#5C913B" cx="30.021" cy="17.935" r=".639"/>
    <circle fill="#5C913B" cx="33.708" cy="10.81" r=".639"/>
    <circle fill="#5C913B" cx="34.427" cy="4.06" r=".639"/>
    <path fill="#77B255" d="M6.924 34.192c5.312-.377 11.331-4.953 16.152-10.739 5.325-6.39 8.397-10.819 9.585-14.911.687-2.365 1.141-5.12.46-7.114-.028-.017-.051-.038-.08-.054C30.709.062 25.83.964 20.958 8.541c-2.811 4.372-6.701 7.706-8.542 9.125C7.938 21.122.488 25.179 1 30.15c.161 1.561.686 2.822 1.656 3.727 1.146.323 2.556.437 4.268.315z"/>
    <path d="M16.497 25.752c-.441.097-.862-.029-1.258-.378-.396-.348-.575-.752-.535-1.2.004-.042.012-.13-.073-.168-.05-.021-.112-.007-.147.034-.469.533-.363 1.395.235 1.922.298.263.663.393 1.012.393.354 0 .69-.134.927-.402.036-.041.043-.104.016-.149-.049-.079-.135-.061-.177-.052zm8.904-8.142c-.449-.019-.826-.251-1.119-.69-.293-.44-.361-.877-.205-1.298.015-.04.046-.122-.028-.181-.043-.032-.104-.034-.15-.004-.289.192-.475.499-.524.865-.048.359.043.733.255 1.053.294.441.764.687 1.219.687.23 0 .458-.062.657-.195.044-.03.067-.089.053-.141-.028-.09-.116-.094-.158-.096zm-5.552.98h.002c.23 0 .438-.091.581-.253.036-.041.044-.102.017-.149-.027-.047-.104-.066-.159-.056-.237.054-.474-.017-.693-.21-.221-.193-.32-.417-.297-.662.005-.054-.024-.129-.074-.15-.051-.021-.109-.008-.146.034-.294.334-.23.874.143 1.202.177.156.4.243.626.244zm8.934-7.262c-.221-.193-.32-.417-.297-.662.005-.054-.024-.129-.074-.15-.051-.022-.11-.007-.146.034-.294.334-.23.874.143 1.202.179.157.401.244.627.245h.002c.23 0 .438-.091.581-.253.036-.041.044-.102.017-.149-.027-.046-.104-.067-.159-.056-.238.053-.474-.017-.694-.211zm-4.302.229h.002c.23 0 .438-.09.582-.254.036-.041.042-.102.015-.148-.028-.048-.108-.066-.158-.055-.245.054-.475-.018-.693-.21-.221-.194-.32-.417-.297-.662.005-.054-.024-.129-.074-.15-.05-.022-.11-.008-.146.033-.294.334-.23.874.143 1.202.178.157.401.244.626.244zm6.191-6.676c-.246.055-.475-.018-.693-.21-.221-.194-.32-.417-.297-.662.005-.054-.024-.129-.074-.15-.051-.022-.11-.008-.146.033-.294.334-.23.874.143 1.202.179.157.401.244.627.244h.002c.23 0 .438-.09.582-.254.036-.041.042-.102.015-.148-.028-.048-.108-.066-.159-.055zM5.82 28.208c-.337-.42-.375-1.015-.093-1.479.029-.049.021-.111-.018-.152-.04-.041-.103-.05-.152-.021-.065.038-.13.076-.189.124-.308.247-.501.598-.544.99s.069.777.315 1.084c.291.363.72.552 1.152.552.324 0 .65-.105.922-.323.058-.047.106-.099.162-.159.039-.042.044-.104.013-.152-.031-.049-.094-.068-.145-.051-.514.172-1.085.007-1.423-.413zm9.722-7.372c.324 0 .65-.105.922-.323.058-.047.106-.099.162-.159.039-.042.044-.104.013-.152-.031-.049-.094-.068-.145-.051-.514.174-1.086.009-1.424-.411-.337-.42-.375-1.015-.093-1.479.029-.049.021-.111-.018-.152-.04-.041-.104-.049-.152-.021-.065.038-.13.076-.189.124-.308.247-.501.598-.544.99s.069.777.315 1.084c.292.361.72.55 1.153.55zm9.622-14.159c-.337-.42-.375-1.015-.093-1.479.029-.049.021-.111-.018-.152-.04-.041-.104-.05-.152-.021-.065.038-.13.076-.189.124-.308.247-.501.598-.544.99s.069.777.315 1.084c.291.363.72.552 1.152.552.324 0 .65-.105.922-.323.058-.047.106-.099.162-.159.039-.042.044-.104.013-.152-.031-.049-.094-.068-.145-.051-.514.172-1.085.007-1.423-.413zM12.559 29.056c-.3.252-.727.292-1.064.098-.337-.193-.519-.583-.451-.97.008-.045-.016-.09-.058-.108-.04-.019-.091-.007-.119.029-.034.043-.068.087-.097.135-.145.251-.183.543-.107.823.075.28.256.513.507.657.166.096.352.145.538.145.095 0 .19-.013.284-.038.279-.075.513-.255.657-.507.028-.049.049-.101.068-.152.016-.042.001-.09-.036-.116-.038-.028-.087-.026-.122.004zm-2.836-5.818c-.092-.378.065-.777.393-.995.038-.025.054-.073.039-.116-.016-.043-.059-.071-.104-.066-.054.004-.108.01-.165.023-.281.068-.52.242-.67.489-.151.247-.196.538-.129.819.068.281.241.519.488.67.173.105.366.159.563.159.085 0 .171-.01.255-.03.055-.013.104-.032.159-.055.042-.018.067-.061.061-.106-.006-.045-.042-.081-.087-.086-.39-.045-.713-.328-.803-.706zm12.202-9.621c-.26.294-.677.396-1.038.256-.362-.142-.6-.5-.592-.892.001-.045-.028-.086-.072-.098-.045-.014-.092.006-.113.045-.028.048-.056.097-.075.149-.218.557.059 1.187.615 1.403.129.05.261.074.392.074.434 0 .845-.263 1.013-.691.02-.053.032-.106.044-.16.01-.044-.012-.09-.053-.111-.039-.019-.091-.009-.121.025zm-1.15 8.999c-.267.286-.688.377-1.045.226-.358-.152-.585-.517-.565-.908.003-.046-.027-.086-.07-.1-.044-.014-.092.005-.115.044-.029.046-.057.092-.079.144-.233.55.024 1.188.574 1.42.138.059.281.086.422.086.422 0 .824-.248.999-.66.021-.047.033-.096.05-.159.012-.045-.009-.091-.049-.113-.039-.021-.09-.013-.122.02z" fill="#5C913B"/>
    <circle fill="#77B255" cx="24.844" cy="20.719" r=".5"/>
    <circle fill="#77B255" cx="30.875" cy="12.219" r=".5"/>
    <circle fill="#77B255" cx="32.656" cy="7.219" r=".5"/>
    <circle fill="#77B255" cx="28" cy="16.75" r=".5"/>
    <circle fill="#77B255" cx="17.938" cy="28.344" r=".5"/>
    <circle fill="#77B255" cx="20.656" cy="25.5" r=".789"/>
    <circle fill="#77B255" cx="11.062" cy="32.938" r=".5"/>
    <circle fill="#77B255" cx="25.781" cy="19.969" r=".5"/>
    <circle fill="#77B255" cx="11.297" cy="19.828" r="1.422"/>
    <circle fill="#77B255" cx="5.698" cy="23.355" r=".98"/>
    <circle fill="#77B255" cx="26.448" cy="3.324" r=".98"/>
    <circle fill="#77B255" cx="1.948" cy="27.23" r=".694"/>
    <circle fill="#77B255" cx="2.48" cy="26.512" r=".694"/>
    <circle fill="#77B255" cx="1.855" cy="31.324" r=".859"/>
    <circle fill="#77B255" cx="13.509" cy="17.138" r=".639"/>
    <circle fill="#77B255" cx="27.478" cy="2.169" r=".639"/>
    <circle fill="#77B255" cx="31.447" cy="1.294" r=".639"/>
    <circle fill="#77B255" cx="16.728" cy="14.201" r=".639"/>
    <circle fill="#77B255" cx="19.697" cy="10.951" r=".639"/>
    <circle fill="#77B255" cx="19.125" cy="11.594" r=".639"/>
    <circle fill="#77B255" cx="22.009" cy="7.763" r=".639"/>
  </g>
  <g transform="translate(674.3806536095029, 898.8548047963259) scale(1 1) translate(0, 0) scale(1.3962634015954636 1.3962634015954636) ">
    <path fill="#5C913B" d="M2.472 6.572C1.528 8.698 1 11.038 1 13.5 1 23.165 9.059 31 19 31c7.746 0 14.33-4.767 16.868-11.44L2.472 6.572z"/>
    <path fill="#FFE8B6" d="M4.332 7.295C3.479 9.197 3 11.293 3 13.5c0 8.591 7.164 15.556 16 15.556 6.904 0 12.77-4.26 15.013-10.218L4.332 7.295z"/>
    <path fill="#DD2E44" d="M6.191 8.019C5.43 9.697 5 11.548 5 13.5c0 7.518 6.268 13.611 14 13.611 6.062 0 11.21-3.753 13.156-8.995L6.191 8.019z"/>
    <path d="M9.916 14.277c-.307.46-.741.708-.971.555-.23-.153-.168-.649.139-1.109.307-.46.741-.708.971-.555.23.153.168.649-.139 1.109zm6 1c-.307.46-.741.708-.971.555-.23-.153-.168-.649.139-1.109.307-.46.741-.708.971-.555.23.153.168.649-.139 1.109zm5.082 4.678c.05.551-.132 1.016-.406 1.041-.275.025-.538-.4-.588-.951-.051-.551.132-1.016.406-1.04.275-.026.538.398.588.95zm-9-2c.05.551-.132 1.016-.406 1.041-.275.025-.538-.4-.588-.951-.05-.551.132-1.016.406-1.04.276-.026.538.398.588.95zm3.901 5.346c-.333.441-.78.663-1 .497-.221-.166-.129-.658.205-1.099.333-.441.781-.663 1-.497.221.166.13.657-.205 1.099zm8.036.454c.273.481.299.979.06 1.115-.241.137-.656-.143-.929-.624-.273-.48-.299-.979-.059-1.115.241-.138.655.141.928.624zm-7.017-5.028c.303.463.362.958.131 1.109-.231.152-.663-.1-.966-.562-.303-.462-.361-.958-.131-1.108.231-.154.663.097.966.561zm8.981 1.574c-.333.441-.78.663-1.001.497-.221-.166-.129-.658.205-1.099.333-.442.78-.663 1-.497.222.166.131.657-.204 1.099z"/>
  </g>
  <g transform="translate(619.667700765128, 920.5171952714428) scale(1 1) translate(0, 0) scale(1.3962634015954636 1.3962634015954636) ">
    <path fill="#F4900C" d="M32.664 8.519C29.364 5.134 23.42 4.75 18 4.75S6.636 5.134 3.336 8.519C.582 11.344 0 15.751 0 19.791c0 5.263 1.982 11.311 6.357 14.244C9.364 36.051 13.95 35.871 18 35.871s8.636.18 11.643-1.836C34.018 31.101 36 25.054 36 19.791c0-4.04-.582-8.447-3.336-11.272z"/>
    <path fill="#3F7123" d="M20.783 5.444c.069.42-.222.764-.647.764h-4.451c-.426 0-.717-.344-.647-.764l.745-4.472c.07-.421.476-.764.902-.764h2.451c.426 0 .832.344.901.764l.746 4.472z"/>
    <path fill="#642116" d="M20.654 21.159l-1.598-2.596c-.291-.542-.673-.813-1.057-.817-.383.004-.766.275-1.057.817l-1.598 2.596c-.587 1.093.873 1.716 2.654 1.716s3.243-.624 2.656-1.716zm9.508 3.192c-.045-.075-.126-.121-.214-.121h-.841c-.068 0-.134.028-.181.077l-2.231 2.334-2.698-2.169c-.051-.041-.117-.058-.185-.053-.066.007-.127.041-.168.094l-2.408 3.062-3.054-3.266c-.013-.014-.033-.017-.048-.028-.015-.01-.025-.027-.043-.034-.006-.002-.013 0-.019-.002-.024-.007-.047-.005-.072-.005-.025 0-.048-.002-.072.006-.006.002-.013-.001-.02.002-.018.007-.027.024-.043.034-.016.01-.035.013-.048.027l-3.053 3.266-2.409-3.062c-.041-.053-.102-.087-.168-.094-.066-.006-.133.012-.185.053l-2.698 2.169-2.23-2.334c-.047-.049-.112-.077-.181-.077h-.841c-.087 0-.169.046-.214.121-.045.075-.048.168-.007.245l2.754 5.219c.034.064.093.11.164.127s.145.002.203-.04l2.034-1.458 3.004 3.633c.043.053.106.085.174.09l.019.001c.062 0 .121-.022.167-.063L18 28.836l3.65 3.268c.046.041.105.063.167.063l.019-.001c.068-.005.131-.037.174-.09l3.005-3.633 2.034 1.458c.06.043.133.06.203.04.07-.017.13-.062.163-.126l2.755-5.219c.04-.077.038-.17-.008-.245zm-2.186-8.93c.129 2.127-.784 3.806-3.205 3.953-2.42.146-3.529-1.411-3.658-3.537s1.232-5.12 3.127-5.234c1.896-.116 3.608 2.691 3.736 4.818zm-19.952 0c-.129 2.127.784 3.806 3.205 3.953 2.42.146 3.529-1.411 3.658-3.537s-1.232-5.12-3.127-5.234-3.608 2.691-3.736 4.818z"/>
  </g>
  <g transform="translate(562.6711584509188, 935.1514200295843) scale(1 1) translate(0, 0) scale(1.3962634015954636 1.3962634015954636) ">
    <path fill="#C1694F" d="M36 25c0 4-8.059 11-18 11S0 29 0 25C0 6 17 0 18 0s18 6 18 25z"/>
    <g fill="#A95233">
      <path d="M3.001 29.385c-.05 0-.1-.004-.15-.012-.546-.082-.922-.591-.84-1.137.134-.895 3.43-21.968 15.535-28.127.493-.252 1.094-.054 1.345.438.25.492.054 1.094-.438 1.345C7.267 7.583 4.021 28.325 3.989 28.533c-.075.496-.501.852-.988.852z"/>
      <path d="M32.999 29.385c-.486 0-.913-.355-.988-.852-.031-.208-3.277-20.95-14.464-26.642-.492-.251-.688-.853-.438-1.345.25-.492.854-.689 1.344-.438 12.107 6.16 15.401 27.234 15.536 28.128.082.546-.294 1.055-.841 1.137-.049.008-.1.012-.149.012z"/>
      <path d="M12.001 33l-.054-.001c-.551-.029-.975-.501-.945-1.052.053-.999 1.356-24.544 6.176-31.516.314-.455.938-.567 1.391-.254.455.314.568.937.254 1.392-4.5 6.508-5.811 30.246-5.824 30.484-.029.534-.47.947-.998.947z"/>
      <path d="M23.999 33c-.527 0-.969-.413-.998-.947-.013-.238-1.324-23.976-5.824-30.484-.314-.454-.2-1.077.254-1.392.456-.314 1.079-.2 1.391.254 4.819 6.972 6.123 30.517 6.177 31.516.029.551-.395 1.021-.946 1.052l-.054.001z"/>
    </g>
    <path fill="#662113" d="M36 25c0 4-8.059 11-18 11S0 29 0 25c3 4 10 7 18 7s15-3 18-7z"/>
  </g>
  <g transform="translate(504.2898961872546, 942.5266886042523) scale(1 1) translate(0, 0) scale(1.3962634015954636 1.3962634015954636) ">
    <path fill="#D99E82" d="M17.256 31.519c-4.754 4.754-11.207 5.573-14.683 2.097C-.902 30.141.056 23.55 4.672 18.934c3.355-3.356 6.711-3.356 9.228-5.873 2.517-2.516 1.678-5.033 5.454-8.809C23.968-.361 29.84-1.201 33.616 2.574c3.774 3.776 2.832 9.754-1.678 14.263-3.775 3.775-6.292 2.936-8.809 5.452-2.518 2.518-2.518 5.873-5.873 9.23z"/>
    <path fill="#C1694F" d="M8.211 21.397c-.324 0-.643-.157-.835-.448-.305-.46-.179-1.081.282-1.386.682-.451 1.438-.853 2.245-1.193 3.938-1.516 6.902-4.208 7.765-7.037.161-.529.721-.829 1.248-.665.529.161.826.72.666 1.248-1.039 3.406-4.46 6.589-8.931 8.309-.665.28-1.31.623-1.889 1.006-.17.113-.361.166-.551.166zm-5.044 8.937h-.022c-.552-.012-.99-.47-.979-1.021.047-2.164.385-4.916 2.601-7.002.403-.377 1.036-.358 1.414.043.379.402.359 1.035-.042 1.414-1.666 1.567-1.932 3.704-1.972 5.588-.012.544-.458.978-1 .978zm4.125-.709c-.082 0-.166-.01-.249-.031-.535-.137-.858-.682-.721-1.217.562-2.191 1.782-5.277 5.875-6.774.517-.188 1.093.077 1.282.596.19.519-.077 1.093-.596 1.283-3.171 1.159-4.137 3.49-4.625 5.392-.113.451-.52.751-.966.751zm17.667-11.041c-.412 0-.798-.257-.943-.667-.184-.521.09-1.092.61-1.276 4.279-1.51 6.849-4.449 7.856-8.982.12-.54.657-.874 1.193-.759.539.12.879.654.76 1.193-1.154 5.19-4.23 8.701-9.144 10.435-.109.037-.222.056-.332.056z"/>
    <path fill="#C1694F" d="M24.459 14.875c-.397 0-.774-.24-.93-.632-.203-.514.048-1.095.562-1.298 1.722-.682 3.378-2.263 4.12-3.935.225-.502.813-.732 1.32-.508.505.225.731.815.508 1.32-.956 2.151-3.002 4.107-5.212 4.982-.121.049-.245.071-.368.071zm-8.709 7.209c-.395 0-.768-.234-.926-.622-.209-.512.037-1.095.548-1.304.955-.39 1.979-1.345 2.266-1.832.28-.476.895-.635 1.369-.354.477.28.635.893.354 1.369-.513.873-1.864 2.11-3.233 2.669-.124.051-.252.074-.378.074zm4-12.667c-.108 0-.22-.018-.328-.056-.522-.181-.798-.751-.617-1.272.4-1.152 1.234-2.255 2.124-2.812.469-.293 1.086-.15 1.378.318.293.468.15 1.085-.317 1.378-.421.263-1.017.973-1.295 1.772-.144.413-.531.672-.945.672zM6.457 33.915c-.49 0-.917-.358-.988-.857-.064-.451 0-1.253.098-1.691.12-.539.659-.87 1.193-.759.539.12.879.655.759 1.194-.064.286-.09.824-.069.975.076.546-.305 1.053-.852 1.129-.048.006-.095.009-.141.009z"/>
  </g>
  <g transform="translate(445.44462135530875, 942.5266886042523) scale(1 1) translate(0, 0) scale(1.3962634015954636 1.3962634015954636) ">
    <path fill="#77B255" d="M32.34 19.208c.198-1.475 2.669-2.208 2.669-4.542C35.009 12.333 29.25 8.25 21 16c3.812-5.312 6.542-14.509 2.203-14.509-1.47 0-2.579 1.342-4.328 1.342C16.5 2.833 16.208 0 14 0c-2.583 0-5 6.25 1 15-1.5-1.625-11.083-6.625-13.002-1.269-.628 1.753 1.731 2.781 1.544 4.519-.178 1.654-2.597 2.037-2.597 4.372 0 3.293 8.048 4.834 16.044-1.613-.245 4.524.557 10.515 3.857 14.158 1.344 1.483 2.407.551 2.822.187.416-.365 1.604-1.414.185-2.822-3.834-3.807-5.225-8.174-5.619-11.381 2.043 2.215 12.357 8.742 15.517 2.767.881-1.668-1.643-2.977-1.411-4.71z"/>
  </g>
  <g transform="translate(387.06335909164443, 935.1514200295843) scale(1 1) translate(0, 0) scale(1.3962634015954636 1.3962634015954636) ">
    <path fill="#F4900C" d="M3 19.5C3 10.388 10.387 3 19.499 3c9.113 0 16.5 7.387 16.5 16.5S28.612 36 19.499 36C10.387 36 3 28.613 3 19.5z"/>
    <path fill="#662113" d="M11.414 7.585c-.267-.267-.797-.197-1.355.12-3.3-2.732-8.653-3.652-8.895-3.692-.546-.089-1.059.277-1.15.821-.091.544.276 1.06.821 1.151.053.009 4.934.854 7.821 3.16-.275.525-.324 1.015-.07 1.268.39.391 1.34.074 2.121-.707.781-.78 1.097-1.73.707-2.121z"/>
    <path fill="#5C913B" d="M21 1s-3.106 4.318-7.021 5.273C11 7 7.041 7.07 6.646 6.15c-.394-.919 1.572-3.937 4.969-5.393C15.012-.698 21 1 21 1z"/>
  </g>
  <g transform="translate(330.0668167774354, 920.5171952714428) scale(1 1) translate(0, 0) scale(1.3962634015954636 1.3962634015954636) ">
    <path fill="#5C913B" d="M11.405 3.339c6.48-1.275 8.453 1.265 11.655.084 3.202-1.181.093 2.82-.745 3.508-.84.688-8.141 4.809-11.307 3.298-3.166-1.511-3.182-6.186.397-6.89z"/>
    <path fill="#77B255" d="M15.001 16c-.304 0-.605-.138-.801-.4-.687-.916-1.308-1.955-1.965-3.056C9.967 8.749 7.396 4.446.783 2.976c-.539-.12-.879-.654-.759-1.193.12-.54.654-.878 1.193-.759C8.671 2.68 11.599 7.581 13.952 11.519c.63 1.054 1.224 2.049 1.848 2.881.332.442.242 1.069-.2 1.4-.18.135-.39.2-.599.2z"/>
    <path fill="#FFCC4D" d="M34.3 31.534c.002-.017-.003-.028-.003-.043 2.774-5.335 2.647-15.113-3.346-21.107-5.801-5.8-13.68-5.821-18.767-4.067-1.579.614-2.917.066-3.815.965-.881.881-.351 2.719-.714 3.819-3.169 5.202-3.405 13.025 2.688 19.117 4.962 4.962 10.438 6.842 19.98 4.853.002-.002.005-.001.008-.002 1.148-.218 2.95.523 3.566-.094 1.085-1.085.309-2.358.403-3.441z"/>
    <path fill="#77B255" d="M8.208 6.583s-4.27-.59-6.857 4.599c-2.587 5.188.582 9.125.29 12.653-.293 3.53 1.566 1.265 2.621-.445s4.23-4.895 4.938-9.269c.707-4.376-.07-6.458-.992-7.538z"/>
  </g>
  <g transform="translate(275.3538639330603, 898.8548047963258) scale(1 1) translate(0, 0) scale(1.3962634015954636 1.3962634015954636) ">
    <path fill="#DD2E44" d="M36 20.917c0-.688-2.895-.5-3.125-1s3.208-4.584 2.708-5.5-5.086 1.167-5.375.708c-.288-.458.292-3.5-.208-3.875s-5.25 4.916-5.917 4.292c-.666-.625 1.542-10.5 1.086-10.698-.456-.198-3.419 1.365-3.793 1.282C21.002 6.042 18.682 0 18 0s-3.002 6.042-3.376 6.125c-.374.083-3.337-1.48-3.793-1.282-.456.198 1.752 10.073 1.085 10.698C11.25 16.166 6.5 10.875 6 11.25s.08 3.417-.208 3.875c-.289.458-4.875-1.625-5.375-.708s2.939 5 2.708 5.5-3.125.312-3.125 1 8.438 5.235 9 5.771c.562.535-2.914 2.802-2.417 3.229.576.496 3.839-.83 10.417-.957V35c0 .553.448 1 1 1 .553 0 1-.447 1-1v-6.04c6.577.127 9.841 1.453 10.417.957.496-.428-2.979-2.694-2.417-3.229.562-.536 9-5.084 9-5.771z"/>
  </g>
  <g transform="translate(223.78735650880904, 870.5058774425107) scale(1 1) translate(0, 0) scale(1.3962634015954636 1.3962634015954636) ">
    <path fill="#77B255" d="M26.38 3.539c.483-.039 1.259-.655 1.664-.595.405.06 1.573 1.078 1.67 1.283.097.205-.637 1.178-.746 1.48-.109.302-.64.239-1.51-.543-.869-.782-1.078-1.625-1.078-1.625z"/>
    <path fill="#EA564B" d="M12.3 3.139c4.545-2.66 11.267-2.611 13.685-.58 1.617 1.358 2.942 2.401 4.474 3.011 2.022.804 3.692 3.154 4.415 5.384.981 3.023 1.68 12.579-8.029 18.516-6.233 3.812-17.656 5.363-18.961 4.723-.984-.483-4.621-2.09-6.675-6.453S-1.324 11.111 12.3 3.139z"/>
    <path fill="#F97253" d="M17.329 2.607C22.578 1.125 26.5 4.743 24.078 5c-4.359.463-9.015 4.969-12.625 8.375-6.625 6.25-8.125 13.75-9 12.5-1.424-2.034-1.468-9.148 3.561-15.386 5.029-6.238 9.104-7.257 11.315-7.882z"/>
    <path fill="#77B255" d="M28.271 4.278c2.174.697 4.987 4.564 4.944 7.811-.114 8.655-4.132 11.992-4.132 11.992s-2.551-9.325-2.171-12.719c.278-2.478 1.646-3.166 1.891-4.569.229-1.305-.532-2.515-.532-2.515z"/>
  </g>
  <g transform="translate(176.1805291311006, 835.9174927291955) scale(1 1) translate(0, 0) scale(1.3962634015954636 1.3962634015954636) ">
    <path fill="#C1694F" d="M26.339 33.496c-1.562 1.561-4.095 1.561-5.657 0L1.59 14.404c-1.562-1.562-1.562-2.681 0-4.243l8.485-8.485c1.562-1.562 2.681-1.562 4.243 0L33.41 20.768c1.562 1.562 1.562 4.095 0 5.657l-7.071 7.071z"/>
    <path fill="#8A4B38" d="M16.582 15.253l-4.885-4.885 5.657-5.657-1.415-1.414-5.656 5.657L6.54 5.211 5.126 6.626l3.743 3.742-5.657 5.657 1.414 1.414 5.657-5.657 4.885 4.885z"/>
    <path fill="#DD2E44" d="M26.339 34.91c-1.562 1.562-4.095 1.562-5.657 0l-9.899-9.899 14.142-14.142 9.899 9.899c1.562 1.562 1.562 4.095 0 5.657l-8.485 8.485z"/>
    <path fill="#BE1931" d="M12.825 27.053l4.673 4.674 7.955-20.33-.528-.529-1.504-.932z"/>
    <path fill="#CCD6DD" d="M22.804 8.747l2.121 2.121c-.707 2.122-8.485 15.557-9.9 18.385 0 0-.707 2.121-2.475.354l-5.304-5.304c-.679-.679-.685-2.142 0-2.828L19.975 8.747c1.414-1.414 2.829 0 2.829 0z"/>
  </g>
  <g transform="translate(133.28416990662143, 795.6351301454089) scale(1 1) translate(0, 0) scale(1.3962634015954636 1.3962634015954636) ">
    <path fill="#77B255" d="M19.602 32.329c6.509 6.506 17.254-7.669 15.72-7.669-7.669 0-22.227 1.161-15.72 7.669z"/>
    <path fill="#77B255" d="M15.644 33.372C9.612 39.404-.07 26.263 1.352 26.263c3.81 0 9.374-.348 12.79.867 2.958 1.052 4.304 3.442 1.502 6.242z"/>
    <path fill="#F4ABBA" d="M34.613 15.754c-.052-.901-.175-2.585-1.398-4.227-1.16-1.549-3.805-3.371-5.534-2.585.516-1.676-.264-4.125-1.191-5.49-1.179-1.736-4.262-3.843-8.146-3.026-1.754.369-4.18 2.036-4.632 3.864-1.18-1.471-4.22-1.675-6.015-1.222-2.026.511-3.154 1.777-3.739 2.461l.003-.005-.03.034-.027.033c-.583.689-1.656 1.994-1.847 4.074-.193 2.146.75 5.832 3.026 6.042.149.014.324.031.514.051-2.271.098-3.572 3.654-3.595 5.8-.022 2.102.926 3.506 1.443 4.243l-.003-.004c.008.01.019.024.025.036.007.011.02.023.026.036.523.733 1.525 2.094 3.515 2.776 1.958.669 5.553.656 6.567-1.236-.273 2.244 3.027 4.077 5.169 4.438 2.115.358 3.71-.358 4.55-.753l-.005.003c.013-.008.028-.015.041-.021l.041-.02c.838-.4 2.398-1.178 3.462-3.04.729-1.282 1.27-3.403.951-5.015l.192.127c1.826 1.224 4.63-1.119 5.705-2.938 1.044-1.761.932-4.424.932-4.436z"/>
    <path fill="#EA596E" d="M27.542 13.542c-1.786-.997-4.874-.434-6.792.308-.266-.468-.621-.875-1.051-1.196 1.393-1.607 3.526-4.593 1.468-6.362-2.191-1.883-3.74 2.154-3.575 5.605-.068-.003-.132-.02-.201-.02-1.019 0-1.94.402-2.632 1.045-1.401-2.277-3.942-4.244-5.314-2.392-1.482 2.002 1.148 3.153 4.222 4.2-.09.329-.154.668-.154 1.025 0 .456.093.887.238 1.293-2.541.732-6.236 2.718-4.21 4.91 2.122 2.296 4.472-1.238 5.604-3.053.635.454 1.407.727 2.247.727.225 0 .441-.029.655-.066-.109 4.802 1.443 7.07 4.036 5.892 2.295-1.043-.137-5.299-1.781-7.165.316-.362.564-.779.729-1.241 7.008 2.544 8.589-2.351 6.511-3.51z"/>
    <path fill="#BE1931" d="M17.707 17.459c-.679 0-.668-.562-.832-1.25-.532-2.233-2.381-6.308-4.601-9.163-.509-.654-.391-1.596.263-2.105.654-.508 1.596-.391 2.105.263 2.439 3.136 3.264 7.404 3.982 10.421.191.806.237 1.601-.569 1.792-.116.028-.233.042-.348.042z"/>
    <path fill="#FFCC4D" d="M15.904 5.327c.498.684.079 1.838-.936 2.578l-.475.347c-1.016.739-2.243.785-2.741.101l-2.78-3.817c-.498-.684-.079-1.838.936-2.577l.475-.347c1.015-.739 2.242-.785 2.74-.101l2.781 3.816z"/>
  </g>
  <g transform="translate(95.77478004538429, 750.2940666126136) scale(1 1) translate(0, 0) scale(1.3962634015954636 1.3962634015954636) ">
    <path fill="#77B255" d="M23.013 24.322l-5.546-5.546-5.547-5.546S12.375 24.413.737 27.323c0 0 1.032 2.487 3.364 4.819s4.819 3.364 4.819 3.364c2.91-11.639 14.093-11.184 14.093-11.184z"/>
    <path fill="#5C913B" d="M13.83 16.594c-.727 3.637-5.092 9.456-5.092 9.456l8.728-8.728c2.909-2.909-3.636-.728-3.636-.728zm12.365 6.546s-10.91.727-17.457 5.819c8.001-8.001 11.638-8.728 11.638-8.728l5.819 2.909z"/>
    <path fill="#3E721D" d="M30.156 28.192c.667.045 1.348-.178 1.858-.688.937-.937.937-2.457 0-3.394-.085-.085-.18-.154-.274-.224.411-.101.802-.304 1.123-.625.311-.311.509-.688.613-1.084.396-.105.773-.302 1.084-.613.937-.937.937-2.457 0-3.394.937-.937.937-2.457 0-3.394-.352-.352-.786-.572-1.241-.659.43-.893.284-1.994-.456-2.735-.321-.321-.712-.524-1.123-.625.094-.07.189-.139.274-.224.937-.937.937-2.457 0-3.394-.741-.741-1.842-.887-2.735-.456-.088-.455-.307-.889-.659-1.241-.51-.51-1.191-.732-1.858-.688.045-.667-.178-1.348-.688-1.858-.937-.937-2.457-.937-3.394 0-.741-.741-1.842-.887-2.735-.456-.088-.455-.307-.889-.659-1.241-.937-.937-2.457-.937-3.394 0-.352.352-.572.786-.659 1.241-.893-.43-1.994-.284-2.735.456-.321.321-.524.712-.625 1.123-.07-.094-.139-.189-.224-.274-.937-.937-2.457-.937-3.394 0-.742.739-.888 1.84-.458 2.734-.455.087-.889.307-1.241.659-.937.937-.937 2.457 0 3.394.321.321.712.524 1.123.625-.094.07-.189.139-.274.224-.937.937-.937 2.457 0 3.394.352.352.786.572 1.241.659-.43.893-.284 1.994.456 2.735.741.741 1.842.887 2.735.456.088.455.307.889.659 1.241.321.321.712.524 1.123.625-.094.07-.189.139-.274.224-.937.937-.937 2.457 0 3.394.741.741 1.842.887 2.735.456.088.455.307.889.659 1.241.636.636 1.537.83 2.345.603.064.084.124.169.201.246.51.51 1.191.732 1.858.688-.045.667.178 1.348.688 1.858.937.937 2.457.937 3.394 0 .085-.085.154-.18.224-.274.101.411.304.802.625 1.123.937.937 2.457.937 3.394 0 .51-.51.732-1.191.688-1.858z"/>
    <circle fill="#5C913B" cx="10.92" cy="5.683" r="1.543"/>
    <circle fill="#5C913B" cx="15.285" cy="5.683" r="1.543"/>
    <circle fill="#5C913B" cx="18.194" cy="2.774" r="1.543"/>
    <circle fill="#5C913B" cx="21.831" cy="4.956" r="1.543"/>
    <circle fill="#5C913B" cx="24.74" cy="4.956" r="1.543"/>
    <circle fill="#5C913B" cx="25.468" cy="7.138" r="1.543"/>
    <circle fill="#5C913B" cx="27.65" cy="7.865" r="1.543"/>
    <circle fill="#5C913B" cx="30.559" cy="9.32" r="1.543"/>
    <circle fill="#5C913B" cx="29.832" cy="11.502" r="1.543"/>
    <circle fill="#5C913B" cx="32.014" cy="15.139" r="1.543"/>
    <circle fill="#5C913B" cx="32.741" cy="18.776" r="1.543"/>
    <circle fill="#5C913B" cx="26.922" cy="11.502" r="1.543"/>
    <circle fill="#5C913B" cx="24.013" cy="8.593" r="1.543"/>
    <circle fill="#5C913B" cx="20.376" cy="6.411" r="1.543"/>
    <circle fill="#5C913B" cx="16.012" cy="7.865" r="1.543"/>
    <circle fill="#5C913B" cx="17.467" cy="6.411" r="1.543"/>
    <circle fill="#5C913B" cx="13.102" cy="9.32" r="1.543"/>
    <circle fill="#5C913B" cx="20.376" cy="10.775" r="1.543"/>
    <circle fill="#5C913B" cx="25.468" cy="15.866" r="1.543"/>
    <circle fill="#5C913B" cx="26.922" cy="20.231" r="1.543"/>
  </g>
  <g transform="translate(64.24390503252451, 700.6093577881608) scale(1 1) translate(0, 0) scale(1.3962634015954636 1.3962634015954636) ">
    <path fill="#77B255" d="M9.999 12c-.15 0-.303-.034-.446-.106-4.38-2.19-7.484-7.526-8.501-10.578C.876.792 1.16.226 1.684.051c.525-.176 1.091.109 1.265.632.877 2.632 3.688 7.517 7.499 9.422.494.247.694.848.447 1.342-.176.351-.529.553-.896.553z"/>
    <circle fill="#553788" cx="19" cy="29" r="7"/>
    <circle fill="#9266CC" cx="10" cy="15" r="7"/>
    <circle fill="#AA8DD8" cx="19" cy="12" r="7"/>
    <circle fill="#744EAA" cx="27" cy="18" r="7"/>
    <circle fill="#744EAA" cx="9" cy="26" r="7"/>
    <circle fill="#9266CC" cx="18" cy="21" r="7"/>
    <circle fill="#9266CC" cx="29" cy="29" r="7"/>
  </g>
  <g transform="translate(39.188805602626616, 647.3645612104186) scale(1 1) translate(0, 0) scale(1.3962634015954636 1.3962634015954636) ">
    <path fill="#DD2E44" d="M22.494 5.344c-.687 0-1.352.066-1.991.177-.819-.104-2.74-.231-3.591-.231-8.473 0-15.886 3.177-15.886 14.298 0 9.036 7.049 16.361 16.976 16.361s17.974-7.325 17.974-16.361C35.975 8.339 26.59 5.344 22.494 5.344z"/>
    <path fill="#77B255" d="M8.439.091c1.637 1.636 2.77 2.266 3.274 4.91.298 1.564 2.266 1.51 2.266 1.51s-3.903 1.763-5.54 3.4c0 0 4.91-1.637 6.547-1.637 0 0 3.273 1.637 3.273 3.273 0 0 0-3.273-1.636-3.273 0 0 4.909 0 4.909 3.273 0 0 0-4.91-1.637-4.91 0 0 4.911-1.636 6.548 0 0 0-1.686-1.72-4.911-1.636 0 0 1.638-1.637 4.911-1.637 0 0-5.288-1.511-6.925 1.763 0 0-1.385-1.385 1.385-4.155 0 0-4.28.755-4.28 4.029 0 0-1.552-.04-2.644-1.259C11.838 1.35 8.439.091 8.439.091z"/>
  </g>
  <g transform="translate(21.004615640891046, 591.3993791283174) scale(1 1) translate(0, 0) scale(1.3962634015954636 1.3962634015954636) ">
    <path fill="#D99E82" d="M.25 13c0-7.158 10-15 18-8 2.714 2.375 5 4 5 7 12-2 13.703 8.892 12 14-1 3-5.868 11.059-24 3-9-4-11-11.616-11-16z"/>
    <path fill="#C1694F" d="M17.71 14.822c1.827-1.737 3.628-2.498 5.649-2.838l-.109.015c0-.858-.204-1.597-.534-2.28-2.074.772-4.288 2.281-5.006 5.103z"/>
    <circle fill="#C1694F" cx="10.25" cy="16" r="1"/>
    <circle fill="#C1694F" cx="30.25" cy="26" r="1"/>
    <circle fill="#C1694F" cx="14.75" cy="25.5" r="1.5"/>
    <circle fill="#C1694F" cx="5.75" cy="19.5" r="1.5"/>
  </g>
  <g transform="translate(9.978110685722726, 533.5964158952712) scale(1 1) translate(0, 0) scale(1.3962634015954636 1.3962634015954636) ">
    <path fill="#744EAA" d="M6 4c3 0 5 2 8 6s7.957 7.191 12 8c5 1 9 5 9 11 0 4.897-3.846 7-9 7-5 0-9-3-14-8S2 14 2 10s1-6 4-6z"/>
    <path fill="#77B255" d="M3.515 0c1.248 0 1.248 1.248 1.248 2.495 0 1.764 1.248 1.129 2.496 1.129C8.505 3.624 11 6 11 6H7.258c-1.248 0 0 2.614-1.248 2.614S4.762 7.426 3.515 7.426 2 11 2 11s-1.604-4.153.267-6.024C3.515 3.728 1.02 0 3.515 0z"/>
  </g>
  <g transform="translate(6.283185307179593, 474.86725877128174) scale(1 1) translate(0, 0) scale(1.3962634015954636 1.3962634015954636) ">
    <path fill="#DA2F47" d="M4.042 27.916c4.89.551 9.458-1.625 13.471-5.946 4.812-5.182 5-13 5-14s11.31-3.056 11 5c-.43 11.196-7.43 20.946-19.917 21.916-5.982.465-9.679-.928-11.387-2.345-2.69-2.231-.751-4.916 1.833-4.625z"/>
    <path fill="#77B255" d="M30.545 6.246c.204-1.644.079-3.754-.747-4.853-1.111-1.479-4.431-.765-3.569.113.96.979 2.455 2.254 2.401 4.151-.044-.01-.085-.022-.13-.032-3.856-.869-6.721 1.405-7.167 2.958-.782 2.722 4.065.568 4.68 1.762 1.82 3.53 3.903.155 4.403 1.28s4.097 4.303 4.097.636c0-3.01-1.192-4.903-3.968-6.015z"/>
  </g>
  <g transform="translate(9.978110685722669, 416.1381016472923) scale(1 1) translate(0, 0) scale(1.3962634015954636 1.3962634015954636) ">
    <path fill="#3E721D" d="M16 10c-1-3 0-8 4-9s6 1 6 2-1 3-2 2-3-1-4 1 0 4 0 4h-4z"/>
    <path fill="#5C913B" d="M23.945 21.966c0 7.199-3.092 8.978-11 12.034-7.761 3-6.761-5-8-12.034-.522-2.964-1.02-3.781-1.562-5.987-.753-3.072-.58-7.048 4.562-7.048 8.837 0 16 5.836 16 13.035z"/>
    <path fill="#5C913B" d="M12.055 21.966c0 7.199 3.092 8.978 11 12.034 7.761 3 6.761-5 8-12.034.522-2.964 1.02-3.781 1.562-5.987.754-3.071.581-7.048-4.562-7.048-8.837 0-16 5.836-16 13.035z"/>
    <path fill="#77B255" d="M24.971 22.431C24.971 29.887 24.05 35 18 35s-6.971-5.113-6.971-12.569S6.049 8 18 8s6.971 6.975 6.971 14.431z"/>
  </g>
  <g transform="translate(21.004615640890933, 358.3351384142462) scale(1 1) translate(0, 0) scale(1.3962634015954636 1.3962634015954636) ">
    <path fill="#D99E82" d="M13 30H2s-2 0-2-2v-5c0-2 2-2 2-2h11v9z"/>
    <path fill="#E1E8ED" d="M12 21h14v9H12z"/>
    <path fill="#66757F" d="M31 21h-6v9h6s2 0 2-2v-5c0-2-2-2-2-2z"/>
    <path fill="#CCD6DD" d="M27.79 20c-.488 0-.916-.358-.988-.855-.029-.2-.654-4.924 4.475-8.002 2.498-1.499 3.063-4.246 2.532-6.164C33.561 4.083 32.673 2 29.791 2c-3.142 0-3.963 1.77-4.15 2.562-.282 1.197 0 2.141.625 2.594.649.47 1.423.332 1.932.017.389-.24.594-.646.594-1.173 0-.552.447-1 1-1 .553 0 1 .448 1 1 0 1.221-.562 2.269-1.542 2.874-1.106.683-2.819.538-3.919-.077-1.351-.756-2.061-2.623-1.589-4.619C24.358 1.562 26.62 0 29.791 0c2.908 0 5.186 1.703 5.945 4.445.889 3.208-.522 6.667-3.431 8.412-4 2.4-3.53 5.962-3.525 5.998.08.547-.299 1.055-.845 1.134-.048.008-.097.011-.145.011z"/>
  </g>
  <g transform="translate(39.18880560262656, 302.36995633214485) scale(1 1) translate(0, 0) scale(1.3962634015954636 1.3962634015954636) ">
    <path fill="#B90053" d="M9.441 14.595c.458-1.372 7.41-7.525 13.286-10.22 1.528-.701 6.602-2.834 8.35-3.271C34.681.203 36.167.09 35.666 3.75c-.708 5.171-4.619 12.596-8.707 19.751-2.68 4.213-4.232 6.423-10.365 3.356-6.13-3.064-9.196-6.13-7.153-12.262z"/>
    <path fill="#FFCC4D" d="M22.491 14.76c3.816 3.768 4.498 9.263 1.524 12.276-2.974 3.014-8.477 2.4-12.294-1.365-3.816-3.768-4.499-9.264-1.525-12.276 2.975-3.013 8.479-2.401 12.295 1.365z"/>
    <path fill="#8E0042" d="M26.96 6.377c1.14.57 2.703 3.605 2.703 4.506 0 .901-.901-.901-2.703-2.704-1.803-1.802-1.803-2.703 0-1.802zm.181 8.03c.607.578 1.009 2.787.836 3.354-.173.567-.395-.74-1.183-2.22-.789-1.48-.615-2.047.347-1.134z"/>
    <path fill="#B90053" d="M21 32c0 2.209-4.477 4-10 4S1 34 1 32c0-.371-.203-2.6.084-2.958C2.34 27.469 6.502 28 11 28c4.908 0 9.133-.865 9.979 1 .107.233.021 2.754.021 3z"/>
    <ellipse fill="#FFD671" cx="11" cy="29" rx="10" ry="4"/>
  </g>
  <g transform="translate(64.24390503252457, 249.1251597544024) scale(1 1) translate(0, 0) scale(1.3962634015954636 1.3962634015954636) ">
    <path fill="#909B50" d="M13.241 23.993c1.274-1.617 4.455-.891 6.416.535s3.089 4.337 1.901 5.941-4.158 1.96-6.416.416c-2.258-1.545-3.446-4.931-1.901-6.892zm4.455-20.792c2.802.342 3.208 2.97 2.792 5.703-.416 2.733-2.436 5.347-4.693 5.228-2.257-.119-3.149-3.446-2.792-6.238s2.258-4.99 4.693-4.693z"/>
    <path fill="#C1694F" d="M1.3 32.876c-.08 0-.161-.016-.239-.048-.319-.133-.47-.498-.337-.817 2.393-5.756 6.062-8.645 8.72-10.055 1.57-.833 2.938-2.249 4.036-3.387.663-.687 1.236-1.28 1.767-1.672 1.357-1.003 6.335-4.495 6.547-4.643.282-.199.672-.129.87.153.198.283.13.672-.153.871-.051.036-5.177 3.631-6.521 4.625-.447.331-.986.889-1.61 1.536-1.16 1.201-2.604 2.696-4.35 3.622-2.476 1.314-5.9 4.018-8.151 9.432-.102.238-.334.383-.579.383z"/>
    <path fill="#C1694F" d="M7.538 24.5c-.321 0-.594-.245-.622-.571-.01-.113-.241-2.802-.12-4.437.025-.345.316-.602.669-.578.344.026.603.326.578.669-.114 1.536.116 4.21.118 4.237.03.344-.225.646-.568.677l-.055.003zm6 .356c-.117 0-.234-.032-.339-.101l-.231-.15c-.837-.545-2.399-1.55-3.163-1.477-.345.042-.652-.209-.69-.553-.038-.343.209-.651.552-.689 1.129-.117 2.525.721 3.983 1.672l.228.148c.29.188.373.574.185.864-.12.186-.321.286-.525.286zm2.051-6.85c-.211 0-.411-.106-.521-.307-.534-.979.188-4.022.385-4.512.128-.321.493-.477.812-.348.32.128.476.492.348.812-.262.654-.631 3.017-.444 3.456.131.307.009.686-.292.831-.093.046-.192.068-.288.068z"/>
    <path fill="#C1694F" d="M19.774 20.163c-.127 0-.256-.039-.367-.119-1.576-1.148-2.984-1.563-4.306-1.263-.339.075-.671-.136-.748-.472-.076-.337.136-.671.472-.748 1.689-.382 3.431.099 5.317 1.471.278.203.34.595.138.874-.122.168-.312.257-.506.257zm3.625-3.624c-.069 0-.14-.011-.208-.036-1.02-.36-3.124-.883-4.528-.573-.335.073-.67-.138-.746-.475-.075-.337.138-.671.475-.746 2.074-.457 4.901.503 5.215.615.325.115.496.472.382.797-.091.258-.332.418-.59.418z"/>
    <path fill="#3E721D" d="M34.449 2.845c2.5 1.136-1.426 5.406-3.624 6.653-2.198 1.248-10.455 5.406-10.99 5.049s3.089-6.772 6.713-9.148 6.594-3.148 7.901-2.554zM18.944 18.587c1.344-.504 6.772 1.366 9.386 3.149 2.614 1.782 4.04 4.634 2.911 5.584s-5.822.238-8.792-2.436-4.456-5.94-3.505-6.297zM9.617 2.964c2.225-.384 2.851 4.218 2.139 7.782S7.954 21.38 7.419 21.498c-.535.119-2.911-5.822-2.495-10.158.416-4.337 2.97-8.079 4.693-8.376z"/>
    <path fill="#909B50" d="M32.341 19.492c-.8 2.707-3.459 2.674-6.086 1.812s-4.871-3.285-4.381-5.492c.49-2.207 3.918-2.536 6.613-1.724 2.695.813 4.549 3.051 3.854 5.404z"/>
    <path fill="#C7CC62" d="M27.109 14.505c1.928.463 3.149 1.248 3.505 1.842.356.594-.059 1.248-.95.594-.891-.653-3.03-1.485-4.099-1.663-1.07-.179.059-1.13 1.544-.773zM16 4.228c1.399-.646 2.673 0 2.614.416-.059.416-1.842 0-2.673.891s-1.96 1.307-1.723.653 1.01-1.604 1.782-1.96zm1.544 20.019c1.432.102 2.97 2.198 2.436 2.614s-1.663-1.663-2.733-1.901c-1.069-.237-1.366-.831.297-.713z"/>
  </g>
  <g transform="translate(95.77478004538406, 199.4404509299499) scale(1 1) translate(0, 0) scale(1.3962634015954636 1.3962634015954636) ">
    <ellipse fill="#99AAB5" cx="18" cy="26" rx="18" ry="10"/>
    <ellipse fill="#CCD6DD" cx="18" cy="24" rx="18" ry="10"/>
    <path fill="#F5F8FA" d="M18 31C3.042 31 1 16 1 12h34c0 2-1.958 19-17 19z"/>
    <path fill="#CCD6DD" d="M34.385 9.644c2.442-10.123-9.781-7.706-12.204-5.799-1.34-.148-2.736-.234-4.181-.234-9.389 0-17 3.229-17 8.444C1 17.271 8.611 21.5 18 21.5s17-4.229 17-9.444c0-.863-.226-1.664-.615-2.412zm-2.503-2.692c-1.357-.938-3.102-1.694-5.121-2.25 1.875-.576 4.551-.309 5.121 2.25z"/>
    <ellipse fill="#8A4B38" cx="18" cy="13" rx="15" ry="7"/>
    <path fill="#D99E82" d="M20 17c-.256 0-.512-.098-.707-.293-2.337-2.337-2.376-4.885-.125-8.262.739-1.109.9-2.246.478-3.377-.461-1.236-1.438-1.996-1.731-2.077-.553 0-.958-.443-.958-.996 0-.552.491-.995 1.043-.995.997 0 2.395 1.153 3.183 2.625 1.034 1.933.91 4.039-.351 5.929-1.961 2.942-1.531 4.332-.125 5.738.391.391.391 1.023 0 1.414-.195.196-.451.294-.707.294zm-6-2c-.256 0-.512-.098-.707-.293-2.337-2.337-2.376-4.885-.125-8.262.727-1.091.893-2.083.494-2.947-.444-.961-1.431-1.469-1.684-1.499-.552 0-.989-.447-.989-1 0-.552.458-1 1.011-1 .997 0 2.585.974 3.36 2.423.481.899 1.052 2.761-.528 5.131-1.961 2.942-1.531 4.332-.125 5.738.391.391.391 1.023 0 1.414-.195.197-.451.295-.707.295z"/>
  </g>
  <g transform="translate(133.2841699066212, 154.0993873971547) scale(1 1) translate(0, 0) scale(1.3962634015954636 1.3962634015954636) ">
    <path fill="#3E721D" d="M28 27c-8 0-8 6-8 6V22h-4v11s0-6-8-6c-4 0-7-2-7-2s0 9 9 9h6s0 2 2 2 2-2 2-2h6c9 0 9-9 9-9s-3 2-7 2z"/>
    <path fill="#FFAC33" d="M21.125 27.662c-.328 0-.651-.097-.927-.283l-2.323-1.575-2.322 1.575c-.277.186-.601.283-.929.283-.143 0-.287-.018-.429-.057-.462-.123-.851-.441-1.06-.874l-1.225-2.527-2.797.204c-.04.002-.079.004-.119.004-.438 0-.86-.174-1.17-.484-.34-.342-.516-.81-.481-1.288l.201-2.8-2.523-1.225c-.432-.209-.751-.598-.876-1.062-.125-.464-.042-.958.228-1.356l1.573-2.323-1.573-2.322c-.27-.398-.353-.892-.228-1.357.125-.462.444-.851.876-1.06L7.544 7.91l-.201-2.797c-.034-.48.142-.951.481-1.289.31-.312.732-.485 1.17-.485.04 0 .079 0 .119.003l2.797.201 1.225-2.523c.209-.432.598-.751 1.06-.876.142-.038.285-.057.429-.057.328 0 .651.098.929.285l2.322 1.573L20.198.372c.275-.188.599-.285.927-.285.144 0 .29.02.428.057.465.125.854.444 1.062.876l1.225 2.523 2.8-.201c.037-.003.078-.003.116-.003.438 0 .858.173 1.172.485.338.338.515.809.48 1.289l-.204 2.797 2.527 1.225c.433.209.751.598.874 1.06.124.465.043.96-.227 1.357l-1.575 2.322 1.575 2.323c.269.398.351.892.227 1.356-.123.464-.441.852-.874 1.062l-2.527 1.225.204 2.8c.034.478-.143.946-.48 1.288-.313.311-.734.484-1.172.484-.038 0-.079-.002-.116-.004l-2.8-.204-1.225 2.527c-.209.433-.598.751-1.062.874-.139.04-.284.057-.428.057z"/>
    <circle fill="#732700" cx="18" cy="14" r="7"/>
  </g>
  <g transform="translate(176.18052913110066, 113.81702481336768) scale(1 1) translate(0, 0) scale(1.3962634015954636 1.3962634015954636) ">
    <path fill="#77B255" d="M28.938 27.441c-2.554-.89-8.111-.429-9.938 1.331V17c0-.553-.447-1-1-1s-1 .447-1 1v11.772c-1.827-1.76-7.384-2.221-9.938-1.331-.741.259 5.264 8.749 9.507 4.507.168-.168.306-.33.431-.49V35c0 .553.447 1 1 1s1-.447 1-1v-3.542c.125.16.263.322.431.49 4.243 4.242 10.248-4.248 9.507-4.507z"/>
    <path fill="#CCD6DD" d="M12.562 25.65c-.619-.266-1.107-.837-1.378-1.513l-1.266-3.306-3.258-1.393c-1.336-.574-1.876-1.922-1.304-3.259l1.362-3.181-1.364-3.269c-.541-1.35.15-2.868 1.5-3.408l3.272-1.281 1.449-3.384C12.148.32 13.496-.22 14.833.352l3.258 1.396L21.358.382c.675-.271 1.411-.276 2.03-.011.619.265 1.114.819 1.385 1.494l1.274 3.29 3.309 1.417c1.336.572 1.875 1.921 1.305 3.258l-1.451 3.384 1.365 3.267c.541 1.35-.15 2.866-1.5 3.407l-3.271 1.281-1.363 3.183c-.572 1.336-1.922 1.877-3.258 1.305l-3.308-1.417-3.267 1.364c-.676.271-1.427.311-2.046.046z"/>
    <path fill="#E1E8ED" d="M29.356 6.572l-3.309-1.417-.055-.143c-1.565 1.337-5.215 4.354-5.215 4.354l.007.123C20.015 8.879 19.057 8.5 18 8.5V1.709L14.833.353c-1.337-.572-2.685-.032-3.258 1.304l-1.449 3.384-.061.024 4.753 4.754c-.814.813-1.318 1.938-1.318 3.181H6.717l-1.361 3.178c-.572 1.337-.032 2.686 1.304 3.259l3.258 1.394.002.006 4.496-5.142c.822 1.09 2.115 1.805 3.584 1.805h.005c.006 1.979.015 5.273.012 6.801l3.164 1.356c1.336.572 2.686.031 3.258-1.305l1.362-3.18-5.192-4.517c1.14-.816 1.89-2.145 1.89-3.654 0-.071-.018-.137-.021-.208 1.802.182 4.951.472 6.822.642l-.092-.22L30.66 9.83c.571-1.337.031-2.686-1.304-3.258z"/>
    <circle fill="#F4900C" cx="18" cy="13" r="5"/>
  </g>
  <g transform="translate(223.7873565088093, 79.22864010005244) scale(1 1) translate(0, 0) scale(1.3962634015954636 1.3962634015954636) ">
    <path fill="#77B255" d="M31.096 8.933c3.535-2.122 4.408-8.32 3.701-7.613.707-.707-5.657 0-7.778 3.536 0-1.414-1.414-7.071-3.535-2.121-2.122 4.95-1.415 5.657-1.415 7.071 0 1.414 2.829 1.414 2.829 1.414s-.125 2.704 1.29 2.704c1.414 0 1.997.583 6.946-1.538 4.95-2.122-.624-3.453-2.038-3.453z"/>
    <path fill="#F4900C" d="M22.422 23.594C14.807 31.209 2.27 36.675.502 34.907c-1.768-1.768 3.699-14.305 11.313-21.92 7.615-7.615 11.53-7.562 14.85-4.243 3.319 3.32 3.372 7.235-4.243 14.85z"/>
    <path d="M21.875 14.56c-.972-.972-2.77-2.785-4.692-6.106-.753.492-1.554 1.091-2.409 1.808 2.803 3.613 8.121 5.317 7.101 4.298zm-7.485 8.072c-1.041-1.041-3.03-3.05-5.105-6.846-.687.832-1.349 1.693-1.98 2.57 2.807 3.597 8.101 5.292 7.085 4.276zm9.301-.351c-3.581-2.008-5.49-3.91-6.502-4.921-1.02-1.022.692 4.315 4.317 7.114.311-.29 1.786-1.767 2.185-2.193zm-12.183 9.324c.895-.492 1.804-1.025 2.715-1.597-3.273-1.905-5.069-3.683-6.034-4.648-.922-.923.386 3.347 3.319 6.245z" fill="#D67503"/>
  </g>
  <g transform="translate(275.35386393306055, 50.87971274623729) scale(1 1) translate(0, 0) scale(1.3962634015954636 1.3962634015954636) ">
    <path fill="#8A4B38" d="M26.875 14.6C25.1 12.778 21.55 12.778 18 12.778s-7.1 0-8.875 1.822c-2.663 2.733-5.325 9.72-3.55 15.186C7.35 35.252 15.132 35.814 18 35.814s10.65-.562 12.425-6.028c1.775-5.465-.887-12.453-3.55-15.186z"/>
    <path fill="#A5503C" d="M25.58 14.412c-1.516-1.556-4.548-1.556-7.58-1.556s-6.064 0-7.58 1.556c-2.274 2.334-4.548 8.302-3.032 12.969C8.904 32.049 15.55 32.529 18 32.529s9.096-.48 10.611-5.148c1.516-4.668-.757-10.635-3.031-12.969z"/>
    <path fill="#CCD6DD" d="M27.453 13.025c-.383-1.616-2.263-3.17-9.437-3.17h-.032c-7.175 0-9.055 1.554-9.437 3.17-.733 3.093 2.263 4.278 9.437 4.278h.032c7.174-.001 10.17-1.185 9.437-4.278z"/>
    <path fill="#66757F" d="M25.622 12.355c.293.72-1.832 1.658-7.64 1.658s-7.938-.941-7.64-1.658c.323-.779 3.869-1.55 7.64-1.55 3.771 0 7.324.771 7.64 1.55z"/>
    <path fill="#77B255" d="M10.993 13.144c1.015.473 3.226.869 6.99.869 3.767 0 5.976-.395 6.99-.869-.734-.635-2.76-1.27-6.99-1.27-4.23.001-6.256.635-6.99 1.27z"/>
    <path fill="#FFF" d="M25 14.231c-.156-.424-.429-.393-.814-.276-1.779.537-4.36.641-6.211.652-1.851-.011-4.676-.162-6.211-.652-.384-.122-.701-.172-.862.276-.156.436.306.852.697.947 2.366.576 4.313.746 6.376.759 2.062-.013 3.765-.159 6.131-.735.392-.096 1.075-.476.894-.971z"/>
    <path fill="#CCD6DD" d="M22.894 13.686l5.315-7.93 5.296-3.743s.141-.297-.78-1.01C31.804.29 31.388.587 31.388.587L26.84 4.204 20.348 13.9c.994-.051 1.839-.124 2.546-.214z"/>
    <path fill="#99AAB5" d="M22.894 13.686l5.315-7.93 5.296-3.743-.067-.089-5.792 3.208-5.8 8.674c.431-.034.635-.06 1.048-.12z"/>
    <circle fill="#99AAB5" cx="27.617" cy="4.945" r="1.668"/>
    <path fill="#CCD6DD" d="M26.213 4.639c0-.697.565-1.262 1.262-1.262s1.262.565 1.262 1.262-.565 1.262-1.262 1.262-1.262-.565-1.262-1.262z"/>
    <path fill="#E1E8ED" d="M11.459 10.865c1.604-.639 4.544-.802 5.569-.757 1.025.045.571.757-.015.757-1.693 0-3.787.401-5.228.772-.851.219-1.143-.447-.326-.772z"/>
  </g>
  <g transform="translate(330.0668167774352, 29.21732227112048) scale(1 1) translate(0, 0) scale(1.3962634015954636 1.3962634015954636) ">
    <path fill="#C1694F" d="M25.94 15.188c2.045 8.239-1.642 16.246-8.235 17.881-6.592 1.636-13.593-3.719-15.638-11.958-2.044-8.24 1.642-16.246 8.236-17.882 6.59-1.636 13.593 3.718 15.637 11.959z"/>
    <path fill="#C1694F" d="M34.146 13.151c2.391 9.635-6.295 17.402-14.948 19.548-8.653 2.146-14.34-3.532-16.385-11.773-2.044-8.24.328-15.92 8.98-18.066 8.652-2.148 19.801.005 22.353 10.291z"/>
    <path fill="#77B255" d="M24.448 15.558c1.789 7.211-1.438 14.215-7.205 15.646-5.768 1.434-11.895-3.253-13.685-10.463-1.788-7.21 1.438-14.215 7.207-15.647 5.766-1.43 11.893 3.254 13.683 10.464z"/>
    <path fill="#A6D388" d="M12.871 5.837c4.713 0 9.174 4.19 10.607 9.962.811 3.267.56 6.581-.707 9.331-1.231 2.674-3.28 4.486-5.768 5.103-.61.152-1.238.228-1.868.228-4.712 0-9.172-4.19-10.605-9.962-1.654-6.662 1.252-13.138 6.476-14.434.609-.151 1.236-.228 1.865-.228m0-1c-.702 0-1.406.084-2.106.257-5.769 1.432-8.995 8.437-7.206 15.647 1.572 6.335 6.492 10.721 11.575 10.721.702 0 1.409-.084 2.109-.258 5.766-1.431 8.994-8.435 7.205-15.646-1.573-6.335-6.494-10.721-11.577-10.721z"/>
    <g fill="#A6D388">
      <path d="M18.974 18.518l-2.799 1.311 1.656 4.152-2.955-2.326-.697 4.171-1.378-4.098-2.651 1.745 1.006-3.976-3.043-1.701 2.8-1.315-1.657-4.149 2.957 2.115.697-4.172 1.379 4.31 2.645-1.745-1.001 3.973z"/>
      <path d="M14.178 26.826c-.426 0-.81-.271-.947-.682l-.964-2.868-1.567 1.032c-.343.228-.792.221-1.129-.021-.336-.238-.491-.66-.39-1.06l.817-3.232-2.373-1.326c-.328-.184-.525-.534-.512-.908.013-.375.235-.71.574-.87l1.947-.914-1.308-3.274c-.165-.413-.038-.884.312-1.158.35-.273.838-.284 1.199-.026l1.653 1.183.432-2.59c.076-.456.454-.8.914-.833.472-.022.885.253 1.025.693l.977 3.053 1.544-1.019c.344-.227.794-.22 1.129.019.336.239.492.66.391 1.06l-.813 3.231 2.373 1.33c.326.184.523.535.51.909-.014.375-.235.71-.574.869l-1.945.912 1.307 3.276c.168.42.032.9-.33 1.171-.363.271-.862.265-1.217-.015l-1.628-1.282-.419 2.506c-.076.452-.45.796-.907.832l-.081.002zm-1.377-6.098c.11 0 .22.018.326.055.293.102.523.333.622.627l.103.306.038-.225c.058-.349.296-.64.625-.768.329-.126.701-.071.979.146l.027.021-.275-.691c-.196-.491.025-1.051.504-1.275l1.036-.485-1.342-.752c-.394-.221-.591-.679-.481-1.117l.372-1.477-.496.327c-.261.172-.588.213-.883.109-.295-.104-.524-.34-.62-.639l-.12-.375-.016.097c-.057.34-.285.627-.604.759-.318.133-.683.09-.964-.11l-.181-.129.391.979c.196.492-.024 1.051-.503 1.276l-1.038.487 1.343.75c.395.221.593.68.481 1.118l-.374 1.479.5-.329c.166-.109.357-.164.55-.164z"/>
    </g>
    <g fill="#C6E5B3">
      <path d="M16.788 18.019l-1.709.812 1.076 2.538-1.846-1.288-.378 2.556-.91-2.634-1.606 1.077.566-2.437-1.902-1.034 1.706-.813-1.078-2.539 1.852 1.286.373-2.556.911 2.637 1.61-1.079-.567 2.438z"/>
      <path d="M13.931 23.137c-.211 0-.402-.134-.472-.337l-.698-2.021-1.066.716c-.17.114-.394.114-.563-.004-.169-.116-.25-.324-.203-.524l.48-2.066-1.569-.852c-.165-.09-.266-.265-.261-.453s.115-.357.285-.438l1.274-.607-.891-2.099c-.087-.205-.028-.443.145-.583.173-.141.417-.149.601-.022l1.188.826.256-1.757c.033-.228.218-.404.448-.425.228-.028.444.116.52.334l.7 2.024 1.071-.718c.171-.114.394-.112.562.004.169.117.25.325.203.525l-.48 2.067 1.568.854c.165.09.266.265.261.453-.005.188-.116.357-.285.438l-1.277.607.89 2.097c.087.205.028.443-.146.584-.173.141-.418.147-.601.021l-1.184-.826-.26 1.757c-.034.228-.219.403-.448.425h-.048zm-.91-3.634c.053 0 .107.009.159.026.147.049.263.164.313.311l.243.701.079-.533c.025-.171.138-.317.296-.386.159-.067.341-.051.484.049l.421.294-.398-.938c-.104-.247.004-.532.246-.646l.823-.392-1.04-.566c-.197-.107-.299-.333-.248-.552l.28-1.205-.558.374c-.129.086-.292.106-.438.059-.147-.049-.263-.164-.313-.311l-.241-.697-.077.525c-.025.171-.137.317-.295.386-.16.069-.342.051-.484-.048l-.429-.298.401.945c.104.246-.003.531-.245.646l-.821.391 1.041.565c.197.107.299.334.248.553l-.279 1.203.553-.371c.083-.056.18-.085.279-.085z"/>
    </g>
    <path fill="#292F33" d="M9.306 14.957c.229.497.147 1.024-.185 1.178-.332.153-.786-.127-1.016-.624-.229-.497-.147-1.024.185-1.177.331-.154.786.126 1.016.623zm6.698-2.936c-.129.532-.521.894-.876.809-.356-.087-.538-.589-.409-1.121.129-.532.521-.894.877-.807.354.085.537.586.408 1.119zm-2.644 9.914c-.129.532-.52.894-.875.809-.357-.087-.539-.588-.41-1.12.129-.531.521-.895.877-.808.354.086.537.587.408 1.119zm3.216 2.178c.229.497.147 1.023-.185 1.179-.331.151-.786-.128-1.016-.625-.228-.496-.148-1.023.185-1.178.332-.152.787.127 1.016.624zm1.121-7.683c-.304.292-.68.391-.843.225-.161-.17-.045-.542.258-.835.303-.292.681-.393.843-.224.162.169.047.542-.258.834zm-5.274-2.365c.181.38.158.768-.053.871-.212.098-.53-.129-.71-.509-.18-.38-.156-.77.056-.871.21-.101.528.128.707.509zm-3.98 7.094c-.304.292-.679.392-.843.225-.16-.169-.045-.542.258-.834.303-.291.68-.393.843-.225.162.169.047.542-.258.834zm10.622-.928c.329.356.382.842.116 1.093-.267.246-.752.159-1.082-.195-.33-.356-.384-.843-.116-1.094.267-.248.751-.16 1.082.196z"/>
  </g>
  <g transform="translate(387.06335909164443, 14.583097512978924) scale(1 1) translate(0, 0) scale(1.3962634015954636 1.3962634015954636) ">
    <path fill="#5C913B" d="M8.089 1s5.858.616 8.54 4.06c3.206 4.117.891 7.962.891 7.962s-4.825-.425-7.03-3.157C7.287 5.896 8.089 1 8.089 1z"/>
    <path fill="#77B255" d="M21.901 1s.913 4.617-1.006 7.47c-2.293 3.41-5.676 2.54-5.676 2.54s-.813-3.784.691-6.106C18.096 1.53 21.901 1 21.901 1z"/>
    <ellipse fill="#5864B7" cx="23.737" cy="11.536" rx="6.916" ry="6.027"/>
    <path fill="#334372" d="M19.34 16.996c0-.851-.124-1.64-.34-2.373 1.231-.409 2.569-.641 3.983-.641 2.263 0 4.355.55 6.073 1.562C27.818 17.147 25.7 18 23.292 18c-1.476 0-2.834-.331-3.955-.949 0-.019.003-.036.003-.055z"/>
    <path fill="#334372" d="M21.761 16.558c0 .27-.017.531-.04.789-2.836-.632-4.901-2.641-4.901-5.811 0-.778.129-1.483.359-2.119 2.732 1.246 4.582 3.739 4.582 7.141z"/>
    <ellipse fill="#5864B7" cx="10.892" cy="16.558" rx="8.892" ry="8.035"/>
    <path fill="#334372" d="M10.892 24.091c0-5.278 3.75-8.713 8.687-9.406.132.589.206 1.213.206 1.872 0 4.984-3.968 8.024-8.867 8.034-.008-.166-.026-.329-.026-.5z"/>
    <ellipse transform="rotate(-60 17.507 21.52)" fill="#AA8DD8" cx="17.507" cy="21.519" rx="2.525" ry="2.5"/>
    <ellipse fill="#5864B7" cx="22.44" cy="25.095" rx="10.56" ry="9.542"/>
    <path fill="#334372" d="M17.043 19.746c.702-1.228 1.699-.59 2.881-1.366.95-.624 1.079-1.574 2.079-1.574s1.604.832 2.168 1.04c1.327.489 2.119-.228 3.119.772s-.772 1.901-.921 2.673c-.189.982 1.04 1.693.178 2.168-1.237.683-1.549-.556-3.547-.459-1.502.073-2.096 1.528-3.403 1.082-1.339-.456.475-1.752-.327-2.584-.981-1.018-2.702-.92-2.227-1.752zm-10.871-7.99c.445-1.036 1.065-.439 1.932-1.161.696-.581.712-1.345 1.504-1.436.792-.091 1.346.514 1.812.627 1.096.267 1.88-.08 2.541.329.959.594-.138 1.312-.186 1.937-.061.795.676 1.511.036 1.966-.919.654-1.492-.174-3.066.083-1.183.194-1.271 1.037-2.347.802-1.102-.24-.151-1.315-.861-1.901-.869-.716-1.667-.544-1.365-1.246zM24.39 6.679c.831-.296.818.377 1.693.49.703.091 1.15-.307 1.624.1.473.406.421 1.045.604 1.373.429.77 1.046 1.036 1.162 1.632.17.866-.826.618-1.21.924-.488.388-.508 1.191-1.108 1.066-.864-.18-.693-.948-1.678-1.714-.74-.576-1.27-.177-1.708-.919-.448-.76.674-.785.632-1.505-.051-.881-.573-1.247-.011-1.447z"/>
    <ellipse fill="#253356" cx="22.667" cy="20.182" rx="3.758" ry="2.387"/>
    <ellipse fill="#253356" cx="10.455" cy="11.945" rx="2.818" ry="1.791"/>
    <ellipse transform="rotate(-40.137 26.699 9.278)" fill="#253356" cx="26.7" cy="9.278" rx="1.293" ry="2.035"/>
  </g>
  <g transform="translate(445.44462135530887, 7.207828938310996) scale(1 1) translate(0, 0) scale(1.3962634015954636 1.3962634015954636) ">
    <ellipse fill="#292F33" cx="18" cy="26" rx="18" ry="10"/>
    <ellipse fill="#66757F" cx="18" cy="24" rx="18" ry="10"/>
    <path fill="#E1E8ED" d="M18 31C3.042 31 1 16 1 12h34c0 2-1.958 19-17 19z"/>
    <path fill="#77B255" d="M35 12.056c0 5.216-7.611 9.444-17 9.444S1 17.271 1 12.056C1 6.84 8.611 3.611 18 3.611s17 3.229 17 8.445z"/>
    <ellipse fill="#A6D388" cx="18" cy="13" rx="15" ry="7"/>
    <path d="M21 17c-.256 0-.512-.098-.707-.293-2.337-2.337-2.376-4.885-.125-8.262.739-1.109.9-2.246.478-3.377-.461-1.236-1.438-1.996-1.731-2.077-.553 0-.958-.443-.958-.996 0-.552.491-.995 1.043-.995.997 0 2.395 1.153 3.183 2.625 1.034 1.933.91 4.039-.351 5.929-1.961 2.942-1.531 4.332-.125 5.738.391.391.391 1.023 0 1.414-.195.196-.451.294-.707.294zm-6-2c-.256 0-.512-.098-.707-.293-2.337-2.337-2.376-4.885-.125-8.262.727-1.091.893-2.083.494-2.947-.444-.961-1.431-1.469-1.684-1.499-.552 0-.989-.447-.989-1 0-.552.458-1 1.011-1 .997 0 2.585.974 3.36 2.423.481.899 1.052 2.761-.528 5.131-1.961 2.942-1.531 4.332-.125 5.738.391.391.391 1.023 0 1.414-.195.197-.451.295-.707.295z" fill="#5C913B"/>
  </g>
  <g transform="translate(504.28989618725427, 7.207828938310996) scale(1 1) translate(0, 0) scale(1.3962634015954636 1.3962634015954636) ">
    <path fill="#77B255" d="M30 4c-2.209 0-4 1.791-4 4v9.125c0 1.086-.887 1.96-2 2.448V6c0-3.313-2.687-6-6-6s-6 2.687-6 6v17.629c-1.122-.475-2-1.371-2-2.504V16c0-2.209-1.791-4-4-4s-4 1.791-4 4v7c0 2.209 1.75 3.875 3.375 4.812 1.244.718 4.731 1.6 6.625 1.651V33c0 3.313 12 3.313 12 0v-7.549c1.981-.119 5.291-.953 6.479-1.639C32.104 22.875 34 21.209 34 19V8c0-2.209-1.791-4-4-4z"/>
    <g fill="#3E721D">
      <circle cx="12" cy="6" r="1"/>
      <circle cx="23" cy="3" r="1"/>
      <circle cx="21" cy="9" r="1"/>
      <circle cx="14" cy="16" r="1"/>
      <circle cx="20" cy="20" r="1"/>
      <circle cx="13" cy="26" r="1"/>
      <circle cx="5" cy="27" r="1"/>
      <circle cx="9" cy="20" r="1"/>
      <circle cx="2" cy="18" r="1"/>
      <circle cx="34" cy="8" r="1"/>
      <circle cx="28" cy="11" r="1"/>
      <circle cx="32" cy="16" r="1"/>
      <circle cx="29" cy="24" r="1"/>
      <circle cx="22" cy="30" r="1"/>
    </g>
  </g>
  <g transform="translate(562.6711584509187, 14.583097512978924) scale(1 1) translate(0, 0) scale(1.3962634015954636 1.3962634015954636) ">
    <path d="M20.416 14.94c-1.003-1.821-1.381-3.77-1.685-5.336-.083-.427 1.579-2.199 1.701-1.66.092.401.175.83.263 1.279.291 1.503.621 3.207 1.473 4.752.267.485-1.569 1.296-1.752.965z"/>
    <path fill="#BE1931" d="M18.456 17.272c.875-.524 5.387-2.693 6.682-3.288.524 1.679 2.903 15.461 9.234 15.146 1.469.069.104 1.504-1.085 1.644-1.189.141-2.901-.174-3.602-.489.21.734.272 2.973.244 3.742-.034.945-1.129.59-2.169-.035-6.226-3.742-9.304-16.72-9.304-16.72z"/>
    <path fill="#A0041E" d="M25.138 13.985c-1.295.595-5.807 2.763-6.682 3.288 0 0 .148.624.445 1.637 1.477-.676 4.959-2.242 6.705-3.026-.222-.916-.375-1.601-.468-1.899z"/>
    <path fill="#FFAC33" d="M18.212 17.448c1.135-.454 6.191-2.764 7.205-3.253 1.015-.49.7-2.344-.489-1.924-1.189.42-6.052 2.763-7.205 3.253-1.155.489-.386 2.273.489 1.924z"/>
    <path fill="#A6D388" d="M6.195 14.044c-1.895-1.62 4.242-5.004 7.798-6.138-.251 1.072-5.064 8.475-7.798 6.138zm19.344-9.658c.964-2.299 6.06 2.512 8.225 5.55-1.096.089-9.615-2.233-8.225-5.55z"/>
    <path fill="#5C913B" d="M3.083 35.625c-.829 0-1.5-.672-1.5-1.5 0-.192-.005-.438-.011-.734C1.486 29.226 1.513 16.86 10 2.583c.424-.712 1.056-1.254 1.767-.831.712.423.323 1.369-.1 2.081C3.618 17.372 4.49 29.376 4.571 33.328c.007.322.012.589.012.797 0 .828-.671 1.5-1.5 1.5z"/>
    <path fill="#3E721D" d="M2.082 33.041c-.787 0-1.448-.613-1.496-1.41-.05-.827.58-1.537 1.407-1.587l2.083-.125c.825-.06 1.538.58 1.587 1.407.05.827-.58 1.537-1.407 1.587l-2.083.125c-.03.002-.061.003-.091.003z"/>
    <path fill="#5C913B" d="M7.71 35.583c-.095 0-.19-.009-.287-.027-.813-.158-1.345-.945-1.187-1.759.035-.18.078-.448.132-.793C9.768 11.71 19.884 4.735 28.167 2.167c.799-.245 2.104-.359 2.349.431.245.791-.6 1.282-1.391 1.527-7.472 2.317-16.638 9.579-19.794 29.352-.062.388-.111.689-.15.892-.139.717-.767 1.214-1.471 1.214z"/>
    <path fill="#3E721D" d="M9.916 8.625c-.199 0-.4-.04-.594-.123l-2.125-.917c-.76-.328-1.111-1.21-.783-1.971.328-.762 1.211-1.111 1.972-.783l2.125.916c.761.328 1.111 1.211.783 1.972-.245.567-.797.906-1.378.906zM5.459 20.916c-.125 0-.251-.016-.377-.048l-2.25-.583c-.802-.208-1.283-1.026-1.076-1.829.208-.802 1.025-1.285 1.829-1.076l2.25.583c.802.208 1.283 1.026 1.076 1.828-.176.677-.785 1.125-1.452 1.125zM22.668 8.75c-.481 0-.955-.232-1.245-.662l-1.292-1.916c-.463-.687-.281-1.619.405-2.082.687-.462 1.619-.282 2.083.405l1.292 1.917c.463.687.281 1.619-.405 2.082-.258.173-.549.256-.838.256zm-8.003 9.542c-.235 0-.473-.056-.695-.172l-2.542-1.333c-.734-.385-1.017-1.292-.631-2.025.385-.733 1.292-1.017 2.025-.631l2.542 1.333c.734.385 1.017 1.292.631 2.025-.268.511-.79.803-1.33.803zM9.917 29.958c-.127 0-.255-.016-.384-.05l-2.208-.583c-.801-.211-1.279-1.032-1.067-1.833.212-.801 1.035-1.279 1.833-1.067l2.208.583c.801.211 1.279 1.032 1.067 1.833-.177.673-.784 1.117-1.449 1.117z"/>
    <path fill="#A6D388" d="M4.958 15.208c-2.252 1.068-2.834-5.917-2.417-9.625.876.667 5.667 8.084 2.417 9.625z"/>
  </g>
  <g transform="translate(619.667700765128, 29.217322271120423) scale(1 1) translate(0, 0) scale(1.3962634015954636 1.3962634015954636) ">
    <path fill="#FFCC4D" d="M21.388.62c-1.852 0-4.235 1.849-6.22 4.826-2.322 3.483-1.069 5.989-.062 8.002.155.31.459.517.805.549.029.001.059.003.089.003.313 0 .61-.147.8-.4 2.394-3.193 6.211-8.196 6.907-8.893C23.895 4.52 24 4.265 24 4 24 1.508 22.65.62 21.388.62zm2.378 8.995c-1.21 0-2.575 1.132-4.565 3.785-2.124 2.831-2.461 5.313-1.095 8.047.151.302.444.507.779.546.038.005.077.007.115.007.295 0 .577-.131.769-.359 1.719-2.063 5.173-6.168 5.938-6.934.188-.188.293-.442.293-.707 0-1.085 0-4.385-2.234-4.385z"/>
    <path fill="#77B255" d="M29.874 11.517c-.268-.482-.878-.654-1.359-.385-7.171 3.983-13.783 14.15-16.367 19.609.838-10.195 5.569-20.044 13.559-28.034.391-.391.391-1.023 0-1.414s-1.023-.391-1.414 0C16.33 9.256 11.466 19.01 10.288 29.174c-.674-5.697-.978-13.91 1.625-19.768.225-.505-.003-1.096-.507-1.32-.505-.226-1.096.003-1.32.507-1.326 2.983-1.945 6.501-2.162 10.009C7.04 16.718 6.001 15 4.472 15h-.046c-.91 0-1.691.466-2.321 1.726-.247.494-.047.922.447 1.169.495.248 1.095.046 1.342-.447.311-.622.525-.77.521-.792.636.196 1.744 2.696 2.162 3.642.196.443.374.842.527 1.15.148.296.425.478.728.529.026 4.957.698 9.53 1.163 12.091l.02.11c.088.483.509.822.984.822.059 0 .119-.005.179-.016.122-.023.231-.071.331-.132.147.086.308.148.491.148s.344-.062.492-.147c.144.085.302.147.482.147H12c.53 0 .971-.448 1-.98.057-1.037 2.494-6.014 6.143-11.043.104-.015.207-.033.305-.082.244-.122.517-.272.808-.433.934-.517 2.494-1.38 3.106-1.02.149.088.638.535.638 2.558 0 .553.447 1 1 1s1-.447 1-1c0-2.236-.53-3.636-1.622-4.28-.783-.461-1.668-.424-2.54-.174 2.32-2.714 4.938-5.165 7.647-6.67.484-.269.658-.876.389-1.359z"/>
  </g>
  <g transform="translate(674.3806536095026, 50.87971274623723) scale(1 1) translate(0, 0) scale(1.3962634015954636 1.3962634015954636) ">
    <path fill="#5C913B" d="M15.373 1.022C13.71 2.686 8.718 9.34 11.214 15.164c2.495 5.823 5.909 2.239 7.486-2.495.832-2.496.832-5.824-.831-10.815-.832-2.496-2.496-.832-2.496-.832zm19.304 19.304c-1.663 1.663-8.319 6.655-14.142 4.159-5.824-2.496-2.241-5.909 2.495-7.486 2.497-.832 5.823-.833 10.814.832 2.496.831.833 2.495.833 2.495z"/>
    <path fill="#F4900C" d="M32.314 6.317s-.145-1.727-.781-2.253c-.435-.546-2.018-.546-2.018-.546-1.664 0-20.798 2.496-24.125 19.133-.595 2.973 4.627 8.241 7.638 7.638C29.667 26.963 32.313 7.98 32.314 6.317z"/>
    <path d="M24.769 8.816l-1.617-1.617c-.446-.446-1.172-.446-1.618 0-.446.447-.446 1.171 0 1.617l1.618 1.618c.445.446 1.171.446 1.617 0 .446-.446.446-1.17 0-1.618zm-9.705 1.619c.446.446 1.171.446 1.617 0 .447-.447.447-1.171 0-1.618l-.77-.77c-.654.398-1.302.829-1.938 1.297l1.091 1.091zm2.426-2.427c.447.447 1.17.447 1.617 0 .446-.446.446-1.17 0-1.617l-.025-.025c-.711.325-1.431.688-2.149 1.086l.557.556zm-4.853 4.853c.447.446 1.171.446 1.619 0 .446-.447.446-1.171 0-1.618l-1.198-1.196c-.586.474-1.156.985-1.707 1.528l1.286 1.286zM23.96 4.773c-.447.447-.447 1.17 0 1.617l1.617 1.617c.447.447 1.171.447 1.617 0 .446-.446.446-1.17 0-1.617l-1.617-1.617c-.447-.446-1.17-.446-1.617 0zm2.408-.796c.006.007.008.016.015.023L28 5.617c.447.447 1.171.447 1.617 0 .446-.446.446-1.17 0-1.617l-.462-.462c-.54.044-1.516.172-2.787.439zm-4.025 8.884c.446-.447.446-1.171 0-1.618l-1.618-1.617c-.446-.447-1.171-.447-1.617 0-.447.446-.447 1.17 0 1.617l1.617 1.618c.446.446 1.171.446 1.618 0zm-2.428 2.426c.447-.447.447-1.171 0-1.618l-1.617-1.617c-.446-.447-1.17-.447-1.617 0-.446.447-.446 1.171 0 1.617l1.617 1.618c.447.446 1.172.446 1.617 0zm-4.851 4.852c.447-.447.446-1.17 0-1.618l-1.618-1.617c-.446-.446-1.169-.447-1.617 0-.446.447-.446 1.171 0 1.617l1.617 1.618c.447.446 1.171.446 1.618 0zm-.808-5.661c-.447.446-.447 1.171 0 1.618l1.617 1.617c.447.446 1.17.446 1.618 0 .447-.447.447-1.171 0-1.617l-1.618-1.618c-.447-.447-1.171-.447-1.617 0z" fill="#F7B82D"/>
    <path fill="#77B255" d="M27.866 23.574c-7.125-2.374-15.097.652-19.418 3.576 2.925-4.321 5.95-12.294 3.576-19.418-.934-2.8-5.602-5.601-8.402-2.801-.934.934-1.867 1.868 0 1.868s4.667 2.8 3.735 5.601c-.835 2.505-6.889 8.742-4.153 15.375-.27.115-.523.279-.744.499l-.715.714c-.919.919-.919 2.409 0 3.329l.716.716c.919.92 2.409.92 3.328 0l.715-.716c.123-.123.227-.258.316-.398 6.999 3.84 13.747-2.799 16.379-3.677 2.8-.933 5.6 1.868 5.6 3.734 0 1.867.934.934 1.867 0 2.801-2.8-.001-7.47-2.8-8.402z"/>
  </g>
  <g transform="translate(725.9471610337542, 79.22864010005256) scale(1 1) translate(0, 0) scale(1.3962634015954636 1.3962634015954636) ">
    <path fill="#5C913B" d="M18.241 9.633c-.277-3.307 2.17-4.72 2.17-4.72-3.199.113-4.894 2.826-4.894 2.826-.752-1.3.946-4.012 2.169-4.719-3.198.113-3.67 2.12-3.67 2.12-1.503-2.601-1.03-4.607-1.03-4.607-1.121.647-1.767 2.113-2.141 3.512l-2.318-2.67c-.23 1.044.157 3.174.573 4.959-3.055-1.79-5.903-.15-5.903-.15 3.95 1.188 5.45 3.788 5.45 3.788s-3.948-1.187-5.646 1.526c2.597-.092 4.5.499 5.856 1.23-1.163.289-3.145-.236-4.355 1.371 0 0 3.198-.113 3.851 1.055-2.172.614-3.575 2.251-3.575 2.251 4.422-.818 9.123 1.669 9.123 1.669l6.119-3.532c-1.029-4.607 2.642-6.727 2.642-6.727-2.724-1.895-4.421.818-4.421.818z"/>
    <path fill="#FFAC33" d="M29.56 22.88c2.488 4.309 1.218 9.7-2.837 12.041-4.055 2.341-9.359.746-11.846-3.562l-1.589-2.753c-2.488-4.31-1.217-9.699 2.837-12.04 4.055-2.341 9.359-.747 11.846 3.562l1.589 2.752z"/>
    <path fill="#FFCC4D" d="M30.562 25.364c-.209-.848-.54-1.685-1.002-2.484l-.186-.323v.001l-1.951-.828.624-1.471-.075-.131c-2.025-3.51-5.92-5.217-9.486-4.466l-.818 1.926-1.884-.8c-3.28 2.122-4.567 6.319-3.262 10.128l1.006.427-.401.946c.055.105.102.212.163.315l1.589 2.753c.685 1.187 1.59 2.16 2.618 2.909l.229-.538 1.951.828-.324.764c.665.277 1.357.465 2.061.572l.215-.507 1.403.595c1.144-.048 2.28-.336 3.343-.883l-.017-.007.828-1.951 1.189.504c.522-.521.973-1.104 1.334-1.736l-1.693-.72.828-1.951 1.667.707c.191-.7.301-1.427.316-2.167l-1.155-.49.828-1.951.062.029zm-6.212-7.243l1.95.829-.828 1.95-1.951-.828.829-1.951zm.294 4.731l-.828 1.95-1.951-.827.828-1.951 1.951.828zm-4.197-6.387l1.951.828-.829 1.952-1.951-.828.829-1.952zm-1.656 3.902l1.951.828-.828 1.951-1.95-.828.827-1.951zm-3.902-1.655l1.95.828-.828 1.949-1.95-.828.828-1.949zm-2.484 5.853l.828-1.952 1.951.828-.829 1.952-1.95-.828zm4.196 6.385l-1.951-.827.828-1.951 1.951.828-.828 1.95zm-.295-4.73l.829-1.951 1.951.827-.829 1.952-1.951-.828zm4.196 6.386l-1.95-.828.828-1.95 1.95.829-.828 1.949zm-.294-4.73l.828-1.952 1.951.829-.828 1.952-1.951-.829zm4.197 6.388l-1.951-.828.828-1.951 1.951.828-.828 1.951zm1.657-3.904l-1.95-.827.828-1.952 1.95.828-.828 1.951zm1.656-3.901l-1.951-.828.828-1.95 1.951.827-.828 1.951z"/>
  </g>
  <g transform="translate(773.5539884114625, 113.81702481336757) scale(1 1) translate(0, 0) scale(1.3962634015954636 1.3962634015954636) ">
    <path fill="#FFE8B6" d="M28 2c2.684-1.342 5 4 3 13-1.106 4.977-5 9-9 12s-11-1-7-5 8-7 10-13c1.304-3.912 1-6 3-7z"/>
    <path fill="#FFD983" d="M31 8c0 3-1 9-4 13s-7 5-4 1 5-7 6-11 2-7 2-3z"/>
    <path fill="#FFCC4D" d="M22 20c-.296.592 1.167-3.833-3-6-1.984-1.032-10 1-4 1 3 0 4 2 2 4-.291.292-.489.603-.622.912-.417.346-.873.709-1.378 1.088-2.263 1.697-5.84 4.227-10 7-3 2-4 3-4 4 0 3 9 3 14 1s10-7 10-7l4-4c-3-4-7-2-7-2z"/>
    <path fill="#FFE8B6" d="M22 20s1.792-4.729-3-7c-4.042-1.916-8-1-11 1s-2 4-3 5 1 2 3 0 8.316-4.895 11-4c3 1 2 2.999 3 5z"/>
    <path fill="#A6D388" d="M26 35h-4c-2 0-3 1-4 1s-2-2 0-2 4 0 5-1 5 2 3 2z"/>
    <circle fill="#3E721D" cx="18" cy="35" r="1"/>
    <path fill="#FFCC4D" d="M32.208 28S28 35 26 35h-4c-2 0 0-1 1-2s5 0 5-6c0-3 4.208 1 4.208 1z"/>
    <path fill="#FFE8B6" d="M26 19c3 0 8 3 7 9s-5 7-7 7h-2c-2 0-1-1 0-2s4 0 4-6c0-3-4-7-6-7 0 0 2-1 4-1z"/>
    <path fill="#FFD983" d="M17 21c3 0 5 1 3 3-1.581 1.581-6 5-10 6s-8 1-5-1 9.764-8 12-8z"/>
    <path fill="#C1694F" d="M2 31c1 0 1 0 1 .667C3 32.333 3 33 2 33s-1-1.333-1-1.333S1 31 2 31z"/>
  </g>
  <g transform="translate(816.4503476359419, 154.0993873971544) scale(1 1) translate(0, 0) scale(1.3962634015954636 1.3962634015954636) ">
    <path fill="#C1694F" d="M21.978 20.424c-.054-.804-.137-1.582-.247-2.325-.133-.89-.299-1.728-.485-2.513-.171-.723-.356-1.397-.548-2.017-.288-.931-.584-1.738-.852-2.4-.527-1.299-.943-2.043-.943-2.043l-3.613.466s.417.87.868 2.575c.183.692.371 1.524.54 2.495.086.49.166 1.012.238 1.573.1.781.183 1.632.242 2.549.034.518.058 1.058.074 1.619.006.204.015.401.018.611.01.656-.036 1.323-.118 1.989-.074.6-.182 1.197-.311 1.789-.185.848-.413 1.681-.67 2.475-.208.643-.431 1.261-.655 1.84-.344.891-.69 1.692-.989 2.359-.502 1.119-.871 1.863-.871 2.018 0 .49.35 1.408 2.797 2.02 3.827.956 4.196-.621 4.196-.621s.243-.738.526-2.192c.14-.718.289-1.605.424-2.678.081-.642.156-1.348.222-2.116.068-.8.125-1.667.165-2.605.03-.71.047-1.47.055-2.259.002-.246.008-.484.008-.737 0-.64-.03-1.261-.071-1.872z"/>
    <path fill="#D99E82" d="M18.306 30.068c-1.403-.244-2.298-.653-2.789-.959-.344.891-.69 1.692-.989 2.359.916.499 2.079.895 3.341 1.114.729.127 1.452.191 2.131.191.414 0 .803-.033 1.176-.08.14-.718.289-1.605.424-2.678-.444.157-1.548.357-3.294.053zm1.06-4.673c-1.093-.108-1.934-.348-2.525-.602-.185.848-.413 1.681-.67 2.475.864.326 1.881.561 2.945.666.429.042.855.064 1.27.064.502 0 .978-.039 1.435-.099.068-.8.125-1.667.165-2.605-.628.135-1.509.21-2.62.101zm.309-2.133c.822 0 1.63-.083 2.366-.228.002-.246.008-.484.008-.737 0-.641-.029-1.262-.071-1.873-.529.138-1.285.272-2.352.286-1.084-.005-1.847-.155-2.374-.306.006.204.015.401.018.611.01.656-.036 1.323-.118 1.989.763.161 1.605.253 2.461.257l.062.001zm-.249-4.577c.825-.119 1.59-.333 2.304-.585-.133-.89-.299-1.728-.485-2.513-.496.204-1.199.431-2.181.572-.91.132-1.605.124-2.129.077.1.781.183 1.632.242 2.549.152.006.29.029.446.029.588.001 1.2-.043 1.803-.129zm1.271-5.116c-.288-.931-.584-1.738-.852-2.4-.443.222-1.004.456-1.737.659-.795.221-1.437.309-1.951.339.183.692.371 1.524.54 2.495.681-.068 1.383-.179 2.094-.376.679-.188 1.31-.44 1.906-.717z"/>
    <path fill="#3E721D" d="M32.61 4.305c-.044-.061-4.48-5.994-10.234-3.39-2.581 1.167-4.247 3.074-4.851 5.535-1.125-1.568-2.835-2.565-5.093-2.968C6.233 2.376 2.507 9.25 2.47 9.32c-.054.102-.031.229.056.305s.217.081.311.015c.028-.02 2.846-1.993 7.543-1.157 4.801.854 8.167 1.694 8.201 1.702.02.005.041.007.061.007.069 0 .136-.028.184-.08.032-.035 3.22-3.46 6.153-4.787 4.339-1.961 7.298-.659 7.326-.646.104.046.227.018.298-.07.072-.087.075-.213.007-.304z"/>
    <path fill="#5C913B" d="M27.884 7.63c-4.405-2.328-7.849-1.193-9.995.22-2.575-.487-7.334-.459-11.364 4.707-4.983 6.387-.618 14.342-.573 14.422.067.119.193.191.327.191.015 0 .031-.001.046-.003.151-.019.276-.127.316-.274.015-.054 1.527-5.52 5.35-10.118 2.074-2.496 4.55-4.806 6.308-6.34 1.762.298 4.327.947 6.846 2.354 4.958 2.773 7.234 7.466 7.257 7.513.068.144.211.226.379.212.158-.018.289-.133.325-.287.02-.088 1.968-8.8-5.222-12.597z"/>
  </g>
  <g transform="translate(853.9597374971789, 199.44045092994955) scale(1 1) translate(0, 0) scale(1.3962634015954636 1.3962634015954636) ">
    <path fill="#99AAB5" d="M25.786 32.106c-.018-.035-.334-.608-.918-1.05.092-.377.05-.748-.275-.988-.806-.593-7.902.202-8.409 2.739-.21 1.049.527 1.049.93.724-.123.447-.19.905-.152 1.335.021.241.234.419.475.398.026-.002.051-.007.075-.013.202-.054.342-.247.323-.462-.026-.299.02-.622.099-.942.18.161.38.293.614.241.28-.063.457-.338.574-.638.014.19.042.312.045.326.062.232.299.369.531.309l.005-.001c.23-.062.368-.298.312-.53-.004-.015-.046-.205-.017-.506.396.239.896.456 1.305.356.521-.127.769-.566.893-.997.393.369.625.801.859 1.303.091.196.308.293.51.239.025-.007.048-.015.072-.026.22-.102.315-.363.213-.582-.166-.357-.371-.789-.711-1.208.31.207.637.352.851.227.149-.087.326-.271.488-.495.338.301.528.646.53.652.099.183.308.269.501.217.031-.008.062-.02.092-.036.216-.116.298-.379.185-.592z"/>
    <path fill="#E1E8ED" d="M22.92 11.745c-3.324-.292-4.921-2.163-5.906-3.983-.19-.352-1.706-3.665-2.486-5.804-.74-2.029-1.983-.958-2.553-.805-.571.153-1.483.171-1.31 1.84.259 2.503.708 5.872.749 6.269.234 2.243-.391 4.487-3.123 6.402-5.12 3.588-6.648 6.939-5.656 10.642 1.42 5.299 4.566 9.254 17.872 5.688S34.56 23.431 33.14 18.132c-.993-3.701-3.992-5.84-10.22-6.387z"/>
    <path fill="#99AAB5" d="M11.29 32.904c-2.744-1.233-5.845-3.48-5.898-7.615-.058-4.524 4.073-7.097 4.567-9.714.173 3.065-2.752 5.037-2.722 8.946.028 3.541 1.019 6.223 4.053 8.383zm6.984-.497c-2.612-1.34-5.792-4.185-6.488-8.1-1.002-5.636 1.365-9.11.782-13.372 1.415 4.899.563 7.254 1.436 12.126.568 3.17 2.161 7.531 4.27 9.346zm10.667-4.233c1.759-2.44 3.322-5.937 1.3-9.544-2.212-3.947-7.076-4.11-8.812-6.129 1.383 2.741 4.902 2.986 6.83 6.386 1.748 3.081 2.23 5.9.682 9.287zm-6.296 3.061c1.592-2.466 2.924-6.52 1.569-10.259-1.951-5.382-5.737-7.207-7.363-11.19 1.224 4.951 3.139 6.564 4.819 11.22 1.092 3.03 1.894 7.603.975 10.229z"/>
  </g>
  <g transform="translate(885.4906125100385, 249.12515975440206) scale(1 1) translate(0, 0) scale(1.3962634015954636 1.3962634015954636) ">
    <path fill="#D39954" d="M26.617 32.441c-.02-.039-.373-.678-1.025-1.172.103-.421.056-.835-.307-1.103-.9-.662-8.82.226-9.386 3.057-.234 1.171.588 1.171 1.038.809-.137.499-.212 1.011-.169 1.49.024.269.261.467.531.444.029-.002.057-.007.084-.015.225-.06.381-.275.36-.516-.03-.334.022-.694.111-1.051.201.18.424.327.686.269.312-.07.51-.378.64-.712.015.212.046.348.05.363.069.259.333.411.593.345l.006-.002c.257-.069.411-.333.348-.591-.004-.017-.051-.229-.019-.565.442.267 1 .509 1.457.398.581-.142.859-.631.997-1.113.439.412.698.895.958 1.454.101.219.344.327.569.267.028-.007.054-.016.08-.029.246-.113.352-.405.238-.65-.185-.399-.414-.88-.793-1.348.346.231.711.393.95.253.166-.097.364-.302.545-.553.377.336.589.721.592.727.11.204.344.3.559.242.035-.009.069-.023.103-.04.239-.126.33-.419.204-.658z"/>
    <path fill="#EDD6A6" d="M21.708 6.32c-2.741-.932-5.978-3.134-6.754-6.03-.273-1.02-.952 1.29-1.891 1.541-.939.252-2.682-1.409-2.408-.389.776 2.896-.926 6.422-2.834 8.599-3.575 4.08-6.287 8.95-4.89 14.165 2 7.465 10.1 10.746 18.41 8.519s13.684-9.118 11.684-16.582c-1.398-5.215-6.182-8.077-11.317-9.823z"/>
    <path fill="#E2A759" d="M13.66 32.585c-3.296-1.993-7.838-5.273-8.227-11.23-.425-6.519 4.936-10.098 5.304-13.826.444 4.428-3.559 7.236-3.214 12.866.313 5.101 2.429 8.841 6.137 12.19z"/>
    <path fill="#E2A759" d="M19.764 32.885c-3.097-1.934-6.932-5.916-7.944-11.203-1.457-7.611 1.103-12.145.203-17.89 1.897 6.644 1.034 9.757 2.302 16.336.825 4.282 2.9 10.213 5.439 12.757zm8.158-4.121c1.858-3.374 4.302-8.526 1.66-13.88-2.891-5.858-9.474-6.237-11.657-9.281 1.829 4.057 6.85 4.447 9.367 9.495 2.28 4.574 2.166 8.912.63 13.666z"/>
    <path fill="#E2A759" d="M22.786 32.076c1.715-3.223 3.045-8.589 1.278-13.674-2.543-7.32-7.027-9.966-9.121-15.392 1.679 6.703 3.983 8.966 6.174 15.298 1.427 4.12 2.596 10.295 1.669 13.768z"/>
  </g>
  <g transform="translate(910.5457119399367, 302.36995633214485) scale(1 1) translate(0, 0) scale(1.3962634015954636 1.3962634015954636) ">
    <path fill="#77B255" d="M34.751 22c-3.382 0-11.9 3.549-15.751 7.158V17c0-.553-.447-1-1-1-.552 0-1 .447-1 1v12.341C13.247 25.669 4.491 22 1.052 22 .123 22 11.913 35.992 17 34.599V35c0 .553.448 1 1 1 .553 0 1-.447 1-1v-.356C24.188 35.638 35.668 22 34.751 22z"/>
    <path fill="#EA596E" d="M25 13.417C25 19.768 23.293 23 18 23s-7-3.232-7-9.583S16 0 18 0s7 7.066 7 13.417z"/>
    <path fill="#F4ABBA" d="M22.795 2c-.48 0-4.106 14.271-4.803 19.279C17.246 16.271 13.481 2 13 2c-1 0-6 9-6 13s5.707 8 11 8 10.795-4 10.795-8-5-13-6-13z"/>
  </g>
  <g transform="translate(928.7299019016722, 358.33513841424576) scale(1 1) translate(0, 0) scale(1.3962634015954636 1.3962634015954636) ">
    <path fill="#3E721D" d="M35 5.904c2.394 6.042-1.438 20.543-10.5 26.5-9.06 5.957-20.395 3.573-23.097-6.443-1.669-6.186 2.79-10.721 11.851-16.677C22.315 3.327 32.64-.053 35 5.904z"/>
    <path fill="#3E721D" d="M20.605 26.03c-6.523 4.546-15.287 5.15-18.469.582-3.183-4.566.418-12.578 6.943-17.124 6.522-4.545 21.951-9.796 25.134-5.23 3.183 4.57-7.085 17.226-13.608 21.772"/>
    <path fill="#A6D388" d="M19.815 26.578c-5.757 4.013-13.482 3.097-16.29-.934C.718 21.613 4 14.474 9.757 10.463c5.755-4.011 20.258-9.264 23.068-5.234 2.807 4.03-4.825 16.175-13.01 21.349"/>
    <path fill="#C6E5B3" d="M18.169 23.926c-4.506 3.14-9.939 3.127-12.136-.027-2.2-3.154-.33-8.255 4.176-11.395 4.507-3.141 15.835-7.238 18.035-4.084 2.199 3.154-5.567 12.366-10.075 15.506z"/>
    <path fill="#662113" d="M11.162 12.488c3.48-2.332 7.382-1.495 9.798.995 1.433 1.477-.88 5.382-4.359 7.714-3.478 2.33-7.769 1.763-8.239.731-1.44-3.157-.677-7.109 2.8-9.44z"/>
    <path fill="#7C3225" d="M13.071 13.106c1.51-1.013 3.414-.819 4.254.431.837 1.251.294 3.087-1.217 4.1-1.51 1.01-3.414.817-4.253-.433-.839-1.252-.294-3.086 1.216-4.098z"/>
  </g>
  <g transform="translate(939.7564068568405, 416.13810164729205) scale(1 1) translate(0, 0) scale(1.3962634015954636 1.3962634015954636) ">
    <path fill="#662113" d="M22 33c0 2.209-1.791 3-4 3s-4-.791-4-3l1-9c0-2.209.791-2 3-2s3-.209 3 2l1 9z"/>
    <path fill="#5C913B" d="M31.406 27.297C24.443 21.332 21.623 12.791 18 12.791c-3.623 0-6.443 8.541-13.405 14.506-2.926 2.507-1.532 3.957 2.479 3.667 3.576-.258 6.919-1.069 10.926-1.069s7.352.812 10.926 1.069c4.012.29 5.405-1.16 2.48-3.667z"/>
    <path fill="#3E721D" d="M29.145 24.934C23.794 20.027 20.787 13 18 13c-2.785 0-5.793 7.027-11.144 11.934-4.252 3.898 5.572 4.773 11.144 0 5.569 4.773 15.396 3.898 11.145 0z"/>
    <path fill="#5C913B" d="M29.145 20.959C23.794 16.375 20.787 9.811 18 9.811c-2.785 0-5.793 6.564-11.144 11.148-4.252 3.642 5.572 4.459 11.144 0 5.569 4.459 15.396 3.642 11.145 0z"/>
    <path fill="#3E721D" d="M26.7 17.703C22.523 14.125 20.176 9 18 9c-2.174 0-4.523 5.125-8.7 8.703-3.319 2.844 4.35 3.482 8.7 0 4.349 3.482 12.02 2.844 8.7 0z"/>
    <path fill="#5C913B" d="M26.7 14.726c-4.177-3.579-6.524-8.703-8.7-8.703-2.174 0-4.523 5.125-8.7 8.703-3.319 2.844 4.35 3.481 8.7 0 4.349 3.481 12.02 2.843 8.7 0z"/>
    <path fill="#3E721D" d="M25.021 12.081C21.65 9.193 19.756 5.057 18 5.057c-1.755 0-3.65 4.136-7.021 7.024-2.679 2.295 3.511 2.809 7.021 0 3.51 2.81 9.701 2.295 7.021 0z"/>
    <path fill="#5C913B" d="M25.021 9.839C21.65 6.951 19.756 2.815 18 2.815c-1.755 0-3.65 4.136-7.021 7.024-2.679 2.295 3.511 2.809 7.021 0 3.51 2.81 9.701 2.295 7.021 0z"/>
    <path fill="#3E721D" d="M23.343 6.54C20.778 4.342 19.336 1.195 18 1.195c-1.335 0-2.778 3.148-5.343 5.345-2.038 1.747 2.671 2.138 5.343 0 2.671 2.138 7.382 1.746 5.343 0z"/>
    <path fill="#5C913B" d="M23.343 5.345C20.778 3.148 19.336 0 18 0c-1.335 0-2.778 3.148-5.343 5.345-2.038 1.747 2.671 2.138 5.343 0 2.671 2.138 7.382 1.746 5.343 0z"/>
  </g>
  <g>
    <defs/>
    <path d="M 516.9315985654152 473.76257358349204 L 500.0 500.0 L 933.720945513879 445.20830253417313" fill="none" stroke="black" stroke-width="5.026548245743669"/>
    <path d="M 489.23049609556955 438.48297727116 L 494.61524804778475 469.24148863558 A 31.226296209157436 31.226296209157436 0 0,1 530.2452646926047 492.2343359191683 L 923.4337056964657 391.280702868356" fill="none" stroke="black" stroke-width="5.026548245743669"/>
    <path d="M 408.2292175240668 481.1888953478719 L 438.8194783493779 487.4592635652479 A 62.45259241831487 62.45259241831487 0 0,1 553.281598789132 467.4209034771968 L 686.485595761962 385.97316217018886" fill="none" stroke="black" stroke-width="5.026548245743669"/>
    <path d="M 391.8923967335904 653.0218377026822 L 445.9461983667952 576.5109188513411 A 93.6788886274723 93.6788886274723 0 0,1 480.40688214666835 408.39299204065327 L 473.8758428622245 377.857322720871" fill="none" stroke="black" stroke-width="5.026548245743669"/>
    <path d="M 464.7465716268963 715.7224906218692 L 469.78277568019683 684.904991961602 A 187.3577772549446 187.3577772549446 0 0,1 335.8171282333218 590.2602975641004 L 116.90663254441756 710.607360982901" fill="none" stroke="black" stroke-width="5.026548245743669"/>
    <path d="M 580.4537179991611 736.5003595270038 L 570.3970032492659 706.9378145861283 A 218.58407346410206 218.58407346410206 0 0,1 367.3889004192048 673.7621749407286 L 310.5555720274354 748.2316784867552" fill="none" stroke="black" stroke-width="5.026548245743669"/>
    <path d="M 671.3759914297732 722.7372378650853 L 652.3342146042428 697.9886558800757 A 249.8103696732595 249.8103696732595 0 0,1 500.0 749.8103696732595 L 500.0 905.9418507190467" fill="none" stroke="black" stroke-width="5.026548245743669"/>
    <path d="M 763.6523389938934 667.3188621681762 L 737.2871050945041 650.5869759513587 A 281.03666588241697 281.03666588241697 0 0,1 584.7432228997868 767.9555816602116 L 594.1591365553187 797.7284240669017" fill="none" stroke="black" stroke-width="5.026548245743669"/>
    <path d="M 819.3682355232163 626.4468295639487 L 790.3347595665603 614.9516632399534 A 312.26296209157437 312.26296209157437 0 0,1 727.6299028704392 713.758706988507 L 818.681864018615 799.2621897839099" fill="none" stroke="black" stroke-width="5.026548245743669"/>
    <path d="M 868.0783118447952 570.2146931997818 L 837.4051191910623 564.3634687664667 A 343.4892583007318 343.4892583007318 0 0,1 790.0175728932827 684.0507483849939 L 842.7480406920614 717.5145208186291" fill="none" stroke="black" stroke-width="5.026548245743669"/>
    <path d="M 905.140817205248 525.4892997053399 L 873.9761389586904 523.5285843433907 A 374.7155545098892 374.7155545098892 0 0,1 856.3756698737819 615.7934744001877 L 886.0736423632638 625.4429306002035" fill="none" stroke="black" stroke-width="5.026548245743669"/>
    <path d="M 937.1681469282041 500.0 L 905.9418507190467 500.0 A 405.9418507190467 405.9418507190467 0 0,1 902.7408779771733 550.8780047896962 L 933.7209455138791 554.7916974658267" fill="none" stroke="black" stroke-width="5.026548245743669"/>
    <path d="M 923.4337056964657 608.7192971316438 L 893.1884410038612 600.9536330508121 A 405.9418507190467 405.9418507190467 0 0,1 877.4351874365284 649.4371622119394 L 906.4686633931844 660.9323285359346" fill="none" stroke="black" stroke-width="5.026548245743669"/>
    <path d="M 883.0933674555824 710.6073609829009 L 855.7295554944695 695.5639780555508 A 405.9418507190467 405.9418507190467 0 0,1 828.4138559597268 738.6066331409684 L 853.6764602643211 756.9609895364274" fill="none" stroke="black" stroke-width="5.026548245743669"/>
    <path d="M 641.3507618173702 813.0572355043657 L 628.5006925612456 784.5974868221507 A 312.26296209157437 312.26296209157437 0 0,1 558.5122443331516 806.7319265373293 L 581.9171420664121 929.424697152261" fill="none" stroke="black" stroke-width="5.026548245743669"/>
    <path d="M 690.7457363713994 822.5334259387488 L 674.8502583404495 795.6556404438531 A 343.4892583007318 343.4892583007318 0 0,1 606.1440182001721 826.6776973843001 L 635.0923868002191 915.7716148527456" fill="none" stroke="black" stroke-width="5.026548245743669"/>
    <path d="M 738.6066331409684 828.4138559597268 L 720.2522767455092 803.1512516551323 A 374.7155545098892 374.7155545098892 0 0,1 659.546123337634 839.0527707003532 L 686.1371438939063 895.5615658170786" fill="none" stroke="black" stroke-width="5.026548245743669"/>
    <path d="M 778.6614644060172 836.8438465279332 L 758.7570740913018 812.7835717759381 A 405.9418507190467 405.9418507190467 0 0,1 717.5145208186291 842.7480406920614 L 734.2464070354467 869.1132745914507" fill="none" stroke="black" stroke-width="5.026548245743669"/>
    <path d="M 527.4500150672892 936.3054954518054 L 525.4892997053399 905.140817205248 A 405.9418507190467 405.9418507190467 0 0,1 474.51070029466007 905.140817205248 L 472.54998493271086 936.3054954518054" fill="none" stroke="black" stroke-width="5.026548245743669"/>
    <path d="M 348.88562084875207 808.4628259316181 L 362.6232916806837 780.4207508469256 A 312.26296209157437 312.26296209157437 0 0,1 265.7680954995135 706.5032019322678 L 218.9217145994162 747.8038423187213" fill="none" stroke="black" stroke-width="5.026548245743669"/>
    <path d="M 373.069632381759 852.5626590663735 L 383.6471630166124 823.1824374775091 A 343.4892583007318 343.4892583007318 0 0,1 315.94925161500606 790.0175728932827 L 265.75359296455315 869.1132745914506" fill="none" stroke="black" stroke-width="5.026548245743669"/>
    <path d="M 399.04636694918804 893.1884410038612 L 406.81203103001974 862.9431763112564 A 374.7155545098892 374.7155545098892 0 0,1 340.453876662366 839.0527707003531 L 313.86285610609366 895.5615658170786" fill="none" stroke="black" stroke-width="5.026548245743669"/>
    <path d="M 418.08285793358783 929.424697152261 L 423.93408236690294 898.7515044985281 A 405.9418507190467 405.9418507190467 0 0,1 374.55706939979666 886.0736423632638 L 364.907613199781 915.7716148527456" fill="none" stroke="black" stroke-width="5.026548245743669"/>
    <path d="M 222.1136809149408 795.918873731571 L 243.48955161379155 773.155883444527 A 374.7155545098892 374.7155545098892 0 0,1 196.84874834486766 720.2522767455092 L 146.32353973567893 756.9609895364274" fill="none" stroke="black" stroke-width="5.026548245743669"/>
    <path d="M 221.33853559398273 836.8438465279332 L 241.24292590869823 812.7835717759381 A 405.9418507190467 405.9418507190467 0 0,1 204.08112626842905 777.8863190850593 L 181.31813598138518 799.2621897839099" fill="none" stroke="black" stroke-width="5.026548245743669"/>
    <path d="M 427.3142199576584 361.81962240177756 L 441.85137596612674 389.45569792142203 A 124.90518483662974 124.90518483662974 0 0,1 507.84286144779685 375.34128701376983 L 527.4500150672889 63.694504548194516" fill="none" stroke="black" stroke-width="5.026548245743669"/>
    <path d="M 364.1165744237172 371.00918113459295 L 386.7638120197643 392.5076509454941 A 156.13148104578718 156.13148104578718 0 0,1 475.57565528666333 345.7907565712253 L 441.38157268799193 129.89781577094067" fill="none" stroke="black" stroke-width="5.026548245743669"/>
    <path d="M 307.938717837637 395.6378369987037 L 335.3760438608317 410.5467174274603 A 187.3577772549446 187.3577772549446 0 0,1 402.1058302959209 340.2512340083267 L 320.5273555425216 207.1272623485989" fill="none" stroke="black" stroke-width="5.026548245743669"/>
    <path d="M 266.8405718250267 410.3233483597317 L 295.98550034689833 421.5329298147652 A 218.58407346410206 218.58407346410206 0 0,1 323.16176986783944 371.5195052317863 L 146.32353973567882 243.0390104635726" fill="none" stroke="black" stroke-width="5.026548245743669"/>
    <path d="M 226.47287038749494 435.46693145178097 L 256.8647736777733 442.63727240158306 A 249.8103696732595 249.8103696732595 0 0,1 281.08950431109565 379.6529365811996 L 116.90663254441745 289.3926390170993" fill="none" stroke="black" stroke-width="5.026548245743669"/>
    <path d="M 188.9016611922262 473.05596382782323 L 220.01149507300352 475.7503674450409 A 281.03666588241697 281.03666588241697 0 0,1 238.69871639009574 396.54350308404184 L 93.53133660681567 339.06767146406514" fill="none" stroke="black" stroke-width="5.026548245743669"/>
    <path d="M 157.56960444886477 526.9498565985036 L 188.69964040805888 524.4998696350033 A 312.26296209157437 312.26296209157437 0 0,1 197.547353073953 422.34335919168296 L 76.56629430353422 391.2807028683562" fill="none" stroke="black" stroke-width="5.026548245743669"/>
    <path d="M 134.30880939462673 581.7416656624899 L 164.7830752784078 574.9298601906158 A 343.4892583007318 343.4892583007318 0 0,1 157.18853928786712 478.43213101855855 L 94.85918279475197 474.51070029466007" fill="none" stroke="black" stroke-width="5.026548245743669"/>
    <path d="M 113.92635763673616 625.4429306002035 L 143.62433012621807 615.7934744001877 A 374.7155545098892 374.7155545098892 0 0,1 128.23918955953235 546.9643121135658 L 66.27905448612103 554.7916974658268" fill="none" stroke="black" stroke-width="5.026548245743669"/>
    <path d="M 93.53133660681561 660.9323285359349 L 122.5648125634716 649.4371622119395 A 405.9418507190467 405.9418507190467 0 0,1 106.81155899613884 600.9536330508121 L 76.56629430353422 608.7192971316438" fill="none" stroke="black" stroke-width="5.026548245743669"/>
    <path d="M 62.83185307179588 500.00000000000006 L 94.05814928095327 500.00000000000006 A 405.9418507190467 405.9418507190467 0 0,1 97.2591220228266 449.1219952103038 L 66.27905448612097 445.2083025341733" fill="none" stroke="black" stroke-width="5.026548245743669"/>
    <path d="M 270.3341935274025 203.91662638887482 L 289.47301073345227 228.59024085646854 A 343.4892583007318 343.4892583007318 0 0,1 353.7493869405023 189.2016268580095 L 313.8628561060939 104.43843418292118" fill="none" stroke="black" stroke-width="5.026548245743669"/>
    <path d="M 222.1136809149407 204.08112626842905 L 243.48955161379143 226.84411655547302 A 374.7155545098892 374.7155545098892 0 0,1 299.2173653981887 183.6171932073279 L 265.75359296455343 130.88672540854918" fill="none" stroke="black" stroke-width="5.026548245743669"/>
    <path d="M 181.31813598138507 200.7378102160901 L 204.08112626842893 222.1136809149408 A 405.9418507190467 405.9418507190467 0 0,1 241.24292590869828 187.21642822406193 L 221.33853559398284 163.1561534720667" fill="none" stroke="black" stroke-width="5.026548245743669"/>
    <path d="M 399.04636694918776 106.8115589961389 L 406.81203103001945 137.0568236887437 A 374.7155545098892 374.7155545098892 0 0,1 476.4714156566094 126.0238610413096 L 472.5499849327109 63.694504548194516" fill="none" stroke="black" stroke-width="5.026548245743669"/>
    <path d="M 364.9076131997809 84.22838514725436 L 374.55706939979655 113.92635763673616 A 405.9418507190467 405.9418507190467 0 0,1 423.93408236690306 101.24849550147184 L 418.0828579335879 70.57530284773895" fill="none" stroke="black" stroke-width="5.026548245743669"/>
    <path d="M 687.7095366481074 335.1656872867685 L 664.245844567094 355.76997637592245 A 218.58407346410206 218.58407346410206 0 0,1 703.2343316965921 419.53383573203246 L 906.4686633931842 339.067671464065" fill="none" stroke="black" stroke-width="5.026548245743669"/>
    <path d="M 679.9884896724377 284.1626743222107 L 659.9897685977223 308.14459939752066 A 249.8103696732595 249.8103696732595 0 0,1 710.9218711951147 366.1449102654591 L 842.7480406920615 282.48547918137103" fill="none" stroke="black" stroke-width="5.026548245743669"/>
    <path d="M 669.3844009999309 237.66989842547883 L 652.4459608999379 263.9029085829309 A 281.03666588241697 281.03666588241697 0 0,1 704.8669125833952 307.61716371034356 L 818.6818640186148 200.73781021609" fill="none" stroke="black" stroke-width="5.026548245743669"/>
    <path d="M 651.1143791512479 191.5371740683819 L 637.3767083193163 219.57924915307444 A 312.26296209157437 312.26296209157437 0 0,1 699.0439031471551 259.39725248004754 L 778.6614644060171 163.1561534720666" fill="none" stroke="black" stroke-width="5.026548245743669"/>
    <path d="M 626.9303676182412 147.4373409336265 L 616.3528369833878 176.8175625224909 A 343.4892583007318 343.4892583007318 0 0,1 684.0507483849937 209.98242710671713 L 734.2464070354464 130.88672540854907" fill="none" stroke="black" stroke-width="5.026548245743669"/>
    <path d="M 600.9536330508121 106.81155899613884 L 593.1879689699804 137.05682368874363 A 374.7155545098892 374.7155545098892 0 0,1 659.5461233376336 160.94722929964672 L 686.137143893906 104.43843418292113" fill="none" stroke="black" stroke-width="5.026548245743669"/>
    <path d="M 581.917142066412 70.57530284773895 L 576.0659176330968 101.24849550147184 A 405.9418507190467 405.9418507190467 0 0,1 625.4429306002033 113.9263576367361 L 635.092386800219 84.2283851472543" fill="none" stroke="black" stroke-width="5.026548245743669"/>
    <path d="M 853.6764602643211 243.03901046357248 L 828.4138559597268 261.3933668590316 A 405.9418507190467 405.9418507190467 0 0,1 855.7295554944695 304.4360219444492 L 883.0933674555824 289.39263901709916" fill="none" stroke="black" stroke-width="5.026548245743669"/>
  </g>
</svg>
