<?xml version='1.0' encoding='ASCII' standalone='yes'?>
<svg xmlns="http://www.w3.org/2000/svg" xmlns:xlink="http://www.w3.org/1999/xlink" version="1.1" width="1000.0px" viewBox="0 0 1000.0 1000.0" height="1000.0px">
  <g transform="translate(856.0, 436.0) scale(1 1) translate(0, 0) scale(3.5555555555555554 3.5555555555555554) ">
    <path fill="#292F33" d="M28.721 12.849s3.809 1.643 5.532.449c1.723-1.193 2.11-2.773 1.159-4.736-.951-1.961-3.623-2.732-3.712-5.292 0 0-.298 4.141 1.513 5.505 2.562 1.933-.446 4.21-3.522 3.828-3.078-.382-.97.246-.97.246z"/>
    <path fill="#8A4B38" d="M23.875 19.375s-.628 2.542.187 5.03c.145.341.049.556-.208.678-.256.122-4.294 1.542-4.729 1.771-.396.208-1.142 1.78-1.208 2.854.844.218 1.625.104 1.625.104s.025-1.915.208-2.042c.183-.127 5.686-1.048 6.062-1.771s1.611-3.888.812-5.292c-.225-.395-.637-1.15-.637-1.15l-2.112-.182z"/>
    <path fill="#292F33" d="M17.917 29.708s-.616 1.993.008 2.138c.605.141 1.694-.388 1.755-.646.081-.343.216-1.179.098-1.366-.118-.186-1.861-.126-1.861-.126z"/>
    <path fill="#8A4B38" d="M11.812 21.875l-.75-2.562s-2.766 2.105-3.938 3.594c-.344.437-1.847 3.198-1.722 4.413.05.488.474 2.583.474 2.583l1.651-.465s-1.312-1.896-1.021-2.562c1.428-3.263 5.306-5.001 5.306-5.001z"/>
    <path fill="#292F33" d="M7.679 29.424c-.172-.139-1.803.479-1.803.479s.057 2.085.695 2.022c.618-.061 1.48-.912 1.455-1.175-.034-.351-.175-1.187-.347-1.326z"/>
    <path fill="#C1694F" d="M27.188 11.188c-3.437.156-7.207.438-9.5.438-3.655 0-5.219-1.428-6.562-2.625C8.838 6.964 8.167 4.779 6 5.501c0 0-.632-.411-1.247-.778l-.261-.152c-.256-.148-.492-.276-.656-.347-.164-.072-.258-.087-.228-.01.019.051.093.143.236.286.472.472.675.95.728 1.395-2.01 1.202-2.093 2.276-2.871 3.552-.492.807-1.36 2.054-1.56 2.515-.412.948 1.024 2.052 1.706 1.407.893-.845.961-1.122 2.032-1.744.983-.016 1.975-.416 2.308-1.02 0 0 .938 2.083 1.938 3.583s2.5 3.125 2.5 3.125c-.131 1.227.12 2.176.549 2.922-.385.757-.924 1.807-1.417 2.745-.656 1.245-1.473 3.224-1.208 3.618.534.798 2.719 2.926 4.137 3.311 1.03.28 2.14.437 2.14.437l-.193-1.574s-1.343.213-1.875-.083c-1.427-.795-2.666-2.248-2.708-2.542-.07-.487 3.841-2.868 5.14-3.645 2.266.097 6.022-.369 8.626-1.702.958 1.86 2.978 2.513 2.978 2.513s.667 2.208 1.375 4.125c-1.017.533-4.468 3.254-4.975 3.854-.456.54-.856 2.49-.856 2.49.82.375 1.57.187 1.57.187s.039-1.562.385-2.073c.346-.511 4.701-2.559 5.958-3.458.492-.352.404-.903.262-1.552-.321-1.471-.97-4.781-.971-4.782 5.146-2.979 6.458-11.316-2.354-10.916z"/>
    <path fill="#292F33" d="M22.336 33.782s-.616 1.993.008 2.138c.605.141 1.694-.388 1.755-.646.081-.343.216-1.179.098-1.366-.118-.187-1.861-.126-1.861-.126zm-7.676-5.296c-.167.146.164 1.859.164 1.859s2.064.299 2.111-.34c.045-.62-.647-1.614-.91-1.634-.351-.027-1.198-.031-1.365.115z"/>
    <circle fill="#292F33" cx="4.25" cy="8.047" r=".349"/>
    <path fill="#292F33" d="M12.655 9.07c1.773 1.446 3.147.322 3.147.322-1.295-.271-2.056-.867-2.708-1.562.835-.131 1.287-.666 1.287-.666-1.061-.013-1.824-.3-2.485-.699-.565-.614-1.233-1.202-2.254-1.631-.294-.125-.606-.21-.922-.276-.086-.025-.178-.063-.258-.073-.906-.114-1.845.051-2.737.603-.322.2-.214.639.117.623 1.741-.085 2.866.582 3.47 1.633 2.169 3.772 5.344 3.875 5.344 3.875s-1.29-.688-2.001-2.149z"/>
  </g>
  <g transform="translate(830.6709007300815, 579.6484601967809) scale(1 1) translate(0, 0) scale(3.5555555555555554 3.5555555555555554) ">
    <path fill="#E1E8ED" d="M23.283 23.275s1.374 1.635 2.733 10.047c.143.883.201 1.775.217 2.678H36V7.448C31.613 3.975 25.601 3.259 18.322 5.69c0 0-5.408-3-6.147-3.739-.719-.72-1.857-1.556-1.235.35.364 1.112.764 2.373 2.358 4.862-3.436 2.036-4.513 4.68-8.558 13.341C1.652 27.12.08 29.269.937 31.797c1.13 3.337 5.316 5.595 8.844 3.021 1.919-1.4 2.246-3.913 6.225-6.223 3.653-.065 7.277-1.604 7.277-5.32z"/>
    <path fill="#292F33" d="M36 6.012C27.665.301 14.354 1.473 15.909 6.19 25.51 4.328 31.77 7.731 36 13.358V6.012z"/>
    <path fill="#292F33" d="M19.663 5.763c-2.878.233-7.28 1.765-9.42 4.137 0 0-.005-5.317 3.689-5.784 6.172-.779 5.809.363 5.809.363l-.078 1.284z"/>
    <path fill="#E1E8ED" d="M16.357 1.056c.558 1.155 4.006 1.79 5.056 6.029 1.051 4.24-3.134 2.951-4.356.855-1.361-2.334-1.828-4.162-1.867-5.679-.021-.801.039-3.538 1.167-1.205z"/>
    <path fill="#66757F" d="M16.596 2.838c1.103.968 2.448 2.472 2.65 3.955.202 1.483-1.125.988-1.736-.372-.612-1.359-.753-2.779-1.134-3.233-.38-.454.22-.35.22-.35z"/>
    <path fill="#292F33" d="M16.94 15.525c0 .687-.557 1.244-1.245 1.244-.687 0-1.244-.557-1.244-1.244 0-.688.557-1.245 1.244-1.245.688.001 1.245.558 1.245 1.245z"/>
    <path fill="#E1E8ED" d="M10.354 9.924c-.033-.017-.075-.014-.111-.024-1.543 2.033-2.92 5.102-5.49 10.604-1.356 2.903-2.42 4.946-3.116 6.538 1.628.226 3.285-1.442 3.945-3.271.673-1.866 3.215-5.652 4.927-7.778 1.712-2.127 1.561-5.144-.155-6.069z"/>
    <path fill="#292F33" d="M28.188 6.312s-2.296 6.947-2.302 8.947c-.011 3.803-2.687 7.801-2.687 7.801l1.342 3.422s3.25-3.04 3.938-10.228c.571-5.973 2.566-7.667 2.566-7.667l-2.857-2.275zm5.874 3.126S31.056 13.073 30 19c-1.438 8.062-4.857 9.746-4.857 9.746l.482 2.441s5.281-3.056 6.632-9.115C33.875 14.812 36 13.358 36 13.358l-1.938-3.92zm-30.812 14c.688-.714 3.017 3.808 4.53 4.884 1.589 1.13 5.469.935 5.701 2.162-1.668 1.704-2.763 4.273-4.84 4.988-2.078.716-5.71.677-7.238-2.647-1.528-3.325-.403-4.7.222-6.137s1.458-2.938 1.625-3.25z"/>
    <path fill="#66757F" d="M4.222 29.917c0 .881-.532 1.594-1.187 1.594s-1.187-.713-1.187-1.594c0-.882.532-1.596 1.187-1.596s1.187.714 1.187 1.596z"/>
    <path fill="#292F33" d="M25.954 32.945s4.608-1.57 6.108-3.383S36 24 36 24v6.375S34.812 32 32.312 33.313c-1.586.832-6.092 2.251-6.092 2.251l-.266-2.619zM25.01 6.08S24.063 9 23.813 12s-1.125 4.875-1.938 6.188c.312-4.25-.688-5.875-.125-8.125s.87-4.32.87-4.32.63-.368 1.255-.305 1.135.642 1.135.642zM4.753 20.504s3.934-.379 5.747.871 5.332 7.323 5.332 7.323l-1.134.753s-1.697-4.639-4.76-6.076-6-1.188-6-1.188l.815-1.683z"/>
    <path fill="#292F33" d="M5.605 18.678s5.516-.358 6.958 1.509c2.75 3.562 3.831 5.01 4.447 8.349l1.785-.307c-.794-2.917-2.607-8.104-5.919-10.292s-6.25-1.688-6.25-1.688l-1.021 2.429zm12.27-5.99c-.625.688 2 3.312 1.125 5.5s-.375 5.25.125 6.625 1.26 2.839 1.26 2.839l1.622-1.146S21.75 25 21 22.813s-.688-2.25-.375-4.438S18.5 12 17.875 12.688zm-2.83-5.859s1.142 2.046 1.08 3.046-.062 2.688-.625 3.062-.812-2-1.188-3.062-1.064-2.258-1.064-2.258 1.469-1.428 1.797-.788zm-3.544 1.79s1.793 1.398 1.73 2.398 1.144 2.607.581 2.982-1.938-1.25-2.312-2.312S10.243 9.9 10.243 9.9s.929-1.921 1.258-1.281zm-2.563 3.193s1.522.981 1.938 1.75c.415.768 2.11 1.387 1.938 1.875-.173.488-1.977-.098-2.688-.75-.711-.652-2.345-.579-2.345-.579l1.157-2.296z"/>
  </g>
  <g transform="translate(757.7386661099708, 705.9707960683465) scale(1 1) translate(0, 0) scale(3.5555555555555554 3.5555555555555554) ">
    <path fill="#66757F" d="M27.295 7.526c-1.152-3.054-2.65-6.8-8.299-6.915-1.759-.036-1.52.539-.347 1.02 2.248.922-2.474 5.438 4.759 7.4 5.648 1.531 5.039 1.549 3.887-1.505z"/>
    <path fill="#99AAB5" d="M36.004 3.903c-7.737 0-14.411 2.514-18.105 5.757-4.875 4.28-5.38 10.306-14.034 15.66-2.847 1.761-.423 7.517 1.153 9.618 1.908 2.544 28.617.238 30.987-8.777l-.001-22.258z"/>
    <path fill="#66757F" d="M8.676 29.652c1.011.507 1.787 1.051 1.318 1.986-.469.936-1.173.25-2.185-.257-1.012-.508-2.285-.018-1.816-.954.47-.935 1.672-1.281 2.683-.775zM34.202 6.326c.238-2.563-2.178-4.999-5.95-5.906-1.685-.406-3.281-.35-2.345.478 1.793 1.585-.082 4.006 1.274 7.124.728 1.674 3.238 3.753 4.719 3.82 1.056.048 2.054-2.847 2.302-5.516z"/>
    <path fill="#99AAB5" d="M33.247 6.326c.238-2.563-2.272-5.445-6.17-6.007-1.715-.247-2.287.087-1.351.914 1.793 1.585-.638 3.627.718 6.745.728 1.674 3.393 3.84 4.875 3.907 1.055.049 1.68-2.89 1.928-5.559z"/>
    <path fill="#CCD6DD" d="M2.639 26.898C.087 22.915-.988 14.927 1.147 9.301c.321-.845 1.083-1.071 1.179.13.181 2.282 2.417 6.833 7.966 10.968 1.241.924-5.713 9.527-7.653 6.499z"/>
    <path fill="#CCD6DD" d="M13.248 15.387c-2.048-.852-3.609-3.189-4.092-4.661-.577-1.758-2.152 3.927.852 8.892 1.207 1.993 4.653-3.644 3.24-4.231z"/>
    <circle fill="#292F33" cx="16.789" cy="21.006" r="2"/>
    <path fill="#E6AAAA" d="M30.293 9.41c1.331.105 1.954-1.737 1.216-4.69-.644-2.576-4.252-3.248-4.227-3.069.025.179 1.057 1.549.014 2.939-1.014 1.352 1.347 4.69 2.997 4.82z"/>
  </g>
  <g transform="translate(646.0, 799.7306695894642) scale(1 1) translate(0, 0) scale(3.5555555555555554 3.5555555555555554) ">
    <path fill="#662113" d="M15.971 15.083c-1.458-2.333-.667-7.708 0-8.958s-.542-2.458-1.5-.458-.996 3-3.162 2.458-1.088-3.292-.379-5.625c.729-2.4-.917-1.959-1.667-.458-.75 1.5-1.254 5.693-2.901 5.984-1.647.291-6.099.599-2.851-5.651C4.818-.139 2.773-.656 1.68 1.459.361 4.007-.404 7.25.221 8.625c1.113 2.448 3.483 2.95 6.983 2.284s6.101-.634 6.101 1.133c0 1.872.208 3.458 1.042 3.625s1.624-.584 1.624-.584zm4.057 0c1.458-2.333.667-7.708 0-8.958s.542-2.458 1.5-.458.996 3 3.162 2.458 1.088-3.292.379-5.625c-.729-2.4.917-1.959 1.667-.458s1.254 5.693 2.901 5.984c1.647.292 6.099.599 2.851-5.651-1.307-2.514.737-3.031 1.831-.916 1.318 2.549 2.084 5.792 1.459 7.167-1.113 2.448-3.482 2.95-6.982 2.284s-6.102-.634-6.102 1.133c0 1.872-.208 3.458-1.041 3.625s-1.625-.585-1.625-.585z"/>
    <path fill="#C1694F" d="M13.859 15.495c.596 2.392.16 4.422-2.231 5.017-2.392.596-6.344.559-7.958-1.303-2.294-2.646-2.531-6.391-1.189-6.725 1.34-.334 10.783.62 11.378 3.011zm8.283 0c-.596 2.392-.16 4.422 2.231 5.017 2.392.596 6.345.559 7.958-1.303 2.295-2.646 2.531-6.391 1.189-6.725-1.34-.334-10.783.62-11.378 3.011z"/>
    <path fill="#272B2B" d="M2.48 12.484c-.943.235-1.102 2.157-.317 4.198l3.374-4.134c-1.457-.146-2.643-.167-3.057-.064zm31.041 0c-.419-.104-1.632-.083-3.118.069l3.445 4.106c.774-2.032.613-3.941-.327-4.175z"/>
    <path fill="#E6AAAA" d="M12.052 15.997c.871 1.393-.553 2.229-1.946 3.099-1.394.871-4.608-.203-5.479-1.596-.871-1.394-1.186-3.131-.676-3.45.51-.318 7.23.553 8.101 1.947zm11.896 0c-.871 1.393.553 2.229 1.945 3.099 1.394.871 4.608-.203 5.479-1.596.871-1.394 1.185-3.131.676-3.45-.51-.318-7.229.553-8.1 1.947z"/>
    <path fill="#C1694F" d="M18 14.125h-.002c-10.271.001-8.703 3.959-7.603 10.541 1.1 6.584 2.401 11.256 7.605 11.256 5.203 0 6.502-4.672 7.604-11.256 1.099-6.582 2.666-10.54-7.604-10.541z"/>
    <path fill="#272B2B" d="M11.826 22.851s-.75-1.299.549-2.049 2.049.549 2.049.549l.75 1.299s.75 1.299-.549 2.049-2.049-.549-2.049-.549l-.75-1.299zm9.75-1.5s.75-1.299 2.049-.549.549 2.049.549 2.049l-.75 1.299s-.75 1.299-2.049.549-.549-2.049-.549-2.049l.75-1.299zm-6.35 12.915c-.925-.188 1.85-3.596 2.774-3.596s3.699 3.407 2.774 3.596c-.924.188-4.624.188-5.548 0z"/>
  </g>
  <g transform="translate(508.93223462011076, 849.6192562651274) scale(1 1) translate(0, 0) scale(3.5555555555555554 3.5555555555555554) ">
    <path fill="#C1694F" d="M33.912 14.37C33.883 13.35 32.276 12.308 30 11S17.039 5.534 10.763 7.791C8.701 8.533 9.129 11 8.565 11c-1 0-2.732-.344-4.958-.127C1.351 11.094.691 12.561.691 15s.558 7.98 1.87 9.525c1.653 1.947 5.849 1.954 6.752-.673.686.122 1.12.178 1.815 1.067C13.248 29.325 14.048 36 15 36c.964 0 2.529-4.409 2.913-7l9.124-1.448C27.184 30.032 27.808 36 29 36c1.016 0 3.24-4.883 4.347-12.238.315-1.625.532-3.697.615-6.319.023.17.038.352.038.557v8c0 .553.447 1 1 1s1-.447 1-1v-8c0-1.807-.749-3.053-2.088-3.63z"/>
    <path fill="#662113" d="M1.063 19.629s-1.925-6.816.083-9.086 7.727 0 7.727 0-.187-2.972 1.588-3.592S19.279 5.259 27.359 9.8c-3.398.867-4.306 2.56-3.935 6.358S22.48 28.417 18 29.529s-7.978.4-8.687-5.677 1.033-8.39-1.325-10.106c-6.316-.909-6.925 5.883-6.925 5.883z"/>
    <circle fill="#292F33" cx="7" cy="18" r="1"/>
    <path fill="#D99E82" d="M3.69 22.213c0 1.094.296 1.789-.798 1.789S.91 22.956.718 21.828c-.184-1.079.612-.978 1.706-.978s1.266.268 1.266 1.363z"/>
    <path fill="#99AAB5" d="M7.474 13.216c1.739-.554 2.791-2.421 2.329-4.073-.218-.78-1.275-2.379-1.854-2.194s1.597 3.135-1.793 4.133c-1.168.344.158 2.504 1.318 2.134z"/>
  </g>
  <g transform="translate(363.06776537988924, 849.6192562651274) scale(1 1) translate(0, 0) scale(3.5555555555555554 3.5555555555555554) ">
    <path fill="#CCD6DD" d="M34 15c0-2-2.127-4.702-4-4-8 3-19-2-19-2-2.209 0-6.857 9.257-5 10 .277.111.541.227.799.343C4.648 20.087 4.283 21.809 6 22c9 1 6.896 14 8 14 1.344 0 2.685-2.614 3.422-5h9.8c.288 2.354.866 5 1.778 5 .866 0 2.611-3.542 3.794-9.142C33.528 24.232 34 20.326 34 15z"/>
    <path fill="#31373D" d="M10 22c-2 0-4.946.087-6.973.087S-.617 18.609.692 17.305C2 16 6 15 5 11c-.542-2.169 4-3 6-2 4.816 2.408 5 10-2 10 0 0 3 3 1 3zm20-11c-2.586.97-5.485 1.101-8.226.838C20.669 13.231 20 15.031 20 17c0 4.418 3.357 8 7.5 8 2.587 0 4.866-1.396 6.215-3.521.181-1.872.285-4.017.285-6.479 0-2-2.127-4.702-4-4z"/>
    <circle fill="#31373D" cx="17.5" cy="24.5" r="3.5"/>
    <circle fill="#31373D" cx="30" cy="28" r="2"/>
    <path fill="#CCD6DD" d="M11 9c0 .552-.671 1-1.5 1S5 7.552 5 7s2.23-.308 3 0c2.5 1 3 1.448 3 2z"/>
    <circle fill="#CCD6DD" cx="8" cy="13" r="1"/>
    <path fill="#31373D" d="M35 24c-.553 0-1-.447-1-1v-5c0-1.44-.561-2-2-2-.553 0-1-.448-1-1s.447-1 1-1c2.542 0 4 1.458 4 4v5c0 .553-.447 1-1 1z"/>
  </g>
  <g transform="translate(226.0000000000001, 799.7306695894642) scale(1 1) translate(0, 0) scale(3.5555555555555554 3.5555555555555554) ">
    <path fill="#31373D" d="M33.912 14.37C33.588 12.602 31.976 11 30 11H11c-.239 0-.521.135-.83.365C9.664 11.139 9.129 11 8.565 11c-1 0-4.731.375-5.565 2L.691 17.305C.016 19.27 1 22.087 3.027 22.087c.57 0 1.536-.007 2.665-.017 1.65.286 3.603 1.504 5.436 2.848C13.248 29.325 14.048 36 15 36c.964 0 2.529-4.409 2.913-7h9.124c.147 2.479.771 7 1.964 7 1.016 0 3.24-4.883 4.347-12.238.315-1.625.532-3.697.615-6.319.022.17.037.352.037.557v12c0 .553.447 1 1 1s1-.447 1-1V18c0-1.807-.749-3.053-2.088-3.63z"/>
    <circle fill="#FFF" cx="6" cy="16" r="1"/>
    <path fill="#99AAB5" d="M10 15c3 0 6.708-1.625 6.708-5.625 0-2-1.552-4.101-4.458-4.167C8.128 5.116 6.375 8 7 8.375 7.528 8.692 9 6.5 11.5 7c1.861.372 2.054 1.567 1.667 2.333C12.716 10.226 11 11 9 11s-1 4 1 4z"/>
  </g>
  <g transform="translate(114.26133389002928, 705.9707960683465) scale(1 1) translate(0, 0) scale(3.5555555555555554 3.5555555555555554) ">
    <path fill="#FFAC33" d="M11.983 3.562c4.543-.262 7.824 1.597 8.089 6.826.215 4.19-5.184 6.79-8.046 6.879-2.462.077-1.353-1.852.61-2.334 1.576-.387 4.124-2.413 3.602-4.44-.597-2.32-4.315-2.684-6.351.292-.798 1.167-3.554.873-4.096-.434-.958-2.309 1.211-6.502 6.192-6.789z"/>
    <path fill="#E1E8ED" d="M35.75 21.384c0-7.783-4.495-11.407-14.519-11.407-1.087 0-2.083.051-3.018.137-1.36-2.423-4.845-2.828-8.213-2.828-4.304 0-10 6.145-10 10.839 0 4.608 3.606 4.866 7.811 4.874.233 3.245 1.226 5.647 3.249 7.26C11.337 31.409 12.594 36 15 36c1.353 0 2.099-1.695 2.51-3.417 1.128.136 2.359.209 3.722.209 1.733 0 3.288-.116 4.695-.335C26.017 34.114 26.458 36 28 36c2.317 0 4.273-4.956 4.834-6.521 1.969-1.87 2.916-4.545 2.916-8.095z"/>
    <circle fill="#292F33" cx="4.5" cy="15.786" r="1.5"/>
    <path fill="#FFCC4D" d="M17.562 4.339c4.312 1.455 5.74 4.148 4.034 9.099-1.367 3.967-7.345 4.361-10.034 3.375C9.25 15.964 11 14.589 13 14.875c1.606.23 4.727-.698 5-2.773C18.312 9.727 15 8 12 10c-1.177.785-5.774.43-5.5-.958.638-3.226 6.335-6.298 11.062-4.703z"/>
  </g>
  <g transform="translate(41.329099269918515, 579.6484601967809) scale(1 1) translate(0, 0) scale(3.5555555555555554 3.5555555555555554) ">
    <path fill="#FFAC33" d="M7.44 7.503c-1-4 3.687-6 8-4 .907.421.948 1.316 0 1-3-1-6 1-4 4 1.109 1.664-3.233 2.068-4-1z"/>
    <path fill="#FFCC4D" d="M6.136 5.785c-1-4 3.687-6 8-4 .907.421.949 1.316 0 1-3-1-6 1-4 4 1.11 1.664-3.233 2.067-4-1z"/>
    <path fill="#E1E8ED" d="M5 14.785c0 4-2 4.827-2 4 0-2-1 0-1-1v-3c0-1.657.671-3 1.5-3s1.5 1.343 1.5 3z"/>
    <path fill="#CCD6DD" d="M35.159 10.49c-.68-1.643-2.313-2.705-4.159-2.705-.553 0-1 .448-1 1s.447 1 1 1c1.034 0 1.941.577 2.312 1.471.341.824.168 1.758-.455 2.647-.984-1.506-2.602-2.618-4.856-2.618-2.391 0-7.279.714-10.828 1.289-.052-.094-.105-.188-.172-.289-2-3-4-8.157-7-8.157-4 0-10 4.986-10 9.157 0 2.544 5.738 2.929 7.486 2.988.697 1.43 1.414 2.934 2.232 4.33.066.205.155.429.282.683 3 6 3.119 14.5 4.5 14.5s2.5-4.857 2.5-9c0-.151-.004-.299-.007-.447 3.126.649 6.607.322 9.677-.61 1.448 5.045 1.77 10.058 2.83 10.058 1.342 0 2.433-8.818 2.494-13.12C33.316 21.226 34 19.51 34 17.785c0-.605-.086-1.23-.248-1.843 1.614-1.644 2.143-3.676 1.407-5.452z"/>
    <circle fill="#292F33" cx="7" cy="9.285" r="1"/>
  </g>
  <g transform="translate(16.0, 436.00000000000006) scale(1 1) translate(0, 0) scale(3.5555555555555554 3.5555555555555554) ">
    <path d="M22.217 35.615h-.002c-.804-.142-1.34-.908-1.198-1.712l.59-3.344s.68-3.165-1.076-5.449c1.259-1.171 5.024.085 5.024.085l-1.626 9.221c-.142.804-.908 1.34-1.712 1.199zm-12.692-.021h-.002c-.804-.142-1.34-.908-1.198-1.712l1.312-7.025s.503-2.419.503-4.439c1.142-.439 2.723 2.757 2.723 2.757l-1.626 9.221c-.143.803-.909 1.339-1.712 1.198zm21.277-9.823c-.537 0-.977-.431-.985-.969-.012-.723-.304-4.326-4.925-4.326-.545 0-.985-.441-.985-.985s.441-.985.985-.985c5.363 0 6.858 3.938 6.896 6.264.009.545-.425.993-.969 1.002l-.017-.001z" fill="#F4900C"/>
    <g fill="#754C29">
      <path d="M15.226 17.252l-3.46-11.98 1.687-1.02c.369.61.628 1.722 1.054 3.633.569 2.558 1.349 6.06 2.657 7.876.318.442.218 1.058-.224 1.376-.175.126-1.714.115-1.714.115zM7.615 2.71V.739c0-.408.331-.739.739-.739s.739.331.739.739V2.71H7.615zm2.332 0V.739c0-.408.331-.739.739-.739s.739.331.739.739V2.71H9.947z"/>
      <ellipse cx="30.802" cy="26.263" rx="1.971" ry="2.464"/>
    </g>
    <path fill="#FFCC4D" d="M28.935 34.094s-.647-2.515-.998-4.154c-.332-1.549-1.025-3.981-1.171-8.225-.01-.145-.039-.512-.138-.779-.122-.33-.567-.933-.766-1.203-.777-1.052-2.012-1.691-3.526-1.847-1.283-.132-2.573-.185-3.854-.339-.59-.071-1.1-.156-1.422-.272-1.636-.589-1.962-2.502-2.414-3.965-.8-2.59-1.508-5.225-1.961-7.9l-.036.009.036-.009-.027-.165V4.84c1.567-.714 2.79-2.888 1.971-3.706-1.416-.708-2.827.11-3.513.992-.02-.001-.039-.006-.059-.006H8.459c-.655 0-1.304.16-1.872.51-.584.359-.986.907-1.633 1.19-.786.344-1.721.093-2.417.64-1.189.933-.625 2.525.854 2.578.201.577.745.993 1.39.993h2.106c.055.011.108.021.173.029.604.071 1.088.525 1.477 1.215 1.047 1.856 1.244 4.244 1.415 6.324.119 1.448.177 2.906.158 4.36-.293 1.566-.12 3.377-.12 3.377.044.419.186.777.394 1.095l-.01.011c1.99 2.81 2.449 5.97 2.449 5.97l.784 4.193c.142.804.908 1.341 1.713 1.199.804-.142 1.341-.908 1.199-1.712l-1.262-7.159c1.977.534 4.609.932 6.449.852 0 .006-.003.014-.002.02 2.371-.146 3.26 1.73 3.454 2.576.194.846.868 4.228.868 4.228.142.804.909 1.341 1.712 1.199.802-.143 1.339-.91 1.197-1.714z"/>
    <path fill="#F4900C" d="M11.975 22.1c-.985.985-1.16 2.408-.391 3.178.77.77 2.193.595 3.178-.391s1.16-2.408.391-3.178c-.77-.77-2.193-.595-3.178.391zm1.088-6.185c0 1.633 1.324 2.956 2.956 2.956 1.029 0 1.933-.526 2.462-1.323-.59-.071-1.1-.156-1.422-.272-1.564-.563-1.872-2.237-2.253-3.441-.057-.179-.108-.349-.162-.523-.935.496-1.581 1.469-1.581 2.603zm-.986-4.434c0-1.361-1.103-2.464-2.464-2.464-.388 0-.75.098-1.077.257.635 1.126 1.015 2.885 1.242 4.653 1.282-.086 2.299-1.142 2.299-2.446zm-1.093-4.079c0 1.118.906 2.023 2.023 2.023.182 0 .355-.032.523-.077-.449-1.787-.709-3.122-.847-3.937-.961.156-1.699.985-1.699 1.991zm8.977 12.456c0 1.633 1.324 2.956 2.956 2.956 1.633 0 2.956-1.324 2.956-2.956 0-.043-.011-.082-.013-.124-.777-1.052-2.012-1.691-3.526-1.847-.457-.047-.972-.088-1.499-.128-.538.536-.874 1.277-.874 2.099zM11.598 2.613c.505-.483 1.317-1.089 1.778-.856.461.233.258 1.273-1.166 2.151.113-.439.551-1.215-.612-1.295z"/>
    <circle fill="#292F33" cx="8.772" cy="4.09" r=".985"/>
    <path d="M21.047 33.545s-1.142 1.351-.985 1.781 2.741.491 3.249.022-1.951-1.842-2.264-1.803zm-12.623 0s-1.142 1.351-.985 1.781c.156.43 2.741.491 3.249.022s-1.951-1.842-2.264-1.803zm4.547 2.22c.136.391 2.766.329 3.205-.461.439-.79-2.678-1.317-2.678-1.317s-.703 1.273-.527 1.778zm12.404 0c.136.391 2.766.329 3.205-.461.439-.79-2.678-1.317-2.678-1.317s-.703 1.273-.527 1.778z" fill="#754C29"/>
  </g>
  <g transform="translate(41.32909926991846, 292.35153980321917) scale(1 1) translate(0, 0) scale(3.5555555555555554 3.5555555555555554) ">
    <path fill="#99AAB5" d="M13 15.689c1.945-.886 7.032-.006 8.304-.048 3.861-.127 6.58-1.305 10.332 0C35.388 16.946 36 20.327 36 24c0 .816-.465-.9-1.008-1.662 0 0 .451 3.643-.854 6.253-.664 1.328-1.631 2.557-1.631 3.753-.001 1.197.493 1.78.493 2.656 0 .892-1 .98-2 .98-.926 0-3 .02-3-.98 0-1.423.385-2.394-.312-2.083-1.729.771-6.146.5-7.771-.167-.766-.314-.43 1.598-.428 1.932C19.499 35.795 19 36 17 36c-1.741 0-3-.012-3-1s.919-2.179.281-3.781C13 28 11 31 7.999 31 5.031 31 13 15.689 13 15.689z"/>
    <path fill="#9AAAB4" d="M3.29 20s3.045-.326 3.915-1.305c.87-.979 2.556-3.535 5.275-3.535s3.045 1.577 4.024 2.066c.978.49 2.91 3.653 1.496 5.774s-6 8-10 8c-4.84 0-5.485-.764-6.281-1.375-.792-.607-1.051-2.042-.344-2.531 0 0-1.312-1-1.131-3.287.185-2.331.707-2.61.707-2.61s.109-.924.653-1.359C2.148 19.402 3.29 20 3.29 20z"/>
    <path fill="#F5F8FA" d="M2.691 29.65c.629.132.992-.253.777-1.4-.657.047-1.663-.816-1.663-.816-.327 1.268.012 2.032.886 2.216z"/>
    <path fill="#67757F" d="M4.601 28.918c-1.148 0-2.333-.432-3.327-1.279-.157-.135-.176-.371-.042-.528.135-.157.372-.177.529-.042 1.306 1.115 3.371 1.657 5.039.354.497-.388.958-1.104 1.446-1.861.912-1.416 1.945-3.033 3.602-2.862.207.02.357.203.337.409-.02.205-.205.353-.409.337-1.212-.127-2.066 1.226-2.9 2.522-.523.812-1.017 1.58-1.614 2.047-.774.604-1.705.903-2.661.903z"/>
    <path fill="#66757F" d="M1.813 20.74c.611-.543 1.694.891 1.318 1.374-.535.687-2.308-.494-1.318-1.374z"/>
    <circle fill="#292F33" cx="10" cy="18.5" r="1"/>
    <path fill="#9AAAB4" d="M8.238 14.889c.095-1.09 1.794-.653 2.175.979s-.42 1.168-.653.598c-.489-1.197-1.631-.327-1.522-1.577zm4.062.598c.258-.84 1.142-1.958 2.338-2.066 1.196-.109 1.523.979 1.088 1.468-.435.489-.979.163-1.305.109s-1.088.489-1.414.979c-.326.489-.924.217-.707-.49z"/>
  </g>
  <g transform="translate(114.2613338900291, 166.02920393165363) scale(1 1) translate(0, 0) scale(3.5555555555555554 3.5555555555555554) ">
    <path fill="#3B88C3" d="M36 7.001c-2 3-2-1-5 2-3-2-3 3-6 0 .899 2.699 3.419 4.574 6.1 4.926-.277 1.789.202 3.946-2.1 6.073-2.008 1.857-3.023.312-8-2.999-3-1.996-5-4-10-3C5.117 15.178 0 20 0 22s3 13.969 21 13.969c2 0 5.243-.664 8-2.969 5.955-4.978 5.882-15.349 4.58-19.456C35.36 12.417 36 9.394 36 7.001z"/>
    <path fill="#55ACEE" d="M30.214 31.812c.149-.165.289-.338.429-.511 1.879-2.351 2.902-5.349 3.355-8.29C31.999 28.008 30.992 33 20 33 9 33 5 20 0 22c0 2 3 13.969 21 13.969 2 0 5.243-.664 8-2.969.318-.266.612-.554.899-.849.107-.111.212-.223.315-.339z"/>
    <circle fill="#292F33" cx="6.5" cy="21.5" r="1.5"/>
  </g>
  <g transform="translate(225.99999999999977, 72.26933041053587) scale(1 1) translate(0, 0) scale(3.5555555555555554 3.5555555555555554) ">
    <path fill="#4292E0" d="M30.584 7.854c.27-1.729 1.028-3.908 2.975-5.854.704-.704.25-2-1-2 0 0-6.061.007-9.893 3.327C21.663 3.115 20.625 3 19.559 3c-8 0-12 4-14 12-.444 1.778-.865 1.399-3 3-1.195.896-2.117 3 1 3 3 0 5 .954 9 1 3.629.042 9.504-3.229 11.087-1.292 2.211 2.706 1.396 5.438.597 6.666-2.904 3.396-5.939.541-8.685-.374-3-1-1 1 0 2s1.312 4 0 6 3 0 5-3c.011-.017.022-.028.032-.045C28.392 31.5 34.559 25.936 34.559 18c0-3.918-1.515-7.474-3.975-10.146z"/>
    <circle fill="#1F2326" cx="13.117" cy="14" r="2"/>
    <path fill="#77BCF7" d="M10.396 21.896s4-.876 7.167-2.688c4.625-2.646 7.26-2.594 8.885-.823s1.99 6.594-2.885 9.677c2.604-2.75 1.146-8.349-2.014-7.588-8.153 1.964-8.903 1.547-11.153 1.422z"/>
    <path fill="#4292E0" d="M19.383 17.744l-2.922 1.285c-.254.064-.433.3-.412.561.122 1.504.756 3.625 2.263 4.629 2.354 1.569 2.367 1.897 3 0 .768-2.303-.182-4.462-1.333-6.24-.127-.196-.37-.293-.596-.235z"/>
  </g>
  <g transform="translate(363.06776537988924, 22.380743734872624) scale(1 1) translate(0, 0) scale(3.5555555555555554 3.5555555555555554) ">
    <path fill="#F4ABBA" d="M33.738 20.368c-.799-5.543-5.186-9.78-12.562-9.78-.293 0-.621.012-.964.03-1.479.058-2.961.248-4.399.56-.749.144-1.507.317-2.253.514-.775-1.051-2.342-2.163-2.736-2.163-.512 0-.038 1.871-.006 3.052-.88.349-1.685.742-2.347 1.183-3.177 2.118-3.177 3.177-6.838 3.177-1.632 0-1.588 1.658-1.588 3.705 0 2.046-.044 2.618 1.588 3.707 2.183 1.456 4.731 3.612 7.952 5.386C11.608 32.886 9.91 36 11.648 36c1.226 0 2.807-1.964 3.647-3.944 1.788.474 3.732.769 5.881.769 1.142 0 2.204-.089 3.201-.245.272 1.944-.16 3.42 1.035 3.42 1.555 0 6.998-4.994 8.218-11.29.06-.287.103-.582.142-.882.012-.09.028-.18.038-.271.021-.199.03-.404.041-.608 1.046.275 2.149.693 2.149-.175 0-.705-1.119-1.715-2.262-2.406z"/>
    <path fill="#292F33" d="M10.588 16.941c0 .584-.474 1.059-1.059 1.059-.584 0-1.059-.474-1.059-1.059s.474-1.059 1.059-1.059 1.059.474 1.059 1.059z"/>
  </g>
  <g transform="translate(508.93223462011065, 22.380743734872567) scale(1 1) translate(0, 0) scale(3.5555555555555554 3.5555555555555554) ">
    <path fill="#C1694F" d="M33.359 13.254c1.434-3.462 2.06-11.534 1.262-12.004-.704-.416-5.641 1.084-8.34 3.205C23.883 2.909 21.085 2 18 2c-3.085 0-5.883.91-8.281 2.455C7.02 2.334 2.082.834 1.378 1.25c-.797.47-.171 8.543 1.263 12.004C1.59 15.818 1 18.623 1 21.479 1 31.468 2 36 18 36s17-4.532 17-14.521c0-2.856-.59-5.662-1.641-8.225z"/>
    <path fill="#662113" d="M32.878 12.157c.929-3.252 1.081-7.708.524-8.037-.411-.243-2.78.633-5.009 1.972 1.851 1.663 3.373 3.736 4.485 6.065zM7.607 6.092c-2.23-1.339-4.599-2.215-5.01-1.972-.557.329-.405 4.786.525 8.038 1.112-2.33 2.634-4.402 4.485-6.066z"/>
    <path fill="#E1E8ED" d="M7.65 29s-3.641-3-4.641-11.5c-.234-1.986 1.696-1.977 2 0C6.01 24 11.359 28 14 30c2.255 1.708-6.35-1-6.35-1zm20.7 0s3.641-3 4.641-11.5c.234-1.986-1.695-1.977-2 0C29.99 24 24.641 28 22 30c-2.255 1.708 6.35-1 6.35-1z"/>
    <path d="M29 29c0 1.104-3.82 3-11 3S7 30.104 7 29s3.82 1 11 1 11-2.104 11-1z"/>
    <path fill="#662113" d="M28 23.125c0 4.487-3.097 9.375-10 9.375-6.904 0-10-4.888-10-9.375S11.096 17.5 18 17.5c6.903 0 10 1.138 10 5.625z"/>
    <path fill="#C1694F" d="M15 24.6c0 1.857-.34 2.4-1.5 2.4s-1.5-.543-1.5-2.4c0-1.856.34-2.399 1.5-2.399s1.5.542 1.5 2.399zm9 0c0 1.857-.34 2.4-1.5 2.4s-1.5-.543-1.5-2.4c0-1.856.34-2.399 1.5-2.399s1.5.542 1.5 2.399z"/>
    <path fill="#292F33" d="M13 15.002c0 1.104-.896 2-2 2s-2-.896-2-2S9.896 13 11 13s2 .898 2 2.002zm14 0c0 1.104-.896 2-2 2s-2-.896-2-2S23.896 13 25 13s2 .898 2 2.002z"/>
  </g>
  <g transform="translate(645.9999999999998, 72.26933041053559) scale(1 1) translate(0, 0) scale(3.5555555555555554 3.5555555555555554) ">
    <path fill="#C1694F" d="M31.595 15.007c-1.75-3.623-5.934-9.053-9.531-9.053-4.071 0-8.228 7.259-10.071 10.378-.176.299-.321.578-.464.857-3.371-1.182-.536-6.631-.536-10.463 0-.957-.138-1.637-.44-2.119.489-.606.586-1.347.192-1.699-.413-.367-1.195-.163-1.745.456-.08.089-.129.186-.189.28-.424-.067-.903-.102-1.472-.102-.565 0-2.916.266-4.229.791C-.007 5.582.993 9 1.993 9h4c1 0 .756 2.31 0 4.726-.83 2.654-1.439 5.145-1 6.606.808 2.687 3.712 3.589 6.164 3.86 1.059 2.659 1.517 6.455 1.473 7.962-.059 2 1.94 2.059 1.999.059.036-1.211-.102-3.68.143-5.781.658 2.833.935 6.097.899 7.314-.059 1.998 1.94 2.057 1.999.059.047-1.602-.182-6.36.559-8.982.507.017 1.044.03 1.619.035 1.774.09 3.726.085 5.506-.015 1.05 1.592 1.996 2.991 1.982 3.435-.029 1-1.117 3.969-1.146 4.969-.029 1 .94 2.029 1.999.059.648-1.205 1.324-3.419 1.536-5.421.171.364.274.656.269.843-.029 1-.97 3.93-.999 4.93-.029.998.941 2.027 1.999.059 1.059-1.971 1.998-4.898 1.058-6.928-.797-1.72.431-4.165.824-7.914 1.082 1.665 1.117 3.351 1.118 3.459 0 .553.447 1 1 1 .553 0 1-.447 1-1-.001-.215-.067-4.85-4.399-7.327z"/>
    <path fill="#292F33" d="M8.28 5.571c-.016.552-.477.986-1.029.97-.552-.016-.986-.477-.97-1.029.016-.552.477-.986 1.029-.97.552.016.986.477.97 1.029z"/>
  </g>
  <g transform="translate(757.7386661099706, 166.0292039316534) scale(1 1) translate(0, 0) scale(3.5555555555555554 3.5555555555555554) ">
    <path fill="#C1694F" d="M35.779 21.787c-.04-.159-.943-3.684-3.443-7.198-.104-.262-.224-.527-.362-.797C30.067 10.078 29.531 3 26.602 3s-1.859 4.279-4.722 4.279S19.804 3 16.645 3c-3.16 0-3.452 7.065-5.295 10.184-.029.049-.054.102-.082.151-.26-.517-.275-1.026-.26-1.535.015-.516-.316-2.081-1.256-3.361.685-.129 1.184-.563 1.156-1.05-.032-.551-.729-.96-1.556-.911-.535.031-.99.246-1.238.542-.293-.146-.61-.263-.957-.335-.554-.116-.539.911-3.029.911-2.49 0-4.133 3.998-1.849 3.998s4.388-.113 4.701 1.088c.29 1.119-.587 3.537-.147 4.997.379 1.261 1.088 2.283 1.927 3.11 1.934 2.086 3.746 10.069 3.687 12.062-.059 1.999 1.94 2.058 1.999.059.036-1.212-.102-4.05.144-6.44.658 3.122.934 6.755.898 7.973-.059 1.999 1.94 2.058 1.999.059.048-1.621-.19-7.14.585-9.989.509.024 1.04.037 1.593.042 1.564.079 3.262-.17 4.855-.564 1.273 2.243 2.649 4.45 2.633 4.985-.029 1-1.117 3.969-1.146 4.969-.029.999.94 2.028 1.999.059.554-1.029 1.125-3.066 1.414-5.067.634 1.113 1.092 1.984 1.083 2.294-.029 1-1.064 2.124-1.093 3.124-.029.999.94 2.028 1.999.059 1.059-1.97 2.092-3.094 1.151-5.122-.719-1.551-.817-6.551-.354-9.706.126-.235.229-.482.319-.735.928 1.929 1.309 3.401 1.314 3.425.114.454.521.757.969.757.081 0 .163-.01.244-.03.536-.139.861-.681.727-1.216z"/>
    <path fill="#292F33" d="M8.097 8.713c-.016.552-.477.987-1.029.97-.552-.016-.986-.477-.97-1.029.016-.552.477-.986 1.029-.97.552.017.987.477.97 1.029z"/>
  </g>
  <g transform="translate(830.6709007300815, 292.3515398032192) scale(1 1) translate(0, 0) scale(3.5555555555555554 3.5555555555555554) ">
    <path fill="#C1694F" d="M6.755 2.246c-.443-.368-1.05-.976-1.629-1.299-.497-.277-.247.918.173 1.391.421.473 1.824 1.342 2.455 1.815.631.473.936.398.315-.473-.649-.911-1.314-1.434-1.314-1.434z"/>
    <path fill="#D99E82" d="M8.191.736c.328.339.735 2.394.735 2.394s1.282.092 2.407.786c4.5 2.776 2.542 9.542 3.944 11.102.432.48 9.681-1.643 14.222.544 3.844 1.852 3.083 4.646 4.083 5.271.758.474-2 1.25-2.578-2.313-.506 11.147-1.072 13.867-1.672 16.354-.339 1.406-1.979 1.601-1.792-.333.1-1.027.463-7.223-.583-8.792-.75-1.125-4.708 2.417-11.707 1.773-.485 4.276-1.097 7.136-1.272 7.519-.562 1.229-1.863 1.218-1.676-.009.187-1.228.447-4.949-.884-9.01-5.626-3.98-1.626-14.189-3.253-16.146-.362-.435-2.647-.981-3.314-1.048-.666-.067-1.265-.172-1.664-.239-.4-.067-.994-1.776-.927-2.242s.394-.623 1.26-.956.988-.222.942-.728c-.097-1.052 2.183-1.774 3.481-1.645-.133-.133-1.08-1.786-1.354-2.393-.35-.774 1.068-.442 1.602.111z"/>
    <path fill="#C1694F" d="M2.901 6.241c.068.342-.394.394-.315.69.079.296.536 1.256.95 1.157.414-.099.909-.07.224.259-.522.25-.847.012-.847.012s-.772-1.473-.693-1.894c.08-.419.661-.322.681-.224z"/>
    <path fill="#292F33" d="M7.58 4.805c0 .405-.328.733-.733.733s-.732-.328-.732-.733c0-.405.367-.31.772-.31s.693-.095.693.31zM2.22 6.146c.062-.462 1.54-.335 1.005.138-.335.296-1.104.591-1.005-.138z"/>
    <path fill="#C1694F" d="M7.473.846c.497.129 1.105 2.281.909 2.311-.256.04-1.517-2.468-.909-2.311zm2.472 5.846s1.009 1.324.252 2.269c-.756.946-2.333.63-2.333.63s1.513-.441 1.891-1.198c.379-.755.19-1.701.19-1.701z"/>
  </g>
  <g>
    <defs/>
    <path d="M 739.6680592385808 611.7590514380961 L 500.0 500.0 L 502.6249672709423 462.313529740056" fill="none" stroke="black" stroke-width="12.8"/>
    <path d="M 797.6307875770228 552.480338139339 L 760.426939129895 545.9202958719216 A 264.44444444444446 264.44444444444446 0 0,1 702.576197180352 669.9816123393293 L 760.4551106604525 718.5477872934233" fill="none" stroke="black" stroke-width="12.8"/>
    <path d="M 840.0 500.0 L 802.2222222222222 500.0 A 302.22222222222223 302.22222222222223 0 0,1 783.9959920597412 603.3660877606466 L 819.4954910672088 616.2868487307273" fill="none" stroke="black" stroke-width="12.8"/>
    <path d="M 444.71406840542505 448.50138115416473 L 472.3570342027125 474.25069057708237 A 37.77777777777778 37.77777777777778 0 0,1 530.9457438953619 478.3315568489605 L 716.6202072675334 348.32089794272326" fill="none" stroke="black" stroke-width="12.8"/>
    <path d="M 386.95143205058775 508.02905530131454 L 424.63428803372517 505.3527035342097 A 75.55555555555556 75.55555555555556 0 0,1 500.0 424.44444444444446 L 499.99999999999994 197.77777777777777" fill="none" stroke="black" stroke-width="12.8"/>
    <path d="M 389.7094290145493 603.2983923056784 L 417.282071760912 577.4737942292588 A 113.33333333333333 113.33333333333333 0 0,1 407.1627683139142 434.9946705468815 L 283.3797927324665 348.32089794272343" fill="none" stroke="black" stroke-width="12.8"/>
    <path d="M 487.6460755898618 688.4844632784029 L 490.1168604718895 650.7875706227223 A 151.11111111111111 151.11111111111111 0 0,1 348.8888888888889 500.0 L 160.0 500.00000000000006" fill="none" stroke="black" stroke-width="12.8"/>
    <path d="M 670.0 794.4486372867091 L 594.4444444444445 663.5825762703939 A 188.88888888888889 188.88888888888889 0 0,1 385.01173007613056 649.8556309439 L 362.0140760913566 679.82675713268" fill="none" stroke="black" stroke-width="12.8"/>
    <path d="M 431.5567414062223 755.4337185075536 L 441.33434977676194 718.9431872921888 A 226.66666666666666 226.66666666666666 0 0,1 303.7009084755272 613.3333333333333 L 238.26787796736966 651.1111111111111" fill="none" stroke="black" stroke-width="12.8"/>
    <path d="M 500.0 802.2222222222222 L 500.0 764.4444444444445 A 264.44444444444446 264.44444444444446 0 0,1 367.7777777777778 729.0156067785516 L 330.0000000000001 794.4486372867092" fill="none" stroke="black" stroke-width="12.8"/>
    <path d="M 559.0403804067563 834.8346360241508 L 552.480338139339 797.6307875770228 A 302.22222222222223 302.22222222222223 0 0,1 447.5196618606611 797.6307875770228 L 440.9596195932437 834.8346360241508" fill="none" stroke="black" stroke-width="12.8"/>
    <path d="M 239.54488933954752 718.5477872934234 L 268.4843460795978 694.2646998163764 A 302.22222222222223 302.22222222222223 0 0,1 216.00400794025882 603.3660877606466 L 180.50450893279117 616.2868487307275" fill="none" stroke="black" stroke-width="12.8"/>
    <path d="M 180.5045089327911 383.71315126927266 L 251.50350694772644 409.55467320943427 A 264.44444444444446 264.44444444444446 0 0,1 330.01838766067067 297.423802819648 L 305.7353001836236 268.4843460795978" fill="none" stroke="black" stroke-width="12.8"/>
    <path d="M 239.54488933954747 281.4522127065767 L 268.48434607959774 305.7353001836237 A 302.22222222222223 302.22222222222223 0 0,1 348.88888888888874 238.2678779673697 L 329.9999999999999 205.55136271329093" fill="none" stroke="black" stroke-width="12.8"/>
    <path d="M 440.9596195932437 165.1653639758493 L 447.5196618606611 202.3692124229771 A 302.22222222222223 302.22222222222223 0 0,1 552.4803381393389 202.3692124229771 L 559.0403804067562 165.16536397584923" fill="none" stroke="black" stroke-width="12.8"/>
    <path d="M 694.2646998163764 268.4843460795977 L 669.9816123393293 297.423802819648 A 264.44444444444446 264.44444444444446 0 0,1 748.4964930522735 409.5546732094341 L 819.4954910672088 383.7131512692724" fill="none" stroke="black" stroke-width="12.8"/>
    <path d="M 670.0 205.55136271329087 L 651.1111111111111 238.26787796736966 A 302.22222222222223 302.22222222222223 0 0,1 731.5156539204022 305.7353001836236 L 760.4551106604524 281.4522127065766" fill="none" stroke="black" stroke-width="12.8"/>
  </g>
</svg>
