<?xml version='1.0' encoding='ASCII' standalone='yes'?>
<svg xmlns="http://www.w3.org/2000/svg" xmlns:xlink="http://www.w3.org/1999/xlink" version="1.1" width="1000.0px" viewBox="0 0 1000.0 1000.0" height="1000.0px">
  <g transform="translate(856.0, 436.0) scale(1 1) translate(0, 0) scale(1.7777777777777777 1.7777777777777777) "><g id="color">
    <path fill="#EA5A47" stroke="#EA5A47" stroke-linecap="round" stroke-linejoin="round" stroke-miterlimit="10" stroke-width="2" d="M29.5,28.25C29,24.5,30,27,32.75,21s-1-8-1-8C23,5,18,19,18,19c2-4,7-2,7-2l-1,3l2,2l-3.9167,2.8333l-3,4.0833L18,33 c0,0-0.1667,2.25,2,3s11-1,11-1L29.5,28.25z"/>
    <path fill="#A57939" stroke="#A57939" stroke-miterlimit="10" stroke-width="2" d="M43,49c-2,3-8.9355,5.6585-16.4047,4.6317 C22,53,15.125,49,17,42c4.2595-15.902,22-10,22-10s0.5-15.75,9.75-16.375s-2,10.75-2,10.75S51,21,55,23s-1.75,6-4.875,6.5 S57,28,59,30s0.375,3-6,4s7-1,7,2s-7,4-7,4s3.5-0.75,5.25,2.125s-6,2.875-6,2.875S60,48,58,51s-11-1-11-3"/>
  </g>
  <g id="hair"/>
  <g id="skin"/>
  <g id="skin-shadow"/>
  <g id="line">
    <polyline fill="none" stroke="#000000" stroke-linecap="round" stroke-linejoin="round" stroke-miterlimit="10" stroke-width="2" points="28,53.875 28,59 25,60"/>
    <line x1="31" x2="28" y1="59" y2="59" fill="none" stroke="#000000" stroke-linecap="round" stroke-linejoin="round" stroke-miterlimit="10" stroke-width="2"/>
    <polyline fill="none" stroke="#000000" stroke-linecap="round" stroke-linejoin="round" stroke-miterlimit="10" stroke-width="2" points="36,53.875 36,59 33,60"/>
    <line x1="39" x2="36" y1="59" y2="59" fill="none" stroke="#000000" stroke-linecap="round" stroke-linejoin="round" stroke-miterlimit="10" stroke-width="2"/>
    <path fill="none" stroke="#000000" stroke-linecap="round" stroke-linejoin="round" stroke-miterlimit="10" stroke-width="2" d="M43,49c-2,3-8.9355,5.6585-16.4047,4.6317C22,53,15.125,49,17,42c4.2595-15.902,22-10,22-10s0.5-15.75,9.75-16.375 s-2,10.75-2,10.75S51,21,55,23s-1.75,6-4.875,6.5S57,28,59,30s0.375,3-6,4s7-1,7,2s-7,4-7,4s3.5-0.75,5.25,2.125s-6,2.875-6,2.875 S60,48,58,51s-11-1-11-3"/>
    <path fill="none" stroke="#000000" stroke-linecap="round" stroke-linejoin="round" stroke-miterlimit="10" stroke-width="2" d="M25,17c0,0-5-2-7,2c0,0,5-14,13.75-6c0,0,3.75,2,1,8S29,24.5,29.5,28.25"/>
    <path fill="none" stroke="#000000" stroke-linecap="round" stroke-linejoin="round" stroke-miterlimit="10" stroke-width="2" d="M24,20c0,0,2,2-1.375,4.25C17,28,18.25,32.875,18.25,32.875"/>
  </g>
</g>
  <g transform="translate(807.8915307743482, 631.1837322583827) scale(1 1) translate(0, 0) scale(1.7777777777777777 1.7777777777777777) "><g id="color">
    <path fill="#A57939" stroke="#A57939" stroke-linecap="round" stroke-linejoin="round" stroke-miterlimit="10" stroke-width="2" d="M46.6415,50.7282C43.4212,53.3084,35.6302,57.4758,24.441,50c0,0-6.503-2.9793-3.7706-12.8965 c0.0185-0.0673,0.0415-0.1361,0.0669-0.2011l4.1436-10.5978C24.9596,26.1033,25,25.8891,25,25.6729v-2.4312 c0-1.3857,1.5443-2.2121,2.6972-1.4435l0,0c0.1657,0.1105,0.3452,0.1906,0.5387,0.2375C28.9437,22.2073,31,23.2047,31,29 c0,9.0554,8.4083,7,8.4083,6s0.9355-12,10.29-10s13.1159,9.6753,7.4837,22.3333c0,0-2.6008,2.0855-4.182,3.6667c-2,2-6,0-6,0"/>
    <path fill="#EA5A47" stroke="#EA5A47" stroke-miterlimit="10" stroke-width="2" d="M25,27c0,0,1.7612,2.6418-2.1537,3.7936 c-0.5305,0.1561-0.9858,0.5054-1.2736,0.9777C20.7301,33.1538,18.7811,35.6716,17,33c-1.087-1.6304-0.6971-2.9655-0.1146-3.8447 c0.6122-0.9239,0.4076-2.1807-0.4585-2.8722C15.5863,25.612,14.4283,25,13,25c-1.9171,0,0.6579-1.6335,2.7667-2.8128 c0.8642-0.4833,1.1619-1.482,0.9677-2.4528C16.6875,19.5,16.8419,19.3162,17,19c1-2,1-4,2-5c1.5811-1.5811,2-3,7-1 c5.4139,2.1656-0.8333,6.1667-0.8333,6.1667"/>
    <path fill="#FCEA2B" stroke="none" d="M17,26.2831c-0.9581-0.8657-2.278-1.655-3.9059-1.655c-2.1851,0,0.7499-2.107,3.1534-3.6281"/>
  </g>
  <g id="hair"/>
  <g id="skin"/>
  <g id="skin-shadow"/>
  <g id="line">
    <path fill="none" stroke="#000000" stroke-linecap="round" stroke-linejoin="round" stroke-miterlimit="10" stroke-width="2" d="M55.311,42c0,0,0,10-4.6773,10c0,0,2.8064-6-0.9355-9"/>
    <path fill="none" stroke="#000000" stroke-linecap="round" stroke-linejoin="round" stroke-miterlimit="10" stroke-width="2" d="M32.2365,54.0833l-0.7016,5.3333c0,0-2.4166,0.5833-2.4166,1.5833"/>
    <path fill="none" stroke="#000000" stroke-linecap="round" stroke-linejoin="round" stroke-miterlimit="10" stroke-width="2" d="M33.7956,60c0,0,0-1-1.8709-1"/>
    <path fill="none" stroke="#000000" stroke-linecap="round" stroke-linejoin="round" stroke-miterlimit="10" stroke-width="2" d="M40.6556,54.0833l-0.7016,5.3333c0,0-2.4166,0.5833-2.4166,1.5833"/>
    <path fill="none" stroke="#000000" stroke-linecap="round" stroke-linejoin="round" stroke-miterlimit="10" stroke-width="2" d="M42.2147,60c0,0,0-1-1.8709-1"/>
    <path fill="none" stroke="#000000" stroke-linecap="round" stroke-linejoin="round" stroke-miterlimit="10" stroke-width="2" d="M26.3119,36c0,0-3.7418,9,3.7418,13s14.9673,1,15.9028-3c0.9355-4-2.0268-3.6667-5.223-5.8333"/>
    <path fill="none" stroke="#000000" stroke-linecap="round" stroke-linejoin="round" stroke-miterlimit="10" stroke-width="2" d="M25.1667,19.1667c0,0,6.2472-4.0011,0.8333-6.1667c-5-2-5.4189-0.5811-7,1c-1,1-1,3-2,5c-0.1581,0.3162-0.3125,0.5-0.2656,0.7344 c0.1942,0.9709-0.1036,1.9696-0.9677,2.4528C13.6579,23.3665,11.0829,25,13,25c1.4283,0,2.5863,0.612,3.4269,1.2831 c0.8661,0.6915,1.0707,1.9483,0.4585,2.8722C16.3029,30.0345,15.913,31.3696,17,33c1.7811,2.6716,3.7301,0.1538,4.5727-1.2287 c0.2878-0.4722,0.7431-0.8216,1.2736-0.9777C26.7612,29.6418,25,27,25,27"/>
    <path fill="none" stroke="#000000" stroke-linecap="round" stroke-linejoin="round" stroke-miterlimit="10" stroke-width="2" d="M28,22c0,0,3,0,3,7c0,9.0554,8.4083,7,8.4083,6s0.9355-12,10.29-10s13.0964,9.6667,7.4837,22.3333"/>
    <path fill="none" stroke="#000000" stroke-linecap="round" stroke-linejoin="round" stroke-miterlimit="10" stroke-width="2" d="M48.2951,49.1667c0,0-8.8868,10.8333-23.8541,0.8333c0,0-6.5482-3-3.7418-13"/>
  </g>
</g>
  <g transform="translate(674.5871936270855, 781.6532236753357) scale(1 1) translate(0, 0) scale(1.7777777777777777 1.7777777777777777) "><g id="line-supplement">
    <circle cx="22.25" cy="36.98" r="1.5"/>
    <circle cx="49.75" cy="36.98" r="1.5"/>
    <circle cx="28.75" cy="32" r="1.5"/>
    <circle cx="43.68" cy="31.91" r="1.5"/>
    <circle cx="22.25" cy="47.54" r="1.5"/>
    <circle cx="49.75" cy="47.54" r="1.5"/>
    <circle cx="28.75" cy="42.57" r="1.5"/>
    <circle cx="43.68" cy="42.48" r="1.5"/>
    <circle cx="22.25" cy="27.16" r="1.5"/>
    <circle cx="36" cy="17.47" r="1.5"/>
    <circle cx="49.75" cy="26.66" r="1.5"/>
    <circle cx="28.75" cy="22.26" r="1.5"/>
    <circle cx="43.34" cy="22.26" r="1.5"/>
  </g>
  <g id="color">
    <path fill="#5c9e31" d="M41.2843,56.5638s3.7847,1.5119,4.6456.9267c.7594-.5162,0-3.6731,0-3.6731s4.2762,2.12,5.1621,1.1394c.7968-.8819-1.4891-4.5147-1.4891-4.5147s5.04-.4134,5.46-1.7869c.331-1.0824-2.78-3.5738-2.78-3.5738s6.5379-.9356,6.4527-2.68c-.0746-1.5291-5.8571-1.7869-5.8571-1.7869S59.2226,38.95,59.2324,37.14c.0063-1.1667-4.07-2.2832-4.07-2.2832s4.81-2.1116,4.6658-3.5739c-.1043-1.0619-3.8289-1.8861-3.8289-1.8861s3.4575-3.7435,2.7369-4.9637c-.6057-1.0257-4.7651,0-4.7651,0s2.505-4.54,1.4891-5.5592c-1.2326-1.2363-6.4579.6951-6.4579.6951s1.3259-4.27.0052-5.0631c-1.2881-.7735-5.1622,3.0774-5.1622,3.0774s1.2242-3.4669-.4634-4.956C41.8,11.2312,38.9556,14.116,38.9556,14.116S37.159,10.3436,36,10.3436s-2.9561,4.2687-2.9561,4.2687-2.2019-3.0338-4.1556-2.3825c-1.4891.4963-.7339,5.3531-.7339,5.3531S24.28,13.732,22.9918,14.5055c-1.3207.7931-.5566,4.9712-.5566,4.9712s-4.64-1.8161-5.8961-.6032c-1.5494,1.4966,1.4891,5.5592,1.4891,5.5592s-4.1593-1.0257-4.7651,0C12.5425,25.6529,16,29.3964,16,29.3964s-3.7245.8242-3.8289,1.8861c-.1437,1.4623,4.6658,3.5739,4.6658,3.5739s-4.0765,1.1165-4.07,2.2832c.01,1.81,4.3827,2.8651,4.3827,2.8651s-3.8116.8673-3.8863,2.3964c-.0852,1.7447,6.4527,2.68,6.4527,2.68s-3.1106,2.4914-2.78,3.5738c.42,1.3735,5.46,1.7869,5.46,1.7869s-2.2858,3.6328-1.4891,4.5147c.886.9807,5.1622-1.1394,5.1622-1.1394s-.7595,3.1569,0,3.6731c.8609.5852,4.5071-.7879,4.5071-.7879L32.42,55.3344l7.1981.02Z"/>
    <path fill="#1e50a0" d="M34.8924,22.6011a3.1363,3.1363,0,0,1,3.0744,2.1959c1.3045,3.1451-.2042,10.2555.3486,13.6152.4289,2.6071,4.2757,7.02,4.2822,9.6624C42.6093,52.9057,39.0648,56,36,55.9583c-4.2147-.0573-6.5467-5.3142-6.5976-7.8837-.0651-3.294,3.399-7.1722,4.2822-9.6624.8375-2.3612,1.576-9.1151.0765-10.5019-.6311-.5837-4.3587-.5879-4.3587-.5879S32.5866,22.6011,34.8924,22.6011Z"/>
    <circle cx="22.2487" cy="36.9788" r="1.5" fill="#fcea2b"/>
    <circle cx="22.2487" cy="37.4788" r="1" fill="#1e50a0"/>
    <circle cx="49.7513" cy="36.9788" r="1.5" fill="#fcea2b"/>
    <circle cx="49.7513" cy="37.4788" r="1" fill="#1e50a0"/>
    <circle cx="28.752" cy="32" r="1.5" fill="#fcea2b"/>
    <circle cx="28.752" cy="32.5" r="1" fill="#1e50a0"/>
    <circle cx="43.676" cy="31.9121" r="1.5" fill="#fcea2b"/>
    <circle cx="43.676" cy="32.4121" r="1" fill="#1e50a0"/>
    <circle cx="22.2487" cy="47.5442" r="1.5" fill="#fcea2b"/>
    <circle cx="22.2487" cy="48.0442" r="1" fill="#1e50a0"/>
    <circle cx="49.7513" cy="47.5442" r="1.5" fill="#fcea2b"/>
    <circle cx="49.7513" cy="48.0442" r="1" fill="#1e50a0"/>
    <circle cx="28.752" cy="42.5653" r="1.5" fill="#fcea2b"/>
    <circle cx="28.752" cy="43.0653" r="1" fill="#1e50a0"/>
    <circle cx="43.676" cy="42.4774" r="1.5" fill="#fcea2b"/>
    <circle cx="43.676" cy="42.9774" r="1" fill="#1e50a0"/>
    <circle cx="22.2487" cy="27.1568" r="1.5" fill="#fcea2b"/>
    <circle cx="22.2487" cy="27.6568" r="1" fill="#1e50a0"/>
    <circle cx="36" cy="17.468" r="1.5" fill="#fcea2b"/>
    <circle cx="36" cy="17.968" r="1" fill="#1e50a0"/>
    <circle cx="49.7513" cy="26.6568" r="1.5" fill="#fcea2b"/>
    <circle cx="49.7513" cy="27.1568" r="1" fill="#1e50a0"/>
    <circle cx="28.752" cy="22.2595" r="1.5" fill="#fcea2b"/>
    <circle cx="28.752" cy="22.7595" r="1" fill="#1e50a0"/>
    <circle cx="43.3403" cy="22.2595" r="1.5" fill="#fcea2b"/>
    <circle cx="43.3403" cy="22.7595" r="1" fill="#1e50a0"/>
  </g>
  <g id="line">
    <path fill="none" stroke="#000" stroke-linecap="round" stroke-linejoin="round" stroke-width="2" d="M42.0582,55.9583s3.0108,2.1174,3.8717,1.5322c.7594-.5162,0-3.6731,0-3.6731s4.2762,2.12,5.1621,1.1394c.7968-.8819-1.4891-4.5147-1.4891-4.5147s5.04-.4134,5.46-1.7869c.331-1.0824-2.78-3.5738-2.78-3.5738s6.5379-.9356,6.4527-2.68c-.0746-1.5291-5.8571-1.7869-5.8571-1.7869S59.2226,38.95,59.2324,37.14c.0063-1.1667-4.07-2.2832-4.07-2.2832s4.81-2.1116,4.6658-3.5739c-.1043-1.0619-3.8289-1.8861-3.8289-1.8861s3.4575-3.7435,2.7369-4.9637c-.6057-1.0257-4.7651,0-4.7651,0s2.505-4.54,1.4891-5.5592c-1.2326-1.2363-6.4579.6951-6.4579.6951s1.3259-4.27.0052-5.0631c-1.2881-.7735-5.1622,3.0774-5.1622,3.0774s1.2242-3.4669-.4634-4.956C41.8,11.2312,38.9556,14.116,38.9556,14.116S37.159,10.3436,36,10.3436s-2.9561,4.2687-2.9561,4.2687-2.2019-3.0338-4.1556-2.3825c-1.4891.4963-.7339,5.3531-.7339,5.3531S24.28,13.732,22.9918,14.5055c-1.3207.7931-.5566,4.9712-.5566,4.9712s-4.64-1.8161-5.8961-.6032c-1.5494,1.4966,1.4891,5.5592,1.4891,5.5592s-4.1593-1.0257-4.7651,0C12.5425,25.6529,16,29.3964,16,29.3964s-3.7245.8242-3.8289,1.8861c-.1437,1.4623,4.6658,3.5739,4.6658,3.5739s-4.0765,1.1165-4.07,2.2832c.01,1.81,4.3827,2.8651,4.3827,2.8651s-4.3762.6956-3.8863,2.3964c1.0317,3.5813,6.4527,2.68,6.4527,2.68s-3.1106,2.4914-2.78,3.5738c.42,1.3735,5.46,1.7869,5.46,1.7869s-2.2858,3.6328-1.4891,4.5147c.886.9807,5.1622-1.1394,5.1622-1.1394s-.7595,3.1569,0,3.6731c.8609.5852,3.8716-1.5322,3.8716-1.5322"/>
    <path fill="none" stroke="#000" stroke-linecap="round" stroke-linejoin="round" stroke-width="2" d="M34.8924,22.6011a3.1363,3.1363,0,0,1,3.0744,2.1959c1.3045,3.1451-.2042,10.2555.3486,13.6152.4289,2.6071,4.2757,7.02,4.2822,9.6624C42.6093,52.9057,39.0648,56,36,55.9583c-4.2147-.0573-6.5467-5.3142-6.5976-7.8837-.0651-3.294,3.399-7.1722,4.2822-9.6624.8375-2.3612,1.576-9.0158.7686-9.9918-.548-.6624-5.0508-1.098-5.0508-1.098S32.5866,22.6011,34.8924,22.6011Z"/>
    <polyline fill="none" stroke="#000" stroke-linecap="round" stroke-linejoin="round" stroke-width="2" points="33.044 54.957 33.044 60.592 30.827 61.331"/>
    <line x1="35.2606" x2="33.0435" y1="60.5918" y2="60.5918" fill="none" stroke="#000" stroke-linecap="round" stroke-linejoin="round" stroke-width="2"/>
    <polyline fill="none" stroke="#000" stroke-linecap="round" stroke-linejoin="round" stroke-width="2" points="38.956 55.081 38.956 60.592 36.739 61.331"/>
    <line x1="41.1726" x2="38.9556" y1="60.5918" y2="60.5918" fill="none" stroke="#000" stroke-linecap="round" stroke-linejoin="round" stroke-width="2"/>
  </g>
</g>
  <g transform="translate(486.6254057072357, 852.9377271211827) scale(1 1) translate(0, 0) scale(1.7777777777777777 1.7777777777777777) "><g id="color">
    <path fill="#6A462F" stroke="none" d="M34.6024,63.9305c1.1633,0,2.6989,0,4.1493,0c2.3257,0,4.432,0,4.432,0s3.0287,0.5048-0.5048-3.0287 c0,0,0.5048-1.0096,0.5048-1.5143s1.0937-1.0096,0.7992-2.0191"/>
    <path fill="#6A462F" stroke="#6A462F" stroke-miterlimit="10" stroke-width="2" d="M37.8007,61.4321 c1.129-0.1524,1.9462-0.423,2.3542-1.035c1.0096-1.5143,1.0096-1.0096,0.5048-2.0191c-0.5048-1.0096,0-2.0191,0-2.0191L45,57"/>
    <path fill="#A57939" stroke="none" d="M33.7901,53.9699c9.417,4.7375,29.5174,3.7978,25.572-0.1477c-4.4391-4.4391-5.0732-6.3416-5.7074-10.1465 s-5.7074-11.4148-14.5856-13.3173c-8.8782-1.9025,0-13.9514-6.3416-19.6588s-13.9514-0.6342-13.9514,2.5366 s-3.1708,5.0732-3.1708,5.0732c-1.2683,0.6342-9.5123,3.8049,1.2683,3.8049s10.1465,2.5366,6.9757,4.4391 c0,0-10.8078,4.5851-7.8493,14.4465c3,10,17.9958,13.4564,17.9958,13.4564s-0.6342,1.2683,0,2.5366s-0.3658,1.6342-1.6342,3.5366 c-1.2683,1.9025-4.0732,0.2683-6.6099,0.9025c-1.9455,0.4864-3.1708,2.5366,0.6342,2.5366s10.7806,0,10.7806,0 s3.8049,0.6342-0.6342-3.8049c0,0,0.6342-1.2683,0.6342-1.9025s1.374-1.2683,1.0041-2.5366"/>
    <path fill="#5C9E31" stroke="none" d="M39.0691,30.3584c-8.8782-1.9025,0-13.9514-6.3416-19.6588s-13.9514-0.6342-13.9514,2.5366 s-3.1708,5.0732-3.1708,5.0732c-1.2683,0.6342-9.5123,3.8049,1.2683,3.8049s10.1465,2.5366,6.9757,4.4391"/>
    <path fill="#FCEA2B" stroke="none" d="M15.6053,18.3095c-1.2683,0.6342-9.5123,3.8049,1.2683,3.8049"/>
  </g>
  <g id="hair"/>
  <g id="skin"/>
  <g id="skin-shadow"/>
  <g id="line">
    <path fill="none" stroke="#000000" stroke-linecap="round" stroke-linejoin="round" stroke-miterlimit="10" stroke-width="2" d="M47.9472,46.2123c6.9757,5.7074,0,6.3416,0,6.3416c-17.1222,1.9025-21.5613-16.488-21.5613-16.488"/>
    <path fill="none" stroke="#000000" stroke-linecap="round" stroke-linejoin="round" stroke-miterlimit="10" stroke-width="2" d="M34.0168,54.4596c10.7957,2.9088,29.2906,3.308,25.3452-0.6374c-4.4391-4.4391-5.0732-6.3416-5.7074-10.1465 s-5.7074-11.4148-14.5856-13.3173c-8.8782-1.9025,0-13.9514-6.3416-19.6588s-13.9514-0.6342-13.9514,2.5366 s-3.1708,5.0732-3.1708,5.0732c-1.2683,0.6342-9.5123,3.8049,1.2683,3.8049s10.1465,2.5366,6.9757,4.4391 c0,0-10.8078,4.5851-7.8493,14.4465c3,10,17.9958,13.4564,17.9958,13.4564s-0.6342,1.2683,0,2.5366s-0.3658,1.6342-1.6342,3.5366 c-1.2683,1.9025-4.0732,0.2683-6.6099,0.9025c-1.9455,0.4864-3.1708,2.5366,0.6342,2.5366s10.7806,0,10.7806,0 s3.8049,0.6342-0.6342-3.8049c0,0,0.6342-1.2683,0.6342-1.9025s1.374-1.2683,1.0041-2.5366"/>
    <path fill="none" stroke="#000000" stroke-linecap="round" stroke-linejoin="round" stroke-miterlimit="10" stroke-width="2" d="M34.6024,63.9305c1.1633,0,2.6989,0,4.1493,0c2.3257,0,4.432,0,4.432,0s3.0287,0.5048-0.5048-3.0287 c0,0,0.5048-1.0096,0.5048-1.5143s1.0937-1.0096,0.7992-2.0191"/>
    <path fill="none" stroke="#000000" stroke-linecap="round" stroke-linejoin="round" stroke-miterlimit="10" stroke-width="2" d="M40.6597,56.3588c0,0-0.5048,1.0096,0,2.0191c0.5048,1.0096,0.5048,0.5048-0.5048,2.0191c-0.408,0.612-1.2252,0.8826-2.3542,1.035"/>
  </g>
</g>
  <g transform="translate(287.0659474421351, 828.7068219278742) scale(1 1) translate(0, 0) scale(1.7777777777777777 1.7777777777777777) "><g id="color">
    <path id="Swan_Color_1" fill="#fff" d="M23.8422,42.51c22.03-12.5653,24.21-.1553,27.4673-3.3092.9953-.9637,8.6841-3.7561,8.6841-3.7561s-2.7489,23.3-12.5891,24.9166c-7.3779,1.2119-22.7242,2.1761-28.0357,0-9.18-3.7611-7.1649-16.3457-5.3956-20.54,2.0552-4.8718,11.4376-8.7859,9.3355-19.3019-.1854-.9278-.1975-2.0708-1.2787-2.53-1.5226-.6471-4.48,3.2944-7.426,2.1242,0,0,3.7917-8.7431,6.9386-9.7333,4.5181-1.4216,7.8633,4.1879,8.3879,6.8218,1.1173,5.61-4.2908,14.0131-4.7958,18.1C25.1074,35.5222,23.8422,42.51,23.8422,42.51Z"/>
    <path id="Swan_Color_2" fill="#f4aa41" d="M17.7632,15.7092c-.135,1.2855,1.933,2.4762,2.1626,3.2628.2953,1.0119-4.1957.4178-4.1957.4178S17.873,14.6637,17.7632,15.7092Z"/>
  </g>
  <g id="line">
    <path id="Swan_Line_1" fill="none" stroke="#000" stroke-linecap="round" stroke-linejoin="round" stroke-width="2" d="M27.1986,41.0877c3.045-.91,8.4833-7.14,19.8118-2.7989,8.2484,3.1606,12.9832-2.8445,12.9832-2.8445S57.8916,57.793,47.4045,60.3609c-7.2623,1.7782-22.7242,2.1761-28.0357,0-9.18-3.7611-8.2246-15.4921-5.3956-20.54,2.911-5.1941,10.142-8.5786,10.2681-19.3019"/>
    <path id="Swan_Line_2" fill="none" stroke="#000" stroke-linecap="round" stroke-linejoin="round" stroke-width="2" d="M23.77,43.5077c.71-12.0817,7.0657-20.416,6.1609-26.3062-.6954-4.5273-3.7741-7.76-8.2922-6.3379-3.1468.99-7.0343,9.2494-7.0343,9.2494,2.9462,1.17,7.426-2.1242,7.426-2.1242"/>
    <path id="Swan_Line_3" fill="none" stroke="#000" stroke-linecap="round" stroke-linejoin="round" stroke-width="2" d="M49.6121,44.31c-2.1331,3.4989-11.9,5.3058-16.6525,5.4247"/>
  </g>
</g>
  <g transform="translate(121.62548576813748, 714.511516461134) scale(1 1) translate(0, 0) scale(1.7777777777777777 1.7777777777777777) "><g id="color">
    <path fill="#d0cfce" stroke-width="2" d="m19.16 40.04 0.4275-2.06c-1.417-1.417-1.523-2.998-1.462-3.717 0.04535-0.5339-0.206-4.356 6.538-10.89 0.6766-0.6558 1.265-1.384 1.735-2.201 0.9457-1.645 2.712-4.998 5.3-11.03 3.851-8.978 8.116 12.15 7.396 18.19-0.09423 0.7913-0.9772 5.316-1.11 6.102l-2.88 10.79"/>
    <path fill="#fff" stroke-width="2" d="m37.99 46.28c28.77-0.928 18.56-38.05 17.63-33.41-0.928 4.64-27.84 31.55-30.62 27.84-2.784-3.712-6.496-4.64-8.352-1.856-1.856 2.784-2.784 3.712-2.784 3.712s5.568-0.928 6.496 0.928c0.928 1.856 3.871 7.946 9.28 8.352 0 0 1.847 0.6304 5.568 8.352 4.339 9.004 22.27 0 16.7-4.64-5.568-4.64-9.28-2.784-12.06-4.64-2.784-1.856-1.856-4.64-1.856-4.64z"/>
  </g>
  <g id="hair"/>
  <g id="skin"/>
  <g id="skin-shadow"/>
  <g id="line">
    <path fill="none" stroke="#000" stroke-linecap="round" stroke-linejoin="round" stroke-miterlimit="10" stroke-width="2" d="m38.29 46.13c28.36-0.9149 18.3-37.51 17.38-32.93s-27.44 31.1-30.19 27.44c-2.744-3.659-6.404-4.574-8.233-1.83-1.83 2.744-2.744 3.659-2.744 3.659s5.489-0.9149 6.404 0.9149c0.9149 1.83 3.816 7.833 9.148 8.233 0 0 1.821 0.6215 5.489 8.233 4.277 8.876 21.96 0 16.47-4.574-5.489-4.574-9.148-2.744-11.89-4.574-2.744-1.83-1.83-4.574-1.83-4.574z"/>
    <path fill="none" stroke="#000" stroke-linecap="round" stroke-linejoin="round" stroke-miterlimit="10" stroke-width="2" d="m38.37 26.51c0.3138-7.019-3.262-24.11-6.481-16.06-3.659 9.148-5.489 11.89-5.489 11.89-4.348 4.13-5.957 7.228-6.529 9.162"/>
  </g>
</g>
  <g transform="translate(28.204436681058155, 536.5125790007742) scale(1 1) translate(0, 0) scale(1.7777777777777777 1.7777777777777777) "><g id="color">
    <path fill="#92d3f5" d="M44.2231,28.5334c-.1885.002-4.9151-.08-8.212,2.021-2.3115,1.4707-4.3691-.7836-4.458-.8808a4.3922,4.3922,0,0,1-.9-2.749,4.1838,4.1838,0,0,1,.9551-2.7207,5.5074,5.5074,0,0,0,1.5108-3.4082,8.1409,8.1409,0,0,0-2.1651-5.6617,7.6574,7.6574,0,0,0-6.0508-1.917,6.3293,6.3293,0,0,0-5.5073,3.02,5.1579,5.1579,0,0,0-2.3745,2.7251c-.0146.0312-.0273.0634-.0391.0967A2.9781,2.9781,0,0,1,14.7055,21.19a.9641.9641,0,0,0-.2539.1035,2.7941,2.7941,0,0,0-.7246,4.6494,2.5887,2.5887,0,0,0,.9961,2.7779,3.4015,3.4015,0,0,0,4.5849-.17c.126-.124.3653-.3632.5723-.5908a2.1984,2.1984,0,0,1,1.6074.5239c.668.6031,1.3779,2.0562.9688,5.5518-.4336,3.6978.08,6.3975,1.5283,8.0249a4.32,4.32,0,0,0,2.05,1.3157c.812,3.3137,4.9042,7.6416,9.3826,7.781.6943,1.1811,2.5322,3.7231,5.5889,3.9394.1015.0074.2031.0108.3046.0108,3.2247-.0005,6.1036-3.5669,7.0381-4.8555,3.1573-.334,8.3721-2.5,8.3692-8.894C56.7074,41.2327,55.57,28.885,44.2231,28.5334Z"/>
    <path fill="#f1b31c" d="M11.6776,30.6484a.9284.9284,0,0,1-.2088-.0234c-2.1054-.4785-2.6676-3.0034-2.6676-4.42a5.1654,5.1654,0,0,1,1.7415-4.3472c1.9022-1.4668,4.5774-.6655,4.6908-.63a1.011,1.011,0,0,1,.0756,1.8892c-.257.1089-.6568.4009-.6832.6055-.0189.1469.1531.5566.9185,1.1611a1.0161,1.0161,0,0,1,.3676.9512l-.2259,1.4726a.9769.9769,0,0,1-.9553.8433c-1.5951,0-2.1215,1.7651-2.1262,1.7827A.9733.9733,0,0,1,11.6776,30.6484Z"/>
    <path fill="#d0cfce" d="M17.0393,29.5376a3.7262,3.7262,0,0,1-2.36-.8486,2.5987,2.5987,0,0,1-.9156-2.7119,2.8111,2.8111,0,0,1,.721-4.6636.9013.9013,0,0,1,.2428-.1,2.99,2.99,0,0,0,2.2934-2.1387,1.0734,1.0734,0,0,1,.0407-.1,5.3527,5.3527,0,0,1,6.2952-3.2671,5.51,5.51,0,0,1,4.5094,5.64A5.7688,5.7688,0,0,1,22.64,27.1255c-2.0543.0029-2.4219.3359-3.2856,1.3887a1.0375,1.0375,0,0,1-.102.1074A2.9838,2.9838,0,0,1,17.0393,29.5376Z"/>
    <path fill="#f1b31c" d="M48.81,61.958H30.8366a.9837.9837,0,0,1-.9677-1c0-2.17,1.4439-3.4658,3.863-3.4658a30.8168,30.8168,0,0,0,5.3267-.626,26.203,26.203,0,0,1-.5509-3.0322,1.014,1.014,0,0,1,.4139-.9414.94.94,0,0,1,.9988-.06,3.1031,3.1031,0,0,0,2.2962.1445.9454.9454,0,0,1,.8826.1241,1.0078,1.0078,0,0,1,.4111.8173v2.9053a.3928.3928,0,0,0,.2.3477,8.0273,8.0273,0,0,0,3.159.38,2.7214,2.7214,0,0,1,2.1261.8925,3.74,3.74,0,0,1,.7777,2.6045A.9812.9812,0,0,1,48.81,61.958Z"/>
    <path fill="#d0cfce" d="M63.4988,44.2806a5.5647,5.5647,0,0,0-1.3075-2.5113,5.4622,5.4622,0,0,0-.923-4.5883c-1.9209-2.3618-5.7265-2.2724-6.98-2.2422l-.1836.004c-.009,0-.0164.005-.0255.0053a3.7264,3.7264,0,0,0-.3851.0919c-.0087.0041-.0182.0029-.0269.0072a.9573.9573,0,0,0-.1273.0987.9907.9907,0,0,0-.1564.1211,2.8275,2.8275,0,0,0-.2.322.9915.9915,0,0,0-.0485.2521.921.921,0,0,0-.0213.11c0,.0068.0039.0124.004.0192a3.5316,3.5316,0,0,0,.09.3872c.0044.01.0032.02.0081.03a16.2331,16.2331,0,0,1,1.5039,5.0254,6.2711,6.2711,0,0,1-1.77,4.6591l-.0081.0121a.9721.9721,0,0,0-.1445.2138.4659.4659,0,0,0-.1128.3158,1.0042,1.0042,0,0,0-.0318.17,1.0165,1.0165,0,0,0,.0286.1535.9735.9735,0,0,0,.0485.229l.0033.0156.042.0972c.27.6406,1.0664,2.5346,2.9043,2.5346.08,0,.1621-.0039.247-.0112a2.7369,2.7369,0,0,0,1.9112-.9595,2.9223,2.9223,0,0,0,.43-.7026,3.7233,3.7233,0,0,0,1.9034.4653,3.5327,3.5327,0,0,0,2.7138-1.6538A3.421,3.421,0,0,0,63.4988,44.2806Z"/>
    <path fill="#d0cfce" d="M38.1166,47.364a3.7278,3.7278,0,0,1-.9785-.1309A6.0163,6.0163,0,0,1,33.8822,44.51a.9036.9036,0,0,1-.0468-.0953h0a7.6925,7.6925,0,0,0-1.3672-1.6665,4.1539,4.1539,0,0,1-.9649-4.0327c.0635-.2412.8-2.8081,2.7979-3.5239a4.74,4.74,0,0,1,4.3906.7378l.0029.0029a4.0471,4.0471,0,0,1,.8379,5.3653,4.2627,4.2627,0,0,1,1.0479,5.101,1.0018,1.0018,0,0,1-.3623.3648A4.1529,4.1529,0,0,1,38.1166,47.364Z"/>
  </g>
  <g id="line">
    <path fill="none" stroke="#000" stroke-linecap="round" stroke-linejoin="round" stroke-width="2" d="M14.95,22.16S9.7623,20.559,9.7623,26.1787c0,0,0,3.01,1.9078,3.4435,0,0,.7179-2.498,3.0543-2.498"/>
    <path fill="none" stroke="#000" stroke-linecap="round" stroke-linejoin="round" stroke-width="2" d="M27.8292,45.0409c1.5491,2.5935,4.7957,5.3184,8.1812,5.1076h0s1.704,3.7123,5.066,3.95S47.8,49.2918,47.8,49.2918s7.9213-.3808,7.9213-7.8531c0,0-.945-11.5778-11.52-11.9052,0,0-4.5725-.1-7.6533,1.8641s-5.7419-1.06-5.7419-1.06a5.3768,5.3768,0,0,1-1.154-3.4131,5.1883,5.1883,0,0,1,1.2335-3.413,4.6329,4.6329,0,0,0,1.2335-2.7552s.2786-6.9906-7.202-6.5383a5.34,5.34,0,0,0-4.7934,2.7541"/>
    <path fill="none" stroke="#000" stroke-linecap="round" stroke-linejoin="round" stroke-width="2" d="M26.8925,21.306c.16-5.1415-7.1895-6.6156-8.9648-1.9174l-.0016-.0023A3.9806,3.9806,0,0,1,14.95,22.16l.0035.0057a1.8071,1.8071,0,0,0,.0536,3.4006c-1.5533,2.1642,2.1226,3.9812,3.6,2.2714a10.3857,10.3857,0,0,0,.7574-.8153s5.066-1.2395,4.0851,7.13,3.4457,8.3694,3.4457,8.3694"/>
    <path fill="none" stroke="#000" stroke-linecap="round" stroke-linejoin="round" stroke-width="2" d="M54.1143,35.9694c1.0884-.0093,8.551-.5206,7.0032,6.1239"/>
    <path fill="none" stroke="#000" stroke-linecap="round" stroke-linejoin="round" stroke-width="2" d="M39.4622,53.6914a24.4771,24.4771,0,0,0,.524,2.8648,1.0148,1.0148,0,0,1-.7273,1.26,31.6692,31.6692,0,0,1-5.5333.65c-2.6063,0-2.8959,1.6026-2.8959,2.4663H48.8025s.213-2.4061-1.9392-2.4061a8.601,8.601,0,0,1-3.6219-.5026,1.4,1.4,0,0,1-.705-1.2257"/>
    <path fill="none" stroke="#000" stroke-linecap="round" stroke-linejoin="round" stroke-width="2" d="M38.06,36.7031c2.418,1.9988.1612,4.7715.1612,4.7715,2.8,2.155,1.4943,4.4257,1.4943,4.4257-2.9392,1.7195-4.9587-1.88-4.9587-1.88a7.6461,7.6461,0,0,0-1.58-1.98,3.1488,3.1488,0,0,1-.72-3.0192"/>
    <path fill="none" stroke="#000" stroke-linecap="round" stroke-linejoin="round" stroke-width="2" d="M59.5316,40.7388s4.4782,2.9654,2.5417,5.656c-2.0167,2.802-4.4987-.0152-4.4987-.0152s.2109,2.28-1.7359,2.4538c-1.3735.1222-1.9687-1.52-2.1872-2.0221"/>
  </g>
</g>
  <g transform="translate(28.204436681058098, 335.4874209992259) scale(1 1) translate(0, 0) scale(1.7777777777777777 1.7777777777777777) "><g id="color">
    <path fill="#3F3F3F" stroke="none" d="M45,12c0.964-0.9633,4.0386-2.304,4.3591-2.9468c0.1525-0.3049-0.6522-0.8271-0.964-0.964 c-0.9577-0.4188-3.213,0-4.177-0.1606c-3.5341-1.7668-6.1043-2.0879-8.3527-1.1245c-3.5341,1.6068-4.1764,5.7826-4.1764,7.3894 c0,1.4488-0.0815,4.3556-0.3217,5.7826c-0.0971,0.5769-0.4145,1.7114-0.6422,2.2497c-0.6428,2.249-2.2497,4.4981-3.5348,6.1043 c-0.9248,1.1569-8.6744,9.9602-9.9595,12.5303c-1.1538,2.236-4.1764,7.3894-2.8913,9.3167 c1.3106,0.1879,1.6062-4.1764,8.0447-9.3167C23.9415,39.4529,26.5249,36.8275,27,36c0.2251-0.3921,0.0085,1.548,0,2 c-0.1486,7.8633,1,12,0.9931,16.6751c0.4817,2.5702,0.5028,3.4918,0,4.4981c-1.4463,2.8913-4.0164,2.8913-4.6586,4.0164 c0,0,2.9989,2.09,9.8322-2.0498 M45.3795,38.845c1.1031,1.1148,4.1969,3.2073,4.975,3.9433 c1.942,1.8358,6.5844,8.3527,7.6235,7.3888c0.349-0.3211,0.8874-1.9479,0.6954-2.5708c-0.8143-2.6416-4.3123-7.9998-7.1632-12.9309 c-2.8824-4.9856-4.9433-9.3882-4.9433-9.3882l-3.2527-3.5616 M36.7544,61.4449c5.3265,4.4657,12.0519,0.9147,12.0519,0.9147 c0-0.5748-3.9442-2.6363-8.0167-4.7347"/>
    <path fill="#FFFFFF" stroke="none" stroke-linecap="round" stroke-linejoin="round" stroke-miterlimit="10" stroke-width="2" d="M32,14c0.0291,1.3236,7.2847,6.8282,11,1c0,0-1.0451,11.0186,1,15c2.3884,4.6498-0.4794,22.871-5,29 c-1.5278,2.0714-7.151,5.2303-10-5s-2-9.8618-2-16S34.5308,19,32,14z"/>
  </g>
  <g id="hair"/>
  <g id="skin"/>
  <g id="skin-shadow"/>
  <g id="line">
    <path fill="none" stroke="#000000" stroke-linecap="round" stroke-linejoin="round" stroke-miterlimit="10" stroke-width="2" d="M32,14c0.0291,1.3236,7.2847,6.8282,11,1c0,0-1.0451,11.0186,1,15c2.3884,4.6498-0.4794,22.871-5,29 c-1.5278,2.0714-7.151,5.2303-10-5s-2-9.8618-2-16S34.5308,19,32,14z"/>
    <path fill="none" stroke="#000000" stroke-linecap="round" stroke-linejoin="round" stroke-miterlimit="10" stroke-width="2" d="M45,12c0.964-0.9633,4.0386-2.304,4.3591-2.9468c0.1525-0.3049-0.6522-0.8271-0.964-0.964c-0.9577-0.4188-3.213,0-4.177-0.1606 c-3.5341-1.7668-6.1043-2.0879-8.3527-1.1245c-3.5341,1.6068-4.1764,5.7826-4.1764,7.3894c0,1.4488-0.0815,4.3556-0.3217,5.7826 c-0.0971,0.5769-0.4145,1.7114-0.6422,2.2497c-0.6428,2.249-2.2497,4.4981-3.5348,6.1043 c-0.9248,1.1569-8.6744,9.9602-9.9595,12.5303c-1.1538,2.236-4.1764,7.3894-2.8913,9.3167 c1.3106,0.1879,1.6062-4.1764,8.0447-9.3167C23.9415,39.4529,26.5249,36.8275,27,36c0.2251-0.3921,0.0085,1.548,0,2 c-0.1486,7.8633,1,12,0.9931,16.6751c0.4817,2.5702,0.5028,3.4918,0,4.4981c-1.4463,2.8913-4.0164,2.8913-4.6586,4.0164 c0,0,2.9989,2.09,9.8322-2.0498 M47.9654,39.92c1.0227,1.1148,2.2772,2.1323,2.9986,2.8683 c1.8004,1.8358,6.1043,8.3527,7.0676,7.3888c0.3236-0.3211,0.8227-1.9479,0.6447-2.5708 c-1.9279-6.7465-9.0089-15.028-12.7614-21.5495 M39.8668,62.2657c4.7581,1.8332,8.5087,0.4778,8.5087,0.4778 c-0.2625-0.3716-2.9493-1.8113-4.4778-2.4"/>
  </g>
</g>
  <g transform="translate(121.62548576813748, 157.4884835388661) scale(1 1) translate(0, 0) scale(1.7777777777777777 1.7777777777777777) "><g id="color">
    <path fill="#A57939" stroke="none" d="M16.7701,49.5304c0,0-5.6081-13.4595,14.5811-12.3379c0,0,4.4865-20.1893,32.5272-26.919 c0,0,5.6081,26.919-23.5541,38.1353c0,0,0,8.973,8.973,11.2163c1.2317,0.3079,3.0236-0.3413,3.3649,0 c2.2433,2.2433-12.3379,4.4865-15.7028,3.3649v-6.7298c0,0-7.8514,0-11.2163-8.973 C25.7431,47.2871,23.4998,42.8006,16.7701,49.5304z"/>
    <path fill="#6A462F" stroke="none" d="M33.5945,30.3411c0,0,0-20.0676,6.7298-23.4325c0,0,5.6081,4.4865,4.4865,11.2163L33.5945,30.3411z"/>
    <path fill="#FFFFFF" stroke="none" d="M26.2427,46.3372c0,0-4.1575-2.4149-9.3514,3.1932c0,0-6.4923-13.1612,15.5815-12.7495L26.2427,46.3372z"/>
    <polygon fill="#FCEA2B" stroke="none" points="16.1536,43.2699 20.0972,45.7027 16.7701,48.4087"/>
  </g>
  <g id="hair"/>
  <g id="skin"/>
  <g id="skin-shadow"/>
  <g id="line">
    <path fill="none" stroke="#000000" stroke-linecap="round" stroke-linejoin="round" stroke-miterlimit="10" stroke-width="2" d="M43.6891,14.76c0-4.4865-3.3649-6.7298-3.3649-6.7298c-6.7298,4.4865-6.7298,17.946-7.8514,24.6758 c-0.4206,2.5237-0.6835,3.6278-1.321,4.1207c-1.0625,0.8215-3.1655-0.0548-8.7737,1.1136 c-8.973,1.8694-5.6081,11.5901-5.6081,11.5901c6.7298-6.7298,8.973-2.2433,8.973-2.2433 c3.3649,10.0946,10.0946,8.973,10.0946,8.973c1.1216,4.4865,0,6.7298,0,6.7298c3.3649,3.3649,26.919-3.3649,15.2354-4.1126 c-11.6836-0.7478-10.7489-10.4685-10.7489-10.4685c4.1408-2.3005,7.6106-4.6848,10.5155-7.0871c0,0,0.7008-1.8859-1.5425-7.494"/>
    <path fill="none" stroke="#000000" stroke-linecap="round" stroke-linejoin="round" stroke-miterlimit="10" stroke-width="2" d="M31.3512,37.1925c1.1216-7.8514,13.4595-17.946,13.4595-17.946S57.1486,10.2735,65,10.2735c0,0,0,16.8244-10.0946,28.0406 c0,0,0-6.7298-2.2433-8.973"/>
    <path fill="none" stroke="#000000" stroke-linecap="round" stroke-linejoin="round" stroke-miterlimit="10" stroke-width="2" d="M30.0193,54.2272L29.108,59.625c0,0-3.3775-1.1341-4.4865,0"/>
    <path fill="none" stroke="#000000" stroke-linecap="round" stroke-linejoin="round" stroke-miterlimit="10" stroke-width="2" d="M29.108,59.625c0,0,2.2433,0,2.2433,1.1216"/>
  </g>
</g>
  <g transform="translate(287.0659474421349, 43.29317807212584) scale(1 1) translate(0, 0) scale(1.7777777777777777 1.7777777777777777) "><g id="color">
    <path fill="#9B9B9A" stroke="#9B9B9A" stroke-linecap="round" stroke-linejoin="round" stroke-miterlimit="10" stroke-width="1.8" d="M30,29l-3,2c-9.5,4.375-2,30-2,30s8.75-9.25,15.875-10.125S51.75,36.75,50,32l-2-4"/>
    <path fill="#9B9B9A" stroke="none" d="M30,30c0,0-6.5-5.5-0.25-14.75c0,0-0.75-3.25-2.75-3.25s5-3,6,1c0,0,7-3,11,0c0,0,5.25-3.5,7.125-1.75 C51.125,11.25,47,14,49,16s4,10-1,14"/>
    <path fill="#A57939" stroke="none" d="M40,30c0,0-10,0-10-7.875c0-8.7341,8.1907-4.7359,9-3.125c0,0,7-6,9.125,1.5C50.1834,27.7649,40,30,40,30z"/>
    <path fill="#A57939" stroke="none" d="M25.0192,59c0,0-0.8782-7,1.9027-9S40,40,37,35"/>
  </g>
  <g id="hair"/>
  <g id="skin"/>
  <g id="skin-shadow"/>
  <g id="line">
    <path fill="none" stroke="#000000" stroke-linecap="round" stroke-linejoin="round" stroke-miterlimit="10" stroke-width="1.5" d="M37,22c0,0,0.5-1.5-3-2"/>
    <path fill="none" stroke="#000000" stroke-linecap="round" stroke-linejoin="round" stroke-miterlimit="10" stroke-width="1.5" d="M41,22c0,0-0.5-1.5,3-2"/>
    <polyline fill="none" stroke="#000000" stroke-linecap="round" stroke-linejoin="round" stroke-miterlimit="10" stroke-width="1.5" points="37.625,25.43 39.375,27 41.375,25.3438"/>
    <path fill="none" stroke="#000000" stroke-linecap="round" stroke-linejoin="round" stroke-miterlimit="10" stroke-width="2" d="M38,60c0,0,1-4-5-3v-2.375"/>
    <path fill="none" stroke="#000000" stroke-linecap="round" stroke-linejoin="round" stroke-miterlimit="10" stroke-width="2" d="M43,57.375c0,0,1-4-5-3V52"/>
    <path fill="none" stroke="#000000" stroke-linecap="round" stroke-linejoin="round" stroke-miterlimit="10" stroke-width="2" d="M30,30c0,0-6.5-5.5-0.25-14.75c0,0-0.75-3.25-2.75-3.25s5-3,6,1c0,0,7-3,11,0c0,0,5.25-3.5,7.125-1.75C51.125,11.25,47,14,49,16 s4,10-1,14"/>
    <path fill="none" stroke="#000000" stroke-linecap="round" stroke-linejoin="round" stroke-miterlimit="10" stroke-width="2" d="M40,30c0,0-10,0-10-7.875c0-8.7341,8.1907-4.7359,9-3.125c0,0,7-6,9.125,1.5C50.1834,27.7649,40,30,40,30z"/>
    <path fill="none" stroke="#000000" stroke-linecap="round" stroke-linejoin="round" stroke-miterlimit="10" stroke-width="2" d="M27,31c-9.5,4.375-2,30-2,30s8.75-9.25,15.875-10.125S51.75,36.75,50,32"/>
    <path fill="none" stroke="#000000" stroke-linecap="round" stroke-linejoin="round" stroke-miterlimit="10" stroke-width="2" d="M25,59c0,0-0.75-7,1.625-9S37,41,36,35"/>
  </g>
</g>
  <g transform="translate(486.6254057072357, 19.06227287881734) scale(1 1) translate(0, 0) scale(1.7777777777777777 1.7777777777777777) "><g id="color">
    <path fill="#d22f27" d="M31.6975,20.781a7.3117,7.3117,0,0,1-3.0456-5.8955,7.5631,7.5631,0,0,1,7.6947-7.424,7.7334,7.7334,0,0,1,7.689,7.1139c.1765,3.1324.0058,6.3177.0058,9.455v1.7054c1.5,1.79,4.0184,5.4063,5.919,15.99.4,2.2264,4.4292,12.201,4.7353,15.99-.7893.3807-1.5784,1.9036-2.3677,2.2843-.4122-1.7023-4.8688-12.1253-7.1028-13.7057a8.471,8.471,0,0,0-2.3676-1.1421c-2.1077-.71-3.9029-1.3173-5.429-1.89a6.0469,6.0469,0,0,1-2.8577.7475c-4.5765,0-8.2866-5.3692-8.2866-11.9924C26.2843,26.8587,28.54,22.4737,31.6975,20.781Z"/>
    <path fill="#f1b31c" d="M27.8238,16.864l-.003-.0145,1.7367,2.2186a3.4693,3.4693,0,0,1-5.3388-.749Z"/>
    <path fill="#d22f27" d="M29.8021,32.5882c-.0114-3.5853,1.6194-7.117,5.1825-8.5828a7.1956,7.1956,0,0,1,5.5074-.0042c2.9734,1.276,4.6026,4.4632,5.7132,7.5022a66.7013,66.7013,0,0,1,2.61,9.38c.2643,1.2761.4358,2.5771.6448,3.863.16.9815,1.1217,3.6747.7448,4.5942-.55,1.3419-5.7909-.4749-6.967-.941A25.49,25.49,0,0,1,36.3318,44.2a19.4484,19.4484,0,0,1-5.5989-7.0507A11.7711,11.7711,0,0,1,29.8021,32.5882Z"/>
    <path fill="#1e50a0" d="M30.962,27.6954c-.0026.1084-.0181.2156-.0178.3242a11.7726,11.7726,0,0,0,.9309,4.5612,19.4463,19.4463,0,0,0,5.5989,7.0507A25.4882,25.4882,0,0,0,44.38,43.8307a23.78,23.78,0,0,0,5.1828,1.3938c.2907,1.1925.9688,3.3188.6421,4.1158-.55,1.3419-5.7909-.4749-6.967-.941A25.4938,25.4938,0,0,1,36.3318,44.2a19.4484,19.4484,0,0,1-5.5989-7.0507,11.7731,11.7731,0,0,1-.9308-4.5613A10.3962,10.3962,0,0,1,30.962,27.6954Z"/>
    <path fill="#fcea2b" d="M28.7246,10.9187a7.3027,7.3027,0,0,0-.8762,5.9453L23.08,18.779A7.48,7.48,0,0,1,23,17.7408,6.6464,6.6464,0,0,1,28.7246,10.9187Z"/>
    <path fill="#fff" d="M31,10c-.1248-.0181-.2732-.02-.4079-.0312A7.2164,7.2164,0,0,0,31.6974,20.781c-.0874.0469-.1714.1034-.2575.1544A8.1279,8.1279,0,0,0,37,18a6.5956,6.5956,0,0,0,1-2C37.6238,15.2173,35.3359,10.63,31,10Z"/>
  </g>
  <g id="line">
    <path fill="none" stroke="#000" stroke-miterlimit="10" stroke-width="2" d="M29.8021,32.5882c-.0114-3.5853,1.6194-7.117,5.1825-8.5828a7.1956,7.1956,0,0,1,5.5074-.0042c2.9734,1.276,4.6026,4.4632,5.7132,7.5022a66.7013,66.7013,0,0,1,2.61,9.38c.2643,1.2761.4358,2.5771.6448,3.863.16.9815,1.1217,3.6747.7448,4.5942-.55,1.3419-5.7909-.4749-6.967-.941A25.49,25.49,0,0,1,36.3318,44.2a19.4484,19.4484,0,0,1-5.5989-7.0507A11.7711,11.7711,0,0,1,29.8021,32.5882Z"/>
    <path fill="none" stroke="#000" stroke-linecap="round" stroke-linejoin="round" stroke-width="2" d="M27.8484,16.864,23.08,18.779A7.48,7.48,0,0,1,23,17.7408a6.6464,6.6464,0,0,1,5.7246-6.8221"/>
    <path fill="none" stroke="#000" stroke-linecap="round" stroke-linejoin="round" stroke-width="2" d="M52.769,53.4211a24.8711,24.8711,0,0,1,.9267,4.2946c-.7615.3807-1.5229,1.9036-2.2843,2.2843a50.4224,50.4224,0,0,0-2.282-5.8286C48.4063,52.548,47.48,51.4162,46.6957,50"/>
    <path fill="none" stroke="#000" stroke-linecap="round" stroke-linejoin="round" stroke-width="2" d="M29.5575,19.0681a3.4693,3.4693,0,0,1-5.3388-.749"/>
    <line x1="34.6957" x2="34.6957" y1="45" y2="52" fill="none" stroke="#000" stroke-linecap="round" stroke-linejoin="round" stroke-width="2"/>
    <line x1="57.0873" x2="61" y1="52" y2="52" fill="none" stroke="#000" stroke-linecap="round" stroke-linejoin="round" stroke-width="2"/>
    <line x1="13" x2="42.9895" y1="52.1722" y2="52.1722" fill="none" stroke="#000" stroke-linecap="round" stroke-linejoin="round" stroke-width="2"/>
    <path fill="none" stroke="#000" stroke-linecap="round" stroke-linejoin="round" stroke-width="2" d="M34.2793,44.01c-4.4155,0-7.995-5.3692-7.995-11.9924,0-5.1589,2.1758-9.5439,5.2226-11.2366A7.4106,7.4106,0,0,1,35.9924,7.4615a7.5768,7.5768,0,0,1,7.4184,7.1139c.12,2.2168.0732,4.46.0353,6.6942-.0156.9227-.03,1.8438-.03,2.7608v1.7054"/>
    <path fill="none" stroke="#000" stroke-linecap="round" stroke-linejoin="round" stroke-width="2" d="M31.6974,20.781c-.0874.0469-.1714.1034-.2575.1544A8.1279,8.1279,0,0,0,37,18a6.5956,6.5956,0,0,0,1-2c-.3762-.7827-2.6641-5.37-7-6-.1248-.0181-.2732-.02-.4079-.0312"/>
    <line x1="40.6957" x2="40.6957" y1="48" y2="52" fill="none" stroke="#000" stroke-linecap="round" stroke-linejoin="round" stroke-width="2"/>
  </g>
</g>
  <g transform="translate(674.5871936270851, 90.34677632466406) scale(1 1) translate(0, 0) scale(1.7777777777777777 1.7777777777777777) "><g id="color">
    <path fill="#6A462F" stroke="none" d="M40.203,22c0,0,3.1218-9,11.4467-4c0,0,8.585,0.75,8.9753,3.375c0,0-7.9346,1.625-10.0159,5.625 s3.1218,7-5.3331,15.625c0,0-4.0324,4.375-10.276,4.375c0,0-22,3-25,0"/>
    <path fill="#A57939" stroke="none" d="M10.125,46.875C10.125,46.875,35,24,43,25s2,13.25-5.5,17.625S10.125,46.875,10.125,46.875z"/>
  </g>
  <g id="hair"/>
  <g id="skin"/>
  <g id="skin-shadow"/>
  <g id="line">
    <line x1="32.625" x2="37" y1="55.625" y2="54" fill="none" stroke="#000000" stroke-linecap="round" stroke-linejoin="round" stroke-miterlimit="10" stroke-width="2"/>
    <path fill="#000000" stroke="none" d="M42.8504,29.4692c-0.7444-0.1428-0.9348,0.5114-0.9348,0.5114h-0.0005c-0.6837,2.166-3.0652,7.1369-10.4871,10.0829 l0.006,0.0082c0,0-0.7619,0.2029-0.443,1.0278c0.2757,0.7122,0.9802,0.5552,1.1667,0.4988 c8.3025-3.3272,10.7819-9.1109,11.4476-11.3398C43.6638,30.0615,43.5899,29.6108,42.8504,29.4692z"/>
    <path fill="none" stroke="#000000" stroke-linecap="round" stroke-linejoin="round" stroke-miterlimit="10" stroke-width="2" d="M31.625,40.875C31.625,40.875,40,39,43,29"/>
    <path fill="none" stroke="#000000" stroke-linecap="round" stroke-linejoin="round" stroke-miterlimit="10" stroke-width="2" d="M41,22c0,0,3-9,11-4c0,0,8.25,0.75,8.625,3.375C60.625,21.375,53,23,51,27s3,7-5.125,15.625C45.875,42.625,42,47,36,47l-1,2l2,5 l6,1"/>
    <path fill="none" stroke="#000000" stroke-linecap="round" stroke-linejoin="round" stroke-miterlimit="10" stroke-width="2" d="M10.125,46.875C10.125,46.875,35,24,43,25s2,13.25-5.5,17.625S10.125,46.875,10.125,46.875z"/>
  </g>
</g>
  <g transform="translate(807.8915307743482, 240.81626774161725) scale(1 1) translate(0, 0) scale(1.7777777777777777 1.7777777777777777) "><g id="color">
    <path fill="#ffa7c0" d="m59.65 41.31c-5.498-1.291-8.709-8.777-12.95-11.61-4.4-2.9-11.6-3.8-16.1-0.3-2.1 1.6-3 3.8-3.5 5.2-0.5 0.2-1.2 0.3-1.8-0.1-0.5-0.3-1.1-1.2-0.8-4.2 0.5-5.1 2.3-5.9 2-9.2-0.3-2.4-1.4-4-2-4.8-1-1.3-2.5-3.5-4.7-3.3-1.7 0.1-2.8 1.5-3.1 2-1.8 0-3.2 1.1-3.7 2.5-0.7 2.1 1.2 4.3 1.7 4.2 0.3-0.1 0.1-1 0.6-2.3 0.4-0.9 1.1-0.8 1.6-1.2 1 0 1.8 0.8 2.8 0.8 0.6 0 1.9-0.7 1.9-0.7 0.5974 1.671 1.542 2.286-0.866 5.933-0.5 1.2-1.434 6.867-0.234 10.17 0.3 1 1.016 3.861 5.216 5.061 0.5 0.7 1.884 0.9394 3.484 1.739 2.4 1.3 4.6 1.1 5.5 1 6.543 4.17 18.53 1.505 24.95-0.8911z"/>
  </g>
  <g id="line" fill="none" stroke="#000" stroke-linecap="round" stroke-linejoin="round" stroke-miterlimit="10" stroke-width="2">
    <path d="m36.34 54.67 2.1-2.1 14.41-4.391-10.89-3.743m-2.445 0.1811c1.2 3.2 2.894 10.59 2.894 10.59s-0.4 4.1-0.8 7.2"/>
    <path d="m21.63 24.69c-0.5 1.2-2.366 6.681-1.166 9.981 0.3 1 1.219 4.228 5.419 5.428 2.472 2.046 5.248 2.796 8.65 2.4 1.15 1.2 6.75 2.1 9.25 2 4.5-0.2 7.296-2.768 15.6-2.104-6.324-6.558-8.521-8.792-12.62-11.53-4.4-2.9-11.87-5.068-16.37-1.568-2.1 1.6-1.818 4.41-3.5 5.2-0.5 0.2-1.2 0.3-1.8-0.1-0.5-0.3-1.1-1.2-0.8-4.2 0.5-5.1 2.3-5.9 2-9.2-0.3-2.4-1.4-4-2-4.8-1-1.3-2.5-3.5-4.7-3.3-1.7 0.1-2.8 1.5-3.1 2-1.8 0-3.2 1.1-3.7 2.5-0.7 2.1 1.2 4.3 1.7 4.2 0.3 0 1.7-3.2 2.5-3.1 1 0 1.5 1.3 2.5 1.4 1.3 0.1 1.9-0.7 1.9-0.7"/>
  </g>
</g>
  <g>
    <defs/>
    <path d="M 570.3579427281613 616.3862530329968 L 500.0 500.0 L 468.39882430102375 439.7889902555817" fill="none" stroke="black" stroke-width="12.8"/>
    <path d="M 690.7433135078246 572.3393969566773 L 627.1622090052164 548.2262646377849 A 136.0 136.0 0 0,1 483.6070114852761 635.0084068773353 L 467.21402297055215 770.0168137546707" fill="none" stroke="black" stroke-width="12.8"/>
    <path d="M 840.0 500.0 L 704.0 500.0 A 204.0 204.0 0 0,1 652.6961926269046 635.2770222811222 L 703.5949235025395 680.3693630414963" fill="none" stroke="black" stroke-width="12.8"/>
    <path d="M 801.0550487220914 658.0058784948812 L 740.8440389776731 626.404702795905 A 272.0 272.0 0 0,1 654.5136111108744 723.8516115230746 L 693.1420138885929 779.8145144038432" fill="none" stroke="black" stroke-width="12.8"/>
    <path d="M 540.9824712868099 837.5210171933384 L 532.7859770294478 770.0168137546707 A 272.0 272.0 0 0,1 403.5474707244303 754.3244180104329 L 379.43433840553786 817.905522513041" fill="none" stroke="black" stroke-width="12.8"/>
    <path d="M 259.15596102232695 626.4047027959051 L 439.7889902555817 531.6011756989762 A 68.0 68.0 0 0,1 560.2110097444183 468.39882430102375 L 801.0550487220914 341.99412150511876" fill="none" stroke="black" stroke-width="12.8"/>
    <line stroke="black" stroke-width="12.8" x1="451.9167388793148" x2="403.8334777586295" y1="451.9167388793148" y2="403.83347775862956"/>
    <path d="M 245.5063456218256 725.4617038018704 L 296.40507649746047 680.3693630414963 A 272.0 272.0 0 0,1 235.90382566011385 565.0938606862157 L 169.87978207514232 581.3673258577696" fill="none" stroke="black" stroke-width="12.8"/>
    <path d="M 169.87978207514226 418.6326741422305 L 367.9519128300569 467.4530696568922 A 136.0 136.0 0 0,1 467.4530696568921 367.9519128300569 L 451.17960448533825 301.9278692450854" fill="none" stroke="black" stroke-width="12.8"/>
    <path d="M 245.50634562182566 274.5382961981296 L 347.3038073730954 364.72297771887776 A 204.0 204.0 0 0,1 572.3393969566773 309.2566864921754 L 596.4525292755696 245.67558198956718" fill="none" stroke="black" stroke-width="12.8"/>
    <line stroke="black" stroke-width="12.8" x1="427.6606030433227" x2="379.4343384055378" y1="309.2566864921754" y2="182.09447748695902"/>
    <path d="M 540.9824712868099 162.47898280666163 L 532.785977029448 229.9831862453293 A 272.0 272.0 0 0,1 654.5136111108743 276.14838847692545 L 693.1420138885929 220.18548559615675" fill="none" stroke="black" stroke-width="12.8"/>
  </g>
</svg>
