<?xml version='1.0' encoding='ASCII' standalone='yes'?>
<svg xmlns="http://www.w3.org/2000/svg" xmlns:xlink="http://www.w3.org/1999/xlink" version="1.1" width="1000.0px" viewBox="0 0 1000.0 1000.0" height="1000.0px">
  <g transform="translate(856.0, 436.0) scale(1 1) translate(0, 0) scale(1.7777777777777777 1.7777777777777777) "><g id="color">
    <path fill="#F4AA41" stroke="none" d="M17.2127,12.75l-1.0877,5l-2.2873,0.5625L12.002,20.305l-5.4986,0.6325l-0.3532,1.5l1.8421,3.0837 L15,27.3125l0.9529,9.8949l0.6348,3.9176l4.9409,3.7104l1.9909,6.1514l-0.7999,7.5348l0.7999,3.4576l2.5682-1.1364l1.8939-4.9315 L30.0877,46.5l3.3698,0.875l7.5502-0.875l8.0799-2.1875l2.9401,3.8826l2.9349,3.9953l0.4375,7.6221l1.1875,2.0921l3.1135-0.9228 L60,51.7255l-1.9497-6.1068l1.2924-6.7437l-0.9426-3.4375l1-0.0625l-0.625-2.0625c0,0,5.2823-4.222,5.3125-9.875 c0.038-7.1042-7.2917-13.6042-12.5833-11.1042l1.1133,1.206L56.8377,15l2.9569,3.9292l0.2594,5.8833l-2.8497,2.9946 c0,0-3.4179,1.3181-3.6082,1.3356c-0.1902,0.0176-3.3571-0.3725-3.7821-0.437c-0.425-0.0645-7.6642-0.2238-7.9142-0.2257 C41.6499,28.4782,28,28.375,28,28.375l-1.7632-5.0032l-2.0795-2.8127l-2.3318-1.6423l-1.1121-2.9453L19.5877,13.75L17.2127,12.75z"/>
    <path fill="#E27022" stroke="none" d="M44.296,45.1562l1.2083,3.5938l4.2567,2.9475l-0.2439,6.3442l0.6122,3.863l3.1667,0.512 c0,0,2.25-0.6667,2.7917-3.5833l-0.75-7.875l-3.5-3.5l-2.5417-4.2917L44.296,45.1562z"/>
    <path fill="#E27022" stroke="none" d="M16.6754,39.7993l-5.5255,7.6721c-0.0134,0.0187-0.0215,0.0407-0.0232,0.0636L10.7995,51.83 c-0.0022,0.0291,0.0058,0.0581,0.0227,0.0819l3.1895,4.498c0.0218,0.0307,0.0562,0.05,0.0937,0.0525l3.9491,0.2649 c0.0461,0.0031,0.0902-0.0195,0.1146-0.0587l1.1604-1.8636c0.0055-0.0088,0.0075-0.0108,0.0107-0.0206 c0.0453-0.1395,0.4485-2.6844-1.1605-2.8839c-1.8836-0.2336-2.0546-1.2336-1.6604-2.4479v0 c-0.0091-0.0473,0.0098-0.0956,0.0485-0.1243l5.5318-4.0882c0.0602-0.0445,0.0681-0.1316,0.0169-0.1863l-2.8728-3.0624 c-0.0194-0.0207-0.0418-0.0339-0.0699-0.0376c-0.3001-0.0395-2.229-0.3604-2.2747-2.0886 C16.8958,39.7484,16.7436,39.7047,16.6754,39.7993z"/>
  </g>
  <g id="hair"/>
  <g id="skin"/>
  <g id="skin-shadow"/>
  <g id="line">
    <path fill="none" stroke="#000000" stroke-linecap="round" stroke-linejoin="round" stroke-miterlimit="10" stroke-width="2" d="M58.6667,35.9167c0.6667,1.6979,0.8506,2.9638,0.5159,4.5011l-1.1322,5.2009L60,51.7255c0,0,0.1206,4.7698,0.0014,8.2786 c-0.0369,1.087-0.9494,1.9752-2.0371,1.9751l-0.3531,0c-1.3464,0-1.9256-1.3248-1.9256-2.6712l-0.8522-8.3913 c0,0-7.4907-5.4667-6.4583-13.6042"/>
    <path fill="none" stroke="#000000" stroke-linecap="round" stroke-linejoin="round" stroke-miterlimit="10" stroke-width="2" d="M33.5155,46.5c3.8333-0.2052,11.2345,0,14.9845-2.6875"/>
    <path fill="none" stroke="#000000" stroke-linecap="round" stroke-linejoin="round" stroke-miterlimit="10" stroke-width="2" d="M51.6253,13.25c5.7603,1.5458,8.0746,4.2902,8.6494,7.2047c1.0392,5.269-4.012,9.798-9.2239,8.5024 c-2.5257-0.6278-4.6488-0.4429-4.6488-0.4429L28,28.375c-1.6875-8.125-6.4473-9.565-6.4473-9.565 c-0.8653-5.56-4.3027-5.56-4.3027-5.56l-0.6995,4.8391l-1.4644,0.2501c-0.7843,0.1339-1.5121,0.4951-2.0931,1.0387l-1.3525,1.2654 l-4.1141,0.4425c-0.7613,0.0819-1.229,0.8738-0.9332,1.5801l0.8806,2.1021c0.2896,0.6913,0.9063,1.1916,1.6425,1.3325 l6.4671,0.7328c0,0-1,13.1667,2.7292,15.1667c8.1309,4.3607,4.4071,16.5216,4.4071,16.5216 c-0.8217,1.4362-0.1868,3.4576,1.4679,3.4576h0.0015c0.7939,0,1.5235-0.4367,1.8987-1.1364l2.0998-5.4678l1.3773-9.1449 c0.1081-0.7178-0.0364-1.4427-0.3653-2.0898c-0.576-1.1333-1.2538-3.3607-0.137-6.5257"/>
    <path fill="none" stroke="#000000" stroke-linecap="round" stroke-linejoin="round" stroke-miterlimit="10" stroke-width="2" d="M16.2346,40.3005l-4.3515,6.655c-0.3212,0.4697-0.5044,1.03-0.5192,1.6187c-0.044,1.7553-0.2547,5.5414,2.9991,7.69 c0.8545,0.5642,2.4644,0.6389,3.3141,0.1114c0.7175-0.4455,1.3028-1.2911,0.7739-2.8914"/>
    <line x1="20.534" x2="16.125" y1="45.4366" y2="48.5164" fill="none" stroke="#000000" stroke-linecap="round" stroke-linejoin="round" stroke-miterlimit="10" stroke-width="2"/>
    <path fill="none" stroke="#000000" stroke-linecap="round" stroke-linejoin="round" stroke-miterlimit="10" stroke-width="2" d="M46.4167,48.5164c0.4329,1.5669,3.0772,3.003,4.25,3.7336l-1.0698,7.1428c0,0.6523,0.1869,1.281,0.5906,1.7322 c1.0625,1.1875,2.4301,0.6653,2.4301,0.6653"/>
  </g>
</g>
  <g transform="translate(819.6890922098924, 606.8293900918361) scale(1 1) translate(0, 0) scale(1.7777777777777777 1.7777777777777777) "><g id="color">
    <path fill="#9B9B9A" stroke="none" d="M53.2127,6.2105l-6.25,6c0,0-5.875-3.125-12-3.125s-10.75,3-10.75,3l-6.75-6l-3.25-0.375l-3,3.75l-1.5,7.5 c0,0-0.125,9.75,2.5,11.625s-2,13.25-2,13.25l3.375,6.75l8,5.625l2.75,1.875c0,0,3.3331,7.5833,10.9944,5.5959 c0,0,5.7556,3.4875,10.3806-5.4709l2.5-1.5l6.375-3.625l6-8.125c0,0-3.25-10.75-2.5-14.25s2.875-9.5,2.625-11.25s-2-8.625-2-8.625 S56.8377,4.0855,53.2127,6.2105z"/>
    <path fill="#3F3F3F" stroke="none" d="M12.421,45.5021c0,0,4.0833-10.25,10.1667-10l7.5833-0.4167l2.25,3.1667c0,0,0.9857,5.682-0.6702,9.5016 c-0.3188,0.7354,0.2502,1.5299,1.0442,1.4201c1.1109-0.1535,2.5407-0.2071,4.1332,0.0797c0.7536,0.1357,1.3819-0.5736,1.13-1.2966 c-0.6854-1.9673-1.4463-5.4314-0.5539-9.7882l2.75-2.9167l3.75,0.1667l3.5,0.5833c0,0,9.5-2,9.9167,10.25l2.6667-3.9167l-2.5-12.25 l1-2.5833l2-7.5l-1.0833-8.9167l-2.75-5.1667L52.671,6.0021l-4.4167,5.1667l-1.6667,0.6667l-5.25-1.8333l-9.25-0.6667 l-8.4167,2.8333l-6-6.8333l-3.5833-0.1667l-3.5,5.6667l-0.8333,6.9167l1.25,6.9167l1.5833,3.6667l-0.75,6.8333l-2,6.5 L12.421,45.5021z"/>
    <path fill="#3F3F3F" stroke="none" d="M29.489,53.0348c0,0,4.4375-2.5625,11.1875,0.125l0.0625,0.8125l-2.25,1.5l-0.9375,1.625 c0,0-1.3125,1.25-2,1c-0.6875-0.25-3-1.125-3-1.125l-0.75-1.5625l-2.625-1.4375l0.0625-0.875"/>
    <path fill="#9B9B9A" stroke="none" d="M55.2752,8.7105c0,0,5.25,8.5625,0.75,17.5c0,0-4.4375-6.5-7.9375-6.375 C48.0877,19.8355,55.1502,15.5855,55.2752,8.7105z"/>
    <path fill="#9B9B9A" stroke="none" d="M14.7227,8.7105c0,0-5.25,8.5625-0.75,17.5c0,0,4.4375-6.5,7.9375-6.375 C21.9102,19.8355,14.8477,15.5855,14.7227,8.7105z"/>
    <path fill="#9B9B9A" stroke="none" d="M29.1765,62.0759c0.1166,2.4426,0.8751,4.2037,2.6761,4.858h6.5847 c2.1107-0.7139,2.5376-2.4764,2.3018-4.6519L29.1765,62.0759"/>
  </g>
  <g id="hair"/>
  <g id="skin"/>
  <g id="skin-shadow"/>
  <g id="line">
    <circle cx="26.2495" cy="40.2751" r="2" fill="#000000" stroke="none"/>
    <circle cx="44.2944" cy="40.5106" r="2" fill="#000000" stroke="none"/>
    <path fill="none" stroke="#000000" stroke-linecap="round" stroke-linejoin="round" stroke-miterlimit="10" stroke-width="2" d="M29.3116,53.9749l2.375,1.3959c0,0,0.4899,2.9667,3.2712,2.748v3.5625c0,0-3.4688,1.7604-6.3438-0.5312 c-2.2371-1.7832-3.5938-4.6875-3.5938-4.6875"/>
    <path fill="none" stroke="#000000" stroke-linecap="round" stroke-linejoin="round" stroke-miterlimit="10" stroke-width="2" d="M21.739,53.3376c-3.8308-1.0774-6.3025-3.0804-7.8464-5.5039L9.871,42.3259c2.7739-7.0508,2.5763-14.1342,2.5763-14.1342 c-4.7083-8.6667-1.625-17.4583-1.625-17.4583c2.5417-8.2917,6.7917-5.0417,6.7917-5.0417c3.0417,5.1667,9.875,8.9167,9.875,8.9167"/>
    <path fill="none" stroke="#000000" stroke-linecap="round" stroke-linejoin="round" stroke-miterlimit="10" stroke-width="2" d="M15.614,9.2126c0,0,0.375,7.5,7.3125,10.375c0,0-6.6983,1.679-7.7816,6.3457"/>
    <path fill="none" stroke="#000000" stroke-linecap="round" stroke-linejoin="round" stroke-miterlimit="10" stroke-width="2" d="M54.8556,9.2126c0,0-0.375,7.5-7.3125,10.375c0,0,6.6983,1.679,7.7816,6.3457"/>
    <path fill="none" stroke="#000000" stroke-linecap="round" stroke-linejoin="round" stroke-miterlimit="10" stroke-width="2" d="M30.9474,40.5106c0,0,2.711-4.3812-1.25-5.6689c-2.7917-0.9075-6.2083,1.0584-6.2083,1.0584"/>
    <path fill="none" stroke="#000000" stroke-linecap="round" stroke-linejoin="round" stroke-miterlimit="10" stroke-width="2" d="M35.3321,61.6813c0,0,3.4688,1.7604,6.3438-0.5312c2.2371-1.7832,3.5938-4.6875,3.5938-4.6875"/>
    <path fill="none" stroke="#000000" stroke-linecap="round" stroke-linejoin="round" stroke-miterlimit="10" stroke-width="2" d="M40.6873,53.9749l-2.7917,1.3959c0,0-0.1566,2.9667-2.9378,2.748"/>
    <path fill="none" stroke="#000000" stroke-linecap="round" stroke-linejoin="round" stroke-miterlimit="10" stroke-width="2" d="M42.8008,14.9502c0,0,6.8333-3.75,9.875-8.9167c0,0,4.25-3.25,6.7917,5.0417c0,0,3.0833,8.7917-1.625,17.4583 c0,0-0.0675,7.3188,2.6299,13.7929l-4.6974,6.7357c-1.5598,2.0223-3.8715,3.6742-7.2242,4.6172"/>
    <path fill="none" stroke="#000000" stroke-linecap="round" stroke-linejoin="round" stroke-miterlimit="10" stroke-width="2" d="M39.3425,40.8524c0,0-2.7109-4.3812,1.25-5.6689c2.7917-0.9075,6.2083,1.0584,6.2083,1.0584"/>
    <path fill="none" stroke="#000000" stroke-linecap="round" stroke-linejoin="round" stroke-miterlimit="10" stroke-width="2" d="M24.6882,11.4515c0,0,7.9524-5.5773,21.3522,0"/>
    <path fill="none" stroke="#000000" stroke-linecap="round" stroke-linejoin="round" stroke-miterlimit="10" stroke-width="2" d="M31.3533,65.8686c2.7191,1.4858,5.2903,1.3535,7.75,0"/>
  </g>
</g>
  <g transform="translate(717.0348546707205, 748.1208267005055) scale(1 1) translate(0, 0) scale(1.7777777777777777 1.7777777777777777) "><g id="color">
    <path fill="#E27022" stroke="none" d="M17.1228,5.3057L13.7993,9.348l-2.1112,12.8954l2.5003,11.9161l-2.5003,5.0356l0.4829,11.3882l2.2344,4.5 c0,0,6.9323-3.3333,8.7656,3.9167l12.9023,3.8333l13.216-4.25l0.715-2.439l3.5745-2.2785l3.5235,0.5481l2.5725-6.1293L60.3119,42 l-1.7215-6.5752l-0.7776-1.2636l1.4468-4.7673l0.2177-8.9431l-0.9631-9.823l-1.7047-3.8692L54.171,4.6667l-5.1846,6.5784 l-5.482,6.707H42.171l-5.1591-1.4108l-9.1742,0.5805l-4.75-5.0384l-3.2746-5.1667L17.1228,5.3057"/>
    <path fill="#FFFFFF" stroke="none" d="M11.3377,45.0833c6.0422-0.6554,11.9908,4.5417,15.9913,10.0022h0l6.0087,2.2478l2.6566,0.7608 L39.046,57.25l5.7089-2.0836c0,0,5.0827-11.2498,15.9161-10.1392l-2.0833,8.2542L56.9002,55l-3.1875-0.8438l-3.0625,1.3865 l-1.5173,3.0909c0,0-3.5452,4.4554-12.8684,4.4497c-5.8283-0.0036-12.2601-1.375-13.473-4.484 c-0.8609-2.2069-3.8288-5.0369-3.8288-5.0369l-4.493,0.3564L11.3377,45.0833z"/>
    <path fill="#d0cfce" stroke="none" d="M28.796,60.9583c0,0-0.3695,3.5417,1.3778,5.0417c1.7472,1.5,6.4139,1.7083,6.4139,1.7083l5.9583-1.7917 c0,0,1.7083-1.6667,0.875-5l-2.75,0.7917l-6.4972,0.2083L28.796,60.9583z"/>
    <path fill="#FFFFFF" stroke="none" d="M57.671,7.375l-3.0417,2.0417L50.171,15.375L48.6294,22.5l0.2083,1.9583c0,0,5,8.375,11.25,0.2917 l-0.5833-8.5833l-0.9167-7.25L57.671,7.375z"/>
    <path fill="#FFFFFF" stroke="none" d="M14.2714,7.375l3.0417,2.0417l4.4583,5.9583l1.5417,7.125l-0.2083,1.9583c0,0-5,8.375-11.25,0.2917 l0.5833-8.5833l0.9167-7.25L14.2714,7.375z"/>
  </g>
  <g id="hair"/>
  <g id="skin"/>
  <g id="skin-shadow"/>
  <g id="line">
    <path fill="#000000" stroke="none" d="M29.0454,41.681c0,0-3.0393,1.5997-4.5092,1.0171c-1.4698-0.5826-2.2313-2.14-1.7007-3.4785 c0.5306-1.3386,2.1522-1.9514,3.622-1.3688C27.9274,38.4334,29.0454,41.681,29.0454,41.681z"/>
    <path fill="none" stroke="#000000" stroke-linecap="round" stroke-linejoin="round" stroke-miterlimit="10" stroke-width="2" d="M35.9943,56.9292c-1.513-0.2346-2.7355-0.9125-3.641-2.075v-0.698"/>
    <path fill="none" stroke="#000000" stroke-linecap="round" stroke-linejoin="round" stroke-miterlimit="10" stroke-width="2" d="M16.9156,10.2884c0,0,7.7517,5.915,5.3244,13.6668"/>
    <path fill="none" stroke="#000000" stroke-linecap="round" stroke-linejoin="round" stroke-miterlimit="10" stroke-width="2" d="M23.6069,58.0941c-1.4877-3.2886-4.481-4.3848-5.1857-4.2282l-3.5235,0.5481c-2.6622-2.6622-3.132-10.1791-3.132-10.1791 c-0.4337-4.7705,1.0302-8.0757,2.4227-10.0754l-0.3869-0.7301c-2.5056-6.1857-1.0179-15.6601-0.4698-21.6892 c0.3975-4.3723,2.6068-5.9162,3.7911-6.4345c0.4153-0.1818,0.8959-0.0599,1.1789,0.2943 c1.2956,1.6213,5.3162,6.5744,9.1241,10.4468c1.6822,1.7107,2.4508,3.2218,2.748,4.4518"/>
    <path fill="#000000" stroke="none" d="M42.9546,41.681c0,0,3.0393,1.5997,4.5092,1.0171c1.4698-0.5826,2.2313-2.14,1.7007-3.4785s-2.1522-1.9514-3.622-1.3688 C44.0726,38.4334,42.9546,41.681,42.9546,41.681z"/>
    <path fill="none" stroke="#000000" stroke-linecap="round" stroke-linejoin="round" stroke-miterlimit="10" stroke-width="2" d="M36.0733,61.7083v-4.7791c1.513-0.2346,2.7355-0.9125,3.641-2.075v-0.698"/>
    <path fill="none" stroke="#000000" stroke-linecap="round" stroke-linejoin="round" stroke-miterlimit="10" stroke-width="2" d="M43.7468,50.1562l1.1745,5.8367c0,0,0,6.6555-7.4385,6.1074h-2.8978c-7.4385,0.5481-7.4385-6.1074-7.4385-6.1074l1.1745-5.8367"/>
    <path fill="none" stroke="#000000" stroke-linecap="round" stroke-linejoin="round" stroke-miterlimit="10" stroke-width="2" d="M55.0844,10.2884c0,0-7.7517,5.915-5.3244,13.6668"/>
    <path fill="none" stroke="#000000" stroke-linecap="round" stroke-linejoin="round" stroke-miterlimit="10" stroke-width="2" d="M48.3931,58.0941c1.4877-3.2886,4.481-4.3848,5.1857-4.2282l3.5235,0.5481c2.6622-2.6622,3.132-10.1791,3.132-10.1791 c0.4336-4.7691-1.0294-8.0739-2.4216-10.0737l0.3858-0.7317c2.5056-6.1857,1.0179-15.6601,0.4698-21.6892 c-0.3975-4.3723-2.6068-5.9162-3.7911-6.4345C54.4619,5.1239,53.9814,5.2458,53.6983,5.6 c-1.2956,1.6213-5.3162,6.5744-9.1241,10.4468c-1.7324,1.7618-2.4958,3.3118-2.7734,4.5611"/>
    <path fill="none" stroke="#000000" stroke-linecap="round" stroke-linejoin="round" stroke-miterlimit="10" stroke-width="2" d="M41.6672,65.4494c-3.804,2.0509-7.418,2.0886-10.8055,0"/>
    <path fill="none" stroke="#000000" stroke-linecap="round" stroke-linejoin="round" stroke-miterlimit="10" stroke-width="2" d="M29.0178,17.9521c0,0,6.0552-3.1842,13.7809-0.1044"/>
  </g>
</g>
  <g transform="translate(565.7871376374779, 835.4437368439644) scale(1 1) translate(0, 0) scale(1.7777777777777777 1.7777777777777777) "><g id="color">
    <path fill="#9b9b9a" d="M51.8936,28.6849a13.2108,13.2108,0,0,1-3.246-1.768.0709.0709,0,0,1-.0374-.0187.029.029,0,0,0-.0187-.0094c-.2526-.2245-.5052-.43-.7484-.6267a17.9469,17.9469,0,0,0-5.4256-3.4331,1.8966,1.8966,0,0,1-.6548-.5332.13.13,0,0,1-.028-.0374C38.8722,18.6476,30.64,16.7767,25.57,17.3192a14.1218,14.1218,0,0,0-1.7774.3087h-.028c-.4491.0094-9.3451,1.2068-14.4807,11.4779a.2059.2059,0,0,0-.0281.0468A27.6884,27.6884,0,0,0,7.8809,32.408l-.1964.6454c-.0468.1684-.0936.3274-.131.4958-1.029,4.4714.1123,11.2721,1.9551,15.9587.0093.0093.0093.0093.0093.0187,1.1881,2.9841,2.6567,5.1075,4.0412,5.1917.8232.0655,1.6276-.6174,2.3012-2.2918a1.4018,1.4018,0,0,0,.1309-.4116,1.3129,1.3129,0,0,0-.2058-.9261,4.895,4.895,0,0,1-.5612-1.1132,4.9728,4.9728,0,0,1-.1965-.5987,6.988,6.988,0,0,1,0-3.48c.0094-.0655.0281-.131.0468-.2058a12.9047,12.9047,0,0,0,.4116-2.9841.3151.3151,0,0,0,0-.0935,14.4452,14.4452,0,0,0-.3274-3.536c-.0842-.3836-.1591-.6361-.1778-.72.1029.1777.2152.3648.3274.5332a4.6226,4.6226,0,0,0,.4678-.7764,4.6638,4.6638,0,0,1,.4677,2.0392v.0187a14.1039,14.1039,0,0,0,7.1187,4.6211,1.3345,1.3345,0,0,1,.9355.9261l.2338.9448,1.5342,5.9027a1.2973,1.2973,0,0,0,1.1318.9635l8.1384.7671a1.2966,1.2966,0,0,0,1.4125-1.291,1.41,1.41,0,0,0-.0561-.3835,1.2914,1.2914,0,0,0-1.0758-.898l-2.4789-.3181a1.286,1.286,0,0,1-1.1225-1.4593l1.1693-8.3161,1.1974,1.45a1.0325,1.0325,0,0,0,.1309.1684l1.0945,1.8334,4.7146,7.8952.0655.0935a2.0939,2.0939,0,0,0,1.637.7858h3.957a2.0946,2.0946,0,0,0,1.7212-.898l.0187-.0281.1216-.1871a.9812.9812,0,0,0,.0655-.1029.5243.5243,0,0,0,.0374-.1122.7393.7393,0,0,0-.0655-.6268v-.0093a.3213.3213,0,0,0-.0842-.1123.7512.7512,0,0,0-.4958-.2713l-3.4424-.4209a.984.984,0,0,1-.159-.0374.5786.5786,0,0,1-.1123-.0468.8641.8641,0,0,1-.318-.3181.5892.5892,0,0,1-.0936-.2525.2905.2905,0,0,1-.0093-.0936.2576.2576,0,0,1-.0094-.0842l.29-4.9578.0936-1.6651a.375.375,0,0,1,.028-.14.8643.8643,0,0,1,.1965-.3649.5806.5806,0,0,1,.1777-.1309.6067.6067,0,0,1,.3087-.1029c.3274-.0281.6548-.0468.9729-.0561.0842,0,.1683-.0094.2525-.0094.15-.0093.2994-.0093.449-.0187.2433,0,.5052-.0187.7671-.0281.2058-.0187.4116-.0374.6268-.0561s.43-.0468.6548-.0842c.2338-.028.477-.0748.73-.1309a3.05,3.05,0,0,0,.3742-.0842c.131-.0281.2713-.0655.4116-.1029a.3875.3875,0,0,0,.0935-.0375.3429.3429,0,0,0,.1029-.0467,2.4357,2.4357,0,0,1,.2245-.1216,3.04,3.04,0,0,1,.4958-.2432,11.3809,11.3809,0,0,1,3.1338-.6642c.1777-.0187.3461-.0374.5238-.0468,1.9644-.15,4.1627-.1029,6.09-.0748,1.0851.0093,2.086.0187,2.9-.0187h.0375c.2619-.0094.5051-.0281.72-.0562a3.0477,3.0477,0,0,0,.3275-.0467,1.75,1.75,0,0,0,.2525-.0468,1.0155,1.0155,0,0,0,.1965-.0468.8862.8862,0,0,0,.5145-.2806.4089.4089,0,0,0,0-.449.56.56,0,0,0-.0842-.14l-.0094-.0094a.5678.5678,0,0,0-.1216-.14,2.5411,2.5411,0,0,0-.2245-.2245c-.1123-.1029-.2245-.2152-.3274-.3181a2.4743,2.4743,0,0,1-.3087-.318c-.1964-.2152-.3742-.44-.5519-.6642-.131-.159-.2526-.3274-.3742-.4958q-.2526-.3787-.4771-.7577a5.0972,5.0972,0,0,1-.2993-.5332,2.4059,2.4059,0,0,1-.1029-.2245c-.0842-.1684-.159-.3367-.2339-.4958-.0842-.1777-.15-.3461-.2245-.5145-.1309-.3274-.2432-.6361-.3367-.9354-.0468-.15-.0936-.2994-.131-.44-.0094-.0187-.0094-.028-.0187-.0467v-.0094a.3333.3333,0,0,0-.0187-.0935l-.15-.5894c0-.0093-.0093-.028-.0093-.0374V33.147a1.8476,1.8476,0,0,0-.1123-.29v-.0281c-.0374-.0748-.0655-.14-.1029-.2151a2.1114,2.1114,0,0,0-.1029-.2058,1.0587,1.0587,0,0,0-.1122-.1965,2.237,2.237,0,0,0-.1217-.1964,1.8735,1.8735,0,0,0-.1216-.1684,4.6327,4.6327,0,0,0-.3367-.4116c-.0187-.0187-.0281-.0374-.0468-.0468-.0748-.0748-.14-.15-.2152-.2151,1.0763.7281,2.0987-1.517.9542-2.32-.8494-.6821-2.1684,1.3268-1.5154,1.89-.0094-.0188-.0187-.0281-.0374-.0281a2.2277,2.2277,0,0,0-.1965-.1216c-.0187-.0187-.0374-.0374-.0561-.0281a2.097,2.097,0,0,0-.3742-.2058,5.1009,5.1009,0,0,0-.5238-.2058.0563.0563,0,0,1-.0374-.0093,4.1547,4.1547,0,0,0-.5894-.14.8064.8064,0,0,1-.1029-.0094c-.0748-.0093-.1777-.0187-.318-.0374-.0842-.0094-.1778-.0187-.2807-.0374s-.2058-.0281-.3274-.0468h-.0093c-.1216-.0187-.2619-.0468-.4023-.0655-.3087-.0561-.6641-.1216-1.0477-.2151a4.572,4.572,0,0,1-.4583-.1029c-.1591-.0375-.3274-.0749-.4865-.1216l-1.3852-3.3161Z"/>
    <path fill="#fff" d="M50.4029,41.8738a5.1555,5.1555,0,0,0-.72.3648.3466.3466,0,0,1-.1027.0468.3984.3984,0,0,1-.0937.0374,16.8885,16.8885,0,0,1-4.2656.5145,9.3122,9.3122,0,0,1,6.3423-4.9766,40.6948,40.6948,0,0,0,9.7286-3.9288,12.093,12.093,0,0,0,3.377,5.6968C67.8489,42.4818,55.2391,39.9187,50.4029,41.8738Z"/>
    <path fill="#3f3f3f" d="M63.471,38.3284a44.0343,44.0343,0,0,1-8.3441.6642,12.49,12.49,0,0,0-2.0767.0935,8.9826,8.9826,0,0,1,2.9747-1.2254,33.0442,33.0442,0,0,0,5.9589-2.0393A11.171,11.171,0,0,0,63.471,38.3284Z"/>
    <path fill="#fff" d="M16.2433,36.0749a4.2167,4.2167,0,0,1-.5052,1.9832l-.028.0561a5.0131,5.0131,0,0,1-.5425.7764c-.0561.0655-.1123.1216-.1777.1871a5.7438,5.7438,0,0,1-4.1441,1.6745,5.8529,5.8529,0,0,1-3.5921-1.1881v-.0093H7.2443c-.0093-.1965-.0186-.3929-.0093-.58-.0186-.8138-.0093-1.5809.0468-2.3293a25.99,25.99,0,0,1,.4023-3.5921c.0561-.2993.1121-.5893.1777-.8793.0374-.0187.0748-.0468.1216-.0654a5.978,5.978,0,0,1,2.8624-.711C13.8392,31.3977,16.2433,33.4931,16.2433,36.0749Z"/>
    <path fill="#3f3f3f" d="M15.4388,42.6137a.093.093,0,0,1,.0468.0374c-.0094.0187-.0374.0374-.0468.0561a5.677,5.677,0,0,1-4.5556,2.1235,5.9509,5.9509,0,0,1-3.0776-.8232L7.45,42.6137v-.0188c-.0374-.4863-.0749-1.0009-.1217-1.5341-.0281-.5145-.0654-1.01-.0748-1.4967v-.0093c-.0094-.1965-.0187-.3929-.0187-.58-.0186-.8138-.0093-1.5809.0468-2.3293a5.9481,5.9481,0,0,1,3.6014-1.1693,5.5614,5.5614,0,0,1,4.8549,2.5819.195.195,0,0,1,.0375.0561,4.4488,4.4488,0,0,1-.5425.7764c-.0561.0655-.1123.1216-.1778.1871a12.148,12.148,0,0,1,.3835,3.4986Z"/>
    <path fill="#fff" d="M15.523,42.6511c-.0094.0187-.0281.0374-.0374.0561a11.3964,11.3964,0,0,1-.4864,2.9841,1.83,1.83,0,0,0-.0468.1871c-.0092.0093-.0092.0093-.0092.0187a6.0487,6.0487,0,0,0,0,3.48,5.2189,5.2189,0,0,1-.73.44c-.0094,0-.0094.0094-.0188.0094h-.0093a6.0235,6.0235,0,0,1-2.6006.6267h-.131a4.4046,4.4046,0,0,1-.4957-.0281h-.0093a5.6549,5.6549,0,0,1-.9823-.15,18.6817,18.6817,0,0,1-.9448-1.6932c0-.0093-.0094-.0093-.0094-.0187a2.3929,2.3929,0,0,0-.1028-.2245L7.8056,44.0075,7.45,42.6137v-.0188a5.8641,5.8641,0,0,1,4.0036-1.4966,5.8991,5.8991,0,0,1,3.985,1.478c.0188.0093.0281.028.0468.0374A.073.073,0,0,1,15.523,42.6511Z"/>
    <path fill="#3f3f3f" d="M15.9907,51.6314a1.31,1.31,0,0,1,0,.3835,4.946,4.946,0,0,1-3.087,2.058,20.3052,20.3052,0,0,1-2.3105-2.8251c-.2245-.318-.43-.6361-.6267-.9728a18.6817,18.6817,0,0,1-.9448-1.6932c0-.0093-.0094-.0093-.0094-.0187-.1495-.7671-.29-1.6183-.4209-2.5631a5.1213,5.1213,0,0,1,6.361-.1216c.0094,0,.0187.0093.0281.0187a6.5776,6.5776,0,0,0,0,3.48,3.6348,3.6348,0,0,0,.2058.5894v.0093a4.8554,4.8554,0,0,0,.5893,1.1132,1.1086,1.1086,0,0,1,.103.1777A1.1853,1.1853,0,0,1,15.9907,51.6314Z"/>
    <path fill="#fff" d="M15.9907,51.6314a1.31,1.31,0,0,1,0,.3835,4.946,4.946,0,0,1-3.087,2.058,20.3052,20.3052,0,0,1-2.3105-2.8251,4.5743,4.5743,0,0,1,.9916-.7951c.0094-.0094.0281-.0187.0375-.0281h.0093a4.6021,4.6021,0,0,1,2.3387-.6267,1.068,1.068,0,0,1,.2432.0187,1.0121,1.0121,0,0,1,.1683.0094h.0094a3.7129,3.7129,0,0,1,.7951.14c.0093,0,.0281.0093.0374.0093a4.8989,4.8989,0,0,0,.5613,1.1132,1.0725,1.0725,0,0,1,.0936.1777A1.1853,1.1853,0,0,1,15.9907,51.6314Z"/>
    <path fill="#3f3f3f" d="M24.5379,46.6632l-2.8063,3.91c3.7511.7577,1.4312,2.5257,1.4312,2.5257s-5.9776.5893-5.3041-2.0206c.6549-2.535-1.4966-10.477-1.6089-10.9072A14.0507,14.0507,0,0,0,24.1075,44.98Z"/>
    <path fill="#3f3f3f" d="M57.849,50.7418l-2.4414,1.2628-11.955-6.7071.0935-1.6651a.7828.7828,0,0,1,.7016-.739,23.7851,23.7851,0,0,0,5.2384-.5706.3984.3984,0,0,0,.0937-.0374l3.05,5.3413Z"/>
  </g>
  <g id="line">
    <path fill="none" stroke="#000" stroke-linecap="round" stroke-linejoin="round" stroke-width="2" d="M13.596,54.7557h.0094c.6641.1684,1.3751-.9167,1.8522-1.6557"/>
    <line x1="12.2677" x2="12.2677" y1="24.7935" y2="24.7841" fill="none" stroke="#000" stroke-linecap="round" stroke-linejoin="round" stroke-width="2"/>
    <path fill="none" stroke="#000" stroke-miterlimit="10" stroke-width="2" d="M61.1077,33.1937c0-.0187-.0093-.028-.0093-.0467a1.0855,1.0855,0,0,1-.0375-.1684"/>
    <path fill="none" stroke="#000" stroke-miterlimit="10" stroke-width="2" d="M57.0292,29.9571c.2713.0374.4209.0468.4209.0468a4.6586,4.6586,0,0,1,3.6483,3.1431v.0093a3.1286,3.1286,0,0,1,.1777.72v.0094"/>
    <polyline fill="none" stroke="#000" stroke-linecap="round" stroke-linejoin="round" stroke-width="2" points="57.347 29.995 61.922 27.179 60.986 32.829 60.986 32.838 60.986 32.857"/>
    <polyline fill="none" stroke="#000" stroke-linecap="round" stroke-linejoin="round" stroke-width="2" points="50.723 32.88 52.117 27.876 52.632 26.052 53.614 28.4 54.737 31.094"/>
    <path fill="none" stroke="#000" stroke-linecap="round" stroke-linejoin="round" stroke-width="2" d="M49.58,42.2854l1.3474,2.36a13.0639,13.0639,0,0,0,4.65,4.7408l2.2717,1.3557L56.6,51.3876"/>
    <path fill="none" stroke="#000" stroke-linecap="round" stroke-linejoin="round" stroke-width="2" d="M16.01,34.614c-.75,5.4076,4.0452,9.122,7.4156,10.1819a1.2874,1.2874,0,0,1,.8676.9112l.2443.9561,1.531,5.904A1.2929,1.2929,0,0,0,27.2,53.53l8.1384.7632a1.293,1.293,0,0,0,1.3553-1.6712h0A1.293,1.293,0,0,0,35.62,51.723l-2.4835-.3123a1.2929,1.2929,0,0,1-1.1189-1.4634l1.1731-8.3168"/>
    <path fill="none" stroke="#000" stroke-linecap="round" stroke-miterlimit="10" stroke-width="2" d="M21.7961,53.1561c.7825.0006,1.3666-.057,1.3666-.057s2.32-1.768-1.4312-2.5257l2.8063-3.91.0094-.0093"/>
    <path fill="none" stroke="#000" stroke-linecap="round" stroke-miterlimit="10" stroke-width="2" d="M31.0051,38.9561l2.1889,2.6753,1.1881,1.45.0654.0748c.0187.0281.0468.0655.0655.0936l1.0945,1.8334,4.7146,7.8952.0655.0935.2339.4023a.7974.7974,0,0,0,.6735.3835h5.3694a.8152.8152,0,0,0,.6549-.3368l.3835-.5612.0187-.0281.131-.1871a.63.63,0,0,0,.0935-.2151.7393.7393,0,0,0-.0655-.6268s.0094,0,0-.0093a.3213.3213,0,0,0-.0842-.1123.7512.7512,0,0,0-.4958-.2713l-3.4424-.4209a.984.984,0,0,1-.159-.0374.5786.5786,0,0,1-.1123-.0468.8641.8641,0,0,1-.318-.3181.7417.7417,0,0,1-.0936-.2525,1.0815,1.0815,0,0,1-.0093-.1778l.29-4.9578.0935-1.6651a.7251.7251,0,0,1,.0187-.14.8643.8643,0,0,1,.1965-.3649.5806.5806,0,0,1,.1777-.1309.6067.6067,0,0,1,.3087-.1029c.3274-.0281.6548-.0468.9729-.0561.0842,0,.1683-.0094.2525-.0094.15-.0093.2994-.0093.449-.0187.2433,0,.5052-.0187.7671-.0281.2058-.0187.4116-.0374.6268-.0561s.43-.0468.6548-.0842c.2338-.028.477-.0748.73-.1309a3.05,3.05,0,0,0,.3742-.0842c.131-.0281.2713-.0655.4116-.1029a.3875.3875,0,0,0,.0935-.0375.3429.3429,0,0,0,.1029-.0467,2.4357,2.4357,0,0,1,.2245-.1216,1.9646,1.9646,0,0,1,.2433-.1216,1.58,1.58,0,0,1,.2525-.1216,11.3809,11.3809,0,0,1,3.1338-.6642c.1777-.0187.3461-.0374.5238-.0468,1.9644-.15,4.1627-.1029,6.09-.0748,1.0851.0093,2.086.0187,2.9-.0187h.0375c.2619-.0094.5051-.0281.72-.0562a3.0477,3.0477,0,0,0,.3275-.0467,1.75,1.75,0,0,0,.2525-.0468,1.0155,1.0155,0,0,0,.1965-.0468.8862.8862,0,0,0,.5145-.2806.3766.3766,0,0,0,0-.449.56.56,0,0,0-.0842-.14l-.0094-.0094a.5678.5678,0,0,0-.1216-.14,1.21,1.21,0,0,0-.2151-.2245h-.0094a10.9145,10.9145,0,0,1-1.188-1.3c-.131-.159-.2526-.3274-.3742-.4958q-.2526-.3787-.4771-.7577c-.1029-.1777-.2058-.3554-.2993-.5332a2.4059,2.4059,0,0,1-.1029-.2245c-.0842-.1684-.159-.3367-.2339-.4958a13.8156,13.8156,0,0,1-.5612-1.45c-.0468-.15-.0936-.2994-.131-.44-.0094-.0187-.0094-.0374-.0187-.0561,0-.0187-.0094-.0374-.0094-.0561"/>
    <path fill="none" stroke="#000" stroke-linecap="round" stroke-linejoin="round" stroke-width="2" d="M57.45,30.0039a.8064.8064,0,0,1-.1029-.0094c-.0748-.0093-.1777-.0187-.318-.0374-.0842-.0094-.1778-.0187-.2807-.0374s-.2058-.0281-.3274-.0468h-.0093c-.1216-.0187-.2619-.0468-.4023-.0655-.3087-.0561-.6641-.1216-1.0477-.2151a4.572,4.572,0,0,1-.4583-.1029c-.1591-.0375-.3274-.0749-.4865-.1216"/>
    <path fill="none" stroke="#000" stroke-linecap="round" stroke-linejoin="round" stroke-width="2" d="M51.8936,28.6849a13.2108,13.2108,0,0,1-3.246-1.768.0709.0709,0,0,1-.0374-.0187.029.029,0,0,0-.0187-.0094c-.2526-.2245-.5052-.43-.7484-.6267a14.2266,14.2266,0,0,0-4.3592-2.4509h-.0093c-.3368-.3367-.6922-.6641-1.0571-.9822-.2151-.1871-.43-.3648-.6548-.5332a21.14,21.14,0,0,0-10.187-4.4714c-.0187,0-.028-.0094-.0467-.0094a21.0762,21.0762,0,0,0-3.19-.2432,21.46,21.46,0,0,0-16.071,7.2123v.0093a21.2212,21.2212,0,0,0-2.984,4.3124.2059.2059,0,0,0-.0281.0468,20.6933,20.6933,0,0,0-1.2722,2.956c-.0374.1029-.0655.1965-.1029.2994l-.1964.6454c-.0468.1684-.0936.3274-.131.4958a21.1508,21.1508,0,0,0-.73,5.5378,21.3724,21.3724,0,0,0,.3367,3.8166c.0468.262.0936.5239.15.7765a21.0726,21.0726,0,0,0,1.6,4.6585,2.3941,2.3941,0,0,1,.1029.2245c0,.0093.0094.0093.0094.0187.159.3087.318.6267.4864.9261.0093.0093.0093.0093.0093.0187.15.2526.29.5051.4491.7483.1964.3368.4022.6549.6267.9729a20.2921,20.2921,0,0,0,2.3106,2.825c.2151.2246.43.43.6548.6455l.0374.0374h.0093"/>
  </g>
</g>
  <g transform="translate(392.0980454275856, 853.6991960546748) scale(1 1) translate(0, 0) scale(1.7777777777777777 1.7777777777777777) "><g id="color">
    <path fill="#3f3f3f" d="M29.3689,54.3966l-1.1,3-3,3.1h-4c-1.6-1.2,3.4-3.7,3.4-3.7v-3.7l-.2-3.1A15.8574,15.8574,0,0,1,29.3689,54.3966Z"/>
    <path fill="#3f3f3f" d="M60.7613,30.1692c-.22-.03-1.41-1.41-2.99-2.89,0,0-2.5-2.7-4.6-3a2.4863,2.4863,0,0,0-2.8,2.1,2.7819,2.7819,0,0,0,.5444,1.9944,4.67,4.67,0,0,0,1.6571,1.3719c6.6971,3.5671,7.8255,6.304,7.9106,10.9578.0695,3.7993-2.4122,6.8759-5.8122,8.5759l-.6,7.1-2.6,4.5c-6.3.7-1-2.2-1-2.2l-.5-2.3-.8-2.1a3.36,3.36,0,0,1-1.4.5v2.7l-4,3.8c-7.4.9-1.1-3.3-1.1-3.3l.1-3a4.6271,4.6271,0,0,1-1.8-2.1c-2.6-.7-5.9.7-5.9.7l-1.1,3.7-2,3.9c-1.92.24-2.81.12-3.12-.17-.7-.63,1.62-2.13,1.62-2.13a5.6779,5.6779,0,0,0-.69-3.32c-.07-.14-.15-.29-.23-.43-.07-.12-.15-.24-.23-.36a16.23,16.23,0,0,0-4.85-4.29c-1-.59-2.01-1.1-3.07-1.61a2.7956,2.7956,0,0,0-.26-.12c-.12-.05-.24-.11-.37-.17a11.6107,11.6107,0,0,1-3.95.16q-.36-.045-.69-.12c-.23-.04-.46-.1-.68-.16-.22-.05-.43-.12-.64-.19-2.09-.7-3.49-1.93-3.7-2.87a.8018.8018,0,0,1,.23-.86,1.1669,1.1669,0,0,1,.43-.26c2.6-1,5.2-4.9,5.2-4.9l.43-.13.87-.27.02-.01,1.78-.66.9-.33a6.6361,6.6361,0,0,1,.86-.13,1.84,1.84,0,0,1,.33-.03,9.5961,9.5961,0,0,1,5.76,1.82c.14.11.25.19.33.25l.12.09.18-.15a5.8242,5.8242,0,0,1,3.2-1.33,4.51,4.51,0,0,1,.52,0,4.3966,4.3966,0,0,1,1.46-1.12,12.1247,12.1247,0,0,1,1.56-.72c.2-.07.4-.15.61-.22.42-.14.87-.28,1.34-.39.23-.06.47-.11.71-.16a16.6432,16.6432,0,0,1,2.29-.3,11.5969,11.5969,0,0,1,7.45,1.98c.11.08.22.16.33.25a10.4526,10.4526,0,0,1,1.65,1.56c1.2193,1.252,2.9785.0951,1.0886-3.2621-2.2047-3.9165-7.9986-8.0879-7.9986-8.0879a9.8505,9.8505,0,0,1-.7-14,9.9552,9.9552,0,0,1,3.76-2.61,1.33,1.33,0,0,1,.18-.07,3.5033,3.5033,0,0,1,.55-.17,9.8226,9.8226,0,0,1,1.72-.3,9.46,9.46,0,0,1,9.3,5Z"/>
    <path fill="#fff" d="M60.8213,29.0892c-.0319.3587-.02.72-.05,1.09l-.01-.01a22.483,22.483,0,0,0-6.2276-11.3808c-4.1993-3.9209-9.7862.6277-9.0862,5.2277,1.3,8.4,13.3138,13.0131,11.7138,17.6131-2,5.7-10,2.8-10,2.8-10-5.3-19.7,0-19.7,0-5.49-.47-8.83-4.97-9.17-5.46-.01-.01-.02-.02-.02-.03l-.01-.01,2.7-1a7.6331,7.6331,0,0,1,3.98.21c.18.06.34.11.51.17a6.7635,6.7635,0,0,1,.9.38,10.18,10.18,0,0,1,2.01,1.24,5.2616,5.2616,0,0,1,1.19-.82,3.5482,3.5482,0,0,1,.44-.21c.14-.06.28-.12.43-.17a.3518.3518,0,0,1,.06-.01,5.2837,5.2837,0,0,1,1.79-.22,4.3966,4.3966,0,0,1,1.46-1.12,13.6486,13.6486,0,0,1,1.56-.72c.2-.07.4-.15.61-.22.42-.14.87-.27,1.34-.39.23-.06.47-.11.71-.16a16.6432,16.6432,0,0,1,2.29-.3,11.5969,11.5969,0,0,1,7.45,1.98c.11.08.22.16.33.25a10.4526,10.4526,0,0,1,1.65,1.56c.01.01.02.03.03.04.02.04.04.07.06.11a1.5576,1.5576,0,0,0,1.5-1.6,2,2,0,0,0-.02-.36.9086.9086,0,0,0-.18-.44c-2.4-3.8-8.3-9.1-8.3-9.1a9.8505,9.8505,0,0,1-.7-14,9.9552,9.9552,0,0,1,3.76-2.61,1.33,1.33,0,0,1,.18-.07,3.5033,3.5033,0,0,1,.55-.17,9.8571,9.8571,0,0,1,9.51,2.15,10.1013,10.1013,0,0,1,1.9,2.3C58.0113,15.6292,61.5762,20.6,60.8213,29.0892Z"/>
  </g>
  <g id="line">
    <path fill="none" stroke="#000" stroke-linecap="round" stroke-miterlimit="10" stroke-width="1.64" d="M43.3689,47.0966a4.2988,4.2988,0,0,0-2.3,5.6,5.5091,5.5091,0,0,0,1.7,2l-.1,3s-6.3,4.2,1.1,3.3l4-3.8v-2.7"/>
    <path fill="none" stroke="#000" stroke-linecap="round" stroke-miterlimit="10" stroke-width="1.64" d="M49.7713,39.4992a.5716.5716,0,0,0-.07-.08c-.01-.02-.03-.03-.04-.05-6.3516-6.9244-16.5251-2.5368-17.39-.87a2.62,2.62,0,0,0-.28-.01,1.9269,1.9269,0,0,0-.24.01,4.512,4.512,0,0,0-1.27.22.3536.3536,0,0,0-.06.01c-.15.05-.29.11-.43.17a3.5482,3.5482,0,0,0-.44.21,5.081,5.081,0,0,0-1,.72c-.06.05-.12.11-.18.17,0,0-.04-.04-.12-.11-.08-.06-.19-.14-.33-.25a9.9668,9.9668,0,0,0-1.57-.95c-.28-.13-.58-.26-.9-.38-.17-.06-.33-.11-.51-.17a7.5208,7.5208,0,0,0-2.78-.32,1.8413,1.8413,0,0,0-.33.03,6.7463,6.7463,0,0,0-.86.15l-.9.31-1.8.63-.87.31-.43.15s-2.6,4-5.2,4.9a1.1791,1.1791,0,0,0-.43.24.802.802,0,0,0-.23.86c.23.93,1.63,2.15,3.7,2.87.21.07.42.14.64.19.22.06.45.12.68.16q.33.075.69.12a11.0949,11.0949,0,0,0,3.95-.14s.13.05.37.15a2.7837,2.7837,0,0,1,.26.12c1.62.71,5.9,2.81,7.92,5.9.08.12.16.24.23.36.08.14.16.28.23.43a5.5213,5.5213,0,0,1,.59,3.24s-2.51,1.62-1.52,2.21c.38.23,1.27.31,3.02.09l2-3.9"/>
    <path fill="none" stroke="#000" stroke-linecap="round" stroke-miterlimit="10" stroke-width="1.64" d="M42.7689,27.8966a9.9156,9.9156,0,0,1,13.2-14.8,11.6021,11.6021,0,0,1,2,2.4"/>
    <path fill="none" stroke="#000" stroke-linecap="round" stroke-miterlimit="10" stroke-width="1.64" d="M35.0689,53.3966s3.3-1.3,5.9-.7"/>
    <path fill="none" stroke="#000" stroke-linecap="round" stroke-miterlimit="10" stroke-width="1.64" d="M50.1689,56.0966l.5,2.3s-5.3,2.9,1,2.2l2.6-4.5.7-6.9a9.9631,9.9631,0,0,0,4.5-13.3,10.24,10.24,0,0,0-4.6-4.6"/>
    <path fill="none" stroke="#000" stroke-linecap="round" stroke-miterlimit="10" stroke-width="1.64" d="M24.6689,53.3966v3.6s-5,2.5-3.4,3.7h4l3-3.1"/>
  </g>
</g>
  <g transform="translate(226.0000000000001, 799.7306695894642) scale(1 1) translate(0, 0) scale(1.7777777777777777 1.7777777777777777) "><g id="color">
    <path fill="#a57939" d="M30.5206,30.6956c.8556.3943,1.7036,1.1046,2.45,3.1629"/>
    <path fill="#a57939" d="M38.4792,38.4068a17.5846,17.5846,0,0,1-5.5482.86,3.33,3.33,0,0,1-2.1582-.8086c-.14-.1166-.2537-.21-.2836-.2311a9.7692,9.7692,0,0,1-2.2671-3.6693h0c-.3573-.7-.7263-2.6367-.0554-3.4371a1.967,1.967,0,0,1,2.3539-.425c.8556.3943,1.675.7294,2.4215,2.7877"/>
    <path fill="#a57939" d="M20.5775,47.2816a17.5835,17.5835,0,0,0,3.5147-4.3782,3.3294,3.3294,0,0,0,.3767-2.2737c-.0311-.18-.0552-.3245-.0586-.3611a9.77,9.77,0,0,0-2.0477-3.7961h0c-.4281-.6589-1.9222-1.9456-2.9506-1.7638a1.9669,1.9669,0,0,0-1.5433,1.8275c-.0855.9382.1067,2.0276,1.5175,3.702"/>
    <g>
      <ellipse cx="21.8988" cy="29.1701" rx="10.3241" ry="8.5137" transform="translate(-10.399 12.22) rotate(-25.4127)" fill="#6a462f"/>
      <path fill="#6a462f" d="M23.0873,19.5839a2.254,2.254,0,1,1,4.363,1.1022Z"/>
      <path fill="#6a462f" d="M11.3274,29.8272A2.254,2.254,0,1,1,12.66,25.5289Z"/>
      <g>
        <path fill="#6a462f" d="M62.4588,34.6236a2.3772,2.3772,0,0,0-1.2617-.2893l.1934-.4758a24.4589,24.4589,0,0,0-1.705-12.5578,4.2881,4.2881,0,0,0-3.57-2.1529,4.0869,4.0869,0,0,0-3.0907.91,4.3548,4.3548,0,0,0-1.6869,4.3913c.1626.7685,1.4726,5.2522,1.917,6.9218a2.5492,2.5492,0,0,0-.4658-.9673l-2.3575-2.9895a2.3717,2.3717,0,1,0-3.7047,2.9249,29.1457,29.1457,0,0,0,2.5241,2.3779c-4.375,1.7342-4.5891,4.5765-4.2728,6.2336-2.7986.3372-6.5353.1352-8.34-1.8727a15.8512,15.8512,0,0,0-5.7829-5.0272L16.933,37.9339l2.361,7.7682c3.1814,5.119,9.024,10.6091,24.8243,8.3766A18.0218,18.0218,0,0,0,56.376,45.9973l.8662-1.1787c.2078-.3356.8645-1.1355,1.2591-1.1253a3.4341,3.4341,0,0,0,2.7957-1.61l2.0439-3.6767A2.7536,2.7536,0,0,0,62.4588,34.6236ZM53.318,31.6114l-.0044.0022c-.0017-.0105-.0012-.02-.0031-.0307Z"/>
        <path fill="#6a462f" d="M63.3409,38.4068c-.1313.2364-.3156.5735-.4941.9Z"/>
        <path fill="#6a462f" d="M62.8468,39.3065l-.4111.7487C62.54,39.867,62.6914,39.5907,62.8468,39.3065Z"/>
        <path fill="#6a462f" d="M50.4314,27.4141c.1479.1873.3587.4509.564.7077Z"/>
        <path fill="#6a462f" d="M50.9954,28.1218l.4968.6233C51.3681,28.5879,51.184,28.3576,50.9954,28.1218Z"/>
      </g>
      <g>
        <path fill="#6a462f" d="M54.0832,36.1775c-.083-.322-1.0457-5.4586-1.2943-5.7739l-2.3575-2.9895a2.3717,2.3717,0,1,0-3.7047,2.9249,29.1457,29.1457,0,0,0,2.5241,2.3779c-4.375,1.7342-4.5891,4.5765-4.2728,6.2336m8.34-7.3391-.0044.0022c-.0017-.0105-.0012-.02-.0031-.0307Z"/>
        <path fill="#6a462f" d="M63.3409,38.4068c-.1313.2364-.3156.5735-.4941.9Z"/>
        <path fill="#6a462f" d="M62.8468,39.3065l-.4111.7487C62.54,39.867,62.6914,39.5907,62.8468,39.3065Z"/>
        <path fill="#6a462f" d="M50.4314,27.4141c.1479.1873.3587.4509.564.7077Z"/>
        <path fill="#6a462f" d="M50.9954,28.1218l.4968.6233C51.3681,28.5879,51.184,28.3576,50.9954,28.1218Z"/>
      </g>
    </g>
    <polyline fill="#a57939" points="44.978 38.95 49.696 37.941 53.769 36.509"/>
  </g>
  <g id="line">
    <g>
      <g>
        <path fill="none" stroke="#000" stroke-linecap="round" stroke-miterlimit="10" stroke-width="2.0787" d="M50.4313,27.4141l2.3576,2.9895A3.1084,3.1084,0,0,1,53.1581,33.3c-.1462.3259.2927,1.1534.5005,1.444l1.5433,2.9341"/>
        <path fill="none" stroke="#000" stroke-linecap="round" stroke-miterlimit="10" stroke-width="2.0787" d="M49.2508,32.717c-4.3719,1.7329-4.591,4.5765-4.2757,6.234"/>
        <path fill="none" stroke="#000" stroke-linecap="round" stroke-miterlimit="10" stroke-width="2.0787" d="M50.4313,27.4141a2.3717,2.3717,0,1,0-3.7046,2.9249,29.163,29.163,0,0,0,2.5241,2.378"/>
        <path fill="none" stroke="#000" stroke-linecap="round" stroke-miterlimit="10" stroke-width="2.0787" d="M51.4922,28.7451c-.2593-.3284-.7772-.9717-1.0609-1.331"/>
      </g>
      <path fill="none" stroke="#000" stroke-miterlimit="10" stroke-width="2.0787" d="M17.8515,37.7311q-.3114-.0795-.6129-.1785a8.9761,8.9761,0,0,1-1.03-.4092,7.4746,7.4746,0,0,1-3.6354-3.5429c-2.0178-4.247.5215-9.6735,5.6716-12.12s10.9609-.9875,12.9787,3.2595a7.6817,7.6817,0,0,1,.1171,6.1127"/>
      <path fill="none" stroke="#000" stroke-miterlimit="10" stroke-width="2.0787" d="M28.2255,35.1428A12.3479,12.3479,0,0,1,25.5523,36.86a12.4971,12.4971,0,0,1-2.0086.7521"/>
      <path fill="none" stroke="#000" stroke-miterlimit="10" stroke-width="2.0787" d="M23.0873,19.5839A2.5318,2.5318,0,0,1,25.94,17.4782a2.5318,2.5318,0,0,1,1.51,3.2079"/>
      <path fill="none" stroke="#000" stroke-miterlimit="10" stroke-width="2.0787" d="M11.3274,29.8272A2.4637,2.4637,0,0,1,9.48,26.8987a2.4637,2.4637,0,0,1,3.18-1.37"/>
      <path fill="none" stroke="#000" stroke-miterlimit="10" stroke-width="2.0787" d="M48.0967,38.7479c-2.3193.7787-8.2338-.3219-11.4588-1.67,0,0-1.5714-.57-3.6671-3.2193"/>
      <path fill="none" stroke="#000" stroke-miterlimit="10" stroke-width="2.0787" d="M54.3953,48.5912a18.0605,18.0605,0,0,1-10.277,5.4875c-12.2062,1.7247-17.6019-.699-21.6257-4.4164a16.5206,16.5206,0,0,1-2.3359-2.6781A28.2524,28.2524,0,0,1,16.818,36.9384"/>
      <path fill="none" stroke="#000" stroke-linecap="round" stroke-miterlimit="10" stroke-width="2.0787" d="M53.3181,31.6115c-.3679-1.4325-1.8094-6.3545-1.98-7.1624a4.3551,4.3551,0,0,1,1.6869-4.3914,4.0876,4.0876,0,0,1,3.0907-.91,4.2885,4.2885,0,0,1,3.57,2.1529h0a24.4578,24.4578,0,0,1,1.705,12.5578"/>
      <path fill="none" stroke="#000" stroke-linecap="round" stroke-miterlimit="10" stroke-width="2.0787" d="M54.3953,48.5912c.695-.8544,2.1121-2.6545,3.2123-4.3146"/>
      <g>
        <path fill="none" stroke="#000" stroke-linecap="round" stroke-miterlimit="10" stroke-width="2.0787" d="M63.3409,38.4068,61.297,42.0836a3.4343,3.4343,0,0,1-2.7957,1.61c-.3946-.01-1.0513.79-1.2591,1.1252l-1.81,2.463"/>
        <path fill="none" stroke="#000" stroke-linecap="round" stroke-miterlimit="10" stroke-width="2.0787" d="M57.4317,39.4616c-5.3622-5.4962-9.335-.7137-9.335-.7137a4.53,4.53,0,0,0-.7979,2.75"/>
        <path fill="none" stroke="#000" stroke-linecap="round" stroke-miterlimit="10" stroke-width="2.0787" d="M57.4317,39.4616a32.24,32.24,0,0,1,1.3495-3.5862,2.62,2.62,0,1,1,4.56,2.5314"/>
        <path fill="none" stroke="#000" stroke-linecap="round" stroke-miterlimit="10" stroke-width="2.0787" d="M62.4357,40.0552c.2244-.4042.66-1.2061.9052-1.6484"/>
      </g>
      <path fill="none" stroke="#000" stroke-linecap="round" stroke-miterlimit="10" stroke-width="2.0787" d="M32.9708,33.8585c-1.3922-1.5145-1.6012-2.9507-2.4568-3.345a2.2086,2.2086,0,0,0-2.4655.6538c-.6709.8-.1837,2.6906.1736,3.39h0a9.7692,9.7692,0,0,0,2.2671,3.6693c.03.0213.1434.1145.2836.2311a3.33,3.33,0,0,0,2.1582.8086"/>
      <path fill="none" stroke="#000" stroke-linecap="round" stroke-miterlimit="10" stroke-width="2.0787" d="M19.3862,39.9753c-1.4108-1.6743-1.603-2.7637-1.5175-3.7019a1.9669,1.9669,0,0,1,1.5433-1.8275c1.0284-.1818,2.5225,1.1049,2.9506,1.7638h0A9.77,9.77,0,0,1,24.41,40.0058c.0034.0366.0275.1814.0586.3611a3.3294,3.3294,0,0,1-.3767,2.2737,22.219,22.219,0,0,1-1.3,1.94"/>
      <path d="M24.7733,29.0777h0a1.0411,1.0411,0,0,1,.1694,1.0933l-.677,1.3941a.8315.8315,0,0,1-.8857.4769l-1.2983-.1762a1.4475,1.4475,0,0,1-1.1577-1.1782.7255.7255,0,0,1,.4259-.7625l2.2389-1.1635A.9762.9762,0,0,1,24.7733,29.0777Z"/>
      <circle cx="17.8515" cy="28.7451" r="1"/>
      <circle cx="23.9129" cy="25.3914" r="1"/>
    </g>
  </g>
  <g id="color-foreground">
    <path fill="#a57939" d="M44.4448,44.628c-.03,2.4345-7.8851,5.1128-12.0379,3.2973-4.4271-1.9353-6.3237-6.284-5.1153-8.1263a1.9065,1.9065,0,0,1,2.985-.3947,3.9137,3.9137,0,0,0,3.2617.7079s1.382.2874,2.1685.4875C40.398,41.7926,44.4718,42.4651,44.4448,44.628Z"/>
  </g>
</g>
  <g transform="translate(96.21286236252212, 682.8698059628388) scale(1 1) translate(0, 0) scale(1.7777777777777777 1.7777777777777777) "><g id="color">
    <path id="Badger_Color_1" fill="#9b9b9a" d="M66.345,45.6765c2.0234.0968,1.1253-25.4583-15.5132-25.51C45.4029,20.15,34.7472,22.99,29.32,23.1375c-1.3974.038-4.4352.048-5.5315-.8195-.6186-.49-.2131-2.0038-1.8438-2.5609-1.1324-.3868-2.5413.9451-3.38,1.2805a23.09,23.09,0,0,0-8.2973,4.9681c-1.0957,1.0031-4.95,2.0035-4.8145,3.4828.1849,2.0187,7.2729,3.5853,7.2729,3.5853s7.0964,1.9422,9.1168,3.2779c3.1615,2.09,10.39,10.7109,10.1412,11.268-.1254.28-4.8936.3328-4.8145,2.8682.0543,1.7409,2.7658,1.7414,2.7658,1.7414h5.0193c.9442-.6272,1.3347-3.1729,1.4305-4.3023.0854-1.0068-1.5759-3.6953-.611-3.995,2.4779-.77,4.77.3993,10.6533.6146.8446.0309,0,3.38,0,3.38s-4.6731,1.5124-4.61,2.8682c.0672,1.4341,2.356,1.4341,2.356,1.4341h5.634s4.0166-7.5875,4.712-8.1949c2.6539-2.3175,4.9935-1.83,9.1168-4.5072C63.6362,39.5272,64.2135,45.5746,66.345,45.6765Z"/>
    <path id="Badger_Color_2" fill="#fff" d="M12.5971,27.7718c2.95-2.6329,12.8133-4.2885,12.0353-5.3581-2.488-3.4211-5.2288-1.764-6.0679-1.4286-2.2451.8973-5.8749,1.2566-8.2973,4.9682-.8119,1.244-5.8456,2.4133-4.8145,3.4828C7.922,31.9972,14.1355,32.5718,19.91,32.9a60.57,60.57,0,0,1,13.016,2.354S28.45,22.588,13.4142,29.8212C12.2059,30.4025,11.7034,28.5694,12.5971,27.7718Z"/>
    <path id="Badger_Color_3" fill="#3f3f3f" d="M53.1224,51.7357l7.5048.4936s2.7368-3.1236,2.4876-5.7715c-.13-1.384-2.4173-5.7715-2.4173-5.7715l-4.49,1.5637,2.3011,4.3785-4.0365,1.9379Z"/>
    <path id="Badger_Color_4" fill="#3f3f3f" d="M24.8284,51.2053c-1.0614,1.5379-7.4582-.4936-7.4582-.4936l1.0783-3.0751,4.6564-1.4519.6847-9.0428s3.2307,2.6146,3.5553,3.8918C27.99,43.5726,26.5268,48.7446,24.8284,51.2053Z"/>
  </g>
  <g id="line">
    <path id="Badger_Line_1" fill="none" stroke="#000" stroke-linecap="round" stroke-linejoin="round" stroke-width="2" d="M66.6878,44.68c.9551-4.1388.7825-24.4613-15.856-24.5126C45.4029,20.15,34.7472,22.99,29.32,23.1375c-1.3974.038-4.4352.048-5.5315-.8195-.6186-.49-.2131-2.0038-1.8438-2.5609-1.1324-.3868-2.5413.9451-3.38,1.2805a23.3153,23.3153,0,0,0-8.2973,4.9681S5.4492,28.09,5.4527,29.4885c.0065,2.5891,7.2729,3.5853,7.2729,3.5853s7.0964,1.9422,9.1168,3.2779c3.1615,2.09,10.39,10.7109,10.1412,11.268-.1254.28-4.8936.3328-4.8145,2.8682.0543,1.7409,2.7658,1.7414,2.7658,1.7414h5.0193c.9442-.6272,1.3347-3.1729,1.4305-4.3023.0854-1.0068-1.5759-3.6953-.611-3.995,2.4779-.77,4.77.3993,10.6533.6146.8446.0309,0,3.38,0,3.38s-4.6731,1.5124-4.61,2.8682c.0672,1.4341,2.356,1.4341,2.356,1.4341h5.634s4.0166-7.5875,4.712-8.1949c2.6539-2.3175,4.9935-1.83,9.1168-4.5072"/>
    <path id="Badger_Line_2" fill="none" stroke="#000" stroke-linecap="round" stroke-linejoin="round" stroke-width="2" d="M55.8961,43.0439l3.2286,3.9687c-.6286.92-7.115.4826-6.0023,4.7231.1348.5136,1.5354.49,2.0664.492,1.0578.0036,4.2311,0,4.2311,0"/>
    <path id="Badger_Line_3" fill="none" stroke="#000" stroke-linecap="round" stroke-linejoin="round" stroke-width="2" d="M22.55,36.88s2.1119,7.22.8225,9.1084c-.6286.92-7.115.4826-6.0023,4.7231.1348.5136,1.5354.49,2.0664.492,1.0578.0036,4.2311,0,4.2311,0"/>
    <path id="Badger_Line_4" d="M7.9183,27.2494l.2742,4.7876c-.9434.379-3.314-2.3569-3.314-2.3569S7.03,26.853,7.9183,27.2494Z"/>
  </g>
</g>
  <g transform="translate(25.17800769180161, 523.3229101434589) scale(1 1) translate(0, 0) scale(1.7777777777777777 1.7777777777777777) "><g id="color">
    <path fill="#d0cfce" d="M56.7848,37.1494c-5.2021-6.5889-19.9209-8.1806-20.459-8.2324a2.5433,2.5433,0,0,1-1.624-1.0757A5.1111,5.1111,0,0,1,36.1569,20.72l1.0761-.7012a4.7651,4.7651,0,0,0,2.0137-5.1728,2.4492,2.4492,0,0,0-2.5859-1.8433l-.7539.062a4.8194,4.8194,0,0,1-3.4053-.9868,8.7839,8.7839,0,0,0-7.9727-1.4321c-.3613.1069-8.89,2.76-11.1582,15.3462-.05.3335-1.1777,8.2285,3.32,13.789,2.5214,3.1172,6.2822,4.85,11.18,5.1485a.9642.9642,0,0,0,.128-.0194,14.3372,14.3372,0,0,0,8.9277,3.3661,15.2272,15.2272,0,0,0,7.36-2.043,2.7969,2.7969,0,0,0,1.1179-1.1744c4.4416-.8148,5.8264.3079,5.9709.7867a.977.977,0,0,0,.0557.1963,1.08,1.08,0,0,1-.0654.8818c-.1387.1768-.7813.73-3.2774.3887-6.3418-.8535-8.3789,2.4766-8.4629,2.6191a1,1,0,0,0,.9961,1.4961,5.76,5.76,0,0,1,4.3574,1.7432,4.7042,4.7042,0,0,0,4.7559.9121q.2432-.0894.4717-.17c-.0166.0176-.0332.0351-.0508.0527a3.057,3.057,0,0,0-.373,3.7647,4.368,4.368,0,0,1,.333,2.9687.9995.9995,0,0,0,.9658,1.2588.9833.9833,0,0,0,.3076-.0488c5.8965-1.9043,6.8691-8.0059,6.5527-11.2617A12.1968,12.1968,0,0,0,56.7848,37.1494Z"/>
    <path fill="#9b9b9a" d="M14.1442,47.89a6.4231,6.4231,0,0,1-2.1572-.331,1.5292,1.5292,0,0,1-.0323-2.874,6.1133,6.1133,0,0,0,3.9395-6.2168,1.0013,1.0013,0,0,1,1.831-.6514c.0254.0391,2.5733,3.8555,5.6172,4.2988a.8618.8618,0,0,1,.0977.02l1.2275.3066a1,1,0,0,1,.2334,1.85C19.7526,47.0723,16.3571,47.89,14.1442,47.89Z"/>
    <path fill="#9b9b9a" d="M28.7633,45.291c-.0644,0-.7242-.3421-.79-.3557a16.8059,16.8059,0,0,1-7.766-2.157c-4.9961-2.9649-6.9432-7.8511-6.96-12.8461-.0377-10.9341,6.146-16.0567,6.398-16.2471a1,1,0,0,1,1.5722,1.0415A30.8975,30.8975,0,0,0,25.8219,39.874c.0166.02.0322.042.0469.0635A21.6934,21.6934,0,0,0,29.39,43.5117a1,1,0,0,1-.627,1.7793Z"/>
  </g>
  <g id="line">
    <path fill="none" stroke="#000" stroke-linecap="round" stroke-linejoin="round" stroke-width="2" d="M24.4257,43.4114C12.2162,40.3751,14.36,26.1412,14.36,26.1412c2.18-12.0947,10.4521-14.5363,10.4521-14.5363A7.7849,7.7849,0,0,1,31.8912,12.87h0A5.8408,5.8408,0,0,0,36,14.0607h0L36.7427,14a1.4609,1.4609,0,0,1,1.5352,1.0947h0a3.7674,3.7674,0,0,1-1.5918,4.0873l-1.0747.7011a6.11,6.11,0,0,0-1.7405,8.5144h0a3.5238,3.5238,0,0,0,2.2666,1.5019S51,31.4359,56,37.77a11.1522,11.1522,0,0,1,.9113,12.6673s1.1019,8.2819-5.83,10.5215a5.348,5.348,0,0,0-.4483-3.7531,2.0476,2.0476,0,0,1,.235-2.5383,4.4309,4.4309,0,0,0,1.493-2.4527,28.0687,28.0687,0,0,0-2.9733.9315,3.708,3.708,0,0,1-3.7451-.7226,6.7174,6.7174,0,0,0-5.1541-1.9863s1.7062-2.9147,7.4647-2.1327,4.4078-2.63,4.4078-2.63-.3665-2.1033-4.733-1.8956"/>
    <path fill="none" stroke="#000" stroke-linecap="round" stroke-linejoin="round" stroke-width="2" d="M23.9048,38.8321s7.5419,13.2884,19.8829,6.5353c0,0,2.5506-1.4714-1.4755-2.6759a11.048,11.048,0,0,1-5.5226-4.516s-1.4144-3.4348-4.7145-3.7042"/>
    <path fill="none" stroke="#000" stroke-linecap="round" stroke-linejoin="round" stroke-width="2" d="M16.8894,38.3665a7.1455,7.1455,0,0,1-4.5766,7.2521.529.529,0,0,0,.0094.9978c1.5113.5365,4.9456.6609,12.1037-3.2055"/>
  </g>
</g>
  <g transform="translate(25.17800769180161, 348.6770898565412) scale(1 1) translate(0, 0) scale(1.7777777777777777 1.7777777777777777) "><g id="color">
    <path fill="#6A462F" stroke="none" d="M24.7544,17.9188l-6.6667-5.3333l-8.1667,1l-3,4.6667l0.5,6.6667l3.8333,5.8333 c0,0,1.8333,1.1667,2.6667,1.6667l-2.5,7.6667l-0.3333,6.3333l1.5,5.5l2.8333,3.6667l5.5,3.8333c0,0,15.6667,9,30.6667,0.1667 l5.8333-4.8333l3.1667-6l0.6667-4.6667l-1.3333-8.8333l-1.6667-2.5l2.8333-2.1667l2.5-4.8333l1.6667-5.3333l-1.6667-5l-4.3333-3 l-4.1667-0.1667l-6,3.8333l-1.3333,1.5l-8.3333-1.6667h-8.1667L24.7544,17.9188z"/>
    <path fill="#A57939" stroke="none" d="M29.5877,37.7521l-2,5l-0.8333,6.6667l2,3.1667l0.3333,4.3333l2.8333,2.1667l8.6667-0.3333l2.3333-1 l0.1667-5.1667l2-3.1667l-1.1667-6.6667l-2.5-5.5C41.421,37.2521,34.421,32.4188,29.5877,37.7521z"/>
    <path fill="#3F3F3F" stroke="none" d="M30.7544,47.7521c0,0,4.3333-4.6667,9.8333-0.3333l-1.8333,2.8333l-6-0.1667L30.7544,47.7521z"/>
    <path fill="#A57939" stroke="none" d="M47.7544,18.4188c0,0,12.8333-4,15.1667,8l2-4l-0.1667-5.5l-3.5-3.8333l-5.5-1.3333l-5.5,3.6667 L47.7544,18.4188z"/>
    <path fill="#A57939" stroke="none" d="M24.2544,18.4188c0,0-12.8333-4-15.1667,8l-2-4l0.1667-5.5l3.5-3.8333l5.5-1.3333l5.5,3.6667 L24.2544,18.4188z"/>
  </g>
  <g id="hair"/>
  <g id="skin"/>
  <g id="skin-shadow"/>
  <g id="line">
    <circle cx="28.6339" cy="36.999" r="2" fill="#000000" stroke="none"/>
    <path fill="none" stroke="#000000" stroke-linecap="round" stroke-linejoin="round" stroke-miterlimit="10" stroke-width="2" d="M26.0089,19.8949c0,0-7.6875-11.625-14.9375-6.8125c-6.6011,4.3818-3.9113,13.9584,0.603,16.915"/>
    <path fill="none" stroke="#000000" stroke-linecap="round" stroke-linejoin="round" stroke-miterlimit="10" stroke-width="2" d="M21.0714,58.5824c-15.9375-6.3125-7.8506-24.0133-7.8506-24.0133s3.645-9.3586,9.3416-11.6086"/>
    <path fill="none" stroke="#000000" stroke-linecap="round" stroke-linejoin="round" stroke-miterlimit="10" stroke-width="2" d="M51.0978,58.5824c15.9375-6.3125,7.8506-24.0133,7.8506-24.0133s-3.645-9.3586-9.3416-11.6086"/>
    <circle cx="43.3661" cy="36.999" r="2" fill="#000000" stroke="none"/>
    <path fill="none" stroke="#000000" stroke-linecap="round" stroke-linejoin="round" stroke-miterlimit="10" stroke-width="2" d="M43.495,43.3313l1.5607,4.8039c0.2196,0.8168,0.0853,1.6816-0.3675,2.3961c-1.2194,1.924-4.0542,5.1185-8.2597,2.2386h-0.8572 c-4.2055,2.8798-7.0402-0.3147-8.2597-2.2386c-0.4528-0.7144-0.5871-1.5793-0.3675-2.3961l1.5607-4.8039"/>
    <path fill="none" stroke="#000000" stroke-linecap="round" stroke-linejoin="round" stroke-miterlimit="10" stroke-width="2" d="M40.172,47.9243c-0.1014,3.008-2.8052,1.6561-2.8052,1.6561L36,48.9038l-1.3667,0.6766c0,0-2.7039,1.3519-2.8052-1.6561"/>
    <path fill="none" stroke="#000000" stroke-linecap="round" stroke-linejoin="round" stroke-miterlimit="10" stroke-width="2" d="M45.9911,19.8949c0,0,7.6875-11.625,14.9375-6.8125c6.6011,4.3818,3.9113,13.9584-0.603,16.915"/>
    <path fill="none" stroke="#000000" stroke-linecap="round" stroke-linejoin="round" stroke-miterlimit="10" stroke-width="2" d="M29.9464,57.1478c0,0,5.1875,6.6013,12.1072,0.5625"/>
    <path fill="none" stroke="#000000" stroke-linecap="round" stroke-linejoin="round" stroke-miterlimit="10" stroke-width="2" d="M24.6652,17.9512c0,0,8.7098-4.9304,22.3259,0"/>
    <line x1="36" x2="36" y1="52.7699" y2="49.5804" fill="none" stroke="#000000" stroke-linecap="round" stroke-linejoin="round" stroke-miterlimit="10" stroke-width="2"/>
  </g>
</g>
  <g transform="translate(96.212862362522, 189.13019403716132) scale(1 1) translate(0, 0) scale(1.7777777777777777 1.7777777777777777) "><g id="color">
    <path fill="#d0cfce" d="M50.6975,53.9417H43.89s-.3683-3.534,2.5783-3.818S48.54,45.9964,48.54,45.9964h7.327v7.9453Z"/>
    <path d="M7.3036,29.26s1.6438.8078.69,1.945a.9862.9862,0,0,1-1.71-.0116S5.1878,30.8193,7.3036,29.26Z"/>
    <path fill="#fff" d="M55.8671,50.631s-6.6033.4392-5.0148,4.2254h9.3464s2.4571,0,1.9707-5.8393c0,0,.1715-15.1883-.4973-16.6883l2.8521,1.809A.9674.9674,0,0,0,66,33.2913v-.7731c-.4627-1.7564-9.4146-9.3746-16.8734-9.3746a15.5769,15.5769,0,0,0-4.8841.7724s-.0442.0113-.1105.0341c-.7183.1818-4.5637,1.1926-5.4808,1.2835-1.0166.0909-17.6021-.5973-17.6021-.5973-2.3466-.0378-2.7887-.8026-4.3654-.3568-4.084,1.1546-11.4128,5.399-10.4,6.9135,1.0783,1.6122,2.0719,4.638,10.5546,1.31h.0442c.2984,0,2.1658.2045,6.7737,4.7023a.0359.0359,0,0,0,.011.0228C26.684,40.17,35.7045,52.0878,36.53,52.7437s5.851,2.1127,5.16-3.01c-1.5424-.1533-2.8951-.4089-2.8951-.4089l-.1156-3.3284c5.0669,1.3752,11.9363-1.05,11.9363-1.05"/>
    <path fill="#d0cfce" d="M23.2417,37.1571c.1326.5338,3.2727,12.0447-.011,12.5056s-3.79,1.1586-3.7018,3.4757h8.7516l4.1659-3.8391S28.7058,39.5091,23.2417,37.1571Z"/>
  </g>
  <g id="line">
    <path fill="none" stroke="#000" stroke-linecap="round" stroke-linejoin="round" stroke-width="2" d="M38.7948,49.3248s1.3527.2556,2.8951.4089c.6907,5.1227-4.3352,3.666-5.16,3.01S26.684,40.17,23.6673,37.2281a.0359.0359,0,0,1-.011-.0228c-4.6079-4.4978-6.4753-4.7023-6.7737-4.7023h-.0442c-8.4827,3.328-9.4763.3022-10.5546-1.31-1.0129-1.5145,6.3159-5.7589,10.4-6.9135,1.5767-.4458,2.0188.319,4.3654.3568,0,0,16.5855.6882,17.6021.5973.9171-.0909,4.7625-1.1017,5.4808-1.2835.0663-.0228.1105-.0341.1105-.0341a15.5769,15.5769,0,0,1,4.8841-.7724c7.4588,0,16.4107,7.6182,16.8734,9.3746v.7731a.9674.9674,0,0,1-1.4758.8465l-2.8521-1.809"/>
    <path fill="none" stroke="#000" stroke-linecap="round" stroke-linejoin="round" stroke-width="2" d="M23.6673,37.2281c.1326.5339,3.2727,12.0447-.011,12.5056s-3.79,1.1586-3.7018,3.4757h8.7517L32.872,49.37"/>
    <path fill="none" stroke="#000" stroke-linecap="round" stroke-linejoin="round" stroke-width="2" d="M50.6155,53.9417H43.8079s-.3684-3.534,2.5783-3.818,2.0719-4.1273,2.0719-4.1273a20.0267,20.0267,0,0,1-9.7789,0"/>
    <path fill="none" stroke="#000" stroke-linecap="round" stroke-linejoin="round" stroke-width="2" d="M55.8671,50.631s-7.2364-6.3521-7.8234-10.9665"/>
    <path fill="none" stroke="#000" stroke-linecap="round" stroke-linejoin="round" stroke-width="2" d="M55.8671,50.631s-6.6033.4392-5.0148,4.2254h9.3464S62.51,54.75,61.5981,49c0,0,3.5266-9.125,1.3985-15.8437"/>
    <path fill="none" stroke="#000" stroke-linecap="round" stroke-linejoin="round" stroke-width="2" d="M17.1768,26.1842s2.3021-.38,1.3813,3.0754"/>
  </g>
</g>
  <g transform="translate(225.99999999999977, 72.26933041053587) scale(1 1) translate(0, 0) scale(1.7777777777777777 1.7777777777777777) "><g id="color">
    <path fill="#FFFFFF" stroke="none" d="M35.7965,14.7599l-11.1629,1.4089l-4.1292,5l-5.4167,7.8286L11.1376,38.999l0.46,8.3969 c0,0,0.6101,5.4808,4.4251,7.2518s4.4817,3.8544,4.4817,3.8544S33.2456,61.9188,36,61.4188s14.421-1.8333,16.5877-3.4167 c2.1667-1.5833,4.8333-4.2322,4.8333-4.2322l3.5473-7.8884l-0.9862-9.2665l-2.8944-10.2796c0,0-5.25-5.925-5.5-6.3792 s-6.1667-3.5271-6.1667-3.5271L35.7965,14.7599z"/>
    <path fill="#3F3F3F" stroke="none" d="M26.6294,19.5855l-3.3333,3l-5.5,2.7083l-4.0417,6.2917l-3.3333-2.3333l-4-9.3333 c0,0,1.8333-5.6667,2.3333-6.1667s5-3,5-3l5.1667,1.1667L26.6294,19.5855z"/>
    <path fill="#3F3F3F" stroke="none" d="M45.296,19.5438l3.8936,3.2933l5.8564,3.1234l3.0417,5.625l3.3333-2.3333l4-9.3333 c0,0-1.8333-5.6667-2.3333-6.1667s-5-3-5-3l-5.1667,1.1667L45.296,19.5438z"/>
    <path fill="#3F3F3F" stroke="none" d="M34.7544,41.0021c0,0-3,5.8333-6.1667,5.6667c-3.1667-0.1667-6.4167-1.4167-6.4167-1.4167l-1.6667-4.0833 l1.5-3.3333l2.3333-2.5l3.0833-1.3333l4-0.0833l1.4167,1.4167L34.7544,41.0021z"/>
    <path fill="#3F3F3F" stroke="none" d="M37.3377,41.0021c0,0,3,5.8333,6.1667,5.6667c3.1667-0.1667,6.4167-1.4167,6.4167-1.4167l1.6667-4.0833 l-1.5-3.3333l-2.3333-2.5l-3.0833-1.3333l-4-0.0833l-1.4167,1.4167L37.3377,41.0021z"/>
    <path fill="#3F3F3F" stroke="none" d="M31.5252,46.8355c0,0,4.9375-2.1875,8.8125,0.0625l-0.75,2.4375l-6.3125,0.5L31.5252,46.8355z"/>
  </g>
  <g id="hair"/>
  <g id="skin"/>
  <g id="skin-shadow"/>
  <g id="line">
    <circle cx="28.6022" cy="38.999" r="2" fill="#000000" stroke="none"/>
    <path fill="none" stroke="#000000" stroke-linecap="round" stroke-linejoin="round" stroke-miterlimit="10" stroke-width="2" d="M35.9683,49.1352c0,0-4.0706,1.7971-4.172-1.2109"/>
    <path fill="none" stroke="#000000" stroke-linecap="round" stroke-linejoin="round" stroke-miterlimit="10" stroke-width="2" d="M25.9772,18.8949c0,0-7.6875-11.625-14.9375-6.8125c-6.6011,4.3818-3.9113,13.9584,0.603,16.915"/>
    <path fill="none" stroke="#000000" stroke-linecap="round" stroke-linejoin="round" stroke-miterlimit="10" stroke-width="2" d="M21.0397,57.5824c-15.9375-6.3125-7.8506-24.0133-7.8506-24.0133s3.645-9.3586,9.3416-11.6086"/>
    <path fill="none" stroke="#000000" stroke-linecap="round" stroke-linejoin="round" stroke-miterlimit="10" stroke-width="2" d="M51.0661,57.5824c15.9375-6.3125,7.8506-24.0133,7.8506-24.0133s-3.645-9.3586-9.3416-11.6086"/>
    <circle cx="43.3344" cy="38.999" r="2" fill="#000000" stroke="none"/>
    <path fill="none" stroke="#000000" stroke-linecap="round" stroke-linejoin="round" stroke-miterlimit="10" stroke-width="2" d="M44.6566,51.5312c-1.2194,1.924-4.0542,5.1185-8.2597,2.2386h-0.8572c-4.2055,2.8798-7.0402-0.3147-8.2597-2.2386"/>
    <path fill="none" stroke="#000000" stroke-linecap="round" stroke-linejoin="round" stroke-miterlimit="10" stroke-width="2" d="M35.9683,49.1352c0,0,4.0706,1.7971,4.172-1.2109"/>
    <path fill="none" stroke="#000000" stroke-linecap="round" stroke-linejoin="round" stroke-miterlimit="10" stroke-width="2" d="M45.9594,18.8949c0,0,7.6875-11.625,14.9375-6.8125c6.6011,4.3818,3.9113,13.9584-0.603,16.915"/>
    <path fill="none" stroke="#000000" stroke-linecap="round" stroke-linejoin="round" stroke-miterlimit="10" stroke-width="2" d="M24.6335,16.9512c0,0,8.7098-4.9304,22.3259,0"/>
    <path fill="none" stroke="#000000" stroke-linecap="round" stroke-linejoin="round" stroke-miterlimit="10" stroke-width="2" d="M30.6022,59.5824c3.5914,1.2214,7.1689,1.2311,10.7321,0"/>
    <line x1="35.9683" x2="36" y1="49.1352" y2="53.7699" fill="none" stroke="#000000" stroke-linecap="round" stroke-linejoin="round" stroke-miterlimit="10" stroke-width="2"/>
    <path fill="none" stroke="#000000" stroke-linecap="round" stroke-linejoin="round" stroke-miterlimit="10" stroke-width="2" d="M43.9375,45.8355c0,0,7.3693,1.6133,7.4134-4.2067c0.0229-3.021-1.8972-5.6794-4.6072-7.0147 c-3.522-1.7354-8.4313-2.5763-8.4313,6.2213"/>
    <path fill="none" stroke="#000000" stroke-linecap="round" stroke-linejoin="round" stroke-miterlimit="10" stroke-width="2" d="M28.2573,45.8355c0,0-7.3692,1.6133-7.4134-4.2067c-0.0229-3.021,1.8972-5.6794,4.6072-7.0147 c3.522-1.7354,8.4312-2.5763,8.4312,6.2213"/>
  </g>
</g>
  <g transform="translate(392.09804542758525, 18.300803945325242) scale(1 1) translate(0, 0) scale(1.7777777777777777 1.7777777777777777) "><g id="color">
    <path fill="#e27022" d="m47.25 44.38 2.658 2.696 5.591 1.245-1.291 4.058 0.75 3.218 2.208-0.7136 2.625-4.979 1.699-5.4c-3.714-2.637-4.903-6.142-6.384-9.809z"/>
    <path fill="#E27022" d="m30.95 43.79-1.819 2.842-1.583 7.534-1.602 1.754-2.94-1.088-0.3333-5.25s0.5-4.511 1-6.547c0.5-2.036 5.333-2.366 5.333-2.366l1.944 3.121z"/>
    <path fill="#F4AA41" d="m50.8 29.28c-0.0178-0.0229-0.0324-0.0417-0.0436-0.0563 0.0125 0.0162 0.0251 0.0325 0.0436 0.0563z"/>
    <path fill="#F4AA41" d="m51.75 30.51c-0.1079-0.1391-0.1959-0.2526-0.2845-0.3668 0.1603 0.2067 0.2845 0.3668 0.2845 0.3668z"/>
    <path fill="#F4AA41" d="m51.47 30.14c-0.2275-0.2932-0.5278-0.6804-0.6703-0.8642 0.0998 0.1286 0.3097 0.3994 0.6703 0.8642z"/>
    <path fill="#f4aa41" d="m67.14 16.53-2.516-0.3133-4.29 1.557c-0.4949 3.096-1.209 8.033-1.209 8.033l-4.066 3.823-6.591 0.9037-5.66-2.434-15.53-1.146-6.442 1.238-6.324-2.754-4.26-2.829-3.623 0.739 1.75 3.417-3.318 5.1 0.9412 4.237s4.63 0.0092 6.91 0.5499l3.396-1.197c-0.5476 2.351 0.6858 4.811 1.548 6.939-2.867 1.41-4.38 2.611-5.217 4.64-0.3842 0.9322-0.6255 3.266-0.7894 4.648l2.798 2.062s3.938-0.3125 2.344-4.577l2.799-2.733c1.502-0.7944 4.45-2.175 4.45-2.175l14.5 0.7273 2.743 3.189-1.329 7.442 2.556-0.2704 4.885-6.5v-3.489s4.941-5.533 6.021-8.887l0.0119 0.0164s5.806-3.004 8.03-7.525c3.597-5.054-0.6774-9.975 4.438-8.312 1.289 0.4189 2.883-2.184 1.32-3.809-0.2826-0.3119-0.1871-0.2065-0.2826-0.3119z"/>
  </g>
  <g id="hair"/>
  <g id="skin"/>
  <g id="skin-shadow"/>
  <g id="line">
    <path fill="none" stroke="#000" stroke-linecap="round" stroke-linejoin="round" stroke-miterlimit="10" stroke-width="2" d="m12.46 35.74c-2.333 1-4.917 0.8333-4.917 0.8333-1.677 0.1458-3.115-4.01-2.485-4.733l3.318-5.1-1.75-3.417s5.008-1.415 7.883 2.09c0.3444 0.42 0.7943 0.7429 1.279 0.9871 0.0298 0.015 0.0602 0.0302 0.0912 0.0456 2.593 1.289 5.546 1.571 8.385 0.9981 7.222-1.458 14.07-1.37 21.7 2.212 7.625 3.583 14.53-2.25 13.64-7.5-0.793-4.647 3.562-7.583 6.75-5"/>
    <path fill="none" stroke="#000" stroke-linecap="round" stroke-linejoin="round" stroke-miterlimit="10" stroke-width="2" d="m16.05 48.82c0.6006-2.206 8.491-3.648 8.491-3.648s3.228-1.201 1.426-4.504"/>
    <path fill="none" stroke="#000" stroke-linecap="round" stroke-linejoin="round" stroke-miterlimit="10" stroke-width="2" d="m18.3 33.24c-1.543 1.834-3.893 4.803-0.44 9.158 0 0-6.756 2.853-6.006 8.033 0 0 0.3624 2.476 2.402 2.402"/>
    <path fill="none" stroke="#000" stroke-linecap="round" stroke-linejoin="round" stroke-miterlimit="10" stroke-width="2" d="m23.5 50.03c-1.156 7.254 2.386 6.055 3.017 5.661 1.148-0.7173 1.848-9.854 3.952-11.31 1.592-1.104 8.167-0.3021 8.167-0.3021"/>
    <path fill="none" stroke="#000" stroke-linecap="round" stroke-linejoin="round" stroke-miterlimit="10" stroke-width="2" d="m38.44 41.33c0.0911 1.742 0.7529 3.402 1.734 4.845 0.6616 0.9727 1.803 2.32 1.453 2.985-4.479 8.5 0.6224 7.022 1.083 6.167 3.188-5.917 6.125-4.104 4.647-10.52 0 0 5.27-1.81 5.52-7.977"/>
    <path fill="none" stroke="#000" stroke-linecap="round" stroke-linejoin="round" stroke-miterlimit="10" stroke-width="2" d="m48.15 45.59s2.367 3.204 7.758 2.693c0 0-3.326 6.762 0 7.62 1.917 0.4941 4.722-11.16 4.722-11.16s-1.839-0.7937-3.951-4.182"/>
  </g>
</g>
  <g transform="translate(565.7871376374778, 36.55626315603547) scale(1 1) translate(0, 0) scale(1.7777777777777777 1.7777777777777777) "><g id="color">
    <path fill="#A57939" stroke="none" d="M18.921,25.5021c-0.75,0.25-8.5,9.3333-9.25,15.0833s-0.3333,8.0833-0.3333,8.0833 s2.8333,8.75,11.1667,13.0833c0,0,13.0833,13.1667,30.0833,0.25c0,0,8.3333-2.8333,12-14.5833l-0.3333-9.6667l-2.4167-6.1667 c0,0-4.5-4.3333-4.6667-4.75c-0.1667-0.4167-5.4167-4-5.4167-4l-1.9167-0.5833L23.921,22.6688L18.921,25.5021z"/>
    <path fill="#F4AA41" stroke="none" d="M60.0877,21.2105l0.25-5.75l-1.125-3.875l-5.625-0.75l-5.25,2.5l-3.125,2.625l-3.25-5.375l-5.875-2.75 l-10.125,2l-1.125,0.25c0,0-2.375,1.75-2.25,2.5c0,0-6.75-3-9.625-0.375c0,0-3.75,6.875,0.375,11.375l4,3.5 c0,0-9.5,8.625,1.25,19.5c0,0-2.6198,5.6214,1.1127,11.9173l3.2206,6.666c6,5.3333,19.4167,5.0833,25.4167-0.25l2.3253-4.8129 c0.9155-1.0835,4.6646-5.941,3.6747-11.7704c0,0,8.5-8.125,1.625-20.75l-1.625-1.5l3-1.625L60.0877,21.2105z"/>
    <path fill="#A57939" stroke="none" d="M22.3377,12.398c0,0,1-1.9375,3.875-3s5.8125-1.6875,5.8125-1.6875s6.4375,0.9375,6.9375,1 s6,6.3125,6,6.3125l0.4375,2.4375c0,0-1.8125,1.875-6.5625-0.5625s-5.8125-2.375-6-2.25c-0.1875,0.125-5.625,2.3125-5.625,2.3125 l-2.0625-1.6875L22.3377,12.398z"/>
    <path fill="#FFFFFF" stroke="none" d="M47.671,42.3355c0.0834-0.2084,1.5-8.6667,1.5-8.6667h-0.1666c0,0-2.6667,4.7917-5.625,5.6667l-0.5,1.5416 l0.0937,1.5181c-0.6256-0.0616-1.2596-0.024-1.6979,0.2527c-1.1875,0.75-2.375,0.5-2.375,0.5l-1.8125,1.6875l-0.5625,0.875 l-1.6875-0.5625c0,0-0.6875-2-0.875-2.0625c-0.1875-0.0625-2.0625-0.75-2.0625-0.75l-1.1875,0.4375 c0,0-0.9572-0.3216-1.9857-0.1018l0.1107-1.7941l-0.5-1.5416c-2.9583-0.875-5.625-5.6667-5.625-5.6667H22.546 c0,0,1.4167,8.4583,1.5,8.6667c0.0643,0.1606,1.7091,1.8027,2.4614,2.5486c-0.7147,2.222,0.2053,4.6389,0.2053,4.6389l2.25,2.8125 l5.25-0.75l1.9375-1.5625l1.8125,0.9375l3.9375,1.5l2.5-1.3125c0,0,1.6875-4.5,1.75-4.6875 c0.0327-0.098-0.2592-1.0667-0.5452-1.9694C46.4254,43.6732,47.6166,42.4716,47.671,42.3355z"/>
    <path fill="#f4aa41" stroke="none" d="M27.046,18.0855c0,0,0.4583,2.875-2.2917,5.7083c0,0-4.3333,0.9167-4.5417,1.0417 c-0.2083,0.125-2.3333,1.3333-2.6667,1.5c-0.3333,0.1667-1.7083-0.2917-2.0417-0.5417s-3.4583-5.5-3.4583-5.5l0.1667-3.625 l1.0417-4.375l4.6667-0.5833l4,1.0417l3.8333,3.0417L27.046,18.0855z"/>
    <path fill="#f4aa41" stroke="none" d="M45.033,17.2521c0,0-0.4583,2.875,2.2917,5.7083c0,0,4.3333,0.9167,4.5417,1.0417 c0.2083,0.125,2.3333,1.3333,2.6667,1.5s1.7083-0.2917,2.0417-0.5417c0.3333-0.25,3.4583-5.5,3.4583-5.5l-0.1667-3.625 l-1.0417-4.375l-4.6667-0.5833l-4,1.0417l-3.8333,3.0417L45.033,17.2521z"/>
    <path fill="#FFFFFF" stroke="none" d="M27.671,51.3355l2,4.5l2.5833,1.5833l5.75,0.4167l4.4167-1.5833l2.4167-5.25l-2.9375,1.4583l-4.3958-1.4583 l-1.5-1.3333l-3.0833,1.6667c0,0,0,1.3333-1.75,0.9167C29.421,51.8355,27.671,51.3355,27.671,51.3355z"/>
  </g>
  <g id="hair"/>
  <g id="skin"/>
  <g id="skin-shadow"/>
  <g id="line">
    <ellipse cx="28.7782" cy="31.5656" rx="2" ry="2" transform="matrix(0.5156 -0.8568 0.8568 0.5156 -13.1061 39.9485)" fill="#000000" stroke="none"/>
    <ellipse cx="43.4629" cy="31.5656" rx="2" ry="2" transform="matrix(0.8568 -0.5156 0.5156 0.8568 -10.0526 26.9285)" fill="#000000" stroke="none"/>
    <path fill="none" stroke="#000000" stroke-linecap="round" stroke-linejoin="round" stroke-miterlimit="10" stroke-width="2" d="M40.3928,43.0656c0,0-1.8705-1.3333-2.9394,2.0833l-1.4252,1.0833l-1.4252-1.0833c-1.0689-3.4167-2.9394-2.0833-2.9394-2.0833"/>
    <path fill="none" stroke="#000000" stroke-linecap="round" stroke-linejoin="round" stroke-miterlimit="10" stroke-width="2" d="M42.9467,39.9822l2.1482,3.519c0.1941,0.3179,0.3227,0.6662,0.3793,1.0272l0.326,2.0779c0.0856,0.5453,0.0042,1.1018-0.235,1.6067 l-1.1399,2.407c-0.4169,0.8804-1.2717,1.5195-2.2925,1.7141l0,0c-0.6475,0.1234-1.3206,0.0597-1.9273-0.1826l-1.3016-0.5197 c-0.3174-0.1267-0.6105-0.2999-0.868-0.5128l-1.3748-1.1369h-1.2661l-1.3748,1.1369c-0.2575,0.2129-0.5505,0.3861-0.868,0.5128 l-1.3016,0.5197c-0.6067,0.2423-1.2798,0.306-1.9273,0.1826h0c-1.0208-0.1946-1.8756-0.8337-2.2925-1.7141l-1.1399-2.407 c-0.2391-0.505-0.3205-1.0614-0.235-1.6067l0.326-2.0779c0.0566-0.361,0.1853-0.7093,0.3793-1.0272l2.1482-3.519"/>
    <line x1="36.0282" x2="36.0282" y1="46.2322" y2="48.9822" fill="none" stroke="#000000" stroke-linecap="round" stroke-linejoin="round" stroke-miterlimit="10" stroke-width="2"/>
    <path fill="none" stroke="#000000" stroke-linecap="round" stroke-linejoin="round" stroke-miterlimit="10" stroke-width="2" d="M30.5366,55.5239l0.7708,0.7941c0.8297,0.8549,1.9545,1.3607,3.1446,1.4142l3.0167,0.1356 c1.1576,0.052,2.2933-0.3278,3.1868-1.0657l0.8644-0.714"/>
    <path fill="none" stroke="#000000" stroke-linecap="round" stroke-linejoin="round" stroke-miterlimit="10" stroke-width="2" d="M17.7391,26.8288c-9.9983-4.0396-4.7942-14.1799-4.7942-14.1799c7.5833-4.5833,13.833,4.75,13.833,4.75 s4.8857-4.6468,12.3055-1.3781"/>
    <path fill="none" stroke="#000000" stroke-linecap="round" stroke-linejoin="round" stroke-miterlimit="10" stroke-width="2" d="M24.0282,23.1489c0,0-17.3333,6.0833-13.75,25"/>
    <path fill="none" stroke="#000000" stroke-linecap="round" stroke-linejoin="round" stroke-miterlimit="10" stroke-width="2" d="M19.456,45.1873c-2.6014,3.7405-3.5847,9.9899,4.4889,19.4616"/>
    <path fill="none" stroke="#000000" stroke-linecap="round" stroke-linejoin="round" stroke-miterlimit="10" stroke-width="2" d="M24.0282,27.7322c0,0-5.6115,8.4105,2.1526,17.7886"/>
    <path fill="none" stroke="#000000" stroke-linecap="round" stroke-linejoin="round" stroke-miterlimit="10" stroke-width="2" d="M25.3605,10.9187c0,0,12.7053-9.5,19.8616,5.3333"/>
    <path fill="none" stroke="#000000" stroke-linecap="round" stroke-linejoin="round" stroke-miterlimit="10" stroke-width="2" d="M45.2221,16.4903c0,0,6.2497-9.3333,13.833-4.75c0,0,5.2041,10.1403-4.7942,14.1799"/>
    <path fill="none" stroke="#000000" stroke-linecap="round" stroke-linejoin="round" stroke-miterlimit="10" stroke-width="2" d="M47.9718,22.2403c0,0,17.3333,6.0833,13.75,25"/>
    <path fill="none" stroke="#000000" stroke-linecap="round" stroke-linejoin="round" stroke-miterlimit="10" stroke-width="2" d="M53.6231,46.2342c1.6075,3.8321,1.2349,9.5252-5.5679,17.5062"/>
    <path fill="none" stroke="#000000" stroke-linecap="round" stroke-linejoin="round" stroke-miterlimit="10" stroke-width="2" d="M47.9718,26.8237c0,0,5.6115,8.4105-2.1526,17.7886"/>
  </g>
</g>
  <g transform="translate(717.0348546707205, 123.87917329949448) scale(1 1) translate(0, 0) scale(1.7777777777777777 1.7777777777777777) "><g id="color">
    <path fill="#F4AA41" stroke="none" d="M10.921,22.5547l-4.0185,2.0136l-2.5423,1.7802l-0.8686,2.7256l-1.4696,4.1912l1.8157,2.3282l5.8333-1.5797 l1.6224,1.5797l3.6707,1.9249l1.2487,4.3261l-4.0418,3.9438l-1.4167,4.3797l0.539,2.6654l2.8043,2.3565l3.0014-2.8463 c0,0-0.5245-3.0007,0.9404-4.3388c1.4649-1.3381,3.3757-3.7385,3.3757-3.7385v8.4005l0.6012,2.5443l2.2353,0.4577l1.3519-1.8344 l1.4614-12.9224l2.2658,0.2907l5.9944,0.5474l4.2084-2.0965l1.1374,4.6127l3.6984,3.7385l-0.79,4.7548l1.175,2.2688l2.5399-1.4963 l2.3975-4.1153v-3.6284l-4.1458-4.0474l7.6544,5.3456l2.7721,1.7794l0.7162,5.8899l1.9164,0.9706l1.8163-1.4347l-0.7805-9.0342 L57.9183,43.88l-3.4836-5.7002l0.2779-4.3048l-0.5946-5.3399c-3.7098-1.924-7.58-2.9066-11.6334-2.8146l-8.4753-0.0539 l-7.4206,0.5278l-4.8427-1.3913l-6.8252-0.2347l-1.6817-1.3828L10.921,22.5547z"/>
    <path fill="#FFFFFF" stroke="none" d="M42.2127,37.086c0,0-10.6875-4.6485-14.25-0.211l-0.8976,4.037l4.3849,0.963l7.2002-1.375L42.2127,37.086z"/>
    <path fill="#FFFFFF" stroke="none" d="M19.921,40.875l-4.9167,2.6667l-3.5503,4.4631v5.4119l4.4253,1.6116l1.4167-2.945 c0,0-0.3051-2.6254,0.7435-3.875c1.0486-1.2496,3.2982-4.125,3.2982-4.125l-0.25-2.2083L19.921,40.875z"/>
    <path fill="#FFFFFF" stroke="none" d="M40.6294,43.0417c0,0,7.625-1.2709,9.8333,2.6041v3.7292l-3.75,5.6533l-2.2083,0.1827l-1.125-1.5443 l0.99-4.375l-0.6984-1.625l-1.4583-2.5295L40.6294,43.0417z"/>
    <path fill="#f4aa41" stroke="none" d="M54.046,33.8333c0,0,2.5005,9.2708,6.3755,11.8124c3.875,2.5417,5.7079,2.9792,7.8745,2.5626 c1.8129-0.3486,1.5833-2.5626,1.5833-2.5626H67.796l-6.0833-3.2291l-1.5719-3.2761l-0.7198-2.8489l-1.0833-4.0282L54.874,29.049 l-2.0363-1.1324L54.046,33.8333z"/>
  </g>
  <g id="hair"/>
  <g id="skin"/>
  <g id="skin-shadow"/>
  <g id="line">
    <path fill="none" stroke="#000000" stroke-linecap="round" stroke-linejoin="round" stroke-miterlimit="10" stroke-width="2" d="M14.3304,24.5107h6.2586c0.7536,0,1.4984,0.1615,2.1843,0.4735l0.9154,0.4165c1.3718,0.6241,2.8873,0.8609,4.3831,0.6759 c5.4788-0.6773,18.8505-0.9925,23.8963,1.3062c6.9315,3.1578,6.4836,7.3762,7.3482,9.6455 c0.8646,2.2692,2.9583,9.0061,9.6667,8.5999"/>
    <path fill="none" stroke="#000000" stroke-linecap="round" stroke-linejoin="round" stroke-miterlimit="10" stroke-width="2" d="M18.1805,35.1274c0.4163,2.1503,1.4556,4.6774,3.6201,7.4476v11.1514c0,1.1046,0.8954,2,2,2h0.1891 c1.0865,0,1.9746-0.8635,1.9993-1.9497c0.0903-3.9687,1.4782-15.2085,2.4732-16.836c0,0-0.6371-2.5625-1.25-4.25"/>
    <path fill="none" stroke="#000000" stroke-linecap="round" stroke-linejoin="round" stroke-miterlimit="10" stroke-width="2" d="M12.2006,35.0056c0.415,0.6388,1.6554,1.4664,2.4862,1.8528c0.4386,0.204,0.753,0.6061,0.8782,1.0733l1.2429,4.6375 c0,0-7.3532,3.9727-4.451,10.976c0.2972,0.7173,1.0845,1.4253,2.1262,1.5869c1.0894,0.169,3.0014-0.6707,2.3248-2.6707"/>
    <path fill="none" stroke="#000000" stroke-linecap="round" stroke-linejoin="round" stroke-miterlimit="10" stroke-width="2" d="M27.9975,40.6854c0,0,7.5589,2.9477,14.0283-2.9477c0,0,0.1031,1.7447,6.2829,6.0852c0,0,3.7501,2.8987,7.6317,4.7127 l0.5507,5.6552c0.0906,0.9305,1.1792,1.5357,2.1141,1.5357h0c1.0579,0,1.892-0.9006,1.8109-1.9555l-0.615-7.9988 c-0.0424-0.5518-0.4406-0.9553-0.9528-1.1649c-1.3235-0.5416-3.4173-4.1666-4.7819-7.2291l-0.4167-3.316"/>
    <path fill="none" stroke="#000000" stroke-linecap="round" stroke-linejoin="round" stroke-miterlimit="10" stroke-width="2" d="M38.567,40.0831c0,0,1.352,4.1254,6.2702,8.5451l-0.8725,4.0737c-0.2501,1.1677,0.6401,2.2688,1.8343,2.2688h0 c0.7351,0,1.4005-0.426,1.7053-1.0949c0.6068-1.3321,1.3466-3.5208,2.0204-4.5392"/>
    <path fill="none" stroke="#000000" stroke-linecap="round" stroke-linejoin="round" stroke-miterlimit="10" stroke-width="2" d="M13.8249,26.0657c1.7351-2.7653-1.6752-4.625-3.754-2.9065c-1.5286,1.2637-2.3807,1.2238-2.3807,1.2238 c-3.8209,1.0685-3.5524,3.9198-3.5524,3.9198l-1.6985,4.6446c-0.0943,0.3356,0.0237,0.6948,0.2985,0.9092l1.6702,1.3022 c0.5103,0.3978,1.188,0.4859,1.7866,0.2402c1.6796-0.6895,5.3397-2.6848,5.3397-5.6474"/>
    <path fill="none" stroke="#000000" stroke-linecap="round" stroke-linejoin="round" stroke-miterlimit="10" stroke-width="2" d="M21.8006,44.2085c0,0-2.9432,1.5902-4.3161,3.7385"/>
    <path fill="none" stroke="#000000" stroke-linecap="round" stroke-linejoin="round" stroke-miterlimit="10" stroke-width="2" d="M49.1796,35.6907c-0.8284,0-1.5-0.6716-1.5-1.5c0-0.8284,0.6716-1.5,1.5-1.5c0.3365,0,0.6472,0.1108,0.8975,0.298"/>
    <path fill="none" stroke="#000000" stroke-linecap="round" stroke-linejoin="round" stroke-miterlimit="10" stroke-width="2" d="M32.1366,32.2635c-0.8284,0-1.5-0.6716-1.5-1.5s0.6716-1.5,1.5-1.5c0.3365,0,0.6472,0.1108,0.8975,0.298"/>
    <path fill="none" stroke="#000000" stroke-linecap="round" stroke-linejoin="round" stroke-miterlimit="10" stroke-width="2" d="M40.4841,32.8772c-0.6478-0.5164-0.7544-1.4601-0.238-2.1079c0.5164-0.6478,1.4601-0.7544,2.1079-0.238 c0.2632,0.2098,0.437,0.4901,0.5161,0.7924"/>
    <path fill="none" stroke="#000000" stroke-linecap="round" stroke-linejoin="round" stroke-miterlimit="10" stroke-width="2" d="M17.5144,32.1c-0.6478-0.5164-0.7544-1.4601-0.238-2.1079c0.5164-0.6478,1.4601-0.7544,2.1079-0.238 c0.2632,0.2098,0.437,0.4901,0.5161,0.7924"/>
    <path fill="none" stroke="#000000" stroke-linecap="round" stroke-linejoin="round" stroke-miterlimit="10" stroke-width="2" d="M34.3948,35.5775c0.5438-0.6249,1.4913-0.6907,2.1162-0.1468c0.6249,0.5438,0.6907,1.4913,0.1468,2.1162 c-0.2209,0.2539-0.5085,0.4155-0.814,0.4814"/>
    <path fill="none" stroke="#000000" stroke-linecap="round" stroke-linejoin="round" stroke-miterlimit="10" stroke-width="2" d="M22.0056,34.7229c0.5438-0.6249,1.4913-0.6907,2.1162-0.1468c0.6249,0.5438,0.6907,1.4913,0.1468,2.1162 c-0.2209,0.2539-0.5085,0.4155-0.814,0.4814"/>
  </g>
</g>
  <g transform="translate(819.6890922098924, 265.1706099081639) scale(1 1) translate(0, 0) scale(1.7777777777777777 1.7777777777777777) "><g id="color">
    <path fill="#e27022" d="M11.2544,25.4963,9.0044,28.12,5.421,31.8315l-.5248,4.649.4148,1.9272,1.575,1.0532,5.8684-1.5834,2.42-.5443.6011,4.67L12.2544,45s-.67.3054-1.1667.5633c-2.0208,2.2486-3.9091,5.7-1.6988,8.3888l3.1988-.1587L13.8428,51.64l.43-2.1447L22.0841,44.61l2.545-2.6064,6.792-.7817,6.7923-.703L42.38,39.04l1.8321,5.64,1.7086,4.08-.77,4.69-.076,1.4726,1.3427,1.2681h1.7535l2.6112-6.5245-.8666-3.3932.14-5.43,2.3413-5.2812,1.3576-3.731s.26-3.451-1.2034-5.2246-8.3385-2.5344-8.3385-2.5344h-7.72l-7.1581.9372-4.9177.4866H20.6745l-4.8368,1.5871-1.5648-.15Z"/>
    <polygon fill="#d0cfce" points="23.463 43.912 23.775 46.938 24.417 49.938 23.94 53.063 24.629 54.637 25.513 55.411 27.963 55.411 29.57 49.662 29.57 41.573 24.629 42.003 23.463 43.912"/>
    <path fill="#e27022" d="M50.4,42.4235,52.8351,45.43,56.65,48.2323l2.1613,3.4857.7183,3.0647,2.4954.5608,2.1419-2.4529a5.5241,5.5241,0,0,0-1.4255-3.9952l-2.4872-2.6219-2.5-5.7551-1-8.3517-1.75-3.0833-1.3458-1.28H52.15l1.0782,5.8945-1.0157,3.551-2.1572,4.0157Z"/>
    <path fill="#d0cfce" d="M24.4165,41.5733l6.2336-.1358,4.8115-.6344,4.7618-.998L42.38,39.04l.703-4.9774s-6.8176,5.13-18.6566,4.9711Z"/>
    <path fill="#d0cfce" d="M16.7957,33.277l-.958,3.2855-.1595,1.2554-4.9777.6138-3.2239.87s1.208-5.4057,4.66-7.1348C12.1361,32.1667,15.8787,30.9915,16.7957,33.277Z"/>
    <path fill="#d0cfce" d="M53.1119,45.2014l4.6425-4.683,2.5941,5.59s3.2845,2.4088,3.8161,3.6227a8.1341,8.1341,0,0,1,.5024,3.16l-3.7042,2.453-1.8432-1.55L58.2436,50.5l-.5751-1.7117-2.2392-1.4529-2.0431-1.7721Z"/>
  </g>
  <g id="line">
    <path fill="none" stroke="#000" stroke-linecap="round" stroke-linejoin="round" stroke-width="2" d="M12.1118,37.5052,9.6868,39.097a2.5683,2.5683,0,0,1-1.41.4213H7.4217A2.5686,2.5686,0,0,1,5.56,38.7189h0a2.5688,2.5688,0,0,1-.6633-2.2384l.8909-4.7966,3.2578-2.51s1.363-5.2538,4.7676-2.6374c3.8838,2.9846-1.7758,5.2236-1.7758,5.2236"/>
    <path fill="none" stroke="#000" stroke-linecap="round" stroke-linejoin="round" stroke-width="2" d="M14.8519,27.6188S20.42,24.9037,23.94,25.4a13.1662,13.1662,0,0,0,4.28-.1869c5.3712-1.018,16.7957-2.6465,22.5624.5368,0,0,8.7736,2.5188,9.787,17.6594a5.0808,5.0808,0,0,0,1.7123,3.5375c1.2438,1.058,4.3018,1.8859,5.0518-2.1974"/>
    <path fill="none" stroke="#000" stroke-linecap="round" stroke-linejoin="round" stroke-width="2" d="M24.2555,37.3332s.9081,5.3808-1.5889,6.9168c-2.7974,1.7208-8.7769,5.4861-8.7769,5.4861s.6949,5.7817-3.7587,3.5413"/>
    <path fill="none" stroke="#000" stroke-linecap="round" stroke-linejoin="round" stroke-width="2" d="M16.7957,33.277s-2.0215,2.6553-.6317,8.7261l-4.414,4.33"/>
    <path fill="none" stroke="#000" stroke-linecap="round" stroke-linejoin="round" stroke-width="2" d="M24.629,42.0031S37.2,41.0824,39.5376,39.9889s3.0907-.9552,3.0907-.9552"/>
    <path fill="none" stroke="#000" stroke-linecap="round" stroke-linejoin="round" stroke-width="2" d="M42.7736,34.5s-1.784,5.1542,3.4593,14.2605l-1.2,5.202a1.86,1.86,0,0,0,1.8124,2.2781h.0024a1.86,1.86,0,0,0,1.7558-1.2463l2.1789-6.2338s-2.6532-4.9632.0632-9.7268,1.9879-7.45,1.9879-7.45"/>
    <path fill="none" stroke="#000" stroke-linecap="round" stroke-linejoin="round" stroke-width="2" d="M49.8724,41.5141s4.0648,5.2765,7.1008,6.7766c2.11,1.0426,1.9436,4.4593,1.9436,4.4593v.173a2,2,0,0,0,2.087,1.9981l.75-.0326a2,2,0,0,0,1.913-1.9981v-.1088"/>
    <path fill="none" stroke="#000" stroke-linecap="round" stroke-linejoin="round" stroke-width="2" d="M24.629,46.7007a18.4946,18.4946,0,0,1,0,6.36h0a1.6658,1.6658,0,0,0,1.4659,2.4572h.41a1.6659,1.6659,0,0,0,1.6107-1.2408l1.0516-4.61-.3853-8.0173"/>
    <path fill="none" stroke="#000" stroke-linecap="round" stroke-linejoin="round" stroke-width="2" d="M26.7967,25.4963s4.0366,3.3371,2.37,12.67"/>
    <path fill="none" stroke="#000" stroke-linecap="round" stroke-linejoin="round" stroke-width="2" d="M33.3883,41.1571s2.2784-6.5738.6227-11.74"/>
    <path fill="none" stroke="#000" stroke-linecap="round" stroke-linejoin="round" stroke-width="2" d="M37.1262,24.0725s2.091,2.5109,2.1744,8.0942"/>
    <path fill="none" stroke="#000" stroke-linecap="round" stroke-linejoin="round" stroke-width="2" d="M43.1546,23.9437S45.5,25.6667,45.3333,30"/>
    <path fill="none" stroke="#000" stroke-linecap="round" stroke-linejoin="round" stroke-width="2" d="M21.5,32.6622a11.9274,11.9274,0,0,0-1.68-6.8562"/>
  </g>
</g>
  <g>
    <defs/>
    <path d="M 485.33358744419047 554.7357968230472 L 500.0 500.0 L 560.9225514227011 341.2913274954757" fill="none" stroke="black" stroke-width="12.8"/>
    <path d="M 696.2990915244727 613.3333333333333 L 549.0747728811182 528.3333333333334 A 56.666666666666664 56.666666666666664 0 0,1 443.3333333333333 500.0 L 386.6666666666667 500.0" fill="none" stroke="black" stroke-width="12.8"/>
    <path d="M 777.1418202079117 558.9083123983652 L 721.7134561663293 547.1266499186921 A 226.66666666666666 226.66666666666666 0 0,1 651.6696041080079 668.4461604415427 L 727.5044061620118 752.669240662314" fill="none" stroke="black" stroke-width="12.8"/>
    <path d="M 840.0 500.0 L 783.3333333333334 500.0 A 283.33333333333337 283.33333333333337 0 0,1 758.8378796654035 615.2420488714768 L 810.6054555984842 638.2904586457721" fill="none" stroke="black" stroke-width="12.8"/>
    <path d="M 373.66537966884295 613.7522030810059 L 415.77691977922865 575.834802054004 A 113.33333333333333 113.33333333333333 0 0,1 415.77691977922865 424.16519794599606 L 331.5538395584573 348.3303958919921" fill="none" stroke="black" stroke-width="12.8"/>
    <path d="M 429.95614794167864 715.5728103602348 L 447.4671109562589 661.6796077701761 A 170.0 170.0 0 0,1 333.71490787525306 535.3449874390191 L 167.42981575050607 570.6899748780381" fill="none" stroke="black" stroke-width="12.8"/>
    <path d="M 529.6163979258351 781.7812036876775 L 523.6931183406681 725.4249629501419 A 226.66666666666666 226.66666666666666 0 0,1 348.3303958919922 668.4461604415427 L 310.4129948649902 710.5577005519285" fill="none" stroke="black" stroke-width="12.8"/>
    <path d="M 605.0657780874822 823.3592155403521 L 587.5548150729018 769.4660129502936 A 283.33333333333337 283.33333333333337 0 0,1 470.38360207416486 781.7812036876775 L 464.46032248899786 838.137444425213" fill="none" stroke="black" stroke-width="12.8"/>
    <path d="M 330.0000000000001 794.4486372867092 L 358.33333333333337 745.373864405591 A 283.33333333333337 283.33333333333337 0 0,1 270.77851826043155 666.5391548162008 L 224.9342219125179 699.846985779441" fill="none" stroke="black" stroke-width="12.8"/>
    <path d="M 241.1621203345963 384.75795112852336 L 292.92969626767706 407.8063609028187 A 226.66666666666666 226.66666666666666 0 0,1 386.6666666666666 303.7009084755273 L 329.9999999999999 205.55136271329093" fill="none" stroke="black" stroke-width="12.8"/>
    <path d="M 167.42981575050607 429.3100251219619 L 222.85817979208838 441.09168760163493 A 283.33333333333337 283.33333333333337 0 0,1 270.7785182604315 333.4608451837993 L 224.93422191251784 300.15301422055916" fill="none" stroke="black" stroke-width="12.8"/>
    <path d="M 464.4603224889976 161.8625555747871 L 482.2301612444988 330.9312777873936 A 170.0 170.0 0 0,1 626.3346203311569 386.247796918994 L 668.4461604415426 348.330395891992" fill="none" stroke="black" stroke-width="12.8"/>
    <path d="M 641.6666666666667 254.62613559440902 L 613.3333333333334 303.7009084755273 A 226.66666666666666 226.66666666666666 0 0,1 707.0703037323228 407.80636090281865 L 810.6054555984844 361.70954135422795" fill="none" stroke="black" stroke-width="12.8"/>
    <path d="M 605.065778087482 176.64078445964776 L 587.5548150729018 230.5339870497064 A 283.33333333333337 283.33333333333337 0 0,1 689.5870051350099 289.4422994480717 L 727.504406162012 247.33075933768603" fill="none" stroke="black" stroke-width="12.8"/>
  </g>
</svg>
