<?xml version='1.0' encoding='ASCII' standalone='yes'?>
<svg xmlns="http://www.w3.org/2000/svg" xmlns:xlink="http://www.w3.org/1999/xlink" version="1.1" width="1000.0px" viewBox="0 0 1000.0 1000.0" height="1000.0px">
  <g transform="translate(856.0, 436.0) scale(1 1) translate(0, 0) scale(1.7777777777777777 1.7777777777777777) "><g id="color">
    <path fill="#f4aa41" d="m16.6968,14.0972l-.3388,2.1087c-.1129.519-1.3616,1.17-1.8773,1.2968l-1.0377.2552c-.2654.0653-.5057.2073-.6909.4083l-1.2013,1.304c-.226.2454-.5327.4013-.8642.4394l-3.8056.6337c-.5827.067-.07,2.426-.07,2.426.1884.3154,1.0266,1.132,1.3825,1.223l5.9453,1.2477c.568.1452.5905,1.7856.6467,2.3692l.3615,8.8989.0049.0482.5446,3.3609c.0575.355.2503.6739.5379.8899l4.1402,3.1091c.2294.1722.3999.4112.4882.684l1.1271,1.7672c.5596,1.729.629,4.8986.4371,6.7057l-.5456,5.3247c.0126.7144.3283,1.4191.9246,1.8127.089.0587.2182.0949.3712.1138,1.049.1294,2.039-.5321,2.4599-1.5016l1.5064-3.4707.0488-.1499,1.7796-7.9523c.1718-.7678.9457-1.2404,1.7072-1.0427h0c1.3066.3393,2.6647.4336,4.0057.2782l5.4182-.6279c.0687-.008.1367-.021.2034-.0391l7.0737-1.9151c.5475-.1482,1.1302.0508,1.4726.503l2.3735,3.1343,2.4204,3.2949c.3358.4571.5318,1.0018.5643,1.5681l.7963,5.3375c.1135,2.1878,1.7651,2.7989,2.6182,2.7237,0,0,1.586.0208,1.7338-2.2336l-.199-5.976c.0253-.7837-.0836-1.566-.3221-2.313l-.9911-3.1042c-.3926-1.2297-.471-2.5381-.228-3.8058l.6081-3.1732c.2066-1.078.1631-2.189-.1272-3.2476l-.1755-.6399c-.2252-.8212-.2013-1.6901.0655-2.4987.1958-.5933.432-1.1964.6084-1.3697.4775-.4693,4.8031-3.5057,5.4477-9.2232,1.347-11.9478-16.1699-13.7803-12.8901-11.0799l1.3145.3213c5.5799,2.1882,6.4456,4.6306,6.4456,4.6306,1.9087,3.6063-.3339,8.1105-1.5201,9.357l-.2282.2398c-.5055.5312-1.1213.9417-1.8066,1.2028-1.0223.3895-2.4457.9255-2.5666.9366-.1902.0176-3.3571-.3725-3.7821-.437s-7.6642-.2238-7.9142-.2257c-.2091-.0015-9.803-.074-12.9275-.0976-.5862-.0044-1.1021-.3758-1.297-.9287l-1.3691-3.885c-.046-.1305-.1112-.2534-.1934-.3646l-1.5687-2.522c-.0886-.1198-.1646-.2266-.2864-.3124l-.9112-.7811c-.2277-.1604-1.5735-.811-1.6719-1.0715l-.9346-2.4751c-.0177-.0469-.0379-.0927-.0605-.1374l-.7374-1.4553c-.2287-.4514-.6102-.8069-1.0766-1.0033l-.1094-.0461c-.8023-.3378-1.0724.3014-1.2575,1.1519Z"/>
    <path fill="#e27022" d="m44.3352,44.7665l.6057,1.8015c.2035.6052.5969,1.1284,1.1218,1.4919l2.1116,1.4622c.8325.5765,2.2047.9771,2.1658,1.989l-.5947,4.0453c-.1166.7931-.1811,1.5944-.1933,2.3959-.0049.3239-.0086.5836-.0086.5836.2004,1.2644,1.19,2.2572,2.4538,2.4615h0c.8904.144,1.8178-.1032,2.4655-.731.4927-.4776.9911-1.1855,1.2687-2.2145.0826-.306.0911-.6273.061-.9429-.1183-1.2421-.4393-4.6127-.6042-6.3436-.0653-.6858-.3671-1.3233-.8542-1.8104l-2.4824-2.4824c-.1753-.1753-.328-.372-.4543-.5853l-1.0603-1.7904c-.7434-1.2552-2.2898-1.7827-3.6453-1.2433l-1.8026.7172c-.473.1882-.7163.7133-.554,1.1958Z"/>
    <path fill="#e27022" d="m16.4295,38.5436c-.4718.6551-2.211,3.0924-3.4622,4.8741-1.0004,1.4246-1.8701,4.1212-1.8701,5.1958,0,1.2543.0164,2.436.4017,3.1582.5304.9942,1.2131,2.1711,1.7278,2.6338.4632.4164.9544.6915,1.5514.8688.2555.0759.7977.11,1.2604.1253.5046.0167,1.0036-.0977,1.4529-.3279l.2949-.1511c.1437-.0736.3387-.2546.5341-.4623.6524-.6935.9729-1.6673.7642-2.5963-.132-.5876-.4508-1.1243-1.155-1.2116-1.8836-.2336-2.0546-1.2336-1.6604-2.4479h0c-.0091-.0473.0098-.0956.0485-.1243l2.8272-2.0894c1.5-1.1085,1.6967-3.2776.4206-4.6379h0c-.0215-.0229-.046-.0429-.0728-.0593l-1.1922-.7324c-.6724-.2183-1.6197-.7391-1.6516-1.944-.0031-.1169-.1513-.1666-.2196-.0717Z"/>
  </g>
  <g id="line">
    <path fill="none" stroke="#000" stroke-linecap="round" stroke-linejoin="round" stroke-width="2" d="m58.4167,34.6667c.6667,1.6979.8506,2.9638.5159,4.5011l-1.1322,5.2009,1.9496,6.1068s.1206,4.7698.0014,8.2786c-.0369,1.087-.9494,1.9752-2.0371,1.9751h-.3531c-1.3464,0-1.9256-1.3248-1.9256-2.6712l-.8522-8.3913s-7.4907-5.4667-6.4583-13.6042"/>
    <path fill="none" stroke="#000" stroke-linecap="round" stroke-linejoin="round" stroke-width="2" d="m33.2655,45.25c3.8333-.2052,11.2345,0,14.9845-2.6875"/>
    <path fill="none" stroke="#000" stroke-linecap="round" stroke-linejoin="round" stroke-width="2" d="m51.3753,12c5.7603,1.5458,8.0746,4.2902,8.6494,7.2047,1.0392,5.269-4.012,9.798-9.2239,8.5024-2.5257-.6278-4.6488-.4429-4.6488-.4429l-18.402-.1392c-1.6875-8.125-6.4473-9.565-6.4473-9.565-.726-4.6648-3.2625-5.4159-4.0605-5.5368-.1336-.0202-.2558.0704-.2751.2041l-.5352,3.7024c-.0784.5421-.4973.9719-1.0372,1.0641l-.59.1008c-.7639.1305-1.4727.4822-2.0386,1.0117l-.894.8364c-.3126.2925-.7119.4754-1.1376.5212l-3.4582.372c-.7613.0819-.9791,2.1238-.6832,2.8301l.6306.8521c.2896.6913.9063,1.1916,1.6425,1.3325l6.4671.7328s-1,13.1667,2.7292,15.1667c8.1309,4.3607,4.4071,16.5216,4.4071,16.5216-.8217,1.4362-.1868,3.4576,1.4679,3.4576h.0015c.7939,0,1.5235-.4367,1.8987-1.1364l2.0998-5.4678,1.3773-9.1448c.1081-.7178-.0364-1.4427-.3653-2.0898-.576-1.1333-1.2539-3.3607-.137-6.5258"/>
    <path fill="none" stroke="#000" stroke-linecap="round" stroke-linejoin="round" stroke-width="2" d="m15.9846,39.0505l-4.3515,6.655c-.3212.4697-.5044,1.03-.5192,1.6187-.044,1.7553-.2547,5.5414,2.9991,7.69.8545.5642,2.4644.6389,3.3141.1114.7175-.4455,1.3028-1.2911.7739-2.8914"/>
    <line x1="20.284" x2="15.875" y1="44.1866" y2="47.2664" fill="none" stroke="#000" stroke-linecap="round" stroke-linejoin="round" stroke-width="2"/>
    <path fill="none" stroke="#000" stroke-linecap="round" stroke-linejoin="round" stroke-width="2" d="m46.1667,47.2664c.4329,1.5669,3.0772,3.003,4.25,3.7336,0,0-.9357,5.3422-1.0698,7.1428-.0484.6505.1869,1.281.5906,1.7322,1.0625,1.1875,2.4301.6653,2.4301.6653"/>
  </g>
</g>
  <g transform="translate(819.6890922098924, 606.8293900918361) scale(1 1) translate(0, 0) scale(1.7777777777777777 1.7777777777777777) "><g id="color">
    <path fill="#9b9b9a" d="m53.2127,6.2105l-6.25,6s-5.875-3.125-12-3.125-10.75,3-10.75,3l-7.1825-3.8575-2.7027-.6449-1.4511,2.096-1.5317,6.9329s-.8515,7.7235,1.7735,9.5985-2.4098,15.5975-2.4098,15.5975l3.636,5.8176,5.0828,4.6208c1.4385,1.3078,2.9665,2.5137,4.5729,3.6089l.3376.2302s3.3331,7.5833,10.9944,5.5959c0,0,5.7556,3.4875,10.3806-5.4709l1.3464-.8078c.7685-.4611,1.5118-.9629,2.2268-1.5034l4.6778-3.536,6.124-8.0279s-3.3664-10.4062-2.6164-13.9062,2.8664-9.3909,2.6164-11.1409-1.375-8.4527-1.375-8.4527c0,0-1.875-4.75-5.5-2.625Z"/>
    <path fill="#3f3f3f" d="m10.8981,43.2424c.657.9748,2.1099.906,2.6661-.1296,1.6182-3.0123,4.8502-7.7822,9.0235-7.6107l6.7236-.3695c.5352-.0294,1.048.2177,1.3585.6547l1.5355,2.161c.1452.2044.2387.4347.2731.683.1507,1.0892.5044,4.3352-.1361,7.248-.3493,1.5887.7709,3.1547,2.3975,3.1696.6791.0062,1.4146.0652,2.1885.2046.7536.1357,1.3819-.5736,1.13-1.2966-.6611-1.8977-1.3925-5.188-.6425-9.3289.0539-.2975.199-.5764.4064-.7964l1.9415-2.0592c.3116-.3305.7516-.5089,1.2054-.4887l2.9411.1307c.0628.0028.1253.0094.1873.0197l3.1519.5253c.1596.0266.3148.0287.4749.0054,1.2374-.1807,7.3418-.6904,9.1838,6.4541.3335,1.2936,2.0435,1.5852,2.7953.4809h0c.2451-.36.3287-.8059.2307-1.2302l-2.5979-11.2454c-.055-.2379-.0534-.4854.0047-.7225l.6422-2.6247,1.9705-8.0812c.051-.2091.0582-.4264.0212-.6384l-1.2329-7.0609c-.0189-.1082-.0491-.214-.0902-.3158l-1.2301-3.0477c-.0501-.1241-.1112-.2458-.1903-.3538-.6073-.8306-1.5508-1.3568-2.5837-1.4325l-1.1889-.087c-.4952-.0363-.9782.1652-1.3008.5426l-3.6537,4.2741c-.1641.192-.3724.3413-.6069.4351l-.7669.3068c-.35.14-.7388.1487-1.0946.0244l-4.5024-1.5722c-.1299-.0454-.2653-.0734-.4025-.0832l-8.7302-.6292c-.2066-.0149-.4141.0115-.6104.0776l-7.2421,2.4379c-.5408.1821-1.1379.0546-1.5572-.3325l-5.4656-5.0455c-.2609-.2409-.5962-.3856-.9504-.4103l-1.3705-.0956c-.5683-.0397-1.1131.2334-1.4215.7124l-1.6182,2.5138c-.0984.1529-.1694.3218-.2097.4991l-1.4216,6.2551c-.0385.1694-.0485.3441-.0295.5168l.719,6.5324c.015.1366.048.2707.0982.3986l1.6347,4.1732c.105.2682.1339.5602.0833.8437l-1.1847,6.6403c-.0112.0625-.0261.1243-.0448.1849l-1.7526,5.6958c-.1388.451-.0661.9405.1976,1.3318l.6435.9548Z"/>
    <path fill="#3f3f3f" d="m29.489,53.0348s4.4375-2.5625,11.1875.125l.0625.8125-2.25,1.5-.9375,1.625s-1.3125,1.25-2,1-3-1.125-3-1.125l-.75-1.5625-2.625-1.4375.0625-.875"/>
    <path fill="#9b9b9a" d="m55.2752,8.7105s5.25,8.5625.75,17.5c0,0-4.4375-6.5-7.9375-6.375,0,0,7.0625-4.25,7.1875-11.125Z"/>
    <path fill="#9b9b9a" d="m14.7227,8.7105s-5.25,8.5625-.75,17.5c0,0,4.4375-6.5,7.9375-6.375,0,0-7.0625-4.25-7.1875-11.125Z"/>
    <path fill="#9b9b9a" d="m29.1765,62.0759c.0875,1.832.5491,2.8313,1.5342,3.4925.5874.3942,1.2932.5737,1.9996.6119l3.9804.2153c1.0294.0557,2.0822-.2003,2.8785-.855.9166-.7535,1.3271-1.8083,1.1699-3.2586l-11.5626-.2061"/>
  </g>
  <g id="line">
    <circle cx="26.2495" cy="40.2751" r="2"/>
    <circle cx="44.2944" cy="40.5106" r="2"/>
    <path fill="none" stroke="#000" stroke-linecap="round" stroke-linejoin="round" stroke-width="2" d="m29.3116,53.9749l2.375,1.3959s.4899,2.9667,3.2712,2.748v3.5625s-3.4688,1.7604-6.3438-.5312c-2.2371-1.7832-3.5938-4.6875-3.5938-4.6875"/>
    <path fill="none" stroke="#000" stroke-linecap="round" stroke-linejoin="round" stroke-width="2" d="m21.739,53.3376c-3.8308-1.0774-6.3025-3.0804-7.8464-5.5039l-4.0216-5.5078c2.7739-7.0508,2.5763-14.1342,2.5763-14.1342-4.7083-8.6667-1.625-17.4583-1.625-17.4583,2.032-6.629,5.156-5.881,6.3271-5.3145.2848.1378.5128.3608.6814.6285,3.137,4.9822,9.6583,8.5609,9.6583,8.5609"/>
    <path fill="none" stroke="#000" stroke-linecap="round" stroke-linejoin="round" stroke-width="2" d="m15.614,9.2126s.375,7.5,7.3125,10.375c0,0-6.6983,1.679-7.7816,6.3457"/>
    <path fill="none" stroke="#000" stroke-linecap="round" stroke-linejoin="round" stroke-width="2" d="m54.8556,9.2126s-.375,7.5-7.3125,10.375c0,0,6.6983,1.679,7.7816,6.3457"/>
    <path fill="none" stroke="#000" stroke-linecap="round" stroke-linejoin="round" stroke-width="2" d="m30.9474,40.5106s2.711-4.3812-1.25-5.6689c-2.7917-.9075-6.2083,1.0584-6.2083,1.0584"/>
    <path fill="none" stroke="#000" stroke-linecap="round" stroke-linejoin="round" stroke-width="2" d="m35.3321,61.6813s3.4688,1.7604,6.3438-.5312c2.2371-1.7832,3.5938-4.6875,3.5938-4.6875"/>
    <path fill="none" stroke="#000" stroke-linecap="round" stroke-linejoin="round" stroke-width="2" d="m40.6873,53.9749l-2.7917,1.3959s-.1566,2.9667-2.9378,2.748"/>
    <path fill="none" stroke="#000" stroke-linecap="round" stroke-linejoin="round" stroke-width="2" d="m42.8008,14.9502s6.8333-3.75,9.875-8.9167c0,0,4.25-3.25,6.7917,5.0417,0,0,3.0833,8.7917-1.625,17.4583,0,0-.0675,7.3188,2.6299,13.7929l-4.6974,6.7357c-1.5598,2.0223-3.8715,3.6742-7.2242,4.6172"/>
    <path fill="none" stroke="#000" stroke-linecap="round" stroke-linejoin="round" stroke-width="2" d="m39.3425,40.8524s-2.7109-4.3812,1.25-5.6689c2.7917-.9075,6.2083,1.0584,6.2083,1.0584"/>
    <path fill="none" stroke="#000" stroke-linecap="round" stroke-linejoin="round" stroke-width="2" d="m24.6882,11.4515s7.9524-5.5773,21.3522,0"/>
    <path fill="none" stroke="#000" stroke-linecap="round" stroke-linejoin="round" stroke-width="2" d="m31.3533,65.8686c2.7191,1.4858,5.2903,1.3535,7.75,0"/>
  </g>
</g>
  <g transform="translate(717.0348546707205, 748.1208267005055) scale(1 1) translate(0, 0) scale(1.7777777777777777 1.7777777777777777) "><g id="color">
    <path fill="#E27022" stroke="none" d="M17.1228,5.3057L13.7993,9.348l-2.1112,12.8954l2.5003,11.9161l-2.5003,5.0356l0.4829,11.3882l2.2344,4.5 c0,0,6.9323-3.3333,8.7656,3.9167l12.9023,3.8333l13.216-4.25l0.715-2.439l3.5745-2.2785l3.5235,0.5481l2.5725-6.1293L60.3119,42 l-1.7215-6.5752l-0.7776-1.2636l1.4468-4.7673l0.2177-8.9431l-0.9631-9.823l-1.7047-3.8692L54.171,4.6667l-5.1846,6.5784 l-5.482,6.707H42.171l-5.1591-1.4108l-9.1742,0.5805l-4.75-5.0384l-3.2746-5.1667L17.1228,5.3057"/>
    <path fill="#FFFFFF" stroke="none" d="M11.3377,45.0833c6.0422-0.6554,11.9908,4.5417,15.9913,10.0022h0l6.0087,2.2478l2.6566,0.7608 L39.046,57.25l5.7089-2.0836c0,0,5.0827-11.2498,15.9161-10.1392l-2.0833,8.2542L56.9002,55l-3.1875-0.8438l-3.0625,1.3865 l-1.5173,3.0909c0,0-3.5452,4.4554-12.8684,4.4497c-5.8283-0.0036-12.2601-1.375-13.473-4.484 c-0.8609-2.2069-3.8288-5.0369-3.8288-5.0369l-4.493,0.3564L11.3377,45.0833z"/>
    <path fill="#d0cfce" stroke="none" d="M28.796,60.9583c0,0-0.3695,3.5417,1.3778,5.0417c1.7472,1.5,6.4139,1.7083,6.4139,1.7083l5.9583-1.7917 c0,0,1.7083-1.6667,0.875-5l-2.75,0.7917l-6.4972,0.2083L28.796,60.9583z"/>
    <path fill="#FFFFFF" stroke="none" d="M57.671,7.375l-3.0417,2.0417L50.171,15.375L48.6294,22.5l0.2083,1.9583c0,0,5,8.375,11.25,0.2917 l-0.5833-8.5833l-0.9167-7.25L57.671,7.375z"/>
    <path fill="#FFFFFF" stroke="none" d="M14.2714,7.375l3.0417,2.0417l4.4583,5.9583l1.5417,7.125l-0.2083,1.9583c0,0-5,8.375-11.25,0.2917 l0.5833-8.5833l0.9167-7.25L14.2714,7.375z"/>
  </g>
  <g id="hair"/>
  <g id="skin"/>
  <g id="skin-shadow"/>
  <g id="line">
    <path fill="#000000" stroke="none" d="M29.0454,41.681c0,0-3.0393,1.5997-4.5092,1.0171c-1.4698-0.5826-2.2313-2.14-1.7007-3.4785 c0.5306-1.3386,2.1522-1.9514,3.622-1.3688C27.9274,38.4334,29.0454,41.681,29.0454,41.681z"/>
    <path fill="none" stroke="#000000" stroke-linecap="round" stroke-linejoin="round" stroke-miterlimit="10" stroke-width="2" d="M35.9943,56.9292c-1.513-0.2346-2.7355-0.9125-3.641-2.075v-0.698"/>
    <path fill="none" stroke="#000000" stroke-linecap="round" stroke-linejoin="round" stroke-miterlimit="10" stroke-width="2" d="M16.9156,10.2884c0,0,7.7517,5.915,5.3244,13.6668"/>
    <path fill="none" stroke="#000000" stroke-linecap="round" stroke-linejoin="round" stroke-miterlimit="10" stroke-width="2" d="M23.6069,58.0941c-1.4877-3.2886-4.481-4.3848-5.1857-4.2282l-3.5235,0.5481c-2.6622-2.6622-3.132-10.1791-3.132-10.1791 c-0.4337-4.7705,1.0302-8.0757,2.4227-10.0754l-0.3869-0.7301c-2.5056-6.1857-1.0179-15.6601-0.4698-21.6892 c0.3975-4.3723,2.6068-5.9162,3.7911-6.4345c0.4153-0.1818,0.8959-0.0599,1.1789,0.2943 c1.2956,1.6213,5.3162,6.5744,9.1241,10.4468c1.6822,1.7107,2.4508,3.2218,2.748,4.4518"/>
    <path fill="#000000" stroke="none" d="M42.9546,41.681c0,0,3.0393,1.5997,4.5092,1.0171c1.4698-0.5826,2.2313-2.14,1.7007-3.4785s-2.1522-1.9514-3.622-1.3688 C44.0726,38.4334,42.9546,41.681,42.9546,41.681z"/>
    <path fill="none" stroke="#000000" stroke-linecap="round" stroke-linejoin="round" stroke-miterlimit="10" stroke-width="2" d="M36.0733,61.7083v-4.7791c1.513-0.2346,2.7355-0.9125,3.641-2.075v-0.698"/>
    <path fill="none" stroke="#000000" stroke-linecap="round" stroke-linejoin="round" stroke-miterlimit="10" stroke-width="2" d="M43.7468,50.1562l1.1745,5.8367c0,0,0,6.6555-7.4385,6.1074h-2.8978c-7.4385,0.5481-7.4385-6.1074-7.4385-6.1074l1.1745-5.8367"/>
    <path fill="none" stroke="#000000" stroke-linecap="round" stroke-linejoin="round" stroke-miterlimit="10" stroke-width="2" d="M55.0844,10.2884c0,0-7.7517,5.915-5.3244,13.6668"/>
    <path fill="none" stroke="#000000" stroke-linecap="round" stroke-linejoin="round" stroke-miterlimit="10" stroke-width="2" d="M48.3931,58.0941c1.4877-3.2886,4.481-4.3848,5.1857-4.2282l3.5235,0.5481c2.6622-2.6622,3.132-10.1791,3.132-10.1791 c0.4336-4.7691-1.0294-8.0739-2.4216-10.0737l0.3858-0.7317c2.5056-6.1857,1.0179-15.6601,0.4698-21.6892 c-0.3975-4.3723-2.6068-5.9162-3.7911-6.4345C54.4619,5.1239,53.9814,5.2458,53.6983,5.6 c-1.2956,1.6213-5.3162,6.5744-9.1241,10.4468c-1.7324,1.7618-2.4958,3.3118-2.7734,4.5611"/>
    <path fill="none" stroke="#000000" stroke-linecap="round" stroke-linejoin="round" stroke-miterlimit="10" stroke-width="2" d="M41.6672,65.4494c-3.804,2.0509-7.418,2.0886-10.8055,0"/>
    <path fill="none" stroke="#000000" stroke-linecap="round" stroke-linejoin="round" stroke-miterlimit="10" stroke-width="2" d="M29.0178,17.9521c0,0,6.0552-3.1842,13.7809-0.1044"/>
  </g>
</g>
  <g transform="translate(565.7871376374779, 835.4437368439644) scale(1 1) translate(0, 0) scale(1.7777777777777777 1.7777777777777777) "><g id="color">
    <path fill="#9b9b9a" d="M51.8936,28.6849a13.2108,13.2108,0,0,1-3.246-1.768.0709.0709,0,0,1-.0374-.0187.029.029,0,0,0-.0187-.0094c-.2526-.2245-.5052-.43-.7484-.6267a17.9469,17.9469,0,0,0-5.4256-3.4331,1.8966,1.8966,0,0,1-.6548-.5332.13.13,0,0,1-.028-.0374C38.8722,18.6476,30.64,16.7767,25.57,17.3192a14.1218,14.1218,0,0,0-1.7774.3087h-.028c-.4491.0094-9.3451,1.2068-14.4807,11.4779a.2059.2059,0,0,0-.0281.0468A27.6884,27.6884,0,0,0,7.8809,32.408l-.1964.6454c-.0468.1684-.0936.3274-.131.4958-1.029,4.4714.1123,11.2721,1.9551,15.9587.0093.0093.0093.0093.0093.0187,1.1881,2.9841,2.6567,5.1075,4.0412,5.1917.8232.0655,1.6276-.6174,2.3012-2.2918a1.4018,1.4018,0,0,0,.1309-.4116,1.3129,1.3129,0,0,0-.2058-.9261,4.895,4.895,0,0,1-.5612-1.1132,4.9728,4.9728,0,0,1-.1965-.5987,6.988,6.988,0,0,1,0-3.48c.0094-.0655.0281-.131.0468-.2058a12.9047,12.9047,0,0,0,.4116-2.9841.3151.3151,0,0,0,0-.0935,14.4452,14.4452,0,0,0-.3274-3.536c-.0842-.3836-.1591-.6361-.1778-.72.1029.1777.2152.3648.3274.5332a4.6226,4.6226,0,0,0,.4678-.7764,4.6638,4.6638,0,0,1,.4677,2.0392v.0187a14.1039,14.1039,0,0,0,7.1187,4.6211,1.3345,1.3345,0,0,1,.9355.9261l.2338.9448,1.5342,5.9027a1.2973,1.2973,0,0,0,1.1318.9635l8.1384.7671a1.2966,1.2966,0,0,0,1.4125-1.291,1.41,1.41,0,0,0-.0561-.3835,1.2914,1.2914,0,0,0-1.0758-.898l-2.4789-.3181a1.286,1.286,0,0,1-1.1225-1.4593l1.1693-8.3161,1.1974,1.45a1.0325,1.0325,0,0,0,.1309.1684l1.0945,1.8334,4.7146,7.8952.0655.0935a2.0939,2.0939,0,0,0,1.637.7858h3.957a2.0946,2.0946,0,0,0,1.7212-.898l.0187-.0281.1216-.1871a.9812.9812,0,0,0,.0655-.1029.5243.5243,0,0,0,.0374-.1122.7393.7393,0,0,0-.0655-.6268v-.0093a.3213.3213,0,0,0-.0842-.1123.7512.7512,0,0,0-.4958-.2713l-3.4424-.4209a.984.984,0,0,1-.159-.0374.5786.5786,0,0,1-.1123-.0468.8641.8641,0,0,1-.318-.3181.5892.5892,0,0,1-.0936-.2525.2905.2905,0,0,1-.0093-.0936.2576.2576,0,0,1-.0094-.0842l.29-4.9578.0936-1.6651a.375.375,0,0,1,.028-.14.8643.8643,0,0,1,.1965-.3649.5806.5806,0,0,1,.1777-.1309.6067.6067,0,0,1,.3087-.1029c.3274-.0281.6548-.0468.9729-.0561.0842,0,.1683-.0094.2525-.0094.15-.0093.2994-.0093.449-.0187.2433,0,.5052-.0187.7671-.0281.2058-.0187.4116-.0374.6268-.0561s.43-.0468.6548-.0842c.2338-.028.477-.0748.73-.1309a3.05,3.05,0,0,0,.3742-.0842c.131-.0281.2713-.0655.4116-.1029a.3875.3875,0,0,0,.0935-.0375.3429.3429,0,0,0,.1029-.0467,2.4357,2.4357,0,0,1,.2245-.1216,3.04,3.04,0,0,1,.4958-.2432,11.3809,11.3809,0,0,1,3.1338-.6642c.1777-.0187.3461-.0374.5238-.0468,1.9644-.15,4.1627-.1029,6.09-.0748,1.0851.0093,2.086.0187,2.9-.0187h.0375c.2619-.0094.5051-.0281.72-.0562a3.0477,3.0477,0,0,0,.3275-.0467,1.75,1.75,0,0,0,.2525-.0468,1.0155,1.0155,0,0,0,.1965-.0468.8862.8862,0,0,0,.5145-.2806.4089.4089,0,0,0,0-.449.56.56,0,0,0-.0842-.14l-.0094-.0094a.5678.5678,0,0,0-.1216-.14,2.5411,2.5411,0,0,0-.2245-.2245c-.1123-.1029-.2245-.2152-.3274-.3181a2.4743,2.4743,0,0,1-.3087-.318c-.1964-.2152-.3742-.44-.5519-.6642-.131-.159-.2526-.3274-.3742-.4958q-.2526-.3787-.4771-.7577a5.0972,5.0972,0,0,1-.2993-.5332,2.4059,2.4059,0,0,1-.1029-.2245c-.0842-.1684-.159-.3367-.2339-.4958-.0842-.1777-.15-.3461-.2245-.5145-.1309-.3274-.2432-.6361-.3367-.9354-.0468-.15-.0936-.2994-.131-.44-.0094-.0187-.0094-.028-.0187-.0467v-.0094a.3333.3333,0,0,0-.0187-.0935l-.15-.5894c0-.0093-.0093-.028-.0093-.0374V33.147a1.8476,1.8476,0,0,0-.1123-.29v-.0281c-.0374-.0748-.0655-.14-.1029-.2151a2.1114,2.1114,0,0,0-.1029-.2058,1.0587,1.0587,0,0,0-.1122-.1965,2.237,2.237,0,0,0-.1217-.1964,1.8735,1.8735,0,0,0-.1216-.1684,4.6327,4.6327,0,0,0-.3367-.4116c-.0187-.0187-.0281-.0374-.0468-.0468-.0748-.0748-.14-.15-.2152-.2151,1.0763.7281,2.0987-1.517.9542-2.32-.8494-.6821-2.1684,1.3268-1.5154,1.89-.0094-.0188-.0187-.0281-.0374-.0281a2.2277,2.2277,0,0,0-.1965-.1216c-.0187-.0187-.0374-.0374-.0561-.0281a2.097,2.097,0,0,0-.3742-.2058,5.1009,5.1009,0,0,0-.5238-.2058.0563.0563,0,0,1-.0374-.0093,4.1547,4.1547,0,0,0-.5894-.14.8064.8064,0,0,1-.1029-.0094c-.0748-.0093-.1777-.0187-.318-.0374-.0842-.0094-.1778-.0187-.2807-.0374s-.2058-.0281-.3274-.0468h-.0093c-.1216-.0187-.2619-.0468-.4023-.0655-.3087-.0561-.6641-.1216-1.0477-.2151a4.572,4.572,0,0,1-.4583-.1029c-.1591-.0375-.3274-.0749-.4865-.1216l-1.3852-3.3161Z"/>
    <path fill="#fff" d="M50.4029,41.8738a5.1555,5.1555,0,0,0-.72.3648.3466.3466,0,0,1-.1027.0468.3984.3984,0,0,1-.0937.0374,16.8885,16.8885,0,0,1-4.2656.5145,9.3122,9.3122,0,0,1,6.3423-4.9766,40.6948,40.6948,0,0,0,9.7286-3.9288,12.093,12.093,0,0,0,3.377,5.6968C67.8489,42.4818,55.2391,39.9187,50.4029,41.8738Z"/>
    <path fill="#3f3f3f" d="M63.471,38.3284a44.0343,44.0343,0,0,1-8.3441.6642,12.49,12.49,0,0,0-2.0767.0935,8.9826,8.9826,0,0,1,2.9747-1.2254,33.0442,33.0442,0,0,0,5.9589-2.0393A11.171,11.171,0,0,0,63.471,38.3284Z"/>
    <path fill="#fff" d="M16.2433,36.0749a4.2167,4.2167,0,0,1-.5052,1.9832l-.028.0561a5.0131,5.0131,0,0,1-.5425.7764c-.0561.0655-.1123.1216-.1777.1871a5.7438,5.7438,0,0,1-4.1441,1.6745,5.8529,5.8529,0,0,1-3.5921-1.1881v-.0093H7.2443c-.0093-.1965-.0186-.3929-.0093-.58-.0186-.8138-.0093-1.5809.0468-2.3293a25.99,25.99,0,0,1,.4023-3.5921c.0561-.2993.1121-.5893.1777-.8793.0374-.0187.0748-.0468.1216-.0654a5.978,5.978,0,0,1,2.8624-.711C13.8392,31.3977,16.2433,33.4931,16.2433,36.0749Z"/>
    <path fill="#3f3f3f" d="M15.4388,42.6137a.093.093,0,0,1,.0468.0374c-.0094.0187-.0374.0374-.0468.0561a5.677,5.677,0,0,1-4.5556,2.1235,5.9509,5.9509,0,0,1-3.0776-.8232L7.45,42.6137v-.0188c-.0374-.4863-.0749-1.0009-.1217-1.5341-.0281-.5145-.0654-1.01-.0748-1.4967v-.0093c-.0094-.1965-.0187-.3929-.0187-.58-.0186-.8138-.0093-1.5809.0468-2.3293a5.9481,5.9481,0,0,1,3.6014-1.1693,5.5614,5.5614,0,0,1,4.8549,2.5819.195.195,0,0,1,.0375.0561,4.4488,4.4488,0,0,1-.5425.7764c-.0561.0655-.1123.1216-.1778.1871a12.148,12.148,0,0,1,.3835,3.4986Z"/>
    <path fill="#fff" d="M15.523,42.6511c-.0094.0187-.0281.0374-.0374.0561a11.3964,11.3964,0,0,1-.4864,2.9841,1.83,1.83,0,0,0-.0468.1871c-.0092.0093-.0092.0093-.0092.0187a6.0487,6.0487,0,0,0,0,3.48,5.2189,5.2189,0,0,1-.73.44c-.0094,0-.0094.0094-.0188.0094h-.0093a6.0235,6.0235,0,0,1-2.6006.6267h-.131a4.4046,4.4046,0,0,1-.4957-.0281h-.0093a5.6549,5.6549,0,0,1-.9823-.15,18.6817,18.6817,0,0,1-.9448-1.6932c0-.0093-.0094-.0093-.0094-.0187a2.3929,2.3929,0,0,0-.1028-.2245L7.8056,44.0075,7.45,42.6137v-.0188a5.8641,5.8641,0,0,1,4.0036-1.4966,5.8991,5.8991,0,0,1,3.985,1.478c.0188.0093.0281.028.0468.0374A.073.073,0,0,1,15.523,42.6511Z"/>
    <path fill="#3f3f3f" d="M15.9907,51.6314a1.31,1.31,0,0,1,0,.3835,4.946,4.946,0,0,1-3.087,2.058,20.3052,20.3052,0,0,1-2.3105-2.8251c-.2245-.318-.43-.6361-.6267-.9728a18.6817,18.6817,0,0,1-.9448-1.6932c0-.0093-.0094-.0093-.0094-.0187-.1495-.7671-.29-1.6183-.4209-2.5631a5.1213,5.1213,0,0,1,6.361-.1216c.0094,0,.0187.0093.0281.0187a6.5776,6.5776,0,0,0,0,3.48,3.6348,3.6348,0,0,0,.2058.5894v.0093a4.8554,4.8554,0,0,0,.5893,1.1132,1.1086,1.1086,0,0,1,.103.1777A1.1853,1.1853,0,0,1,15.9907,51.6314Z"/>
    <path fill="#fff" d="M15.9907,51.6314a1.31,1.31,0,0,1,0,.3835,4.946,4.946,0,0,1-3.087,2.058,20.3052,20.3052,0,0,1-2.3105-2.8251,4.5743,4.5743,0,0,1,.9916-.7951c.0094-.0094.0281-.0187.0375-.0281h.0093a4.6021,4.6021,0,0,1,2.3387-.6267,1.068,1.068,0,0,1,.2432.0187,1.0121,1.0121,0,0,1,.1683.0094h.0094a3.7129,3.7129,0,0,1,.7951.14c.0093,0,.0281.0093.0374.0093a4.8989,4.8989,0,0,0,.5613,1.1132,1.0725,1.0725,0,0,1,.0936.1777A1.1853,1.1853,0,0,1,15.9907,51.6314Z"/>
    <path fill="#3f3f3f" d="M24.5379,46.6632l-2.8063,3.91c3.7511.7577,1.4312,2.5257,1.4312,2.5257s-5.9776.5893-5.3041-2.0206c.6549-2.535-1.4966-10.477-1.6089-10.9072A14.0507,14.0507,0,0,0,24.1075,44.98Z"/>
    <path fill="#3f3f3f" d="M57.849,50.7418l-2.4414,1.2628-11.955-6.7071.0935-1.6651a.7828.7828,0,0,1,.7016-.739,23.7851,23.7851,0,0,0,5.2384-.5706.3984.3984,0,0,0,.0937-.0374l3.05,5.3413Z"/>
  </g>
  <g id="line">
    <path fill="none" stroke="#000" stroke-linecap="round" stroke-linejoin="round" stroke-width="2" d="M13.596,54.7557h.0094c.6641.1684,1.3751-.9167,1.8522-1.6557"/>
    <line x1="12.2677" x2="12.2677" y1="24.7935" y2="24.7841" fill="none" stroke="#000" stroke-linecap="round" stroke-linejoin="round" stroke-width="2"/>
    <path fill="none" stroke="#000" stroke-miterlimit="10" stroke-width="2" d="M61.1077,33.1937c0-.0187-.0093-.028-.0093-.0467a1.0855,1.0855,0,0,1-.0375-.1684"/>
    <path fill="none" stroke="#000" stroke-miterlimit="10" stroke-width="2" d="M57.0292,29.9571c.2713.0374.4209.0468.4209.0468a4.6586,4.6586,0,0,1,3.6483,3.1431v.0093a3.1286,3.1286,0,0,1,.1777.72v.0094"/>
    <polyline fill="none" stroke="#000" stroke-linecap="round" stroke-linejoin="round" stroke-width="2" points="57.347 29.995 61.922 27.179 60.986 32.829 60.986 32.838 60.986 32.857"/>
    <polyline fill="none" stroke="#000" stroke-linecap="round" stroke-linejoin="round" stroke-width="2" points="50.723 32.88 52.117 27.876 52.632 26.052 53.614 28.4 54.737 31.094"/>
    <path fill="none" stroke="#000" stroke-linecap="round" stroke-linejoin="round" stroke-width="2" d="M49.58,42.2854l1.3474,2.36a13.0639,13.0639,0,0,0,4.65,4.7408l2.2717,1.3557L56.6,51.3876"/>
    <path fill="none" stroke="#000" stroke-linecap="round" stroke-linejoin="round" stroke-width="2" d="M16.01,34.614c-.75,5.4076,4.0452,9.122,7.4156,10.1819a1.2874,1.2874,0,0,1,.8676.9112l.2443.9561,1.531,5.904A1.2929,1.2929,0,0,0,27.2,53.53l8.1384.7632a1.293,1.293,0,0,0,1.3553-1.6712h0A1.293,1.293,0,0,0,35.62,51.723l-2.4835-.3123a1.2929,1.2929,0,0,1-1.1189-1.4634l1.1731-8.3168"/>
    <path fill="none" stroke="#000" stroke-linecap="round" stroke-miterlimit="10" stroke-width="2" d="M21.7961,53.1561c.7825.0006,1.3666-.057,1.3666-.057s2.32-1.768-1.4312-2.5257l2.8063-3.91.0094-.0093"/>
    <path fill="none" stroke="#000" stroke-linecap="round" stroke-miterlimit="10" stroke-width="2" d="M31.0051,38.9561l2.1889,2.6753,1.1881,1.45.0654.0748c.0187.0281.0468.0655.0655.0936l1.0945,1.8334,4.7146,7.8952.0655.0935.2339.4023a.7974.7974,0,0,0,.6735.3835h5.3694a.8152.8152,0,0,0,.6549-.3368l.3835-.5612.0187-.0281.131-.1871a.63.63,0,0,0,.0935-.2151.7393.7393,0,0,0-.0655-.6268s.0094,0,0-.0093a.3213.3213,0,0,0-.0842-.1123.7512.7512,0,0,0-.4958-.2713l-3.4424-.4209a.984.984,0,0,1-.159-.0374.5786.5786,0,0,1-.1123-.0468.8641.8641,0,0,1-.318-.3181.7417.7417,0,0,1-.0936-.2525,1.0815,1.0815,0,0,1-.0093-.1778l.29-4.9578.0935-1.6651a.7251.7251,0,0,1,.0187-.14.8643.8643,0,0,1,.1965-.3649.5806.5806,0,0,1,.1777-.1309.6067.6067,0,0,1,.3087-.1029c.3274-.0281.6548-.0468.9729-.0561.0842,0,.1683-.0094.2525-.0094.15-.0093.2994-.0093.449-.0187.2433,0,.5052-.0187.7671-.0281.2058-.0187.4116-.0374.6268-.0561s.43-.0468.6548-.0842c.2338-.028.477-.0748.73-.1309a3.05,3.05,0,0,0,.3742-.0842c.131-.0281.2713-.0655.4116-.1029a.3875.3875,0,0,0,.0935-.0375.3429.3429,0,0,0,.1029-.0467,2.4357,2.4357,0,0,1,.2245-.1216,1.9646,1.9646,0,0,1,.2433-.1216,1.58,1.58,0,0,1,.2525-.1216,11.3809,11.3809,0,0,1,3.1338-.6642c.1777-.0187.3461-.0374.5238-.0468,1.9644-.15,4.1627-.1029,6.09-.0748,1.0851.0093,2.086.0187,2.9-.0187h.0375c.2619-.0094.5051-.0281.72-.0562a3.0477,3.0477,0,0,0,.3275-.0467,1.75,1.75,0,0,0,.2525-.0468,1.0155,1.0155,0,0,0,.1965-.0468.8862.8862,0,0,0,.5145-.2806.3766.3766,0,0,0,0-.449.56.56,0,0,0-.0842-.14l-.0094-.0094a.5678.5678,0,0,0-.1216-.14,1.21,1.21,0,0,0-.2151-.2245h-.0094a10.9145,10.9145,0,0,1-1.188-1.3c-.131-.159-.2526-.3274-.3742-.4958q-.2526-.3787-.4771-.7577c-.1029-.1777-.2058-.3554-.2993-.5332a2.4059,2.4059,0,0,1-.1029-.2245c-.0842-.1684-.159-.3367-.2339-.4958a13.8156,13.8156,0,0,1-.5612-1.45c-.0468-.15-.0936-.2994-.131-.44-.0094-.0187-.0094-.0374-.0187-.0561,0-.0187-.0094-.0374-.0094-.0561"/>
    <path fill="none" stroke="#000" stroke-linecap="round" stroke-linejoin="round" stroke-width="2" d="M57.45,30.0039a.8064.8064,0,0,1-.1029-.0094c-.0748-.0093-.1777-.0187-.318-.0374-.0842-.0094-.1778-.0187-.2807-.0374s-.2058-.0281-.3274-.0468h-.0093c-.1216-.0187-.2619-.0468-.4023-.0655-.3087-.0561-.6641-.1216-1.0477-.2151a4.572,4.572,0,0,1-.4583-.1029c-.1591-.0375-.3274-.0749-.4865-.1216"/>
    <path fill="none" stroke="#000" stroke-linecap="round" stroke-linejoin="round" stroke-width="2" d="M51.8936,28.6849a13.2108,13.2108,0,0,1-3.246-1.768.0709.0709,0,0,1-.0374-.0187.029.029,0,0,0-.0187-.0094c-.2526-.2245-.5052-.43-.7484-.6267a14.2266,14.2266,0,0,0-4.3592-2.4509h-.0093c-.3368-.3367-.6922-.6641-1.0571-.9822-.2151-.1871-.43-.3648-.6548-.5332a21.14,21.14,0,0,0-10.187-4.4714c-.0187,0-.028-.0094-.0467-.0094a21.0762,21.0762,0,0,0-3.19-.2432,21.46,21.46,0,0,0-16.071,7.2123v.0093a21.2212,21.2212,0,0,0-2.984,4.3124.2059.2059,0,0,0-.0281.0468,20.6933,20.6933,0,0,0-1.2722,2.956c-.0374.1029-.0655.1965-.1029.2994l-.1964.6454c-.0468.1684-.0936.3274-.131.4958a21.1508,21.1508,0,0,0-.73,5.5378,21.3724,21.3724,0,0,0,.3367,3.8166c.0468.262.0936.5239.15.7765a21.0726,21.0726,0,0,0,1.6,4.6585,2.3941,2.3941,0,0,1,.1029.2245c0,.0093.0094.0093.0094.0187.159.3087.318.6267.4864.9261.0093.0093.0093.0093.0093.0187.15.2526.29.5051.4491.7483.1964.3368.4022.6549.6267.9729a20.2921,20.2921,0,0,0,2.3106,2.825c.2151.2246.43.43.6548.6455l.0374.0374h.0093"/>
  </g>
</g>
  <g transform="translate(392.0980454275856, 853.6991960546748) scale(1 1) translate(0, 0) scale(1.7777777777777777 1.7777777777777777) "><g id="color">
    <path fill="#3f3f3f" d="M29.3689,54.3966l-1.1,3-3,3.1h-4c-1.6-1.2,3.4-3.7,3.4-3.7v-3.7l-.2-3.1A15.8574,15.8574,0,0,1,29.3689,54.3966Z"/>
    <path fill="#3f3f3f" d="M60.7613,30.1692c-.22-.03-1.41-1.41-2.99-2.89,0,0-2.5-2.7-4.6-3a2.4863,2.4863,0,0,0-2.8,2.1,2.7819,2.7819,0,0,0,.5444,1.9944,4.67,4.67,0,0,0,1.6571,1.3719c6.6971,3.5671,7.8255,6.304,7.9106,10.9578.0695,3.7993-2.4122,6.8759-5.8122,8.5759l-.6,7.1-2.6,4.5c-6.3.7-1-2.2-1-2.2l-.5-2.3-.8-2.1a3.36,3.36,0,0,1-1.4.5v2.7l-4,3.8c-7.4.9-1.1-3.3-1.1-3.3l.1-3a4.6271,4.6271,0,0,1-1.8-2.1c-2.6-.7-5.9.7-5.9.7l-1.1,3.7-2,3.9c-1.92.24-2.81.12-3.12-.17-.7-.63,1.62-2.13,1.62-2.13a5.6779,5.6779,0,0,0-.69-3.32c-.07-.14-.15-.29-.23-.43-.07-.12-.15-.24-.23-.36a16.23,16.23,0,0,0-4.85-4.29c-1-.59-2.01-1.1-3.07-1.61a2.7956,2.7956,0,0,0-.26-.12c-.12-.05-.24-.11-.37-.17a11.6107,11.6107,0,0,1-3.95.16q-.36-.045-.69-.12c-.23-.04-.46-.1-.68-.16-.22-.05-.43-.12-.64-.19-2.09-.7-3.49-1.93-3.7-2.87a.8018.8018,0,0,1,.23-.86,1.1669,1.1669,0,0,1,.43-.26c2.6-1,5.2-4.9,5.2-4.9l.43-.13.87-.27.02-.01,1.78-.66.9-.33a6.6361,6.6361,0,0,1,.86-.13,1.84,1.84,0,0,1,.33-.03,9.5961,9.5961,0,0,1,5.76,1.82c.14.11.25.19.33.25l.12.09.18-.15a5.8242,5.8242,0,0,1,3.2-1.33,4.51,4.51,0,0,1,.52,0,4.3966,4.3966,0,0,1,1.46-1.12,12.1247,12.1247,0,0,1,1.56-.72c.2-.07.4-.15.61-.22.42-.14.87-.28,1.34-.39.23-.06.47-.11.71-.16a16.6432,16.6432,0,0,1,2.29-.3,11.5969,11.5969,0,0,1,7.45,1.98c.11.08.22.16.33.25a10.4526,10.4526,0,0,1,1.65,1.56c1.2193,1.252,2.9785.0951,1.0886-3.2621-2.2047-3.9165-7.9986-8.0879-7.9986-8.0879a9.8505,9.8505,0,0,1-.7-14,9.9552,9.9552,0,0,1,3.76-2.61,1.33,1.33,0,0,1,.18-.07,3.5033,3.5033,0,0,1,.55-.17,9.8226,9.8226,0,0,1,1.72-.3,9.46,9.46,0,0,1,9.3,5Z"/>
    <path fill="#fff" d="M60.8213,29.0892c-.0319.3587-.02.72-.05,1.09l-.01-.01a22.483,22.483,0,0,0-6.2276-11.3808c-4.1993-3.9209-9.7862.6277-9.0862,5.2277,1.3,8.4,13.3138,13.0131,11.7138,17.6131-2,5.7-10,2.8-10,2.8-10-5.3-19.7,0-19.7,0-5.49-.47-8.83-4.97-9.17-5.46-.01-.01-.02-.02-.02-.03l-.01-.01,2.7-1a7.6331,7.6331,0,0,1,3.98.21c.18.06.34.11.51.17a6.7635,6.7635,0,0,1,.9.38,10.18,10.18,0,0,1,2.01,1.24,5.2616,5.2616,0,0,1,1.19-.82,3.5482,3.5482,0,0,1,.44-.21c.14-.06.28-.12.43-.17a.3518.3518,0,0,1,.06-.01,5.2837,5.2837,0,0,1,1.79-.22,4.3966,4.3966,0,0,1,1.46-1.12,13.6486,13.6486,0,0,1,1.56-.72c.2-.07.4-.15.61-.22.42-.14.87-.27,1.34-.39.23-.06.47-.11.71-.16a16.6432,16.6432,0,0,1,2.29-.3,11.5969,11.5969,0,0,1,7.45,1.98c.11.08.22.16.33.25a10.4526,10.4526,0,0,1,1.65,1.56c.01.01.02.03.03.04.02.04.04.07.06.11a1.5576,1.5576,0,0,0,1.5-1.6,2,2,0,0,0-.02-.36.9086.9086,0,0,0-.18-.44c-2.4-3.8-8.3-9.1-8.3-9.1a9.8505,9.8505,0,0,1-.7-14,9.9552,9.9552,0,0,1,3.76-2.61,1.33,1.33,0,0,1,.18-.07,3.5033,3.5033,0,0,1,.55-.17,9.8571,9.8571,0,0,1,9.51,2.15,10.1013,10.1013,0,0,1,1.9,2.3C58.0113,15.6292,61.5762,20.6,60.8213,29.0892Z"/>
  </g>
  <g id="line">
    <path fill="none" stroke="#000" stroke-linecap="round" stroke-miterlimit="10" stroke-width="1.64" d="M43.3689,47.0966a4.2988,4.2988,0,0,0-2.3,5.6,5.5091,5.5091,0,0,0,1.7,2l-.1,3s-6.3,4.2,1.1,3.3l4-3.8v-2.7"/>
    <path fill="none" stroke="#000" stroke-linecap="round" stroke-miterlimit="10" stroke-width="1.64" d="M49.7713,39.4992a.5716.5716,0,0,0-.07-.08c-.01-.02-.03-.03-.04-.05-6.3516-6.9244-16.5251-2.5368-17.39-.87a2.62,2.62,0,0,0-.28-.01,1.9269,1.9269,0,0,0-.24.01,4.512,4.512,0,0,0-1.27.22.3536.3536,0,0,0-.06.01c-.15.05-.29.11-.43.17a3.5482,3.5482,0,0,0-.44.21,5.081,5.081,0,0,0-1,.72c-.06.05-.12.11-.18.17,0,0-.04-.04-.12-.11-.08-.06-.19-.14-.33-.25a9.9668,9.9668,0,0,0-1.57-.95c-.28-.13-.58-.26-.9-.38-.17-.06-.33-.11-.51-.17a7.5208,7.5208,0,0,0-2.78-.32,1.8413,1.8413,0,0,0-.33.03,6.7463,6.7463,0,0,0-.86.15l-.9.31-1.8.63-.87.31-.43.15s-2.6,4-5.2,4.9a1.1791,1.1791,0,0,0-.43.24.802.802,0,0,0-.23.86c.23.93,1.63,2.15,3.7,2.87.21.07.42.14.64.19.22.06.45.12.68.16q.33.075.69.12a11.0949,11.0949,0,0,0,3.95-.14s.13.05.37.15a2.7837,2.7837,0,0,1,.26.12c1.62.71,5.9,2.81,7.92,5.9.08.12.16.24.23.36.08.14.16.28.23.43a5.5213,5.5213,0,0,1,.59,3.24s-2.51,1.62-1.52,2.21c.38.23,1.27.31,3.02.09l2-3.9"/>
    <path fill="none" stroke="#000" stroke-linecap="round" stroke-miterlimit="10" stroke-width="1.64" d="M42.7689,27.8966a9.9156,9.9156,0,0,1,13.2-14.8,11.6021,11.6021,0,0,1,2,2.4"/>
    <path fill="none" stroke="#000" stroke-linecap="round" stroke-miterlimit="10" stroke-width="1.64" d="M35.0689,53.3966s3.3-1.3,5.9-.7"/>
    <path fill="none" stroke="#000" stroke-linecap="round" stroke-miterlimit="10" stroke-width="1.64" d="M50.1689,56.0966l.5,2.3s-5.3,2.9,1,2.2l2.6-4.5.7-6.9a9.9631,9.9631,0,0,0,4.5-13.3,10.24,10.24,0,0,0-4.6-4.6"/>
    <path fill="none" stroke="#000" stroke-linecap="round" stroke-miterlimit="10" stroke-width="1.64" d="M24.6689,53.3966v3.6s-5,2.5-3.4,3.7h4l3-3.1"/>
  </g>
</g>
  <g transform="translate(226.0000000000001, 799.7306695894642) scale(1 1) translate(0, 0) scale(1.7777777777777777 1.7777777777777777) "><g id="color">
    <path fill="#a57939" d="M30.5206,30.6956c.8556.3943,1.7036,1.1046,2.45,3.1629"/>
    <path fill="#a57939" d="M38.4792,38.4068a17.5846,17.5846,0,0,1-5.5482.86,3.33,3.33,0,0,1-2.1582-.8086c-.14-.1166-.2537-.21-.2836-.2311a9.7692,9.7692,0,0,1-2.2671-3.6693h0c-.3573-.7-.7263-2.6367-.0554-3.4371a1.967,1.967,0,0,1,2.3539-.425c.8556.3943,1.675.7294,2.4215,2.7877"/>
    <path fill="#a57939" d="M20.5775,47.2816a17.5835,17.5835,0,0,0,3.5147-4.3782,3.3294,3.3294,0,0,0,.3767-2.2737c-.0311-.18-.0552-.3245-.0586-.3611a9.77,9.77,0,0,0-2.0477-3.7961h0c-.4281-.6589-1.9222-1.9456-2.9506-1.7638a1.9669,1.9669,0,0,0-1.5433,1.8275c-.0855.9382.1067,2.0276,1.5175,3.702"/>
    <g>
      <ellipse cx="21.8988" cy="29.1701" rx="10.3241" ry="8.5137" transform="translate(-10.399 12.22) rotate(-25.4127)" fill="#6a462f"/>
      <path fill="#6a462f" d="M23.0873,19.5839a2.254,2.254,0,1,1,4.363,1.1022Z"/>
      <path fill="#6a462f" d="M11.3274,29.8272A2.254,2.254,0,1,1,12.66,25.5289Z"/>
      <g>
        <path fill="#6a462f" d="M62.4588,34.6236a2.3772,2.3772,0,0,0-1.2617-.2893l.1934-.4758a24.4589,24.4589,0,0,0-1.705-12.5578,4.2881,4.2881,0,0,0-3.57-2.1529,4.0869,4.0869,0,0,0-3.0907.91,4.3548,4.3548,0,0,0-1.6869,4.3913c.1626.7685,1.4726,5.2522,1.917,6.9218a2.5492,2.5492,0,0,0-.4658-.9673l-2.3575-2.9895a2.3717,2.3717,0,1,0-3.7047,2.9249,29.1457,29.1457,0,0,0,2.5241,2.3779c-4.375,1.7342-4.5891,4.5765-4.2728,6.2336-2.7986.3372-6.5353.1352-8.34-1.8727a15.8512,15.8512,0,0,0-5.7829-5.0272L16.933,37.9339l2.361,7.7682c3.1814,5.119,9.024,10.6091,24.8243,8.3766A18.0218,18.0218,0,0,0,56.376,45.9973l.8662-1.1787c.2078-.3356.8645-1.1355,1.2591-1.1253a3.4341,3.4341,0,0,0,2.7957-1.61l2.0439-3.6767A2.7536,2.7536,0,0,0,62.4588,34.6236ZM53.318,31.6114l-.0044.0022c-.0017-.0105-.0012-.02-.0031-.0307Z"/>
        <path fill="#6a462f" d="M63.3409,38.4068c-.1313.2364-.3156.5735-.4941.9Z"/>
        <path fill="#6a462f" d="M62.8468,39.3065l-.4111.7487C62.54,39.867,62.6914,39.5907,62.8468,39.3065Z"/>
        <path fill="#6a462f" d="M50.4314,27.4141c.1479.1873.3587.4509.564.7077Z"/>
        <path fill="#6a462f" d="M50.9954,28.1218l.4968.6233C51.3681,28.5879,51.184,28.3576,50.9954,28.1218Z"/>
      </g>
      <g>
        <path fill="#6a462f" d="M54.0832,36.1775c-.083-.322-1.0457-5.4586-1.2943-5.7739l-2.3575-2.9895a2.3717,2.3717,0,1,0-3.7047,2.9249,29.1457,29.1457,0,0,0,2.5241,2.3779c-4.375,1.7342-4.5891,4.5765-4.2728,6.2336m8.34-7.3391-.0044.0022c-.0017-.0105-.0012-.02-.0031-.0307Z"/>
        <path fill="#6a462f" d="M63.3409,38.4068c-.1313.2364-.3156.5735-.4941.9Z"/>
        <path fill="#6a462f" d="M62.8468,39.3065l-.4111.7487C62.54,39.867,62.6914,39.5907,62.8468,39.3065Z"/>
        <path fill="#6a462f" d="M50.4314,27.4141c.1479.1873.3587.4509.564.7077Z"/>
        <path fill="#6a462f" d="M50.9954,28.1218l.4968.6233C51.3681,28.5879,51.184,28.3576,50.9954,28.1218Z"/>
      </g>
    </g>
    <polyline fill="#a57939" points="44.978 38.95 49.696 37.941 53.769 36.509"/>
  </g>
  <g id="line">
    <g>
      <g>
        <path fill="none" stroke="#000" stroke-linecap="round" stroke-miterlimit="10" stroke-width="2.0787" d="M50.4313,27.4141l2.3576,2.9895A3.1084,3.1084,0,0,1,53.1581,33.3c-.1462.3259.2927,1.1534.5005,1.444l1.5433,2.9341"/>
        <path fill="none" stroke="#000" stroke-linecap="round" stroke-miterlimit="10" stroke-width="2.0787" d="M49.2508,32.717c-4.3719,1.7329-4.591,4.5765-4.2757,6.234"/>
        <path fill="none" stroke="#000" stroke-linecap="round" stroke-miterlimit="10" stroke-width="2.0787" d="M50.4313,27.4141a2.3717,2.3717,0,1,0-3.7046,2.9249,29.163,29.163,0,0,0,2.5241,2.378"/>
        <path fill="none" stroke="#000" stroke-linecap="round" stroke-miterlimit="10" stroke-width="2.0787" d="M51.4922,28.7451c-.2593-.3284-.7772-.9717-1.0609-1.331"/>
      </g>
      <path fill="none" stroke="#000" stroke-miterlimit="10" stroke-width="2.0787" d="M17.8515,37.7311q-.3114-.0795-.6129-.1785a8.9761,8.9761,0,0,1-1.03-.4092,7.4746,7.4746,0,0,1-3.6354-3.5429c-2.0178-4.247.5215-9.6735,5.6716-12.12s10.9609-.9875,12.9787,3.2595a7.6817,7.6817,0,0,1,.1171,6.1127"/>
      <path fill="none" stroke="#000" stroke-miterlimit="10" stroke-width="2.0787" d="M28.2255,35.1428A12.3479,12.3479,0,0,1,25.5523,36.86a12.4971,12.4971,0,0,1-2.0086.7521"/>
      <path fill="none" stroke="#000" stroke-miterlimit="10" stroke-width="2.0787" d="M23.0873,19.5839A2.5318,2.5318,0,0,1,25.94,17.4782a2.5318,2.5318,0,0,1,1.51,3.2079"/>
      <path fill="none" stroke="#000" stroke-miterlimit="10" stroke-width="2.0787" d="M11.3274,29.8272A2.4637,2.4637,0,0,1,9.48,26.8987a2.4637,2.4637,0,0,1,3.18-1.37"/>
      <path fill="none" stroke="#000" stroke-miterlimit="10" stroke-width="2.0787" d="M48.0967,38.7479c-2.3193.7787-8.2338-.3219-11.4588-1.67,0,0-1.5714-.57-3.6671-3.2193"/>
      <path fill="none" stroke="#000" stroke-miterlimit="10" stroke-width="2.0787" d="M54.3953,48.5912a18.0605,18.0605,0,0,1-10.277,5.4875c-12.2062,1.7247-17.6019-.699-21.6257-4.4164a16.5206,16.5206,0,0,1-2.3359-2.6781A28.2524,28.2524,0,0,1,16.818,36.9384"/>
      <path fill="none" stroke="#000" stroke-linecap="round" stroke-miterlimit="10" stroke-width="2.0787" d="M53.3181,31.6115c-.3679-1.4325-1.8094-6.3545-1.98-7.1624a4.3551,4.3551,0,0,1,1.6869-4.3914,4.0876,4.0876,0,0,1,3.0907-.91,4.2885,4.2885,0,0,1,3.57,2.1529h0a24.4578,24.4578,0,0,1,1.705,12.5578"/>
      <path fill="none" stroke="#000" stroke-linecap="round" stroke-miterlimit="10" stroke-width="2.0787" d="M54.3953,48.5912c.695-.8544,2.1121-2.6545,3.2123-4.3146"/>
      <g>
        <path fill="none" stroke="#000" stroke-linecap="round" stroke-miterlimit="10" stroke-width="2.0787" d="M63.3409,38.4068,61.297,42.0836a3.4343,3.4343,0,0,1-2.7957,1.61c-.3946-.01-1.0513.79-1.2591,1.1252l-1.81,2.463"/>
        <path fill="none" stroke="#000" stroke-linecap="round" stroke-miterlimit="10" stroke-width="2.0787" d="M57.4317,39.4616c-5.3622-5.4962-9.335-.7137-9.335-.7137a4.53,4.53,0,0,0-.7979,2.75"/>
        <path fill="none" stroke="#000" stroke-linecap="round" stroke-miterlimit="10" stroke-width="2.0787" d="M57.4317,39.4616a32.24,32.24,0,0,1,1.3495-3.5862,2.62,2.62,0,1,1,4.56,2.5314"/>
        <path fill="none" stroke="#000" stroke-linecap="round" stroke-miterlimit="10" stroke-width="2.0787" d="M62.4357,40.0552c.2244-.4042.66-1.2061.9052-1.6484"/>
      </g>
      <path fill="none" stroke="#000" stroke-linecap="round" stroke-miterlimit="10" stroke-width="2.0787" d="M32.9708,33.8585c-1.3922-1.5145-1.6012-2.9507-2.4568-3.345a2.2086,2.2086,0,0,0-2.4655.6538c-.6709.8-.1837,2.6906.1736,3.39h0a9.7692,9.7692,0,0,0,2.2671,3.6693c.03.0213.1434.1145.2836.2311a3.33,3.33,0,0,0,2.1582.8086"/>
      <path fill="none" stroke="#000" stroke-linecap="round" stroke-miterlimit="10" stroke-width="2.0787" d="M19.3862,39.9753c-1.4108-1.6743-1.603-2.7637-1.5175-3.7019a1.9669,1.9669,0,0,1,1.5433-1.8275c1.0284-.1818,2.5225,1.1049,2.9506,1.7638h0A9.77,9.77,0,0,1,24.41,40.0058c.0034.0366.0275.1814.0586.3611a3.3294,3.3294,0,0,1-.3767,2.2737,22.219,22.219,0,0,1-1.3,1.94"/>
      <path d="M24.7733,29.0777h0a1.0411,1.0411,0,0,1,.1694,1.0933l-.677,1.3941a.8315.8315,0,0,1-.8857.4769l-1.2983-.1762a1.4475,1.4475,0,0,1-1.1577-1.1782.7255.7255,0,0,1,.4259-.7625l2.2389-1.1635A.9762.9762,0,0,1,24.7733,29.0777Z"/>
      <circle cx="17.8515" cy="28.7451" r="1"/>
      <circle cx="23.9129" cy="25.3914" r="1"/>
    </g>
  </g>
  <g id="color-foreground">
    <path fill="#a57939" d="M44.4448,44.628c-.03,2.4345-7.8851,5.1128-12.0379,3.2973-4.4271-1.9353-6.3237-6.284-5.1153-8.1263a1.9065,1.9065,0,0,1,2.985-.3947,3.9137,3.9137,0,0,0,3.2617.7079s1.382.2874,2.1685.4875C40.398,41.7926,44.4718,42.4651,44.4448,44.628Z"/>
  </g>
</g>
  <g transform="translate(96.21286236252212, 682.8698059628388) scale(1 1) translate(0, 0) scale(1.7777777777777777 1.7777777777777777) "><g id="color">
    <path id="Badger_Color_1" fill="#9b9b9a" d="M66.345,45.6765c2.0234.0968,1.1253-25.4583-15.5132-25.51C45.4029,20.15,34.7472,22.99,29.32,23.1375c-1.3974.038-4.4352.048-5.5315-.8195-.6186-.49-.2131-2.0038-1.8438-2.5609-1.1324-.3868-2.5413.9451-3.38,1.2805a23.09,23.09,0,0,0-8.2973,4.9681c-1.0957,1.0031-4.95,2.0035-4.8145,3.4828.1849,2.0187,7.2729,3.5853,7.2729,3.5853s7.0964,1.9422,9.1168,3.2779c3.1615,2.09,10.39,10.7109,10.1412,11.268-.1254.28-4.8936.3328-4.8145,2.8682.0543,1.7409,2.7658,1.7414,2.7658,1.7414h5.0193c.9442-.6272,1.3347-3.1729,1.4305-4.3023.0854-1.0068-1.5759-3.6953-.611-3.995,2.4779-.77,4.77.3993,10.6533.6146.8446.0309,0,3.38,0,3.38s-4.6731,1.5124-4.61,2.8682c.0672,1.4341,2.356,1.4341,2.356,1.4341h5.634s4.0166-7.5875,4.712-8.1949c2.6539-2.3175,4.9935-1.83,9.1168-4.5072C63.6362,39.5272,64.2135,45.5746,66.345,45.6765Z"/>
    <path id="Badger_Color_2" fill="#fff" d="M12.5971,27.7718c2.95-2.6329,12.8133-4.2885,12.0353-5.3581-2.488-3.4211-5.2288-1.764-6.0679-1.4286-2.2451.8973-5.8749,1.2566-8.2973,4.9682-.8119,1.244-5.8456,2.4133-4.8145,3.4828C7.922,31.9972,14.1355,32.5718,19.91,32.9a60.57,60.57,0,0,1,13.016,2.354S28.45,22.588,13.4142,29.8212C12.2059,30.4025,11.7034,28.5694,12.5971,27.7718Z"/>
    <path id="Badger_Color_3" fill="#3f3f3f" d="M53.1224,51.7357l7.5048.4936s2.7368-3.1236,2.4876-5.7715c-.13-1.384-2.4173-5.7715-2.4173-5.7715l-4.49,1.5637,2.3011,4.3785-4.0365,1.9379Z"/>
    <path id="Badger_Color_4" fill="#3f3f3f" d="M24.8284,51.2053c-1.0614,1.5379-7.4582-.4936-7.4582-.4936l1.0783-3.0751,4.6564-1.4519.6847-9.0428s3.2307,2.6146,3.5553,3.8918C27.99,43.5726,26.5268,48.7446,24.8284,51.2053Z"/>
  </g>
  <g id="line">
    <path id="Badger_Line_1" fill="none" stroke="#000" stroke-linecap="round" stroke-linejoin="round" stroke-width="2" d="M66.6878,44.68c.9551-4.1388.7825-24.4613-15.856-24.5126C45.4029,20.15,34.7472,22.99,29.32,23.1375c-1.3974.038-4.4352.048-5.5315-.8195-.6186-.49-.2131-2.0038-1.8438-2.5609-1.1324-.3868-2.5413.9451-3.38,1.2805a23.3153,23.3153,0,0,0-8.2973,4.9681S5.4492,28.09,5.4527,29.4885c.0065,2.5891,7.2729,3.5853,7.2729,3.5853s7.0964,1.9422,9.1168,3.2779c3.1615,2.09,10.39,10.7109,10.1412,11.268-.1254.28-4.8936.3328-4.8145,2.8682.0543,1.7409,2.7658,1.7414,2.7658,1.7414h5.0193c.9442-.6272,1.3347-3.1729,1.4305-4.3023.0854-1.0068-1.5759-3.6953-.611-3.995,2.4779-.77,4.77.3993,10.6533.6146.8446.0309,0,3.38,0,3.38s-4.6731,1.5124-4.61,2.8682c.0672,1.4341,2.356,1.4341,2.356,1.4341h5.634s4.0166-7.5875,4.712-8.1949c2.6539-2.3175,4.9935-1.83,9.1168-4.5072"/>
    <path id="Badger_Line_2" fill="none" stroke="#000" stroke-linecap="round" stroke-linejoin="round" stroke-width="2" d="M55.8961,43.0439l3.2286,3.9687c-.6286.92-7.115.4826-6.0023,4.7231.1348.5136,1.5354.49,2.0664.492,1.0578.0036,4.2311,0,4.2311,0"/>
    <path id="Badger_Line_3" fill="none" stroke="#000" stroke-linecap="round" stroke-linejoin="round" stroke-width="2" d="M22.55,36.88s2.1119,7.22.8225,9.1084c-.6286.92-7.115.4826-6.0023,4.7231.1348.5136,1.5354.49,2.0664.492,1.0578.0036,4.2311,0,4.2311,0"/>
    <path id="Badger_Line_4" d="M7.9183,27.2494l.2742,4.7876c-.9434.379-3.314-2.3569-3.314-2.3569S7.03,26.853,7.9183,27.2494Z"/>
  </g>
</g>
  <g transform="translate(25.17800769180161, 523.3229101434589) scale(1 1) translate(0, 0) scale(1.7777777777777777 1.7777777777777777) "><g id="color">
    <path fill="#d0cfce" d="M56.7848,37.1494c-5.2021-6.5889-19.9209-8.1806-20.459-8.2324a2.5433,2.5433,0,0,1-1.624-1.0757A5.1111,5.1111,0,0,1,36.1569,20.72l1.0761-.7012a4.7651,4.7651,0,0,0,2.0137-5.1728,2.4492,2.4492,0,0,0-2.5859-1.8433l-.7539.062a4.8194,4.8194,0,0,1-3.4053-.9868,8.7839,8.7839,0,0,0-7.9727-1.4321c-.3613.1069-8.89,2.76-11.1582,15.3462-.05.3335-1.1777,8.2285,3.32,13.789,2.5214,3.1172,6.2822,4.85,11.18,5.1485a.9642.9642,0,0,0,.128-.0194,14.3372,14.3372,0,0,0,8.9277,3.3661,15.2272,15.2272,0,0,0,7.36-2.043,2.7969,2.7969,0,0,0,1.1179-1.1744c4.4416-.8148,5.8264.3079,5.9709.7867a.977.977,0,0,0,.0557.1963,1.08,1.08,0,0,1-.0654.8818c-.1387.1768-.7813.73-3.2774.3887-6.3418-.8535-8.3789,2.4766-8.4629,2.6191a1,1,0,0,0,.9961,1.4961,5.76,5.76,0,0,1,4.3574,1.7432,4.7042,4.7042,0,0,0,4.7559.9121q.2432-.0894.4717-.17c-.0166.0176-.0332.0351-.0508.0527a3.057,3.057,0,0,0-.373,3.7647,4.368,4.368,0,0,1,.333,2.9687.9995.9995,0,0,0,.9658,1.2588.9833.9833,0,0,0,.3076-.0488c5.8965-1.9043,6.8691-8.0059,6.5527-11.2617A12.1968,12.1968,0,0,0,56.7848,37.1494Z"/>
    <path fill="#9b9b9a" d="M14.1442,47.89a6.4231,6.4231,0,0,1-2.1572-.331,1.5292,1.5292,0,0,1-.0323-2.874,6.1133,6.1133,0,0,0,3.9395-6.2168,1.0013,1.0013,0,0,1,1.831-.6514c.0254.0391,2.5733,3.8555,5.6172,4.2988a.8618.8618,0,0,1,.0977.02l1.2275.3066a1,1,0,0,1,.2334,1.85C19.7526,47.0723,16.3571,47.89,14.1442,47.89Z"/>
    <path fill="#9b9b9a" d="M28.7633,45.291c-.0644,0-.7242-.3421-.79-.3557a16.8059,16.8059,0,0,1-7.766-2.157c-4.9961-2.9649-6.9432-7.8511-6.96-12.8461-.0377-10.9341,6.146-16.0567,6.398-16.2471a1,1,0,0,1,1.5722,1.0415A30.8975,30.8975,0,0,0,25.8219,39.874c.0166.02.0322.042.0469.0635A21.6934,21.6934,0,0,0,29.39,43.5117a1,1,0,0,1-.627,1.7793Z"/>
  </g>
  <g id="line">
    <path fill="none" stroke="#000" stroke-linecap="round" stroke-linejoin="round" stroke-width="2" d="M24.4257,43.4114C12.2162,40.3751,14.36,26.1412,14.36,26.1412c2.18-12.0947,10.4521-14.5363,10.4521-14.5363A7.7849,7.7849,0,0,1,31.8912,12.87h0A5.8408,5.8408,0,0,0,36,14.0607h0L36.7427,14a1.4609,1.4609,0,0,1,1.5352,1.0947h0a3.7674,3.7674,0,0,1-1.5918,4.0873l-1.0747.7011a6.11,6.11,0,0,0-1.7405,8.5144h0a3.5238,3.5238,0,0,0,2.2666,1.5019S51,31.4359,56,37.77a11.1522,11.1522,0,0,1,.9113,12.6673s1.1019,8.2819-5.83,10.5215a5.348,5.348,0,0,0-.4483-3.7531,2.0476,2.0476,0,0,1,.235-2.5383,4.4309,4.4309,0,0,0,1.493-2.4527,28.0687,28.0687,0,0,0-2.9733.9315,3.708,3.708,0,0,1-3.7451-.7226,6.7174,6.7174,0,0,0-5.1541-1.9863s1.7062-2.9147,7.4647-2.1327,4.4078-2.63,4.4078-2.63-.3665-2.1033-4.733-1.8956"/>
    <path fill="none" stroke="#000" stroke-linecap="round" stroke-linejoin="round" stroke-width="2" d="M23.9048,38.8321s7.5419,13.2884,19.8829,6.5353c0,0,2.5506-1.4714-1.4755-2.6759a11.048,11.048,0,0,1-5.5226-4.516s-1.4144-3.4348-4.7145-3.7042"/>
    <path fill="none" stroke="#000" stroke-linecap="round" stroke-linejoin="round" stroke-width="2" d="M16.8894,38.3665a7.1455,7.1455,0,0,1-4.5766,7.2521.529.529,0,0,0,.0094.9978c1.5113.5365,4.9456.6609,12.1037-3.2055"/>
  </g>
</g>
  <g transform="translate(25.17800769180161, 348.6770898565412) scale(1 1) translate(0, 0) scale(1.7777777777777777 1.7777777777777777) "><g id="color">
    <path fill="#6a462f" d="m24.6652,18.7248l-7.08-5.5564-7.174,1.328-2.6553,3.9763.5468,5.8354,1.7123,3.7383c.8278,1.8073,2.8223,4.0696,4.5257,5.0942l-2.5346,7.8679-.0528,5.4917,1.4257,5.0165,2.2706,3.1683,5.9141,4.4005s14.0427,9.0796,29.0427.2463l7.0759-6.0726,2.429-5.3349.2112-5.226-1.6898-7.2343-.3783-2.7117,2.0153-2.3048,3.318-4.6952.8007-6.1324-2.0559-4.8943-4.1751-2.3066-5.0864,1.3726-4.014,3.0639-2.5168,1.6581-8.8712-2.165-8.1946.3282-4.8094,2.048Z"/>
    <path fill="#a57939" d="m29.5877,37.7521l-2,5-.8333,6.6667,2,3.1667.3333,4.3333,2.8333,2.1667,8.6667-.3333,2.3333-1,.1667-5.1667,2-3.1667-1.1667-6.6667-2.5-5.5s-7-4.8333-11.8333.5Z"/>
    <path fill="#3f3f3f" d="m30.7544,47.7521s4.3333-4.6667,9.8333-.3333l-1.8333,2.8333-6-.1667-2-2.3333Z"/>
    <path fill="#a57939" d="m47.7544,18.4188s12.8333-4,15.1667,8l1.2421-5.1254-1.0055-5.3115-3.7823-3.0263-3.6495-.2524-5.4715,2.7158-2.5,2.9999Z"/>
    <path fill="#a57939" d="m24.2544,18.4188s-12.8333-4-15.1667,8l-.8567-1.751c-.5486-1.1213-.8155-2.3593-.7777-3.607l.0229-.7565c.0556-1.8349.7667-3.5891,2.0045-4.9447h0c1.0309-1.1291,2.3755-1.9247,3.8614-2.2849l.1544-.0374c1.9642-.4762,4.037-.1587,5.7687.8836l2.4891,1.4982,2.5,2.9999Z"/>
  </g>
  <g id="line">
    <circle cx="28.6339" cy="36.999" r="2"/>
    <path fill="none" stroke="#000" stroke-linecap="round" stroke-linejoin="round" stroke-width="2" d="m26.0089,19.8949s-7.6875-11.625-14.9375-6.8125c-6.6011,4.3818-3.9113,13.9584.603,16.915"/>
    <path fill="none" stroke="#000" stroke-linecap="round" stroke-linejoin="round" stroke-width="2" d="m21.0714,58.5824c-15.9375-6.3125-7.8506-24.0133-7.8506-24.0133,0,0,3.645-9.3586,9.3416-11.6086"/>
    <path fill="none" stroke="#000" stroke-linecap="round" stroke-linejoin="round" stroke-width="2" d="m51.0978,58.5824c15.9375-6.3125,7.8506-24.0133,7.8506-24.0133,0,0-3.645-9.3586-9.3416-11.6086"/>
    <circle cx="43.3661" cy="36.999" r="2"/>
    <path fill="none" stroke="#000" stroke-linecap="round" stroke-linejoin="round" stroke-width="2" d="m43.495,43.3313l1.5607,4.8039c.2196.8168.0853,1.6816-.3675,2.3961-1.2194,1.924-4.0542,5.1185-8.2597,2.2386h-.8572c-4.2055,2.8798-7.0402-.3147-8.2597-2.2386-.4528-.7144-.5871-1.5793-.3675-2.3961l1.5607-4.8039"/>
    <path fill="none" stroke="#000" stroke-linecap="round" stroke-linejoin="round" stroke-width="2" d="m40.172,47.9243c-.1014,3.008-2.8052,1.6561-2.8052,1.6561l-1.3668-.6766-1.3667.6766s-2.7039,1.3519-2.8052-1.6561"/>
    <path fill="none" stroke="#000" stroke-linecap="round" stroke-linejoin="round" stroke-width="2" d="m45.9911,19.8949s7.6875-11.625,14.9375-6.8125c6.6011,4.3818,3.9113,13.9584-.603,16.915"/>
    <path fill="none" stroke="#000" stroke-linecap="round" stroke-linejoin="round" stroke-width="2" d="m29.9464,57.1478s5.1875,6.6013,12.1072.5625"/>
    <path fill="none" stroke="#000" stroke-linecap="round" stroke-linejoin="round" stroke-width="2" d="m24.6652,17.9512s8.7098-4.9304,22.3259,0"/>
    <line x1="36" x2="36" y1="52.7699" y2="49.5804" fill="none" stroke="#000" stroke-linecap="round" stroke-linejoin="round" stroke-width="2"/>
  </g>
</g>
  <g transform="translate(96.212862362522, 189.13019403716132) scale(1 1) translate(0, 0) scale(1.7777777777777777 1.7777777777777777) "><g id="color">
    <path fill="#d0cfce" d="m50.6975,53.9417h-6.8075s-.3683-3.9115,2.5783-4.2258,2.0717-4.5681,2.0717-4.5681h7.327v8.7939h-5.1695Z"/>
    <path d="m7.3036,29.26s1.6438.8078.69,1.945c-.2746.4704-.8786.629-1.3489.3544-.1506-.0879-.2752-.2142-.3611-.366,0,0-1.0958-.3741,1.02-1.9334Z"/>
    <path fill="#fff" d="m55.8671,50.631s-6.6033.4392-5.0148,4.2254h9.3464s2.4571,0,1.9707-5.8393c0,0,1.7093-15.8608-.4973-16.6883l2.8521,1.809c.4545.2809,1.0506.1403,1.3316-.3142.0987-.1597.1488-.3446.1442-.5323v-.7731c-.4627-1.7564-9.4146-9.3746-16.8734-9.3746-1.6588-.0042-3.3076.2565-4.8841.7724,0,0-.0442.0113-.1105.0341-.7183.1818-4.5637,1.1926-5.4808,1.2835-1.0166.0909-17.6021-.5973-17.6021-.5973-2.3466-.0378-2.7887-.8026-4.3654-.3568-4.084,1.1546-11.4128,5.399-10.4,6.9135,1.0783,1.6122,2.0719,4.638,10.5546,1.31h.0442c.2984,0,2.1658.2045,6.7737,4.7023.0008.0087.0047.0168.011.0228,3.0168,2.9419,12.0373,14.8597,12.8628,15.5156s5.851,2.1127,5.16-3.01c-1.5424-.1533-2.8951-.4089-2.8951-.4089l-.1156-3.3284c5.0669,1.3752,11.9363-1.05,11.9363-1.05"/>
    <path fill="#d0cfce" d="m23.2417,37.1571c.1326.5338,3.2727,12.0447-.011,12.5056s-3.79,1.1586-3.7018,3.4757h8.7516l4.1659-3.8391s-3.7406-9.7902-9.2047-12.1422Z"/>
  </g>
  <g id="line">
    <path fill="none" stroke="#000" stroke-linecap="round" stroke-linejoin="round" stroke-width="2" d="m38.7948,49.3248s1.3527.2556,2.8951.4089c.6907,5.1227-4.3352,3.666-5.16,3.01s-9.8459-12.5737-12.8626-15.5156c-.0063-.006-.0102-.0141-.011-.0228-4.6079-4.4978-6.4753-4.7023-6.7737-4.7023h-.0442c-8.4827,3.328-9.4763.3022-10.5546-1.31-1.0129-1.5145,6.3159-5.7589,10.4-6.9135,1.5767-.4458,2.0188.319,4.3654.3568,0,0,16.5855.6882,17.6021.5973.9171-.0909,4.7625-1.1017,5.4808-1.2835.0663-.0228.1105-.0341.1105-.0341,1.5765-.5159,3.2253-.7766,4.8841-.7724,7.4588,0,16.4107,7.6182,16.8734,9.3746v.7731c.0131.5341-.4093.9777-.9435.9908-.1877.0046-.3726-.0455-.5323-.1443l-2.8521-1.809"/>
    <path fill="none" stroke="#000" stroke-linecap="round" stroke-linejoin="round" stroke-width="2" d="m23.6673,37.2281c.1326.5339,3.2727,12.0447-.011,12.5056s-3.79,1.1586-3.7018,3.4757h8.7517l4.1658-3.8394"/>
    <path fill="none" stroke="#000" stroke-linecap="round" stroke-linejoin="round" stroke-width="2" d="m50.6155,53.9417h-6.8076s-.3684-3.534,2.5783-3.818,2.0719-4.1273,2.0719-4.1273c-3.2096.8081-6.5693.8081-9.7789,0"/>
    <path fill="none" stroke="#000" stroke-linecap="round" stroke-linejoin="round" stroke-width="2" d="m55.8671,50.631s-7.2364-6.3521-7.8234-10.9665"/>
    <path fill="none" stroke="#000" stroke-linecap="round" stroke-linejoin="round" stroke-width="2" d="m55.8671,50.631s-6.6033.4392-5.0148,4.2254h9.3464s2.3113-.1064,1.3994-5.8564c0,0,3.5266-9.125,1.3985-15.8437"/>
    <path fill="none" stroke="#000" stroke-linecap="round" stroke-linejoin="round" stroke-width="2" d="m17.1768,26.1842s2.3021-.38,1.3813,3.0754"/>
  </g>
</g>
  <g transform="translate(225.99999999999977, 72.26933041053587) scale(1 1) translate(0, 0) scale(1.7777777777777777 1.7777777777777777) "><g id="color">
    <path fill="#fff" d="m33.8823,15.1327l-7.9051,1.5397-5.4728,4.4963-5.4167,7.8286-3.1661,10.0016.1745,8.3486s.8244,4.4598,3.9266,7.3001c2.7576,2.5247,4.6292,2.9347,4.6292,2.9347,0,0,12.562,3.8759,15.3164,3.3759s14.1795-2.3335,16.3462-3.9169c2.1667-1.5833,5.9734-5.5888,5.9734-5.5888l2.0245-5.4118.2564-3.9136c-.3876-3.6415-1.464-7.1761-3.172-10.4155l-3.299-6.2569s-6.2013-6.4255-6.4513-6.8797-4.9878-2.4563-4.9878-2.4563l-8.7763-.986Z"/>
    <path fill="#3f3f3f" d="m26.6294,19.5855l-3.3333,3-5.5,2.7083-3.3889,5.2755s-5.3274-2.2057-6.5447-7.6706c-.5729-2.5721-.1189-5.1102,1.0993-7.4469.4791-.919.9101-1.6929,1.0894-1.8722.5-.5,3.9664-1.9192,3.9664-1.9192l4.3182.6717,8.2936,7.2534Z"/>
    <path fill="#3f3f3f" d="m45.296,19.5438l3.8936,3.2933,5.8564,3.1234,3.0417,5.625,2.9123-3.1171,2.4852-4.719c.9858-2.628.8595-5.5494-.3719-8.0716-.531-1.0876-1.0155-2.0185-1.2037-2.2067-.5-.5-4.7839-2.0384-4.7839-2.0384l-4.3679,1.4144-7.4616,6.6967Z"/>
    <path fill="#3f3f3f" d="m34.7544,41.0021s-3,5.8333-6.1667,5.6667c-3.1667-.1667-6.4167-1.4167-6.4167-1.4167l-1.6667-4.0833,1.5-3.3333,2.3333-2.5,3.0833-1.3333,4-.0833,1.4167,1.4167,1.9168,5.6665Z"/>
    <path fill="#3f3f3f" d="m37.3377,41.0021s3,5.8333,6.1667,5.6667c3.1667-.1667,6.4167-1.4167,6.4167-1.4167l1.6667-4.0833-1.5-3.3333-2.3333-2.5-3.0833-1.3333-4-.0833-1.4167,1.4167-1.9168,5.6665Z"/>
    <path fill="#3f3f3f" d="m31.5252,46.8355s4.9375-2.1875,8.8125.0625l-.75,2.4375-6.3125.5-1.75-3Z"/>
  </g>
  <g id="line">
    <circle cx="28.6022" cy="38.999" r="2"/>
    <path fill="none" stroke="#000" stroke-linecap="round" stroke-linejoin="round" stroke-width="2" d="m35.9683,49.1352s-4.0706,1.7971-4.172-1.2109"/>
    <path fill="none" stroke="#000" stroke-linecap="round" stroke-linejoin="round" stroke-width="2" d="m25.9772,18.8949s-7.6875-11.625-14.9375-6.8125c-6.6011,4.3818-3.9113,13.9584.603,16.915"/>
    <path fill="none" stroke="#000" stroke-linecap="round" stroke-linejoin="round" stroke-width="2" d="m21.0397,57.5824c-15.9375-6.3125-7.8506-24.0133-7.8506-24.0133,0,0,3.645-9.3586,9.3416-11.6086"/>
    <path fill="none" stroke="#000" stroke-linecap="round" stroke-linejoin="round" stroke-width="2" d="m51.0661,57.5824c15.9375-6.3125,7.8506-24.0133,7.8506-24.0133,0,0-3.645-9.3586-9.3416-11.6086"/>
    <circle cx="43.3344" cy="38.999" r="2"/>
    <path fill="none" stroke="#000" stroke-linecap="round" stroke-linejoin="round" stroke-width="2" d="m44.6566,51.5312c-1.2194,1.924-4.0542,5.1185-8.2597,2.2386h-.8572c-4.2055,2.8798-7.0402-.3147-8.2597-2.2386"/>
    <path fill="none" stroke="#000" stroke-linecap="round" stroke-linejoin="round" stroke-width="2" d="m35.9683,49.1352s4.0706,1.7971,4.172-1.2109"/>
    <path fill="none" stroke="#000" stroke-linecap="round" stroke-linejoin="round" stroke-width="2" d="m45.9594,18.8949s7.6875-11.625,14.9375-6.8125c6.6011,4.3818,3.9113,13.9584-.603,16.915"/>
    <path fill="none" stroke="#000" stroke-linecap="round" stroke-linejoin="round" stroke-width="2" d="m24.6335,16.9512s8.7098-4.9304,22.3259,0"/>
    <path fill="none" stroke="#000" stroke-linecap="round" stroke-linejoin="round" stroke-width="2" d="m30.6022,59.5824c3.5914,1.2214,7.1689,1.2311,10.7321,0"/>
    <line x1="35.9683" x2="36" y1="49.1352" y2="53.7699" fill="none" stroke="#000" stroke-linecap="round" stroke-linejoin="round" stroke-width="2"/>
    <path fill="none" stroke="#000" stroke-linecap="round" stroke-linejoin="round" stroke-width="2" d="m43.9375,45.8355s7.3693,1.6133,7.4134-4.2067c.0229-3.021-1.8972-5.6794-4.6072-7.0147-3.522-1.7354-8.4313-2.5763-8.4313,6.2213"/>
    <path fill="none" stroke="#000" stroke-linecap="round" stroke-linejoin="round" stroke-width="2" d="m28.2573,45.8355s-7.3692,1.6133-7.4134-4.2067c-.0229-3.021,1.8972-5.6794,4.6072-7.0147,3.522-1.7354,8.4312-2.5763,8.4312,6.2213"/>
  </g>
</g>
  <g transform="translate(392.09804542758525, 18.300803945325242) scale(1 1) translate(0, 0) scale(1.7777777777777777 1.7777777777777777) "><g id="color">
    <path fill="#e27022" d="m48.5444,45.6928l.1799.1825c.7727.7838,1.7552,1.3279,2.8295,1.5672l1.7307.3854c1.1899.265,1.8963,1.4935,1.5267,2.6551l-.3471,1.0911c-.1676.5268-.1898,1.0891-.0643,1.6275l.2578,1.1061c.1617.6939.8822,1.1013,1.5602.8822h0c.608-.1965,1.1151-.6228,1.4131-1.188l1.511-2.8661c.4319-.8192.789-1.6758,1.067-2.5592l.2734-.8688c.5611-1.7832.1134-3.7211-1.1447-5.1039-1.8425-2.025-2.8178-4.375-3.7999-6.8312-.1932-.4831-.8347-.5802-1.1625-.1761l-5.9635,7.3517c-.6613.8152-.604,1.9972.1329,2.7446Z"/>
    <path fill="#e27022" d="m30.2921,43.5997l-1.1611,3.0323-1.4041,6.6825c-.1171.5575-.3815,1.0734-.7657,1.494h0c-.6137.672-1.5735.9049-2.427.5891h0c-.9292-.3439-1.5687-1.2029-1.6314-2.1918l-.2301-3.6238s.5-4.511,1-6.547c.304-1.238,2.21-1.8452,3.6574-2.131.9821-.1939,1.979.2522,2.5083,1.1019l.4537,1.5939h0Z"/>
    <path fill="#f4aa41" d="m67.14,16.53l-1.8874-.5852c-1.1342-.1412-1.7245-.1411-2.7989.2488l-.9428.3995c-1.1559.4195-1.682,2.0188-1.8682,3.2344-.1511.9865.0784,1.931-.0586,2.8527-.3021,2.0332-1.2806,3.899-2.7781,5.307l-.1654.1555c-1.0288.9673-2.3334,1.5902-3.7325,1.782l-2.3026.3157c-1.3985.1918-2.8229-.0016-4.1197-.5593l-.9645-.4148c-1.7964-.7725-3.7089-1.2403-5.659-1.3842l-10.0541-.7419c-1.6796-.1239-3.3681-.0257-5.022.2921l-.654.1257c-2.1473.4127-4.3692.1663-6.374-.7067l-1.6898-.7359c-1.0357-.451-2.0298-.9922-2.9709-1.6171l-2.4522-.7735c-.3224-.2141-2.2812-.1697-2.2812-.1697-.9437.1925-1.3004.6414-.8614,1.4986l.4919.9605c.2377.4641.2089,1.0199-.0754,1.457l-1.8326,2.8169c-.656,1.0083-.8786,2.2381-.6178,3.4124h0c.3088,1.3902,1.5093,2.3997,2.932,2.4638,1.0657.048,2.3166.1327,3.379.2819.8271.1162,1.6683.0163,2.4561-.2614l.043-.0152c.8804-.3103,1.8337.2625,1.9306,1.1835.1366,1.2982.6328,2.5938,1.1383,3.8151.2843.6869-.0048,1.4701-.6559,1.8288-2.1275,1.1723-3.3371,2.3017-4.0527,4.0364-.1604.3892-.2959,1.0226-.4112,1.7291-.2876,1.7615-1.0399,3.0134.397,4.0723l.8801.4484c.372.2741,1.4684.436,1.9074.292.9599-.315,2.4133-1.1994,1.822-3.6287-.1222-.502.0196-1.0361.3893-1.3971l1.1039-1.0779c.734-.7167,1.5769-1.3111,2.4969-1.7648,1.0385-.5121,2.1523-1.0409,2.6894-1.2945.2167-.1023.4509-.1475.6902-.1355l13.5132.6778c.398.02.7705.2023,1.0304.5045l1.8851,2.1916c.2853.3317.4062.7741.3293,1.2048l-.8669,4.8546c-.1704.9541.6219,1.805,1.5857,1.703h0c.4017-.0425.7676-.25,1.0103-.5729l4.2126-5.6053c.1895-.2521.2919-.5589.2919-.8743v-2.4575c0-.3496.1246-.6849.3527-.9497,1.1492-1.3342,4.7636-5.6731,5.6683-8.4829l.0119.0164s5.806-3.004,8.03-7.525c3.597-5.054-.6774-9.975,4.438-8.312,1.289.4189,2.883-2.184,1.32-3.809-.2826-.3119-.1871-.2065-.2826-.3119l.0059.0013Z"/>
  </g>
  <g id="line">
    <path fill="none" stroke="#000" stroke-linecap="round" stroke-linejoin="round" stroke-width="2" d="m12.46,35.74c-2.333,1-4.917.8333-4.917.8333-1.677.1458-3.115-4.01-2.485-4.733l3.318-5.1-1.75-3.417s5.008-1.415,7.883,2.09c.3444.42.7943.7429,1.279.9871.0298.015.0602.0302.0912.0456,2.593,1.289,5.546,1.571,8.385.9981,7.222-1.458,14.07-1.37,21.7,2.212,7.625,3.583,14.53-2.25,13.64-7.5-.793-4.647,3.562-7.583,6.75-5"/>
    <path fill="none" stroke="#000" stroke-linecap="round" stroke-linejoin="round" stroke-width="2" d="m16.05,48.82c.6006-2.206,8.491-3.648,8.491-3.648,0,0,3.228-1.201,1.426-4.504"/>
    <path fill="none" stroke="#000" stroke-linecap="round" stroke-linejoin="round" stroke-width="2" d="m18.3,33.24c-1.543,1.834-3.893,4.803-.44,9.158,0,0-6.756,2.853-6.006,8.033,0,0,.3624,2.476,2.402,2.402"/>
    <path fill="none" stroke="#000" stroke-linecap="round" stroke-linejoin="round" stroke-width="2" d="m23.5,50.03c-1.156,7.254,2.386,6.055,3.017,5.661,1.148-.7173,1.848-9.854,3.952-11.31,1.592-1.104,8.167-.3021,8.167-.3021"/>
    <path fill="none" stroke="#000" stroke-linecap="round" stroke-linejoin="round" stroke-width="2" d="m38.44,41.33c.0911,1.742.7529,3.402,1.734,4.845.6616.9727,1.803,2.32,1.453,2.985-4.479,8.5.6224,7.022,1.083,6.167,3.188-5.917,6.125-4.104,4.647-10.52,0,0,5.27-1.81,5.52-7.977"/>
    <path fill="none" stroke="#000" stroke-linecap="round" stroke-linejoin="round" stroke-width="2" d="m48.15,45.59s2.367,3.204,7.758,2.693c0,0-3.326,6.762,0,7.62,1.917.4941,4.722-11.16,4.722-11.16,0,0-1.839-.7937-3.951-4.182"/>
  </g>
</g>
  <g transform="translate(565.7871376374778, 36.55626315603547) scale(1 1) translate(0, 0) scale(1.7777777777777777 1.7777777777777777) "><g id="color">
    <path fill="#A57939" stroke="none" d="M18.921,25.5021c-0.75,0.25-8.5,9.3333-9.25,15.0833s-0.3333,8.0833-0.3333,8.0833 s2.8333,8.75,11.1667,13.0833c0,0,13.0833,13.1667,30.0833,0.25c0,0,8.3333-2.8333,12-14.5833l-0.3333-9.6667l-2.4167-6.1667 c0,0-4.5-4.3333-4.6667-4.75c-0.1667-0.4167-5.4167-4-5.4167-4l-1.9167-0.5833L23.921,22.6688L18.921,25.5021z"/>
    <path fill="#F4AA41" stroke="none" d="M60.0877,21.2105l0.25-5.75l-1.125-3.875l-5.625-0.75l-5.25,2.5l-3.125,2.625l-3.25-5.375l-5.875-2.75 l-10.125,2l-1.125,0.25c0,0-2.375,1.75-2.25,2.5c0,0-6.75-3-9.625-0.375c0,0-3.75,6.875,0.375,11.375l4,3.5 c0,0-9.5,8.625,1.25,19.5c0,0-2.6198,5.6214,1.1127,11.9173l3.2206,6.666c6,5.3333,19.4167,5.0833,25.4167-0.25l2.3253-4.8129 c0.9155-1.0835,4.6646-5.941,3.6747-11.7704c0,0,8.5-8.125,1.625-20.75l-1.625-1.5l3-1.625L60.0877,21.2105z"/>
    <path fill="#A57939" stroke="none" d="M22.3377,12.398c0,0,1-1.9375,3.875-3s5.8125-1.6875,5.8125-1.6875s6.4375,0.9375,6.9375,1 s6,6.3125,6,6.3125l0.4375,2.4375c0,0-1.8125,1.875-6.5625-0.5625s-5.8125-2.375-6-2.25c-0.1875,0.125-5.625,2.3125-5.625,2.3125 l-2.0625-1.6875L22.3377,12.398z"/>
    <path fill="#FFFFFF" stroke="none" d="M47.671,42.3355c0.0834-0.2084,1.5-8.6667,1.5-8.6667h-0.1666c0,0-2.6667,4.7917-5.625,5.6667l-0.5,1.5416 l0.0937,1.5181c-0.6256-0.0616-1.2596-0.024-1.6979,0.2527c-1.1875,0.75-2.375,0.5-2.375,0.5l-1.8125,1.6875l-0.5625,0.875 l-1.6875-0.5625c0,0-0.6875-2-0.875-2.0625c-0.1875-0.0625-2.0625-0.75-2.0625-0.75l-1.1875,0.4375 c0,0-0.9572-0.3216-1.9857-0.1018l0.1107-1.7941l-0.5-1.5416c-2.9583-0.875-5.625-5.6667-5.625-5.6667H22.546 c0,0,1.4167,8.4583,1.5,8.6667c0.0643,0.1606,1.7091,1.8027,2.4614,2.5486c-0.7147,2.222,0.2053,4.6389,0.2053,4.6389l2.25,2.8125 l5.25-0.75l1.9375-1.5625l1.8125,0.9375l3.9375,1.5l2.5-1.3125c0,0,1.6875-4.5,1.75-4.6875 c0.0327-0.098-0.2592-1.0667-0.5452-1.9694C46.4254,43.6732,47.6166,42.4716,47.671,42.3355z"/>
    <path fill="#f4aa41" stroke="none" d="M27.046,18.0855c0,0,0.4583,2.875-2.2917,5.7083c0,0-4.3333,0.9167-4.5417,1.0417 c-0.2083,0.125-2.3333,1.3333-2.6667,1.5c-0.3333,0.1667-1.7083-0.2917-2.0417-0.5417s-3.4583-5.5-3.4583-5.5l0.1667-3.625 l1.0417-4.375l4.6667-0.5833l4,1.0417l3.8333,3.0417L27.046,18.0855z"/>
    <path fill="#f4aa41" stroke="none" d="M45.033,17.2521c0,0-0.4583,2.875,2.2917,5.7083c0,0,4.3333,0.9167,4.5417,1.0417 c0.2083,0.125,2.3333,1.3333,2.6667,1.5s1.7083-0.2917,2.0417-0.5417c0.3333-0.25,3.4583-5.5,3.4583-5.5l-0.1667-3.625 l-1.0417-4.375l-4.6667-0.5833l-4,1.0417l-3.8333,3.0417L45.033,17.2521z"/>
    <path fill="#FFFFFF" stroke="none" d="M27.671,51.3355l2,4.5l2.5833,1.5833l5.75,0.4167l4.4167-1.5833l2.4167-5.25l-2.9375,1.4583l-4.3958-1.4583 l-1.5-1.3333l-3.0833,1.6667c0,0,0,1.3333-1.75,0.9167C29.421,51.8355,27.671,51.3355,27.671,51.3355z"/>
  </g>
  <g id="hair"/>
  <g id="skin"/>
  <g id="skin-shadow"/>
  <g id="line">
    <ellipse cx="28.7782" cy="31.5656" rx="2" ry="2" transform="matrix(0.5156 -0.8568 0.8568 0.5156 -13.1061 39.9485)" fill="#000000" stroke="none"/>
    <ellipse cx="43.4629" cy="31.5656" rx="2" ry="2" transform="matrix(0.8568 -0.5156 0.5156 0.8568 -10.0526 26.9285)" fill="#000000" stroke="none"/>
    <path fill="none" stroke="#000000" stroke-linecap="round" stroke-linejoin="round" stroke-miterlimit="10" stroke-width="2" d="M40.3928,43.0656c0,0-1.8705-1.3333-2.9394,2.0833l-1.4252,1.0833l-1.4252-1.0833c-1.0689-3.4167-2.9394-2.0833-2.9394-2.0833"/>
    <path fill="none" stroke="#000000" stroke-linecap="round" stroke-linejoin="round" stroke-miterlimit="10" stroke-width="2" d="M42.9467,39.9822l2.1482,3.519c0.1941,0.3179,0.3227,0.6662,0.3793,1.0272l0.326,2.0779c0.0856,0.5453,0.0042,1.1018-0.235,1.6067 l-1.1399,2.407c-0.4169,0.8804-1.2717,1.5195-2.2925,1.7141l0,0c-0.6475,0.1234-1.3206,0.0597-1.9273-0.1826l-1.3016-0.5197 c-0.3174-0.1267-0.6105-0.2999-0.868-0.5128l-1.3748-1.1369h-1.2661l-1.3748,1.1369c-0.2575,0.2129-0.5505,0.3861-0.868,0.5128 l-1.3016,0.5197c-0.6067,0.2423-1.2798,0.306-1.9273,0.1826h0c-1.0208-0.1946-1.8756-0.8337-2.2925-1.7141l-1.1399-2.407 c-0.2391-0.505-0.3205-1.0614-0.235-1.6067l0.326-2.0779c0.0566-0.361,0.1853-0.7093,0.3793-1.0272l2.1482-3.519"/>
    <line x1="36.0282" x2="36.0282" y1="46.2322" y2="48.9822" fill="none" stroke="#000000" stroke-linecap="round" stroke-linejoin="round" stroke-miterlimit="10" stroke-width="2"/>
    <path fill="none" stroke="#000000" stroke-linecap="round" stroke-linejoin="round" stroke-miterlimit="10" stroke-width="2" d="M30.5366,55.5239l0.7708,0.7941c0.8297,0.8549,1.9545,1.3607,3.1446,1.4142l3.0167,0.1356 c1.1576,0.052,2.2933-0.3278,3.1868-1.0657l0.8644-0.714"/>
    <path fill="none" stroke="#000000" stroke-linecap="round" stroke-linejoin="round" stroke-miterlimit="10" stroke-width="2" d="M17.7391,26.8288c-9.9983-4.0396-4.7942-14.1799-4.7942-14.1799c7.5833-4.5833,13.833,4.75,13.833,4.75 s4.8857-4.6468,12.3055-1.3781"/>
    <path fill="none" stroke="#000000" stroke-linecap="round" stroke-linejoin="round" stroke-miterlimit="10" stroke-width="2" d="M24.0282,23.1489c0,0-17.3333,6.0833-13.75,25"/>
    <path fill="none" stroke="#000000" stroke-linecap="round" stroke-linejoin="round" stroke-miterlimit="10" stroke-width="2" d="M19.456,45.1873c-2.6014,3.7405-3.5847,9.9899,4.4889,19.4616"/>
    <path fill="none" stroke="#000000" stroke-linecap="round" stroke-linejoin="round" stroke-miterlimit="10" stroke-width="2" d="M24.0282,27.7322c0,0-5.6115,8.4105,2.1526,17.7886"/>
    <path fill="none" stroke="#000000" stroke-linecap="round" stroke-linejoin="round" stroke-miterlimit="10" stroke-width="2" d="M25.3605,10.9187c0,0,12.7053-9.5,19.8616,5.3333"/>
    <path fill="none" stroke="#000000" stroke-linecap="round" stroke-linejoin="round" stroke-miterlimit="10" stroke-width="2" d="M45.2221,16.4903c0,0,6.2497-9.3333,13.833-4.75c0,0,5.2041,10.1403-4.7942,14.1799"/>
    <path fill="none" stroke="#000000" stroke-linecap="round" stroke-linejoin="round" stroke-miterlimit="10" stroke-width="2" d="M47.9718,22.2403c0,0,17.3333,6.0833,13.75,25"/>
    <path fill="none" stroke="#000000" stroke-linecap="round" stroke-linejoin="round" stroke-miterlimit="10" stroke-width="2" d="M53.6231,46.2342c1.6075,3.8321,1.2349,9.5252-5.5679,17.5062"/>
    <path fill="none" stroke="#000000" stroke-linecap="round" stroke-linejoin="round" stroke-miterlimit="10" stroke-width="2" d="M47.9718,26.8237c0,0,5.6115,8.4105-2.1526,17.7886"/>
  </g>
</g>
  <g transform="translate(717.0348546707205, 123.87917329949448) scale(1 1) translate(0, 0) scale(1.7777777777777777 1.7777777777777777) "><g id="color">
    <path fill="#f4aa41" d="m11.4314,25.1998l-1.4679.7355c-.6923.3469-1.3582.744-1.9924,1.1881h0c-.9312.6521-1.6225,1.5919-1.9677,2.675l-.2838.8906-.8967,2.5574c-.3015.8599-.145,1.8142.4154,2.5328h0c.4887.6266,1.3054.899,2.0723.6913l2.3964-.6489c1.1266-.3051,2.3305.0072,3.1668.8214h0c.116.1129.2477.2085.3911.2837l1.8495.9699c.8832.4631,1.5389,1.2668,1.8155,2.2249l.3539,1.226c.2378.8239.7076,1.97.0938,2.5689l-1.4259,1.2048c-.9426.9197-1.5442,1.7516-1.9495,3.0046l-.3234,1.0585c-.3239,1.0014-.5127,1.8908-.304,2.9225l.072.3558c.0752.372.4654.868.4654.868,1.2451,1.0462,2.6623,1.0463,3.8423-.0728l.1529-.145c.3515-.3334.5476-.8012.5213-1.2849-.0502-.9215.0209-2.5.9573-3.3553.1093-.0999.2213-.206.3348-.3169,1.0555-1.0307,2.8363-.2658,2.8363,1.2095v3.2915c0,.1299.0151.2593.0449.3857l.2735,1.1574c.1502.6357.6558,1.1263,1.2958,1.2574h0c.6404.1311,1.2987-.1218,1.6865-.6481l.3679-.4991c.1743-.2365.2834-.5146.3164-.8065l1.1311-10.0021c.1052-.9302.9515-1.5942,1.8799-1.475l.4399.0564,5.157.4709c.31.0283.6217-.0302.9004-.169l1.6524-.8232c.9615-.479,2.119.0567,2.3762,1.0996l.4563,1.8505c.0725.2939.2232.5628.4361.778l2.5464,2.574c.3785.3826.5504.9235.4622,1.4544l-.5102,3.0709c-.0594.3574-.0014.7244.1652,1.0462l.0326.063c.4425.8544,1.5115,1.1621,2.3405.6737l.4826-.2843c.2474-.1458.4533-.3526.5979-.6008l1.8037-3.0961c.1493-.2563.228-.5476.228-.8442v-2.2491c0-.4518-.1823-.8845-.5055-1.2001l-3.389-3.3086,7.1906,5.0217.3383.2171c1.4352.9212,2.385,2.4343,2.5908,4.1272l.2397,1.9711c.0676.5556.4078,1.0409.9071,1.2937l.0451.0228c.583.2953,1.2845.225,1.7973-.1801l.156-.1232c.4427-.3497.6799-.8984.6313-1.4604l-.5024-5.8156c-.0977-1.1308-.6547-2.1722-1.5411-2.8811h0c-.1522-.1217-.2819-.269-.3835-.4352l-1.5833-2.5907c-.9993-1.6352-1.4694-3.5391-1.3459-5.4516l.0618-.958c.0063-.0979.004-.1962-.0068-.2936l-.141-1.2661c-.2688-2.414-1.9189-4.4667-4.2318-5.2084-2.2993-.7373-4.6634-1.0947-7.0979-1.0394l-6.2449-.0397c-1.1441-.0073-2.2881.0297-3.4293.1109l-2.7359.1946c-1.6687.1187-3.3452-.0569-4.953-.5189h0c-1.4071-.4043-2.8586-.6341-4.3218-.6845l-3.0033-.1033c-.7816-.0269-1.5326-.3106-2.1367-.8074h0c-.4273-.3514-.9243-.6082-1.4582-.7535h0c-.8808-.2397-1.819-.1461-2.6351.2628Z"/>
    <path fill="#fff" d="m41.0605,37.8085c-2.2712-.8386-7.7494-2.548-10.9617-.9084-.8334.4254-1.4148,1.2238-1.6179,2.1372l-.2481,1.1158c-.2033.9143.3745,1.8198,1.2893,2.0208l1.0399.2284c.938.206,1.908.2193,2.8513.0392l4.2376-.8092c.7157-.1367,1.3765-.4777,1.9026-.9818l1.7476-1.6748c.3756-.36.2473-.9868-.2407-1.167Z"/>
    <path fill="#fff" d="m20.3459,42.2129l-1.9279,1.0457c-1.2428.6741-2.337,1.5918-3.2172,2.6983l-.7918.9954c-.7832.9845-1.2095,2.2054-1.2095,3.4634v.6399c0,1.5017.9391,2.8431,2.3501,3.357l.6306.2297c.6677.2432,1.4111-.0594,1.7191-.6998h0c.4545-.9449.6974-1.9721.7679-3.0182.0515-.7633.2261-1.6734.7186-2.2603.5459-.6505,1.4382-1.77,2.1254-2.6389.6233-.7882.9102-1.7904.7972-2.789h0c-.038-.3352-.2015-.6437-.4576-.8632h0c-.42-.36-1.0186-.4236-1.5049-.1598Z"/>
    <path fill="#fff" d="m42.3692,43.6428c2.1827-.1005,5.7987.1099,7.3213,2.3662.1057.1567.1538.3484.1538.5374v.8993c0,1.5092-.445,2.9849-1.2792,4.2426l-1.5997,2.4116c-.4066.613-1.0716,1.0061-1.8047,1.0667h0c-.5674.0469-1.1182-.2052-1.4534-.6654h0c-.3286-.451-.4464-1.0219-.3232-1.5662l.5249-2.3198c.1373-.6068.079-1.2415-.1667-1.813h0c-.1852-.431-.3956-.8508-.6299-1.2573l-.9883-1.7142c-.0199-.0345-.0419-.0677-.0659-.0995l-.412-.5453c-.4681-.6196-.0527-1.5074.7231-1.5431Z"/>
    <path fill="#f4aa41" d="m53.2082,35.149c.0015.0073.0013.0074.0032.0146.0547.2012,2.391,8.7336,5.9882,11.093,3.6402,2.3877,5.362,2.7987,7.3973,2.4073,1.2656-.2434,1.4716-1.4545,1.4939-2.0606.0071-.1918-.1486-.3467-.3405-.3467h0c-1.0658,0-2.1153-.2613-3.0566-.761l-1.8992-1.0081c-1.5472-.8213-2.7907-2.1164-3.5485-3.6957h0c-.2062-.4298-.3689-.8791-.4857-1.3412l-.5006-1.9813-.3292-1.224c-.4499-1.6729-1.362-3.1851-2.6317-4.3635l-1.0471-.9717c-.175-.1624-1.8354-.0691-2.0441-.1852l.0565.2802c-.8416.3069-1.1494,1.3383-.6137,2.0563l1.5577,2.0876Z"/>
  </g>
  <g id="line">
    <path fill="none" stroke="#000" stroke-linecap="round" stroke-linejoin="round" stroke-width="1.8788" d="m15.9015,26.4023h5.8793c.7079,0,1.4076.1517,2.0519.4448l.8599.3913c1.2887.5863,2.7123.8087,4.1175.6349,5.1468-.6363,17.7082-.9324,22.4482,1.227,6.5115,2.9664,6.0907,6.9292,6.9029,9.061.8122,2.1317,2.779,8.4603,9.0809,8.0788"/>
    <path fill="none" stroke="#000" stroke-linecap="round" stroke-linejoin="round" stroke-width="1.8788" d="m19.5183,36.3756c.3911,2.02,1.3674,4.394,3.4007,6.9963v10.4757c0,1.0377.8411,1.8788,1.8788,1.8788h.1776c1.0207,0,1.8549-.8112,1.8781-1.8316.0848-3.7282,1.3886-14.2869,2.3233-15.8158,0,0-.5985-2.4072-1.1743-3.9925"/>
    <path fill="none" stroke="#000" stroke-linecap="round" stroke-linejoin="round" stroke-width="1.8788" d="m13.9008,36.2612c.3899.6001,1.5551,1.3775,2.3355,1.7405.412.1916.7074.5694.825,1.0083l1.1676,4.3565s-6.9076,3.732-4.1813,10.3109c.2792.6738,1.0188,1.3389,1.9974,1.4907,1.0234.1588,2.8195-.6301,2.1839-2.5089"/>
    <path fill="none" stroke="#000" stroke-linecap="round" stroke-linejoin="round" stroke-width="1.8788" d="m28.7404,41.5968s7.1008,2.7691,13.1782-2.7691c0,0,.0969,1.639,5.9022,5.7165,0,0,3.5229,2.723,7.1692,4.4271l.5173,5.3125c.0851.8741,1.1077,1.4426,1.986,1.4426h0c.9938,0,1.7773-.846,1.7012-1.837l-.5777-7.5141c-.0398-.5184-.4139-.8974-.8951-1.0943-1.2433-.5088-3.2102-3.9141-4.4921-6.791l-.3914-3.1151"/>
    <path fill="none" stroke="#000" stroke-linecap="round" stroke-linejoin="round" stroke-width="1.8788" d="m38.6694,41.031s1.2701,3.8754,5.8902,8.0273l-.8196,3.8268c-.2349,1.0969.6013,2.1313,1.7231,2.1313h0c.6906,0,1.3156-.4002,1.602-1.0285.57-1.2514,1.265-3.3074,1.898-4.2641"/>
    <path fill="none" stroke="#000" stroke-linecap="round" stroke-linejoin="round" stroke-width="1.8788" d="m15.4266,27.8631c1.63-2.5977-1.5737-4.3447-3.5265-2.7304-1.436,1.1871-2.2364,1.1496-2.2364,1.1496-3.5894,1.0038-3.3371,3.6823-3.3371,3.6823l-1.5956,4.3631c-.0886.3153.0223.6527.2804.8541l1.569,1.2233c.4794.3737,1.116.4565,1.6783.2256,1.5778-.6477,5.0161-2.5221,5.0161-5.3052"/>
    <path fill="none" stroke="#000" stroke-linecap="round" stroke-linejoin="round" stroke-width="1.8788" d="m22.919,44.9065s-2.7648,1.4938-4.0546,3.512"/>
    <path fill="none" stroke="#000" stroke-linecap="round" stroke-linejoin="round" stroke-width="1.8788" d="m48.6389,36.9048c-.7782,0-1.4091-.6309-1.4091-1.4091s.6309-1.4091,1.4091-1.4091c.3161,0,.608.1041.8431.2799"/>
    <path fill="none" stroke="#000" stroke-linecap="round" stroke-linejoin="round" stroke-width="1.8788" d="m32.6287,33.6853c-.7782,0-1.4091-.6309-1.4091-1.4091s.6309-1.4091,1.4091-1.4091c.3161,0,.608.1041.8431.2799"/>
    <path fill="none" stroke="#000" stroke-linecap="round" stroke-linejoin="round" stroke-width="1.8788" d="m40.4703,34.2618c-.6085-.4851-.7087-1.3716-.2236-1.9802s1.3716-.7087,1.9802-.2236c.2472.1971.4105.4604.4848.7444"/>
    <path fill="none" stroke="#000" stroke-linecap="round" stroke-linejoin="round" stroke-width="1.8788" d="m18.8926,33.5317c-.6085-.4851-.7087-1.3716-.2236-1.9802s1.3716-.7087,1.9802-.2236c.2473.1971.4105.4604.4848.7444"/>
    <path fill="none" stroke="#000" stroke-linecap="round" stroke-linejoin="round" stroke-width="1.8788" d="m34.75,36.7985c.5108-.587,1.4009-.6488,1.988-.1379.587.5108.6488,1.4009.1379,1.988-.2075.2385-.4777.3903-.7647.4522"/>
    <path fill="none" stroke="#000" stroke-linecap="round" stroke-linejoin="round" stroke-width="1.8788" d="m23.1116,35.9957c.5108-.587,1.4009-.6488,1.988-.1379.587.5108.6488,1.4009.1379,1.988-.2075.2385-.4777.3903-.7647.4522"/>
  </g>
</g>
  <g transform="translate(819.6890922098924, 265.1706099081639) scale(1 1) translate(0, 0) scale(1.7777777777777777 1.7777777777777777) "><g id="color">
    <path fill="#e27022" d="m9.5447,27.49l-.1547.1804c-.257.2996-.5227.5916-.7969.8756l-1.2493,1.2939c-1.2468,1.2914-2.032,2.9586-2.2333,4.7423l-.1322,1.1715c-.0543.4813-.0301.9682.0719,1.4417l.0183.0848c.1556.7231.5864,1.3573,1.2013,1.7684h0c.3917.2619.8774.3418,1.3323.219l5.1525-1.3902.7168-.1612c.9138-.2055,1.8064.4194,1.926,1.3483l.1459,1.1336c.1449,1.1259-.2891,2.2487-1.1535,2.9845l-1.9651,1.6725c-.1119.0953-.2323.173-.3655.235-.0036.0017-.0071.0033-.0108.005-.6513.3037-1.2319.7507-1.6706,1.3198-1.1777,1.5277-2.1307,3.415-1.962,5.2173.1252,1.3383,1.3591,2.3006,2.7016,2.234h0c.9173-.0455,1.7495-.5515,2.212-1.345l.1254-.2151c.2571-.4411.4395-.9217.5399-1.4222h0c.1777-.8863.7128-1.6603,1.4792-2.1396l4.0135-2.5101c1.7252-1.0789,3.3154-2.3599,4.7369-3.8158h0c.262-.2683.6085-.4382.981-.4811l6.216-.7154,5.6467-.5844c.761-.0788,1.51-.2479,2.2311-.5038l.5269-.187c1.3994-.4967,2.9329.2589,3.3917,1.6712l.6626,2.0398c.2213.6813.4706,1.3532.7473,2.0139l.3874.925c.592,1.4138.7743,2.9656.526,4.4781l-.3452,2.1026c-.0298.1818-.0496.3651-.0591.549h0c-.0392.7591.2566,1.4971.8092,2.019h0c.3029.2861.7038.4455,1.1205.4455h0c.6672,0,1.2672-.4061,1.5151-1.0256l1.4114-3.5266c.5129-1.2816.6053-2.6931.2637-4.0307l-.0368-.144c-.2018-.7901-.2935-1.6043-.2725-2.4195l.0062-.2394c.0674-2.6158.6479-5.1929,1.7084-7.5851l.3504-.7904c.2564-.5783.4929-1.1652.7092-1.7596l.9483-2.6062c.0578-.1588.0918-.3252.0971-.4941.0264-.837.005-3.4838-1.2158-4.9634-.9571-1.16-4.229-1.8867-6.3784-2.2508-1.1487-.1945-2.3111-.2836-3.4761-.2836h-4.5821c-1.0801,0-2.159.0703-3.23.2105l-5.55.7267-4.322.4277c-.3969.0393-.7954.0589-1.1942.0589h-.5147c-1.7415,0-3.472.2767-5.1267.8196l-1.526.5007c-.5361.1759-1.1029.2389-1.6646.1851h0c-.4718-.0452-.9321-.1725-1.36-.3762h0c-1.3997-.6661-3.0722-.3116-4.0813.8651Z"/>
    <path fill="#d0cfce" d="m23.5711,44.9608l.193,1.8716c.0072.0703.0183.1402.0331.2093l.2831,1.3229c.2226,1.0402.2544,2.1122.0939,3.1638l-.041.2686c-.1262.8269-.0152,1.6727.3203,2.439h0c.1156.264.2879.4993.5047.6892h0c.3576.3131.8168.4857,1.2921.4857h0c1.0125,0,1.9011-.6743,2.1737-1.6494l.6693-2.3945c.3163-1.1314.4766-2.3007.4766-3.4754v-2.5414c0-2.0309-1.7397-3.6258-3.7629-3.4497h0c-.7408.0645-1.4068.4771-1.7944,1.1117h0c-.3565.5837-.5116,1.2683-.4415,1.9487Z"/>
    <path fill="#e27022" d="m50.6472,42.7287l.75.926c.9547,1.1787,2.0567,2.2299,3.2791,3.1278l.1085.0797c1.232.905,2.2792,2.0378,3.0847,3.337l.0228.0368c.6085.9814,1.0533,2.0554,1.3168,3.1797l.0373.159c.1732.7388.7533,1.3136,1.4936,1.48l.1347.0303c.7087.1593,1.4478-.0823,1.9256-.6295h0c1.2429-1.4234,1.4366-3.5434.3323-5.0768-.1207-.1675-.2512-.329-.3913-.4834l-2.2468-2.3685c-.159-.1677-.2875-.3619-.3796-.5738l-2.2454-5.1689c-.0766-.1762-.1271-.3627-.1499-.5535l-.6895-5.7587c-.1822-1.5216-.6656-2.9917-1.4221-4.3244h0c-.4005-.7056-.9027-1.3483-1.4906-1.9074h0c-.2948-.2804-.769-.8461-1.0929-.4368l-.1725,3.8388c.2473,1.3522.1794,2.7433-.1987,4.065h0c-.2931,1.0249-.6954,2.0153-1.1999,2.9544l-1.012,1.884c-.2474.4606-.3026,1.0004-.1536,1.5015h0c.0739.2486.196.4802.3592.6817Z"/>
    <path fill="#d0cfce" d="m25.5738,41.5481l5.0146-.1092c.0411-.0009.0821-.004.1229-.0094l4.7081-.6208c.0282-.0037.0562-.0085.0839-.0143l4.6458-.9737c.0495-.0104.0982-.024.1458-.0409l1.4408-.5112c.396-.1405.6811-.4894.7399-.9055l.2745-1.9437c.1292-.9146-.8268-1.5898-1.6416-1.1548-2.6884,1.4352-8.0414,3.6577-15.559,3.7684-.6192.0091-1.1251.4999-1.1275,1.1191l-.001.2636c-.0025.6344.5185,1.1461,1.1527,1.1323Z"/>
    <path fill="#d0cfce" d="m15.1212,31.9599c1.0561.2321,1.6643,1.3522,1.3616,2.3903l-.6451,2.2123h0c-.2417.7818-.9195,1.3491-1.7317,1.4493l-2.1272.2623c-.8463.1044-1.6692.3492-2.4348.7244l-.4685.2296c-.5842.2863-1.234-.2525-1.0515-.877.5589-1.9129,1.7919-5.0218,4.1126-6.1842-.0003-.0001,1.6161-.5078,2.9846-.207Z"/>
    <path fill="#d0cfce" d="m57.5464,40.7282c.1008-.1017.2721-.0717.3324.0582l1.4415,3.1063c.639,1.3771,1.5799,2.589,2.7369,3.5718.8876.7539,1.8416,1.6596,2.1074,2.2666.1993.5365.3409,1.0912.4233,1.6548.126.8615-.2472,1.7213-.9731,2.202h0c-.5552.3677-2.9707.996-3.4803.5674h0c-.6402-.5384-.8196-.929-1.0346-1.7373l-.0571-.2348c-.1727-.7101-.496-1.3669-.8717-1.9937-.0472-.0787-.0867-.1633-.1242-.2748h0c-.245-.7294-.7297-1.3543-1.3752-1.7731l-.1654-.1073c-.7171-.4653-1.4011-.9799-2.0469-1.5401h0c-.5934-.5147-.659-1.4123-.1466-2.0078l3.2336-3.7581Z"/>
  </g>
  <g id="line">
    <path fill="none" stroke="#000" stroke-linecap="round" stroke-linejoin="round" stroke-width="2" d="m12.1118,37.5052l-2.4246,1.5916c-.419.275-.9092.4215-1.4104.4215h-.8551c-.7039-.0001-1.3769-.2891-1.8617-.7994h0c-.567-.5968-.8136-1.4291-.6633-2.2384l.7202-3.8778c.1099-.5916.4343-1.1219.911-1.4892l2.5175-1.9396s1.363-5.2538,4.7676-2.6374c3.8838,2.9846-1.7758,5.2236-1.7758,5.2236"/>
    <path fill="none" stroke="#000" stroke-linecap="round" stroke-linejoin="round" stroke-width="2" d="m14.8519,27.6188s5.5681-2.7151,9.0881-2.2188c1.4273.1718,2.8731.1086,4.28-.1869,5.3712-1.018,16.7957-2.6465,22.5624.5368,0,0,8.7736,2.5188,9.787,17.6594.0731,1.3611.6901,2.6358,1.7123,3.5375,1.2438,1.058,4.3018,1.8859,5.0518-2.1974"/>
    <path fill="none" stroke="#000" stroke-linecap="round" stroke-linejoin="round" stroke-width="2" d="m24.2555,37.3332s.9081,5.3808-1.5889,6.9168c-2.7974,1.7208-8.7769,5.4861-8.7769,5.4861,0,0,.6949,5.7817-3.7587,3.5413"/>
    <path fill="none" stroke="#000" stroke-linecap="round" stroke-linejoin="round" stroke-width="2" d="m16.7957,33.277s-2.0215,2.6553-.6317,8.7261l-4.414,4.33"/>
    <path fill="none" stroke="#000" stroke-linecap="round" stroke-linejoin="round" stroke-width="2" d="m24.629,42.0031s12.571-.9207,14.9086-2.0142,3.0907-.9552,3.0907-.9552"/>
    <path fill="none" stroke="#000" stroke-linecap="round" stroke-linejoin="round" stroke-width="2" d="m42.7736,34.5s-1.784,5.1542,3.4593,14.2605l-1.2,5.202c-.2309,1.001.3933,1.9996,1.3943,2.2305.1371.0316.2774.0476.4181.0476h.0024c.7907,0,1.4949-.4999,1.7558-1.2463l2.1789-6.2338s-2.6532-4.9632.0632-9.7268,1.9879-7.45,1.9879-7.45"/>
    <path fill="none" stroke="#000" stroke-linecap="round" stroke-linejoin="round" stroke-width="2" d="m49.8724,41.5141s4.0648,5.2765,7.1008,6.7766c2.11,1.0426,1.9436,4.4593,1.9436,4.4593v.173c0,1.1046.8954,2,2,2,.029,0,.058-.0006.087-.0019l.75-.0326c1.0697-.0466,1.913-.9274,1.913-1.9981v-.1088"/>
    <path fill="none" stroke="#000" stroke-linecap="round" stroke-linejoin="round" stroke-width="2" d="m24.629,46.7007c.3673,2.1041.3673,4.2559,0,6.36h0c-.4371.8095-.1351,1.8201.6744,2.2572.2432.1313.5152.2.7915.2h.41c.7563,0,1.4177-.5095,1.6107-1.2408l1.0516-4.61-.3853-8.0173"/>
    <path fill="none" stroke="#000" stroke-linecap="round" stroke-linejoin="round" stroke-width="2" d="m26.7967,25.4963s4.0366,3.3371,2.37,12.67"/>
    <path fill="none" stroke="#000" stroke-linecap="round" stroke-linejoin="round" stroke-width="2" d="m33.3883,41.1571s2.2784-6.5738.6227-11.74"/>
    <path fill="none" stroke="#000" stroke-linecap="round" stroke-linejoin="round" stroke-width="2" d="m37.1262,24.0725s2.091,2.5109,2.1744,8.0942"/>
    <path fill="none" stroke="#000" stroke-linecap="round" stroke-linejoin="round" stroke-width="2" d="m43.1546,23.9437s2.3454,1.723,2.1787,6.0563"/>
    <path fill="none" stroke="#000" stroke-linecap="round" stroke-linejoin="round" stroke-width="2" d="m21.5,32.6622c.1446-2.4026-.441-4.7927-1.68-6.8562"/>
  </g>
</g>
  <g>
    <defs/>
    <path d="M 485.33358744419047 554.7357968230472 L 500.0 500.0 L 560.9225514227011 341.2913274954757" fill="none" stroke="black" stroke-width="12.8"/>
    <path d="M 696.2990915244727 613.3333333333333 L 549.0747728811182 528.3333333333334 A 56.666666666666664 56.666666666666664 0 0,1 443.3333333333333 500.0 L 386.6666666666667 500.0" fill="none" stroke="black" stroke-width="12.8"/>
    <path d="M 777.1418202079117 558.9083123983652 L 721.7134561663293 547.1266499186921 A 226.66666666666666 226.66666666666666 0 0,1 651.6696041080079 668.4461604415427 L 727.5044061620118 752.669240662314" fill="none" stroke="black" stroke-width="12.8"/>
    <path d="M 840.0 500.0 L 783.3333333333334 500.0 A 283.33333333333337 283.33333333333337 0 0,1 758.8378796654035 615.2420488714768 L 810.6054555984842 638.2904586457721" fill="none" stroke="black" stroke-width="12.8"/>
    <path d="M 373.66537966884295 613.7522030810059 L 415.77691977922865 575.834802054004 A 113.33333333333333 113.33333333333333 0 0,1 415.77691977922865 424.16519794599606 L 331.5538395584573 348.3303958919921" fill="none" stroke="black" stroke-width="12.8"/>
    <path d="M 429.95614794167864 715.5728103602348 L 447.4671109562589 661.6796077701761 A 170.0 170.0 0 0,1 333.71490787525306 535.3449874390191 L 167.42981575050607 570.6899748780381" fill="none" stroke="black" stroke-width="12.8"/>
    <path d="M 529.6163979258351 781.7812036876775 L 523.6931183406681 725.4249629501419 A 226.66666666666666 226.66666666666666 0 0,1 348.3303958919922 668.4461604415427 L 310.4129948649902 710.5577005519285" fill="none" stroke="black" stroke-width="12.8"/>
    <path d="M 605.0657780874822 823.3592155403521 L 587.5548150729018 769.4660129502936 A 283.33333333333337 283.33333333333337 0 0,1 470.38360207416486 781.7812036876775 L 464.46032248899786 838.137444425213" fill="none" stroke="black" stroke-width="12.8"/>
    <path d="M 330.0000000000001 794.4486372867092 L 358.33333333333337 745.373864405591 A 283.33333333333337 283.33333333333337 0 0,1 270.77851826043155 666.5391548162008 L 224.9342219125179 699.846985779441" fill="none" stroke="black" stroke-width="12.8"/>
    <path d="M 241.1621203345963 384.75795112852336 L 292.92969626767706 407.8063609028187 A 226.66666666666666 226.66666666666666 0 0,1 386.6666666666666 303.7009084755273 L 329.9999999999999 205.55136271329093" fill="none" stroke="black" stroke-width="12.8"/>
    <path d="M 167.42981575050607 429.3100251219619 L 222.85817979208838 441.09168760163493 A 283.33333333333337 283.33333333333337 0 0,1 270.7785182604315 333.4608451837993 L 224.93422191251784 300.15301422055916" fill="none" stroke="black" stroke-width="12.8"/>
    <path d="M 464.4603224889976 161.8625555747871 L 482.2301612444988 330.9312777873936 A 170.0 170.0 0 0,1 626.3346203311569 386.247796918994 L 668.4461604415426 348.330395891992" fill="none" stroke="black" stroke-width="12.8"/>
    <path d="M 641.6666666666667 254.62613559440902 L 613.3333333333334 303.7009084755273 A 226.66666666666666 226.66666666666666 0 0,1 707.0703037323228 407.80636090281865 L 810.6054555984844 361.70954135422795" fill="none" stroke="black" stroke-width="12.8"/>
    <path d="M 605.065778087482 176.64078445964776 L 587.5548150729018 230.5339870497064 A 283.33333333333337 283.33333333333337 0 0,1 689.5870051350099 289.4422994480717 L 727.504406162012 247.33075933768603" fill="none" stroke="black" stroke-width="12.8"/>
  </g>
</svg>
