<?xml version='1.0' encoding='ASCII' standalone='yes'?>
<svg xmlns="http://www.w3.org/2000/svg" xmlns:xlink="http://www.w3.org/1999/xlink" version="1.1" width="1000.0px" viewBox="0 0 1000.0 1000.0" height="1000.0px">
  <g transform="translate(856.0, 436.0) scale(1 1) translate(0, 0) scale(1.7777777777777777 1.7777777777777777) "><g id="color">
    <path fill="#6a462f" d="m46.19 42.68 2.296 6.588-2.399 7.825-2.146 3.417 0.5595 1.822 2.339 0.08633 2.903-1.645 4.044-10.13-0.3066-1.341s-2.295-6.365-3.485-8.242z"/>
    <path fill="#6a462f" d="m57.63 26.17v6.052l-1.03 9.437 2.242 4.911s0.3713 12.35 7.955 10.1l-1.335-1.88-2.027-6.065s-0.1428-9.432-0.1355-9.829-0.6129-6.672-0.6129-6.672l-2.138-4.543z"/>
    <path fill="#a57939" d="m10.81 13.29c1.139 3.392-2.043 5.957-2.92 8.968-1.795 1.992-3.109 6.565 0.8909 6.773 1.967-1.901 6.468-4.115 6.682-3.61l1.405 2.33s3.632 7.184 3.701 9.389c0.352 3.889 4.676 5.135 6.026 8.299 1.226 4.505 2.579 9.054 2.784 13.75-2.174 2.589 2.514 6.047 3.267 2.1 1.158-3.662-0.7283-7.357-0.6783-11.06 0.2588-2.272-0.7676-6.391 0.7768-7.603l14.46-0.2127 2.316-1.035s3.793 4.722 5.32 7.84c0.8563 3.565-0.5011 7.134-1.587 10.48-1.162 2.592 2.062 4.688 3.234 1.698 1.42-4.314 2.711-8.775 2.914-13.35-0.7532-2.525-3.181-3.228-1.85-5.98 2.198-1.901 3.502-6.832 2.991-9.85-0.3852-2.954-1.362-6.472-4.901-6.777-6.022-1.568-11.93 1.841-17.97 0.8852-3.117-0.1567-7.026 0.3004-9.103-2.579-2.368-3.529-5.572-6.668-9.713-7.966-2.63-0.6877-4.81-3.352-7.689-2.602z"/>
    <path fill="#6A462F" d="m21.87 41 0.6502 6.214 1.508 3.036-1.133 6.472-1.025 3.903 1.079 1.571 2.258-0.6175s1.876-1.641 1.876-2.016 2-7.188 2-7.188l-1.938-6.902-1.669-2.66-3.606-1.812z"/>
  </g>
  <g id="hair"/>
  <g id="skin"/>
  <g id="skin-shadow"/>
  <g id="line">
    <path fill="none" stroke="#000" stroke-linecap="round" stroke-linejoin="round" stroke-miterlimit="10" stroke-width="2" d="m16.31 22.62c-0.264 3.606-4.25 3.438-4.25 3.438l-1.571 1.736c-1.304 2.826-4.804 0.8261-4.804-1.236 1.508-3.415 3.062-5.75 3.062-5.75-0.125-2.792 3.312-4.625 3.312-4.625l-1.278-1.772c-0.4364-0.5685-0.0718-1.388 0.6417-1.455 1.253-0.1186 3.615-0.1459 4.574 1.977 0 0 8.865 0.9329 13.96 10.43 0.238 0.4441 9.877 2.308 16.07 0.4421 4.284-1.29 17.05-2.062 17.28 10.5 0.1169 6.406-1.252 15.1 2.998 19.52"/>
    <path fill="none" stroke="#000" stroke-linecap="round" stroke-linejoin="round" stroke-miterlimit="10" stroke-width="2" d="m59.19 37.02c-0.4424 1.631-1.221 3.426-2.589 4.642 0 0 1.096 4.786 3.172 6.804l-2.71 12.17-1.062 1.927c-0.3055 0.5545-0.8885 0.8989-1.522 0.8989v0c-1.252 0-2.096-1.276-1.594-2.423 0.968-2.212 2.16-5.956 2.389-11.3 0 0-6.722-6.584-6.104-12.48"/>
    <path fill="none" stroke="#000" stroke-linecap="round" stroke-linejoin="round" stroke-miterlimit="10" stroke-width="2" d="m17.78 27.49 2.668 5.633s-1.153 6.343 3.287 9.168l2.422 1.557 2.513 9.234 0.9167 6.833-0.4839 1.213c-0.4446 1.114 0.3761 2.325 1.576 2.325v0c0.7126 0 1.349-0.4454 1.594-1.115l0.7465-2.045c0.2401-0.6576 0.2986-1.368 0.1694-2.056l-1.331-7.089-0.1597-8.684s7.241 2.141 14.32-0.6019"/>
    <path fill="none" stroke="#000" stroke-linecap="round" stroke-linejoin="round" stroke-miterlimit="10" stroke-width="2" d="m23.51 47.21 0.6035 4.42-1.74 7.287-0.3672 0.9192c-0.482 1.207 0.4068 2.519 1.706 2.519h0c0.7335 0 1.397-0.4362 1.687-1.11l0.7899-1.831"/>
    <path fill="none" stroke="#000" stroke-linecap="round" stroke-linejoin="round" stroke-miterlimit="10" stroke-width="2" d="m48.9 60.26-1.452 1.652c-0.4179 0.4755-1.061 0.6861-1.68 0.5495v0c-1.223-0.2701-1.771-1.698-1.033-2.71 1.422-1.951 3.394-5.35 4.771-10.52 0 0-0.9047-2.133-1.716-4.966"/>
  </g>
</g>
  <g transform="translate(830.6709007300815, 579.6484601967809) scale(1 1) translate(0, 0) scale(1.7777777777777777 1.7777777777777777) "><g id="color">
    <path fill="#FFFFFF" stroke="none" d="M10.2544,20.6688l1.75,1.4167c0,0-7.6667,8-5.3333,13.5l4.1667-0.1667c0,0,1.8333-3.75,6.3333-4.75 l1,3.3333c0,0,4.1667,3.6667,4.3333,3.9167c0.1667,0.25,2.6667,4.1667,2.6667,4.1667l3.4167,1.6667l0.75,7.25l-1.1667,10l2.5,0.75 l1.25-0.6667l2.0833-16.5l3.75,0.3333l9.25-1.75l2.5833-3.4167l3.4167,4.75l1.9167,4.6667l-0.3333,6.25l-1.25,3.25l-0.8333,2 l1.5,0.75l1.6667-0.25l1.6667-3.5833l2.1667-9.25l-2.0833-4.3333l2.6667-4c0,0,2.3333-7.5-1.5833-11.6667s-8-3.5-8-3.5 l-7.8333,1.75c0,0-6.5833-0.0833-6.8333-0.0833s-4.9167-0.9167-4.9167-0.9167s0.5833-2.3333-1.75-4.0833 s-13.3333-4.9167-13.3333-4.9167S11.671,17.1688,10.2544,20.6688z"/>
    <path fill="#d0cfce" stroke="none" d="M49.5877,39.7521l-2.5833,3.4167l1.25,6.25l-4.5,10.6667c0,0,2.75,1.0833,3.0833,1.0833 s5.25-8.1667,5.25-8.1667s2.4167-4.8333,0.9167-8.5C51.5044,40.8355,49.5877,39.7521,49.5877,39.7521z"/>
    <path fill="#d0cfce" stroke="none" d="M13.2752,22.5855c0,0,3.4375-4.4375,17.0625,4.1667l0.5833-1.1667l-1.75-4.0833l-12.5-4.8333 c0,0-7.1149,0.8377-5.75,4.25C10.9627,21.023,13.2752,22.5855,13.2752,22.5855z"/>
  </g>
  <g id="hair"/>
  <g id="skin"/>
  <g id="skin-shadow"/>
  <g id="line">
    <path fill="none" stroke="#000000" stroke-linecap="round" stroke-linejoin="round" stroke-miterlimit="10" stroke-width="2" d="M18.1544,25.4082c0,0,1.3961,4.9702-2.513,6.0871s-4.8585,3.7416-4.8585,3.7416s-3.9092,1.8987-4.691-1.8987 s3.6858-8.3768,3.6858-8.3768l2.5689-2.5689l-1.9546-1.6754c0,0,2.8768-5.4202,8.2748-3.2422s10.6667,4.3604,10.6667,4.3604 s2.0563,1.7299,1.6654,4.1871c0,0,8.068,2.0936,17.8564-0.7505c1.3381-0.3888,2.7579-0.3941,4.1104-0.0589 c2.3706,0.5875,5.6294,2.1206,7.0727,6.1147c2.4013,6.6456-3.0156,12.6768-3.0156,12.6768l1.9546,4.6351l-1.5078,8.9911 l-1.8002,3.0923c-0.1983,0.3657-0.581,0.5935-0.997,0.5935h-1.0495c-0.8724,0-1.4182-0.9437-0.9831-1.6999l1.3675-2.3768 c1.2584-2.9501,1.3444-6.2662,0.2583-9.2841c-1.5204-4.2249-4.335-8.5601-4.335-8.5601s-3.0715,7.2894-12.7125,4.4197"/>
    <path fill="none" stroke="#000000" stroke-linecap="round" stroke-linejoin="round" stroke-miterlimit="10" stroke-width="2" d="M19.0934,33.6473c0,0,0.8495,1.464,2.0882,2.5242c1.1976,1.025,2.1398,2.3157,2.8434,3.7263 c0.8153,1.6348,2.2451,3.4701,4.6282,3.8275l0.6143,7.204c0,0-0.0317,6.342-0.943,9.2166 c-0.1843,0.5813,0.237,1.1707,0.8468,1.1706l1.9491,0c0.4895,0,0.8879-0.3939,0.8935-0.8834l0.4368-9.2245l0.7312-6.6456 c0,0-0.3909-4.4118,0.7818-6.0871"/>
    <path fill="none" stroke="#000000" stroke-linecap="round" stroke-linejoin="round" stroke-miterlimit="10" stroke-width="2" d="M47.1071,42.9513c0,0-0.9404,1.4675,1.153,6.7496c-0.8139,3.3558-1.8987,6.9806-4.4676,9.9404 c-0.3367,0.5956,0.2093,1.3403,0.8935,1.3403h1.3615c0.7774,0,1.4913-0.4289,1.8564-1.1152l0.8029-1.5095l2.4297-5.4235"/>
    <path fill="none" stroke="#000000" stroke-linecap="round" stroke-linejoin="round" stroke-miterlimit="10" stroke-width="2" d="M62.4291,27.2511c0,0,4.9702-1.452,3.1832,14.5756"/>
    <path fill="none" stroke="#000000" stroke-linecap="round" stroke-linejoin="round" stroke-miterlimit="10" stroke-width="2" d="M40.5017,26.6978c0,0,5.665,4.3043,1.9983,14.3043"/>
    <path fill="none" stroke="#000000" stroke-linecap="round" stroke-linejoin="round" stroke-miterlimit="10" stroke-width="2" d="M37.0914,43.8319c0,0,2.5452-6.7005,0.4651-12.6171"/>
    <path fill="none" stroke="#000000" stroke-linecap="round" stroke-linejoin="round" stroke-miterlimit="10" stroke-width="2" d="M47.4134,25.6578c0,0,3.6699,5.5943,1.0033,10.511"/>
    <path fill="none" stroke="#000000" stroke-linecap="round" stroke-linejoin="round" stroke-miterlimit="10" stroke-width="2" d="M24.9876,40.8241c0,0,2.8881-8.4483,0-13.9483"/>
  </g>
</g>
  <g transform="translate(757.7386661099708, 705.9707960683465) scale(1 1) translate(0, 0) scale(1.7777777777777777 1.7777777777777777) "><g id="color">
    <path fill="#9B9B9A" stroke="none" d="M24.421,22.0855l-3.5,2.8333l-1.8333-0.8333l-3.6667,4.1667l-2.5,2.1667l-1,3.8333l-2.1667-0.1667 c0,0-1.8333-1.5-0.3333-6.1667l-3,2.1667l-0.3333,7.8333l-1.5,4.5l3.8333,2.5l3.8333,0.1667l5-0.3333l3.6667-4.3333h2.8333 l1.6667,1.8333l4.3333,0.6667l4.1667,6.8333c0,0,0.8333,4.5,1,5c0.1667,0.5-0.5,3.6667-0.5,3.6667s1.5,0.6667,2.1667,0.6667 s3.6667-1.1667,3.6667-1.1667l-1-10.5c0,0,7.229,4.5277,13.0623-2.4723l2.1044-2.6943l2.5,4l-0.1667,3l1,2.8333l-2.3333,3.6667 l0.3333,1.1667l6.3333,0.6667l2.1667-7.1667l-0.6667-5.5l3.6667-6.8333c0,0,3.3333-10.8333-8.3333-18.5 c0,0-6.1667-1.5-6.6667-1.3333s-6.8333,2.1667-6.8333,2.1667l-7.6667,0.1667l-4-1.1667L24.421,22.0855z"/>
    <path fill="#3F3F3F" stroke="none" d="M24.3176,41.273l1.5625,5.875l3,3.5l0.5625,3.625c0,0-1.6875,3.5-1.5,3.6875 c0.1875,0.1875,2.875,1.5,2.875,1.5h4.375l-1.0625-2.75l1.0625-3c0,0-1.25-2.625-1.25-2.8125s-2.3125-4.375-2.3125-4.375 l-2.2708-3.6042C29.3593,42.9188,26.5051,43.523,24.3176,41.273z"/>
  </g>
  <g id="hair"/>
  <g id="skin"/>
  <g id="skin-shadow"/>
  <g id="line">
    <path fill="none" stroke="#000000" stroke-linecap="round" stroke-linejoin="round" stroke-miterlimit="10" stroke-width="2" d="M29.7551,43.0942l4.2252,7.1483l1.057,4.6127l-0.5631,1.9861c-0.2869,1.0119,0.4346,2.0286,1.4396,2.0286h2.8741 c0.9019,0,1.6005-0.8291,1.491-1.7697l-1.1762-10.1038c0,0,8.4451,5.7747,15.7737-5.2106"/>
    <path fill="none" stroke="#000000" stroke-linecap="round" stroke-linejoin="round" stroke-miterlimit="10" stroke-width="2" d="M18.9041,31.7483c5.1224-1.908,1.7838-7.7242,1.7838-7.7242c-3.3336-0.3844-4.7764,4.5933-4.7764,4.5933l-3.1805,1.9114 l-0.0941,2.8007c0,0-0.5627,2.5656-2.9388,1.7696"/>
    <path fill="none" stroke="#000000" stroke-linecap="round" stroke-linejoin="round" stroke-miterlimit="10" stroke-width="2" d="M20.0425,36.1389c0,0,1.7684,2.6797-0.5488,6.342c-2.7309,4.3161-7.7917,2.4656-7.7917,2.4656 c-2.6019,0.9823-6.22-1.324-6.22-1.324c-1.992-2.3918,0.8537-5.7232,0.8537-5.7232S4.1403,31.6209,8.531,27.8197"/>
    <path fill="none" stroke="#000000" stroke-linecap="round" stroke-linejoin="round" stroke-miterlimit="10" stroke-width="2" d="M21.5105,26.1052c0,0,5.5993-8.1508,13.7485-6.1869l0,0c0.671,0.4595,1.4575,0.7136,2.2704,0.7375 c2.5141,0.0742,8.1558,0.0726,11.4125-1.2355c1.418-0.5695,2.9023-0.9803,4.4303-0.9653c1.4896,0.0146,3.3543,0.2847,5.3462,1.176 c3.7001,1.6555,6.3883,4.9459,7.6749,8.7898c1.2832,3.8339,2.1646,9.523-1.4753,13.963l-1.7481,2.5626 c0,0-6.5046,4.9544-8.2934-3.1606c0,0-0.6911-5.4897,1.3416-11.5859"/>
    <path fill="none" stroke="#000000" stroke-linecap="round" stroke-linejoin="round" stroke-miterlimit="10" stroke-width="2" d="M37.8424,29.6135c2.878,4.6869,3.018,8.9749,0.497,13.4807c-2.0407-2.6033-5.4975-1.2656-5.4975-1.2656l-3.3336,1.3667 c-4.3093,0.1708-5.285-3.246-5.285-3.246l2.8458-12.8131l3.9028-2.3918"/>
    <path fill="none" stroke="#000000" stroke-linecap="round" stroke-linejoin="round" stroke-miterlimit="10" stroke-width="2" d="M57.6438,49.4242l0.1597,2.9965l-1.8365,2.7749c-0.752,1.1363,0.0219,2.692,1.3393,2.692h3.5225 c0.7152,0,1.3469-0.4894,1.5583-1.2072l1.9211-6.5234l-1.1383-5.2106"/>
    <path fill="none" stroke="#000000" stroke-linecap="round" stroke-linejoin="round" stroke-miterlimit="10" stroke-width="2" d="M27.1098,46.9288l2.6832,4.0533l-0.2033,3.7023l-1.0413,2.6797c-0.2318,0.5966,0.1859,1.2497,0.7992,1.2497h1.3804"/>
  </g>
</g>
  <g transform="translate(646.0, 799.7306695894642) scale(1 1) translate(0, 0) scale(1.7777777777777777 1.7777777777777777) "><g id="color">
    <path fill="#FFFFFF" stroke="none" d="M55.0252,31.0855l1.2292,9.9167c0,0-1,6.75,4.6667,3.8333l-1.6667-3.1667l1.0833-4.5833l-0.9167-4.1667 L55.0252,31.0855z"/>
    <path fill="#A57939" stroke="none" d="M17.7127,20.398l-10.375,5.625l0.625,2.1875c0,0,6.625,0.3125,7.25,1.6875s-2.375,13.8125,10.875,18.4375 l3.375,15.25c0,0-1.75,4.5625-1.5625,4.4375s2.875-0.0625,2.875-0.0625l1.875-5.5625l-0.25-7.8125l-0.5-5l4.3125,0.3125 l7.25-1.0625l4.3125-0.1875l2.75,4.375l-2.9375,10.8125l-2.6875,4.125h3.875l5.5-10.0625l1.25-3.75l-1.75-7.1875l3.3125-9.8125 c0,0,0.3125-3.5625-2.0625-6.0625s-13.25,0.5-13.25,0.5L30.2127,30.148l-4.3125,0.3125l-1.4375-2.5l-0.6875-2.8125 c0,0,3-0.125,3.1875-3.1875c0,0-3.375-2.75-6.5-0.1875C20.4627,21.773,17.9627,19.7105,17.7127,20.398z"/>
    <polygon fill="#6A462F" stroke="none" points="20.921,45.5855 22.0877,51.3355 23.8377,62.4188 21.921,67.8355 24.8377,67.8355 27.421,62.1688 27.3377,53.5021 26.0877,48.3355"/>
  </g>
  <g id="hair"/>
  <g id="skin"/>
  <g id="skin-shadow"/>
  <g id="line">
    <path fill="none" stroke="#000000" stroke-linecap="round" stroke-linejoin="round" stroke-miterlimit="10" stroke-width="2" d="M28.1685,67.0208l1.1788-3.4527L25.9181,48.107c-12.3235-3.8578-10.3927-17.6861-10.3927-17.6861 c-0.1921-1.7655-3.3238-1.8171-3.3238-1.8171l-2.6499,0.2126c-0.8005,0.0642-1.544-0.4182-1.8116-1.1753l-0.2103-0.595 c-0.2696-0.7629,0.0713-1.6072,0.795-1.969l9.0205-4.5102c0,0,2.2172-0.8563,3.168,1.5187c0,0,1.1184-2.6975,6.4764-0.5542 c0,0-0.4286,4.0721-5.1437,4.0721"/>
    <path fill="none" stroke="#000000" stroke-linecap="round" stroke-linejoin="round" stroke-miterlimit="10" stroke-width="2" d="M33.0263,39.7485l0.5358,5.6795c0,0-3.0005,3.0188-2.1432,9.0642"/>
    <polyline fill="none" stroke="#000000" stroke-linecap="round" stroke-linejoin="round" stroke-miterlimit="10" stroke-width="2" points="23.0964,51.1838 24.0608,62.6628 22.2391,66.8421"/>
    <path fill="none" stroke="#000000" stroke-linecap="round" stroke-linejoin="round" stroke-miterlimit="10" stroke-width="2" d="M23.7837,28.6554c0,0,0.671,3.2268,4.8768,1.8649c0.9554-0.3094,1.9838-0.2964,2.9608-0.064 c2.4541,0.5839,10.0605,1.4413,13.8729,0.783c0.5614-0.0969,1.1066-0.2553,1.637-0.4631c1.5592-0.6108,6.7173-2.1085,11.707,2.3083 c2.0034,1.7733,1.7879,4.751,1.0301,7.2283C59.8581,40.3464,59,43.023,60.4121,44.0855"/>
    <polyline fill="none" stroke="#000000" stroke-linecap="round" stroke-linejoin="round" stroke-miterlimit="10" stroke-width="2" points="47.6356,37.391 46.7784,46.5842 50.8505,53.2505 47.4678,63.8914 45.1174,67.0208"/>
    <path fill="none" stroke="#000000" stroke-linecap="round" stroke-linejoin="round" stroke-miterlimit="10" stroke-width="2" d="M56.125,37.391c0,0,0.9716,4.995-2.0778,9.7294c0,0,0.1072,3.88,1.3931,6.2375l-2.036,4.1551"/>
    <path fill="none" stroke="#000000" stroke-linecap="round" stroke-linejoin="round" stroke-miterlimit="10" stroke-width="2" d="M18.2026,20.2453c0,0,0.8573-4.1257,7.5548-2.4647c0,0,6.001,0.4822,7.9835-5.1437s-2.1788-7.698-2.1788-7.698"/>
    <path fill="none" stroke="#000000" stroke-linecap="round" stroke-linejoin="round" stroke-miterlimit="10" stroke-width="2" d="M37.8498,8.1547c0,0,2.8621,1.9342,0.2904,4.8651c-2.5013,2.8506-4.8487,2.0226-4.8487,2.0226"/>
    <path fill="none" stroke="#000000" stroke-linecap="round" stroke-linejoin="round" stroke-miterlimit="10" stroke-width="2" d="M14.5055,11.0295c0,0-1.2151,4.9964,1.2859,6.9654s2.4111,2.5629,2.4111,2.5629"/>
    <path fill="none" stroke="#000000" stroke-linecap="round" stroke-linejoin="round" stroke-miterlimit="10" stroke-width="2" d="M27.847,10.6544c0,0-1.3159,1.711,0.1307,4.1802c0,0,0.6376,1.6171-0.6575,2.8709"/>
    <path fill="none" stroke="#000000" stroke-linecap="round" stroke-linejoin="round" stroke-miterlimit="10" stroke-width="2" d="M20.5065,17.7055c0,0-1.9289-2.3896,0.6965-5.015"/>
    <path fill="none" stroke="#000000" stroke-linecap="round" stroke-linejoin="round" stroke-miterlimit="10" stroke-width="2" d="M36.24,48.9236c4.753,0.5107,8.8861,0.5288,11.6242-0.5618"/>
  </g>
</g>
  <g transform="translate(508.93223462011076, 849.6192562651274) scale(1 1) translate(0, 0) scale(1.7777777777777777 1.7777777777777777) "><g id="color">
    <path fill="#a57939" d="M11.3922,31.7927a8.1054,8.1054,0,0,0,1.0984,3.4817,7.9042,7.9042,0,0,1,.4561,6.7451,5.5677,5.5677,0,0,0-.1055,5.21v7.27a2.5032,2.5032,0,0,0,2.5,2.501h3.1162a1,1,0,0,0,.9991-.9619c.0107-.2686.0664-2.669-1.1709-3.9551a2.599,2.599,0,0,0-.9131-.62v-3.624c1.1328-.8155,3.9883-3.11,4.8955-6.0967a11.3837,11.3837,0,0,0,6.2558,1.97c4.5606,0,8.4033-3.9813,8.4336-4.2109.33-2.5035,1.3-3.3047,1.14-3.833C36.4036,30.08,31.2733,24.0108,28.5738,21.09l-2.4679.3068C23.4,22.13,17,24.16,12.3782,27.9849,12.3782,27.9849,11.3922,29.043,11.3922,31.7927Z"/>
    <path fill="#6a462f" d="M46.5793,38.987c.2176-.1511.4292-.2939.6252-.4206l.0056-.0055c.4334-.2823.856-.54,1.2473-.763v7.59a1,1,0,0,0,1.7071.707c3.3134-3.3135,5.957-4.1992,7.5918-4.3584a4.81,4.81,0,0,0,4.0927-3.1054l2.6582-7.1719a5.7884,5.7884,0,0,0-.7636-5.4531L61.2592,22.623a4.1907,4.1907,0,0,0-3.3662-1.705l-4.98-.003c-3.4981-4.3379-11.9616-10.7274-27.6589-2.6356a.9993.9993,0,0,0-.25,1.5947c.0772.0781,8.1247,8.6093,11.06,16.0722-.9991,2.5185-2.09,6.915.3652,10.5849,2.0889,3.1211,2.13,9.4991,2.13,9.5626a1,1,0,0,0,1,.998h8.583a1,1,0,0,0,1-1c0-2.5322-.5928-4.3594-1.7608-5.4316a3.5456,3.5456,0,0,0-1.59-.8545l-1.3477-4.4063a9.7222,9.7222,0,0,0,2.13-6.41l.0042-.0029"/>
    <path fill="#6a462f" d="M26.4291,57H22.2162a1,1,0,0,1-.99-.8613c-.25-1.7891-.9229-4.63-1.6348-5.3418-1.4541-1.4541-2.0449-4.6328-2.1074-4.9912a.858.858,0,0,1,.2783-.8789A6.8691,6.8691,0,0,0,20.67,39.81a1,1,0,0,1,1.89-.0625,14.7308,14.7308,0,0,0,3.0224,1.44,1,1,0,0,1,.6514.9375c0,2.4385-1.9746,4.752-2.9522,5.748l1.459,3.4483a2.9848,2.9848,0,0,1,1.7051.9512,5.4017,5.4017,0,0,1,.9766,3.8427A.9994.9994,0,0,1,26.4291,57ZM22.6254,40.1025v0Z"/>
    <path fill="#3f3f3f" d="M63.7436,26.0059,61.2592,22.623a4.1907,4.1907,0,0,0-3.3662-1.705l-5.4658-.003h-.001c-.0139,0-.0254.0074-.0393.008a1.1925,1.1925,0,0,0-.6914.32c-.0086.0093-.0208.013-.0291.0227a11.3506,11.3506,0,0,0-1.6044,2.8565,3.404,3.404,0,0,1-1.6966-1.7554,1.0135,1.0135,0,0,0-1.0166-.59,1,1,0,0,0-.875.7851c-.051.2351-1.0817,5.3088,2.081,7.7528a32.6211,32.6211,0,0,0-.0974,5.8476v9.2253a1,1,0,0,0,1.7071.707c3.3134-3.3135,5.957-4.1992,7.5918-4.3584a4.81,4.81,0,0,0,4.0927-3.1054l2.6582-7.1719A5.7884,5.7884,0,0,0,63.7436,26.0059Z"/>
  </g>
  <g id="line">
    <path fill="none" stroke="#000" stroke-linecap="round" stroke-linejoin="round" stroke-width="2" d="M12.7288,33.3849a8.5288,8.5288,0,0,0,.634,1.4,8.9671,8.9671,0,0,1,.4782,7.6845,4.5549,4.5549,0,0,0,0,4.485V54.5A1.5005,1.5005,0,0,0,15.3415,56h3.116s.1438-3.7251-2.0851-3.7251V47.3138s5.1768-3.3074,5.1768-7.4057a10.6935,10.6935,0,0,0,6.9744,2.8041A8.92,8.92,0,0,0,32.79,41.4837"/>
    <path fill="none" stroke="#000" stroke-linecap="round" stroke-linejoin="round" stroke-width="2" d="M19.4154,48.73a4.78,4.78,0,0,0,.8825,1.36C21.57,51.3621,22.2166,56,22.2166,56h4.2128s.4348-3.7412-2.3784-3.7412l-1.9585-4.63S25.234,44.88,25.234,42.1253"/>
    <path fill="none" stroke="#000" stroke-linecap="round" stroke-linejoin="round" stroke-width="2" d="M27.5971,22.0525S4.5159,27.1421,8.6193,41.03"/>
    <path fill="none" stroke="#000" stroke-linecap="round" stroke-linejoin="round" stroke-width="2" d="M49.4575,36.1544v9.2331c3.4941-3.4942,6.3579-4.4669,8.2011-4.6467a3.8288,3.8288,0,0,0,3.2526-2.4574L63.57,31.1109a4.8041,4.8041,0,0,0-.6324-4.5133l-2.4844-3.383a3.1777,3.1777,0,0,0-2.5612-1.2967l-5.4661-.0027c-3.436-4.529-11.4876-10.5947-26.7-2.7541"/>
    <path fill="none" stroke="#000" stroke-linecap="round" stroke-linejoin="round" stroke-width="2" d="M38.1329,33.9789a15.277,15.277,0,0,0-.9928,1.9787c-1.02,2.4154-2.1653,6.6.1209,10.0169S39.56,56.0923,39.56,56.0923h5.4665c.0041-3.7518-2.3121-3.8816-2.3121-3.8816l-1.8707-6.8232c0-3.2753,3.3023-6.0344,5.8175-7.6608"/>
    <path fill="none" stroke="#000" stroke-linecap="round" stroke-linejoin="round" stroke-width="2" d="M51.8065,25.5027a4.6449,4.6449,0,0,1-4.3549-2.731s-1.1809,5.5021,2.51,7.2536"/>
    <path fill="none" stroke="#000" stroke-linecap="round" stroke-linejoin="round" stroke-width="2" d="M44.9647,56.0923h3.1778c0-5.6393-3.1159-5.3716-3.1159-5.3716l-1.2792-5.6851"/>
  </g>
</g>
  <g transform="translate(363.06776537988924, 849.6192562651274) scale(1 1) translate(0, 0) scale(1.7777777777777777 1.7777777777777777) "><g id="color">
    <path fill="#FFFFFF" stroke="none" d="M18.171,25.1667l-0.2068-0.1171l-2.6682-1.5114l-3.2982,0.9914c0,0-3.2623,4.3446-3.3309,4.4526 c-0.0686,0.1079-2.4959,4.2768-2.4959,4.2768l0.767,2.685c0,0,4.733,1.7356,9.8163,0c0,0,4.5631,3.0063,4.1982,7.2812 c0,0,5.4684-0.9435,5.4684,3.2749c0,0.2083-0.3377,7.4825-0.3377,7.4825l0.6294,2.9181h2.875l2.5417-12.0872L35.7475,45.5 l12.5068-0.6866l3.5417-1.4801l1.5,3.1667l-1.7945,7.8149l2.2529,2.2267l3.0417-2.9583c0,0-0.8399,3.5834,2.3077,3.1527 c2.7083-0.3705,2.8056-1.6944,2.8056-1.6944L62.2127,48.5l-0.3034-2.6771l-2.8216-3.0312l1.5-9.5328c0,0-1-8.3493-2.875-9.7208 L32.581,22.9373l-8.7017,1.0211L18.171,25.1667z"/>
    <path fill="#A57939" stroke="none" d="M23.2816,22.9373l-6.0445,2.06c0,0-5.4553,1.8146-5.4652,6.8653s3.5658,4.9708,3.5658,4.9708l2.8962,0.0001 c0,0,2.2519,2.4633,2.5528,5.6066c0.3009,3.1433,4.0287,3.3829,4.0287,3.3829l1.6805,1.7614l-0.2432,5.548l-0.5084,2.5512 l1.5934,0.8582l2.4922-0.7044l2.7511-11.4557l0.59-4.6421c0,0-1.1667-7.5652-1.25-8.194c-0.0833-0.6288-0.8402-6.192-1.9201-8.3271 L23.2816,22.9373z"/>
    <path fill="#A57939" stroke="none" d="M40.0877,22.9373c0,0,5,4.1461,4.9167,12.4794c-0.0833,8.3333,6.9142,8.1912,6.9142,8.1912l0.9635,3.8442 l-1.3407,5.7585l1.1037,2.4729l2.3928-0.4537l3.5095-9.4069c0,0,1.983-6.2935,1.5564-6.5125 c-0.4267-0.219,0.484-6.3937,0.484-6.3937s0.0053-7.1371-3.414-9.3602L40.0877,22.9373z"/>
  </g>
  <g id="hair"/>
  <g id="skin"/>
  <g id="skin-shadow"/>
  <g id="line">
    <path fill="none" stroke="#000000" stroke-linecap="round" stroke-linejoin="round" stroke-miterlimit="10" stroke-width="2" d="M59.8526,33.2589c0.5483,2.1777,0.198,5.6858-1.0426,8.387l-0.8143,5.1605l-2.5058,7.6663 c-0.2665,0.8154-1.0078,1.3645-1.842,1.3645h-0.2583c-1.3215,0-2.2578-1.3307-1.8481-2.6267l1.6269-6.9876 c0,0-4.1332-7.6611-2.9994-11.2117"/>
    <path fill="none" stroke="#000000" stroke-linecap="round" stroke-linejoin="round" stroke-miterlimit="10" stroke-width="2" d="M31.0503,31.8625l1.5307,8.1589L30.0448,55.148c-0.1241,0.9835-0.9267,1.7256-1.888,1.7458l-0.3071,0.0065 c-1.3326,0.028-2.2977-1.2976-1.8918-2.6071c0.826-2.6646,0.9821-6.9715-0.2413-9.9115c-1.3972-3.3576-0.753-4.9584-0.753-4.9584"/>
    <path fill="none" stroke="#000000" stroke-linecap="round" stroke-linejoin="round" stroke-miterlimit="10" stroke-width="2" d="M35.7475,44.5012c0,0,12.0966,1.3113,15.3787-1.4411"/>
    <path fill="none" stroke="#000000" stroke-linecap="round" stroke-linejoin="round" stroke-miterlimit="10" stroke-width="2" d="M65.1997,44.3816c0,0-2.1681-3.6663-1.239-9.2472c1.7192-10.3271-6.4472-11.4468-6.4472-11.4468l-0.3398-0.1311L32.581,22.9373 l-9.2994,1.0134"/>
    <path fill="none" stroke="#000000" stroke-linecap="round" stroke-linejoin="round" stroke-miterlimit="10" stroke-width="2" d="M58.7561,41.9871l3.1531,3.8358l-0.0649,8.3475c0,0.9206-0.7235,1.6669-1.616,1.6669h-1.681"/>
    <path fill="none" stroke="#000000" stroke-linecap="round" stroke-linejoin="round" stroke-miterlimit="10" stroke-width="2" d="M7.79,22.2691c1.9909,2.5381,3.9819,2.5381,3.9819,2.5381"/>
    <path fill="none" stroke="#000000" stroke-linecap="round" stroke-linejoin="round" stroke-miterlimit="10" stroke-width="2" d="M18.9754,20.6949c1.4174,2.8432-1.7383,4.3023-1.7383,4.3023s-2.717-3.7782-5.4652-0.19l-2.0612,2.4996 c0,0-2.1109,3.471-3.5898,5.4622c-0.4114,0.554,0.3304,2.4246,0.6856,3.0185c0.6608,1.105,5.3525,1.7864,9.723,0.2124 c0,0,3.6456,0.3266,4.3312,7.0608c0.1304,1.2807,2.7376,3.0159,4.8836,2.731"/>
    <path fill="none" stroke="#000000" stroke-linecap="round" stroke-linejoin="round" stroke-miterlimit="10" stroke-width="2" d="M18.654,31.5053c4.7561,1.5524,4.9952-2.4579,4.9952-2.4579v-0.2588c-2.3138-2.7598-4.4562-0.7762-4.4562-0.7762"/>
  </g>
</g>
  <g transform="translate(226.0000000000001, 799.7306695894642) scale(1 1) translate(0, 0) scale(1.7777777777777777 1.7777777777777777) "><g id="color">
    <path fill="#3F3F3F" stroke="none" d="M9.688,27.1572L6.5034,31.962l0.0057,2.7046l3.8508,1.7982l5.5418-1.9082c0,0,1.8526,6.0554,6.2693,7.041 l5.2916,0.4648l0.7084,6.5781l-0.4025,5.2298l1.8966,2.4718l1.9312-1.2136l1.5715-7.1295l0.4289-6.4013l7.0751-0.1308 l6.0714,0.7325l2.0944,1.3285l5.3196-3.8355l2.451,5.6017l-0.2514,8.6226l1.5641,2.345h2.25l1.75-1.4283l0.4348-10.0293 c0,0-1.103-3.5452-1.1582-3.7649s1.1582-11.8724,1.1582-11.8724s1.6848-5.0349,0-7.1424s-8.9295-1.9046-8.9295-1.9046 l-13.9872,0.0612c0,0-7.6848-2.1243-10.9348,0.5141l-2.2865-0.3616l-1.892,2.4167l-4.4785-1.0333L16.0272,20l-5.32,1.5836 L9.688,27.1572z"/>
    <path fill="#3F3F3F" stroke="none" d="M39.796,41.0391l-1.7683,13.283c0,0-1.315,1.6779-1.5233,1.6362c-0.2083-0.0417-1.693,0.5833-1.693,0.5833 s-2.7237-0.0417-3.057-1.2083l1.375-5.75l0.371-6.5463l1.6435-1.8287L39.796,41.0391z"/>
    <path fill="#9B9B9A" stroke="none" d="M9.2127,16.625c-0.7838-0.3971-2.748,0.2718-4,2.0833c-2.0867,3.0193-1.3098,7.7014,5.25,6.0417 c0,0,2.0417-3.6667,7.467-0.6992c0,0,5.8915,5.0326,9.908-0.8073C28.5049,22,29.421,16.1052,24.1294,16.125l1.8054,4.5699 l-2.0138,2.1384c0,0-3.6889-1.2917-4.0736-1.375c-0.3847-0.0833-3.5891-1.2083-3.8202-1.2083s-3.1062,0.4583-3.5228,0.8333 S9.8377,22.262,9.171,22.25c-0.6667-0.012-2.45-0.1259-2.45-0.1259s0.7834-2.9158,0.7-3.0825 C7.3377,18.875,9.2127,16.625,9.2127,16.625z"/>
  </g>
  <g id="hair"/>
  <g id="skin"/>
  <g id="skin-shadow"/>
  <g id="line">
    <path fill="none" stroke="#000000" stroke-linecap="round" stroke-linejoin="round" stroke-miterlimit="10" stroke-width="2" d="M8.9109,17.5549c0,0-3.968,3.5483-1.7036,5.0512c0.9172,0.6087,2.9356-0.4136,3.4998-1.0225 c0.8495-0.9168,3.7525-3.6489,8.2239-0.3394c1.174,0.8689,2.6347,2.5625,5.0689,1.3867c1.5162-0.7324,3.6398-3.5863,0.2605-5.5297"/>
    <path fill="none" stroke="#000000" stroke-linecap="round" stroke-linejoin="round" stroke-miterlimit="10" stroke-width="2" d="M19.1534,26.5124c0,0,2.3202-0.7013,4.6678,1.5608c0,0,0.0058,3.0133-4.5349,3.029"/>
    <path fill="none" stroke="#000000" stroke-linecap="round" stroke-linejoin="round" stroke-miterlimit="10" stroke-width="2" d="M29.1683,20.4855c0,0,2.6885-2.5698,9.6703-0.8573c5.3092,1.3022,12.4973,0.3827,15.6368-0.1326 c1.0363-0.1701,11.7128,0.2626,11.0173,9.2837c-0.4897,6.352-1.9217,11.048,0.7569,14.3853"/>
    <path fill="none" stroke="#000000" stroke-linecap="round" stroke-linejoin="round" stroke-miterlimit="10" stroke-width="2" d="M27.3372,41.0565c-3.3251,0.4223-5.8873,0.4044-7.6501-0.8123c-1.8748-1.577-2.9481-3.5708-3.7853-5.6875 c-1.6255,1.1176-6.5272,1.9792-7.785,1.3629c-2.6033-1.2755-1.6134-3.9576-1.6134-3.9576l4.1212-6.2179"/>
    <path fill="none" stroke="#000000" stroke-linecap="round" stroke-linejoin="round" stroke-miterlimit="10" stroke-width="2" d="M34.5837,27.6133l0.4346,9.4476c0,0-2.7664,4.918-1.976,10.4948l-1.466,6.7936c-0.1951,0.9041-0.9947,1.5495-1.9196,1.5495 h-0.1172c-1.2916,0-2.2456-1.2282-1.8966-2.4718c0.6333-2.2561,1.2656-5.7606,0.4971-9.2444 c-1.5235-6.9057-0.411-8.5966-0.411-8.5966"/>
    <path fill="none" stroke="#000000" stroke-linecap="round" stroke-linejoin="round" stroke-miterlimit="10" stroke-width="2" d="M33.4376,41.2899c0,0,10.4948-1.1991,15.5445,1.3039c0,0,3.1177-3.6885,5.0498-3.9959"/>
    <path fill="none" stroke="#000000" stroke-linecap="round" stroke-linejoin="round" stroke-miterlimit="10" stroke-width="2" d="M50.2325,30.1022c0,0,5.3842,11.0864,5.9989,13.0624c0.487,1.5655,0.4278,7.9893,0.4355,10.4924 c0.0093,3.0265,4.3664,2.6583,4.4853,0.2332c0.0937-1.9102,0.3043-5.6929,0.9117-8.5278 c0.1792-0.8364,0.2995-1.6849-0.1053-2.4384c-0.94-1.7497-1.8987-5.1703-0.9868-9.6829c0.8332-4.1227,0.7776-5.066,0.7776-5.066"/>
    <path fill="none" stroke="#000000" stroke-linecap="round" stroke-linejoin="round" stroke-miterlimit="10" stroke-width="2" d="M39.3137,41.1544c0,0-1.3498,10.3292-1.4115,12.7244c-0.0191,0.7432-0.9928,1.3614-1.7362,1.3614h-1.1477"/>
  </g>
</g>
  <g transform="translate(114.26133389002928, 705.9707960683465) scale(1 1) translate(0, 0) scale(1.7777777777777777 1.7777777777777777) "><g id="color">
    <path fill="#D0CFCE" stroke="none" d="M10.7127,17.125l-3.1478,2.7497l-2.747,3.9321v2.5057l2.6453,1.0866l4.8374-0.7267l1.9397,3.1378 l0.6091,2.8132c0,0,1.0894,2.1144,3.5389,3.4955c0,0-1.6761,2.0945,1.3867,4.0503l0.6461,3.6836l4.1076,0.7031L23.0574,59 l2.4692,2.794l4.118-0.7253h1.7352l0.9624-1.6004l-0.3379-13.9138l3.9579,0.571l5.2088,0.2623l3.9121-0.8334l3.153,0.1126 l6.4305-1.2506l3.0833,5l0.0134,10.0995l1.2663,2.1509l2.6031-1.5836l1.301-10.2965l-1.26-3.399l-0.9145-5.6454l1.7764-4.0802 l-0.4634-3.4689l0.8615-4.234l-2.3462-2.0844L58.83,24.0861l-3.1634-0.5027l-3.329-1.75l-4.625,1.0417l-2.9583-1.0417 L41.1716,22.29c0,0-3.6047-0.71-5.6568,0c0,0-3.8854-1.915-5.5938-0.54c0,0-6.0477,0.3598-6.8636,1.1791 c0,0-1.1343-1.5616-3.3426-1.0498l0.7062-3.7543c0,0-2.0328-3.625-5.7935-1.7833C12.1508,17.5546,10.7127,17.125,10.7127,17.125z"/>
    <path fill="#FFFFFF" stroke="none" d="M9.7922,18.1866c0,0,4.3788,0.4801,6.1288,3.5634l2.5891,0.54l1.9109-2.0517l-0.9167-4.1634h-3.75 L11.944,16.977L9.7922,18.1866z"/>
    <path fill="#FFFFFF" stroke="none" d="M19.0044,22.29c0,0,1.3297,6.8052-4.3768,8.716L15.1066,34.5l2.6988,1.0851l-0.3844,2.7482l2.3539,1.8359 v2.7475c0,0,7.0206,1.1253,7.5029,4.6269c0,0,3.4766-3.6843,4.7266-1.9889l3,0.8334l3.0429-0.8334l3.1238,0.8334h3.5l5.5-0.8334 c0,0,4.0182,0.7201,4.4956-1.1379c0,0,3.6773-3.7112,6.3408-0.5639l-0.2482-3.1102l1.7764-4.0802l-0.4634-3.4689l0.8866-2.7768 l-2.6686-3.0317L58.83,24.0861l-3.1634-0.5027l-3.329-1.75l-4.0833,0.8333l-3.5-0.8333l-2.4131,0.777l-2.8369-0.777L35.5148,22.29 l-2.5938-1.1902l-3,0.6502l-3.6667-1.0833L22.5877,22.29C22.5877,22.29,21.8377,20.4132,19.0044,22.29z"/>
  </g>
  <g id="hair"/>
  <g id="skin"/>
  <g id="skin-shadow"/>
  <g id="line">
    <path fill="none" stroke="#000000" stroke-linecap="round" stroke-linejoin="round" stroke-miterlimit="10" stroke-width="2" d="M23.0574,22.9291c0,0,3.6604-3.4572,6.1926-0.8662c0,0,4.3429-1.8549,6.5,0.4371c0,0,3.8325-1.7757,6.0833,0.4167 c0,0,3.5093-2.5403,6.4167,0.25c0,0,4.25-2.5,7.4167,0.4167c0,0,4.5833-1,4.6237,3.8016c0,0,3.7514,2.1213,1.7819,5.8085 c0,0,1.761,3.9732-1.313,7.5491c0,0-0.0759,4.7775,1.6838,7.043c0.4358,0.5611,0.5798,1.2965,0.4908,2.0014l-1.301,10.2965 c-0.1235,0.9776-0.955,1.7106-1.9403,1.7106h0c-1.2088,0-2.1281-1.0856-1.9291-2.2779L57.75,49.4167c0,0-1.489-3.3059-3.0833-5 c0,0-1.7853-0.5603-3.3797-2.5534"/>
    <path fill="none" stroke="#000000" stroke-linecap="round" stroke-linejoin="round" stroke-miterlimit="10" stroke-width="2" d="M31.5833,40.1194c0.9911,1.8333,0.7589,6.2567,0.7589,6.2567v13.0923c0,1.0092-0.8181,1.8274-1.8274,1.8274h0 c-0.9342,0-1.7179-0.7046-1.817-1.6334l-0.8573-8.033l-0.5627-4.0858c-1.5944-3.3882-4.5955-3.5875-4.5955-3.5875 c-3.4701-0.1993-2.9074-3.7868-2.9074-3.7868c-2.9074-0.7972-1.9695-4.5841-1.9695-4.5841C14,34.9167,14.6667,30.5,14.6667,30.5 l-2.3661-3.8276c-0.967-0.1323-1.955-0.0498-2.8468,0.3467c-0.4923,0.2189-1.1527,0.3952-1.9906,0.38 C6.1865,27.376,5.4102,26.96,4.9383,26.4601c-0.678-0.7181-0.686-1.8437-0.1204-2.6533l2.747-3.9321l2.5328-1.9197 c1.13-0.8565,2.5091-1.32,3.927-1.32h0.5971c0,0,5.6119-2.26,5.5628,2.2991c-0.051,4.742-3.562,3.2397-3.562,3.2397"/>
    <path fill="none" stroke="#000000" stroke-linecap="round" stroke-linejoin="round" stroke-miterlimit="10" stroke-width="2" d="M35.3333,45.5546c0,0,0.9167,0.8215,2.9492-0.0979c0.2007,0.0096,4.6708,2.1931,6.3774-0.1599c0,0,2.2509,1.7544,4.6893-0.3384"/>
    <path fill="none" stroke="#000000" stroke-linecap="round" stroke-linejoin="round" stroke-miterlimit="10" stroke-width="2" d="M24.2766,45.5546c-0.0857,0.8158,0.5325,5.0353-0.7205,12.9143c-0.1937,1.2178,0.7374,2.3286,1.9705,2.3286"/>
    <path fill="none" stroke="#000000" stroke-linecap="round" stroke-linejoin="round" stroke-miterlimit="10" stroke-width="2" d="M64.7288,27.3849c0.3751,0.3276,3.939-2.1638,1.313,17.468"/>
  </g>
</g>
  <g transform="translate(41.329099269918515, 579.6484601967809) scale(1 1) translate(0, 0) scale(1.7777777777777777 1.7777777777777777) "><g id="color">
    <path fill="#A57939" stroke="none" d="M14.9052,16.5687c0,0-4.0263-2.1683-5.1407-0.4195l1.6065,2.5221l-4.0225,3.9723L6.612,24.9252 l0.9757,1.7853l2.8661-0.1759l1.1085,1.2019l-0.5683,4.6614c0,0,4.5938,0.25,2.7188-6.6493h2.2324l0.1963,2.1493l0.6417,3.4545 c0,0,0.8915,3.8863,1.5478,3.7955c0.6563-0.0908,3.1319,2.4,3.1319,2.4l0.684,3.9778l3.161,3.4406 c0,0,3.4359,11.6563,2.4673,14.5658c-0.9687,2.9096-0.7567,3.3723-0.7567,3.3723l2.5692,0.681l2.1608-4.4433l-0.8899-14.8962 c0,0,6.9504,5.9571,15.246,1.3046c0,0,0.5321,5.4073,2.4139,6.3462l-1.1489,6.8721l-1.9903,3.5042l1.396,0.9868l1.8119-0.3503 l3.0314-6.0352l1.1038-10.9629l1.178-2.5774l5.3749-7.1527c0,0,0.2703-2.5759-1.3092-4.0424 c-1.5795-1.4665-6.5838-3.8558-6.5838-3.8558l-12.6695-0.635l-11.375,1.5l-6.375-10.25l-2.6317-2.125 C18.3309,16.773,15.5352,16.177,14.9052,16.5687z"/>
    <path fill="#6A462F" stroke="none" d="M59.2752,36.1811c0,0-1.7636,7.4875-2.3125,10.3392c-0.3333,1.7317-0.6959,3.819-0.6959,3.819l1.1475,1.996 l-4.25,11.6875c0,0-3.8266,0.5271-4.3891-0.7632l3.1059-4.6743l0.4566-5.5625l0.4375-7.6875l1.1251-2.0016L59.2752,36.1811z"/>
    <path fill="#6A462F" stroke="none" d="M14.5877,17.9605l3.3466-3.9634l5.2479-0.5321l4.2805,3.7455c0,0-6.75-4.375-9.1317,1.4375L14.5877,17.9605 z"/>
    <polygon fill="#6A462F" stroke="none" points="26.4002,48.5855 31.0252,49.273 31.8377,57.7105 29.8416,63.0633 26.4002,63.0633 28.1502,58.3355"/>
    <polygon fill="#6A462F" stroke="none" points="52.3377,53.023 48.4002,53.523 46.9159,59.5674 45.3792,62.273 45.7934,63.0633 48.1502,63.5855 50.8997,59.059"/>
    <path fill="#6A462F" stroke="none" d="M64.9627,26.5021c0,0,1.9578,10.3429-5.8128,10.2131c0,0-0.0556-3.1065-1.1839-4.5765l2.4679-2.5651 c0,0,1.7521-2.2515,1.8614-2.3229S64.9627,26.5021,64.9627,26.5021z"/>
  </g>
  <g id="hair"/>
  <g id="skin"/>
  <g id="skin-shadow"/>
  <g id="line">
    <path fill="none" stroke="#000000" stroke-linecap="round" stroke-linejoin="round" stroke-miterlimit="10" stroke-width="2" d="M10.9522,31.3524c2.1772-4.1292-0.8258-4.955-0.8258-4.955c-1.7268,0.8258-2.7778-0.3003-2.7778-0.3003 c-1.8018-1.7267,0-3.4535,0-3.4535c4.0541-2.8529,4.0225-3.9723,4.0225-3.9723l-1.7276-2.7122c0,0,2.4349-2.3246,4.9124,1.0538 c0,0,5.931-8.4085,12.4626-0.6006"/>
    <path fill="none" stroke="#000000" stroke-linecap="round" stroke-linejoin="round" stroke-miterlimit="10" stroke-width="2" d="M13.9559,25.7358c0,0,3.9033,0.4364,3.9784-3.7678"/>
    <path fill="none" stroke="#000000" stroke-linecap="round" stroke-linejoin="round" stroke-miterlimit="10" stroke-width="2" d="M18.3309,17.7091c0,0,2.2921,0.3123,3.875,3.875c0.7891,1.7761,4.4163,7.4998,4.8126,7.7292c0,0,25.5259-5.6186,30.556,2.7899 c0,0,1.7267,0.5255,2.7778-2.3274c1.0511-2.8529,3.6037-3.2283,3.6037-3.2283"/>
    <path fill="none" stroke="#000000" stroke-linecap="round" stroke-linejoin="round" stroke-miterlimit="10" stroke-width="2" d="M46.4012,45.3935c-8.9341,4.8799-15.5538-1.3532-15.5538-1.3532l0.4836,8.8965l0.5,6.0223l-1.672,3.7114 c-0.1616,0.3586-0.5184,0.5892-0.9117,0.5892H27.783c-0.7366,0-1.2204-0.7694-0.9013-1.4333l1.1632-2.9869 c0,0-0.0504-1.736-0.5009-5.4147s-2.3274-8.7088-2.3274-8.7088c-4.5046-2.5526-3.7538-7.168-3.7538-7.168 C15.7571,33.3966,16.147,25.232,16.147,25.232"/>
    <path fill="none" stroke="#000000" stroke-linecap="round" stroke-linejoin="round" stroke-miterlimit="10" stroke-width="2" d="M48.678,39.1979c0,0-5.0582,6.4486-0.1595,12.6987c0,0,0.1019,5.4161-1.8125,8.0625l-1.1586,1.7482 c-0.4405,0.6647,0.0361,1.5524,0.8336,1.5524h1.4454c0.2941,0,0.5696-0.1269,0.7608-0.3503 c0.9164-1.0706,3.4939-4.5506,3.4939-9.8253c0-5.2399,1.0453-9.0438,1.0453-9.0438c5.0676-4.4483,5.2568-7.8591,5.2568-7.8591"/>
    <path fill="none" stroke="#000000" stroke-linecap="round" stroke-linejoin="round" stroke-miterlimit="10" stroke-width="2" d="M56.0393,46.5204c0,0-1.065,3.2324,1.375,5.3345l-4.25,11.2083"/>
  </g>
</g>
  <g transform="translate(16.0, 436.00000000000006) scale(1 1) translate(0, 0) scale(1.7777777777777777 1.7777777777777777) "><g id="color">
    <path fill="#F4AA41" stroke="none" d="M19.8794,8.1271l0.3333,3.8333l-3,1.125l-2.875,2.875l-0.75,2.125l6.5-1c0,0,4.625,13.125,12.125,16.25 c0,0-1.625,6.375,1.625,8.875l0.75,11.375l-2.875,10.5l-2,3.2083l2.3869,0.0295c0.6228,0.0077,1.2137-0.2752,1.5982-0.7653 l1.2349-1.5739c0.1844-0.235,0.3138-0.5083,0.3787-0.7999l2.2286-10.009c0.0318-0.1427,0.0478-0.2885,0.0478-0.4347v-10.905 l1.5,1.625l3.5,9.25l1.75,10.375l-1.3333,3.1667l1.9224-0.1039c0.7177-0.0388,1.3595-0.4598,1.6809-1.1027l0.7958-1.5917 c0.2003-0.4006,0.2603-0.8569,0.1705-1.2957l-1.972-9.6281c-0.0095-0.0464-0.0206-0.0924-0.0334-0.138l-2.6059-9.3066l3.125-0.875 l3-1.25c0,0,3.625,7.375,6.5,7.875l1,13.5l-1,3.875l1.1357-0.036c0.8837-0.0281,1.6441-0.633,1.8701-1.4878l0.4863-1.8395 c0.0603-0.2282,0.0798-0.4653,0.0575-0.7002l-1.2758-13.4353c-0.0158-0.1667-0.0525-0.3308-0.1093-0.4884l-1.0396-2.8877 l-1.625-8.5l-1.125-3.625l-3.625-3.125l-7-0.5l-5.875-3.875c0,0-8.1667-0.7917-13.9167-13.5417 C23.546,13.1688,23.1294,7.2521,19.8794,8.1271z"/>
  </g>
  <g id="hair"/>
  <g id="skin"/>
  <g id="skin-shadow"/>
  <g id="line">
    <path fill="none" stroke="#000000" stroke-linecap="round" stroke-linejoin="round" stroke-miterlimit="10" stroke-width="2" d="M29.8763,66.2708l1.9375-2.3125l2.75-10.1875l-0.625-11.5c-3.5-4-1.4344-8.6627-1.4344-8.6627 c-9.875-5.25-12.0656-16.3998-12.0656-16.3998l-6.4404,0.9828c-0.8827,0-1.3296-1.0629-0.712-1.6936l2.7773-2.2892l1.1875-1.6875 l2.625-0.625l-0.0625-2.875"/>
    <path fill="none" stroke="#000000" stroke-linecap="round" stroke-linejoin="round" stroke-miterlimit="10" stroke-width="2" d="M37.0638,40.2708c0,0-0.125,3,2.375,3.9375l3.3125,9.4375l1.75,10.1875l-1.3125,2.4375"/>
    <path fill="none" stroke="#000000" stroke-linecap="round" stroke-linejoin="round" stroke-miterlimit="10" stroke-width="2" d="M43.2557,43.3333h3.2456c0,0,3.0625-0.5625,3.375-3.9375"/>
    <path fill="none" stroke="#000000" stroke-linecap="round" stroke-linejoin="round" stroke-miterlimit="10" stroke-width="2" d="M49.1262,41.5646c0,0,0.9376,4.7688,6.3751,8.2063l0.8125,13.7895l-0.5,2.7105"/>
    <path fill="none" stroke="#000000" stroke-linecap="round" stroke-linejoin="round" stroke-miterlimit="10" stroke-width="2" d="M58.1888,47.4583c-2.5713-1.8248-3.1337-5.2183-3.221-7.2951c-0.0597-1.419-0.2781-2.8221-0.6805-4.1841l-0.0985-0.3333 c-1.8959-5.3999-8.6641-4.2096-12-5.5625c-2.549-1.0338-4.8135-3.9259-5.126-3.9259c-8.0867,0-14.1746-12.301-14.1746-12.301"/>
  </g>
</g>
  <g transform="translate(41.32909926991846, 292.35153980321917) scale(1 1) translate(0, 0) scale(1.7777777777777777 1.7777777777777777) "><g id="color">
    <path fill="#3f3f3f" d="M18.9388,41.85a11.0562,11.0562,0,0,0,2.6675,6.8626h.0111c2.8225-.1218,3.066,1.7378,3.0439,2.4794a1.6765,1.6765,0,0,1-.0222.2988H19.6914L19.68,51.48h-.011c-3.3981-1.3282-5.0764-4.1679-5.8844-7.732Z"/>
    <path fill="#3f3f3f" d="M46.3215,50.97H41.7488c-1.6533-2.18-.516-9.57-.516-9.57a2.1562,2.1562,0,0,1,1.114,1.25C42.6749,46.77,44.0585,49.46,46.3215,50.97Z"/>
    <path fill="#9b9b9a" d="M66.4915,46.6305l-2.23-6.04c2.28-1.11,1.44-1.76,1.44-1.76-2.88-2.04-.84-3.74-.84-3.74a4.2769,4.2769,0,0,1-.47.09,2.8419,2.8419,0,0,1-1.92-.45l-2.57-1.67a4.9849,4.9849,0,0,1-1.3-1.25,23.0591,23.0591,0,0,0-7.04-6.33,28.0481,28.0481,0,0,0-3.93-1.93c-.38-.14-.77-.28-1.16-.4a19.4188,19.4188,0,0,0-5.87-1,2.6456,2.6456,0,0,0-.28-.01c-.22-.01-.43-.01-.65-.01a23.1483,23.1483,0,0,0-2.51.14c-8.64.69-12.81-1.44-17.2-1.73-6.66-.44-12.02,3.74-14.27,10.36a4.0813,4.0813,0,0,0-.43,1.65s.16,1.54,1.61.41a8.2794,8.2794,0,0,0-.04.86,9.1669,9.1669,0,0,0,2.74,6.54,10.023,10.023,0,0,0-.9,4.14,9.8288,9.8288,0,0,0,2.05,6.04h5.02s0-1.84-1.48-2.1a1.646,1.646,0,0,1-1.42-1.57v-.63a4.1069,4.1069,0,0,1,1.2-2.79,5.095,5.095,0,0,1,.62-.61c.01,0,.01-.01.02-.02a5.4358,5.4358,0,0,1,4.81-.99,5.1115,5.1115,0,0,1,.63.2,22.61,22.61,0,0,0,8.08,1.64c.16.01.31.01.47.01a22.7584,22.7584,0,0,0,7.46-1.24,22.976,22.976,0,0,0,3.41-1.48,2.7925,2.7925,0,0,1,1.49-.34,2.3888,2.3888,0,0,1,1.13.35,2.0806,2.0806,0,0,1,.95,1.25c.28,4.12,1.46,6.81,3.39,8.32h4.96a.7.7,0,0,0,.32-1.32c-1.63-.86-3.28-2.14-3.39-3.79-.21-3.3.99-4.08.99-4.08l3.34,3.44a1.4092,1.4092,0,0,0,.63.38l.92.27a1.3751,1.3751,0,0,1,.67.41l2.81,3.11a7.19,7.19,0,0,0,4.96,2.47,3.94,3.94,0,0,0,2.95-.9A3.5626,3.5626,0,0,0,66.4915,46.6305Z"/>
  </g>
  <g id="line">
    <path fill="none" stroke="#000" stroke-linecap="round" stroke-linejoin="round" stroke-width="2" d="M47.6314,23.55c-.38-.14-.77-.28-1.16-.4"/>
    <path fill="none" stroke="#000" stroke-linecap="round" stroke-linejoin="round" stroke-width="2" d="M19.4914,41.83a9.9887,9.9887,0,0,0,2.41,6.2h.01c2.55-.11,2.77,1.57,2.75,2.24a1.52,1.52,0,0,1-.02.27"/>
    <path fill="none" stroke="#000" stroke-linecap="round" stroke-linejoin="round" stroke-width="2" d="M46.5014,50.54c-1.93-1.51-3.11-4.2-3.39-8.32a2.08,2.08,0,0,0-.95-1.25,2.4488,2.4488,0,0,0-1.13-.35"/>
    <path fill="none" stroke="#000" stroke-linecap="round" stroke-linejoin="round" stroke-width="2" d="M42.6014,50.54h8.86a.7.7,0,0,0,.32-1.32c-.18-.09-.35-.19-.53-.3-1.44-.84-2.76-2.02-2.86-3.49-.21-3.3.99-4.08.99-4.08l1.39,1.43,1.95,2.01a1.4087,1.4087,0,0,0,.63.38l.92.27a1.376,1.376,0,0,1,.67.41l2.81,3.11a7.1909,7.1909,0,0,0,4.96,2.47,3.9408,3.9408,0,0,0,2.95-.9,3.5629,3.5629,0,0,0,.83-3.9l-2.23-6.04c2.28-1.11,1.44-1.76,1.44-1.76-2.88-2.04-.84-3.74-.84-3.74a4.2989,4.2989,0,0,1-.47.09,2.8423,2.8423,0,0,1-1.92-.45l-2.57-1.67a4.9849,4.9849,0,0,1-1.3-1.25,23.0578,23.0578,0,0,0-7.04-6.33,28.0479,28.0479,0,0,0-3.93-1.93c-.38-.14-.77-.28-1.16-.4a19.4188,19.4188,0,0,0-5.87-1,2.62,2.62,0,0,0-.28-.01c-.22-.01-.43-.01-.65-.01a23.1723,23.1723,0,0,0-2.51.14c-8.64.69-12.81-1.44-17.2-1.73-6.66-.44-12.02,3.74-14.27,10.36a4.0791,4.0791,0,0,0-.43,1.65s.16,1.54,1.61.41a8.25,8.25,0,0,0-.04.86,9.1671,9.1671,0,0,0,2.74,6.54,10.021,10.021,0,0,0-.9,4.14,9.8288,9.8288,0,0,0,2.05,6.04h5.02s0-1.84-1.48-2.1a1.6458,1.6458,0,0,1-1.42-1.57v-.63a4.1077,4.1077,0,0,1,1.2-2.79,5.11,5.11,0,0,1,.62-.61c.01,0,.01-.01.02-.02a5.4359,5.4359,0,0,1,4.81-.99,5.098,5.098,0,0,1,.63.2,22.5034,22.5034,0,0,0,7.72,1.63c.12,0,.24.01.36.01.16.01.31.01.47.01a22.7593,22.7593,0,0,0,7.46-1.24,1.458,1.458,0,0,0,.19-.07,21.9656,21.9656,0,0,0,3.22-1.41,2.7937,2.7937,0,0,1,1.49-.34,2.48,2.48,0,0,1,1.13.35"/>
  </g>
</g>
  <g transform="translate(114.2613338900291, 166.02920393165363) scale(1 1) translate(0, 0) scale(1.7777777777777777 1.7777777777777777) "><g id="color">
    <path fill="#61b2e4" d="m23.065 26.72c-4.1282 3.8472-5.5675 8.7526-5.5888 14.429-0.006 1.6437 1.7126 2.0844 2.9248 0.97512 3.5672-2.5162 6.8185-8.6309 4.9638-11.042"/>
    <path fill="#61b2e4" d="m30.041 14.415c-8.6237-0.0962-15.832 3.2259-17.484 5.0703 4.89 16.658 15.151 15.654 22.777 15.324l0.0762 0.99804c1.6115-0.0652 3.0624-0.10263 4.25 0.0527 1.0494 0.13734 1.8668 0.41137 2.4688 0.86523 0.60199 0.45387 1.0483 1.0936 1.3281 2.207a1.0001 1.0001 0 0 0 0.30273 0.49805c0.28067 0.85815 0.59483 1.6448 1.0801 2.1602 0.0385 0.47969 0.0486 0.9432 0.0156 1.5918-0.54151 4.0693-4.2846 0.5379-6.4883 2.6406-0.80175 0.76502-2.8088 3.2889-2.4512 3.918 0.0239 0.042 0.0577 0.0776 0.10352 0.10156 0.16953 0.0886 0.49707 0.0475 1.0352-0.17773 2.5151-0.519 4.3131 2.5755 6.6074 2.3613 0.92332-0.0862 1.6072-0.59985 2.1094-0.99218 0.10561 0.86518 0.0158 2.5092 0.81641 3.2734 1.4307 1.2756 4.0008 2.2803 3.7207 5.9746 2.6173-2.7921 4.7922-4.639 2.0606-9.291-0.96732-1.6175-1.5274-2.5131-1.0508-3.6445 0.26265-0.34637 1.0229-1.2044 1.2852-1.5977 9.5709-10.006 1.1331-21.326-6.4043-26.412-5.2994-3.5758-10.984-4.8641-16.158-4.9219z"/>
    <path fill="#d0cfce" d="m35.021 30.718-5.826-1.4363-4.1621-4.3906-5.6055-4.8906v0.00004l-5.9219 2.2988 5.877 9.1035 6.9394 3.4043 0.89453 0.8711c1.4444 0.20036 2.8744 0.26277 4.2461 0.2539 1.3804-0.009 2.7116-0.0754 3.9479-0.12544"/>
    <path fill="#61b2e4" d="m35.718 26.72c-4.1282 3.8472-5.5675 8.7526-5.5888 14.429-0.006 1.6437 1.7126 2.0844 2.9248 0.97512 3.5672-2.5162 6.8185-8.6309 4.9638-11.042l1.2145-4.0815z"/>
  </g>
  <g id="line" fill="none" stroke="#000" stroke-linecap="round" stroke-linejoin="round" stroke-width="2">
    <path d="m19.5 31.459c-1.4394 2.8807-2.0101 6.1344-2.0234 9.6914-0.006 1.6437 1.7116 2.0839 2.9238 0.97461 2.3696-1.6714 4.5906-4.9279 5.2773-7.6348"/>
    <path stroke-miterlimit="10" d="m27.718 34.762c-0.36802-0.0442-0.73634-0.0977-1.1043-0.16218-5.489-0.96174-10.897-4.3507-14.057-15.115 2.6444-2.951 19.51-9.6836 33.642-0.148 7.5374 5.086 15.975 16.405 6.4039 26.411-0.26228 0.39322-1.0215 1.2521-1.2841 1.5985-0.47657 1.1314 0.0837 2.0265 1.051 3.644 2.7316 4.6521 0.55534 6.4992-2.062 9.2913 0.2801-3.6943-2.2893-4.6988-3.72-5.9743-0.80061-0.76418-0.71022-2.4091-0.81583-3.2743-0.50218 0.39233-1.1858 0.90701-2.1091 0.99321-2.2943 0.21419-4.0926-2.881-6.6078-2.362-0.53808 0.2252-0.86574 0.26644-1.0353 0.17783-0.0458-0.024-0.0803-0.0582-0.10419-0.10016-0.35758-0.62906 1.649-3.1537 2.4508-3.9187 2.2037-2.1027 5.9472 1.4291 6.4887-2.6402 0.0684-1.3457-0.0397-1.9035-0.22987-3.4344-0.31633-2.5468-1.4236-3.8344-3.0607-4.4589"/>
    <path d="m38.033 31.082c1.6283 0.069 3.0443 0.24313 4.2708 0.49887"/>
    <path d="m13.961 23.298c-0.42519-1.68 1.1394-2.486 3.2694-2.7908 5.7206-0.81857 8.8438 7.6773 14.428 9.7485"/>
    <path d="m35.718 26.72c-4.1282 3.8472-5.5675 8.7526-5.5888 14.429-0.006 1.6437 1.7126 2.0844 2.9248 0.97512 3.5672-2.5162 6.8185-8.6309 4.9638-11.042"/>
  </g>
</g>
  <g transform="translate(225.99999999999977, 72.26933041053587) scale(1 1) translate(0, 0) scale(1.7777777777777777 1.7777777777777777) "><g id="color">
    <path fill="#9b9b9a" d="m35.546 38.031c-1.0014 0.10832-4.0792 1.4989-3.8998 5.2083 0.26209 5.4174-7.6423-3.1345-0.98053-11.892"/>
    <path fill="#9b9b9a" d="m12 33.938s-2 4 16 4h8s10-0.5 15.5 9.75c0.29517 0.57883 0.50441 1.2045 0.62771 1.7365 1.0477 4.0472-5.5475 2.4327-6.6491 5.2532-0.40316 1.0322-1.1544 4.1685-0.56439 4.5874 0.0393 0.0283 0.0851 0.0437 0.13677 0.0467 0.19108 0.009 0.47061-0.16726 0.86303-0.59882 2.0599-1.5336 4.9982 0.51116 6.9868-0.6529 0.80032-0.46845 1.2022-1.2239 1.4915-1.7917 0.46148 0.7394 1.075 2.2683 2.1236 2.6224 1.8358 0.5511 4.5889 0.37522 5.8969 3.8416 1.1916-3.6368 2.3829-6.2308-2.0593-9.292-1.5604-1.057-3.9503-2.6878-4.0085-4.1251-0.009-0.1798 0.39822-10.231-5.5746-18.566 0.20821-2.2288 1.8232-5.3148 4.1092-5.8167 2.0556-0.45133-3.4045-4.5113-11.387-0.88331-10.758-6.1609-23.196 0.0287-23.548 6.7324-3.125-0.25-7.8698 0.23039-7.9948 2.9804"/>
    <path fill="#d0cfce" fill-rule="evenodd" d="m13.96 31.324c-1.243 0.46701-2.1344 1.2238-2.1875 2.3926l0.0508 0.17579s-1.5608 3.2084 11.084 3.873l7.5 0.12696h5.416s0.76556-0.0308 1.9668 0.125l0.17969 0.004 0.082 0.0332c1.8927 0.27635 4.7352 1.0324 7.5606 3.0234l0.3125 0.125 0.18945 0.2461c1.8744 1.4244 3.7096 3.3991 5.209 6.1934 0.19867 0.38958 0.34208 0.79051 0.46289 1.1797l0.94532 1.2207c-1.149-16.617-15.964-17.629-32.492-18.601-3.434-0.236-4.161-0.34-6.28-0.118z"/>
    <path fill="#9b9b9a" d="m43.469 36.098c-0.76004 0.66098-2.4918 3.5606-0.22546 6.5026 3.3099 4.2967-8.0632 1.7931-7.5983-9.2004l0.84937-2.9011 9.2997 2.737z"/>
  </g>
  <g id="hair"/>
  <g id="skin"/>
  <g id="skin-shadow"/>
  <g id="line" fill="none" stroke="#000" stroke-linecap="round" stroke-linejoin="round" stroke-miterlimit="10" stroke-width="2">
    <path d="m28.035 37.938c-0.44221 5.6934 3.8049 9.3193 3.6113 5.3184-0.17947-3.7094 2.899-5.1007 3.9004-5.209l-0.08-0.109h-7.4316"/>
    <path d="m42.202 39.165c3.0822 1.2277 6.6941 3.6708 9.2976 8.5229 0.29517 0.57883 0.50441 1.2045 0.62771 1.7365 1.0477 4.0472-5.5475 2.4327-6.6491 5.2532-0.40316 1.0322-1.1544 4.1685-0.56439 4.5874 0.0393 0.0283 0.0851 0.0437 0.13677 0.0467 0.19108 0.009 0.47061-0.16726 0.86303-0.59882 2.0599-1.5336 4.9982 0.51116 6.9868-0.6529 0.80032-0.46845 1.2022-1.2239 1.4915-1.7917 0.46148 0.7394 1.075 2.2683 2.1236 2.6224 1.8358 0.5511 4.5889 0.37522 5.8969 3.8416 1.1916-3.6368 2.3829-6.2308-2.0593-9.292-1.5604-1.057-3.9503-2.6878-4.0085-4.1251-0.009-0.1798 0.39822-10.231-5.5746-18.566 0.20821-2.2288 1.8232-5.3148 4.1092-5.8167 2.0556-0.45133-3.4045-4.5113-11.387-0.88331-10.758-6.1609-23.196 0.0287-23.548 6.7324-3.125-0.25-7.8698 0.23039-7.9697 3.0681 0.0156 0.54688-0.14674 4.0878 16.025 4.0878h8s0.01921-0.000961 0.05642-0.0019"/>
    <path d="m43.469 36.098c-0.76004 0.66098-2.4918 3.5606-0.22546 6.5026 3.3099 4.2967-8.0632 1.7931-7.5983-9.2004"/>
  </g>
</g>
  <g transform="translate(363.06776537988924, 22.380743734872624) scale(1 1) translate(0, 0) scale(1.7777777777777777 1.7777777777777777) "><g id="color">
    <path fill="#FFA7C0" stroke="none" d="M17.1242,30.4755l-2.2757,1.6731l-2.0804-1.6731c0,0-2.0225,6.0245,0.2319,8.5245s0,0,0,0l-2.7074,3.5319 l-4.2015,2.0643v2.0705L8,50l6.0877,0.9339h5.9167l3.1143-1.1268L22.1639,54.75l1.1061,1.3796l2.6389-1.9663l5.6655-9.5671 l7.0964,0.701l10.0003-1.1854l4.8485-1.1872l1.7506,4.6619l1.4564,8.0866L58.1476,57l1.3884-0.7678L63.1249,39.75 c0,0-1.2533-9.2543-6.6191-13.0015s0,0,0,0c-6.5936-5.6173-14.5396-7.2248-24.0406-4.2215l0,0 C26.7422,24.5082,21.6285,27.1577,17.1242,30.4755z"/>
    <polygon fill="#E67A94" stroke="none" points="48.0078,44.5962 47.5038,50.1767 46.7067,54.5263 48.0887,55.6731 52.944,50.1347 55.0844,46 53.2127,42.375"/>
    <polygon fill="#E67A94" stroke="none" points="35,44.9346 35,52.5 34.0877,55.8679 30.8083,55.375 30.0877,51.4375 29.7127,46.75 30.8083,44.9346"/>
  </g>
  <g id="hair"/>
  <g id="skin"/>
  <g id="skin-shadow"/>
  <g id="line">
    <path fill="none" stroke="#000000" stroke-linecap="round" stroke-linejoin="round" stroke-miterlimit="10" stroke-width="2" d="M18.2668,40.3655C18.2668,40.3655,19,37,18,35c-0.8253-1.6506-5-4-5-4c-0.8997,2.2493-0.6625,6.0065-0.2803,7.0457L13,39 l-0.5222,0.8891c-1.0655,1.8141-2.6341,3.2804-4.5158,4.2212l-1.281,0.6405c-0.5269,0.2635-0.7405,0.9042-0.477,1.4311L8,50 c0,0,6.75,1.6875,11.4451,0.332"/>
    <path fill="none" stroke="#000000" stroke-linecap="round" stroke-linejoin="round" stroke-miterlimit="10" stroke-width="2" d="M15.6331,32.1309c4.9804-7.1004,36.828-22.241,46.0504,3.1369c0.9971,2.7436,1.1827,5.7171,0.577,8.5728 c-0.7996,3.7694-1.9902,9.3825-2.5201,11.8806C59.5821,56.4677,58.9233,57,58.1602,57h-0.0126 c-1.0658,0-1.3516-0.8488-1.5523-1.8955C56,52,56.1278,47.2205,52.3035,40.6214"/>
    <path fill="none" stroke="#000000" stroke-linecap="round" stroke-linejoin="round" stroke-miterlimit="10" stroke-width="2" d="M30.0389,34.7354c0,0,3.5828,5.6301,1.0237,9.7248c-2.0097,3.2155-4.6506,8.6405-5.6921,10.8218 c-0.2774,0.5811-0.8646,0.9503-1.5085,0.9503h-0.0254c-1.147,0-1.9499-1.1202-1.5828-2.2068 c0.7577-2.2427,1.5685-5.9644,0.6195-10.0771"/>
    <path fill="none" stroke="#000000" stroke-linecap="round" stroke-linejoin="round" stroke-miterlimit="10" stroke-width="2" d="M31.5744,44.972c0,0,15.8668,1.5355,20.9851-2.0473"/>
    <path fill="none" stroke="#000000" stroke-linecap="round" stroke-linejoin="round" stroke-miterlimit="10" stroke-width="2" d="M48,45c0,0,0,4-1.1994,8.417c-0.3035,1.1177,0.1299,2.2561,1.2881,2.2561h0c0.5846,0,1.1158-0.3399,1.3608-0.8707L52,50"/>
    <path fill="none" stroke="#000000" stroke-linecap="round" stroke-linejoin="round" stroke-miterlimit="10" stroke-width="2" d="M31.0152,51.5785l-0.1986,2.1841c-0.1367,1.5041,1.4309,2.574,2.7817,1.8986l0.0173-0.0087 c0.609-0.3045,1.0121-0.9076,1.0606-1.5867L35,46"/>
    <path fill="none" stroke="#000000" stroke-linecap="round" stroke-linejoin="round" stroke-miterlimit="10" stroke-width="2" d="M61.2842,27.929c0,0,6.142-1.5355,2.5592,3.071"/>
  </g>
</g>
  <g transform="translate(508.93223462011065, 22.380743734872567) scale(1 1) translate(0, 0) scale(1.7777777777777777 1.7777777777777777) "><g id="color">
    <path fill="#6A462F" stroke="none" d="M18.2562,20.392l-1.4733,2.7164l-6.8836,4.1102c0,0-4.0991,3.4124-3.7536,4.6981 c0.3455,1.2857,0.9175,2.8327,0.9175,2.8327s0.1912,2.6601,1.1912,3.497s3.9363,0,3.9363,0l2.9057-0.6172l4.158-0.1292 c0,0,2.223,2.0833,2.9865,2.25c0.7635,0.1667,4.4302,2.0874,4.4302,2.0874s-0.4167,2.7282,0,3.737 c0.4167,1.0089,1.2734,5.1857,1.2734,5.1857l-0.8227,4.0732l1.6454,2.0833c0,0,3.18-0.0069,3.3155-1.5989l1.0051,2.0195 l2.4235-0.3976l0.7191-1.5272l0.399-7.183l1.9584-4.7014c0,0,1.5,0.7085,2.25,1.0069c0.75,0.2984,5.6889,0,5.6889,0l4.1667-1.9749 l3.655,3.6086l-0.1854,4.8619l-0.3369,3.5493l0.5224,1.3659l1.3309,0.6716l2.2822-0.6716l1.1272-10.8603l-0.8331-3.2397 c0,0,4.3089-9.7208,3.2373-12.7833s-9.4657-7.32-9.4657-7.32l-9.0264-3.0706c0,0-8.9962-2.4218-12.6629-2.6718 S18.2562,20.392,18.2562,20.392z"/>
    <path fill="#3F3F3F" stroke="none" d="M22.0044,38.2464c0,0,8.7917,6.2119,16.8333,4.1286l-2.2406,6.4345l-0.3844,7.8079l-3.125,0.7198 l-1.2705-1.3914c0,0-1.3082,1.2625-3.0501,0.9709c-1.7419-0.2917-2.1169-3.0417-2.1169-3.0417l1.375-4.3125l-1.1875-4.25 C26.8377,45.3125,22.5453,39.6532,22.0044,38.2464z"/>
    <path fill="#3F3F3F" stroke="none" d="M59.0877,38.875c0,0-6.7083-0.125-7.7083,2.5833c-1,2.7083,2.9689,4.7104,2.9689,4.7104l-0.5522,4.5914 l-0.1667,4.4482l1.375,1.4091l3.0833-0.4091l1-3.9583l0.5417-7.6667l-0.6667-4.7083L59.0877,38.875z"/>
    <path fill="#3F3F3F" stroke="none" d="M23.3377,21.6875c0,0-5.5,5.5,1.5625,8.6875l3.0442-2.1875c0,0,1.0808-3.6875,1.0808-3.9375 s-0.2581-3.3907-0.2581-3.3907L27.6502,20.5L23.3377,21.6875z"/>
  </g>
  <g id="hair"/>
  <g id="skin"/>
  <g id="skin-shadow"/>
  <g id="line">
    <path fill="none" stroke="#000000" stroke-linecap="round" stroke-linejoin="round" stroke-miterlimit="10" stroke-width="2" d="M8.9874,37.6522c0,0,2.0168,1.435,4.2662-0.1551l3.1083,0.2228c1.2161,0.0872,2.411-0.3521,3.2811-1.2061l3.2672-3.2067"/>
    <path fill="none" stroke="#000000" stroke-linecap="round" stroke-linejoin="round" stroke-miterlimit="10" stroke-width="2" d="M13.5926,33.272c-0.862-0.6593-1.3426-2.5845-0.4667-4.2095"/>
    <path fill="none" stroke="#000000" stroke-linecap="round" stroke-linejoin="round" stroke-miterlimit="10" stroke-width="2" d="M15.2316,32.2225c-2.6899,2.3456-8.1684,2.5269-8.1684,2.5269L6.1457,32.268c1.2128-4.971,8.4793-7.7055,8.4793-7.7055 l2.158-1.4542l0.8422-2.227c4.6223-3.7209,9.9561-5.1271,16.0675-4.0947c0,0,22.6884,2.9476,27.5312,12.1651 c0,0,1.5911,2.3191-2.9684,12.8941l0.8349,3.2467l-0.6967,9.7954c-0.0693,0.9744-0.88,1.7295-1.8569,1.7295h-0.8575 c-1.0976,0-1.957-0.9448-1.8533-2.0375l0.7712-8.1238l-3.6699-4.2393c0,0-2.0681,3.983-9.5452,1.5783"/>
    <path fill="none" stroke="#000000" stroke-linecap="round" stroke-linejoin="round" stroke-miterlimit="10" stroke-width="2" d="M23.8161,22.5654l3.7744-1.6828c0.4668-0.1173,0.9199,0.2224,0.9441,0.7031c0.1034,2.0556,0.2325,7.379-3.8398,7.7668"/>
    <path fill="none" stroke="#000000" stroke-linecap="round" stroke-linejoin="round" stroke-miterlimit="10" stroke-width="2" d="M22.2409,38.6608c1.9649,1.5919,5.4102,4.0457,8.5566,4.1126l1.6928,7.755l-0.4077,4.7893 c-0.0925,1.0865,0.7645,2.0195,1.8549,2.0195h0.4326c1.0539,0,1.903-0.8717,1.8602-1.9248 c-0.1416-3.4875,0.0316-10.8589,3.5901-14.8514"/>
    <path fill="none" stroke="#000000" stroke-linecap="round" stroke-linejoin="round" stroke-miterlimit="10" stroke-width="2" d="M27.6225,45.5745c0.4154,1.9173,0.6969,4.7358-0.4188,8.2036c-0.344,1.0692,0.4357,2.1677,1.5588,2.1677h0.0046"/>
    <path fill="none" stroke="#000000" stroke-linecap="round" stroke-linejoin="round" stroke-miterlimit="10" stroke-width="2" d="M64.5713,31.0769c0.5566,1.0204,1.515,6.2151-0.4484,7.4211c-1.9634,1.2059,0.5892,3.3395,0.5892,3.3395"/>
  </g>
</g>
  <g transform="translate(645.9999999999998, 72.26933041053559) scale(1 1) translate(0, 0) scale(1.7777777777777777 1.7777777777777777) "><g id="color">
    <path fill="#F4AA41" stroke="none" d="M15.012,20.6113l-8.9258,1.8002L4.89,25l0.8559,1.1667l3.0919-0.3333l4.9593,1.6804 c0,0,3.7749,11.0061,15.0463,9.4478v4.4116V55.625v3.344h3.9148l1.4545-4.9385l0.6012-3.6307l8.5906,6.5854l2.1212-1.0195 l-0.5892-2.5869c0,0-7.0832-5.0589-6.966-5.8439c0.1172-0.785,0.7549-6.3475,0.7549-6.3475s5.5402-0.5884,6.8003-1.3349 c0.5464-0.3237,6.1267-1.1527,6.1267-1.1527s5.1853,9.2167-1.8147,18.3209l1.3274,2.3125L53.8166,59 c0,0,3.4672-5.3228,5.3599-11.5197c2.2364-7.322,3.0499-15.8608,4.4943-18.2303l-1.1135-2.833l-9.0423-6.9512l-3.6978-3.6864 c0,0-5.0878-0.9774-7.0336,0.0591C40.8377,16.875,39.0877,19.5,39.0877,19.5s-8.75,3.3226-10.625,8.4113 c0,0-6.4254,4.6188-12.4627-7.0837L15.012,20.6113z"/>
    <path fill="#E27022" stroke="none" d="M64.6018,43.5c0,0-3.138-7.5634-1.4511-13.1567c0,0-2.3756,6.2192-4.6256,7.2817s-0.25,6.8125-0.25,6.8125 l1.875,3.1562l-1.528,5.8123c-0.0438,0.1668-0.0931,0.332-0.1478,0.4955l-1.3341,3.9788c0,0-1.6495,3.3324,2.9161,2.184 S63.4002,53.5,63.4002,53.5l1.2347-8.3345L64.6018,43.5z"/>
    <path fill="#E27022" stroke="none" d="M29.6294,36.1306l-0.786,0.4944v7.1861v9.9805c0,0-0.1193,4.9797,0,5.1774 c0.1193,0.1976,4.5316-0.2607,4.5316-0.2607l0.9054-4.5l0.4903-4.1146L33.671,39.1667L29.6294,36.1306z"/>
  </g>
  <g id="hair"/>
  <g id="skin"/>
  <g id="skin-shadow"/>
  <g id="line">
    <path fill="none" stroke="#000000" stroke-linecap="round" stroke-linejoin="round" stroke-miterlimit="10" stroke-width="2" d="M59.3346,35.6722c-1.0322,1.8633-2.1378,4.2568-1.8743,5.5745c0.4734,2.3672,1.7162,6.2337,1.7162,6.2337l-5.0977,11.1058 c-0.3146,0.6855-0.9998,1.1249-1.754,1.1249H52.313c-1.4871,0-2.4197-1.6063-1.6706-2.8909 c1.914-3.282,4.0872-9.1253,1.4405-16.3143c-0.6513-1.7691-0.6643-3.7138-0.039-5.4923l2.4968-7.1021"/>
    <path fill="none" stroke="#000000" stroke-linecap="round" stroke-linejoin="round" stroke-miterlimit="10" stroke-width="2" d="M63.25,42.9349c0.464,0.6901,1.5227,4.6182,1.3283,5.4268L62.308,57.801c-0.2162,0.8988-1.0201,1.5323-1.9445,1.5323h-2.4483"/>
    <path fill="none" stroke="#000000" stroke-linecap="round" stroke-linejoin="round" stroke-miterlimit="10" stroke-width="2" d="M38.375,31.4375l0.6999,6.8107l-1.1374,9.5643l6.999,5.5663c0.4067,0.2948,0.6875,0.7318,0.7868,1.2242l0.0032,0.016 c0.3617,1.7945-1.6777,3.0917-3.1497,2.0033l-7.7629-6.2224l-1.6028-11.3595l-2.8949-2.607 C19.3481,39.9052,13.5,26.9167,13.5,26.9167l-5.25-1l-1.9167,0.5c-0.4704,0.0884-1.0571-0.7298-1.25-1.1678 c-0.8884-2.0178,1.5725-3.1907,1.5725-3.1907l8.3562-1.4468c0.5717-0.1006,1.1403,0.1768,1.4055,0.6932 c1.3581,2.6452,5.9254,10.2179,12.1628,6.6068c0,0,1.4468-4.8436,8.0473-6.9487c1.5595-0.4974,2.9298-1.464,3.8123-2.8426 c0.6625-1.0349,1.5157-2.0836,2.3438-2.2815c1.2957-0.3098,3.7318-0.5408,5.4141-0.5968c0.9628-0.0321,1.8537,0.4943,2.2758,1.3603 c0.7867,1.6141,11.4126,9.105,11.4126,9.105c1.3039,1.1445,2.0292,2.8096,1.9628,4.5432C63.7633,32.4891,64.67,36.5,65.8125,39.25"/>
    <path fill="none" stroke="#000000" stroke-linecap="round" stroke-linejoin="round" stroke-miterlimit="10" stroke-width="2" d="M30,41.1875l-1.1395,16.6297C28.7462,58.4322,29.2181,59,29.8437,59h1.5313c1.1046,0,2-0.8954,2-2v-2.5625"/>
    <path fill="none" stroke="#000000" stroke-linecap="round" stroke-linejoin="round" stroke-miterlimit="10" stroke-width="2" d="M42.9495,39.9365c2.815-0.282,6.6505-0.8706,8.0404-1.9251"/>
  </g>
</g>
  <g transform="translate(757.7386661099706, 166.0292039316534) scale(1 1) translate(0, 0) scale(1.7777777777777777 1.7777777777777777) "><g id="color">
    <path fill="#F4AA41" stroke="none" d="M18.1116,16.0147l-11.024,1.7561L4.5044,21.25l1.3103,1.8203l3.082-0.2483l3.1941,0.9812 c0,0,0.4137,2.6968,0.4137,4.3635c0,0,0.9352,2.6338,1.0663,3.1766s1.35,8.2465,13.2669,6.6183c0,0,2.6795-0.2504,3.1912,7.2573 c0.5117,7.5076,1.191,9.4061,0,12.802l0.6622,2.6465l2.8968,0.0436l1.5-1.3776L35.5044,41.75v-0.9904c0,0,2.5,2.7669,5.5833,1.7119 l5.8575-0.3465l8.2527-2.9372l1.9887,5.1987l2.45,5.9528l-1.3601,8.3315l0.8921,1.6624h2.1689l1.5833-0.3643 c0,0,1.4143-10.8165,1.3983-11.0524c-0.016-0.2359-2.8211-18.7659-2.8211-18.7659l-4.8663-4.9107L52.671,16.362l-3.7589-0.7682 l-1.5989,0.7682l-1.8922,4.4713c0,0-1.1667,1.5-1.5,1.5c-0.3333,0-4-1.0833-4-1.0833l-1.75-5.6562h-5.1667l-1.25,2.5728 l-2.0833,4.6667l-5.5833,3.75l-3.0449,0.5833l-0.2246-2.7581l0.4191-4.3047l-1.1496-3.7418L18.1116,16.0147z"/>
    <path fill="#E27022" stroke="none" d="M50.671,40.5833c0,0,1.553,3.7352,1.9167,6.1582c0.3606,2.4025-0.4211,5.763-0.5347,6.0972 s-1.8424,5.9946-1.8424,5.9946l2.877,1.5l1.3948,0.6521c0,0,1.3552-0.3181,1.9681-2.9646 c0.2194-0.9475,1.0538-8.6543,1.0538-8.6543l0.5929-3.0423L56.171,39.974l-0.9731-1.615L50.671,40.5833z"/>
  </g>
  <g id="hair"/>
  <g id="skin"/>
  <g id="skin-shadow"/>
  <g id="line">
    <path fill="none" stroke="#000000" stroke-linecap="round" stroke-linejoin="round" stroke-miterlimit="10" stroke-width="2" d="M53.8054,29.2249c0,0,0.3861,10.6497,5.0718,18.508c0.7719,1.2945,0.9857,2.845,0.5091,4.2748l-1.0089,6.0271 c-0.4317,1.2951,0.5323,2.6324,1.8974,2.6324l0.6841,0c0.9541,0,1.7737-0.6695,1.9599-1.6053 c0.5172-2.5994,0.677-6.9656,1.2605-9.1155c0.1849-0.6812,0.191-1.3954-0.0076-2.0727c-0.8261-2.8167-1.8679-12.0493-2.322-16.3353 c-0.1508-1.4235-0.8862-2.7156-2.0314-3.5745l-1.0701-0.8025c-1.7017-1.2762-3.121-2.8906-4.1688-4.7417l-2.1628-5.5865 c-0.444-0.7844-2.2581-1.2395-3.1595-1.2395h-0.3451c-0.8998,0-1.6965,0.5809-1.9634,1.4403 c-0.4516,1.4542-1.2495,3.6068-2.2307,4.483c-0.9657,0.8624-2.7481,0.6466-3.9488,0.3636c-0.751-0.177-1.3395-0.7563-1.5449-1.5 l-1.0114-3.6626c-0.1938-0.7016-0.7855-1.2189-1.5072-1.3137c-1.2267-0.1611-3.0349-0.2972-3.6196,0.1894 c-0.9352,0.7782-1.1679,2.4989-1.855,4.3406c-0.4818,1.2915-1.3322,2.4161-2.4036,3.2834 c-3.2174,2.6046-9.5691,7.1672-8.0093,1.1908c1.9527-7.4822-2.7065-8.3939-2.7065-8.3939L7.2019,18.4463 c0,0-2.9663,1.3675-2.0011,3.9272c0.2437,0.6463,0.9539,0.9947,1.6281,0.8445l1.9895-0.4434c0,0,2.9721,1.9197,6.4433,0.5898"/>
    <path fill="none" stroke="#000000" stroke-linecap="round" stroke-linejoin="round" stroke-miterlimit="10" stroke-width="2" d="M52.7306,43.9293l0.4361,2.032c0.7287,3.372-2.6369,10.8199-2.6369,10.8199c-0.8145,1.2694,0.0158,2.9493,1.5189,3.0732 l1.8466,0.1146"/>
    <path fill="none" stroke="#000000" stroke-linecap="round" stroke-linejoin="round" stroke-miterlimit="10" stroke-width="2" d="M13.3333,27.1667c0,0-1.0833,8.3333,5.6674,10.7822c0,0,2.9065,0.9491,5.4608,0.0676c1.8282-0.6309,3.8605,0.1503,4.5926,1.9403 l0.0336,0.0822c0.1266,0.3166,0.9242,5.0557,1.3963,7.9009c0.2323,1.4001,0.2718,2.8237,0.1169,4.2344l-0.6907,6.2911 c-0.1291,1.1763,0.7857,2.2069,1.969,2.2182l0.8697,0.0083c1.112,0.0106,2.019-0.8879,2.019-1.9999V48.6719 c0,0-0.6823-7.2699,1.7713-11.4501"/>
    <path fill="none" stroke="#000000" stroke-linecap="round" stroke-linejoin="round" stroke-miterlimit="10" stroke-width="2" d="M38.6925,41.6541c1.9873,0.5976,8.1435,1.6459,12.0039-0.9791c0,0,2.7671-1.8256,4.5016-1.4871"/>
    <path fill="none" stroke="#000000" stroke-linecap="round" stroke-linejoin="round" stroke-miterlimit="10" stroke-width="2" d="M64.7709,31.9016c0.3553,0.1099,1.7422,1.9992,1.82,10.5699"/>
  </g>
</g>
  <g transform="translate(830.6709007300815, 292.3515398032192) scale(1 1) translate(0, 0) scale(1.7777777777777777 1.7777777777777777) "><g id="color">
    <path fill="#a57939" d="m61.54 37c-0.4139-0.6823-1.39-1.178-2.738-1.947-1.524-1.908-0.2775-2.888-2.053-4.905-4.281-4.865-26.31-1.117-26.31-1.117-4.651-5.643-5.238-8.224-10.98-17.44 0 0-0.2587 1.479-1.428 2.21-1.259 0.7875-3.444 0.8412-3.707 1.134-0.6945 0.7732-1.671 2.201-2.951 3.054-0.8146 0.5427 0.3339 2.21 0.4168 3.005 0.166 1.592 2.6-0.7192 3.797 0.3442 3.578 3.18 4 15.15 6.763 19.06 1.3 1.544 3.074 2.768 4.98 3.433 1.844 6.959 3.817 7.267 2.687 15.83 0.4369 0.16 1.284 0.9293 1.707 0.7362 0.2856-0.168 1.226-0.1211 1.52-0.9389 0.1153-0.3212 0.5276-1.195 0.7119-1.722 0.2205-0.6301 0.1615-1.731 0.1615-1.731l0.6918-6.166-0.2429-3.854c4.723-0.01304 8.445-0.3529 14.93-1.979 1.32-0.7341 0.9776-0.8917 1.52 0.6663 1.099 3.158 3.573 5.685 4.12 7.08 1.747 4.457 0.527 4.588 0.4127 6.775 0 0 0.02287 2.269 1.503 1.958 0.792-0.8507 2.113-2.719 2.393-4.392 0.2496-1.491 0.4007-4.187-0.3646-6.387-0.8238-1.093-0.06493-6.32-0.3348-9.521-0.1412-1.675-0.4815-2.371-0.3404-2.404 1.814 2.192 3.536 1.42 3.131-0.7725z"/>
    <path fill="#6a462f" d="m24.77 42.73c1.975 0.178 3.83 1.677 3.79 4.771 0 0-4.077 2.104-4.41 2.898s1.014 6.068 1.014 6.068-1.065 1.741-1.219 2.027c-0.8464 1.573-2.624 1.142-2.624 1.142l-0.7872-11.64c1.228-2.086 4.236-5.262 4.236-5.262z"/>
    <path fill="#6a462f" d="m48.36 44.54s2.621-1.731 3.146-0.9814c0.4054 0.5742 1.054 5.922 1.349 8.562s-3.699 6.291-4.407 7.209c-0.4578 0.5932-1.158 0.75-1.881 0.7299-0.4678-0.01295-1.223 0.9912-1.756 0.3317-0.4196-0.5191-0.452-2.319-0.7014-2.366-0.3162 0.1528 4.857-4.956 4.857-4.956z"/>
  </g>
  <g id="line">
    <path fill="none" stroke="#000" stroke-linecap="round" stroke-linejoin="round" stroke-width="2" d="m60.66 37.43-1.868-2.339c-0.8728-8.886-18.46-7.821-28.36-6.022-2.322 0.4345-6.446-9.261-8.223-13.67-0.2737-0.6795-1.317-3.758-2.636-3.758-1.128 0-1.043 1.632-1.55 2.196-0.4312 0.4801-2.718 0.6383-3.768 0.9577-0.3651 0.111 0.1295 1.608-0.2308 1.722-1.335 0.4216-2.756 0.8147-2.699 1.644 0.04867 0.7095 0.1107 2.779 0.8074 2.934 1.55 0.3459 2.621-0.4551 3.447 0.2786 3.578 3.18 4 15.15 6.763 19.06 1.3 1.544 2.992 2.709 4.98 3.433l2.344 5.148c1.045 2.673 1.011 5.618 1.009 8.373l-0.4614 1.021c-0.424 0.938 0.3586 1.958 1.503 1.958v0c0.6795 0 1.286-0.375 1.52-0.9389l0.7119-1.722c0.229-0.5537 0.2847-1.152 0.1615-1.731l-0.2283-6.013"/>
    <path fill="none" stroke="#000" stroke-linecap="round" stroke-linejoin="round" stroke-width="2" d="m33.02 45.22c3.575 1.759 13.64 0.04346 18.2-1.392 0.4893 5.819 2.003 5.739 3.923 7.774l0.8742 5.754-0.4614 1.021c-0.424 0.938 0.3586 1.958 1.503 1.958v0c0.6795 0 1.286-0.375 1.52-0.9389l0.7119-1.722c0.229-0.5537 0.2847-1.152 0.1615-1.731l-1.269-5.969"/>
    <path fill="none" stroke="#000" stroke-linecap="round" stroke-linejoin="round" stroke-width="2" d="m49.05 44.7c-1.155 3.33-1.013 3.448-1.017 4.312-0.0035 0.7897 0.2763 1.276 0.6732 2.694 0.3249 1.161-2.755 4.226-3.8 5.376l-0.7969 0.7882c-0.732 0.7238-0.3668 1.956 0.7014 2.366v0c0.6344 0.2435 1.335 0.1109 1.756-0.3317l1.282-1.352"/>
    <path fill="none" stroke="#000" stroke-linecap="round" stroke-linejoin="round" stroke-width="2" d="m24.77 42.73c-1.323 2.21-3.516 4.47-4.241 6.28-0.3209 0.8185 0.6727 9.041 0.6727 9.041l0.1115 1.115c0.1022 1.024 1.29 1.516 2.281 0.9432v0c0.5884-0.34 0.9262-0.9683 0.8464-1.573l-0.2452-1.847"/>
  </g>
</g>
  <g>
    <defs/>
    <path d="M 739.6680592385808 611.7590514380961 L 500.0 500.0 L 502.6249672709423 462.313529740056" fill="none" stroke="black" stroke-width="12.8"/>
    <path d="M 797.6307875770228 552.480338139339 L 760.426939129895 545.9202958719216 A 264.44444444444446 264.44444444444446 0 0,1 702.576197180352 669.9816123393293 L 760.4551106604525 718.5477872934233" fill="none" stroke="black" stroke-width="12.8"/>
    <path d="M 840.0 500.0 L 802.2222222222222 500.0 A 302.22222222222223 302.22222222222223 0 0,1 783.9959920597412 603.3660877606466 L 819.4954910672088 616.2868487307273" fill="none" stroke="black" stroke-width="12.8"/>
    <path d="M 444.71406840542505 448.50138115416473 L 472.3570342027125 474.25069057708237 A 37.77777777777778 37.77777777777778 0 0,1 530.9457438953619 478.3315568489605 L 716.6202072675334 348.32089794272326" fill="none" stroke="black" stroke-width="12.8"/>
    <path d="M 386.95143205058775 508.02905530131454 L 424.63428803372517 505.3527035342097 A 75.55555555555556 75.55555555555556 0 0,1 500.0 424.44444444444446 L 499.99999999999994 197.77777777777777" fill="none" stroke="black" stroke-width="12.8"/>
    <path d="M 389.7094290145493 603.2983923056784 L 417.282071760912 577.4737942292588 A 113.33333333333333 113.33333333333333 0 0,1 407.1627683139142 434.9946705468815 L 283.3797927324665 348.32089794272343" fill="none" stroke="black" stroke-width="12.8"/>
    <path d="M 487.6460755898618 688.4844632784029 L 490.1168604718895 650.7875706227223 A 151.11111111111111 151.11111111111111 0 0,1 348.8888888888889 500.0 L 160.0 500.00000000000006" fill="none" stroke="black" stroke-width="12.8"/>
    <path d="M 670.0 794.4486372867091 L 594.4444444444445 663.5825762703939 A 188.88888888888889 188.88888888888889 0 0,1 385.01173007613056 649.8556309439 L 362.0140760913566 679.82675713268" fill="none" stroke="black" stroke-width="12.8"/>
    <path d="M 431.5567414062223 755.4337185075536 L 441.33434977676194 718.9431872921888 A 226.66666666666666 226.66666666666666 0 0,1 303.7009084755272 613.3333333333333 L 238.26787796736966 651.1111111111111" fill="none" stroke="black" stroke-width="12.8"/>
    <path d="M 500.0 802.2222222222222 L 500.0 764.4444444444445 A 264.44444444444446 264.44444444444446 0 0,1 367.7777777777778 729.0156067785516 L 330.0000000000001 794.4486372867092" fill="none" stroke="black" stroke-width="12.8"/>
    <path d="M 559.0403804067563 834.8346360241508 L 552.480338139339 797.6307875770228 A 302.22222222222223 302.22222222222223 0 0,1 447.5196618606611 797.6307875770228 L 440.9596195932437 834.8346360241508" fill="none" stroke="black" stroke-width="12.8"/>
    <path d="M 239.54488933954752 718.5477872934234 L 268.4843460795978 694.2646998163764 A 302.22222222222223 302.22222222222223 0 0,1 216.00400794025882 603.3660877606466 L 180.50450893279117 616.2868487307275" fill="none" stroke="black" stroke-width="12.8"/>
    <path d="M 180.5045089327911 383.71315126927266 L 251.50350694772644 409.55467320943427 A 264.44444444444446 264.44444444444446 0 0,1 330.01838766067067 297.423802819648 L 305.7353001836236 268.4843460795978" fill="none" stroke="black" stroke-width="12.8"/>
    <path d="M 239.54488933954747 281.4522127065767 L 268.48434607959774 305.7353001836237 A 302.22222222222223 302.22222222222223 0 0,1 348.88888888888874 238.2678779673697 L 329.9999999999999 205.55136271329093" fill="none" stroke="black" stroke-width="12.8"/>
    <path d="M 440.9596195932437 165.1653639758493 L 447.5196618606611 202.3692124229771 A 302.22222222222223 302.22222222222223 0 0,1 552.4803381393389 202.3692124229771 L 559.0403804067562 165.16536397584923" fill="none" stroke="black" stroke-width="12.8"/>
    <path d="M 694.2646998163764 268.4843460795977 L 669.9816123393293 297.423802819648 A 264.44444444444446 264.44444444444446 0 0,1 748.4964930522735 409.5546732094341 L 819.4954910672088 383.7131512692724" fill="none" stroke="black" stroke-width="12.8"/>
    <path d="M 670.0 205.55136271329087 L 651.1111111111111 238.26787796736966 A 302.22222222222223 302.22222222222223 0 0,1 731.5156539204022 305.7353001836236 L 760.4551106604524 281.4522127065766" fill="none" stroke="black" stroke-width="12.8"/>
  </g>
</svg>
