<?xml version='1.0' encoding='ASCII' standalone='yes'?>
<svg xmlns="http://www.w3.org/2000/svg" xmlns:xlink="http://www.w3.org/1999/xlink" version="1.1" width="1000.0px" viewBox="0 0 1000.0 1000.0" height="1000.0px">
  <g transform="translate(858.6283305884593, 437.1681469282041) scale(1 1) translate(0, 0) scale(1.7453292519943293 1.7453292519943293) "><g id="color">
    <path fill="#6a462f" d="m46.2822,42.9446l1.9958,5.7265c.1351.3878.1431.8086.0227,1.2012l-2.1388,6.9763c-.0497.1622-.1206.3172-.2109.4609l-1.6129,2.5682c-.2522.4015-.3171.8929-.1779,1.3461h0c.2038.6635.8052,1.1254,1.4988,1.151l.6336.0234c.3575.0132.7117-.0732,1.0229-.2496l1.8371-1.041c.3818-.2163.6785-.5563.8412-.9638l3.5694-8.9413c.1454-.3641.1764-.7638.089-1.146l-.15-.656c-.015-.0656-.0316-.1237-.0546-.1869-.218-.5997-1.5018-4.104-2.5846-6.4692-.4373-.9553-1.5494-1.3941-2.5161-.9825l-1.8992.8085c-.1451.0618-.2175.2254-.1656.3744Z"/>
    <path fill="#6a462f" d="m57.3414,29.9148l.0541,2.6959-.6894,6.3165c-.2229,2.0424.1098,4.1071.963,5.976l.1192.261c.4826,1.0571.81,2.1782.9497,3.3319.3918,3.2356,3.4177,10.0194,7.9469,8.249l-.7121-.5168c-.4942-.696-.8829-1.4611-1.1534-2.2707l-1.1636-3.4816c-.3018-.9031-.4627-1.8453-.4769-2.7974-.0396-2.6554-.1195-8.0946-.114-8.394.0042-.2293-.2008-2.4188-.3749-4.2281-.1548-1.6096-.646-3.1659-1.4415-4.5737l-.8015-1.4183c-.1587-.2808-.3958-.5094-.6822-.6577h0c-1.1183-.5789-2.4488.2489-2.4236,1.5079Z"/>
    <path fill="#a57939" d="m10.81,13.29c1.139,3.392-2.043,5.957-2.92,8.968-1.6486,1.8295-2.8915,5.8362.0156,6.6388.4897.1352,1.0142-.0136,1.4058-.3374,2.145-1.7737,5.9551-3.602,6.1515-3.1384l1.3717,2.2748c.0225.0373.0404.0693.06.1082.3297.657,3.6088,7.2419,3.6744,9.336.3465,3.8283,4.5419,5.0954,5.9606,8.1521.0448.0965.0794.1984.1074.301,1.1603,4.255,2.4208,8.5503,2.7081,12.9726.0213.3284-.031.6701-.2029.9508-1.5534,2.5368,2.7822,5.555,3.5038,1.7724,1.158-3.662-.7283-7.357-.6783-11.06.2027-1.7795-.383-4.6919.0956-6.4533.1886-.6941.8528-1.1522,1.572-1.1628l12.344-.1816c.8084-.0119,1.6058-.1881,2.3439-.518h0c.7074-.3161,1.5378-.1098,2.009.5053,1.1635,1.5191,3.2879,4.4016,4.4043,6.5916.0718.1409.124.2873.157.442.744,3.4871-.5779,6.9732-1.6401,10.246-1.162,2.592,2.062,4.688,3.234,1.698,1.3837-4.2038,2.6449-8.5471,2.8963-12.9995.013-.2309-.014-.47-.0958-.6863-.8542-2.2579-3.0066-3.0182-1.7365-5.6442,2.198-1.901,3.8361-6.8874,3.3827-9.9146-.436-2.9103-.7916-4.1385-4.7836-5.7724-.0958-.0392-.2005-.0738-.3009-.0986-5.9454-1.4665-12.0619,1.6061-18.0259.6964-.0479-.0073-7.194-.3742-9.2552-3.2316-2.368-3.529-5.572-6.668-9.713-7.966-2.63-.6877-4.81-3.352-7.689-2.602l-.3564.1125Z"/>
    <path fill="#6a462f" d="m22.0308,41.189l.5594,5.3463c.06.5738.2222,1.1323.4789,1.649l.4133.8322c.459.9241.6106,1.9707.4327,2.987l-.8242,4.7083c-.0232.1327-.052.2644-.0862.3947l-.784,2.9853c-.1204.4585-.0354.9468.233,1.3375h0c.393.5721,1.105.8329,1.7745.6498h0c.8036-.2198,1.5347-.6454,2.129-1.2292.4513-.4433.8868-.9178.8868-1.0985,0-.2697,1.0342-3.8684,1.6152-5.8689.252-.8676.2546-1.7827.0104-2.6525l-1.3748-4.8963c-.1252-.4459-.3137-.8714-.5599-1.2637l-.5795-.9235c-.47-.749-1.1361-1.3549-1.9262-1.7519l-2.3982-1.2051-.0002-.0005Z"/>
  </g>
  <g id="line">
    <path fill="none" stroke="#000" stroke-linecap="round" stroke-linejoin="round" stroke-width="2" d="m16.31,22.62c-.264,3.606-4.25,3.438-4.25,3.438l-1.571,1.736c-1.304,2.826-4.804.8261-4.804-1.236,1.508-3.415,3.062-5.75,3.062-5.75-.125-2.792,3.312-4.625,3.312-4.625l-1.278-1.772c-.4364-.5685-.0718-1.388.6417-1.455,1.253-.1186,3.615-.1459,4.574,1.977,0,0,8.865.9329,13.96,10.43.238.4441,9.877,2.308,16.07.4421,4.284-1.29,17.05-2.062,17.28,10.5.1169,6.406-1.252,15.1,2.998,19.52"/>
    <path fill="none" stroke="#000" stroke-linecap="round" stroke-linejoin="round" stroke-width="2" d="m59.19,37.02c-.4424,1.631-1.221,3.426-2.589,4.642,0,0,1.096,4.786,3.172,6.804l-2.71,12.17-1.062,1.927c-.3055.5545-.8885.8989-1.522.8989h0c-1.252,0-2.096-1.276-1.594-2.423.968-2.212,2.16-5.956,2.389-11.3,0,0-6.722-6.584-6.104-12.48"/>
    <path fill="none" stroke="#000" stroke-linecap="round" stroke-linejoin="round" stroke-width="2" d="m17.78,27.49l2.668,5.633s-1.153,6.343,3.287,9.168l2.422,1.557,2.513,9.234.9167,6.833-.4839,1.213c-.4446,1.114.3761,2.325,1.576,2.325h0c.7126,0,1.349-.4454,1.594-1.115l.7465-2.045c.2401-.6576.2986-1.368.1694-2.056l-1.331-7.089-.1597-8.684s7.241,2.141,14.32-.6019"/>
    <path fill="none" stroke="#000" stroke-linecap="round" stroke-linejoin="round" stroke-width="2" d="m23.51,47.21l.6035,4.42-1.74,7.287-.3672.9192c-.482,1.207.4068,2.519,1.706,2.519h0c.7335,0,1.397-.4362,1.687-1.11l.7899-1.831"/>
    <path fill="none" stroke="#000" stroke-linecap="round" stroke-linejoin="round" stroke-width="2" d="m48.9,60.26l-1.452,1.652c-.4179.4755-1.061.6861-1.68.5495h0c-1.223-.2701-1.771-1.698-1.033-2.71,1.422-1.951,3.394-5.35,4.771-10.52,0,0-.9047-2.133-1.716-4.966"/>
  </g>
</g>
  <g transform="translate(838.0006009572421, 567.4065061316095) scale(1 1) translate(0, 0) scale(1.7453292519943293 1.7453292519943293) "><g id="color">
    <path fill="#FFFFFF" stroke="none" d="M10.2544,20.6688l1.75,1.4167c0,0-7.6667,8-5.3333,13.5l4.1667-0.1667c0,0,1.8333-3.75,6.3333-4.75 l1,3.3333c0,0,4.1667,3.6667,4.3333,3.9167c0.1667,0.25,2.6667,4.1667,2.6667,4.1667l3.4167,1.6667l0.75,7.25l-1.1667,10l2.5,0.75 l1.25-0.6667l2.0833-16.5l3.75,0.3333l9.25-1.75l2.5833-3.4167l3.4167,4.75l1.9167,4.6667l-0.3333,6.25l-1.25,3.25l-0.8333,2 l1.5,0.75l1.6667-0.25l1.6667-3.5833l2.1667-9.25l-2.0833-4.3333l2.6667-4c0,0,2.3333-7.5-1.5833-11.6667s-8-3.5-8-3.5 l-7.8333,1.75c0,0-6.5833-0.0833-6.8333-0.0833s-4.9167-0.9167-4.9167-0.9167s0.5833-2.3333-1.75-4.0833 s-13.3333-4.9167-13.3333-4.9167S11.671,17.1688,10.2544,20.6688z"/>
    <path fill="#d0cfce" stroke="none" d="M49.5877,39.7521l-2.5833,3.4167l1.25,6.25l-4.5,10.6667c0,0,2.75,1.0833,3.0833,1.0833 s5.25-8.1667,5.25-8.1667s2.4167-4.8333,0.9167-8.5C51.5044,40.8355,49.5877,39.7521,49.5877,39.7521z"/>
    <path fill="#d0cfce" stroke="none" d="M13.2752,22.5855c0,0,3.4375-4.4375,17.0625,4.1667l0.5833-1.1667l-1.75-4.0833l-12.5-4.8333 c0,0-7.1149,0.8377-5.75,4.25C10.9627,21.023,13.2752,22.5855,13.2752,22.5855z"/>
  </g>
  <g id="hair"/>
  <g id="skin"/>
  <g id="skin-shadow"/>
  <g id="line">
    <path fill="none" stroke="#000000" stroke-linecap="round" stroke-linejoin="round" stroke-miterlimit="10" stroke-width="2" d="M18.1544,25.4082c0,0,1.3961,4.9702-2.513,6.0871s-4.8585,3.7416-4.8585,3.7416s-3.9092,1.8987-4.691-1.8987 s3.6858-8.3768,3.6858-8.3768l2.5689-2.5689l-1.9546-1.6754c0,0,2.8768-5.4202,8.2748-3.2422s10.6667,4.3604,10.6667,4.3604 s2.0563,1.7299,1.6654,4.1871c0,0,8.068,2.0936,17.8564-0.7505c1.3381-0.3888,2.7579-0.3941,4.1104-0.0589 c2.3706,0.5875,5.6294,2.1206,7.0727,6.1147c2.4013,6.6456-3.0156,12.6768-3.0156,12.6768l1.9546,4.6351l-1.5078,8.9911 l-1.8002,3.0923c-0.1983,0.3657-0.581,0.5935-0.997,0.5935h-1.0495c-0.8724,0-1.4182-0.9437-0.9831-1.6999l1.3675-2.3768 c1.2584-2.9501,1.3444-6.2662,0.2583-9.2841c-1.5204-4.2249-4.335-8.5601-4.335-8.5601s-3.0715,7.2894-12.7125,4.4197"/>
    <path fill="none" stroke="#000000" stroke-linecap="round" stroke-linejoin="round" stroke-miterlimit="10" stroke-width="2" d="M19.0934,33.6473c0,0,0.8495,1.464,2.0882,2.5242c1.1976,1.025,2.1398,2.3157,2.8434,3.7263 c0.8153,1.6348,2.2451,3.4701,4.6282,3.8275l0.6143,7.204c0,0-0.0317,6.342-0.943,9.2166 c-0.1843,0.5813,0.237,1.1707,0.8468,1.1706l1.9491,0c0.4895,0,0.8879-0.3939,0.8935-0.8834l0.4368-9.2245l0.7312-6.6456 c0,0-0.3909-4.4118,0.7818-6.0871"/>
    <path fill="none" stroke="#000000" stroke-linecap="round" stroke-linejoin="round" stroke-miterlimit="10" stroke-width="2" d="M47.1071,42.9513c0,0-0.9404,1.4675,1.153,6.7496c-0.8139,3.3558-1.8987,6.9806-4.4676,9.9404 c-0.3367,0.5956,0.2093,1.3403,0.8935,1.3403h1.3615c0.7774,0,1.4913-0.4289,1.8564-1.1152l0.8029-1.5095l2.4297-5.4235"/>
    <path fill="none" stroke="#000000" stroke-linecap="round" stroke-linejoin="round" stroke-miterlimit="10" stroke-width="2" d="M62.4291,27.2511c0,0,4.9702-1.452,3.1832,14.5756"/>
    <path fill="none" stroke="#000000" stroke-linecap="round" stroke-linejoin="round" stroke-miterlimit="10" stroke-width="2" d="M40.5017,26.6978c0,0,5.665,4.3043,1.9983,14.3043"/>
    <path fill="none" stroke="#000000" stroke-linecap="round" stroke-linejoin="round" stroke-miterlimit="10" stroke-width="2" d="M37.0914,43.8319c0,0,2.5452-6.7005,0.4651-12.6171"/>
    <path fill="none" stroke="#000000" stroke-linecap="round" stroke-linejoin="round" stroke-miterlimit="10" stroke-width="2" d="M47.4134,25.6578c0,0,3.6699,5.5943,1.0033,10.511"/>
    <path fill="none" stroke="#000000" stroke-linecap="round" stroke-linejoin="round" stroke-miterlimit="10" stroke-width="2" d="M24.9876,40.8241c0,0,2.8881-8.4483,0-13.9483"/>
  </g>
</g>
  <g transform="translate(778.1365979617372, 684.8962273121792) scale(1 1) translate(0, 0) scale(1.7453292519943293 1.7453292519943293) "><g id="color">
    <g id="color-2">
      <path fill="#9b9b9a" d="m44.8558,41.7055l1.8786,3.808c.6568,1.1378.7836,2.5059.347,3.7451l-.5114,1.8044-2.0759,2.672-.1644.8016.7399.4522,2.8651-.7223c3.101-5.0856,3.6135-7.7164,3.6135-7.7164l-.6095.0923s-1.838-5.0974-2.791-6.6006l-3.2918,1.664v-.0002h0Z"/>
      <path fill="#9b9b9a" d="m26.3104,44.8565c.2066.9312.5895,1.8143,1.1281,2.6015l.3661,1.8989-1.521,4.604.3289.7605.9044.0617,2.308-1.3851,1.1164-2.6048-1.0929-7.2182-1.3366-2.1303-2.2675-1.0804c-.3199-.1524-.6788.1189-.6193.4683l.6855,4.024Z"/>
      <path fill="#d0cfce" d="m16.3106,16.1175c.9122,2.7165.8009,4.0043-1.6017,7.2077-1.4375,1.5953-4.0042,7.8419-.8009,8.0085,1.5753-1.5224,6.4131-4.2214,6.5845-3.8169l1.1252,1.866s3.5408,5.419,3.5961,7.1849c.5579,4.0751,3.6627,4.2449,4.3661,5.4334.9818,3.6078,1.8931,7.9973,2.0573,11.7581-1.7411,2.0734,2.0133,4.8428,2.6164,1.6818.9274-2.9327-.5833-5.091-.5432-8.0566.2073-1.8195-1.3827-5.6395.219-4.8387s11.2119,0,11.2119,0l2.6263-2.2494s3.0376,3.7816,4.2605,6.2787c.6858,2.855.3896,5.3039-.48,7.9835-.9306,2.0758,1.464,2.3946,2.4026,0,1.1372-3.4549,1.5676-5.2582,1.7302-8.9221-.6032-2.0222-.6152-2.1156.4507-4.3196,1.1664-.5832,1.5104-4.3346,2.3113-5.9363-.3085-2.3657-2.6165-6.7119-6.0293-7.129-6.5602-1.6685-10.504,3.0336-21.0079-.3413-1.8964-2.8262-4.8797-7.0751-8.1961-8.1146-2.1062-.5507-3.8521-5.087-6.1578-4.4864l-.7411.8085h0Z"/>
      <polygon fill="#3f3f3f" points="30.33 24.9847 30.9192 23.9422 25.6162 19.3191 23.2139 18.2766 22.8967 19.1604 26.772 21.2227 30.33 24.9847"/>
    </g>
  </g>
  <g id="line">
    <g id="line-2">
      <path fill="none" stroke="#000" stroke-linecap="round" stroke-linejoin="round" stroke-width="1.6017" d="m21.1157,25.7278c0,1.619-2.4554,3.095-4.057,3.8856-.6723.3319-1.28.7727-1.8244,1.2882-.8505.8053-2.1252.3942-2.8394-.4097-.4605-.5183-.5325-1.2832-.2398-1.9117,1.1074-2.378,2.1582-3.9569,2.1582-3.9569-.4052-3.7007,3.4533-4.5048,3.4533-4.5048l-1.8243-3.8217c-.3495-.4553-.0575-1.1116.5139-1.1652,1.0035-.095,3.6959,2.2857,4.464,3.9858,0,0,6.2987.7471,10.379,8.3529.1906.3557,8.7109,1.8484,13.6705.3541,3.4309-1.0331,13.6545-1.6514,13.8387,8.4089.0936,5.1303-.1496,3.1393,1.2113,7.2219"/>
      <path fill="none" stroke="#000" stroke-linecap="round" stroke-linejoin="round" stroke-width="1.6017" d="m56.3259,39.7615c-.5832,1.3609-.5832,1.1664-.7776,1.7497,0,0-.3888,2.9161.4301,4.4613l-1.0999,6.9794c-.0766.4863-.2262.9548-.4448,1.3959-.4347.8774-1.013,2.113-1.8942,2.0326-1.072.019-1.7077-1.1798-1.2363-2.0318.7676-1.7292.8919-3.1506,1.0721-7.3566,0,0-5.3833-5.2728-4.8884-9.9946"/>
      <path fill="none" stroke="#000" stroke-linecap="round" stroke-linejoin="round" stroke-width="1.6017" d="m22.3482,29.1737l2.1367,4.5112s-.9234,5.0798,2.6324,7.3422l1.9397,1.2469,2.0125,7.3951.7341,3.8705-.3875.9714c-.3561.8921.3012,1.862,1.2621,1.862h0c.5707,0,1.0803-.3567,1.2766-.893l.5978-1.6377c.1923-.5266.2391-1.0956.1357-1.6466l-1.0659-4.0755-.1279-5.3529s5.799,1.7146,11.4682-.482"/>
      <path fill="none" stroke="#000" stroke-linecap="round" stroke-linejoin="round" stroke-width="1.6017" d="m26.9371,44.9666l.4833,3.5398-1.3935,4.2341-.2941.7361c-.386.9666.3258,2.0173,1.3663,2.0173h0c.5874,0,1.1188-.3493,1.351-.8889l.6326-1.4664"/>
      <path fill="none" stroke="#000" stroke-linecap="round" stroke-linejoin="round" stroke-width="1.6017" d="m47.2707,53.816l-1.1628,1.323c-.3347.3808-.8497.5495-1.3454.4401h0c-.9794-.2163-1.4183-1.3598-.8273-2.1703,1.1388-1.5625,2.7181-2.6829,3.8209-6.8233l-1.0131-2.4381"/>
      <path fill="none" stroke="#000" stroke-linecap="round" stroke-linejoin="round" stroke-width="1.6017" d="m30.7259,25.7278l.8009-1.6017s-4.0043-5.606-8.8094-6.4068l-.7135,1.6444"/>
    </g>
  </g>
</g>
  <g transform="translate(684.8962273121792, 778.1365979617372) scale(1 1) translate(0, 0) scale(1.7453292519943293 1.7453292519943293) "><g id="color">
    <path fill="#9B9B9A" stroke="none" d="M24.421,22.0855l-3.5,2.8333l-1.8333-0.8333l-3.6667,4.1667l-2.5,2.1667l-1,3.8333l-2.1667-0.1667 c0,0-1.8333-1.5-0.3333-6.1667l-3,2.1667l-0.3333,7.8333l-1.5,4.5l3.8333,2.5l3.8333,0.1667l5-0.3333l3.6667-4.3333h2.8333 l1.6667,1.8333l4.3333,0.6667l4.1667,6.8333c0,0,0.8333,4.5,1,5c0.1667,0.5-0.5,3.6667-0.5,3.6667s1.5,0.6667,2.1667,0.6667 s3.6667-1.1667,3.6667-1.1667l-1-10.5c0,0,7.229,4.5277,13.0623-2.4723l2.1044-2.6943l2.5,4l-0.1667,3l1,2.8333l-2.3333,3.6667 l0.3333,1.1667l6.3333,0.6667l2.1667-7.1667l-0.6667-5.5l3.6667-6.8333c0,0,3.3333-10.8333-8.3333-18.5 c0,0-6.1667-1.5-6.6667-1.3333s-6.8333,2.1667-6.8333,2.1667l-7.6667,0.1667l-4-1.1667L24.421,22.0855z"/>
    <path fill="#3F3F3F" stroke="none" d="M24.3176,41.273l1.5625,5.875l3,3.5l0.5625,3.625c0,0-1.6875,3.5-1.5,3.6875 c0.1875,0.1875,2.875,1.5,2.875,1.5h4.375l-1.0625-2.75l1.0625-3c0,0-1.25-2.625-1.25-2.8125s-2.3125-4.375-2.3125-4.375 l-2.2708-3.6042C29.3593,42.9188,26.5051,43.523,24.3176,41.273z"/>
  </g>
  <g id="hair"/>
  <g id="skin"/>
  <g id="skin-shadow"/>
  <g id="line">
    <path fill="none" stroke="#000000" stroke-linecap="round" stroke-linejoin="round" stroke-miterlimit="10" stroke-width="2" d="M29.7551,43.0942l4.2252,7.1483l1.057,4.6127l-0.5631,1.9861c-0.2869,1.0119,0.4346,2.0286,1.4396,2.0286h2.8741 c0.9019,0,1.6005-0.8291,1.491-1.7697l-1.1762-10.1038c0,0,8.4451,5.7747,15.7737-5.2106"/>
    <path fill="none" stroke="#000000" stroke-linecap="round" stroke-linejoin="round" stroke-miterlimit="10" stroke-width="2" d="M18.9041,31.7483c5.1224-1.908,1.7838-7.7242,1.7838-7.7242c-3.3336-0.3844-4.7764,4.5933-4.7764,4.5933l-3.1805,1.9114 l-0.0941,2.8007c0,0-0.5627,2.5656-2.9388,1.7696"/>
    <path fill="none" stroke="#000000" stroke-linecap="round" stroke-linejoin="round" stroke-miterlimit="10" stroke-width="2" d="M20.0425,36.1389c0,0,1.7684,2.6797-0.5488,6.342c-2.7309,4.3161-7.7917,2.4656-7.7917,2.4656 c-2.6019,0.9823-6.22-1.324-6.22-1.324c-1.992-2.3918,0.8537-5.7232,0.8537-5.7232S4.1403,31.6209,8.531,27.8197"/>
    <path fill="none" stroke="#000000" stroke-linecap="round" stroke-linejoin="round" stroke-miterlimit="10" stroke-width="2" d="M21.5105,26.1052c0,0,5.5993-8.1508,13.7485-6.1869l0,0c0.671,0.4595,1.4575,0.7136,2.2704,0.7375 c2.5141,0.0742,8.1558,0.0726,11.4125-1.2355c1.418-0.5695,2.9023-0.9803,4.4303-0.9653c1.4896,0.0146,3.3543,0.2847,5.3462,1.176 c3.7001,1.6555,6.3883,4.9459,7.6749,8.7898c1.2832,3.8339,2.1646,9.523-1.4753,13.963l-1.7481,2.5626 c0,0-6.5046,4.9544-8.2934-3.1606c0,0-0.6911-5.4897,1.3416-11.5859"/>
    <path fill="none" stroke="#000000" stroke-linecap="round" stroke-linejoin="round" stroke-miterlimit="10" stroke-width="2" d="M37.8424,29.6135c2.878,4.6869,3.018,8.9749,0.497,13.4807c-2.0407-2.6033-5.4975-1.2656-5.4975-1.2656l-3.3336,1.3667 c-4.3093,0.1708-5.285-3.246-5.285-3.246l2.8458-12.8131l3.9028-2.3918"/>
    <path fill="none" stroke="#000000" stroke-linecap="round" stroke-linejoin="round" stroke-miterlimit="10" stroke-width="2" d="M57.6438,49.4242l0.1597,2.9965l-1.8365,2.7749c-0.752,1.1363,0.0219,2.692,1.3393,2.692h3.5225 c0.7152,0,1.3469-0.4894,1.5583-1.2072l1.9211-6.5234l-1.1383-5.2106"/>
    <path fill="none" stroke="#000000" stroke-linecap="round" stroke-linejoin="round" stroke-miterlimit="10" stroke-width="2" d="M27.1098,46.9288l2.6832,4.0533l-0.2033,3.7023l-1.0413,2.6797c-0.2318,0.5966,0.1859,1.2497,0.7992,1.2497h1.3804"/>
  </g>
</g>
  <g transform="translate(567.4065061316095, 838.0006009572421) scale(1 1) translate(0, 0) scale(1.7453292519943293 1.7453292519943293) "><g id="color">
    <path fill="#FFFFFF" stroke="none" d="M55.0252,31.0855l1.2292,9.9167c0,0-1,6.75,4.6667,3.8333l-1.6667-3.1667l1.0833-4.5833l-0.9167-4.1667 L55.0252,31.0855z"/>
    <path fill="#A57939" stroke="none" d="M17.7127,20.398l-10.375,5.625l0.625,2.1875c0,0,6.625,0.3125,7.25,1.6875s-2.375,13.8125,10.875,18.4375 l3.375,15.25c0,0-1.75,4.5625-1.5625,4.4375s2.875-0.0625,2.875-0.0625l1.875-5.5625l-0.25-7.8125l-0.5-5l4.3125,0.3125 l7.25-1.0625l4.3125-0.1875l2.75,4.375l-2.9375,10.8125l-2.6875,4.125h3.875l5.5-10.0625l1.25-3.75l-1.75-7.1875l3.3125-9.8125 c0,0,0.3125-3.5625-2.0625-6.0625s-13.25,0.5-13.25,0.5L30.2127,30.148l-4.3125,0.3125l-1.4375-2.5l-0.6875-2.8125 c0,0,3-0.125,3.1875-3.1875c0,0-3.375-2.75-6.5-0.1875C20.4627,21.773,17.9627,19.7105,17.7127,20.398z"/>
    <polygon fill="#6A462F" stroke="none" points="20.921,45.5855 22.0877,51.3355 23.8377,62.4188 21.921,67.8355 24.8377,67.8355 27.421,62.1688 27.3377,53.5021 26.0877,48.3355"/>
  </g>
  <g id="hair"/>
  <g id="skin"/>
  <g id="skin-shadow"/>
  <g id="line">
    <path fill="none" stroke="#000000" stroke-linecap="round" stroke-linejoin="round" stroke-miterlimit="10" stroke-width="2" d="M28.1685,67.0208l1.1788-3.4527L25.9181,48.107c-12.3235-3.8578-10.3927-17.6861-10.3927-17.6861 c-0.1921-1.7655-3.3238-1.8171-3.3238-1.8171l-2.6499,0.2126c-0.8005,0.0642-1.544-0.4182-1.8116-1.1753l-0.2103-0.595 c-0.2696-0.7629,0.0713-1.6072,0.795-1.969l9.0205-4.5102c0,0,2.2172-0.8563,3.168,1.5187c0,0,1.1184-2.6975,6.4764-0.5542 c0,0-0.4286,4.0721-5.1437,4.0721"/>
    <path fill="none" stroke="#000000" stroke-linecap="round" stroke-linejoin="round" stroke-miterlimit="10" stroke-width="2" d="M33.0263,39.7485l0.5358,5.6795c0,0-3.0005,3.0188-2.1432,9.0642"/>
    <polyline fill="none" stroke="#000000" stroke-linecap="round" stroke-linejoin="round" stroke-miterlimit="10" stroke-width="2" points="23.0964,51.1838 24.0608,62.6628 22.2391,66.8421"/>
    <path fill="none" stroke="#000000" stroke-linecap="round" stroke-linejoin="round" stroke-miterlimit="10" stroke-width="2" d="M23.7837,28.6554c0,0,0.671,3.2268,4.8768,1.8649c0.9554-0.3094,1.9838-0.2964,2.9608-0.064 c2.4541,0.5839,10.0605,1.4413,13.8729,0.783c0.5614-0.0969,1.1066-0.2553,1.637-0.4631c1.5592-0.6108,6.7173-2.1085,11.707,2.3083 c2.0034,1.7733,1.7879,4.751,1.0301,7.2283C59.8581,40.3464,59,43.023,60.4121,44.0855"/>
    <polyline fill="none" stroke="#000000" stroke-linecap="round" stroke-linejoin="round" stroke-miterlimit="10" stroke-width="2" points="47.6356,37.391 46.7784,46.5842 50.8505,53.2505 47.4678,63.8914 45.1174,67.0208"/>
    <path fill="none" stroke="#000000" stroke-linecap="round" stroke-linejoin="round" stroke-miterlimit="10" stroke-width="2" d="M56.125,37.391c0,0,0.9716,4.995-2.0778,9.7294c0,0,0.1072,3.88,1.3931,6.2375l-2.036,4.1551"/>
    <path fill="none" stroke="#000000" stroke-linecap="round" stroke-linejoin="round" stroke-miterlimit="10" stroke-width="2" d="M18.2026,20.2453c0,0,0.8573-4.1257,7.5548-2.4647c0,0,6.001,0.4822,7.9835-5.1437s-2.1788-7.698-2.1788-7.698"/>
    <path fill="none" stroke="#000000" stroke-linecap="round" stroke-linejoin="round" stroke-miterlimit="10" stroke-width="2" d="M37.8498,8.1547c0,0,2.8621,1.9342,0.2904,4.8651c-2.5013,2.8506-4.8487,2.0226-4.8487,2.0226"/>
    <path fill="none" stroke="#000000" stroke-linecap="round" stroke-linejoin="round" stroke-miterlimit="10" stroke-width="2" d="M14.5055,11.0295c0,0-1.2151,4.9964,1.2859,6.9654s2.4111,2.5629,2.4111,2.5629"/>
    <path fill="none" stroke="#000000" stroke-linecap="round" stroke-linejoin="round" stroke-miterlimit="10" stroke-width="2" d="M27.847,10.6544c0,0-1.3159,1.711,0.1307,4.1802c0,0,0.6376,1.6171-0.6575,2.8709"/>
    <path fill="none" stroke="#000000" stroke-linecap="round" stroke-linejoin="round" stroke-miterlimit="10" stroke-width="2" d="M20.5065,17.7055c0,0-1.9289-2.3896,0.6965-5.015"/>
    <path fill="none" stroke="#000000" stroke-linecap="round" stroke-linejoin="round" stroke-miterlimit="10" stroke-width="2" d="M36.24,48.9236c4.753,0.5107,8.8861,0.5288,11.6242-0.5618"/>
  </g>
</g>
  <g transform="translate(437.1681469282041, 858.6283305884593) scale(1 1) translate(0, 0) scale(1.7453292519943293 1.7453292519943293) "><g id="color">
    <path fill="#6a462f" d="m35.8973,64.7256c-3.4639,0-6.3277-2.367-6.9793-4.9037l-1.1992-7.8519c-.2064-1.3515-.5599-2.6813-1.0663-3.9512-2.6082-6.5412-2.0971-7.4668-1.0318-10.3323.926-2.4909,2.2957-4.5322,4.2441-4.5322l5.3523.9445c3.6922,1.0018,6.952,4.0742,6.952,6.8399l.8311,19.1816c0,2.7657-3.6392,4.6052-7.1031,4.6052"/>
    <path fill="#6a462f" d="m36.1609,64.7256c-3.4639,0-7.1031-1.8395-7.1031-4.6052l.8311-19.1816c0-2.7657,3.2103-5.924,6.5304-6.6396l5.5527-.9159c1.9485,0,3.2085,1.6238,4.1345,4.1147,1.0653,2.8655,1.9073,3.9796-.7009,10.5208-.5064,1.2699-.8599,2.5997-1.0663,3.9512l-1.1992,7.8519c-.6516,2.5366-3.5154,4.9037-6.9793,4.9037"/>
    <path fill="#6a462f" d="m52.5458,15.2313l-4.4568,6.8216c-1.4078.8477-1.713,1.0482-3.3009,1.8415,0,0-2.9192,10.5941-2.8436,10.8861l3.1203,7.0233c1.6321-1.5401,4.8402-4.5332,7.7257-7.0021,0,0,6.4225-6.5928,6.4743-6.6965l1.7128-5.4124c-.7854-.6237-7.4846-6.653-8.4317-7.4615Z"/>
    <path fill="#6a462f" d="m19.1506,15.693c1.8169,2.6118,4.8877,7.9475,6.0941,8.0624,0,0,2.7763,1.658,3.1417,2.6118.2015.5259,1.5072,8.2636,1.4316,8.5556l-4.8004,4.6925c-1.6321-1.5401-6.7667-5.1393-9.6522-7.6082l-4.6558-9.1601c1.2113-.9841,8.4409-7.154,8.4409-7.154Z"/>
    <path fill="#a57939" d="m35.9898,44.317h0c-2.6192,0-2.8048,3.172-2.8048,2.3859l-1.535-6.2234c-.5401-2.1899.9628-4.3606,3.2035-4.6185.4552-.0524.9232-.0816,1.3884-.0816h0c.4503,0,.9022.0273,1.3418.0766,2.2469.2519,3.7485,2.4401,3.198,4.6331l-1.5596,6.2138c0,.786-.6131-2.3859-3.2323-2.3859Z"/>
    <path fill="#a57939" d="m40.2803,45.5578l.5425,15.0955c0,2.1765-2.3753,3.6242-4.6361,3.6242h0c-2.2609,0-4.5553-1.6825-4.5553-3.8591l.4616-14.8606c0-2.1765,1.8328-3.941,4.0937-3.941h0c2.2609,0,4.0937,1.7644,4.0937,3.941h0Z"/>
    <circle cx="29.6943" cy="42.4918" r="1.0994"/>
    <circle cx="42.5428" cy="42.7838" r="1.0812"/>
  </g>
  <g id="line">
    <path fill="none" stroke="#000" stroke-linecap="round" stroke-linejoin="round" stroke-width="2" d="m39.4036,42.2144s-.1933,5.4421,1.7193,11.2793c.3049.9307.5365,1.8962.5706,2.8889.0267.7785-.0542,1.5753-.4262,1.9477-.338.3383-.4832.7981-.5429,1.1831-.1212.7808-.367,1.528-.6712,2.2411h0c-.0989.2318-.2557.4254-.4573.5423-.3497.2028-.9402.3439-1.657-.2808"/>
    <path fill="none" stroke="#000" stroke-linecap="round" stroke-linejoin="round" stroke-width="2" d="m33.0412,42.2144s.196,5.4421-1.7166,11.2793c-.3049.9307-.5365,1.8962-.5706,2.8889-.0267.7785.0542,1.5753.4262,1.9477.338.3383.4832.7981.5429,1.1831.1212.7808.367,1.528.6712,2.2411h0c.0989.2318.2557.4254.4573.5423.3497.2028.9402.3439,1.657-.2808"/>
    <path fill="none" stroke="#000" stroke-linecap="round" stroke-linejoin="round" stroke-width="2" d="m60.4206,21.702l-6.538-5.7317c-.5504-.4825-1.4212-1.2484-2.0323-.307"/>
    <path fill="none" stroke="#000" stroke-linecap="round" stroke-linejoin="round" stroke-width="2" d="m60.4206,21.702h0c1.7531,1.4818-1.7928,9.0787-7.3015,12.9285-1.1637.8132-5.0478,2.1997-6.6787,6.114"/>
    <path fill="none" stroke="#000" stroke-linecap="round" stroke-linejoin="round" stroke-width="2" d="m51.828,15.6531c-.2956.5505-3.8049,6.219-4.3576,7.1273-.3626.5959-1.7971.8999-2.0695.8728-.2283-.0227-.46.0609-.6108.2655-.5685.7712-2.3056,3.3194-2.7405,8.8749"/>
    <path fill="none" stroke="#000" stroke-linecap="round" stroke-linejoin="round" stroke-width="2" d="m11.3419,21.8443l6.538-5.7317c.5504-.4825,1.4212-1.2484,2.0323-.307"/>
    <path fill="none" stroke="#000" stroke-linecap="round" stroke-linejoin="round" stroke-width="2" d="m11.3419,21.8443h0c-1.7531,1.4818,1.7928,9.0787,7.3015,12.9285,1.1637.8132,5.0478,2.1997,6.6787,6.114"/>
    <path fill="none" stroke="#000" stroke-linecap="round" stroke-linejoin="round" stroke-width="2" d="m19.9345,15.7954c.2956.5505,3.8049,6.219,4.3576,7.1273.3626.5959,1.7971.8999,2.0695.8728.2283-.0227.46.0609.6108.2655.5685.7712,2.3761,3.1771,2.8109,8.7326"/>
  </g>
</g>
  <g transform="translate(306.92978772479876, 838.0006009572421) scale(1 1) translate(0, 0) scale(1.7453292519943293 1.7453292519943293) "><g id="color">
    <path fill="#a57939" d="M11.3922,31.7927a8.1054,8.1054,0,0,0,1.0984,3.4817,7.9042,7.9042,0,0,1,.4561,6.7451,5.5677,5.5677,0,0,0-.1055,5.21v7.27a2.5032,2.5032,0,0,0,2.5,2.501h3.1162a1,1,0,0,0,.9991-.9619c.0107-.2686.0664-2.669-1.1709-3.9551a2.599,2.599,0,0,0-.9131-.62v-3.624c1.1328-.8155,3.9883-3.11,4.8955-6.0967a11.3837,11.3837,0,0,0,6.2558,1.97c4.5606,0,8.4033-3.9813,8.4336-4.2109.33-2.5035,1.3-3.3047,1.14-3.833C36.4036,30.08,31.2733,24.0108,28.5738,21.09l-2.4679.3068C23.4,22.13,17,24.16,12.3782,27.9849,12.3782,27.9849,11.3922,29.043,11.3922,31.7927Z"/>
    <path fill="#6a462f" d="M46.5793,38.987c.2176-.1511.4292-.2939.6252-.4206l.0056-.0055c.4334-.2823.856-.54,1.2473-.763v7.59a1,1,0,0,0,1.7071.707c3.3134-3.3135,5.957-4.1992,7.5918-4.3584a4.81,4.81,0,0,0,4.0927-3.1054l2.6582-7.1719a5.7884,5.7884,0,0,0-.7636-5.4531L61.2592,22.623a4.1907,4.1907,0,0,0-3.3662-1.705l-4.98-.003c-3.4981-4.3379-11.9616-10.7274-27.6589-2.6356a.9993.9993,0,0,0-.25,1.5947c.0772.0781,8.1247,8.6093,11.06,16.0722-.9991,2.5185-2.09,6.915.3652,10.5849,2.0889,3.1211,2.13,9.4991,2.13,9.5626a1,1,0,0,0,1,.998h8.583a1,1,0,0,0,1-1c0-2.5322-.5928-4.3594-1.7608-5.4316a3.5456,3.5456,0,0,0-1.59-.8545l-1.3477-4.4063a9.7222,9.7222,0,0,0,2.13-6.41l.0042-.0029"/>
    <path fill="#6a462f" d="M26.4291,57H22.2162a1,1,0,0,1-.99-.8613c-.25-1.7891-.9229-4.63-1.6348-5.3418-1.4541-1.4541-2.0449-4.6328-2.1074-4.9912a.858.858,0,0,1,.2783-.8789A6.8691,6.8691,0,0,0,20.67,39.81a1,1,0,0,1,1.89-.0625,14.7308,14.7308,0,0,0,3.0224,1.44,1,1,0,0,1,.6514.9375c0,2.4385-1.9746,4.752-2.9522,5.748l1.459,3.4483a2.9848,2.9848,0,0,1,1.7051.9512,5.4017,5.4017,0,0,1,.9766,3.8427A.9994.9994,0,0,1,26.4291,57ZM22.6254,40.1025v0Z"/>
    <path fill="#3f3f3f" d="M63.7436,26.0059,61.2592,22.623a4.1907,4.1907,0,0,0-3.3662-1.705l-5.4658-.003h-.001c-.0139,0-.0254.0074-.0393.008a1.1925,1.1925,0,0,0-.6914.32c-.0086.0093-.0208.013-.0291.0227a11.3506,11.3506,0,0,0-1.6044,2.8565,3.404,3.404,0,0,1-1.6966-1.7554,1.0135,1.0135,0,0,0-1.0166-.59,1,1,0,0,0-.875.7851c-.051.2351-1.0817,5.3088,2.081,7.7528a32.6211,32.6211,0,0,0-.0974,5.8476v9.2253a1,1,0,0,0,1.7071.707c3.3134-3.3135,5.957-4.1992,7.5918-4.3584a4.81,4.81,0,0,0,4.0927-3.1054l2.6582-7.1719A5.7884,5.7884,0,0,0,63.7436,26.0059Z"/>
  </g>
  <g id="line">
    <path fill="none" stroke="#000" stroke-linecap="round" stroke-linejoin="round" stroke-width="2" d="M12.7288,33.3849a8.5288,8.5288,0,0,0,.634,1.4,8.9671,8.9671,0,0,1,.4782,7.6845,4.5549,4.5549,0,0,0,0,4.485V54.5A1.5005,1.5005,0,0,0,15.3415,56h3.116s.1438-3.7251-2.0851-3.7251V47.3138s5.1768-3.3074,5.1768-7.4057a10.6935,10.6935,0,0,0,6.9744,2.8041A8.92,8.92,0,0,0,32.79,41.4837"/>
    <path fill="none" stroke="#000" stroke-linecap="round" stroke-linejoin="round" stroke-width="2" d="M19.4154,48.73a4.78,4.78,0,0,0,.8825,1.36C21.57,51.3621,22.2166,56,22.2166,56h4.2128s.4348-3.7412-2.3784-3.7412l-1.9585-4.63S25.234,44.88,25.234,42.1253"/>
    <path fill="none" stroke="#000" stroke-linecap="round" stroke-linejoin="round" stroke-width="2" d="M27.5971,22.0525S4.5159,27.1421,8.6193,41.03"/>
    <path fill="none" stroke="#000" stroke-linecap="round" stroke-linejoin="round" stroke-width="2" d="M49.4575,36.1544v9.2331c3.4941-3.4942,6.3579-4.4669,8.2011-4.6467a3.8288,3.8288,0,0,0,3.2526-2.4574L63.57,31.1109a4.8041,4.8041,0,0,0-.6324-4.5133l-2.4844-3.383a3.1777,3.1777,0,0,0-2.5612-1.2967l-5.4661-.0027c-3.436-4.529-11.4876-10.5947-26.7-2.7541"/>
    <path fill="none" stroke="#000" stroke-linecap="round" stroke-linejoin="round" stroke-width="2" d="M38.1329,33.9789a15.277,15.277,0,0,0-.9928,1.9787c-1.02,2.4154-2.1653,6.6.1209,10.0169S39.56,56.0923,39.56,56.0923h5.4665c.0041-3.7518-2.3121-3.8816-2.3121-3.8816l-1.8707-6.8232c0-3.2753,3.3023-6.0344,5.8175-7.6608"/>
    <path fill="none" stroke="#000" stroke-linecap="round" stroke-linejoin="round" stroke-width="2" d="M51.8065,25.5027a4.6449,4.6449,0,0,1-4.3549-2.731s-1.1809,5.5021,2.51,7.2536"/>
    <path fill="none" stroke="#000" stroke-linecap="round" stroke-linejoin="round" stroke-width="2" d="M44.9647,56.0923h3.1778c0-5.6393-3.1159-5.3716-3.1159-5.3716l-1.2792-5.6851"/>
  </g>
</g>
  <g transform="translate(189.440066544229, 778.1365979617372) scale(1 1) translate(0, 0) scale(1.7453292519943293 1.7453292519943293) "><g id="color">
    <path fill="#fff" d="m18.171,25.1667l-.2068-.1171-1.1922-.6753c-.9428-.5341-2.0629-.6597-3.1006-.3478h0c-1.0877.3269-2.0417.9931-2.7232,1.9017-.9603,1.2803-2.2387,2.9868-2.2813,3.0539-.0465.0732-1.1788,2.0157-1.9021,3.2573-.3804.653-.4765,1.43-.2689,2.1567h0c.2924,1.0235,1.1298,1.7939,2.1743,1.9989,1.6984.3333,4.4552.5995,7.3987-.2369.4505-.128.9323-.0509,1.2965.2436,1.0695.865,3.2015,2.8955,3.5571,5.5717.0893.672.6942,1.1544,1.3721,1.1621,1.6191.0184,4.1264.508,4.1264,3.3645,0,.1402-.153,3.4814-.253,5.6511-.0562,1.2196.0459,2.4366.3033,3.6301h0c.1409.6531.7184,1.1194,1.3866,1.1194h.5787c.6709,0,1.25-.47,1.3881-1.1266l2.0186-9.5997c.159-.7559.8936-1.2457,1.6525-1.1017l2.0822.3951c.1127.0214.2276.029.3422.0227l12.0905-.6637c.1614-.0089.3201-.0452.4692-.1076l2.0671-.8639c.6992-.2922,1.5045.0167,1.8289.7016l.7097,1.4982c.1365.2882.1719.6139.1006.9247l-1.5074,6.5646c-.11.479.0358.9808.3854,1.3263l.7015.6933c.5494.543,1.4323.5466,1.9861.008h0c.6701-.6518,1.7859-.4936,2.2257.3313.3091.5796.9294.9966,2.1267.8327,1.806-.2471,2.451-.9181,2.6803-1.3378.0896-.1641.1251-.3523.1338-.539l.2896-6.2462c.0035-.0752.001-.1506-.0075-.2254l-.238-2.1002c-.0342-.3017-.1643-.5845-.3712-.8067l-2.0328-2.1838c-.2969-.3189-.4307-.7566-.363-1.187l1.3614-8.652c.021-.1334.0238-.2626.0064-.3966-.0993-.7641-.4939-3.6032-1.1632-6.016-.5788-2.0863-2.4775-3.5262-4.642-3.578-4.8393-.1157-14.3982-.3442-19.2312-.4597-1.9656-.047-3.9253.0446-5.8781.2737l-3.869.454c-1.2659.1486-2.5244.3551-3.7714.6191l-3.8368.8122Z"/>
    <path fill="#a57939" d="m22.9475,23.8211c-1.4549-.0609-2.5499.0978-3.5918.453l-2.1186.7232s-5.4553,1.8146-5.4652,6.8653c-.0099,5.0507,3.5658,4.9708,3.5658,4.9708h0c2.1886,0,4.1497,1.3531,4.9218,3.401.2541.6739.4518,1.4185.5272,2.2057.1981,2.0698,1.8822,2.8806,3.0093,3.1929.7699.2134,1.4577.6494,2.0092,1.2274h0c.4413.4625.6749,1.085.6469,1.7236l-.1067,2.4341c-.0617,1.4074-.2309,2.8081-.5063,4.1897h0c-.0563.2827.0785.5691.3323.7058h0c.748.4029,1.6235.499,2.4411.2679h0c.7519-.2125,1.3304-.8145,1.5128-1.5742l2.4557-10.2256.0664-.522c.3468-2.7284.3114-5.4921-.1053-8.2107-.2907-1.8967-.581-3.8011-.6211-4.1033-.0387-.2924-.2232-1.6522-.5181-3.2381-.552-2.9685-3.1922-4.3728-6.2089-4.4991l-2.2465.0127Z"/>
    <path fill="#a57939" d="m41.8568,23.8208c-.6759-.0245-.9309-.0654-.5069.4614,1.4752,1.8326,3.7104,5.5399,3.6545,11.1345-.0521,5.2083,2.6618,7.1059,4.7045,7.7967,1.4073.4759,2.5079,1.5844,2.8691,3.0254h0c.1999.7974.2069,1.6309.0205,2.4315l-.7959,3.4187c-.1694.7277-.0963,1.4909.2082,2.1732h0c.3718.833,1.2673,1.3013,2.1635,1.1313h0c.5361-.1017.9801-.4761,1.1709-.9873l2.9438-7.8907c.1858-.4979.3545-.9972.509-1.5057.519-1.7087,1.6984-11.4646,1.7827-12.0444.0055-.0377.0072-.0646.0067-.1027-.0078-.647-.2941-6.1269-3.3577-8.362-.1202-.0877-.2598-.1322-.4085-.1376-1.5521-.0562-10.8884-.3946-14.9643-.5423Z"/>
  </g>
  <g id="line">
    <path fill="none" stroke="#000" stroke-linecap="round" stroke-linejoin="round" stroke-width="2" d="m59.8526,33.2589c.5483,2.1777.198,5.6858-1.0426,8.387l-.8143,5.1605-2.5058,7.6663c-.2665.8154-1.0078,1.3645-1.842,1.3645h-.2583c-1.3215,0-2.2578-1.3307-1.8481-2.6267l1.6269-6.9876s-4.1332-7.6611-2.9994-11.2117"/>
    <path fill="none" stroke="#000" stroke-linecap="round" stroke-linejoin="round" stroke-width="2" d="m31.0503,31.8625l1.5307,8.1589-2.5362,15.1266c-.1241.9835-.9267,1.7256-1.888,1.7458l-.3071.0065c-1.3326.028-2.2977-1.2976-1.8918-2.6071.826-2.6646.9821-6.9715-.2413-9.9115-1.3972-3.3576-.753-4.9584-.753-4.9584"/>
    <path fill="none" stroke="#000" stroke-linecap="round" stroke-linejoin="round" stroke-width="2" d="m35.7475,44.5012s12.0966,1.3113,15.3787-1.4411"/>
    <path fill="none" stroke="#000" stroke-linecap="round" stroke-linejoin="round" stroke-width="2" d="m65.1997,44.3816s-2.1681-3.6663-1.239-9.2472c1.1957-10.4524-8.5173-11.9422-6.4472-11.4468l-.3398-.1311-23.1965-.584c-.9297-.0234-1.86.0154-2.7845.1161l-7.911.8621"/>
    <path fill="none" stroke="#000" stroke-linecap="round" stroke-linejoin="round" stroke-width="2" d="m58.7561,41.9871l3.1531,3.8358-.0649,8.3475c0,.9206-.7235,1.6669-1.616,1.6669h-1.681"/>
    <path fill="none" stroke="#000" stroke-linecap="round" stroke-linejoin="round" stroke-width="2" d="m7.79,22.2691c1.9909,2.5381,3.9819,2.5381,3.9819,2.5381"/>
    <path fill="none" stroke="#000" stroke-linecap="round" stroke-linejoin="round" stroke-width="2" d="m18.9754,20.6949c1.4174,2.8432-1.7383,4.3023-1.7383,4.3023,0,0-2.717-3.7782-5.4652-.19l-2.0612,2.4996s-2.1109,3.471-3.5898,5.4622c-.4114.554.3304,2.4246.6856,3.0185.6608,1.105,5.3525,1.7864,9.723.2124,0,0,3.6456.3266,4.3312,7.0608.1304,1.2807,2.7376,3.0159,4.8836,2.731"/>
    <path fill="none" stroke="#000" stroke-linecap="round" stroke-linejoin="round" stroke-width="2" d="m18.654,31.5053c4.7561,1.5524,4.9952-2.4579,4.9952-2.4579v-.2588c-2.3138-2.7598-4.4562-.7762-4.4562-.7762"/>
  </g>
</g>
  <g transform="translate(96.19969589467118, 684.8962273121793) scale(1 1) translate(0, 0) scale(1.7453292519943293 1.7453292519943293) "><g id="color">
    <path fill="#3f3f3f" d="m8.6557,28.7147l-1.4839,2.2388c-.4358.6576-.6675,1.4294-.6658,2.2183h0c.0019.9123.5309,1.7412,1.3575,2.1272h0c1.6013.7478,3.4305.8441,5.1015.2687l1.387-.4776c.8303-.2859,1.7486.0964,2.1119.8959.6897,1.5177,2.0374,3.8555,4.1702,5.0262.7175.3939,1.5276.5845,2.343.6561.817.0718,2.0979.1843,3.0822.2707.8164.0717,1.4666.7106,1.5544,1.5255l.3586,3.3295c.1323,1.2283.1511,2.4662.0563,3.698l-.1408,1.8299c-.0767.9969.2175,1.9871.8262,2.7804h0c.5391.7027,1.5245.8795,2.2744.4083h0c.389-.2445.6638-.6348.7627-1.0835l1.0281-4.6641c.2589-1.1744.4292-2.3665.5096-3.5664l.2028-3.0272c.0596-.889.7896-1.5845,1.6804-1.6009l4.1571-.0769c.8942-.0165,1.7885.0289,2.6765.1361l3.4285.4136c.862.104,1.6899.3993,2.4231.8644h0c.5923.3757,1.3537.3531,1.9227-.0571l2.6282-2.9569c.8868-.6394,2.1374-.2975,2.5756.704l1.4704,4.3454c.1017.2323.1506.4843.1432.7378l-.1787,6.1288c-.025.8575.2422,2.1993.5938,2.9818h0c.4025.8957,1.2931,1.472,2.2751,1.472h0c.5715,0,1.1255-.1974,1.5683-.5588h0c.6778-.5532,1.0871-1.3694,1.1249-2.2434l.3623-8.357c.0086-.1974-.0164-.3926-.075-.5813-.2624-.8445-1.0246-3.3004-1.0703-3.4821-.0405-.1612.6018-6.4764.9469-9.8288.1107-1.0752.2765-2.1382.53-3.189.3891-1.6132.8604-4.522-.3187-5.997-1.6848-2.1075-8.9295-1.9046-8.9295-1.9046l-13.764.0602c-.145.0006-.284-.0161-.4245-.0516-1.1751-.2968-7.2014-1.6823-10.3049.2611-.28.1753-.793.2479-1.1193.1963l-.5235-.0828c-.6913-.1093-1.3104.1346-1.6945.6252l-.5968.7623c-.4107.5245-1.0878.764-1.7369.6142l-3.2506-.75c-.1091-.0252-.2155-.061-.3177-.1069l-1.673-.7519c-1.286-.578-2.7368-.6747-4.0881-.2724h0c-1.9788.589-3.4593,2.2394-3.8307,4.2704l-.0777.4252c-.2218,1.2128-.6873,2.368-1.3685,3.3957Z"/>
    <path fill="#3f3f3f" d="m39.4279,43.8041l-1.2714,9.5503c-.0869.6524-.3571,1.2675-.7841,1.7683-.3626.4253-.5471.6304-.868.8355-.4174.2667-2.012.5766-2.3021.5416-.0118-.0014-.0238-.0025-.0358-.0039-1.3956-.1535-2.327-1.5188-2.0004-2.8843l.9144-3.8239c.0325-.136.0529-.2747.0608-.4144l.3123-5.5108c.0303-.5344.2418-1.0425.5995-1.4406l.4232-.4709c.4267-.4747,1.0278-.7559,1.6656-.7791l.8664-.0315c1.4574-.053,2.6119,1.2181,2.4195,2.6637Z"/>
    <path fill="#9b9b9a" d="m9.2127,16.625c-.7838-.3971-2.748.2718-4,2.0833-2.0867,3.0193-1.3098,7.7014,5.25,6.0417,0,0,2.0417-3.6667,7.467-.6992,0,0,5.8915,5.0326,9.908-.8073.6672-1.2435,1.5833-7.1383-3.7083-7.1185l1.562,3.9537c.1486.3761.0664.8041-.2108,1.0985h0c-.9463,1.0048-2.393,1.3623-3.6989.9152-.89-.3047-1.7583-.596-1.9343-.6341-.3847-.0833-3.5891-1.2083-3.8202-1.2083s-3.1062.4583-3.5228.8333-2.6667,1.1787-3.3334,1.1667c-.1775-.0032-.4343-.0136-.7154-.0272-.8896-.0429-1.5216-.8858-1.3106-1.7511.1685-.691.3146-1.3532.2761-1.4301-.0833-.1666,1.7917-2.4166,1.7917-2.4166Z"/>
  </g>
  <g id="line">
    <path fill="none" stroke="#000" stroke-linecap="round" stroke-linejoin="round" stroke-width="2" d="m8.9109,17.5549s-3.968,3.5483-1.7036,5.0512c.9172.6087,2.9356-.4136,3.4998-1.0225.8495-.9168,3.7525-3.6489,8.2239-.3394,1.174.8689,2.6347,2.5625,5.0689,1.3867,1.5162-.7324,3.6398-3.5863.2605-5.5297"/>
    <path fill="none" stroke="#000" stroke-linecap="round" stroke-linejoin="round" stroke-width="2" d="m19.1534,26.5124s2.3202-.7013,4.6678,1.5608c0,0,.0058,3.0133-4.5349,3.029"/>
    <path fill="none" stroke="#000" stroke-linecap="round" stroke-linejoin="round" stroke-width="2" d="m29.1683,20.4855s2.6885-2.5698,9.6703-.8573c5.3092,1.3022,12.4973.3827,15.6368-.1326,1.0363-.1701,11.7128.2626,11.0173,9.2837-.4897,6.352-1.9217,11.048.7569,14.3853"/>
    <path fill="none" stroke="#000" stroke-linecap="round" stroke-linejoin="round" stroke-width="2" d="m27.3372,41.0565c-3.3251.4223-5.8873.4044-7.6501-.8123-1.8748-1.577-2.9481-3.5708-3.7853-5.6875-1.6255,1.1176-6.5272,1.9792-7.785,1.3629-2.6033-1.2755-1.6134-3.9576-1.6134-3.9576l4.1212-6.2179"/>
    <path fill="none" stroke="#000" stroke-linecap="round" stroke-linejoin="round" stroke-width="2" d="m34.5837,27.6133l.4346,9.4476s-2.7664,4.918-1.976,10.4948l-1.466,6.7936c-.1951.9041-.9947,1.5495-1.9196,1.5495h-.1172c-1.2916,0-2.2456-1.2282-1.8966-2.4718.6333-2.2561,1.2656-5.7606.4971-9.2444-1.5235-6.9057-.411-8.5966-.411-8.5966"/>
    <path fill="none" stroke="#000" stroke-linecap="round" stroke-linejoin="round" stroke-width="2" d="m33.4376,41.2899s10.4948-1.1991,15.5445,1.3039c0,0,3.1177-3.6885,5.0498-3.9959"/>
    <path fill="none" stroke="#000" stroke-linecap="round" stroke-linejoin="round" stroke-width="2" d="m50.2325,30.1022s5.3842,11.0864,5.9989,13.0624c.487,1.5655.4278,7.9893.4355,10.4924.0093,3.0265,4.3664,2.6583,4.4853.2332.0937-1.9102.3043-5.6929.9117-8.5278.1792-.8364.2995-1.6849-.1053-2.4384-.94-1.7497-1.8987-5.1703-.9868-9.6829.8332-4.1227.7776-5.066.7776-5.066"/>
    <path fill="none" stroke="#000" stroke-linecap="round" stroke-linejoin="round" stroke-width="2" d="m39.3137,41.1544s-1.3498,10.3292-1.4115,12.7244c-.0191.7432-.9928,1.3614-1.7362,1.3614h-1.1477"/>
  </g>
</g>
  <g transform="translate(36.33569289916621, 567.4065061316096) scale(1 1) translate(0, 0) scale(1.7453292519943293 1.7453292519943293) "><g id="color">
    <path fill="#d0cfce" d="m10.0813,17.6765l-2.338,2.0423c-.1185.1035-.224.2211-.3141.3501l-2.2616,3.2373c-.2276.3258-.3497.7137-.3497,1.1112v.5944c0,.7869.4752,1.4959,1.2031,1.7948l.9466.3888c.3244.1332.6788.1761,1.0255.124l3.0418-.457c.7678-.1153,1.5305.2381,1.9387.8986l1.0913,1.7654c.1161.1878.1992.3939.246.6097l.4727,2.1832c.0488.2256.1344.4351.2579.6301.3157.4988,1.028,1.4892,2.1915,2.3978.5394.4213.8448,1.1126.7301,1.7873-.1184.6968.0412,1.6684,1.261,2.6425.3623.2893.6063.7073.6864,1.1639l.2745,1.5651c.1417.8076.7756,1.439,1.5838,1.5773l.9733.1666c1.0058.1722,1.7064,1.094,1.603,2.1092l-1.1536,11.3248c-.0854.8389.1835,1.6753.7419,2.3071l.1887.2136c.8725.9873,2.1957,1.4499,3.4933,1.2214l1.4815-.2609c.3644-.0642.7337-.0965,1.1037-.0965h.0818c.6809,0,1.312-.3569,1.6629-.9404h0c.2592-.4311.3904-.927.3782-1.4299l-.2635-10.8484c-.0292-1.2006,1.0282-2.1391,2.2169-1.9676l1.596.2302c.0595.0086.1194.0144.1795.0174l4.8651.245c.1683.0085.337-.005.5019-.0401l3.4296-.7306c.1556-.0331.3146-.047.4735-.0413l2.6919.0961c.1474.0053.2949-.0063.4397-.0344l4.8951-.952c.7927-.1542,1.5981.1988,2.022.8862l2.0908,3.3905c.1883.3054.2883.6571.2888,1.0159l.012,9.0233c.0005.3453.0931.6843.2683.9818h0c.5492.9329,1.7557,1.2359,2.6806.6733l.122-.0742c.505-.3072.8425-.828.9166-1.4145l1.1241-8.8965c.0392-.3099.0029-.6248-.1057-.9177l-1.0289-2.7757c-.0437-.118-.0759-.2399-.096-.3642l-.7931-4.8962c-.0595-.3672-.0122-.7438.1363-1.0848l1.3332-3.0622c.1412-.3243.191-.6809.1442-1.0315l-.3486-2.6093c-.0286-.2143-.0212-.4319.0219-.6438l.5735-2.8188c.1379-.6779-.0955-1.378-.6127-1.8375l-1.3047-1.1591c-.1366-.1214-.2554-.2614-.3528-.416l-1.1419-1.8118c-.2979-.4727-.7852-.7941-1.337-.8818l-1.9796-.3146c-.209-.0332-.4111-.1004-.5983-.1988l-2.4139-1.2689c-.4082-.2146-.8794-.2768-1.3292-.1754l-3.3837.7621c-.3557.0801-.7269.0584-1.0708-.0627l-1.9982-.7036c-.2852-.1004-.5899-.1328-.8898-.0946l-2.838.3617c-.1879.024-.3782.0188-.5651-.0125-.7983-.1339-3.1584-.4697-4.8671-.0935-.3667.0807-.7447.0296-1.0922-.1127-1.0642-.4357-3.3466-1.2085-4.7109-.4841-.209.1109-.4198.2064-.6558.2229-1.0301.0724-4.0652.3154-5.6359.7596-.5364.1517-1.1059.0767-1.5718-.2294-.2324-.1527-.5226-.3008-.8698-.4009-.9578-.2762-1.5485-1.2374-1.3642-2.217l.1364-.7254c.1111-.5907-.0488-1.2031-.4539-1.6471-.8622-.9449-2.6218-2.2255-5.1825-.9714-1.4599.715-2.559.8592-3.2153.8571-.4888-.0015-.9627.1561-1.3309.4777Z"/>
    <path fill="#fff" d="m10.1449,18.6246s3.3375-.0334,5.2965,2.4184c.373.4669.8936.7934,1.4786.9154l.1687.0352c.8823.184,1.7966-.1065,2.4109-.766h0c.5769-.6194.8127-1.4828.6307-2.3095l-.1808-.8212c-.26-1.1809-1.3064-2.022-2.5156-2.022h-1.3788c-.1998,0-.399.0233-.5934.0693l-3.1649.7493c-.234.0554-.4591.1433-.6688.2612l-1.483,1.47Z"/>
    <path fill="#fff" d="m19.1101,23.177c.1266,1.7578-.0224,5.6657-3.518,7.429-.5624.2837-.8989.8782-.8134,1.5022l.2133,1.5561c.0708.5167.4133.9558.8972,1.1504l.8621.3466c.6192.249.9891.8879.8967,1.5489l-.1108.7924c-.0719.514.1359,1.0274.5452,1.3466l1.1333.8839c.3529.2752.5592.6978.5592,1.1454v.8515c0,.6697.4534,1.2606,1.1045,1.4173,1.5658.3768,4.3872,1.2509,5.7071,2.8766.5137.6328,1.4149.79,2.0542.2844,1.1161-.8828,2.6268-1.753,3.3638-.7535l2.6139.7262c.2526.0702.5196.0707.7725.0014l2.2777-.6238c.248-.0679.5096-.0688.7581-.0025l2.5604.6831c.1221.0326.248.0491.3744.0491h3.2001c.0728,0,.1456-.0055.2176-.0164l5.173-.7839c.1388-.021.2735-.0228.4124-.003.808.1153,3.8877.444,4.302-1.1681,0,0,2.1783-2.1984,4.3961-1.7763.9441.1797,1.8018-.5776,1.7254-1.5356h0c-.019-.2378.0209-.4766.1161-.6954l1.4698-3.376c.1057-.2427.143-.5097.108-.7722l-.3666-2.7444c-.0284-.2129-.0093-.4295.056-.6341l.5371-1.6821c.1553-.4863.0439-1.0184-.2934-1.4015l-1.9774-2.2464c-.0978-.1111-.178-.2365-.2379-.3718l-1.0501-2.3722c-.1994-.4505-.6137-.7693-1.1003-.8466l-2.1468-.3411c-.1564-.0249-.3077-.0751-.4479-.1488l-2.6587-1.3976c-.2966-.1559-.638-.2045-.9663-.1375l-3.2611.6655c-.2072.0423-.4211.0388-.6269-.0102l-2.7926-.6649c-.2584-.0615-.5288-.051-.7816.0304l-1.6148.52c-.2687.0865-.5567.0929-.8289.0183l-2.1494-.5887c-.1786-.0489-.3649-.0632-.5489-.0422l-3.3084.3786c-.2634.0301-.53-.0124-.771-.1229l-1.7853-.8192c-.2857-.1311-.6062-.166-.9135-.0994l-2.1637.4689c-.2382.0516-.4855.0425-.7192-.0266l-2.7988-.8269c-.3303-.0976-.6846-.0746-.9996.0648l-2.2307.9876c-.4832.2139-1.0221.1166-1.4655-.1708-.3918-.2539-1.0412-.4034-2.0632.0363-.5726.2464-.9417.8193-.8969,1.4411Z"/>
  </g>
  <g id="line">
    <path fill="none" stroke="#000" stroke-linecap="round" stroke-linejoin="round" stroke-width="2" d="m23.0574,22.9291s3.6604-3.4572,6.1926-.8662c0,0,4.3429-1.8549,6.5.4371,0,0,3.8325-1.7757,6.0833.4167,0,0,3.5093-2.5403,6.4167.25,0,0,4.25-2.5,7.4167.4167,0,0,4.5833-1,4.6237,3.8016,0,0,3.7514,2.1213,1.7819,5.8085,0,0,1.761,3.9732-1.313,7.5491,0,0-.0759,4.7775,1.6838,7.043.4358.5611.5798,1.2965.4908,2.0014l-1.301,10.2965c-.1235.9776-.955,1.7106-1.9403,1.7106h0c-1.2088,0-2.1281-1.0856-1.9291-2.2779l-.0135-10.0995s-1.489-3.3059-3.0833-5c0,0-1.7853-.5603-3.3797-2.5534"/>
    <path fill="none" stroke="#000" stroke-linecap="round" stroke-linejoin="round" stroke-width="2" d="m31.5833,40.1194c.9911,1.8333.7589,6.2567.7589,6.2567v13.0923c0,1.0092-.8181,1.8274-1.8274,1.8274h0c-.9342,0-1.7179-.7046-1.817-1.6334l-.8573-8.033-.5627-4.0858c-1.5944-3.3882-4.5955-3.5875-4.5955-3.5875-3.4701-.1993-2.9074-3.7868-2.9074-3.7868-1.8197-.499-2.1331-2.1691-2.1129-3.3489.0117-.6855-.3817-1.2941-.9954-1.5999-2.5228-1.2571-2-4.7205-2-4.7205l-2.3661-3.8276c-.967-.1323-1.955-.0498-2.8468.3467-.4923.2189-1.1527.3952-1.9906.38-1.2767-.0231-2.053-.4391-2.5249-.939-.678-.7181-.686-1.8437-.1204-2.6533l2.747-3.9321,2.5327-1.9196c1.1301-.8565,2.5091-1.3201,3.9271-1.3201h.5971s5.6119-2.26,5.5628,2.2991c-.051,4.742-3.562,3.2397-3.562,3.2397"/>
    <path fill="none" stroke="#000" stroke-linecap="round" stroke-linejoin="round" stroke-width="2" d="m35.3333,45.5546s.9167.8215,2.9492-.0979c.2007.0096,4.6708,2.1931,6.3774-.1599,0,0,2.2509,1.7544,4.6893-.3384"/>
    <path fill="none" stroke="#000" stroke-linecap="round" stroke-linejoin="round" stroke-width="2" d="m24.2766,45.5546c-.0857.8158.5325,5.0353-.7205,12.9143-.1937,1.2178.7374,2.3286,1.9705,2.3286"/>
    <path fill="none" stroke="#000" stroke-linecap="round" stroke-linejoin="round" stroke-width="2" d="m64.7288,27.3849c.3751.3276,3.939-2.1638,1.313,17.468"/>
  </g>
</g>
  <g transform="translate(15.707963267948934, 437.1681469282042) scale(1 1) translate(0, 0) scale(1.7453292519943293 1.7453292519943293) "><g id="color">
    <path fill="#a57939" d="m14.9052,16.5687s-4.0263-2.1683-5.1407-.4195l1.6065,2.5221-4.0225,3.9723-.7365,2.2816.9757,1.7853,1.8769-.1152c.6259-.0384,1.236.2068,1.6611.6678h0c.277.3003.4081.7071.3587,1.1126l-.4904,4.0222s4.5938.25,2.7188-6.6493h2.2324l.1963,2.1493.6417,3.4545s.8915,3.8863,1.5478,3.7955,3.1319,2.4,3.1319,2.4l.684,3.9778,3.161,3.4406s3.4359,11.6563,2.4673,14.5658c-.9687,2.9096-.7567,3.3723-.7567,3.3723l2.5692.681,2.1608-4.4433-.8899-14.8962s6.9504,5.9571,15.246,1.3046c0,0,.5321,5.4073,2.4139,6.3462l-1.1489,6.8721-1.9903,3.5042,1.396.9868,1.8119-.3503,3.0314-6.0352,1.1038-10.9629,1.178-2.5774,5.3749-7.1527s.2703-2.5759-1.3092-4.0424c-.6279-.583-1.7969-1.3117-2.9777-1.9783-2.1882-1.2352-4.6398-1.9293-7.1494-2.0551l-6.7474-.3382c-1.5826-.0793-3.1691-.015-4.7401.1922l-7.3223.9656c-1.0298.1358-2.0438-.3436-2.5924-1.2257l-5.474-8.8013-2.6317-2.125s-2.7959-.5961-3.4259-.2044Z"/>
    <path fill="#6a462f" d="m59.2752,36.1811s-1.7636,7.4875-2.3125,10.3392c-.3333,1.7317-.6959,3.819-.6959,3.819l1.1475,1.996-4.25,11.6875s-3.8266.5271-4.3891-.7632l3.1059-4.6743.4566-5.5625.4375-7.6875,1.1251-2.0016,5.3749-7.1526Z"/>
    <path fill="#6a462f" d="m14.5877,17.9605l3.3466-3.9634,5.2479-.5321,4.2805,3.7455s-6.75-4.375-9.1317,1.4375l-3.7433-.6875Z"/>
    <polygon fill="#6a462f" points="26.4002 48.5855 31.0252 49.273 31.8377 57.7105 29.8416 63.0633 26.4002 63.0633 28.1502 58.3355 26.4002 48.5855"/>
    <polygon fill="#6a462f" points="52.3377 53.023 48.4002 53.523 46.9159 59.5674 45.3792 62.273 45.7934 63.0633 48.1502 63.5855 50.8997 59.059 52.3377 53.023"/>
    <path fill="#6a462f" d="m64.9627,26.5021s1.9578,10.3429-5.8128,10.2131c0,0-.0556-3.1065-1.1839-4.5765l2.4679-2.5651s1.7521-2.2515,1.8614-2.3229,2.6674-.7486,2.6674-.7486Z"/>
  </g>
  <g id="line">
    <path fill="none" stroke="#000" stroke-linecap="round" stroke-linejoin="round" stroke-width="2" d="m10.9522,31.3524c2.1772-4.1292-.8258-4.955-.8258-4.955-1.7268.8258-2.7778-.3003-2.7778-.3003-1.8018-1.7267,0-3.4535,0-3.4535,4.0541-2.8529,4.0225-3.9723,4.0225-3.9723l-1.7276-2.7122s2.4349-2.3246,4.9124,1.0538c0,0,5.931-8.4085,12.4626-.6006"/>
    <path fill="none" stroke="#000" stroke-linecap="round" stroke-linejoin="round" stroke-width="2" d="m13.9559,25.7358s3.9033.4364,3.9784-3.7678"/>
    <path fill="none" stroke="#000" stroke-linecap="round" stroke-linejoin="round" stroke-width="2" d="m18.3309,17.7091s2.2921.3123,3.875,3.875c.7891,1.7761,4.4163,7.4998,4.8126,7.7292,0,0,25.5259-5.6186,30.556,2.7899,0,0,1.7267.5255,2.7778-2.3274,1.0511-2.8529,3.6037-3.2283,3.6037-3.2283"/>
    <path fill="none" stroke="#000" stroke-linecap="round" stroke-linejoin="round" stroke-width="2" d="m46.4012,45.3935c-8.9341,4.8799-15.5538-1.3532-15.5538-1.3532l.4836,8.8965.5,6.0223-1.672,3.7114c-.1616.3586-.5184.5892-.9117.5892h-1.4643c-.7366,0-1.2204-.7694-.9013-1.4333l1.1632-2.9869s-.0504-1.736-.5009-5.4147-2.3274-8.7088-2.3274-8.7088c-4.5046-2.5526-3.7538-7.168-3.7538-7.168-5.7057-4.1514-5.3158-12.316-5.3158-12.316"/>
    <path fill="none" stroke="#000" stroke-linecap="round" stroke-linejoin="round" stroke-width="2" d="m48.678,39.1979s-5.0582,6.4486-.1595,12.6987c0,0,.1019,5.4161-1.8125,8.0625l-1.1586,1.7482c-.4405.6647.0361,1.5524.8336,1.5524h1.4454c.2941,0,.5696-.1269.7608-.3503.9164-1.0706,3.4939-4.5506,3.4939-9.8253,0-5.2399,1.0453-9.0438,1.0453-9.0438,5.0676-4.4483,5.2568-7.8591,5.2568-7.8591"/>
    <path fill="none" stroke="#000" stroke-linecap="round" stroke-linejoin="round" stroke-width="2" d="m56.0393,46.5204s-1.065,3.2324,1.375,5.3345l-4.25,11.2083"/>
  </g>
</g>
  <g transform="translate(36.335692899166155, 306.929787724799) scale(1 1) translate(0, 0) scale(1.7453292519943293 1.7453292519943293) "><g id="color">
    <path fill="#F4AA41" stroke="none" d="M19.8794,8.1271l0.3333,3.8333l-3,1.125l-2.875,2.875l-0.75,2.125l6.5-1c0,0,4.625,13.125,12.125,16.25 c0,0-1.625,6.375,1.625,8.875l0.75,11.375l-2.875,10.5l-2,3.2083l2.3869,0.0295c0.6228,0.0077,1.2137-0.2752,1.5982-0.7653 l1.2349-1.5739c0.1844-0.235,0.3138-0.5083,0.3787-0.7999l2.2286-10.009c0.0318-0.1427,0.0478-0.2885,0.0478-0.4347v-10.905 l1.5,1.625l3.5,9.25l1.75,10.375l-1.3333,3.1667l1.9224-0.1039c0.7177-0.0388,1.3595-0.4598,1.6809-1.1027l0.7958-1.5917 c0.2003-0.4006,0.2603-0.8569,0.1705-1.2957l-1.972-9.6281c-0.0095-0.0464-0.0206-0.0924-0.0334-0.138l-2.6059-9.3066l3.125-0.875 l3-1.25c0,0,3.625,7.375,6.5,7.875l1,13.5l-1,3.875l1.1357-0.036c0.8837-0.0281,1.6441-0.633,1.8701-1.4878l0.4863-1.8395 c0.0603-0.2282,0.0798-0.4653,0.0575-0.7002l-1.2758-13.4353c-0.0158-0.1667-0.0525-0.3308-0.1093-0.4884l-1.0396-2.8877 l-1.625-8.5l-1.125-3.625l-3.625-3.125l-7-0.5l-5.875-3.875c0,0-8.1667-0.7917-13.9167-13.5417 C23.546,13.1688,23.1294,7.2521,19.8794,8.1271z"/>
  </g>
  <g id="hair"/>
  <g id="skin"/>
  <g id="skin-shadow"/>
  <g id="line">
    <path fill="none" stroke="#000000" stroke-linecap="round" stroke-linejoin="round" stroke-miterlimit="10" stroke-width="2" d="M29.8763,66.2708l1.9375-2.3125l2.75-10.1875l-0.625-11.5c-3.5-4-1.4344-8.6627-1.4344-8.6627 c-9.875-5.25-12.0656-16.3998-12.0656-16.3998l-6.4404,0.9828c-0.8827,0-1.3296-1.0629-0.712-1.6936l2.7773-2.2892l1.1875-1.6875 l2.625-0.625l-0.0625-2.875"/>
    <path fill="none" stroke="#000000" stroke-linecap="round" stroke-linejoin="round" stroke-miterlimit="10" stroke-width="2" d="M37.0638,40.2708c0,0-0.125,3,2.375,3.9375l3.3125,9.4375l1.75,10.1875l-1.3125,2.4375"/>
    <path fill="none" stroke="#000000" stroke-linecap="round" stroke-linejoin="round" stroke-miterlimit="10" stroke-width="2" d="M43.2557,43.3333h3.2456c0,0,3.0625-0.5625,3.375-3.9375"/>
    <path fill="none" stroke="#000000" stroke-linecap="round" stroke-linejoin="round" stroke-miterlimit="10" stroke-width="2" d="M49.1262,41.5646c0,0,0.9376,4.7688,6.3751,8.2063l0.8125,13.7895l-0.5,2.7105"/>
    <path fill="none" stroke="#000000" stroke-linecap="round" stroke-linejoin="round" stroke-miterlimit="10" stroke-width="2" d="M58.1888,47.4583c-2.5713-1.8248-3.1337-5.2183-3.221-7.2951c-0.0597-1.419-0.2781-2.8221-0.6805-4.1841l-0.0985-0.3333 c-1.8959-5.3999-8.6641-4.2096-12-5.5625c-2.549-1.0338-4.8135-3.9259-5.126-3.9259c-8.0867,0-14.1746-12.301-14.1746-12.301"/>
  </g>
</g>
  <g transform="translate(96.19969589467112, 189.440066544229) scale(1 1) translate(0, 0) scale(1.7453292519943293 1.7453292519943293) "><g id="color">
    <path fill="#3f3f3f" d="M18.9388,41.85a11.0562,11.0562,0,0,0,2.6675,6.8626h.0111c2.8225-.1218,3.066,1.7378,3.0439,2.4794a1.6765,1.6765,0,0,1-.0222.2988H19.6914L19.68,51.48h-.011c-3.3981-1.3282-5.0764-4.1679-5.8844-7.732Z"/>
    <path fill="#3f3f3f" d="M46.3215,50.97H41.7488c-1.6533-2.18-.516-9.57-.516-9.57a2.1562,2.1562,0,0,1,1.114,1.25C42.6749,46.77,44.0585,49.46,46.3215,50.97Z"/>
    <path fill="#9b9b9a" d="M66.4915,46.6305l-2.23-6.04c2.28-1.11,1.44-1.76,1.44-1.76-2.88-2.04-.84-3.74-.84-3.74a4.2769,4.2769,0,0,1-.47.09,2.8419,2.8419,0,0,1-1.92-.45l-2.57-1.67a4.9849,4.9849,0,0,1-1.3-1.25,23.0591,23.0591,0,0,0-7.04-6.33,28.0481,28.0481,0,0,0-3.93-1.93c-.38-.14-.77-.28-1.16-.4a19.4188,19.4188,0,0,0-5.87-1,2.6456,2.6456,0,0,0-.28-.01c-.22-.01-.43-.01-.65-.01a23.1483,23.1483,0,0,0-2.51.14c-8.64.69-12.81-1.44-17.2-1.73-6.66-.44-12.02,3.74-14.27,10.36a4.0813,4.0813,0,0,0-.43,1.65s.16,1.54,1.61.41a8.2794,8.2794,0,0,0-.04.86,9.1669,9.1669,0,0,0,2.74,6.54,10.023,10.023,0,0,0-.9,4.14,9.8288,9.8288,0,0,0,2.05,6.04h5.02s0-1.84-1.48-2.1a1.646,1.646,0,0,1-1.42-1.57v-.63a4.1069,4.1069,0,0,1,1.2-2.79,5.095,5.095,0,0,1,.62-.61c.01,0,.01-.01.02-.02a5.4358,5.4358,0,0,1,4.81-.99,5.1115,5.1115,0,0,1,.63.2,22.61,22.61,0,0,0,8.08,1.64c.16.01.31.01.47.01a22.7584,22.7584,0,0,0,7.46-1.24,22.976,22.976,0,0,0,3.41-1.48,2.7925,2.7925,0,0,1,1.49-.34,2.3888,2.3888,0,0,1,1.13.35,2.0806,2.0806,0,0,1,.95,1.25c.28,4.12,1.46,6.81,3.39,8.32h4.96a.7.7,0,0,0,.32-1.32c-1.63-.86-3.28-2.14-3.39-3.79-.21-3.3.99-4.08.99-4.08l3.34,3.44a1.4092,1.4092,0,0,0,.63.38l.92.27a1.3751,1.3751,0,0,1,.67.41l2.81,3.11a7.19,7.19,0,0,0,4.96,2.47,3.94,3.94,0,0,0,2.95-.9A3.5626,3.5626,0,0,0,66.4915,46.6305Z"/>
  </g>
  <g id="line">
    <path fill="none" stroke="#000" stroke-linecap="round" stroke-linejoin="round" stroke-width="2" d="M47.6314,23.55c-.38-.14-.77-.28-1.16-.4"/>
    <path fill="none" stroke="#000" stroke-linecap="round" stroke-linejoin="round" stroke-width="2" d="M19.4914,41.83a9.9887,9.9887,0,0,0,2.41,6.2h.01c2.55-.11,2.77,1.57,2.75,2.24a1.52,1.52,0,0,1-.02.27"/>
    <path fill="none" stroke="#000" stroke-linecap="round" stroke-linejoin="round" stroke-width="2" d="M46.5014,50.54c-1.93-1.51-3.11-4.2-3.39-8.32a2.08,2.08,0,0,0-.95-1.25,2.4488,2.4488,0,0,0-1.13-.35"/>
    <path fill="none" stroke="#000" stroke-linecap="round" stroke-linejoin="round" stroke-width="2" d="M42.6014,50.54h8.86a.7.7,0,0,0,.32-1.32c-.18-.09-.35-.19-.53-.3-1.44-.84-2.76-2.02-2.86-3.49-.21-3.3.99-4.08.99-4.08l1.39,1.43,1.95,2.01a1.4087,1.4087,0,0,0,.63.38l.92.27a1.376,1.376,0,0,1,.67.41l2.81,3.11a7.1909,7.1909,0,0,0,4.96,2.47,3.9408,3.9408,0,0,0,2.95-.9,3.5629,3.5629,0,0,0,.83-3.9l-2.23-6.04c2.28-1.11,1.44-1.76,1.44-1.76-2.88-2.04-.84-3.74-.84-3.74a4.2989,4.2989,0,0,1-.47.09,2.8423,2.8423,0,0,1-1.92-.45l-2.57-1.67a4.9849,4.9849,0,0,1-1.3-1.25,23.0578,23.0578,0,0,0-7.04-6.33,28.0479,28.0479,0,0,0-3.93-1.93c-.38-.14-.77-.28-1.16-.4a19.4188,19.4188,0,0,0-5.87-1,2.62,2.62,0,0,0-.28-.01c-.22-.01-.43-.01-.65-.01a23.1723,23.1723,0,0,0-2.51.14c-8.64.69-12.81-1.44-17.2-1.73-6.66-.44-12.02,3.74-14.27,10.36a4.0791,4.0791,0,0,0-.43,1.65s.16,1.54,1.61.41a8.25,8.25,0,0,0-.04.86,9.1671,9.1671,0,0,0,2.74,6.54,10.021,10.021,0,0,0-.9,4.14,9.8288,9.8288,0,0,0,2.05,6.04h5.02s0-1.84-1.48-2.1a1.6458,1.6458,0,0,1-1.42-1.57v-.63a4.1077,4.1077,0,0,1,1.2-2.79,5.11,5.11,0,0,1,.62-.61c.01,0,.01-.01.02-.02a5.4359,5.4359,0,0,1,4.81-.99,5.098,5.098,0,0,1,.63.2,22.5034,22.5034,0,0,0,7.72,1.63c.12,0,.24.01.36.01.16.01.31.01.47.01a22.7593,22.7593,0,0,0,7.46-1.24,1.458,1.458,0,0,0,.19-.07,21.9656,21.9656,0,0,0,3.22-1.41,2.7937,2.7937,0,0,1,1.49-.34,2.48,2.48,0,0,1,1.13.35"/>
  </g>
</g>
  <g transform="translate(189.44006654422893, 96.19969589467118) scale(1 1) translate(0, 0) scale(1.7453292519943293 1.7453292519943293) "><g id="color">
    <path fill="#61b2e4" d="m23.065 26.72c-4.1282 3.8472-5.5675 8.7526-5.5888 14.429-0.006 1.6437 1.7126 2.0844 2.9248 0.97512 3.5672-2.5162 6.8185-8.6309 4.9638-11.042"/>
    <path fill="#61b2e4" d="m30.041 14.415c-8.6237-0.0962-15.832 3.2259-17.484 5.0703 4.89 16.658 15.151 15.654 22.777 15.324l0.0762 0.99804c1.6115-0.0652 3.0624-0.10263 4.25 0.0527 1.0494 0.13734 1.8668 0.41137 2.4688 0.86523 0.60199 0.45387 1.0483 1.0936 1.3281 2.207a1.0001 1.0001 0 0 0 0.30273 0.49805c0.28067 0.85815 0.59483 1.6448 1.0801 2.1602 0.0385 0.47969 0.0486 0.9432 0.0156 1.5918-0.54151 4.0693-4.2846 0.5379-6.4883 2.6406-0.80175 0.76502-2.8088 3.2889-2.4512 3.918 0.0239 0.042 0.0577 0.0776 0.10352 0.10156 0.16953 0.0886 0.49707 0.0475 1.0352-0.17773 2.5151-0.519 4.3131 2.5755 6.6074 2.3613 0.92332-0.0862 1.6072-0.59985 2.1094-0.99218 0.10561 0.86518 0.0158 2.5092 0.81641 3.2734 1.4307 1.2756 4.0008 2.2803 3.7207 5.9746 2.6173-2.7921 4.7922-4.639 2.0606-9.291-0.96732-1.6175-1.5274-2.5131-1.0508-3.6445 0.26265-0.34637 1.0229-1.2044 1.2852-1.5977 9.5709-10.006 1.1331-21.326-6.4043-26.412-5.2994-3.5758-10.984-4.8641-16.158-4.9219z"/>
    <path fill="#d0cfce" d="m35.021 30.718-5.826-1.4363-4.1621-4.3906-5.6055-4.8906v0.00004l-5.9219 2.2988 5.877 9.1035 6.9394 3.4043 0.89453 0.8711c1.4444 0.20036 2.8744 0.26277 4.2461 0.2539 1.3804-0.009 2.7116-0.0754 3.9479-0.12544"/>
    <path fill="#61b2e4" d="m35.718 26.72c-4.1282 3.8472-5.5675 8.7526-5.5888 14.429-0.006 1.6437 1.7126 2.0844 2.9248 0.97512 3.5672-2.5162 6.8185-8.6309 4.9638-11.042l1.2145-4.0815z"/>
  </g>
  <g id="line" fill="none" stroke="#000" stroke-linecap="round" stroke-linejoin="round" stroke-width="2">
    <path d="m19.5 31.459c-1.4394 2.8807-2.0101 6.1344-2.0234 9.6914-0.006 1.6437 1.7116 2.0839 2.9238 0.97461 2.3696-1.6714 4.5906-4.9279 5.2773-7.6348"/>
    <path stroke-miterlimit="10" d="m27.718 34.762c-0.36802-0.0442-0.73634-0.0977-1.1043-0.16218-5.489-0.96174-10.897-4.3507-14.057-15.115 2.6444-2.951 19.51-9.6836 33.642-0.148 7.5374 5.086 15.975 16.405 6.4039 26.411-0.26228 0.39322-1.0215 1.2521-1.2841 1.5985-0.47657 1.1314 0.0837 2.0265 1.051 3.644 2.7316 4.6521 0.55534 6.4992-2.062 9.2913 0.2801-3.6943-2.2893-4.6988-3.72-5.9743-0.80061-0.76418-0.71022-2.4091-0.81583-3.2743-0.50218 0.39233-1.1858 0.90701-2.1091 0.99321-2.2943 0.21419-4.0926-2.881-6.6078-2.362-0.53808 0.2252-0.86574 0.26644-1.0353 0.17783-0.0458-0.024-0.0803-0.0582-0.10419-0.10016-0.35758-0.62906 1.649-3.1537 2.4508-3.9187 2.2037-2.1027 5.9472 1.4291 6.4887-2.6402 0.0684-1.3457-0.0397-1.9035-0.22987-3.4344-0.31633-2.5468-1.4236-3.8344-3.0607-4.4589"/>
    <path d="m38.033 31.082c1.6283 0.069 3.0443 0.24313 4.2708 0.49887"/>
    <path d="m13.961 23.298c-0.42519-1.68 1.1394-2.486 3.2694-2.7908 5.7206-0.81857 8.8438 7.6773 14.428 9.7485"/>
    <path d="m35.718 26.72c-4.1282 3.8472-5.5675 8.7526-5.5888 14.429-0.006 1.6437 1.7126 2.0844 2.9248 0.97512 3.5672-2.5162 6.8185-8.6309 4.9638-11.042"/>
  </g>
</g>
  <g transform="translate(306.92978772479864, 36.33569289916621) scale(1 1) translate(0, 0) scale(1.7453292519943293 1.7453292519943293) "><g id="color">
    <path fill="#9b9b9a" d="m35.546 38.031c-1.0014 0.10832-4.0792 1.4989-3.8998 5.2083 0.26209 5.4174-7.6423-3.1345-0.98053-11.892"/>
    <path fill="#9b9b9a" d="m12 33.938s-2 4 16 4h8s10-0.5 15.5 9.75c0.29517 0.57883 0.50441 1.2045 0.62771 1.7365 1.0477 4.0472-5.5475 2.4327-6.6491 5.2532-0.40316 1.0322-1.1544 4.1685-0.56439 4.5874 0.0393 0.0283 0.0851 0.0437 0.13677 0.0467 0.19108 0.009 0.47061-0.16726 0.86303-0.59882 2.0599-1.5336 4.9982 0.51116 6.9868-0.6529 0.80032-0.46845 1.2022-1.2239 1.4915-1.7917 0.46148 0.7394 1.075 2.2683 2.1236 2.6224 1.8358 0.5511 4.5889 0.37522 5.8969 3.8416 1.1916-3.6368 2.3829-6.2308-2.0593-9.292-1.5604-1.057-3.9503-2.6878-4.0085-4.1251-0.009-0.1798 0.39822-10.231-5.5746-18.566 0.20821-2.2288 1.8232-5.3148 4.1092-5.8167 2.0556-0.45133-3.4045-4.5113-11.387-0.88331-10.758-6.1609-23.196 0.0287-23.548 6.7324-3.125-0.25-7.8698 0.23039-7.9948 2.9804"/>
    <path fill="#d0cfce" fill-rule="evenodd" d="m13.96 31.324c-1.243 0.46701-2.1344 1.2238-2.1875 2.3926l0.0508 0.17579s-1.5608 3.2084 11.084 3.873l7.5 0.12696h5.416s0.76556-0.0308 1.9668 0.125l0.17969 0.004 0.082 0.0332c1.8927 0.27635 4.7352 1.0324 7.5606 3.0234l0.3125 0.125 0.18945 0.2461c1.8744 1.4244 3.7096 3.3991 5.209 6.1934 0.19867 0.38958 0.34208 0.79051 0.46289 1.1797l0.94532 1.2207c-1.149-16.617-15.964-17.629-32.492-18.601-3.434-0.236-4.161-0.34-6.28-0.118z"/>
    <path fill="#9b9b9a" d="m43.469 36.098c-0.76004 0.66098-2.4918 3.5606-0.22546 6.5026 3.3099 4.2967-8.0632 1.7931-7.5983-9.2004l0.84937-2.9011 9.2997 2.737z"/>
  </g>
  <g id="hair"/>
  <g id="skin"/>
  <g id="skin-shadow"/>
  <g id="line" fill="none" stroke="#000" stroke-linecap="round" stroke-linejoin="round" stroke-miterlimit="10" stroke-width="2">
    <path d="m28.035 37.938c-0.44221 5.6934 3.8049 9.3193 3.6113 5.3184-0.17947-3.7094 2.899-5.1007 3.9004-5.209l-0.08-0.109h-7.4316"/>
    <path d="m42.202 39.165c3.0822 1.2277 6.6941 3.6708 9.2976 8.5229 0.29517 0.57883 0.50441 1.2045 0.62771 1.7365 1.0477 4.0472-5.5475 2.4327-6.6491 5.2532-0.40316 1.0322-1.1544 4.1685-0.56439 4.5874 0.0393 0.0283 0.0851 0.0437 0.13677 0.0467 0.19108 0.009 0.47061-0.16726 0.86303-0.59882 2.0599-1.5336 4.9982 0.51116 6.9868-0.6529 0.80032-0.46845 1.2022-1.2239 1.4915-1.7917 0.46148 0.7394 1.075 2.2683 2.1236 2.6224 1.8358 0.5511 4.5889 0.37522 5.8969 3.8416 1.1916-3.6368 2.3829-6.2308-2.0593-9.292-1.5604-1.057-3.9503-2.6878-4.0085-4.1251-0.009-0.1798 0.39822-10.231-5.5746-18.566 0.20821-2.2288 1.8232-5.3148 4.1092-5.8167 2.0556-0.45133-3.4045-4.5113-11.387-0.88331-10.758-6.1609-23.196 0.0287-23.548 6.7324-3.125-0.25-7.8698 0.23039-7.9697 3.0681 0.0156 0.54688-0.14674 4.0878 16.025 4.0878h8s0.01921-0.000961 0.05642-0.0019"/>
    <path d="m43.469 36.098c-0.76004 0.66098-2.4918 3.5606-0.22546 6.5026 3.3099 4.2967-8.0632 1.7931-7.5983-9.2004"/>
  </g>
</g>
  <g transform="translate(437.16814692820407, 15.707963267948934) scale(1 1) translate(0, 0) scale(1.7453292519943293 1.7453292519943293) "><g id="color">
    <path fill="#FFA7C0" stroke="none" d="M17.1242,30.4755l-2.2757,1.6731l-2.0804-1.6731c0,0-2.0225,6.0245,0.2319,8.5245s0,0,0,0l-2.7074,3.5319 l-4.2015,2.0643v2.0705L8,50l6.0877,0.9339h5.9167l3.1143-1.1268L22.1639,54.75l1.1061,1.3796l2.6389-1.9663l5.6655-9.5671 l7.0964,0.701l10.0003-1.1854l4.8485-1.1872l1.7506,4.6619l1.4564,8.0866L58.1476,57l1.3884-0.7678L63.1249,39.75 c0,0-1.2533-9.2543-6.6191-13.0015s0,0,0,0c-6.5936-5.6173-14.5396-7.2248-24.0406-4.2215l0,0 C26.7422,24.5082,21.6285,27.1577,17.1242,30.4755z"/>
    <polygon fill="#E67A94" stroke="none" points="48.0078,44.5962 47.5038,50.1767 46.7067,54.5263 48.0887,55.6731 52.944,50.1347 55.0844,46 53.2127,42.375"/>
    <polygon fill="#E67A94" stroke="none" points="35,44.9346 35,52.5 34.0877,55.8679 30.8083,55.375 30.0877,51.4375 29.7127,46.75 30.8083,44.9346"/>
  </g>
  <g id="hair"/>
  <g id="skin"/>
  <g id="skin-shadow"/>
  <g id="line">
    <path fill="none" stroke="#000000" stroke-linecap="round" stroke-linejoin="round" stroke-miterlimit="10" stroke-width="2" d="M18.2668,40.3655C18.2668,40.3655,19,37,18,35c-0.8253-1.6506-5-4-5-4c-0.8997,2.2493-0.6625,6.0065-0.2803,7.0457L13,39 l-0.5222,0.8891c-1.0655,1.8141-2.6341,3.2804-4.5158,4.2212l-1.281,0.6405c-0.5269,0.2635-0.7405,0.9042-0.477,1.4311L8,50 c0,0,6.75,1.6875,11.4451,0.332"/>
    <path fill="none" stroke="#000000" stroke-linecap="round" stroke-linejoin="round" stroke-miterlimit="10" stroke-width="2" d="M15.6331,32.1309c4.9804-7.1004,36.828-22.241,46.0504,3.1369c0.9971,2.7436,1.1827,5.7171,0.577,8.5728 c-0.7996,3.7694-1.9902,9.3825-2.5201,11.8806C59.5821,56.4677,58.9233,57,58.1602,57h-0.0126 c-1.0658,0-1.3516-0.8488-1.5523-1.8955C56,52,56.1278,47.2205,52.3035,40.6214"/>
    <path fill="none" stroke="#000000" stroke-linecap="round" stroke-linejoin="round" stroke-miterlimit="10" stroke-width="2" d="M30.0389,34.7354c0,0,3.5828,5.6301,1.0237,9.7248c-2.0097,3.2155-4.6506,8.6405-5.6921,10.8218 c-0.2774,0.5811-0.8646,0.9503-1.5085,0.9503h-0.0254c-1.147,0-1.9499-1.1202-1.5828-2.2068 c0.7577-2.2427,1.5685-5.9644,0.6195-10.0771"/>
    <path fill="none" stroke="#000000" stroke-linecap="round" stroke-linejoin="round" stroke-miterlimit="10" stroke-width="2" d="M31.5744,44.972c0,0,15.8668,1.5355,20.9851-2.0473"/>
    <path fill="none" stroke="#000000" stroke-linecap="round" stroke-linejoin="round" stroke-miterlimit="10" stroke-width="2" d="M48,45c0,0,0,4-1.1994,8.417c-0.3035,1.1177,0.1299,2.2561,1.2881,2.2561h0c0.5846,0,1.1158-0.3399,1.3608-0.8707L52,50"/>
    <path fill="none" stroke="#000000" stroke-linecap="round" stroke-linejoin="round" stroke-miterlimit="10" stroke-width="2" d="M31.0152,51.5785l-0.1986,2.1841c-0.1367,1.5041,1.4309,2.574,2.7817,1.8986l0.0173-0.0087 c0.609-0.3045,1.0121-0.9076,1.0606-1.5867L35,46"/>
    <path fill="none" stroke="#000000" stroke-linecap="round" stroke-linejoin="round" stroke-miterlimit="10" stroke-width="2" d="M61.2842,27.929c0,0,6.142-1.5355,2.5592,3.071"/>
  </g>
</g>
  <g transform="translate(567.4065061316094, 36.33569289916621) scale(1 1) translate(0, 0) scale(1.7453292519943293 1.7453292519943293) "><g id="color">
    <path fill="#6a462f" d="m17.8856,21.0752l-.2041.3763c-.5882,1.0845-1.4576,1.9906-2.5169,2.6231l-5.2653,3.1439s-4.0991,3.4124-3.7536,4.6981c.174.6475.4054,1.3613.5923,1.9103.1872.55.3278,1.1104.4182,1.6843.1342.8525.4422,2.1861,1.0982,2.7351.5.4185,1.4422.3,2.2593.0769,1.3027-.3556,2.6324-.6031,3.9812-.6661l.6014-.0281.4577-.0142c1.0553-.0328,2.107.1411,3.0961.5107,5.9704,2.231,5.5246,2.1336,5.8485,2.2044.7635.1667,2.1724,1.5073,2.1724,1.5073,0,0-.4167,2.7282,0,3.737.4167,1.0089,1.2734,5.1857,1.2734,5.1857l-.8227,4.0732,1.6454,2.0833s3.18-.0069,3.3155-1.5989l1.0051,2.0195,2.4235-.3976.7191-1.5272.399-7.183,1.9584-4.7014s1.5.7085,2.25,1.0069c.4139.1647,2.1036.1476,3.5349.0992,1.3888-.0469,2.7524-.3828,4.0081-.978l2.3126-1.0961,3.655,3.6086-.1854,4.8619-.3369,3.5493.5224,1.3659,1.3309.6716,2.2822-.6716,1.1272-10.8603-.8331-3.2397s4.3089-9.7208,3.2373-12.7833c-.7663-2.1899-5.2765-4.9907-7.7847-6.4091-1.0177-.5755-2.0822-1.0474-3.189-1.4239l-6.6658-2.2676c-.5952-.2025-1.1917-.3815-1.8002-.5394-2.4073-.6249-8.7749-2.2219-11.7153-2.4224-3.0279-.2064-9.294,2.9231-11.3853,4.0198-.4536.2379-.8229.6052-1.0671,1.0554Z"/>
    <path fill="#3f3f3f" d="m22.0044,38.2464s8.7917,6.2119,16.8333,4.1286l-1.8638,5.3524c-.2499.7177-.3958,1.4675-.4331,2.2265l-.2169,4.4065c-.0657,1.3352-1.0105,2.4642-2.3132,2.7642h0c-.5702.1313-1.167-.0547-1.5615-.4868l-.6319-.692s-1.3082,1.2625-3.0501.9709c-.7664-.1283-1.2681-.7325-1.5898-1.369-.4317-.8541-.4691-1.8547-.1784-2.7664l.3654-1.1461c.4311-1.3522.4574-2.801.0754-4.168h0c-.3898-1.3949-1.0252-2.7071-1.8824-3.8746-1.3113-1.7859-3.2056-4.4429-3.553-5.3463Z"/>
    <path fill="#3f3f3f" d="m59.0877,38.875s-6.7083-.125-7.7083,2.5833c-.6,1.625.5888,2.9957,1.6358,3.8323.8042.6425,1.2417,1.6379,1.1188,2.6599l-.3231,2.6861c-.0099.0823-.0164.165-.0195.2478l-.128,3.4167c-.0217.5793.1952,1.1421.6,1.557h0c.4663.4779,1.1308.7076,1.7927.6198h0c1.2267-.1628,2.2304-1.0567,2.5335-2.2565l.4324-1.7114c.0437-.173.072-.3495.0846-.5274l.5002-7.0796c.015-.2125.0075-.426-.0223-.637l-.6218-4.391.125-1Z"/>
    <path fill="#3f3f3f" d="m23.3377,21.6875s-5.5,5.5,1.5625,8.6875l3.0442-2.1875s1.0808-3.6875,1.0808-3.9375-.2581-3.3907-.2581-3.3907l-1.1169-.3593-4.3125,1.1875Z"/>
  </g>
  <g id="line">
    <path fill="none" stroke="#000" stroke-linecap="round" stroke-linejoin="round" stroke-width="2" d="m8.9874,37.6522s2.0168,1.435,4.2662-.1551l3.1083.2228c1.2161.0872,2.411-.3521,3.2811-1.2061l3.2672-3.2067"/>
    <path fill="none" stroke="#000" stroke-linecap="round" stroke-linejoin="round" stroke-width="2" d="m13.5926,33.272c-.862-.6593-1.3426-2.5845-.4667-4.2095"/>
    <path fill="none" stroke="#000" stroke-linecap="round" stroke-linejoin="round" stroke-width="2" d="m15.2316,32.2225c-2.6899,2.3456-8.1684,2.5269-8.1684,2.5269l-.9175-2.4814c1.2128-4.971,10.6373-9.1597,10.6373-9.1597l.8422-2.227c4.6223-3.7209,9.9561-5.1271,16.0675-4.0947,0,0,22.6884,2.9476,27.5312,12.1651,0,0,1.5911,2.3191-2.9684,12.8941l.8349,3.2467-.6967,9.7954c-.0693.9744-.88,1.7295-1.8569,1.7295h-.8575c-1.0976,0-1.957-.9448-1.8533-2.0375l.7712-8.1238-3.6699-4.2393s-2.0681,3.983-9.5452,1.5783"/>
    <path fill="none" stroke="#000" stroke-linecap="round" stroke-linejoin="round" stroke-width="2" d="m23.8161,22.5654l3.7744-1.6828c.4668-.1173.9199.2224.9441.7031.1034,2.0556.2325,7.379-3.8398,7.7668"/>
    <path fill="none" stroke="#000" stroke-linecap="round" stroke-linejoin="round" stroke-width="2" d="m22.2409,38.4064c5.7778,1.9598,6.5262,2.4823,8.5566,4.3669l1.6928,7.755-.4077,4.7893c-.0925,1.0865.7645,2.0195,1.8549,2.0195h.4326c1.0539,0,1.903-.8717,1.8602-1.9248-.1416-3.4875.0316-10.8589,3.5901-14.8514"/>
    <path fill="none" stroke="#000" stroke-linecap="round" stroke-linejoin="round" stroke-width="2" d="m27.6225,45.5745c.4154,1.9173.6969,4.7358-.4188,8.2036-.344,1.0692.4357,2.1677,1.5588,2.1677h.0046"/>
    <path fill="none" stroke="#000" stroke-linecap="round" stroke-linejoin="round" stroke-width="2" d="m64.5713,31.0769c.5566,1.0204,1.515,6.2151-.4484,7.4211-1.9634,1.2059.5892,3.3395.5892,3.3395"/>
  </g>
</g>
  <g transform="translate(684.8962273121792, 96.19969589467112) scale(1 1) translate(0, 0) scale(1.7453292519943293 1.7453292519943293) "><g id="color">
    <path fill="#f4aa41" d="m15.012,20.6113l-8.9258,1.8002-1.1962,2.5885.8559,1.1667,3.0919-.3333,4.9593,1.6804s3.7749,11.0061,15.0463,9.4478v22.0074h3.9148l1.4545-4.9385.6012-3.6307,8.5906,6.5854,2.1212-1.0195-.5892-2.5869s-7.0832-5.0589-6.966-5.8439.7549-6.3475.7549-6.3475l2.5523-.0066c2.5781-.2187,5.1271-.7006,7.6071-1.438l2.7675-1.043s5.1853,9.2167-1.8147,18.3209l1.3274,2.3125,2.6515-.3332s3.4672-5.3228,5.3599-11.5197c2.2364-7.322,3.0499-15.8608,4.4943-18.2303l-1.1135-2.833-9.0423-6.9512-3.6978-3.6864s-5.0878-.9774-7.0336.0591c-1.9459,1.0365-3.6959,3.6615-3.6959,3.6615,0,0-8.75,3.3226-10.625,8.4113,0,0-6.4254,4.6188-12.4627-7.0837l-.988-.2163Z"/>
    <path fill="#e27022" d="m64.1105,42.4963s-2.6468-6.5597-.9598-12.153c0,0-2.3756,6.2192-4.6256,7.2817s-.25,6.8125-.25,6.8125l1.875,3.1562-1.528,5.8123-.1498.5016-1.3321,3.9727s-.847,1.8245.3931,2.2008c1.2655.3839,4.6376.1679,5.1319-1.0024,1.3002-3.0787,2.7703-11.1728,2.7703-11.1728.0992-.6695-.4135-2.3125-.691-3.3881-.1385-.537-.303-1.0662-.4845-1.5902l-.1494-.4313Z"/>
    <path fill="#e27022" d="m29.6294,36.1306l-.786.4944v17.1666s-.1193,4.9797,0,5.1774c.1193.1976,4.5316-.2607,4.5316-.2607l.9054-4.5.4903-4.1146-1.0997-10.927-4.0416-3.0361Z"/>
  </g>
  <g id="line">
    <path fill="none" stroke="#000" stroke-linecap="round" stroke-linejoin="round" stroke-width="2" d="m59.3346,35.6722c-1.0322,1.8633-2.1378,4.2568-1.8743,5.5745.4734,2.3672,1.7162,6.2337,1.7162,6.2337l-5.0977,11.1058c-.3146.6855-.9998,1.1249-1.754,1.1249h-.0118c-1.4871,0-2.4197-1.6063-1.6706-2.8909,1.914-3.282,4.0872-9.1253,1.4405-16.3143-.6513-1.7691-.6643-3.7138-.039-5.4923l2.4968-7.1021"/>
    <path fill="none" stroke="#000" stroke-linecap="round" stroke-linejoin="round" stroke-width="2" d="m63.25,42.9349c.464.6901,1.5227,4.6182,1.3283,5.4268l-2.2703,9.4393c-.2162.8988-1.0201,1.5323-1.9445,1.5323h-2.4483"/>
    <path fill="none" stroke="#000" stroke-linecap="round" stroke-linejoin="round" stroke-width="2" d="m38.375,31.4375l.6999,6.8107-1.1374,9.5643,6.999,5.5663c.4067.2948.6875.7318.7868,1.2242l.0032.016c.3617,1.7945-1.6777,3.0917-3.1497,2.0033l-7.7629-6.2224-1.6028-11.3595-2.8949-2.607c-10.9681,3.4718-16.8162-9.5167-16.8162-9.5167l-5.25-1-1.9167.5c-.4704.0884-1.0571-.7298-1.25-1.1678-.8884-2.0178,1.5725-3.1907,1.5725-3.1907l8.3562-1.4468c.5717-.1006,1.1403.1768,1.4055.6932,1.3581,2.6452,5.9254,10.2179,12.1628,6.6068,0,0,1.4468-4.8436,8.0473-6.9487,1.5595-.4974,2.9298-1.464,3.8123-2.8426.6625-1.0349,1.5157-2.0836,2.3438-2.2815,1.2957-.3098,3.7318-.5408,5.4141-.5968.9628-.0321,1.8537.4943,2.2758,1.3603.7867,1.6141,11.4126,9.105,11.4126,9.105,1.3039,1.1445,2.0292,2.8096,1.9628,4.5432-.0857,2.2388.821,6.2497,1.9635,8.9997"/>
    <path fill="none" stroke="#000" stroke-linecap="round" stroke-linejoin="round" stroke-width="2" d="m30,41.1875l-1.1395,16.6297c-.1143.615.3576,1.1828.9832,1.1828h1.5313c1.1046,0,2-.8954,2-2v-2.5625"/>
    <path fill="none" stroke="#000" stroke-linecap="round" stroke-linejoin="round" stroke-width="2" d="m42.9495,39.9365c2.815-.282,6.6505-.8706,8.0404-1.9251"/>
  </g>
</g>
  <g transform="translate(778.1365979617372, 189.4400665442289) scale(1 1) translate(0, 0) scale(1.7453292519943293 1.7453292519943293) "><g id="color">
    <path fill="#f4aa41" d="m16.819,17.0281l-8.2988,1.8822c-.4469.0712-1.4413.4922-1.7111.8555l-.77.5989c-.4495.6054-.6971,1.0564-.2567,1.6683,0,0,.4016,1.0075,1.006.9588l1.7318-.4883c.2184-.0176.9028.2779,1.1122.3422l2.2244.5989c.6507.1999.3012.793.3864,1.4684.1075.8524,1.5565,7.2339,1.6626,7.6732.13.5384.8383,6.2969,12.4867,4.8313.3586-.0451,1.5389.3082,1.7511.6007,3.6418,5.0212,2.6484,17.3477,2.4865,20.0766-.0622,1.0492.7351,1.9606,1.7846,2.0156.0218.0011.0337.0015.0337.0015.4427.0067,1.9131-.2116,1.771-1.8966l.3991-16.8472.8859-.6086s2.1892,2.4082,5.8481,2.286c0,0,.6178.0029,1.4515.0047,2.8263.0063,5.618-.6593,8.1371-1.9407l2.6631-1.3546c.8861-.3154,1.8619.1342,2.1979,1.0127l1.3843,3.6188,2.2632,5.499c.1221.2967.1594.6214.1077.938l-1.1864,7.2672c-.0614.3761.003.762.1832,1.0978l.1244.2318c.3016.5621.8879.9128,1.5258.9128h.9363c.1307,0,.2609-.0148.3883-.0441l.2185-.0503c.7054-.1623,1.2348-.7416,1.3283-1.4594.3668-2.8171.6649-9.6191.6522-9.8064-.0143-.2115-1.6791-15.1808-2.1461-18.2672-.0549-.3629-.2233-.6957-.4816-.9565l-2.5292-1.7444c-1.5152-1.5291-3.7164-3.2257-4.5935-5.1916l-2.0814-5.2873c-.4962-1.1123-3.5169-1.1005-3.5169-1.1005-.3801.1826-.5534.2337-.7177.622l-1.8855,3.5642c-.0629.1485-.264.4369-.3655.5622-.3267.4035-1.2307,1.1592-1.4898,1.1592-.2268,0-2.0397.1382-3.1479-.1824-.5597-.1619-1.3319-.5309-1.5041-1.0876l-1.2495-4.2498c-.2244-.7253-.8951-1.2198-1.6543-1.2198h-2.2771c-.663,0-1.2678.3786-1.5575.9749l-.7763,1.5979-1.8805,4.2125c-.1325.2968-.3459.5504-.6157.7316l-4.8773,3.2758c-.1934.1299-.4109.2194-.6397.2632l-.8031.1539c-1.0118.1938-1.9681-.5333-2.0517-1.5601l-.0554-.6806c-.0084-.1026-.0075-.2058.0024-.3083l.3705-3.8056c.0222-.2277-.001-.4576-.0682-.6763l-1.2365-2.0172c-.1911-.622-.5569-.7429-1.1978-.8555l-.6417-.1283c-.1891-.0332-1.0509.2265-1.2405.2567Z"/>
    <path fill="#e27022" d="m52.1579,39.8527c-.83.4078-1.221,1.3733-.9019,2.2414.4805,1.3073,1.1158,3.2087,1.3317,4.6474.3606,2.4025-.4211,5.763-.5347,6.0972-.0764.2248-.8837,2.8598-1.404,4.5607-.255.8334.1219,1.726.8947,2.129l1.544.805.3667.1715c.8206.3836,1.8132.1154,2.2882-.6559.2654-.431.5212-1.0213.708-1.8281.2072-.8948.9628-7.8174,1.0463-8.5852.0055-.0505.0124-.0942.0221-.144l.4924-2.5264c.0564-.2896.0412-.5887-.0445-.871l-1.7304-5.7047c-.0434-.1431-.1044-.2803-.1816-.4085h0c-.4846-.8043-1.5042-1.104-2.347-.6899l-1.5499.7615Z"/>
  </g>
  <g id="line">
    <path fill="none" stroke="#000" stroke-linecap="round" stroke-linejoin="round" stroke-width="2" d="m53.9008,29.4362s.3861,10.6497,5.0718,18.508c.7719,1.2945.9857,2.845.5091,4.2748l-1.0089,6.0271c-.4317,1.2951.5323,2.6324,1.8974,2.6324h.6841c.9541,0,1.7737-.6695,1.9599-1.6053.5172-2.5994.677-6.9656,1.2605-9.1155.1849-.6812.191-1.3954-.0076-2.0727-.8261-2.8167-1.8679-12.0493-2.322-16.3353-.1508-1.4235-.8862-2.7156-2.0314-3.5745l-1.0701-.8025c-1.7017-1.2762-3.121-2.8906-4.1688-4.7417l-2.1628-5.5865c-.444-.7844-2.2581-1.2395-3.1595-1.2395h-.3451c-.8998,0-1.6965.5809-1.9634,1.4403-.4516,1.4542-1.2495,3.6068-2.2307,4.483-.9657.8624-2.7481.6466-3.9488.3636-.751-.177-1.3395-.7563-1.5449-1.5l-1.0114-3.6626c-.1938-.7016-.7855-1.2189-1.5072-1.3137-1.2267-.1611-3.0349-.2972-3.6196.1894-.9352.7782-1.1679,2.4989-1.855,4.3406-.4818,1.2915-1.3322,2.4161-2.4036,3.2834-3.2174,2.6046-9.5691,7.1672-8.0093,1.1908,1.9527-7.4822-2.7065-8.3939-2.7065-8.3939l-10.9097,2.4317s-2.9663,1.3675-2.0011,3.9272c.2437.6463.9539.9947,1.6281.8445l1.9895-.4434s2.9721,1.9197,6.4433.5898"/>
    <path fill="none" stroke="#000" stroke-linecap="round" stroke-linejoin="round" stroke-width="2" d="m52.7306,43.9293l.4361,2.032c.7287,3.372-2.6369,10.8199-2.6369,10.8199-.8457,2.5328,2.3321,3.4344,2.3321,3.4344"/>
    <path fill="none" stroke="#000" stroke-linecap="round" stroke-linejoin="round" stroke-width="2" d="m13.3333,27.1667s-1.0833,8.3333,5.6674,10.7822c0,0,2.9065.9491,5.4608.0676,1.8282-.6309,3.8605.1503,4.5926,1.9403l.0336.0822c.1266.3166.9242,5.0557,1.3963,7.9009.2323,1.4001.2718,2.8237.1169,4.2344l-.6907,6.2911c-.1291,1.1763.7857,2.2069,1.969,2.2182l.8697.0083c1.112.0106,2.019-.8879,2.019-1.9999v-10.0201s-.6823-7.2699,1.7713-11.4501"/>
    <path fill="none" stroke="#000" stroke-linecap="round" stroke-linejoin="round" stroke-width="2" d="m38.6925,41.6541c1.9873.5976,8.1435,1.6459,12.0039-.9791,0,0,2.7671-1.8256,4.5016-1.4871"/>
    <path fill="none" stroke="#000" stroke-linecap="round" stroke-linejoin="round" stroke-width="2" d="m64.7709,31.9016c.3553.1099,1.7422,1.9992,1.82,10.5699"/>
  </g>
</g>
  <g transform="translate(838.0006009572421, 306.92978772479864) scale(1 1) translate(0, 0) scale(1.7453292519943293 1.7453292519943293) "><g id="color">
    <path fill="#a57939" d="m61.54 37c-0.4139-0.6823-1.39-1.178-2.738-1.947-1.524-1.908-0.2775-2.888-2.053-4.905-4.281-4.865-26.31-1.117-26.31-1.117-4.651-5.643-5.238-8.224-10.98-17.44 0 0-0.2587 1.479-1.428 2.21-1.259 0.7875-3.444 0.8412-3.707 1.134-0.6945 0.7732-1.671 2.201-2.951 3.054-0.8146 0.5427 0.3339 2.21 0.4168 3.005 0.166 1.592 2.6-0.7192 3.797 0.3442 3.578 3.18 4 15.15 6.763 19.06 1.3 1.544 3.074 2.768 4.98 3.433 1.844 6.959 3.817 7.267 2.687 15.83 0.4369 0.16 1.284 0.9293 1.707 0.7362 0.2856-0.168 1.226-0.1211 1.52-0.9389 0.1153-0.3212 0.5276-1.195 0.7119-1.722 0.2205-0.6301 0.1615-1.731 0.1615-1.731l0.6918-6.166-0.2429-3.854c4.723-0.01304 8.445-0.3529 14.93-1.979 1.32-0.7341 0.9776-0.8917 1.52 0.6663 1.099 3.158 3.573 5.685 4.12 7.08 1.747 4.457 0.527 4.588 0.4127 6.775 0 0 0.02287 2.269 1.503 1.958 0.792-0.8507 2.113-2.719 2.393-4.392 0.2496-1.491 0.4007-4.187-0.3646-6.387-0.8238-1.093-0.06493-6.32-0.3348-9.521-0.1412-1.675-0.4815-2.371-0.3404-2.404 1.814 2.192 3.536 1.42 3.131-0.7725z"/>
    <path fill="#6a462f" d="m24.77 42.73c1.975 0.178 3.83 1.677 3.79 4.771 0 0-4.077 2.104-4.41 2.898s1.014 6.068 1.014 6.068-1.065 1.741-1.219 2.027c-0.8464 1.573-2.624 1.142-2.624 1.142l-0.7872-11.64c1.228-2.086 4.236-5.262 4.236-5.262z"/>
    <path fill="#6a462f" d="m48.36 44.54s2.621-1.731 3.146-0.9814c0.4054 0.5742 1.054 5.922 1.349 8.562s-3.699 6.291-4.407 7.209c-0.4578 0.5932-1.158 0.75-1.881 0.7299-0.4678-0.01295-1.223 0.9912-1.756 0.3317-0.4196-0.5191-0.452-2.319-0.7014-2.366-0.3162 0.1528 4.857-4.956 4.857-4.956z"/>
  </g>
  <g id="line">
    <path fill="none" stroke="#000" stroke-linecap="round" stroke-linejoin="round" stroke-width="2" d="m60.66 37.43-1.868-2.339c-0.8728-8.886-18.46-7.821-28.36-6.022-2.322 0.4345-6.446-9.261-8.223-13.67-0.2737-0.6795-1.317-3.758-2.636-3.758-1.128 0-1.043 1.632-1.55 2.196-0.4312 0.4801-2.718 0.6383-3.768 0.9577-0.3651 0.111 0.1295 1.608-0.2308 1.722-1.335 0.4216-2.756 0.8147-2.699 1.644 0.04867 0.7095 0.1107 2.779 0.8074 2.934 1.55 0.3459 2.621-0.4551 3.447 0.2786 3.578 3.18 4 15.15 6.763 19.06 1.3 1.544 2.992 2.709 4.98 3.433l2.344 5.148c1.045 2.673 1.011 5.618 1.009 8.373l-0.4614 1.021c-0.424 0.938 0.3586 1.958 1.503 1.958v0c0.6795 0 1.286-0.375 1.52-0.9389l0.7119-1.722c0.229-0.5537 0.2847-1.152 0.1615-1.731l-0.2283-6.013"/>
    <path fill="none" stroke="#000" stroke-linecap="round" stroke-linejoin="round" stroke-width="2" d="m33.02 45.22c3.575 1.759 13.64 0.04346 18.2-1.392 0.4893 5.819 2.003 5.739 3.923 7.774l0.8742 5.754-0.4614 1.021c-0.424 0.938 0.3586 1.958 1.503 1.958v0c0.6795 0 1.286-0.375 1.52-0.9389l0.7119-1.722c0.229-0.5537 0.2847-1.152 0.1615-1.731l-1.269-5.969"/>
    <path fill="none" stroke="#000" stroke-linecap="round" stroke-linejoin="round" stroke-width="2" d="m49.05 44.7c-1.155 3.33-1.013 3.448-1.017 4.312-0.0035 0.7897 0.2763 1.276 0.6732 2.694 0.3249 1.161-2.755 4.226-3.8 5.376l-0.7969 0.7882c-0.732 0.7238-0.3668 1.956 0.7014 2.366v0c0.6344 0.2435 1.335 0.1109 1.756-0.3317l1.282-1.352"/>
    <path fill="none" stroke="#000" stroke-linecap="round" stroke-linejoin="round" stroke-width="2" d="m24.77 42.73c-1.323 2.21-3.516 4.47-4.241 6.28-0.3209 0.8185 0.6727 9.041 0.6727 9.041l0.1115 1.115c0.1022 1.024 1.29 1.516 2.281 0.9432v0c0.5884-0.34 0.9262-0.9683 0.8464-1.573l-0.2452-1.847"/>
  </g>
</g>
  <g>
    <defs/>
    <path d="M 690.0852432444208 627.0108989196157 L 500.0 500.0 L 508.1199854650464 462.77301671525856" fill="none" stroke="black" stroke-width="12.566370614359172"/>
    <path d="M 759.3464613243675 562.2635766065735 L 722.2969668494578 553.3687799484915 A 228.6135782136736 228.6135782136736 0 0,1 634.3756897478092 684.9522699197282 L 701.5635346217138 777.4284048795923" fill="none" stroke="black" stroke-width="12.566370614359172"/>
    <path d="M 842.9203673205104 500.0 L 766.7158412492859 500.0 A 266.7158412492859 266.7158412492859 0 0,1 737.6455546575028 621.086458057217 L 771.5949196085746 638.3845234939622" fill="none" stroke="black" stroke-width="12.566370614359172"/>
    <path d="M 826.136649910499 605.968221219337 L 789.8992443648881 594.1939744171885 A 304.81810428489814 304.81810428489814 0 0,1 746.6030265596376 679.1675863304122 L 777.4284048795923 701.5635346217138" fill="none" stroke="black" stroke-width="12.566370614359172"/>
    <path d="M 457.50764824098695 436.74235353944755 L 478.7538241204935 468.3711767697238 A 38.10226303561227 38.10226303561227 0 0,1 532.4875198169473 480.09162225146304 L 727.412638718631 360.6413557602411" fill="none" stroke="black" stroke-width="12.566370614359172"/>
    <path d="M 388.72186950666253 473.8615281658889 L 425.81457967110833 482.5743521105926 A 76.20452607122454 76.20452607122454 0 0,1 511.9210142695963 424.7336780988733 L 547.6840570783853 198.9347123954933" fill="none" stroke="black" stroke-width="12.566370614359172"/>
    <path d="M 359.7717712695241 559.7039616949586 L 394.82882845214306 544.777971271219 A 114.3067891068368 114.3067891068368 0 0,1 425.7636789036749 413.0804356545767 L 326.78191744190804 297.18768319401227" fill="none" stroke="black" stroke-width="12.566370614359172"/>
    <path d="M 416.8591016034625 671.4122289239926 L 433.48728128276997 637.1297831391942 A 152.40905214244907 152.40905214244907 0 0,1 355.05037781755595 452.9030127914057 L 173.86335008950095 394.0317787806628" fill="none" stroke="black" stroke-width="12.566370614359172"/>
    <path d="M 547.6840570783854 801.0652876045067 L 529.8025356739909 688.1658047528167 A 190.51131517806135 190.51131517806135 0 0,1 333.77963820495427 593.087875341522 L 300.53556584594514 611.7054504098264" fill="none" stroke="black" stroke-width="12.566370614359172"/>
    <path d="M 605.9682212193371 826.136649910499 L 594.1939744171885 789.8992443648881 A 304.81810428489814 304.81810428489814 0 0,1 500.0 804.8181042848981 L 500.0 842.9203673205104" fill="none" stroke="black" stroke-width="12.566370614359172"/>
    <path d="M 326.7819174419082 702.8123168059878 L 351.5273578073499 673.8391286908467 A 228.6135782136736 228.6135782136736 0 0,1 274.20103429662004 535.763042808789 L 198.93471239549336 547.6840570783854" fill="none" stroke="black" stroke-width="12.566370614359172"/>
    <path d="M 361.6154765060378 771.5949196085746 L 378.91354194278307 737.6455546575028 A 266.7158412492859 266.7158412492859 0 0,1 284.2223517603171 656.7716380391107 L 222.57159512040772 701.5635346217139" fill="none" stroke="black" stroke-width="12.566370614359172"/>
    <path d="M 394.031778780663 826.136649910499 L 405.8060255828115 789.8992443648881 A 304.81810428489814 304.81810428489814 0 0,1 320.8324136695878 746.6030265596376 L 298.43646537828624 777.4284048795923" fill="none" stroke="black" stroke-width="12.566370614359172"/>
    <path d="M 173.86335008950095 605.9682212193371 L 210.10075563511197 594.1939744171885 A 304.81810428489814 304.81810428489814 0 0,1 195.18189571510186 500.00000000000006 L 157.07963267948958 500.00000000000006" fill="none" stroke="black" stroke-width="12.566370614359172"/>
    <path d="M 222.57159512040766 298.43646537828624 L 284.22235176031705 343.2283619608893 A 266.7158412492859 266.7158412492859 0 0,1 378.913541942783 262.35444534249723 L 361.6154765060378 228.40508039142549" fill="none" stroke="black" stroke-width="12.566370614359172"/>
    <path d="M 298.4364653782862 222.57159512040772 L 320.8324136695877 253.39697344036244 A 304.81810428489814 304.81810428489814 0 0,1 405.80602558281146 210.10075563511197 L 394.0317787806629 173.86335008950095" fill="none" stroke="black" stroke-width="12.566370614359172"/>
    <path d="M 499.99999999999994 157.07963267948958 L 499.99999999999994 195.18189571510186 A 304.81810428489814 304.81810428489814 0 0,1 594.1939744171884 210.1007556351119 L 605.968221219337 173.8633500895009" fill="none" stroke="black" stroke-width="12.566370614359172"/>
    <path d="M 715.5389485682797 284.46105143172025 L 688.5965799972447 311.4034200027552 A 266.7158412492859 266.7158412492859 0 0,1 753.6618388192771 417.58027238496 L 826.136649910499 394.0317787806629" fill="none" stroke="black" stroke-width="12.566370614359172"/>
    <path d="M 701.5635346217136 222.57159512040766 L 679.1675863304122 253.3969734403624 A 304.81810428489814 304.81810428489814 0 0,1 746.6030265596376 320.8324136695877 L 777.4284048795923 298.43646537828613" fill="none" stroke="black" stroke-width="12.566370614359172"/>
  </g>
</svg>
