<?xml version='1.0' encoding='ASCII' standalone='yes'?>
<svg xmlns="http://www.w3.org/2000/svg" xmlns:xlink="http://www.w3.org/1999/xlink" version="1.1" width="1000.0px" viewBox="0 0 1000.0 1000.0" height="1000.0px">
  <g transform="translate(856.0, 436.0) scale(1 1) translate(0, 0) scale(1.0 1.0) "><path style="fill:#858585;" d="M45.41,99.05c0,0,0.56,7.18,0,8.02c-0.56,0.84-4.79,1.27-8.02,4.36c-2.67,2.55-2.11,5.49,0.99,5.21  c3.1-0.28,6.62-3.1,10.42-3.8c3.8-0.7,9.57-0.28,9.57-2.67s-5.07-2.96-5.07-2.96v-6.9l6.48,0.56l-0.28,11.83  c0,0-7.04,2.53-9.15,4.22c-2.11,1.69-3.94,4.36-2.39,5.91c1.55,1.55,5.07-0.56,6.62-0.99c1.55-0.42,6.34-2.67,9.71-3.1  c3.38-0.42,9.57,0.42,10.28-1.27c0.7-1.69-1.27-3.52-3.94-4.36s-2.67-0.84-2.67-0.84V98.34L45.41,99.05z"/>
<path style="fill:#FFEAC9;" d="M47.38,43.86c0,0-3.74-1.82-3.94-8.17c-0.14-4.5,2.96-7.46,2.96-7.46s-1.27-4.08,1.41-7.88  s5.07-3.66,5.07-3.66s0-4.79,4.08-7.32s7.32-0.14,7.32-0.14s1.69-4.08,6.19-4.36c4.5-0.28,5.91,2.39,5.91,2.39s2.96-3.94,7.32-2.67  c4.36,1.27,5.07,4.79,5.07,4.79s3.8-3.52,8.45-0.42c4.65,3.1,3.52,7.18,3.52,7.18s4.64-2.26,9.01,2.11  c3.24,3.24,1.27,7.46,1.27,7.46s4.21,0.24,5.91,4.93c1.69,4.65-1.83,8.02-1.83,8.02s4.19,0.46,5.35,5.63  c1.27,5.63-3.1,8.87-3.1,8.87s2.53,2.25,1.69,8.02c-0.74,5.03-5.91,7.04-5.91,7.04s1.97,3.47-0.56,7.98  c-2.53,4.5-7.88,4.27-7.88,4.27s-0.34,3.16-2.67,5.49c-2.96,2.96-7.04,1.69-7.04,1.69L46.4,53.15L47.38,43.86z"/>
<path style="fill:#4D4D4D;" d="M81.45,67.79l14.37,12.03L99.61,83c0,0,4.08-0.14,6.9-4.22c2-2.9,0.56-6.9,0.56-6.9  s5.07-0.7,6.62-6.48c1.55-5.77-1.27-8.45-1.27-8.45s4.15-1.26,4.15-7.04c0-5.28-4.72-6.34-4.72-6.34s4.43-1.62,2.96-6.48  c-1.31-4.31-5.77-4.08-5.77-4.08s2.6-4.5-0.7-8.31c-2.81-3.23-6.76-1.41-6.76-1.41s0.7-4.08-2.25-6.48s-6.62-0.56-6.62-0.56  s0.14-4.22-3.38-5.21c-3.52-0.99-5.35,0.84-5.35,0.84s-2.11-3.24-5.63-2.96c-3.52,0.28-4.93,2.82-4.93,2.82s-2.11-2.53-5.91-1.69  c-4.04,0.9-4.22,4.5-4.22,4.5s-3.26-1.59-5.91,0c-3.52,2.11-2.96,6.19-2.96,6.19s-3.94,0.56-5.49,3.38  c-2.04,3.7-0.14,7.32-0.14,7.32l0.56,9.71L81.45,67.79z"/>
<path style="fill:#845B52;" d="M97.92,79.48c0,0,3.94-0.42,5.07-3.8c1.13-3.38-0.42-5.63-0.42-5.63s5.07-1.55,6.19-6.19  s-1.83-8.17-1.83-8.17s4.93-5.07,2.96-10s-6.34-6.05-6.34-6.05s2.56-5.01,0.99-8.17c-2.25-4.5-8.17-4.22-8.17-4.22  s1.52-4.72-3.85-7.62C87.86,17.11,83.84,20,83.84,20s-2.25-4.72-7.6-4.72c-5.35,0-7.18,4.93-7.18,4.93s-4.5-2.96-8.73-0.42  s-4.08,7.46-4.08,7.46s-4.93-0.28-8.73,4.65c-2.92,3.79-1.13,10.7-1.13,10.7L32.6,53.44c0,0-0.19-1.88-1.27-3.8  c-1.08-1.92,2.58-13.19,2.58-13.19s-16.66,7.41-18.77,11.22c-2.11,3.8-3.6,10.4-3.24,16.89c0.49,8.8,5.35,21.82,14.78,28.72  c10.46,7.65,19.93,11.48,34.77,11.26c19.15-0.28,27.87-5.35,30.27-6.34S97.92,79.48,97.92,79.48z"/>
<radialGradient id="SVGID_0_1_" cx="25.8632" cy="20.3452" r="14.7776" gradientTransform="matrix(0.8012 -0.5985 0.5116 0.6849 -5.2666 21.8881)" gradientUnits="userSpaceOnUse">
	<stop offset="0.2058" style="stop-color:#5EA4CE"/>
	<stop offset="0.5056" style="stop-color:#988AA4"/>
	<stop offset="1" style="stop-color:#FE5D5A"/>
</radialGradient>
<path style="fill:url(#SVGID_0_1_);" d="M29.92,40.48c0,0,5.07-4.5,6.62-6.62c1.55-2.11,5.13-7.47,3.94-16.47  C39.5,9.93,32.33,5.81,26.78,7.07c-3.1,0.7-6.99,7.79-7.56,10.04s2.96,11.4,2.96,11.4L29.92,40.48z"/>
<ellipse style="fill:#000306;" cx="29.36" cy="19.23" rx="3.66" ry="3.8"/>
<path style="fill:#898484;" d="M17.11,15.85c-1.13,1.55-2.53,3.37-3.94,4.79c-2.11,2.11-4.36,4.5-4.22,5.35  c0.22,1.31,2.65,0.4,4.22-0.42c2.96-1.55,4.65-2.25,5.63-2.25c0.99,0,1.41,0.7,2.25,0.14c0.84-0.56,2.11-2.96,1.97-3.8  s-3.61-2.11-4.32-2.53C18.01,16.69,17.11,15.85,17.11,15.85z"/>
<path style="fill:#A22911;" d="M27.53,6.79c0.87,0.21-3.1,1.95-4.08,6.16c-0.87,3.73-1.83,7.32-4.93,5.76  c-4.13-2.08-1.06-7.86,0.14-9.19C20.35,7.65,23.59,5.86,27.53,6.79z"/>
<path style="fill:#A22911;" d="M23.07,20.13c-0.14-1.53-1.9-0.84-2.18,0.69c-0.28,1.53-0.49,2.14-1.06,3.21  c-0.56,1.07-6.34,6.04-7.32,7.42s-3.05,4.65-1.27,7.65c1.55,2.6,6.9,1.84,6.9,1.84l6.48-9.18c0,0-0.99-3.52-1.13-5.05  C23.36,25.18,23.21,21.66,23.07,20.13z"/>
<path style="fill:#FF2219;" d="M28.44,30.88c2.57,3.13,2.8,6.65,2.35,9.46c-0.46,2.81-1.88,9.04-7.92,14.12  c-3.13,2.64-9.63,4.31-13.38,0.4c-4.43-4.63,3.02-10.94,4.17-12.48s5.84-5.35,7.36-9.06c0.95-2.31,2.34-7.15,2.34-7.15  S26.38,28.37,28.44,30.88z"/>
<path style="fill:#B79277;" d="M94.54,75.4c0,0,3.31-0.8,4.32-3.1c1.31-3-0.19-5.07-0.19-5.07s5.35-0.75,5.82-5.91  c0.37-4.07-2.72-6.1-2.72-6.1s3.75-2.63,3.1-6.76c-0.86-5.42-6.01-5.63-6.01-5.63s4.22-3.28,0.94-8.35  c-2.1-3.23-7.13-2.35-7.13-2.35s1.88-4.6-2.53-7.04c-4.22-2.34-7.88,1.41-7.88,1.41s0.1-4.72-5.63-5.26  c-4.97-0.47-6.48,4.6-6.48,4.6s-3.28-3-7.79-0.84c-4.13,1.97-3.75,6.76-3.75,6.76s-4.37-0.9-7.23,1.69c-3,2.72-1.92,8.26-1.92,8.26  S29.22,52.78,28.09,54c-1.13,1.22-7.98,10.98-3.57,22.43S41.21,93.61,52.5,87.22c7.79-4.41,12.95-14.73,15.2-17.93  c2.25-3.19,5.26-4.04,5.26-4.04L94.54,75.4z"/>
<path style="fill:#FAEACB;" d="M64.32,67.04c0,0,6.29-0.84,11.64,1.69c5.35,2.53,11.26,7.6,13.98,13.61  c2.72,6.01,2.44,15.58,2.44,15.58s8.54,0.47,8.82-8.17c0.2-6-2.72-8.73-2.72-8.73s2.44-3.1-1.6-7.98c-2.41-2.91-6.43-4.34-6.43-4.34  s-3.01-3.74-9.29-5C72.72,62.02,64.32,67.04,64.32,67.04z"/>
<path style="fill:#4D4D4D;" d="M52.21,41.23c0,0,0.43-4.72,4.69-6.19c5.44-1.88,8.26,1.22,8.26,1.22s2.53-5.17,8.82-4.79  c6.97,0.42,8.02,7.32,8.02,7.32s6.19-1.67,9.85,3.87c3.66,5.54-0.14,11.24-0.14,11.24s5.17,1.55,5.07,7.74  c-0.09,5.87-3.52,8.4-3.52,8.4s-1.55-0.92-2.67-0.99c-1.08-0.61-7.23-5.4-12.95-5.49c-5.73-0.09-10.61,2.06-13.33,3.47  c-2.72,1.41-13.14,9.01-14.73,9.95s-12.2,7.6-19.9-2.16s-2.23-22.02,2.25-26.09C37.01,44.14,43.96,41.33,52.21,41.23z"/>
<path style="fill:#000306;" d="M43.67,57.28c0.34,1.28,3.21,4.39,11.03,7.13c3.05,1.07,9.64,2.6,9.64,2.6s3.87-1.69,6.26-2.51  c0.79-0.27,5.49-1.08,5.49-1.08c0.84,0.29-10.39-1.15-17.67-3.03C52.17,58.78,43.16,55.31,43.67,57.28z"/>
<path style="fill:#B49075;" d="M91.49,87.36c0,0,1.74-0.5,4.81-0.35c2.46,0.12,4.93,0.49,5,1.9s-2.25,0.84-5.28,0.84  c-2.98,0-4.11,0.38-4.11,0.38L91.49,87.36z"/>
<path style="fill:#B49075;" d="M89.01,80.65c0,0,2.72-0.47,4.55-0.61c1.83-0.14,5.58-0.02,5.58-1.36c0-1.34-4.6-1.55-6.41-1.41  c-2.55,0.2-5.37,0.8-5.37,0.8L89.01,80.65z"/>
<path style="fill:#B49075;" d="M83.47,73.8c0,0,1.85-2,4.6-2.25c2.58-0.23,6.38,0.12,5.68-1.22c-0.7-1.34-4.34-1.57-5.96-1.45  c-5.4,0.38-6.8,2.96-6.8,2.96L83.47,73.8z"/>
</g>
  <g transform="translate(819.6890922098924, 606.8293900918361) scale(1 1) translate(0, 0) scale(1.0 1.0) "><path style="fill:#A42E1A;" d="M52.83,29.41c0,0,6.95-3.71,10.04-9.24S67,8.76,62.26,6.32c-5.67-2.92-11.83,4.22-11.83,4.22  s0.56-4.46-3.57-4.93c-9.21-1.05-10.61,9.71-10.61,9.71s-2.34-1.96-5.26-0.94c-3.47,1.22-4.01,5.81-3.85,8.07  c0.23,3.24,2.21,7.41,2.21,7.41L52.83,29.41z"/>
<path style="fill:#FFB70C;" d="M66.67,95.11l-24-5.21c0,0,0.92,8.59,0.28,9.57c-1.24,1.93-8.09,1.9-12.04,2.82  c-3.71,0.86-8.73,6.21-5.14,10.63c3.38,4.15,6.97-3.45,8.87-3.31c1.9,0.14,2.3,3.97,4.43,3.87c3.1-0.14,1.27-4.43,2.75-5.98  c1.48-1.55,7.04-1.27,8.17-3.1s0.7-7.95,0.7-7.95l7.18,2.53c0,0,4.08,4.86,3.8,8.87s-2.39,6.57-3.8,6.9  c-4.93,1.13-11.4,2.53-10.98,5.49c0.43,3.01,6.04,1.55,14.29,1.55c8.02,0,12.18,0.99,12.81-2.39s-5.42-3.45-5.49-4.65  c-0.07-1.2,1.9-6.62,1.55-9.08C69.7,103.2,66.67,95.11,66.67,95.11z"/>
<radialGradient id="SVGID_1_1_" cx="20.1027" cy="100.1742" r="95.9397" gradientUnits="userSpaceOnUse">
	<stop offset="0.4677" style="stop-color:#8D5E50"/>
	<stop offset="0.6753" style="stop-color:#5A7439"/>
	<stop offset="0.8209" style="stop-color:#34642E"/>
	<stop offset="1" style="stop-color:#315427"/>
</radialGradient>
<path style="fill:url(#SVGID_1_1_);" d="M55.22,50.71l-25.58,2.44c0,0-5.98,4.79-6.99,13.98c-0.59,5.38,1.52,13.59,8.45,20.27  c5.8,5.58,13.61,15.67,29.09,14.08s25.85-14.67,29.28-21.73c3.28-6.76,4.6-14.5,5.44-14.59c0.84-0.09,8.69,11.29,11.36,10.7  c1.69-0.38,1.64-5.64,1.22-8.73c-0.66-4.79-2.44-7.79-2.44-7.79s7.79,5.73,8.92,4.08c0.85-1.23,0.19-7.27-0.99-11.83  c-1.29-5-3.33-8.12-3.33-8.12s8.26,8.21,8.96,5.87c0.33-1.1,0.61-17.03-13.28-21.26s-23.89,8.59-26.28,14.64  c-2.57,6.51-4.65,17.03-4.65,17.03L55.22,50.71z"/>
<path style="fill:#FFB903;" d="M41.89,22.84c-6.84,0.32-12.39,6.85-12.39,6.85s-6.03,0.38-7.98,1.03c-2.86,0.96-4.88,3.2-5.07,4.32  c-0.47,2.77,10.32,3.94,10.32,3.94l0.84,15.96c0,0,6.66,5.82,7.41,5.91c0.75,0.09,5.82-6.19,6.48-6.29s7.79,7.32,7.79,7.32  l18.7-6.05c0,0-2.6-4.79-4.5-8.09c-1.88-3.28-2.96-13.8-8.66-19.78C51.09,24.01,45.93,22.65,41.89,22.84z"/>
<path style="fill:#FF732D;" d="M31.85,36.07c0,0-4.55,0.03-7.13-0.09c-1.97-0.09-8.26-0.94-8.26-0.94s-0.23,0.66,0.38,0.94  c0.61,0.28,6.19,1.69,8.12,1.83c1.92,0.14,7.7,0.38,7.7,0.38l0.47-0.94L31.85,36.07z"/>
<path style="fill:#FF6157;" d="M32.22,38.93c0,0-4.79,0.19-5.54,0.38s-7.27,3.8-9.71,7.65s-2.91,9.9,0.47,12.2  c2.9,1.97,8.87,0.94,11.97-4.83c2.61-4.86,4.55-9.53,4.55-9.53s10.79-0.19,11.22-9.24c0.42-9.06-7.98-9.95-11.03-9.24  c-2.42,0.56-4.88,3.33-4.88,3.33s2.21,3.19,2.44,4.69C31.94,35.84,32.22,38.93,32.22,38.93z"/>
<path style="fill:#29292A;" d="M39.7,35.64c-0.51,2.18-2.27,3.71-3.86,3.34c-1.59-0.37-2.48-2.79-1.97-4.97  c0.51-2.18,2.1-3.35,3.71-3.05C39.51,31.32,40.21,33.46,39.7,35.64z"/>
<path style="fill:#D27856;" d="M59.63,50.34c0,0-13.16,5.91-16.05,14.36s-0.4,17.75,6.83,22.24c7.81,4.86,18.11,3.81,24.71,1.06  c5.56-2.32,7.32-5.42,6.97-7.6c-0.42-2.58-1.69-3.45-1.69-3.45s4.15-2.75,4.08-5.84c-0.07-3.1-3.8-3.94-3.8-3.94  s3.31-2.04,3.03-5.07c-0.28-3.03-4.96-5.1-9.64-5.63C68.43,55.83,59.63,50.34,59.63,50.34z"/>
</g>
  <g transform="translate(717.0348546707205, 748.1208267005055) scale(1 1) translate(0, 0) scale(1.0 1.0) "><path style="fill:#B0B1B0;" d="M56.44,99.99l5.73,1.41c0,0,2.35,5.63,2.82,7.51c0.47,1.88,2.44,5.91,1.69,7.23  c-0.75,1.31-3.94,2.72-5.54,3.1c-1.6,0.38-4.41,1.22-4.69,0.09c-0.28-1.13,0.66-2.06,2.44-2.82s3.47-1.22,3.47-2.35  s-1.41-4.41-2.53-6.48c-0.6-1.11-2.25-3.85-2.82-4.88S56.44,99.99,56.44,99.99z"/>
<path style="fill:#B0B1B0;" d="M68.83,101.11c0,0,0.75,1.6,0.47,2.06c-0.28,0.47-3.57,0.56-3.75,2.25  c-0.19,1.69,0.94,5.35,1.13,6.19c0.19,0.84,0.83,2.18,1.69,2.06c1.41-0.19,1.41-1.78,1.31-3.47c-0.06-1.04,0.47-1.78,1.22-2.16  c0.75-0.38,2.72-1.03,2.82-1.97c0.09-0.94-0.38-5.73-0.38-5.73L68.83,101.11z"/>
<radialGradient id="SVGID_2_1_" cx="62.9362" cy="80.7001" r="72.6782" gradientUnits="userSpaceOnUse">
	<stop offset="0.2206" style="stop-color:#7CD086"/>
	<stop offset="0.3483" style="stop-color:#78CF84"/>
	<stop offset="0.4719" style="stop-color:#6CCB7D"/>
	<stop offset="0.5939" style="stop-color:#59C572"/>
	<stop offset="0.7148" style="stop-color:#3EBC62"/>
	<stop offset="0.8339" style="stop-color:#1BB14E"/>
	<stop offset="0.9082" style="stop-color:#01A93F"/>
</radialGradient>
<path style="fill:url(#SVGID_2_1_);" d="M62.87,87.36c0,0-17.74,7.32-21.68,8.73s-19.43,4.65-28.44-8.87s-3.38-37.45,6.62-46.6  s26.33-29,61.52-20.84s46.18,51.95,39,66.59s-15.2,16.75-26.89,14.36S62.87,87.36,62.87,87.36z"/>
<path style="fill:#B6D115;" d="M76.66,90.88c0,0,0.28-5.21,2.53-13.37s8.31-24.21,3.24-29.56c-5.07-5.35-13.37-4.93-18.44-5.07  c-5.07-0.14-13.51,0.7-13.94,11.26c-0.42,10.56,2.25,29.99,2.25,29.99L76.66,90.88z"/>
<path style="fill:#06AC48;" d="M73.64,30.82c0.77,0.23,3.01-1.97,4.58-3.85c2.46-2.96,3.26-4.46,3.31-6.34  c0.09-3.38-2.14-5.7-5.98-5.98c-3.85-0.28-7.04,1.97-6.76,5.35s1.06,4.15,1.97,6.12C71.33,27.38,73,30.63,73.64,30.82z"/>
<path style="fill:#06AC48;" d="M90.6,38.32c0.57,0.33,4.34-0.33,6.12-0.8s3.88-0.69,5.56-3.73c1.74-3.14,0.56-5.98-1.5-7.53  c-2.71-2.03-6.9-1.74-8.68,0.7s-1.57,4.72-1.64,5.84C90.32,35.16,90.32,38.16,90.6,38.32z"/>
<path style="fill:#06AC48;" d="M77.79,44c0.56,0.56,6.26-1.34,8.21-3.89c1.75-2.3,2.82-5.91-0.84-8.45s-8.77-0.56-8.82,5.63  C76.31,40.2,77.23,43.44,77.79,44z"/>
<path style="fill:#06AC48;" d="M54.66,31.19c0.72-0.36,3.5-6.01,3.5-8.73s-1.06-7.98-7.44-6.85s-5.18,6.72-4.04,8.96  C48.11,27.37,53.9,31.57,54.66,31.19z"/>
<path style="fill:#06AC48;" d="M37.39,38.89c0.58-0.35,0.47-8.35-1.22-10.7c-1.69-2.35-5.63-4.04-9.1-0.94s-2.72,7.13,1.5,9.67  S36.92,39.17,37.39,38.89z"/>
<path style="fill:#06AC48;" d="M43.16,51.38c0.35-1.07-3.66-5.62-5.8-7.43c-2.1-1.78-8.09-3.92-9.77,2.16  c-1.51,5.48,4.19,6.88,6.46,6.9C36.33,53.04,42.84,52.37,43.16,51.38z"/>
<path style="fill:#06AC48;" d="M25.35,52.1c0.33-0.49-2.16-8.07-4.97-10.04c-2.82-1.97-6.38-0.94-7.79,2.53  c-1.14,2.81-0.01,8.52,5.07,8.26C21.31,52.66,25.07,52.52,25.35,52.1z"/>
<path style="fill:#06AC48;" d="M52.5,44.43c0.75-0.56,0.21-8.17-1.38-10.7s-5.28-4.69-9.13-1.5c-2.95,2.44-2.06,7.32,1.78,9.76  C47.62,44.43,51.75,44.99,52.5,44.43z"/>
<path style="fill:#06AC48;" d="M63.95,40.86c0,0,5.26-3.94,5.49-7.74c0.15-2.44-0.89-6.24-5.49-6.34c-3.57-0.07-6.38,2.72-5.91,6.19  C58.5,36.45,62.73,40.86,63.95,40.86z"/>
<path style="fill:#06AC48;" d="M48.55,60.66c0,0-2.44-3.19-5.54-4.55c-2.39-1.06-8.35-1.17-8.45,4.74  c-0.09,5.91,4.88,6.05,7.88,5.07C45.76,64.84,48.55,60.66,48.55,60.66z"/>
<path style="fill:#06AC48;" d="M44.33,69.3c-0.21-0.6-3.64-1.22-7.98-1.13c-1.97,0.04-6.56,2.25-4.32,7.23  c1.97,4.36,6.68,3.22,8.52,1.06C42.52,74.13,44.5,69.77,44.33,69.3z"/>
<path style="fill:#06AC48;" d="M33.91,63.29c0-0.76-3.78-4.22-7.41-6.01c-3.52-1.73-7.53,1.31-7.6,5.07  c-0.09,5.16,3.94,8.07,8.45,5.91C31.51,66.27,33.91,63.76,33.91,63.29z"/>
<path style="fill:#06AC48;" d="M18.15,64.23c0-0.66-4.79-5.44-8.26-5.63s-5.73,3-5.54,6.1c0.13,2.07,2.58,6.05,6.43,5.21  C14.51,69.09,18.15,65.17,18.15,64.23z"/>
<path style="fill:#06AC48;" d="M31.05,75.82c0,0-4.58-3.59-9.71-1.95c-2.76,0.88-2.75,4.41-1.88,6.38c0.83,1.89,3.33,4.6,6.24,2.82  S31.05,75.82,31.05,75.82z"/>
<path style="fill:#06AC48;" d="M18.8,80.46c0,0-6.19-3.38-9.1-2.35S6.79,83,7.63,85.16s2.82,4.41,5.91,3.19S18.8,80.46,18.8,80.46z"/>
<path style="fill:#06AC48;" d="M29.88,89.38c0,0-6.97-1.83-10.23,0.28c-3.19,2.06-2.25,5.54-1.13,7.13c1.13,1.6,4.04,3.44,7.04,1.06  C27.84,96.04,30.07,89.85,29.88,89.38z"/>
<path style="fill:#06AC48;" d="M42.41,82.51c0,0-7.18-0.7-9.24,1.27c-2.06,1.97-2.1,5.5-0.8,7.18c1.6,2.06,6.1,2.72,8.26,0.19  C42.78,88.61,42.41,82.51,42.41,82.51z"/>
<path style="fill:#06AC48;" d="M85.81,51.22c0,0,2.82-8.09,5.78-9.66c2.15-1.14,6.34-1.87,8.55,1.88c2.31,3.9-0.41,7.25-2.75,8.14  C93.6,53,86.21,51.76,85.81,51.22z"/>
<path style="fill:#06AC48;" d="M93.46,59.49c-0.16-0.54,5.91-6.1,9.39-6.29c3.47-0.19,6.19,2.35,6.19,5.35c0,3-2.16,5.54-5.54,5.35  C100.13,63.71,93.75,60.43,93.46,59.49z"/>
<path style="fill:#06AC48;" d="M83.75,63.95c0,0,7.04-1.6,9.76-0.56c2.72,1.03,3.75,4.88,2.25,6.95c-1.5,2.06-5.82,2.63-7.79,0.66  S83.56,65.07,83.75,63.95z"/>
<path style="fill:#06AC48;" d="M81.78,73.52c0.41-0.34,6.66,2.06,8.26,3.19c1.6,1.13,2.91,4.79,0.28,6.76  c-2.63,1.97-5.58-0.23-6.48-1.88C83.14,80.29,81.22,73.99,81.78,73.52z"/>
<path style="fill:none;stroke:#06AC48;stroke-miterlimit:10;" d="M29.03,37.2"/>
<path style="fill:#06AC48;" d="M96.66,71.06c0.16-0.6,4.15-1.37,6.37-1.82c2.97-0.61,9.66-0.61,8.39,6.18  c-1.06,5.64-7.11,4.26-8.71,2.94C101.12,77.04,96.45,71.87,96.66,71.06z"/>
<path style="fill:#06AC48;" d="M107.6,66.29c-0.36-0.69,5.13-5.1,6.09-5.78c2.4-1.72,7.69-3.23,8.81,2.41s-2.82,7.35-4.83,7.48  S108.14,67.34,107.6,66.29z"/>
<path style="fill:#06AC48;" d="M93.09,81.64c0,0,7.03-0.66,9.19,0.94c2.16,1.6,3.31,5,1.32,7.32c-1.21,1.41-5.4,2.67-7.7-0.28  C94.36,87.62,92.9,82.3,93.09,81.64z"/>
<path style="fill:#06AC48;" d="M107.36,81.47c0,0,6.52-1.97,9.99-0.65c3.47,1.32,4.56,3.29,3.52,6.84s-5.53,3.9-7.79,2.33  C110.31,88.06,106.8,82.38,107.36,81.47z"/>
<path style="fill:#06AC48;" d="M102.76,91.96c0.76-0.65,6.95,0.47,9.01,2.63c2.06,2.16,1.29,4.74-0.28,6.19  c-1.87,1.74-5.73,2.35-7.6-0.09C102.01,98.25,102.1,92.53,102.76,91.96z"/>
<path style="fill:#06AC48;" d="M83.8,88.58c0.61-0.52,4.32,1.6,6.29,2.63c1.97,1.03,7.62,5.96,2.83,9.52  c-4.28,3.19-7.6-2.14-8.17-4.01C84.2,94.85,83.3,89.02,83.8,88.58z"/>
<path style="fill:#06AC48;" d="M101.75,49.64c-0.15-0.45,3.14-7.18,7.23-8.73c2.99-1.13,6.1,0.44,7.03,3.17  c0.94,2.72,0.84,6.59-2.53,7.53S101.93,50.2,101.75,49.64z"/>
<path style="fill:#E9DCA7;" d="M53.29,51.32c0,0.8,0.52,0.8,1.83,0.89c1.36,0.09,2.49,0,2.49-0.84c0-1.18-0.38-1.83-2.16-1.83  C53.67,49.54,53.29,50.57,53.29,51.32z"/>
<path style="fill:#E9DCA7;" d="M73.05,49.96c-1.92-0.52-2.72,0.47-2.82,1.31c-0.09,0.84,1.03,0.89,2.02,1.13s2.3,1.08,2.63-0.05  C75.21,51.23,74.74,50.42,73.05,49.96z"/>
<path style="fill:#E9DCA7;" d="M67.37,59.11c0.04,0.95,1.03,1.03,2.25,1.13s2.39,0.23,2.72-0.61c0.33-0.84-0.52-2.3-2.35-2.44  C68.35,57.06,67.33,58.08,67.37,59.11z"/>
<path style="fill:#E9DCA7;" d="M77.98,53.79c-0.17,0.81,0.66,1.36,1.36,1.74c0.7,0.38,1.5,0.75,1.97,0.19  c0.47-0.56,0.75-1.55-0.8-2.49C78.96,52.29,78.12,53.13,77.98,53.79z"/>
<path style="fill:#E9DCA7;" d="M76.95,62.05c-0.33,0.93,0.56,1.45,1.13,1.97c0.56,0.52,1.78,0.84,2.35,0.28s0.23-2.02-0.75-2.63  C78.68,61.06,77.27,61.11,76.95,62.05z"/>
<path style="fill:#E9DCA7;" d="M69.34,66.79c0,0.97,1.5,1.08,2.25,1.6c0.75,0.52,1.97,1.55,2.53,0.66c0.71-1.12,0.19-2.25-1.31-3.1  C71.08,64.96,69.34,65.66,69.34,66.79z"/>
<path style="fill:#E9DCA7;" d="M67.02,72.65c0.28-0.99,1.78-0.89,2.82-0.14s1.5,1.97,1.08,2.67c-0.42,0.7-2.02,0.33-2.72-0.38  C67.49,74.11,66.8,73.41,67.02,72.65z"/>
<path style="fill:#B6D016;" d="M55.88,21.2c0,1.92-1.22,3.89-4.04,3.8c-2.49-0.08-3.61-1.7-3.61-3.61s1.75-3.75,3.8-3.75  S55.88,19.28,55.88,21.2z"/>
<path style="fill:#B6D016;" d="M78.92,21.17c-0.57,1.83-2.36,3.58-5.02,2.66c-2.35-0.82-2.91-2.92-2.33-4.76  c0.57-1.83,2.79-3.06,4.75-2.45C78.26,17.23,79.49,19.34,78.92,21.17z"/>
<path style="fill:#B6D016;" d="M34.48,30.47c0,1.91-1.17,3.87-3.86,3.78c-2.38-0.08-3.46-1.68-3.46-3.59c0-1.91,1.68-3.73,3.64-3.73  S34.48,28.56,34.48,30.47z"/>
<path style="fill:#B6D016;" d="M36.18,47.4c-0.24,1.73-1.57,3.36-4.08,2.93c-2.21-0.38-3.02-1.97-2.78-3.7  c0.24-1.73,2.03-3.17,3.86-2.92C35.01,43.96,36.42,45.67,36.18,47.4z"/>
<path style="fill:#B6D016;" d="M20.35,46.62c0,1.75-1.1,3.55-3.64,3.46c-2.24-0.08-3.26-1.54-3.26-3.29s1.58-3.42,3.43-3.42  S20.35,44.87,20.35,46.62z"/>
<path style="fill:#B6D016;" d="M12.42,63.96c0,1.75-1.1,3.55-3.64,3.46c-2.24-0.08-3.26-1.54-3.26-3.29c0-1.75,1.58-3.42,3.43-3.42  S12.42,62.21,12.42,63.96z"/>
<path style="fill:#B6D016;" d="M27.67,62.23c0,1.93-1.18,3.92-3.91,3.82c-2.41-0.08-3.5-1.71-3.5-3.63c0-1.93,1.7-3.78,3.68-3.78  S27.67,60.3,27.67,62.23z"/>
<path style="fill:#0847B0;" d="M25.28,62.35c0,1.49-0.98,2.89-2.82,2.82c-1.62-0.06-2.67-1.17-2.58-2.96  c0.11-2.06,1.53-2.82,2.86-2.82C24.08,59.39,25.28,60.86,25.28,62.35z"/>
<path style="fill:#B6D016;" d="M42.97,60.73c0,1.9-1.18,3.87-3.91,3.78c-2.41-0.08-3.5-1.68-3.5-3.59s1.7-3.73,3.68-3.73  S42.97,58.83,42.97,60.73z"/>
<path style="fill:#B6D016;" d="M39.59,72.92c0,1.7-1.08,3.45-3.57,3.36c-2.2-0.07-3.19-1.5-3.19-3.2c0-1.7,1.55-3.32,3.36-3.32  S39.59,71.22,39.59,72.92z"/>
<path style="fill:#B6D016;" d="M27.02,77.78c0,1.64-0.97,3.32-3.19,3.24c-1.97-0.07-2.86-1.45-2.86-3.08s1.39-3.2,3.01-3.2  S27.02,76.15,27.02,77.78z"/>
<path style="fill:#B6D016;" d="M24.22,91.1c1.29,1,2.08,2.84,0.6,4.51c-1.09,1.23-2.9,1.37-4.19,0.37c-1.29-1-1.68-3.06-0.69-4.34  C20.94,90.36,22.92,90.1,24.22,91.1z"/>
<path style="fill:#B6D016;" d="M13.64,80.37c1.83,0.94,2.14,3.17,0.66,4.83c-1.09,1.23-3.17,1.55-4.46,0.55  c-1.29-1-1.69-3.45-0.7-4.73C10.13,79.75,12.19,79.62,13.64,80.37z"/>
<path style="fill:#B6D016;" d="M38.37,89.96c-1.31,0.98-3.24,1.22-4.51-0.61c-1.12-1.62-0.56-3.16,0.75-4.14  c1.31-0.98,3.39-0.81,4.37,0.49C39.95,86.99,39.68,88.98,38.37,89.96z"/>
<path style="fill:#B6D016;" d="M49.77,35.72c0,1.91-1.17,3.87-3.86,3.78c-2.38-0.08-3.46-1.68-3.46-3.59c0-1.91,1.68-3.73,3.64-3.73  C48.05,32.18,49.77,33.82,49.77,35.72z"/>
<path style="fill:#B6D016;" d="M67.09,31.87c0,1.88-1.22,3.54-3.57,3.36c-2.31-0.18-3.33-1.48-3.33-3.36s1.54-3.4,3.45-3.4  C65.55,28.47,67.09,29.99,67.09,31.87z"/>
<path style="fill:#B6D016;" d="M84.88,36.14c0,1.7-1.09,3.2-3.18,3.03c-2.06-0.17-2.97-1.33-2.97-3.03c0-1.7,1.38-3.07,3.07-3.07  C83.5,33.07,84.88,34.44,84.88,36.14z"/>
<path style="fill:#B6D016;" d="M97.78,46c0.11,1.82-0.93,3.5-3.14,3.45c-2.17-0.05-3.21-1.24-3.32-3.06  c-0.11-1.82,1.25-3.38,3.03-3.49S97.67,44.18,97.78,46z"/>
<path style="fill:#B6D016;" d="M100.69,30.79c0,1.95-1.24,3.68-3.61,3.49c-2.34-0.19-3.38-1.53-3.38-3.49s1.57-3.54,3.5-3.54  C99.12,27.25,100.69,28.83,100.69,30.79z"/>
<path style="fill:#B6D016;" d="M113.81,46.25c0,1.65-0.98,3.55-3,3.39c-1.99-0.16-2.96-1.73-2.96-3.39s1.33-2.99,2.98-2.99  C112.47,43.25,113.81,44.59,113.81,46.25z"/>
<path style="fill:#B6D016;" d="M94.54,67.64c0,1.65-1.02,3.12-2.98,2.95c-1.93-0.16-2.79-1.3-2.79-2.95s1.29-2.99,2.89-2.99  S94.54,65.99,94.54,67.64z"/>
<path style="fill:#B6D016;" d="M108.17,74c0,1.65-1.02,3.12-2.98,2.95c-1.93-0.16-2.79-1.3-2.79-2.95s1.29-2.99,2.89-2.99  S108.17,72.35,108.17,74z"/>
<path style="fill:#B6D016;" d="M89.66,79.75c0,1.34-0.85,2.53-2.5,2.4c-1.62-0.13-2.33-1.05-2.33-2.4s1.08-2.43,2.42-2.43  S89.66,78.41,89.66,79.75z"/>
<path style="fill:#B6D016;" d="M102.43,86.63c0,1.59-1.04,3-3.03,2.84c-1.96-0.16-2.83-1.25-2.83-2.84s1.31-2.88,2.93-2.88  S102.43,85.04,102.43,86.63z"/>
<path style="fill:#B6D016;" d="M92.9,96.81c0,1.59-1.04,3-3.03,2.84c-1.96-0.16-2.83-1.25-2.83-2.84s1.31-2.88,2.93-2.88  C91.59,93.93,92.9,95.22,92.9,96.81z"/>
<path style="fill:#B6D016;" d="M110.83,97.28c0,1.74-1.14,3.29-3.32,3.12c-2.15-0.17-3.11-1.37-3.11-3.12  c0-1.74,1.44-3.16,3.21-3.16C109.39,94.12,110.83,95.53,110.83,97.28z"/>
<path style="fill:#B6D016;" d="M118.66,84.98c0,1.72-1.13,3.24-3.3,3.07c-2.14-0.17-3.08-1.35-3.08-3.07c0-1.72,1.43-3.11,3.19-3.11  C117.23,81.87,118.66,83.27,118.66,84.98z"/>
<path style="fill:#B6D016;" d="M107.17,58.75c0,1.98-1.3,3.84-3.71,3.64c-2.37-0.19-3.66-1.82-3.66-3.8s1.87-3.43,3.82-3.43  C105.58,55.17,107.17,56.78,107.17,58.75z"/>
<path style="fill:#B6D016;" d="M120.68,64.53c0,1.91-1.24,3.72-3.54,3.53c-2.27-0.19-3.5-1.76-3.5-3.68s1.78-3.31,3.65-3.31  C119.17,61.06,120.68,62.61,120.68,64.53z"/>
<path style="fill:#0847B0;" d="M40.5,61.66c-0.23,1.51-1.32,2.82-3.13,2.54c-1.6-0.25-2.52-1.5-2.21-3.31  c0.35-2.09,1.86-2.69,3.18-2.53C39.66,58.51,40.76,59.91,40.5,61.66z"/>
<path style="fill:#0847B0;" d="M10.61,64.28c-0.23,1.51-1.32,2.82-3.13,2.54c-1.6-0.25-2.52-1.5-2.21-3.31  c0.35-2.09,1.86-2.69,3.18-2.53S10.87,62.54,10.61,64.28z"/>
<path style="fill:#0847B0;" d="M34.38,47.2c-0.43,1.46-1.69,2.62-3.45,2.09c-1.55-0.47-2.29-1.83-1.74-3.58  c0.63-2.02,2.2-2.41,3.49-2.08C33.97,43.96,34.88,45.5,34.38,47.2z"/>
<path style="fill:#0847B0;" d="M18.06,47.27c-0.71,1.35-2.11,2.27-3.55,1.48c-1.28-0.7-1.63-2.15-0.75-3.75  c1.02-1.86,2.52-1.99,3.59-1.46C18.43,44.06,18.88,45.7,18.06,47.27z"/>
<path style="fill:#0847B0;" d="M31.4,31.37c-1.18,0.98-2.81,1.3-3.85,0.02c-0.92-1.14-0.69-2.6,0.73-3.76  c1.65-1.33,3.08-0.89,3.88,0.01C32.96,28.54,32.76,30.23,31.4,31.37z"/>
<path style="fill:#0847B0;" d="M46.53,36.49c-1.05,0.87-2.56,1.11-3.57-0.14c-0.9-1.1-0.75-2.47,0.53-3.49  c1.48-1.18,2.82-0.7,3.6,0.17C47.86,33.91,47.74,35.48,46.53,36.49z"/>
<path style="fill:#0847B0;" d="M52.15,22.66c-1.54,0.27-3.16-0.34-3.45-2.11c-0.25-1.57,0.68-2.82,2.53-3.11  c2.14-0.33,3.2,0.88,3.46,2.16C54.95,20.88,53.93,22.35,52.15,22.66z"/>
<path style="fill:#0847B0;" d="M75.03,21.7c-1.62-0.22-3.05-1.39-2.76-3.35c0.25-1.73,1.59-2.74,3.52-2.43  c2.24,0.35,2.91,1.97,2.76,3.4C78.4,20.75,76.9,21.96,75.03,21.7z"/>
<path style="fill:#0847B0;" d="M96.8,31.76c-1.55-0.87-2.56-2.53-1.57-4.25c0.88-1.52,2.57-1.92,4.41-0.85  c2.13,1.24,2.21,3.02,1.55,4.29C100.52,32.23,98.59,32.76,96.8,31.76z"/>
<path style="fill:#0847B0;" d="M81.54,36.74c-1.21-0.68-2.01-1.96-1.26-3.26c0.67-1.15,1.98-1.44,3.42-0.61  c1.66,0.97,1.74,2.32,1.24,3.29C84.43,37.14,82.94,37.52,81.54,36.74z"/>
<path style="fill:#0847B0;" d="M93.57,46.44c-0.45-1.31-0.15-2.82,1.37-3.33c1.34-0.45,2.58,0.19,3.09,1.77  c0.6,1.83-0.32,2.93-1.41,3.35C95.53,48.65,94.1,47.96,93.57,46.44z"/>
<path style="fill:#0847B0;" d="M102.53,58.29c0.01-1.48,0.87-2.89,2.65-2.87c1.57,0.02,2.85,1.18,2.81,2.95  c-0.05,2.05-0.88,3.26-2.91,3.05C103.79,61.28,102.52,60,102.53,58.29z"/>
<path style="fill:#0847B0;" d="M91.54,67.33c0.67-0.97,1.92-1.5,3.13-0.65c1.07,0.75,1.37,2.15,0.6,3.27  c-0.93,1.36-2.19,1.41-3.39,0.64C90.97,70.02,90.76,68.46,91.54,67.33z"/>
<path style="fill:#0847B0;" d="M87.19,79.31c0.95-0.71,2.29-0.82,3.18,0.37c0.78,1.05,0.63,2.47-0.46,3.3  c-1.31,1-2.52,0.65-3.42-0.46C85.8,81.68,86.09,80.13,87.19,79.31z"/>
<path style="fill:#0847B0;" d="M100.28,86.11c0.95-0.71,2.29-0.82,3.18,0.37c0.78,1.05,0.63,2.47-0.46,3.3  c-1.31,1-2.52,0.65-3.42-0.46C98.89,88.48,99.18,86.93,100.28,86.11z"/>
<path style="fill:#0847B0;" d="M105.12,73.69c0.41-1.22,1.48-2.15,2.89-1.66c1.24,0.43,1.88,1.77,1.42,3.17  c-0.56,1.69-1.77,2.14-3.14,1.74C105.25,76.64,104.65,75.1,105.12,73.69z"/>
<path style="fill:#0847B0;" d="M117.5,64.64c0.02-1.28,0.76-2.5,2.24-2.46c1.31,0.03,2.33,1.11,2.32,2.59  c-0.01,1.78-1.03,2.58-2.46,2.61C118.52,67.41,117.48,66.13,117.5,64.64z"/>
<path style="fill:#0847B0;" d="M115.95,84.96c0.59-1.14,1.8-1.9,3.11-1.2c1.16,0.62,1.59,2.04,0.91,3.35  c-0.81,1.58-2.08,1.84-3.37,1.23C115.62,87.89,115.26,86.28,115.95,84.96z"/>
<path style="fill:#0847B0;" d="M90.5,96.73c1-0.55,2.25-0.55,2.84,0.55c0.52,0.97,0.11,2.19-1.04,2.84  c-1.38,0.78-2.42,0.38-3.04-0.64C88.78,98.7,89.34,97.37,90.5,96.73z"/>
<path style="fill:#0847B0;" d="M108.47,97.72c1-0.55,2.25-0.55,2.84,0.55c0.52,0.97,0.11,2.19-1.04,2.84  c-1.38,0.78-2.42,0.38-3.04-0.64C106.76,99.68,107.31,98.36,108.47,97.72z"/>
<path style="fill:#0847B0;" d="M109.79,46.36c-0.39-1.42,0.1-3.03,1.9-3.52c1.59-0.43,2.94,0.3,3.38,2.02  c0.51,1.99-0.65,3.13-1.94,3.53C111.83,48.8,110.24,48.01,109.79,46.36z"/>
<path style="fill:#0847B0;" d="M24.65,78.21c0.23,1.39-0.43,2.84-2.06,3.04c-1.44,0.17-2.54-0.71-2.73-2.39  c-0.22-1.94,0.92-2.85,2.1-3.04C23.14,75.62,24.42,76.82,24.65,78.21z"/>
<path style="fill:#0847B0;" d="M37.43,73.05c0.24,1.44-0.46,2.95-2.18,3.15c-1.52,0.18-2.68-0.73-2.87-2.47  c-0.22-2.01,0.98-2.96,2.22-3.16C35.84,70.37,37.2,71.61,37.43,73.05z"/>
<path style="fill:#0847B0;" d="M12.98,83.25c0.32,1.42-0.3,2.97-2.04,3.29c-1.54,0.28-2.77-0.55-3.07-2.28  c-0.34-2,0.83-3.02,2.09-3.3C11.21,80.68,12.66,81.82,12.98,83.25z"/>
<path style="fill:#0847B0;" d="M22.91,93.36c0.78,1.05,0.87,2.51-0.35,3.34c-1.08,0.73-2.35,0.46-3.22-0.84  c-1.01-1.5-0.48-2.72,0.38-3.36S22.13,92.31,22.91,93.36z"/>
<path style="fill:#0847B0;" d="M36.66,87.37c0.75,1.01,0.82,2.44-0.4,3.27c-1.08,0.74-2.33,0.49-3.17-0.77  c-0.97-1.46-0.43-2.65,0.43-3.3C34.39,85.93,35.91,86.35,36.66,87.37z"/>
<path style="fill:#E3EDFC;" d="M45.62,43.79c0.19,0.9,3.29,0.46,4.86,0.7c1.83,0.28,5.14,1.34,5.14,1.34l5.91,3.59  c0,0,5.21-0.28,5-0.56c-0.21-0.28-1.55-8.09-1.55-8.09l-5.56-2.32l-4.22,1.83c0,0-2.36-0.49-4.5-0.07  C48.55,40.62,45.2,41.82,45.62,43.79z"/>
<path style="fill:#010100;" d="M59,41.82c-1.02-0.18-1.62,0.92-0.84,2.75c0.77,1.83,3.41,1.58,4.29,0.67  c0.88-0.92,0.83-2.09,0.39-2.29c-1.02-0.46-1.48,1.02-2.5,0.7C59.31,43.33,60.1,42.01,59,41.82z"/>
<path style="fill:#010100;" d="M63.4,38.86l0.07-7.04l1.65-0.11l0.11,5.37c0,0,0,0.72,0.09,0.76c0.17,0.07,0.61-0.53,0.61-0.53  l3.52-4.2l1.21,1.03L67.39,38c0,0-0.47,0.5-0.4,0.63c0.09,0.19,1.08-0.04,1.72-0.14c1.36-0.21,2.71-0.39,2.71-0.39l0.14,1.53  l-5.28,0.56L63.4,38.86z"/>
<path style="fill:#010100;" d="M73.09,32.81c0,1.15-0.8,1.95-1.94,1.95c-1.13,0-2.31-0.81-2.31-1.95c0-1.3,0.97-2.16,2.1-2.16  C72.09,30.65,73.09,31.66,73.09,32.81z"/>
<path style="fill:#010100;" d="M66.38,29.84c0.42,1.07-0.03,2.11-1.08,2.53c-1.05,0.42-2.44,0.1-2.86-0.97  c-0.48-1.21,0.11-2.37,1.16-2.79C64.65,28.2,65.96,28.78,66.38,29.84z"/>
<path style="fill:#010100;" d="M74.46,37.79c0.39,1,0.04,2.08-0.96,2.48c-1.01,0.4-2.41,0.01-2.8-0.99  c-0.45-1.14,0.12-2.23,1.12-2.62C72.82,36.26,74.07,36.79,74.46,37.79z"/>
<linearGradient id="SVGID_2_2_" gradientUnits="userSpaceOnUse" x1="62.5204" y1="40.8023" x2="62.9165" y2="100.7997">
	<stop offset="0.5251" style="stop-color:#004DAF"/>
	<stop offset="0.7028" style="stop-color:#0054AF"/>
	<stop offset="0.9617" style="stop-color:#0267B1"/>
	<stop offset="1" style="stop-color:#026BB1"/>
</linearGradient>
<path style="fill:url(#SVGID_2_2_);" d="M65.14,38.48c2.76,1.43,5.05,3.27,3.6,9.66c-1.45,6.38-5.82,9.01-5.77,17.5  c0.05,8.49,6.1,13.98,10.51,18.21c4.41,4.22,7.41,10.14,5.82,13.94c-1.28,3.06-7.56,6.34-18.63,4.41  c-11.07-1.92-13.98-10.58-14.55-16.31s0.4-11.88,2.04-16.26c2.37-6.31,6.41-11.53,8.34-14.55c1.26-1.96,3.55-6.52,3.55-6.52  s4.5-0.66,4.13-5.07s-6.45-4.62-7.81-1.28c-1.03,2.54-0.05,4.05-0.05,4.05l-3.1-1.07c0,0,0.04-4.15,2.41-6.16  C58.52,36.59,62.23,36.98,65.14,38.48z"/>
</g>
  <g transform="translate(565.7871376374779, 835.4437368439644) scale(1 1) translate(0, 0) scale(1.0 1.0) "><linearGradient id="SVGID_3_1_" gradientUnits="userSpaceOnUse" x1="47.4891" y1="11.504" x2="51.0205" y2="45.1025">
	<stop offset="0.1705" style="stop-color:#01AB46"/>
	<stop offset="0.3448" style="stop-color:#089E42"/>
	<stop offset="0.6711" style="stop-color:#1A7A37"/>
	<stop offset="1" style="stop-color:#2F502A"/>
</linearGradient>
<path style="fill:url(#SVGID_3_1_);" d="M35.84,48.65c0,0,5.84-8.38,5.42-11.61c-0.42-3.24-1.55-3.94-4.79-5.07  c-3.24-1.13-5.14-2.89-5.14-2.89s-2.35-11.03-2.11-12.39c0.28-1.62,6.12-12.53,19.99-12.53c13.37,0,18.86,11.22,18.16,19.85  c-0.63,7.81-3.52,10-5.56,16.47c-2.04,6.48-3.03,10.35-3.03,10.35l-12.04,2.46l-10.07-2.18L35.84,48.65z"/>
<path style="fill:#FF5D10;" d="M53.25,96.51c0,0,0.75,7.64-0.02,8.57c-0.78,0.93-12.44,3.63-13.76,4.62  c-1.43,1.07-0.82,3.47,2.22,6.24c3.04,2.77,5.59,3.25,7.34,2.53c2.06-0.84,5.63-3.57,7.23-4.79c1.28-0.98,3.2-3.06,3.46-4.73  c0.27-1.67-0.56-11.48-0.56-11.48L53.25,96.51z"/>
<path style="fill:#FF5D10;" d="M68.45,99.19c0,0,1.1,8.92,0.56,10c-1.41,2.82-9.47,9.16-10,11.26c-0.42,1.69,3.8,5.07,8.02,5.16  c5.64,0.13,9.17-2.1,9.57-3.33c0.56-1.74-1.55-11.97-1.83-12.53s0.14-15.06,0.14-15.06L68.45,99.19z"/>
<path style="fill:#5E6367;" d="M98.66,54.49c0,0,4.8-0.94,4.82-4.2c0.01-3.26-1.74-1.84-1.76-4.21c-0.02-2.37,4.24-2.93,7.04-0.94  c2.21,1.57,7.26,6.68,6.98,17.29c-0.38,14.41-7.92,24.95-19.79,31.47c-9.68,5.31-23.96,4.68-23.96,4.68L98.66,54.49z"/>
<path style="fill:#B0B0B1;" d="M85.67,55.69c2.35-0.28,12.66-3.54,16.33-2.6c4.43,1.13,8.85,4.25,7.95,14.15  c-1.16,12.85-10.29,20.68-14.22,22.83C88.7,93.91,81.94,94,81.94,94S83.33,55.97,85.67,55.69z"/>
<path style="fill:#FFBF18;" d="M7.12,25.07c0,1.2,7.46,4.72,14.5,5.56s11.4-0.28,11.4-0.28s-1.2-3.03-1.2-5.28s1.16-7.9-0.63-9.22  c-1.62-1.2-2.96,1.27-3.94,1.97c-0.99,0.7-3.8,2.67-8.17,2.82s-8.17-0.56-9.71,0.28S7.12,23.8,7.12,25.07z"/>
<path style="fill:#2D2B33;" d="M50.2,20.77c-0.42,1.75-1.61,3.12-3.94,2.75c-2.18-0.35-3.24-2.6-2.6-4.79  c0.5-1.73,1.79-2.9,3.97-2.53C50.13,16.62,50.6,19.08,50.2,20.77z"/>
<path style="fill:#73DF86;" d="M50.92,25.57c2.47-0.78,4.3-0.79,4.04-2.47c-0.3-1.93-3.51-1.38-5.55-0.3  c-2.17,1.15-4.99,3.11-3.74,4.7C47,29.19,49.5,26.02,50.92,25.57z"/>
<path style="fill:#FFFFFF;" d="M33.16,51.6c0,0,2.16,9.43,12.95,7.84c7.71-1.14,13.42-4.97,13.42-4.97l0.09-6.29  c0,0-5.12,3-11.26,2.91c-6.38-0.09-11.92-3.38-11.92-3.38L33.16,51.6z"/>
<path style="fill:#84574E;" d="M26.03,69.11C25.28,89.56,40.7,99.28,65.17,99.7c27.12,0.47,37.61-15.44,39.23-25.43  c1.69-10.45-5.07-12.67-5.07-12.67s6.76-2.82,3.73-9.5c-1.41-0.28-8.35,1.57-21.54,0.21c-13.1-1.35-22.08,0.94-22.08,0.94  s-3.28,3.57-12.67,3.1c-11.25-0.56-13.42-4.97-13.42-4.97S26.5,56.39,26.03,69.11z"/>
<path style="fill:#B79277;" d="M52.03,73.14c2.28,7.9,10.42,12.67,22.52,12.11c10.98-0.51,18.96-8.17,20.27-14.92  c1.43-7.34-1.55-10.14-1.55-10.14s6.34-2.3,6.34-6.76c-3.57-2.16-14.92-3.66-27.5-4.13c-8.16-0.3-12.76,2.72-12.76,2.72  S47.8,58.5,52.03,73.14z"/>
<path style="fill:#B0B0B1;" d="M76.05,54.84"/>
</g>
  <g transform="translate(392.0980454275856, 853.6991960546748) scale(1 1) translate(0, 0) scale(1.0 1.0) "><path style="fill:#DCEDF5;" d="M36.54,12.89c9.1,2.82,11.26,12.01,10.7,18.96c-0.56,6.95-5.3,13.33-8.45,18.21  c-3.1,4.81-8.67,12.74-10.42,15.86c-3.33,5.96-2.63,8.82-2.63,8.82s8.63-4.97,26.37-12.01C65,57.61,85.16,57.38,96.7,59.35  c11.54,1.97,18.68,4.69,19.43,5.63s-3.75,4.88-1.6,5.73c2.16,0.84,6.95-4.27,8.17-3.66c2.12,1.06-0.19,20.37-7.6,32.1  s-22.57,18.4-50.77,18.58c-28.07,0.19-46.15,0.35-56.22-17.27c-7.13-12.48-0.66-28.25,5.16-38.01C19.4,52.16,36.36,35.4,30.63,32.6  c-3.85-1.88-9.1,2.53-9.1,2.53l-7.6-7.79c0,0-0.72-3.49,1.13-6.95C17.25,16.27,25.13,9.36,36.54,12.89z"/>
<path style="fill:#FEA6A4;" d="M13.03,28.94c0,0-0.84,6.34-4.93,9.01c-3.69,2.42-3.81,3.61-3.1,4.93c0.99,1.83,5.63,1.55,8.59-0.28  c2.96-1.83,7.46-6.76,7.46-6.76l-3.1-7.04L13.03,28.94z"/>
<path style="fill:#464B4E;" d="M20.4,29.41c0.99,1.6,2.77,3.8,1.64,6.15c-0.74,1.53-3.57-0.94-6.62-3.94  c-1.1-1.08-4.69-3.99-2.63-5.49c2.25-1.64,4.97,0.66,4.97,0.66s0.66-2.63,2.06-3.66c1.41-1.03,3.33-1.03,4.22-0.09  c1.33,1.4,0.66,3.47-0.56,4.5C22.48,28.39,20.4,29.41,20.4,29.41z"/>
<g>
	<path style="fill:#68A4AF;" d="M60.78,92.35c-9.79,0-21.31-3.05-24.12-5.21c-0.53-0.4-0.62-1.16-0.22-1.68   c0.4-0.52,1.16-0.62,1.68-0.22c2.58,1.98,17.77,5.92,27.82,4.36c3.47-0.54,5.81-1.67,6.97-3.34c1.46-2.11-1.73-4.44-1.87-4.53   c-0.45-0.32-0.62-0.9-0.42-1.41s0.72-0.83,1.26-0.75c0.07,0.01,6.98,0.76,8.29-2.88c0.78-2.15-0.95-3.03-1.31-3.18   c-0.54-0.23-0.83-0.82-0.7-1.39c0.14-0.57,0.66-0.96,1.24-0.92c0.08,0,8.07,0.43,8.49-3.17c0.24-2.07-1.34-2.5-1.52-2.54   c-0.65-0.15-1.05-0.8-0.9-1.44c0.15-0.65,0.79-1.05,1.44-0.9c1.33,0.31,3.76,1.79,3.36,5.16c-0.46,3.89-4.9,4.96-8,5.23   c0.54,1.01,0.74,2.33,0.15,3.96c-1.25,3.45-5.06,4.34-7.81,4.51c1.08,1.57,1.65,3.61,0.26,5.62c-1.55,2.23-4.43,3.69-8.58,4.34   C64.58,92.23,62.72,92.35,60.78,92.35z"/>
</g>
<g>
	<path style="fill:#68A4AF;" d="M65.67,104.67c-0.26,0-0.53,0-0.8-0.01c-18.97-0.28-36.61-14.68-37.35-15.29   c-0.51-0.42-0.58-1.18-0.16-1.69c0.42-0.51,1.18-0.58,1.69-0.16c0.18,0.14,17.74,14.47,35.86,14.74   c13.8,0.24,21.32-5.23,22.31-8.19c0.5-1.5-0.2-2.35-0.23-2.39c-0.32-0.38-0.38-0.92-0.15-1.35c0.23-0.43,0.7-0.69,1.19-0.64   c0.08,0.01,8.15,0.88,10.23-3.54c1.69-3.59-0.76-5.16-0.86-5.23c-0.5-0.31-0.7-0.94-0.47-1.48c0.23-0.54,0.81-0.84,1.39-0.7   c0.06,0.01,6.26,1.45,8.43-2.42c0.55-0.97,0.67-1.81,0.39-2.56c-0.5-1.31-2.22-2.17-2.84-2.39c-0.62-0.22-0.95-0.9-0.74-1.53   c0.22-0.62,0.89-0.96,1.52-0.74c0.13,0.05,3.29,1.16,4.29,3.79c0.55,1.43,0.37,2.98-0.54,4.59c-1.87,3.34-5.45,3.96-8.07,3.93   c0.62,1.44,0.78,3.39-0.33,5.76c-2.05,4.38-7.67,5-10.7,5c0.13,0.75,0.1,1.66-0.23,2.66C88.11,98.96,79.82,104.67,65.67,104.67z"/>
</g>
</g>
  <g transform="translate(226.0000000000001, 799.7306695894642) scale(1 1) translate(0, 0) scale(1.0 1.0) "><path style="fill:#FD774D;" d="M59.33,103.7c-0.45,2.26-2.28,11.09-3.3,12.27c-0.79,0.92-3.18,2.16-5.4,2.59  c-1.73,0.33-3.53,0.23-4.64,0.81c-1.41,0.74-2.57,2.3-2.42,3.6c0.12,1.06,2.49,1.17,4.63,1.27c4.25,0.18,11.87-0.21,13.68-0.67  c1.46-0.37,2.62-0.62,2.71-2.34c0.09-1.63-1.23-1.92-1.23-3.42c0-1.51,3.04-12.6,3.04-12.6L59.33,103.7z"/>
<path style="fill:#FD774D;" d="M81.94,102.03c0,0,2.84,5.24,3.92,7.92c0.35,0.87,0.67,2.02,0.63,3.28  c-0.05,1.45-0.88,2.83-2.77,3.92c-1.89,1.09-3.85,1.68-4.78,1.81c-1.18,0.17-1.74,1.01-1.68,1.89c0.08,1.22,1.18,1.12,2.23,1.16  c1.58,0.05,7.68,0.06,9.4-0.58c0.67-0.25,3.36-1.86,5.14-3.91c1.58-1.81,2.31-4.05,2.26-4.76c-0.17-2.23-2.1-3.04-2.94-3.49  c-1.81-0.97-5.82-10.06-5.82-10.06L81.94,102.03z"/>
<path style="fill:#F1F6F7;" d="M32.41,6.2c0,0,7.01-2.35,12.95,0s12.44,8.69,12.82,16.82c0.38,8.13-2.67,12.71-2.41,18.17  c0.25,5.46,0.89,9.15,2.03,10.29s4.07,3.69,4.07,3.69s9.95-0.61,10.96-0.4c1,0.21,4.33,1.9,4.33,1.9s9.4,4.86,10.56,5.54  c1.16,0.69,8.61,4.38,10.03,4.49s8.77,0.84,11.2,0.32c2.43-0.53-7.99,14.47-7.99,14.47s-7.34,16.07-24.81,18.17  c-17.47,2.1-19.8-0.58-21.78-2.21c-1.98-1.63-20.33-19.25-20.69-31.53s9.06-21.58,10.61-28.13s1.93-11.41-2.34-13.4  s-6.61-1.58-7.64-1.93c-1.03-0.34-4.4-3.3-4.4-3.3L32.41,6.2z"/>
<path style="fill:#B4B5B7;" d="M30.34,6.81c0,0,7.34-5.87,18.77-0.25c5.54,2.72,9.3,8.91,9.78,17.72  c0.38,6.86-2.12,10.73-1.98,19.27c0.12,7.74,5.42,10.31,5.42,10.31s2.93-0.8,7.86-0.13c2.81,0.38,7.39,2.84,7.23,3.08  c-0.1,0.14-5.09-1.37-7.59-1.45c-5.06-0.16-7.7,0.1-12.29,1.95c-2.04,0.82-3.48,1.83-3.7,1.65c-0.27-0.22,0.33-1.1,0.95-1.67  c1.4-1.29,3.43-2.09,4.04-2.39c0.17-0.08-1.2-1.19-2.3-2.96c-1.02-1.64-2.26-4.11-2.18-8.89c0.15-8.76,3.57-14.02,1.82-22.48  c-1.53-7.38-6.63-13.66-14.99-14.39C34.36,5.57,30.76,8.9,30.76,8.9L30.34,6.81z"/>
<path style="fill:#302F2F;" d="M39.9,9.85c-1.17-0.06-2.23,0.91-2.3,2.87c-0.06,1.8,1.04,2.74,2.17,2.74c1.29,0,2.21-1.26,2.24-2.71  C42.04,10.96,41.25,9.93,39.9,9.85z"/>
<path style="fill:#FFFFFF;" d="M46.57,15.47c0.51,0.75-0.22,1.86-2.55,3.25c-2.52,1.5-3.72,1.64-4.03,1.1  c-1.07-1.83,0.53-3.47,2.17-4.41C43.92,14.4,45.85,14.4,46.57,15.47z"/>
<path style="fill:#FFFFFF;" d="M52.17,64.68c-0.99,2.96-1.09,7.07-0.05,8.81c1.04,1.73,2.99,1.96,3.86,0.84  c1.22-1.59,2.75-5.57,3.63-6.53c0.88-0.95,3.44-2.75,9.2-4.31c5.76-1.57,9.73-2.29,10.27-2.44c0.53-0.15,1.11-0.84,0.15-1.68  c-0.95-0.84-5.92-2.26-8.1-2.41c-2.68-0.19-5.53-0.26-8.39,0.38C60.11,57.93,53.42,60.93,52.17,64.68z"/>
<path style="fill:#B4B5B7;" d="M86.98,61.81c-0.09,0.16,0.84,0.96,2.7,2.12c1.82,1.14,7.55,4.39,10.15,4.44  c1.99,0.04,5.04,0.08,5.57,0.2c0.67,0.15,0.82,0.71,0.67,1.15c-0.15,0.45-1.76,3.46-4.16,5.61c-2.94,2.63-6.31,3.71-6.35,3.9  c-0.04,0.19,2.15,0.85,2.67,0.93s0.97,0.52,0.59,1.08c-0.37,0.56-3.49,3.16-6.35,4.42s-7.22,2.94-11.17,3.17  c-5.14,0.29-10.99-0.2-15.69-1.82c-4.71-1.62-9.64-4.21-12.97-8.51c-3.04-3.92-3.04-8.16-3.03-10.07c0.02-3.24,1.64-6.13,1.92-6.63  c0.42-0.73,0.59-1.33-0.29-1.07c-0.88,0.26-3.98,2.42-4.62,7.25c-0.55,4.09,0.38,7.97,2.31,11.04c2.62,4.16,6.78,7.29,11.84,10.29  c4.68,2.78,7.39,3.96,8.64,4.56c1.24,0.6,2.73,2.13,0.44,3.94c-2.29,1.81-10.06,0.98-13.07-0.86c-3.01-1.85-9.35-6.84-15.1-15.16  c-4.08-5.91-6.94-11.97-6.94-17.89c0-5.78,3.11-10.95,6.02-16.59c3.08-5.95,7.43-13.92,4.76-19.95c-1.97-4.46-7.78-4.33-10.28-5.02  c-2.53-0.7-4.66-2.35-4.66-2.35l-0.84,2.74c0,0,3.36,1.04,5.24,1.51c3.22,0.79,7.16,0.69,8.43,3.66c1.58,3.68,0.69,8.1-4.08,17.4  C35,53.8,32.28,58.36,32.34,64.2c0.07,7.43,3.32,14.63,9.89,23.02s8.8,9.5,9.61,10.51s2.6,5.66,4.75,7.68  c3.8,3.56,8.25,3.66,10.68,2.75s4.58-4.36,4.58-4.36s5.21,0.55,8.14,0.14c2.93-0.4,8.69-1.34,14.78-6.71  c5.81-5.12,9.13-14.64,9.13-14.64s8.45-13.11,9.26-15.73s-1.41-2.33-2.72-2.02c-0.82,0.19-5.62,1.1-10.15,1.39  C98.27,66.36,87.04,61.7,86.98,61.81z"/>
<path style="fill:#FE6011;" d="M33.15,13.85c0,0,0.01-3.73-0.18-5.33c-0.22-1.9-0.61-2.4-1.36-2.72c-0.91-0.39-3.05,0-4,2.35  c-0.69,1.68-2.05,4.17-2.38,4.55c-0.33,0.38-1.87,0.89-4.1,1.45c-2.67,0.67-4.13,0.94-4.98,1.61c-1.13,0.88-1.8,2.74-1.4,4.01  c0.26,0.82,2.1,1.03,4.56,1.39c2.61,0.38,10.88,1.99,11.7,1.84s3.76-1.79,3.98-3.94C35.17,17.46,33.2,14.76,33.15,13.85z"/>
</g>
  <g transform="translate(96.21286236252212, 682.8698059628388) scale(1 1) translate(0, 0) scale(1.0 1.0) "><path style="fill:#6B7E37;" d="M15.07,52.73c0,0,4.89-1.26,6.73-1.22c2.32,0.05,4.97,0.7,6.38,1.55c1.41,0.84,6.66-0.4,6.66-0.4  s3.03,0.21,1.97-2.04c-0.52-1.11-6.09-2.79-9.43-3.31c-4.36-0.68-10.35,0.77-10.35,0.77s-0.42-5.16-1.62-7.88  c-0.68-1.56-3.03-6.76-5.07-8.87c-1.33-1.38-3.23-2.87-4.86-1.97c-2.04,1.13,0.21,5.07,1.97,7.95s4.38,5.95,5.28,8.45  C13.38,47.52,15.07,52.73,15.07,52.73z"/>
<path style="fill:#6B7E37;" d="M21.79,40.94c0,0,2.18-5.28,2.53-7.81c0.35-2.53,0.49-7.11-0.42-9.57c-0.6-1.61-1.76-2.75-3.17-2.11  c-0.84,0.38-2.7,2.5-2.11,6.62c0.56,3.94,0.99,7.04,0.99,10.07c0,2.04-0.35,4.72-0.35,4.72L21.79,40.94z"/>
<path style="fill:#6B7E37;" d="M19.93,44.92c0,0,2.89-0.56,6.26-0.49s10.14,1.55,14.15,1.41c4.01-0.14,4.65-2.04,3.52-3.52  c-1.13-1.48-4.15-3.87-10-3.31c-4.43,0.43-11.4,2.78-11.4,2.78L19.93,44.92z"/>
<path style="fill:#6B7E37;" d="M25.14,73.92c0,0-0.07,1.06-0.77,1.62c-0.75,0.6-1.69,0.77-1.69,0.77s-5.7-5.07-7.67-10.98  c-1.96-5.89-1.23-11.27-1.13-12.39c0.21-2.25,1.48-5.14,2.67-7.04c1.65-2.61,4.65-5.77,6.12-7.18c1.48-1.41,3.73-3.94,5.42-5.77  c1.38-1.49,5.33-5.67,6.76-6.76c2.67-2.04,6.62-4.65,8.31-2.32c1.69,2.32-1.83,6.19-4.65,8.09c-2.82,1.9-6.69,4.29-8.52,5.14  c-1.01,0.47-4.5,2.75-6.26,4.65s-4.72,5.07-5.77,8.09c-1.06,3.03-1.34,5.93-0.99,10.07c0.35,4.15,2.82,8.51,3.59,9.64  C21.99,71.67,25.14,73.92,25.14,73.92z"/>
<path style="fill:#B0B0B0;" d="M51.25,63.92c0,0-2.39-7.39,0.84-17.25c3.34-10.17,8.52-16.33,12.39-19.57  c6.57-5.5,11.05-6.41,12.81-4.86c1.65,1.45,1.62,3.59,1.06,6.05c-0.33,1.45-2.46,4.58-2.46,4.58s1.32-0.03,2.46,1.48  c1.76,2.32,0.84,7.81,0.84,7.81l-8.02,19.36l-10.98,6.83L51.25,63.92z"/>
<path style="fill:none;stroke:#2D2D2D;stroke-miterlimit:10;" d="M23.68,57.19"/>
<path style="fill:#E0E0E0;" d="M58.69,65.45c0,0-6.31-2.82-8.63-6.38c-4.5-6.9-11.02-8.4-15.11-8.35c-10.04,0.1-13.8,6.85-13.8,6.85  l0.47,7.79c0,0,4.32,5.63,4.5,6.48s-1.36,6.71,2.53,17.64c3.13,8.78,14.08,17.93,27.5,19.62c13.42,1.69,18.3,0.28,18.3,0.28  s5.96,10.75,6.99,10.65c1.03-0.09,3.1-2.39,5.02-3.24c3-1.32,8.92-4.01,12.58-8.59c6.19-7.74,5.09-12.61,6.52-15.58  c1.22-2.53,2.39-4.32,2.21-5.26s-5.35-1.55-8.45-1.69c-2.26-0.1-4.93-0.28-7.04-0.56c-1.81-0.24-4.04-1.45-4.04-1.45l6.19-5.16  l1.13-8.45l6.29-5.73l0.47-5.82l8.63-5.91l5.16-7.23v-6.01l3.94-6.48c0,0,2.16-4.3,1.5-4.87s-1.92-1.3-4.22,0.17  c-0.84,0.54,1.39-2.8,2.6-4.67c1.55-2.39,1.92-4.97,0.99-5.91c-0.94-0.94-1.97-0.99-6.97,0.35c-6.51,1.74-15.2,4.6-27.41,15.49  S58.69,65.45,58.69,65.45z"/>
<path style="fill:#B0B0B0;" d="M120.89,27.58c0,0-0.59,4.65-3.33,7.63c-3.04,3.3-8.31,7.11-10.56,8.31  c-2.25,1.2-8.09,3.87-9.01,4.22c-0.92,0.35-2.32,1.13-1.9,2.11c0.42,0.99,1.41,1.13,2.82,0.49c1.41-0.63,7.81-3.97,9.29-4.79  c1.69-0.94,5.87-3.47,6.19-2.25c0.38,1.41-2.43,5.09-5.79,8.45c-3.94,3.94-9.42,6.9-11.18,7.67s-4.43,1.83-5.28,2.18  c-0.84,0.35-2.75,1.13-2.32,2.39c0.42,1.27,2.96,0.38,3.84,0.11c2.04-0.63,7-3.48,7.21-2.78c0.21,0.7-0.28,2.46-2.04,4.5  c-1.76,2.04-7.18,4.86-9.08,5.91s-2.67,1.34-3.24,1.55c-0.56,0.21-2.04,0.7-1.76,2.04c0.28,1.34,1.79,0.84,2.57,0.56  c0.53-0.19,5.88-2.89,6.44-3.1c0.56-0.21,0.77,1.9,0,3.55c-0.7,1.51-2.96,3.63-5.21,5.46c-1.77,1.44-4.08,2.75-4.65,3.03  c-0.56,0.28-2.32,1.2-1.97,2.11c0.35,0.92,1.69,0.99,3.45,0.14c1.76-0.84,10.76-7.16,11.68-12.11c0.49-2.64,0.14-4.08,0.14-4.08  s4.86-4.43,5.77-6.76c0.92-2.32,0.77-4.43,0.77-4.43s6.07-4.83,9.21-8.45c2.83-3.26,4.61-7.2,4.94-9.03  c0.29-1.6,0.07-3.14,0.07-3.14s3.31-4.79,4.15-7.6C123.05,28.44,120.89,27.58,120.89,27.58z"/>
<path style="fill:#B0B0B0;" d="M119.88,16.97c0,0,0.28,2.04-0.7,4.36c-1.57,3.69-5.15,6.47-8.02,8.24c-3.1,1.9-6.97,3.59-7.6,3.94  c-0.63,0.35-1.72,1.16-1.27,2.25c0.49,1.2,1.9,0.7,2.75,0.28c0.84-0.42,10.28-5.77,12.11-7.6c1.24-1.24,4.36-4.08,5.07-7.04  C123.49,16,119.88,16.97,119.88,16.97z"/>
<path style="fill:#2D2D2D;" d="M35.09,62.16c0,1.61-1.05,3-2.63,3c-1.58,0-2.88-1.41-3.1-3c-0.23-1.69,1-2.98,2.58-3.05  C34.01,59.02,35.09,60.56,35.09,62.16z"/>
<path style="fill:#FFC300;" d="M21.81,56.67c0,0-12.53,4.5-12.44,5.44c0.06,0.56,5.44,2.63,5.44,2.63l-0.21-0.92l3.36,0.59  l0.61,1.31l4.04,0.89c0,0,0.33-3.43,0.05-6.05C22.4,58.19,21.81,56.67,21.81,56.67z"/>
</g>
  <g transform="translate(25.17800769180161, 523.3229101434589) scale(1 1) translate(0, 0) scale(1.0 1.0) "><g>
	<g>
		<path style="fill:#E8A631;" d="M63.01,99.87c0,0-3.81,9.69-5.89,13.34c-1.64,2.88-8.27,3.66-12.32,4.7    c-3.52,0.9-8.08,0.88-8.52,2.86c-0.44,1.99,1.06,3.04,4.62,3.17c3.57,0.13,29.37,0,31.18,0c1.81,0,3.12-2.31-0.6-4.86    c-3.27-2.24-4.53-2.43-3.21-5.33c1.32-2.91,7.45-12.4,7.45-12.4L63.01,99.87z"/>
		<path style="fill:#78A3AD;" d="M32.6,20.99c0,0,2.14,2.89,1.94,5.53c-0.13,1.7,0,4.31-8.22,7.7c-9.96,4.11-14.95,8.54-14.88,16.34    c0.1,10.95,6.68,16.59,9.6,18.77s1.45,8.31,8.92,15.56c10.7,10.39,16.65,9.05,22.19,11.52c2.09,0.93,2.36,0.98,4.89,4.52    c1.95,2.73,6.24,7.08,12.11,7.08c7.55,0,8.7-6.36,11.65-7.74s24.08-3.17,26.48-20.66c1.88-13.7-13.48-35.13-38.45-40.65    c-11.21-2.48-18.35,0.69-22.16,1.64c-0.92,0.23-3.19,1.16-3.19,1.16c-0.71-1.85,2.54-3.61,4.87-5.73    c2.68-2.44,5.72-5.08,7.19-7.69C62.97,15.07,51.94,0.93,38.7,4.59C33.98,5.89,32.6,20.99,32.6,20.99z"/>
		<g>
			<path style="fill:#E0E0E0;" d="M91.63,50.13c0,0-1.61-6.25,3.05-9.16c3.37-2.12,7.08-1.82,9.48,0.63     c1.27-1.09,2.63-2.18,4.25-2.59c4.57-1.18,9.42,0,11.71,4.32c3.11,5.86,0.39,8.93-3.35,12.49c0,0,4.51,2.03,4.68,9.28     c0.15,6.42-2.22,13.06-11.37,15.65c-3.56,1.01-13.92,1.72-17.87-5.73c-1.9-3.59-0.26-5.72,0.55-6.74     c2.75-3.47,7.14-1.68,7.14-1.68C100.28,56.32,91.63,50.13,91.63,50.13z"/>
		</g>
		<path style="fill:#BDBDBD;" d="M113.36,66.39c0-6.63-6.72-6.58-6.72-6.58s5.09,1.71,2.54,6.59c-1.36,2.61-5.44,1.77-7.4-0.25    c-1.05-1.08-2.33-4.25-2.33-4.25s0.45,2.85,0.45,4.67c0,0-4.39-1.8-7.14,1.68c-0.14,0.17-0.3,0.39-0.47,0.63    c3.33-3.11,6.72-0.56,8.6,1.59c2.33,2.67,5.22,2.78,7.37,2.31C110.77,72.23,113.36,70.34,113.36,66.39z"/>
		<path style="fill:#BDBDBD;" d="M117.23,55.83c7.68-4.76,2.9-12.52,2.9-12.52s1.36,5.72-2.72,8.09c-2.36,1.37-6.23,1.15-6.95-2.82    c-0.46-2.54,2.44-3.71,2.44-3.71s-2.2-0.56-3.98,0.86c-2.12,1.69-2.6,4.73-1.26,7.09C109.66,56.36,113.97,57.47,117.23,55.83z"/>
		<path style="fill:#546E7A;" d="M72.8,79.56c1.49-2.98,4.74-7.62,1.55-14.8c-0.54-1.22-1.6-1.58-1.65-0.36    c-0.05,1.22,0.72,3.91,0.72,5.54c0,1.44,0.13,3.19-0.79,4.34c-0.25,0.31-2.66-0.48-5.74-5.38c-0.22-0.36-0.92-1.46-1.48-1.02    c-0.11,0.08-0.61,0.93,0.54,3.64c1.42,3.34,5.32,4.81,3.88,10.13c-0.17,0.63-3.86-0.93-6.76-5.32c-0.63-0.96-1.12-1.68-1.83-1.52    c-0.72,0.15-0.13,2.16,0.31,3.2c1.29,3.07,3.16,4.49,5.03,5.61c3.86,2.3,4.46,4.56,4.35,4.93c-0.11,0.37-5.09,2.09-10.15-2.31    c-6.6-5.74-6.23-14.97-6.39-17.6c-0.21-3.59,0.04-6.54-2.86-9.37c-1.56-1.52-3.95-1.49-4.6-1.34c-0.29,0.07-0.73,0.42-0.73,0.87    c0,0.31,0.21,0.78,0.85,0.97c2.97,0.9,4.23,2.13,4.25,9.05c0.07,19.26,11.09,22.96,16.79,23.19c3.52,0.14,6.4-1.56,6.59-2.31    c0.19-0.74-0.98-2.06-1.53-3.58C71.54,81.8,72.62,79.9,72.8,79.56z"/>
	</g>
	<path style="fill:#E0E0E0;" d="M20.71,7.08c4.35,1.63,7.76,2.47,10.67,1.75c2.51-0.63,5.8-5.37,8.52-3.38   c0.87,0.63,1.61,1.42,2.2,2.32c1.82,2.77,2.68,5.46,2.39,9.51c-0.09,1.27-1.73,9.82-7.39,10.24c-2.04,0.15-3.98-0.89-5.49-2.27   s-2.83-2.7-5.41-4.29c-3.55-2.19-6.91-2.5-10.82-3.96L20.71,7.08z"/>
	<path style="fill:#E8A631;" d="M15.33,5.39c1.9-0.57,4.99-0.23,7.12,2.14c5.32,5.95-0.39,11.32-3.5,11.45   c-4.17,0.18-4.66-1.02-7-1.79c-1.84-0.6-3.15,0.3-4.43,1.05c-0.67,0.39-1.55-0.2-1.35-0.95C8.38,9.27,11.54,6.52,15.33,5.39z"/>
	
		<ellipse transform="matrix(0.5879 -0.8089 0.8089 0.5879 4.1419 35.5805)" style="fill:#212121;" cx="36.99" cy="13.73" rx="2.65" ry="2.01"/>
	<path style="fill:#424242;" d="M31.2,17.98c-1.71-0.63-8.9-2.44-14.03-2.74c-4.5-0.26-7.47,1.83-7.6,1.88   c-0.15,0.06-0.27,0.15-0.37,0.25c0.76-0.29,1.6-0.43,2.62-0.21c1.19-0.36,2.98-0.73,5.16-0.58c5.16,0.35,15.75,3.46,15.86,3.49   c0.08,0.02,1.71,0.66,1.6,0.1C34.45,20.18,34.43,19.17,31.2,17.98z"/>
</g>
</g>
  <g transform="translate(25.17800769180161, 348.6770898565412) scale(1 1) translate(0, 0) scale(1.0 1.0) "><path style="fill:#ADADB7;" d="M69.77,112.75c0,0-6.69,4.63-7.32,5.44c-0.63,0.8-0.9,1.74,0.32,2.11s3.16-0.14,3.16-0.14  s-0.97,1.44,1.31,1.97c1.53,0.35,4.5-1.2,4.5-1.2s-0.49,1.37,1.55,1.65c2.94,0.41,8.02-5.9,9.06-7.87s0.56-3.66,0.56-3.66  L69.77,112.75z"/>
<path style="fill:#ADADB7;" d="M52.17,108.59c0,0-8.21,4.92-8.87,5.2c-0.66,0.28-3.22,1.71-2.25,3.28c0.75,1.22,3.66,0.28,3.66,0.28  s-0.63,1.37,1.03,2.16c1.67,0.79,5.16-1.13,5.16-1.13s-0.39,1.71,1.88,1.97c2.91,0.34,9.39-8.54,9.39-8.54L52.17,108.59z"/>
<path style="fill:#4D4D4D;" d="M84.97,38.37c0,0,1.13-17.6-7.46-25.76S58.36,5.38,55.12,6.23c-3.24,0.84-8.88,2.88-12.86,8.63  c-5.26,7.6-3.1,14.73-5.54,19.33c-1.92,3.63-7.23,14.03-8.07,21.49s-1.41,21.59-0.99,26.61c0.41,4.91,0.61,9.24,3.24,13.23  c1.57,2.39,4.7,2.44,5.77,1.13c0.63-0.77,0.42-1.9,0.42-1.9s4.28,6.38,6.01,8.52c2.82,3.47,8.67,9.06,18.21,10.7  c12.58,2.16,33.22-4.5,33.22-4.5s1.77,1.2,4.58,1.34c1.43,0.07,3.1-1.34,2.89-2.75c-0.21-1.41-1.83-3.38-2.18-4.15  c-0.35-0.77,0.73-22.31-2.65-36.95S87.5,40.34,84.97,38.37z"/>
<linearGradient id="SVGID_8_1_" gradientUnits="userSpaceOnUse" x1="55.562" y1="105.7481" x2="69.4593" y2="34.2527">
	<stop offset="0.3618" style="stop-color:#FFFFFF"/>
	<stop offset="0.4122" style="stop-color:#FFFAEF"/>
	<stop offset="0.5102" style="stop-color:#FFEDC7"/>
	<stop offset="0.6459" style="stop-color:#FFD985"/>
	<stop offset="0.7882" style="stop-color:#FFC139"/>
	<stop offset="0.8168" style="stop-color:#FFB92E"/>
	<stop offset="0.9438" style="stop-color:#FF9700"/>
</linearGradient>
<path style="fill:url(#SVGID_8_1_);" d="M39.78,38.37c0,0-6.1,6.34-6.66,15.06c-0.47,7.33-0.52,20.69,3.71,32.66  s12.25,21.87,23.93,24.21c12.64,2.54,26.65-1.92,27.08-2.06c0.42-0.14-2.53-3.28-4.6-6.38c-1.57-2.36-3.61-7.6-3.61-7.6  s0.14,4.04-2.46,4.36c-1.98,0.25-4.79-1.69-6.9-6.34c-2.11-4.65-4.98-17.27-5.77-27.66c-0.7-9.29,0.25-15.27,1.2-17.88  c0.57-1.57,1.72-2.64,1.72-2.64s3.2,3.89,8.27,2.57c4.88-1.27,6.1-6.62,5.26-10.98c-1.01-5.21-3.1-10.84-10.18-9.29  c-8.04,1.76-5.24,12.14-5.24,12.14s-5.74,4.68-13.76,3.84C43.72,41.54,39.78,38.37,39.78,38.37z"/>
<path style="fill:#ADADB7;" d="M47.1,18.15c0,0-0.97-3.62-3.43-4.08c-4.74-0.89-11.31,2.21-13.98,3.85  c-2.16,1.33-5.12,4.22-4.22,5.63s5.77,0.05,9.95,0.75c2.89,0.49,6.9,1.69,8.59,1.64c1.35-0.04,3.1-2.35,3.33-3.43  C47.57,21.43,47.57,19.51,47.1,18.15z"/>
<path style="fill:#4D4D4D;" d="M47.33,18.52c0,0-3.99,1.74-12.39,2.3c-3.56,0.24-9.57,1.97-9.57,1.97s-0.61,0.61,0.38,1.13  c0.99,0.52,6.01-0.91,9.1-1.08c5.02-0.28,14.22-0.94,14.22-0.94L47.33,18.52z"/>
<path style="fill:#000409;" d="M63.76,22c0.09,2.15-2,3.99-3.88,3.68c-2.37-0.4-3.53-2.66-3.28-4.9s2.29-3.42,4.18-3.21  C62.68,17.77,63.67,19.75,63.76,22z"/>
</g>
  <g transform="translate(96.212862362522, 189.13019403716132) scale(1 1) translate(0, 0) scale(1.0 1.0) "><path style="fill:#4F3B37;" d="M44.99,69.48c0,0,11.83-0.7,10-16.75c-1.83-16.05-7.6-16.33-9.85-24.35  c-2.25-8.02-2.3-16.03-3.38-16.61c-0.83-0.45-7.32,4.5-7.32,4.5s-6.01,5.05-6.48,3.66c-0.66-1.97,5.07-11.12,5.91-12.95  c0.84-1.83,0.49-4.83-3.38-2.53C27.02,6.5,6.27,23.31,6.7,36.4s16.05,27.73,16.05,27.73l9.43-9.43L44.99,69.48z"/>
<linearGradient id="SVGID_9_1_" gradientUnits="userSpaceOnUse" x1="68.597" y1="90.4617" x2="76.8784" y2="115.6414">
	<stop offset="0.2074" style="stop-color:#AC8979"/>
	<stop offset="0.309" style="stop-color:#B59482"/>
	<stop offset="0.4853" style="stop-color:#CDB099"/>
	<stop offset="0.7137" style="stop-color:#F4DDBE"/>
	<stop offset="0.7707" style="stop-color:#FFEAC8"/>
</linearGradient>
<path style="fill:url(#SVGID_9_1_);" d="M67.89,90.69c0,0,10.89,6.29,13.7,8.45s7.13,5.63,7.13,5.63s-1.97,4.97-3.94,6.19  s-4.5,1.6-4.5,1.6s-3.38,3.57-5.73,3.75s-4.32-1.03-4.32-1.03s-3.1,1.13-4.41,1.03c-1.31-0.09-5.16-3.1-5.16-3.1L67.89,90.69z"/>
<path style="fill:#70534C;" d="M51.18,61.6c0,0,5.16,0.47,7.7-8.07c2.53-8.54,1.97-15.3,6.85-20.37s9.67-6.1,14.92-6.48  c5.26-0.38,25.15-1.13,30.13-1.5c4.97-0.38,9.1-1.69,9.57-0.66c0.35,0.77-5.54,10.79-5.54,10.79s-13.23,0.19-13.51,3  c-0.28,2.82,9.88,1.29,9.95,2.72c0.1,1.97-8.54,12.95-11.64,16.05c-3.1,3.1-5.63,3.47-6.66,5.07s-5.54,15.39-10.89,20.27  c-5.35,4.88-12.11,5.26-12.11,5.26s4.04,5.63,2.72,10.42c-1.31,4.79-3.66,11.12-6.48,14.41c-1.99,2.33-5.12,4.36-8.26,2.11  c-3.5-2.51-3.28-7.6-2.44-10.7c0.84-3.1,0.38-5.16,0.38-5.16s-5,5.21-7.98,7.79c-3.14,2.72-6.05,7.23-10.14,2.25  c-4.58-5.57,0.33-8.82,2.21-11.26c1.88-2.44,2.58-3.47,2.58-3.47l-6.76-14.27L51.18,61.6z"/>
<path style="fill:#FFEAC8;" d="M24.65,52.94c-2.05,2.05-7.46,7.58-0.28,13.77s7.39,9.88,9.29,12.48c1.91,2.62,3.45,5.14,4.65,6.41  c1.2,1.27,4.29,3.87,5.28,3.59c0.99-0.28-1.06-7.74-0.56-8.17s5.98,3.38,6.83,2.82c0.89-0.6-0.99-7.81-0.56-8.17  c0.42-0.35,5.33,3.02,5.98,2.46c0.92-0.77-2.82-15.7-3.17-16.47c-0.19-0.41-5.33-4.21-9.71-7.18c-3.9-2.64-5.49-3.87-9.15-4.36  C29.87,49.67,26.19,51.39,24.65,52.94z"/>
<path style="fill:#FFB903;" d="M23.66,75.75c0.42-1.06,0.92-2.22,3.66-4.26c2.75-2.04,7.07-5.07,7.18-6.02  c0.11-0.88-5.75-0.31-7.51-0.45c-1.76-0.14-3.75-0.4-4.88-1.31c-1.01-0.82-1.03-1.6-1.03-1.6s-4.3,2.96-4.81,6.38  c-0.56,3.8,0.7,6.48,3.24,8.31s3.6,2.32,4.26,1.97C24.58,78.35,23.66,75.75,23.66,75.75z"/>
<path style="fill:#FF8E01;" d="M21.85,74.51c0.14-1.02,0.5-3.12,2.65-5.23c1.83-1.8,5-4.29,5.88-4.29c0.88,0,2.46,0,2.46,0  s-0.7,1.44-1.97,2.25c-1.27,0.81-2.87,2.05-4.89,3.84c-2.11,1.87-2.29,4.61-2.29,4.61s0.77,2.22,0.18,2.96  C23.34,79.28,21.71,75.54,21.85,74.51z"/>
<path style="fill:#302F2F;" d="M29.01,61.25c0.08,0.66,0.6,1.97,2.43,1.58c1.52-0.32,2.64-2.39,2.15-3.87  c-0.4-1.19-1.37-1.44-2.04-1.02C30.88,58.36,28.83,59.81,29.01,61.25z"/>
<path style="fill:#70534C;" d="M79.95,111.34c-0.22,0.13-1.83,2.96-4.79,3.71c-2.96,0.75-4.13-0.75-4.74-0.75s-2.7,1.29-4.62,1.1  c-1.5-0.15-3.97-2.28-3.97-2.28l-1.03,1.64c0,0,2.39,2.58,5.07,2.72c2.67,0.14,4.36-1.03,4.36-1.03s2.63,1.34,5.4,0.8  c3.85-0.75,5.3-4.13,5.3-4.13s3.19-0.33,5.3-1.92c2.11-1.6,4.01-5.77,2.6-6.43s-2.18,2.86-3.87,4.22S80.56,110.97,79.95,111.34z"/>
<path style="fill:#FFB903;" d="M25.89,111.47c-0.52-1.12,1.6-6.65,7.23-6.46s8.21,4.36,7.7,8.49c-0.52,4.13-3.24,5.44-3.89,4.97  c-0.66-0.47-1.36-3.43-1.36-3.43l-2.86-3.61C32.69,111.44,26.97,113.77,25.89,111.47z"/>
<path style="fill:#FFB903;" d="M47.66,117.85c-0.77-1.5,0.87-4.79,3.19-5.99c2.87-1.49,4.99-1.57,8.26,1.07  c4.39,3.54,0.94,9.84-1.01,10.65c-2.71,1.13-2.04,0.01-1.99-1.35c0.05-1.36-1.22-4.83-1.22-4.83L47.66,117.85z"/>
<path style="fill:#F4821E;" d="M36.92,112.46c0.4,1.49,0.77,5.91-0.21,5.84c-0.66-0.05-1.53-2.63-1.9-3.61  c-0.37-0.98-2.75-2.42-3.64-2.46c-0.89-0.05-3.97,0.59-4.06,0c-0.19-1.16,3.5-2.91,4.95-2.86C33.33,109.4,36.49,110.87,36.92,112.46  z"/>
<path style="fill:#F4821E;" d="M47.62,117.63c0.05,1.07,2.96,0.33,4.13,0.47c1.17,0.14,2.65,0.72,3.31,2.08  c0.31,0.64,0.59,3.73,1.24,3.78c1.22,0.09,1.55-4.11,1.41-4.49c-0.42-1.14-2.06-3.97-5.26-4.28  C50.76,115.01,47.59,117.07,47.62,117.63z"/>
</g>
  <g transform="translate(225.99999999999977, 72.26933041053587) scale(1 1) translate(0, 0) scale(1.0 1.0) "><path style="fill:#6E4F44;" d="M97.36,62.59c0,0,4.5-9.71,4.01-18.37c-0.32-5.56,0.92-29.63-35.69-30.34  c-36.6-0.7-38.86,20.74-38.86,31.25c0,7.88,3.52,15.35,3.52,15.35s-2.96-0.7-6.34,3.24s-3.54,12.47-1.13,17.18  c3.03,5.91,8.02,9.29,8.02,9.29l10.42,15.35c0,0-1.55,4.29-4.22,7.46c-1.8,2.14-5.58,5.46-5.49,6.76c0.14,1.97,4.22,0.99,10.14,1.27  c5.91,0.28,22.67-2.53,22.67-2.53s22.81,1.41,25.06,1.55c2.25,0.14,7.11,0.49,7.74-0.99c0.39-0.91-3.42-4.2-5-7.04  c-2.04-3.66-3.31-9.43-3.31-9.43s4.65-9.71,6.62-11.26c1.97-1.55,7.46-8.45,9.01-12.11s2.11-10.56-1.13-13.8  C101,62.99,97.36,62.59,97.36,62.59z"/>
<path style="fill:#6E4F44;" d="M86.17,19.51c0,0,2.11-4.5,6.34-7.25c3.9-2.53,8.52-2.25,8.87-1.9c0.35,0.35-0.54,3.68-2.11,5.91  c-1.34,1.9-2.75,3.38-2.53,3.59c0.39,0.39,1.72-1.33,3.45-2.75c2.32-1.9,5.35-2.6,5.7-2.32s0.84,5.35-1.41,9.64  c-2.11,4.01-5.98,6.55-5.98,6.55l-5.42-7.32L86.17,19.51z"/>
<path style="fill:#6E4F44;" d="M44.28,19.01c0,0-2.53-5.21-5.56-8.31s-7.74-4.86-8.31-4.29s-0.49,4.01,0.21,6.26s2.82,4.5,2.18,4.93  c-0.63,0.42-1.73-2.13-2.82-3.31c-1.76-1.9-4.93-3.45-5.49-3.1c-0.56,0.35-1.9,5.7,0.77,10.63c2.37,4.37,5.84,8.45,5.84,8.45  l8.17-7.81L44.28,19.01z"/>
<path style="fill:#878787;" d="M46.96,111.06c0,0-0.5,2.08-3.1,4.41c-2.96,2.65-7.98,6.1-4.79,7.23c3.19,1.13,7.7,1.13,12.39,0.19  c4.69-0.94,9.29-2.35,12.58-2.35c3.28,0,9.95,1.22,13.23,1.69c3.28,0.47,7.47,0.88,9.85,0.38c2.21-0.47,3.26-1.45-0.54-5.4  c-1.63-1.69-4.43-6.43-4.43-6.43l-18.96,3.1L46.96,111.06z"/>
<path style="fill:#875D54;" d="M36.45,61.41c0,0-3.85,0.38-5.44,2.53s-3.75,8.26-3.38,16.89c0.38,8.63,4.13,15.96,9.01,22.43  c4.88,6.48,11.54,13.05,26.65,12.58c15.11-0.47,22.99-4.32,26.94-11.26c3.94-6.95,8.82-16.14,9.29-24.78  c0.47-8.63-3.85-16.52-5.26-17.55c-1.41-1.03-30.5-2.44-30.5-2.44L36.45,61.41z"/>
<linearGradient id="SVGID_10_1_" gradientUnits="userSpaceOnUse" x1="63.4068" y1="60.8187" x2="63.7159" y2="110.6862">
	<stop offset="0.0499" style="stop-color:#F5DBB8"/>
	<stop offset="0.2381" style="stop-color:#F2D2AF"/>
	<stop offset="0.5467" style="stop-color:#E9B996"/>
	<stop offset="0.8936" style="stop-color:#DC9673"/>
</linearGradient>
<path style="fill:url(#SVGID_10_1_);" d="M42.17,61.41c0,0-9.29,8.35-7.6,22.99c1.49,12.92,10.7,26.19,28.81,26.28  c20.56,0.11,28.14-14.57,29.19-26.47c1.22-13.89-6.66-22.34-7.7-23.18C83.84,60.19,42.17,61.41,42.17,61.41z"/>
<path style="fill:#F2A35B;" d="M64.23,73.43c0,0,8.07-8.54,14.45-10.23c6.38-1.69,15.58-0.94,15.58-0.94s4.29-6.43,4.6-18.77  c0.33-13.25-6.66-18.96-6.66-18.96s-11.64-2.25-19.71,6.19c-6.76,7.07-5.91,15.58-5.91,15.58l-3.64-0.61c0,0,0.05-9.46-6.62-15.27  s-15.84-7.3-15.84-7.3s-11.14,5.95-11.4,19.69c-0.28,14.73,5.28,18.93,5.28,18.93s9.03,0.23,17.01,3.05S64.23,73.43,64.23,73.43z"/>
<path style="fill:#D0805F;" d="M93.23,42.83c0,7.3-3.93,12.97-12.11,13.89c-8.86,1-13.24-5.75-13.24-13.05s5.67-13.22,12.67-13.22  S93.23,35.53,93.23,42.83z"/>
<path style="fill:#D0805F;" d="M59.65,36.6c3.63,6.6,2.18,16.37-3.87,18.99c-7.13,3.1-14.67,0.03-18.3-6.57s-1.23-14.14,4.9-17.51  S56.02,30,59.65,36.6z"/>
<path style="fill:#D0805F;" d="M78.35,73.14c1.67,0.37,2.53-2.82,4.46-1.27c1.92,1.55-0.8,4.5-3.8,4.6c-3,0.09-6.24-1.97-5.12-3.94  C75.02,70.56,76.43,72.72,78.35,73.14z"/>
<path style="fill:#D0805F;" d="M85.49,81.26c2.39-0.23,3.57-2.91,5.16-1.27s-0.99,4.46-5.02,4.69c-4.04,0.23-6.19-1.83-5.3-3.43  C81.22,79.67,82.62,81.54,85.49,81.26z"/>
<path style="fill:#D0805F;" d="M64.6,82.34c2.95,0.17,3.14-2.82,5.3-1.78c2.16,1.03-0.37,5.53-5.02,5.49  c-5.26-0.05-7.17-3.88-5.73-5.07C61.22,79.29,61.41,82.15,64.6,82.34z"/>
<path style="fill:#D0805F;" d="M50.24,73.94c2.02-0.12,1.69-2.63,4.41-1.69c2.3,0.8-0.33,5.21-4.74,5.16  c-3.94-0.04-6.1-3.33-5.02-4.32C47.03,71.15,47.9,74.08,50.24,73.94z"/>
<path style="fill:#D0805F;" d="M41.42,81.17c1.74-0.05,2.11-2.35,4.04-1.22c1.92,1.13,0.28,4.74-4.18,4.79  c-3.99,0.04-5.46-2.73-4.36-3.94C38.61,78.92,39.69,81.22,41.42,81.17z"/>
<path style="fill:#FFFEFF;" d="M70.52,45.13c1.45,4.58,6.87,7.03,11.73,5.49c4.86-1.54,7.38-6.41,5.82-11.4  c-1.77-5.66-6.91-6.84-11.78-5.3C71.42,35.45,69.06,40.54,70.52,45.13z"/>
<path style="fill:#FFFEFF;" d="M41.75,35.88c-2.87,3.86-2.5,9.25,1.6,12.29s9.63,3.25,12.76-0.94c3.56-4.75,2.07-9.95-2.02-13  S44.62,32.03,41.75,35.88z"/>
<path style="fill:#303232;" d="M84.78,39.76c1.2,3.06,0.12,6.56-3.04,7.81c-3.17,1.25-7.21-0.23-8.42-3.29  c-1.2-3.06,0.09-6.62,3.26-7.88C80,35.04,83.57,36.7,84.78,39.76z"/>
<path style="fill:#303232;" d="M54.98,44.52c-1.63,2.85-6.01,3.71-9.39,1.55c-2.87-1.83-3.09-5.59-1.45-8.45  c1.63-2.85,5.36-3.33,8.49-2.02C56.44,37.2,56.62,41.67,54.98,44.52z"/>
<path style="fill:#2F2F2F;" d="M59.39,46.11c0,0-0.16,6.1,0,8.17c0.23,2.96,0.86,5.09,1.74,6.85c0.94,1.88,2.35,3.94,3.05,3.94  c0.7,0,2.16-1.99,3-3.89c0.7-1.6,1.45-3.75,1.78-7.46c0.28-3.15,0.28-6.95,0.28-6.95L59.39,46.11z"/>
<path style="fill:#FEB903;" d="M64.23,40.58c3.24-0.07,4.18,1.92,4.88,3.61c0.42,1.01,0.7,3.1,0.42,3.47  c-0.28,0.38-2.72,0.99-4.93,0.99s-5.91-0.8-5.96-1.41c-0.05-0.61,0.56-2.89,1.17-3.8C60.94,41.75,62.02,40.62,64.23,40.58z"/>
</g>
  <g transform="translate(392.09804542758525, 18.300803945325242) scale(1 1) translate(0, 0) scale(1.0 1.0) "><path style="fill:#FEBA02;" d="M40.01,95.48c0,0,2.44,10.04,2.06,11.45c-0.38,1.41-7.32,2.53-11.36,4.6  c-2.65,1.36-6.92,4.39-4.32,6.84c1.41,1.33,5.35-2.03,17.18-2.71c12.01-0.69,14.13,0.29,13.51-2.25c-0.61-2.53-3.8-2.82-6.48-3.94  c-0.89-0.37-1.92-0.96-2.35-1.6c-0.41-0.61,0.19-10.98,0.19-10.98L40.01,95.48z"/>
<path style="fill:#FEBA02;" d="M62.16,102.52c0,0,0.28,10.15,0.28,10.8c0,0.95-2.32,2.09-5.77,2.86  c-3.45,0.77-10.28,2.05-10.37,6.42c-0.06,2.69,13.12-0.95,20.65-0.84s12.36,1.1,12.01-2.06c-0.28-2.53-4.2-3.68-6.31-4.14  c-2.11-0.46-3.07-1.49-3.13-2.75c-0.04-0.82,0.14-10.07,0.14-10.07L62.16,102.52z"/>
<linearGradient id="SVGID_11_1_" gradientUnits="userSpaceOnUse" x1="46.8536" y1="97.0571" x2="65.8573" y2="33.6487">
	<stop offset="0.1362" style="stop-color:#79DA88"/>
	<stop offset="0.3039" style="stop-color:#57CD75"/>
	<stop offset="0.6343" style="stop-color:#19B553"/>
	<stop offset="0.7914" style="stop-color:#01AB46"/>
</linearGradient>
<path style="fill:url(#SVGID_11_1_);" d="M41.89,8.01l9.06-0.61c0,0,5.04,1.63,9.83,8.57c6.36,9.23,5.52,26.11,5.52,26.11l17.46,46.55  l2.11,15.39c0,0-15.62,2.46-30.92,0.47c-18.02-2.35-36.6-18.68-36.32-43.08c0.28-24.4,19.62-47.96,19.62-47.96L41.89,8.01z"/>
<path style="fill:#FFD51D;" d="M21.15,16.93c0,0-6.95,2.16-8.92,9.95S13.55,41.92,15,42.41c0.56,0.19,2.3-3.33,2.3-3.33  s2.44,2.82,3.66,3.47c1.22,0.66,1.83,1.15,2.91,1.08c2.11-0.14,5.21-6.29,5.12-10.42l1.08-20.23L21.15,16.93z"/>
<path style="fill:#FF2B23;" d="M29.85,28.09c0,0,8.47-1.41,11.85-4.32s7.32-5.54,8.63-10.79c0.8-3.2,0.84-5.44,0.84-5.44  S39.36,0.69,28.66,6.32S20.49,19.6,20.49,19.6L29.85,28.09z"/>
<path style="fill:#FF600D;" d="M29.5,29.22c0,0-6.85,4.04-7.6,4.6s-3.2,1.78-4.32,2.72c-1.78,1.5-3.38,4.88-2.72,5.73  c0.66,0.84,1.6-1.78,4.22-3.38s7.13-4.13,8.35-4.79c1.22-0.66,1.6-1.03,1.6-1.03L29.5,29.22z"/>
<path style="fill:#A02A1B;" d="M31.83,27.46c0.47-0.99,0.68-3.26-2.51-7.25c-3.75-4.69-9.01-4.88-9.01-4.88l-0.56,1.88l5.82,5.82  L28.8,30C28.8,30,30.86,29.5,31.83,27.46z"/>
<path style="fill:#EC80AF;" d="M15.89,20.4c0,0,4.32,0.28,7.32,2.91c1.78,1.56,4.47,4.9,5.13,6.41s2.91-2.67,1.13-5.49  s-3.91-5.65-7.85-7.02C18.78,16.23,16.08,18.62,15.89,20.4z"/>
<path style="fill:#FBD3B3;" d="M49.49,25.94c0,0-3.47-8.82-10.61-8.45c-7.2,0.38-8.31,5.73-7.98,8.92c0.38,3.69,2.82,5.73,8.45,5.54  C44.99,31.75,49.49,25.94,49.49,25.94z"/>
<path style="fill:#312F2A;" d="M44.24,24.81c0,2.28-2.48,4.32-4.74,4.32c-2.25,0-4.08-1.85-4.08-4.13s1.31-4.79,4.5-4.97  C43.29,19.82,44.24,22.53,44.24,24.81z"/>
<path style="fill:#01AB46;" d="M86.38,80.75c0,0,2.25,5.07,10.89,10.7c7.33,4.78,10.89,7.7,15.96,9.48  c5.07,1.78,5.26,2.25,5.07,3.19c-0.19,0.94-8.07,7.04-16.71,6.29c-8.63-0.75-12.76-4.13-15.39-5.91s-7.6-14.36-7.6-14.36  L86.38,80.75z"/>
<path style="fill:#B7D019;" d="M66.34,41.84c0,0-11.97,3.52-17.22,11.5c-4.4,6.68-4.01,18.04,0.47,26.47  c5.54,10.42,16.99,17.83,23.09,20.65c6.1,2.82,14.45,4.22,18.11,3.85s-3.28-25.62-9.95-39.14C74.34,51.98,66.34,41.84,66.34,41.84z"/>
</g>
  <g transform="translate(565.7871376374778, 36.55626315603547) scale(1 1) translate(0, 0) scale(1.0 1.0) "><path style="fill:#F97D23;" d="M44.57,93.84c0,0,2.67,7.18,1.13,9.71c-1.55,2.53-7.74,2.04-9.64,3.24  c-1.36,0.86-1.34,3.24-0.49,4.22c0.84,0.99,13.09,0.14,15.49-4.5S50.2,92.99,50.2,92.99L44.57,93.84z"/>
<path style="fill:#F97D23;" d="M64.13,92.99l-5.21,1.13c0,0,2.25,9.43,0.42,12.53c-1.83,3.1-8.39,6.41-9.57,9.01  c-1.06,2.32,1.55,4.22,5.63,1.69s8.7-6.31,9.57-8.17C67.09,104.68,64.13,92.99,64.13,92.99z"/>
<path style="fill:#36B4E1;" d="M28.52,21.9C17.44,24.39,8.81,33.73,12.05,47.94c1.92,8.43,3.1,11.4,3.8,15.2  c1.48,7.99,1.08,11.5,4.46,18.82c3.59,7.79,16.8,17.79,33.27,15.39s23.09-4.65,23.09-4.65l5.91-5.21l5.63-1.41l0.84-4.08  c0,0,4.21-0.19,5.07-1.55c1.36-2.16,0.56-3.94-1.83-4.79c-2.39-0.84-3.8-1.55-3.8-1.55s23.23-15.35,26.04-17.03s7.18-4.58,7.39-5.63  c0.53-2.67-6.69-8.59-16.12-11.4c-9.43-2.82-17.53-3.59-18.86-2.53c-1.77,1.39-9.57,16.05-14.78,15.35  c-6.76-0.92-11.4-7.25-12.67-10.84C58.05,37.96,49.4,17.21,28.52,21.9z"/>
<path style="fill:#F97D23;" d="M14.3,43.86c-1.69-0.28-6.01,4.32-6.85,5.44s-2.17,2.73-1.69,3.94c0.75,1.88,4.6,1.98,6.85,2.16  c2.35,0.19,6.85,0.56,7.6-0.84c0.75-1.41-0.84-4.97-2.16-7.13C16.83,45.42,16.06,44.16,14.3,43.86z"/>
<ellipse transform="matrix(0.9928 -0.1196 0.1196 0.9928 -4.9855 4.1639)" style="fill:#2A2D2F;" cx="32.19" cy="43.61" rx="4.02" ry="4.36"/>
<path style="fill:#026AA8;" d="M45.41,73.71c-1.95,0.71,0.61,7.6,3.24,10.7c2.77,3.26,9.47,10.58,19.71,11.54  c6.95,0.66,10.04-1.31,11.68-3.1c1.22-1.33,2.53-2.87,3.43-3.57c1.31-1.03,2.63-0.14,4.88-1.78c1.62-1.18,1.97-3.14,2.82-3.85  c0.84-0.7,2.27-0.54,3-1.22c1.31-1.22,1.13-4.79,0.19-4.97s-1.03,2.53-1.97,2.91s-2.19,0.14-3.94,1.13  c-1.5,0.84-1.03,2.53-2.06,3.28s-2.91-0.28-5.44,1.13c-1.37,0.76-2.53,4.41-6.48,5.26c-4.9,1.05-12.25-2.52-15.77-5.07  C50.53,80.18,48.74,72.49,45.41,73.71z"/>
</g>
  <g transform="translate(717.0348546707205, 123.87917329949448) scale(1 1) translate(0, 0) scale(1.0 1.0) "><path style="fill:#F97D23;" d="M44.57,93.84c0,0,2.67,7.18,1.13,9.71c-1.55,2.53-7.74,2.04-9.64,3.24  c-1.36,0.86-1.34,3.24-0.49,4.22c0.84,0.99,13.09,0.14,15.49-4.5S50.2,92.99,50.2,92.99L44.57,93.84z"/>
<path style="fill:#F97D23;" d="M64.13,92.99l-5.21,1.13c0,0,2.25,9.43,0.42,12.53c-1.83,3.1-8.39,6.41-9.57,9.01  c-1.06,2.32,1.55,4.22,5.63,1.69s8.7-6.31,9.57-8.17C67.09,104.68,64.13,92.99,64.13,92.99z"/>
<path style="fill:#4D4D4D;" d="M28.52,21.9C17.44,24.39,8.81,33.73,12.05,47.94c1.92,8.43,3.1,11.4,3.8,15.2  c1.48,7.99,1.08,11.5,4.46,18.82c3.59,7.79,16.8,17.79,33.27,15.39s23.09-4.65,23.09-4.65l5.91-5.21l5.63-1.41l0.84-4.08  c0,0,4.21-0.19,5.07-1.55c1.36-2.16,0.56-3.94-1.83-4.79c-2.39-0.84-3.8-1.55-3.8-1.55s23.23-15.35,26.04-17.03s7.18-4.58,7.39-5.63  c0.53-2.67-6.69-8.59-16.12-11.4c-9.43-2.82-17.53-3.59-18.86-2.53c-1.77,1.39-9.57,16.05-14.78,15.35  c-6.76-0.92-11.4-7.25-12.67-10.84C58.05,37.96,49.4,17.21,28.52,21.9z"/>
<path style="fill:#F97D23;" d="M14.3,43.86c-1.69-0.28-6.01,4.32-6.85,5.44s-2.17,2.73-1.69,3.94c0.75,1.88,4.6,1.98,6.85,2.16  c2.35,0.19,6.85,0.56,7.6-0.84c0.75-1.41-0.84-4.97-2.16-7.13C16.83,45.42,16.06,44.16,14.3,43.86z"/>
<ellipse transform="matrix(0.9928 -0.1196 0.1196 0.9928 -4.9855 4.1639)" cx="32.19" cy="43.61" rx="4.02" ry="4.36"/>
<path d="M45.41,73.71c-1.95,0.71,0.61,7.6,3.24,10.7c2.77,3.26,9.47,10.58,19.71,11.54c6.95,0.66,10.04-1.31,11.68-3.1  c1.22-1.33,2.53-2.87,3.43-3.57c1.31-1.03,2.63-0.14,4.88-1.78c1.62-1.18,1.97-3.14,2.82-3.85c0.84-0.7,2.27-0.54,3-1.22  c1.31-1.22,1.13-4.79,0.19-4.97s-1.03,2.53-1.97,2.91s-2.19,0.14-3.94,1.13c-1.5,0.84-1.03,2.53-2.06,3.28s-2.91-0.28-5.44,1.13  c-1.37,0.76-2.53,4.41-6.48,5.26c-4.9,1.05-12.25-2.52-15.77-5.07C50.53,80.18,48.74,72.49,45.41,73.71z"/>
</g>
  <g transform="translate(819.6890922098924, 265.1706099081639) scale(1 1) translate(0, 0) scale(1.0 1.0) "><path style="fill:#F77EAE;" d="M66.57,64.7l4.5-0.38c0,0,0.75,50.49,0,52.37c-0.75,1.88-8.26,9.76-12.95,4.32  c-4.69-5.44,0-6.19,3.75-6.57c3.75-0.38,4.88,0.38,5.07-0.94C67.14,112.19,66.57,64.7,66.57,64.7z"/>
<path style="fill:#F77EAE;" d="M38.7,9c0,0,5.73-6.05,13.8-3.8s8.63,12.53,3.85,20.46c-4.09,6.78-12.45,18.76-12.29,25.34  c0.14,6.03,5.63,5.44,8.07,0.94c2.44-4.5,3.21-6.52,3.21-6.52l9.71,23.65c0,0-14.62,9.07-27.38-2.58  c-11.92-10.89,2.11-32.01,4.97-37.26c1.69-3.1,2.86-5.68,2.53-8.54c-0.19-1.68-2.42-3.12-3.94-3.73c-1.46-0.58-9.5-3.19-9.5-3.19  L38.7,9z"/>
<path style="fill:#F2478D;" d="M66.29,70.7c0,0,19.23,10.88,18.21,11.36c-1.41,0.66-9.1,2.25-13.14,3.1  c-3.21,0.67-7.79,1.22-9.57,2.25s-4.6,5.07-5.16,6.38c-0.56,1.31-1.03,3.85,2.72,5.63c3.75,1.78,5.91-0.66,5.91-2.82  s-0.66-5.16,0-5.54c0.87-0.49,7.13-2.06,10.89-2.91s11.36-2.91,12.48-3.19c1.13-0.28,3.19-0.38,3.57-2.16s-2.44-2.44-3.85-3.28  s-5.73-3.75-7.6-4.88c-1.88-1.13-7.88-5.73-7.88-5.73l-6.19-0.56L66.29,70.7z"/>
<path style="fill:#FFD4AC;" d="M38.7,7.54c0,0,0.56-0.56,2.91-0.56c2.35,0,6.48,1.88,8.54,2.82c2.06,0.94,4.13,1.88,4.13,2.53  c0,0.66-4.97,1.6-7.41,2.16c-2.44,0.56-6.85,1.97-6.85,1.97l-6.01-5.35L38.7,7.54z"/>
<path style="fill:#1A191E;" d="M50.43,11.62c0,1.37-1.16,2.49-2.58,2.49c-1.43,0-2.67-1.16-2.67-2.53s1.11-2.53,2.53-2.53  S50.43,10.25,50.43,11.62z"/>
<path style="fill:#F2478D;" d="M41.28,6.95l-5.16,0.21l-7.09,7.88l-0.19,3.1c0,0,2.67-1.03,5.4-1.45c2.72-0.42,3.65-0.43,4.27-0.38  c1.03,0.09,1.69,0.19,1.69,0.19s1.8-2.68,1.88-4.5C42.22,8.85,41.28,6.95,41.28,6.95z"/>
<path style="fill:#5F6369;" d="M28,7.87c-1.59,1.02-3.24,4.04-4.27,5.91s-2.61,6.25-0.56,7.23c1.38,0.66,4.22-2.11,6.1-2.91  c1.83-0.78,3.12-1.03,3.12-1.03s0.19-0.75,0.49-0.94s5.63-1.17,5.63-1.17v-1.31c0,0-6.24,1.17-6.34,0.75  c-0.09-0.42,1.48-3.05,2.7-4.32c1.22-1.27,4.08-3,4.08-3s-2.6-0.23-5.47-0.42C30.87,6.48,29.69,6.79,28,7.87z"/>
<path style="fill:#1A191E;" d="M36.31,14.44l1.92-1.08c0,0,1.27-1.13,2.11-0.28c0.87,0.87-0.33,2.53-1.55,1.97  C37.89,14.63,36.31,14.44,36.31,14.44z"/>
<radialGradient id="SVGID_14_1_" cx="56.9594" cy="45.1994" r="52.1422" gradientUnits="userSpaceOnUse">
	<stop offset="0.1946" style="stop-color:#F77EAE"/>
	<stop offset="0.354" style="stop-color:#F678AA"/>
	<stop offset="0.564" style="stop-color:#F568A1"/>
	<stop offset="0.8014" style="stop-color:#F24C90"/>
	<stop offset="0.8422" style="stop-color:#F2478D"/>
</radialGradient>
<path style="fill:url(#SVGID_14_1_);" d="M54.49,58.86c1.27,3.8,3.45,13.02,18.65,13.02c10.98,0,14.27-0.17,17.53,0.56  c2.18,0.49,4.58,2.04,6.62,2.6c0.63,0.17-0.21-2.53-0.63-4.01c-0.24-0.85-0.99-2.46-0.99-2.46s1.9,0.49,3.52,1.2  c1.33,0.58,3.03,1.34,4.08,1.97c0.69,0.41-0.19-2.86-1.06-5c-0.61-1.49-2.67-4.08-2.67-4.08s1.97,0.77,2.82,1.13  c0.51,0.21,1.57,0.73,2.42,0.96c0.72,0.2-3.61-7.65-5.44-9.83s-5.7-5.77-7.53-6.9c-1.83-1.13-15.98-0.84-15.98-0.84l-20.98,1.06  C54.84,48.23,52.87,54,54.49,58.86z"/>
<linearGradient id="SVGID_14_2_" gradientUnits="userSpaceOnUse" x1="69.2268" y1="39.4895" x2="81.1813" y2="67.6524">
	<stop offset="0.1617" style="stop-color:#F77EAE"/>
	<stop offset="0.3702" style="stop-color:#F982A4"/>
	<stop offset="0.6638" style="stop-color:#FC8A8F"/>
</linearGradient>
<path style="fill:url(#SVGID_14_2_);" d="M66.11,37.88c8.55-1.06,16.26,3.38,20.98,6.12c4.72,2.75,10.49,8.94,10.49,8.94  s-3.26,0.5-5.75,0.45c-2.3-0.05-5.44-0.52-5.44-0.52s2.82,2.3,4.36,4.79c0.59,0.94,2.11,3.87,2.11,3.87s-5.49,0.07-10.77-2.18  c-3.22-1.37-8.09-4.43-8.09-4.43s1.69,4.43,2.11,5.49c0.42,1.06,1.13,3.38,1.13,3.38s-5.35-0.21-9.71-3.87  c-4.36-3.66-4.22-4.55-4.22-4.55s1.27,4.62,1.62,5.82s0.84,4.36,0.84,4.36s-5.8-0.56-8.87-3.8c-2.02-2.13-3.38-5.35-3.45-7.95  C53.36,51.18,54.14,39.36,66.11,37.88z"/>
</g>
  <g>
    <defs/>
    <path d="M 599.9234928897205 637.5328890437411 L 500.0 500.0 L 476.95159022570465 448.2324240669193" fill="none" stroke="black" stroke-width="12.8"/>
    <path d="M 715.5728103602348 570.0438520583214 L 661.6796077701761 552.5328890437411 A 170.0 170.0 0 0,1 500.0 670.0 L 500.0 726.6666666666666" fill="none" stroke="black" stroke-width="12.8"/>
    <path d="M 840.0 500.0 L 726.6666666666666 500.0 A 226.66666666666666 226.66666666666666 0 0,1 683.3771853916547 633.2313238529606 L 729.2214817395685 666.5391548162007" fill="none" stroke="black" stroke-width="12.8"/>
    <path d="M 810.6054555984842 638.2904586457721 L 758.8378796654035 615.2420488714768 A 283.33333333333337 283.33333333333337 0 0,1 689.5870051350098 710.5577005519284 L 727.5044061620118 752.669240662314" fill="none" stroke="black" stroke-width="12.8"/>
    <path d="M 605.0657780874822 823.3592155403521 L 570.0438520583214 715.5728103602348 A 226.66666666666666 226.66666666666666 0 0,1 429.95614794167864 715.5728103602348 L 412.44518492709824 769.4660129502936" fill="none" stroke="black" stroke-width="12.8"/>
    <path d="M 464.46032248899786 838.137444425213 L 470.38360207416486 781.7812036876775 A 283.33333333333337 283.33333333333337 0 0,1 358.33333333333337 745.373864405591 L 330.0000000000001 794.4486372867092" fill="none" stroke="black" stroke-width="12.8"/>
    <path d="M 241.16212033459635 615.2420488714768 L 448.2324240669193 523.0484097742954 A 56.666666666666664 56.666666666666664 0 0,1 551.7675759330807 476.95159022570465 L 810.6054555984844 361.70954135422795" fill="none" stroke="black" stroke-width="12.8"/>
    <line stroke="black" stroke-width="12.8" x1="456.91032861599825" x2="413.8206572319965" y1="463.19794392795626" y2="426.3958878559125"/>
    <path d="M 224.9342219125179 699.846985779441 L 270.77851826043155 666.5391548162008 A 283.33333333333337 283.33333333333337 0 0,1 222.85817979208838 558.9083123983652 L 167.42981575050607 570.6899748780381" fill="none" stroke="black" stroke-width="12.8"/>
    <path d="M 167.42981575050607 429.3100251219619 L 389.1432719168354 476.436675040654 A 113.33333333333333 113.33333333333333 0 0,1 459.3849657181993 394.19421833031714 L 439.07744857729887 341.2913274954757" fill="none" stroke="black" stroke-width="12.8"/>
    <path d="M 224.93422191251784 300.15301422055916 L 362.4671109562589 400.0765071102796 A 170.0 170.0 0 0,1 535.3449874390191 333.71490787525306 L 547.1266499186921 278.28654383367075" fill="none" stroke="black" stroke-width="12.8"/>
    <line stroke="black" stroke-width="12.8" x1="414.99999999999994" x2="329.9999999999999" y1="352.77568135664546" y2="205.55136271329093"/>
    <path d="M 464.4603224889976 161.8625555747871 L 476.3068816593317 274.57503704985805 A 226.66666666666666 226.66666666666666 0 0,1 613.3333333333334 303.7009084755273 L 641.6666666666667 254.62613559440902" fill="none" stroke="black" stroke-width="12.8"/>
    <path d="M 605.065778087482 176.64078445964776 L 587.5548150729018 230.5339870497064 A 283.33333333333337 283.33333333333337 0 0,1 689.5870051350099 289.4422994480717 L 727.504406162012 247.33075933768603" fill="none" stroke="black" stroke-width="12.8"/>
  </g>
</svg>
