<?xml version='1.0' encoding='ASCII' standalone='yes'?>
<svg xmlns="http://www.w3.org/2000/svg" xmlns:xlink="http://www.w3.org/1999/xlink" version="1.1" width="1000.0px" viewBox="0 0 1000.0 1000.0" height="1000.0px">
  <g transform="translate(856.0, 436.0) scale(1 1) translate(0, 0) scale(1.0 1.0) "><path style="fill:#FFD2B1;" d="M28.94,63.15c0,0-2.39,6.9-0.99,14.22c1.41,7.32,3.38,14.08,3.38,14.08s0.42,14.36,0,15.91  c-0.42,1.55-3.66,3.52-3.66,6.34s1.03,6.38,6.24,7.23s9.43-0.89,11.17-3c2.51-3.05,2.02-5.21,2.02-7.46c0-2.25,0.14-15.2,0.7-17.18  c0.56-1.97,1.41-3.1,2.96-2.96c1.55,0.14,3.24,2.53,3.38,7.04c0.14,4.5,0.28,12.39,0.14,13.94c-0.14,1.55-1.55,6.76-0.42,8.87  c1.13,2.11,6.24,4.16,10.18,3.94c5.16-0.28,8.26-3.52,8.54-6.05c0.28-2.53-1.41-8.31-1.41-10c0-1.69,1.97-13.23,2.53-13.94  c0.56-0.7,2.28-0.55,6.05-2.25c3.43-1.55,5.26-3.1,5.26-3.1s0.09,10-0.05,11.12c-0.14,1.13-3.52,4.65-2.96,7.32  c0.56,2.67,3.86,4.23,6.8,4.5c4.97,0.47,9.81-3.38,11.07-6.76c1.27-3.38,0.7-7.6,0.42-9.85c-0.28-2.25-0.28-10.14,0-12.25  c0.28-2.11,0.74-3.39,0.92-4.5c0.28-1.83,0.21-3.87,0.21-3.87s4.86,0,7.74-1.9s5.91-5.21,7.25-9.29c1.31-3.99,0.99-5.21-0.14-5.35  c-1.13-0.14-6.19,6.96-10.49,7.18c-6.83,0.35-6.15-6.97-11.36-11.4c-5.87-5-15.02-5.63-15.02-5.63s1.58-5.91,1.6-10.28  c0.07-19.08-9.22-25.55-9.22-25.55S60.61,3.95,47.94,4.51S25.98,15.14,25.98,15.14L19.01,45.9c0,0,1.76,5.91,4.58,10.21  C26.55,60.61,28.94,63.15,28.94,63.15z"/>
<path style="fill:none;stroke:#6BA3AB;stroke-miterlimit:10;" d="M98.27,58.29"/>
<path style="fill:#865B52;" d="M20.14,8.32C9.79,8.53,4.32,17.35,4.16,22.75c-0.09,3.17-1.34,26.21,11.4,26.68  c5.11,0.19,8.91-5.74,10.84-12.46c2.43-8.47,2.32-16.96,2.6-19.22c0.45-3.61,1.2-6.26,1.2-6.26S28.94,8.14,20.14,8.32z"/>
<path style="fill:#865B52;" d="M75.54,4.8c11.26,0.42,15.1,5.41,16.19,8.31c1.2,3.17,2.25,14.48,0.49,22.03  c-1.43,6.16-3.59,9.29-8.66,9.08c-4.64-0.19-6.99-6.88-10.49-15.98c-3.38-8.8-5.97-16.68-6.41-17.81c-0.56-1.48-1.76-2.11-1.76-2.11  S67.15,4.48,75.54,4.8z"/>
<path style="fill:#D27856;" d="M62.66,27.67c-5.56,0.35-8.22,6.53-7.04,12.74c1.27,6.69,5.66,9.86,11.19,9.15  c6.05-0.77,7.88-7.67,7.11-12.88C73.21,31.94,70.53,27.17,62.66,27.67z"/>
<path style="fill:#060401;" d="M69.2,39c0,2.92-1.62,5.36-4.19,5.29c-3.49-0.1-4.4-3.19-4.33-5.79c0.08-3.04,1.9-4.48,4.5-4.41  C67.5,34.14,69.2,36.08,69.2,39z"/>
<path style="fill:#060401;" d="M39.85,40.61c0,3.04-1.62,5.58-4.19,5.5c-3.49-0.1-4.4-3.32-4.33-6.03c0.08-3.17,2.25-4.52,4.29-4.37  C37.93,35.88,39.85,37.57,39.85,40.61z"/>
<path style="fill:#060401;" d="M53.22,57.59c0,0,6.12-0.63,5.84-5.07c-0.28-4.43-4.43-4.72-7.67-4.65  c-3.24,0.07-7.88,1.76-7.39,5.49c0.49,3.73,5.77,4.22,5.77,4.22s-0.01,2.76-1.83,2.96c-1.97,0.21-4.79-2.82-5.56-3.59  c-0.77-0.77-1.97-0.49-2.39,0.14s-0.14,2.04,1.06,3.24s4.01,4.22,6.83,3.94c2.82-0.28,2.89-1.76,4.01-1.83  c1.13-0.07,1.06,1.62,3.87,1.55c1.98-0.05,5.97-3.53,6.69-4.15c1.62-1.41,2.04-2.82,1.34-3.73s-2.67,0.42-3.73,1.2  c-1.06,0.77-2.77,2.59-4.43,2.89C52.87,60.69,53.22,57.59,53.22,57.59z"/>
<path style="fill:#D27856;" d="M78.21,50.99c0,0-1.33,2.92-2.44,5.26c-1.34,2.82-3.26,5.28-3.26,5.28s2.17,14.84,15.08,13.56  c4.62-0.46,8.12-4.08,8.45-7.92c0.56-6.48-1.9-9.51-5.72-12.47C84.13,49.92,78.21,50.99,78.21,50.99z"/>
<path style="fill:#D27856;" d="M69.27,74.2c-2.29,2.1-1.06,6.05,1.97,6.48c3.03,0.42,4.66-2.1,4.43-4.01  C75.33,73.71,71.88,71.81,69.27,74.2z"/>
<path style="fill:#D27856;" d="M39.36,70.3c0,0-2.02,5.54,2.25,12.48c1.82,2.95,5.87,4.61,8.73,4.5c3.02-0.11,5.75-1.16,8.09-4.08  c3.73-4.65,2.67-12.39,2.67-12.39s-5.91,2.43-11.33,2.25C44,72.88,39.36,70.3,39.36,70.3z"/>
<path style="fill:#D27856;" d="M31.99,112.7c-1.47-0.45-2.06,1.83-2.16,3.28s-0.09,3.33,1.22,3.8c1.31,0.47,1.05-2.32,1.17-3.24  C32.46,114.77,33.54,113.17,31.99,112.7z"/>
<path style="fill:#D27856;" d="M37.76,113.55c-0.88-0.04-1.81,0.85-1.92,3.43c-0.09,2.16,0,3.94,1.22,4.04  c1.64,0.13,1.18-1.97,1.27-3.71C38.37,116.32,39.59,113.64,37.76,113.55z"/>
<path style="fill:#D27856;" d="M60.15,116.36c-1.41,0-1.45,1.6-1.45,3.33c0,1.74-0.36,3.89,1.22,4.08c1.92,0.23,1.55-2.35,1.55-3.8  C61.46,118.71,61.69,116.36,60.15,116.36z"/>
<path style="fill:#D27856;" d="M66.53,116.04c-1.13,0.23-1.03,1.78-0.99,3.66c0.05,1.88-0.23,3.87,1.36,3.71  c1.36-0.14,1.27-2.35,1.22-4.04C68.08,117.91,68.27,115.67,66.53,116.04z"/>
<path style="fill:#D27856;" d="M85.86,103.81c-0.97-0.19-2.07,0.63-2.35,2.82c-0.23,1.88-0.14,3.53,1.5,3.89  c0.84,0.19,0.99-1.97,1.03-3.52C86.09,105.66,87.08,104.05,85.86,103.81z"/>
<path style="fill:#D27856;" d="M91.16,104.95c-0.93-0.15-1.84,0.42-2.08,2.75c-0.14,1.36-0.64,3.8,1.05,3.89  c1.31,0.06,1.21-2.09,1.33-3.21C91.65,106.61,92.69,105.21,91.16,104.95z"/>
</g>
  <g transform="translate(819.6890922098924, 606.8293900918361) scale(1 1) translate(0, 0) scale(1.0 1.0) "><path style="fill:#B0B0B0;" d="M22.65,46.3c1.19,3.57-2.44,11.42-7.51,16.3S2.18,75.21,5.01,78.96c2.4,3.18,7.51-2.82,8.82-1.13  c1.31,1.69-8.26,7.7-5.44,10.89s7.56-2.12,9.03-0.56c2.32,2.47-4.34,8.44-0.4,10.32c3.94,1.88,8.71-3,13.7-4.69  c3.68-1.25,6.19-0.75,7.7,3.19s4.6,25.85,26.56,26.28c19.05,0.38,23.74-20.65,25.43-26.28c1.16-3.88,5.48-4.65,8.63-3  c2.96,1.54,5.75,5.04,9.01,2.06c2.88-2.62-2.99-6.76-0.98-8.58c2.04-1.83,5.95,5.08,9.57,1.5c2.93-2.89-4.67-7.81-2.4-10.19  c1.86-1.96,5.44,5.89,9.82,0.99c3.11-3.48-7.39-12.68-12.08-19.44c-4.69-6.76-5.95-9.46-5.95-12.61c0-3.28,9.91-16.8,11.41-23.37  c1.5-6.57,2.44-14.45,0-17.27c-2.44-2.82-11.64-1.69-20.08,1.5c-7.15,2.7-16.14,8.45-16.14,8.45s-8.82-2.82-16.14-2.82  c-7.32,0-15.58,2.82-15.58,2.82s-11.11-4.99-16.14-7.51c-6.01-3-17.25-5.66-21.19-1.9c-3.46,3.3-1.51,12.29,0.17,18.05  C14.72,33.87,21.71,43.49,22.65,46.3z"/>
<path style="fill:#E0E0E0;" d="M87.6,24.34c-1.12-1.26,7.09-4.74,9.9-5.68c2.82-0.94,10.18-3.33,11.31-1.08  c1.13,2.25-0.89,7.41-2.86,11.36c-1.7,3.4-4.83,8.73-6.15,8.54c-1.31-0.19-1.88-3.57-5.26-7.51S89.1,26.03,87.6,24.34z"/>
<path style="fill:#E0E0E0;" d="M41.61,24.72c0.48-2.54-5.19-5.44-9.13-7.13c-2.49-1.07-10.15-4.14-11.91-1.93  c-1.12,1.41,1.18,9.19,2.74,12.43c1.83,3.8,5.06,9.6,6.89,9.46c1.83-0.14,3.24-4.67,5.22-7.07C37.28,28.23,41.19,26.97,41.61,24.72z  "/>
<path style="fill:#E0E0E0;" d="M65.12,99.47c4.65,0.11,6.9-2.39,7.88-4.93s2.39-8.17,8.02-11.12s10.28-2.11,13.23-0.7  c2.96,1.41,5.07,3.8,3.52,5.07s-7.46-0.42-10.14,3.52c-2.67,3.94-5.64,17.91-10.28,22.38c-3.94,3.8-8.17,4.5-13.66,4.22  c-5.49-0.28-11.26-2.11-14.5-7.74s-4.31-14.45-6.62-17.32c-4.08-5.07-9.29-3.1-11.4-4.08s0.14-4.36,3.24-5.77s9.28-2.41,16.05,1.27  c4.93,2.67,5.49,7.6,6.34,9.57C57.66,95.81,58.93,99.33,65.12,99.47z"/>
<path style="fill:#2F2F2F;" d="M90.32,61.69c-0.52,4.17-3.3,6.96-6.79,6.74c-4.19-0.26-6.07-3.85-5.77-8.04  c0.3-4.19,3.38-7.38,6.87-7.13C88.12,53.51,90.98,56.44,90.32,61.69z"/>
<path style="fill:#2F2F2F;" d="M51.45,59.3c0.61,4.16-1.43,7.61-5.01,8.37c-4.29,0.91-7.16-2.02-8-6.14  c-0.83-4.12,1.4-8.04,4.98-8.77S50.69,54.05,51.45,59.3z"/>
<path style="fill:#2A2A2A;" d="M74.18,98.06c0.09,4.18-1.41,7.56-9.57,7.46c-8.08-0.09-9.29-3.75-9.2-7.46  c0.08-3.24,4.2-5.87,9.39-5.87S74.1,94.82,74.18,98.06z"/>
<path style="fill:#2A2A2A;" d="M64.7,110.52c0.71,0,3.36,2.17,6.13,2.17c4.2,0,8.09-3.22,7.31-4.7c-0.77-1.48-4.22,1.62-6.62,1.62  s-4.65-0.99-4.93-3.52c-0.28-2.53-0.07-2.96-0.07-2.96l-3.52-0.14c0,0,0.42,2.18,0.42,3.1c0,1.86-3.73,3.59-5.56,3.66  c-3.45,0.14-4.22-2.46-5.91-2.67c-1.44-0.18-0.87,4.74,5.56,5.61C61.67,113.25,63.57,110.52,64.7,110.52z"/>
</g>
  <g transform="translate(717.0348546707205, 748.1208267005055) scale(1 1) translate(0, 0) scale(1.0 1.0) "><path style="fill:#FF6011;" d="M45.83,104.96l32.52,4.5l39.84-24.35c0,0-4.93-11.83-7.46-17.88s-6.62-14.36-6.62-14.36  s2.23-6.07,3.24-13.37c1.17-8.49,0.14-10.65,0.14-10.65l-21.21-9.67c0,0-3.14,2.3-5.96,7.51s-3.8,7.32-3.8,7.32  s-7.18-0.56-10.42-0.56c-3.24,0-8.59,0.7-8.59,0.7s-5.07-9.29-7.74-12.53c-2.67-3.24-6.85-6.38-6.85-6.38s-18.86,9.39-19.71,16.14  s-0.05,11.5,0.52,14.45c0.56,2.96,2.25,7.18,2.25,7.18s-1.69,2.53-3.94,8.31s-4.79,12.81-6.62,15.77c-1.83,2.96-6.76,9.71-6.76,9.71  L45.83,104.96z"/>
<path style="fill:#575A5B;" d="M31.66,7.73c-2.02,0.56-4.41,5.16-6.57,12.76c-1.14,4.01-1.97,11.36-1.97,11.36s6.66-5.16,12.58-7.32  s13.42-3.66,13.42-3.66s-3.45-3.94-7.51-7.51C38.1,10.27,33.4,7.25,31.66,7.73z"/>
<path style="fill:#575A5B;" d="M100.36,8.48c-1.46-0.39-6.49,2.18-10.04,5.54s-6.95,7.98-6.95,7.98s7.13,0.28,13.61,3.57  c6.48,3.28,10.89,6.19,10.89,6.19s-0.14-6.74-1.6-12.58C104.77,13.17,102.8,9.14,100.36,8.48z"/>
<path style="fill:#FF9411;" d="M33.73,16.55c-0.66,0.38-4.1,7.11-3.85,17.18c0.19,7.51,1.69,13.51,2.06,13.51  c0.19,0,3.84-4.33,7.7-7.04c3.86-2.71,8.82-4.19,8.96-4.52c0.28-0.66-2.86-7.21-7.08-12.74S34.38,16.18,33.73,16.55z"/>
<path style="fill:#FF9411;" d="M86.1,36.45c-0.21-0.96,2.44-9.1,5.16-13.42c2.72-4.32,6.57-8.63,7.6-8.45  c1.03,0.19,5.07,9.67,3.75,18.3c-1.31,8.63-3,13.61-3.47,13.7c-0.26,0.05-3.04-3.25-6.48-5.91C89.8,38.45,86.18,36.83,86.1,36.45z"/>
<path style="fill:#DFDFDF;" d="M4.73,87.41c-0.15-0.74,3.85-1.41,6.57-2.72c2.72-1.31,8.35-3.85,16.99-2.82  c8.63,1.03,12.97,3.63,19.15,7.79c6.19,4.18,8.92,13.98,8.92,13.98l14.17,3c0,0,4.93-11.03,8.54-14.45  c3.03-2.88,11.2-9.36,21.68-10.32c10.23-0.94,14.36,1.31,17.83,2.63c2.4,0.91,4.5,1.41,4.79,2.16c0.28,0.75-4.13,3.75-4.13,3.75  s4.13,0.66,4.22,1.22c0.14,0.84-3.1,2.72-5.35,4.13s-18,9.47-23.84,12.48c-3.1,1.6-15.49,6.19-17.36,6.1  c-1.88-0.09-23.84-1.13-25.34-1.22c-1.5-0.09-16.24-5.26-23.84-8.17c-8.43-3.22-23.54-10.88-23.18-12.29  c0.19-0.75,5.35-1.31,5.35-1.31S4.91,88.35,4.73,87.41z"/>
<path style="fill:#FEE9C9;" d="M64.13,119.7c16.97,0.83,17.64-13.42,15.86-19.52c-1.78-6.1-2.53-6.1-2.53-6.1s-3.61,4.18-5.44,9.39  c-0.57,1.63-15.67,0.19-15.67,0.19s-0.75-3-2.16-5.73c-0.93-1.8-2.35-3.71-2.35-3.71s-2.53,3.43-3,8.02  C48.37,106.84,46.87,118.85,64.13,119.7z"/>
<path style="fill:#4A4A4C;" d="M52.59,110.45c-0.75,0.86,1.27,3.03,2.25,4.01c0.99,0.99,3.1,2.35,4.36,2.46  c1.55,0.14,5.28-3.1,5.28-3.1s3.82,3.54,5.94,3.47c2.11-0.07,4.69-3.05,5.61-4.04c0.56-0.61,1.67-1.75,0.77-2.82  c-0.77-0.92-1.94-0.04-2.89,0.84c-1.96,1.84-3.4,3.19-3.66,3.24c-0.42,0.07-5.49-4.58-5.49-4.58s-4.86,3.66-5.77,3.66  c-0.55,0-2.24-1.53-3.59-2.82C54.53,109.97,53.58,109.32,52.59,110.45z"/>
<path style="fill:#2D2A25;" d="M64.7,99.82c-3.66,0.03-9.64,0.21-9.29,4.22c0.35,4.01,2.32,7.67,9.57,7.6s9.08-3.87,9.22-7.67  C74.28,101.72,73.43,99.75,64.7,99.82z"/>
<path style="fill:#FFFFFF;" d="M45.9,96.94c-0.33,0.99-2.11,1.27-3.87,0.35c-1.76-0.92-5-2.82-7.74-4.08  c-2.3-1.06-4.86-1.69-4.65-3.17c0.21-1.48,3.17-0.42,5.63,0.35c2.46,0.77,7.53,2.89,8.59,3.52C44.92,94.54,46.4,95.46,45.9,96.94z"/>
<path style="fill:#FFFFFF;" d="M36.19,98.06c-2.76-0.87-7.62-2.61-7.88-0.84c-0.21,1.41,4.01,2.4,6.76,3.94  c2.39,1.34,6.65,3.64,7.46,1.06C43.23,99.96,38.86,98.91,36.19,98.06z"/>
<path style="fill:#FFFFFF;" d="M83.98,97.15c0.78,1.76,3.4-0.01,6.05-1.34c3.1-1.55,7.18-3.31,8.38-3.66  c1.2-0.35,2.11-0.84,1.9-1.62c-0.21-0.77-2.1-0.86-3.52-0.56c-2.04,0.42-5.35,1.13-8.24,2.6C86.74,93.5,82.93,94.75,83.98,97.15z"/>
<path style="fill:#FFFFFF;" d="M87.15,102.64c0.62,2.07,5.56-0.49,7.95-1.48s7.11-2.53,6.69-3.8c-0.48-1.43-6.48-0.02-8.17,0.42  C91.23,98.41,86.31,99.82,87.15,102.64z"/>
<path style="fill:#2D2A25;" d="M85.67,73.71c-0.99,2.96-3.71,6.22-6.83,5.56s-4.36-3.87-3.73-8.45c0.59-4.27,4.06-5.94,7.18-5.28  S87.04,69.61,85.67,73.71z"/>
<path style="fill:#2D2A25;" d="M53.6,71.25c0.6,3.06,0.27,6.66-2.84,7.67c-3.11,1-6.82-0.39-8.03-4.85  c-1.34-4.94,0.65-7.19,3.76-8.19C49.61,64.87,52.76,67.01,53.6,71.25z"/>
<path style="fill:#DFDFDF;" d="M48.02,67.51c0.86,0.86,0.35,2.39-0.49,3.17c-0.51,0.47-2.11,1.55-3.17,0.14  c-0.78-1.04-0.21-2.18,0.7-3.1C45.97,66.81,47.24,66.74,48.02,67.51z"/>
<path style="fill:#DFDFDF;" d="M80.04,67.72c0.98,0.71,0.64,2.46-0.07,3.36c-0.43,0.55-1.93,2.17-3.1,0.86  c-0.63-0.71-0.56-2.33,0.19-3.38C77.82,67.52,79.15,67.09,80.04,67.72z"/>
</g>
  <g transform="translate(565.7871376374779, 835.4437368439644) scale(1 1) translate(0, 0) scale(1.0 1.0) "><path style="fill:#B0B0B0;" d="M9.93,67.23c0,0,3.52-5.7,9.01-11.76c2.01-2.21,5.07-5.49,5.21-6.76c0.14-1.27-2.11-8.09-3.24-13.73  c-0.94-4.71-1.41-10.7,0.28-12.53c1.69-1.83,11.23,0.04,16.89,2.82c5.8,2.84,8.77,5.34,9.57,5.35c1,0.01,6.9-4.65,16.05-4.5  s15.63,4.36,16.89,4.36s5.34-3.04,10.98-5.98c6.62-3.45,14.36-3.73,15.91-2.6c1.55,1.13,0.56,9.29-0.56,13.51  c-1.44,5.39-3.87,11.47-3.73,12.6c0.14,1.13,2.6,2.32,7.53,7.81c3.89,4.34,8.66,12.81,8.66,12.81L66.67,79.48L9.93,67.23z"/>
<path style="fill:#DEDEDE;" d="M5.71,75.12c0,0.84,8.73,5.63,8.73,5.63s-10.42,3.8-10.42,4.5c0,1.13,15.91,16.75,31.53,22.1  c13.02,4.46,40.22,9.99,61.94-1.2c18.86-9.71,25.06-17.25,25.06-18.37s-8.45-5.63-8.45-5.63s8.87-6.05,8.87-6.9  c0-0.84-3.52-7.04-4.65-8.87s-4.5-7.18-5.91-7.74c-1.41-0.56-27.73-11.54-36.46-5.49c-4.56,3.16-5.21,6.76-5.21,10.28  c0,6.2,0.56,11.54,0.56,11.54s-2.11-2.32-5.77-2.39c-3.45-0.07-5.42,1.9-5.42,1.9s1.06-8.66,0.92-11.9  c-0.14-3.24-0.84-7.32-6.48-10.42c-8.07-4.44-28.19,3.62-34.35,7.11c-4.22,2.39-8.87,5.56-10.42,7.95S5.71,74.13,5.71,75.12z"/>
<path style="fill:#5D6268;" d="M30.63,44.33c0.32,0,2.8-2.54,5.44-4.69c2.78-2.27,5.91-4.55,5.91-4.79c0-0.47-11.64-9.01-14.92-6.48  S29.88,44.33,30.63,44.33z"/>
<path style="fill:#5D6268;" d="M86.66,34.66c-0.03,0.33,3.2,2.21,5.73,4.5c2.53,2.3,5.02,4.65,5.35,4.6  c0.66-0.09,6.29-12.86,3.66-15.11S86.75,33.73,86.66,34.66z"/>
<path style="fill:#464C4F;" d="M43.02,102.52c1.82-0.71,1.5-7.6,4.6-14.27c3.1-6.66,6.66-9.95,8.73-11.36  c2.06-1.41,3.66-1.88,4.79-3.38c1.13-1.5,1.01-8.48-0.09-10.93c-1.5-3.33-5.63-7.93-13.8-7.37c-8.17,0.56-14.92,9.1-18.68,12.67  c-3.75,3.57-9.48,7.41-9.39,14.73c0.09,7.32,6.19,12.39,9.95,15.11C32.88,100.46,40.39,103.55,43.02,102.52z"/>
<path style="fill:#464C4F;" d="M71.17,75.02c-1.69-1.13-1.03-6.19-0.94-8.54c0.09-2.35,1.03-8.35,7.41-10.04s9.76,0.84,13.61,3.47  c3.85,2.63,7.79,6.15,10.51,8.07c6.1,4.32,11.26,9.76,9.95,15.58c-1.31,5.82-5.11,9.45-10.98,13.61c-6.1,4.32-11.73,7.88-13.7,6.66  s-1.31-11.26-5.73-18.21C76.9,78.68,73.15,76.34,71.17,75.02z"/>
<path style="fill:#2F2F2F;" d="M64.84,82.15c-5.68,0.15-8.29,3.83-8.35,7.04c-0.09,4.55,1.97,5.44,2.91,6.01  c1.17,0.7,2.87,1.24,2.06,2.77c-0.84,1.6-1.64,2.25-5.11,1.97c-2.15-0.17-3.01-2.28-5.16-1.64c-2.86,0.84-0.28,5.57,6.1,5.82  c5.96,0.23,7.88-2.82,7.88-2.82s2.21,3.05,7.6,2.72c5.53-0.34,8.4-5.21,5.21-6.15c-2.29-0.67-1.92,2.16-5.11,2.3  c-2.3,0.1-3.51-0.58-4.36-1.69c-0.47-0.61-0.42-2.06,0.23-2.53c0.66-0.47,3.83-1.69,3.94-6.1C72.77,86.14,70,82.01,64.84,82.15z"/>
<path style="fill:#000101;" d="M54.47,67.49c0,3.41-1.5,6.36-4.58,6.17c-2.52-0.15-4.67-2.49-4.58-6.17c0.09-3.41,2.02-5.7,4.55-5.7  S54.47,64.08,54.47,67.49z"/>
<path style="fill:#000101;" d="M85.77,68.08c-0.13,3.41-0.75,6.76-4.32,6.43c-2.52-0.23-4.31-2.53-4.08-6.21  c0.21-3.4,1.97-5.85,4.5-5.75C84.4,62.63,85.89,64.67,85.77,68.08z"/>
<path style="fill:#B0B0B0;" d="M47.15,64.51c-0.46,0.93-0.41,2.15,0.28,2.53c0.84,0.47,2.12-0.29,2.58-1.22s0.1-1.99-0.61-2.35  C48.69,63.12,47.61,63.58,47.15,64.51z"/>
<path style="fill:#B0B0B0;" d="M79.01,65.54c-0.46,0.93-0.46,1.96,0.23,2.35c0.84,0.47,1.93-0.06,2.39-0.99  c0.46-0.93,0.28-1.95-0.42-2.3S79.47,64.62,79.01,65.54z"/>
</g>
  <g transform="translate(392.0980454275856, 853.6991960546748) scale(1 1) translate(0, 0) scale(1.0 1.0) "><path style="fill:#4D4D4D;" d="M57.19,51.56c0,0-6-7.8-5.26-18.21C52.8,21.27,59.25,10.64,72.21,6.7s25.15-0.38,25.15-0.38  l-2.06,4.69c0,0,14.08,3.28,16.14,4.41c2.06,1.13,7.51,7.23,8.07,15.49s-2.75,14.96-4.32,17.27c-1.99,2.93-5.63,5.26-7.13,5.26  c-1.5,0,1.5-3.19,1.88-6.95c0.38-3.75-0.54-4.6-0.54-4.6s-0.8,3.39-1.41,5.21c-0.35,1.06-1.76,4.22-2.11,2.89  c-0.35-1.34-0.56-10.42-4.43-12.32c-1.67-0.82-4.93-2.25-12.32,3.73c-8.21,6.65-9.57,19.85-9.57,19.85s2.89,3.38,3.24,4.22  c0.35,0.84,3.82,4.99,2.32,15.91c-0.99,7.18-2.75,15.42-3.45,17.39c-0.7,1.97-1.34,5.42-4.29,6.83c-1.82,0.87-5.98,0.99-6.48-1.06  c-0.49-2.04,1.34-3.8,0.99-5.63c-0.35-1.83-2.53-3.17-6.12-0.63c-3.59,2.53-6.26,5.28-7.81,8.73c-1.55,3.45-3.1,8.59-5.98,12.18  c-2.89,3.59-5.35,4.22-9.43,3.66c-4.52-0.62-2.32-2.89-1.55-4.43c0.77-1.55,0.35-3.96,0.07-4.72c-0.7-1.9-2.53-2.11-2.53-2.11  s0.28,4.79-1.9,6.34s-5.21,3.1-8.66,1.97c-3.45-1.13-1.27-3.1-0.28-5.21c0.99-2.11,0.35-2.96,0.07-3.73  c-0.28-0.77-1.06-3.1-1.41-4.22c-0.35-1.13-0.7-3.03-0.7-3.03s-4.36,1.69-10.49-1.34c-3.81-1.88-3.94-5.07-3.66-6.69  c0.27-1.54,1.62-2.46,1.62-2.46s-0.77-7.6,0.42-11.05s2.82-4.36,2.82-4.36s-2.37-6.47,2.11-8.02c4.86-1.69,6.83,3.45,6.83,3.45  s2.18-0.56,5.49,0.63c3.31,1.2,4.72,2.18,4.93,1.83c0.21-0.35,5.42-14.92,5.42-14.92s5.7-5.77,7.11-6.62  C49.63,53.29,51.09,52.29,57.19,51.56z"/>
<path style="fill:#DDDDDD;" d="M20.28,90.32c0.84,0.51,4.29-3.66,8.8-6.69c4.5-3.03,7.6-2.67,7.6-2.67s3.41-2.91,7.39-0.92  c4.08,2.04,2.6,7.88,2.6,7.88s8.17-13.44,13.23-17.95c5.07-4.5,10.91-6.12,15.06-6.19s7.81,1.69,7.81,1.69s-1.5-3.28-6.55-7.53  c-5.77-4.86-11.66-3.53-17.46-0.63c-5.49,2.75-12.67,9.78-13.8,10.98c-1.13,1.2-3.94,4.15-3.94,4.15s0.35-5,1.76-8.66  c1.26-3.27,4.07-6.64,6.12-8.31c2.96-2.39,5.07-3.45,5.07-3.45s-3.94,0.07-9.5,3.87c-6.5,4.44-8.66,10.56-9.22,11.76  c-0.56,1.2-1.62,4.36-1.69,6.34c-2.04-1.41-7.25-0.92-7.25-0.92s-2.65,3.61-4.15,7.11C20.86,83.28,19.48,89.83,20.28,90.32z"/>
<path style="fill:#DDDDDD;" d="M70.75,55.12c0,0-3.17-0.99-5.14-1.48c-1.97-0.49-3.73-0.99-3.73-0.99s-4.86-6.69-5-16.75  c-0.14-10.07,4.65-18.09,4.65-18.09l2.67,8.02c0,0,3.25-9.16,9.92-14.01C82.37,5.85,91,3.31,99.82,6.91  c9.32,3.79,11.97,7.6,12.39,8.09c0.42,0.49,2.39,3.45,2.39,3.45s-9.28-4.12-15.56-3.17c-6.48,0.99-10.56,2.82-15.27,7.11  c-4.72,4.29-6.12,8.24-6.12,8.24s4.22-0.68,5.91-0.63c2.6,0.07,4.58,0.77,4.58,0.77s-8.45,3.38-12.32,9.78s-5.41,13.88-4.65,14.64  C71.24,55.27,70.75,55.12,70.75,55.12z"/>
<path style="fill:#FFA7A6;" d="M13.95,94.33c-0.53,0.38,0.87,6.1,1.48,6.26c0.77,0.21,4.79-2.82,4.79-3.52  c0-0.7-2.53-1.62-3.38-1.97C15.99,94.75,14.44,93.98,13.95,94.33z"/>
<path style="fill:#DDDDDD;" d="M19.37,101.93"/>
<path style="fill:#141414;" d="M33.54,90.2c0,1.59-1.31,3.12-3.28,2.93c-1.57-0.15-2.44-1.34-2.44-2.93s1.33-3.12,2.91-3.12  C32.69,87.08,33.54,88.61,33.54,90.2z"/>
<path style="fill:#141414;" d="M19.32,84.17c0,1.59-1.22,3-2.77,2.77c-1.11-0.17-1.78-1.13-1.78-2.72s0.8-2.7,1.97-2.82  C18.66,81.22,19.32,82.58,19.32,84.17z"/>
<path style="fill:#141414;" d="M18.33,76.38c0.13,0.13,1.42-0.56,2.53-0.99c1.15-0.44,2.18-0.72,2.25-0.94  c0.14-0.42-1.08-3.52-3.66-2.44C16.88,73.1,18.05,76.1,18.33,76.38z"/>
<path style="fill:#141414;" d="M39.03,83.28c0-0.58,3.57-2.3,5.02,0.52c1.45,2.82-1.6,4.93-2.06,4.79  c-0.26-0.08-0.81-1.53-1.55-2.91C39.86,84.6,39.03,83.57,39.03,83.28z"/>
</g>
  <g transform="translate(226.0000000000001, 799.7306695894642) scale(1 1) translate(0, 0) scale(1.0 1.0) "><path style="fill:#6E4D44;" d="M80.07,76.12c0,0,3.94-3.19,4.13-4.11s-1.69-3.94-0.7-10s7.18-12.25,10-10.28  c2.82,1.97,2.53,3.24,2.53,3.24l2.82-0.28l2.11,1.55l0.56,3.1l3.38,1.55l3.38,4.08l-2.39,8.66l-10.7,4.43l-15.06,5.42L80.07,76.12z"/>
<path style="fill:#50362D;" d="M89.4,52.52c0,0,3.03-1.14,4.5,0.63c1.06,1.27,0.28,2.96-0.56,4.15c-0.84,1.2-1.96,2.72-2.75,4.08  c-0.77,1.34-1.62,3.24-1.2,3.66c0.68,0.68,2.25-1.27,3.17-2.6c1.6-2.34,2.99-4.09,3.59-4.79c0.84-0.99,2.12-1.7,3.59-0.49  c1.55,1.27-0.14,3.66-0.63,4.22s-2.53,3.03-3.24,4.01c-0.7,0.99-1.55,2.46-1.06,2.96c0.42,0.42,1.83-0.84,2.6-1.62  c0.77-0.77,2.66-2.85,3.19-3.38c1.13-1.13,2.29-2.36,4.06-0.92c1.55,1.27-4.29,10-4.29,10l4.01-2.46c0,0,5-7.46,1.67-10.23  c-1.95-1.62-4.13-0.05-4.13-0.05s1.55-2.67-0.77-4.72c-2.1-1.84-4.43-0.63-4.43-0.63s0.07-1.97-1.9-3.03  C92.85,50.27,89.97,51.96,89.4,52.52z"/>
<radialGradient id="SVGID_5_1_" cx="68.4156" cy="81.5288" r="37.4487" gradientTransform="matrix(-0.3544 0.9351 -1.016 -0.3851 175.4993 48.9517)" gradientUnits="userSpaceOnUse">
	<stop offset="0.2597" style="stop-color:#B68D76"/>
	<stop offset="0.4098" style="stop-color:#A87F6A"/>
	<stop offset="0.6793" style="stop-color:#875B4E"/>
</radialGradient>
<path style="fill:url(#SVGID_5_1_);" d="M46.82,49.07L16.55,64.42c0,0,1.12,11.29,4.36,19.15c4.65,11.26,14.06,23.46,30.41,29.56  c12.81,4.79,26.14,6.29,38.22,1.97c9.02-3.22,12.74-7.32,18.3-12.6c5.45-5.18,11.33-16.12,11.33-16.12s6.34-10.63,4.79-25.06  c-1.53-14.24-11.47-26.68-22.31-29.21c-9.44-2.21-9.52,0.28-5.56,5.42c3.8,4.93,7.88,9.15,9.57,14.36  c1.69,5.21,3.38,15.77-6.34,20.13s-20.84,3.8-28.72-1.41s-13.37-11.4-15.91-15.2s-3.94-8.31-3.94-8.31L46.82,49.07z"/>
<g>
	<path style="fill:#52322A;" d="M53.15,104.99c-0.42,0-0.83-0.22-1.05-0.61l-2.06-3.66c-0.33-0.58-0.12-1.31,0.46-1.63   c0.58-0.33,1.31-0.12,1.63,0.46l2.06,3.66c0.33,0.58,0.12,1.31-0.46,1.63C53.56,104.94,53.35,104.99,53.15,104.99z"/>
</g>
<g>
	<path style="fill:#52322A;" d="M62.73,108.98c-0.47,0-0.91-0.27-1.1-0.73l-1.6-3.75c-0.26-0.61,0.03-1.31,0.64-1.57   c0.61-0.26,1.31,0.03,1.57,0.63l1.6,3.75c0.26,0.61-0.03,1.31-0.64,1.57C63.04,108.95,62.88,108.98,62.73,108.98z"/>
</g>
<g>
	<path style="fill:#52322A;" d="M68.69,102.41c-0.37,0-0.73-0.17-0.96-0.48l-2.07-2.77c-0.4-0.53-0.29-1.28,0.24-1.68   c0.53-0.4,1.28-0.29,1.68,0.24l2.07,2.77c0.4,0.53,0.29,1.28-0.24,1.68C69.19,102.33,68.94,102.41,68.69,102.41z"/>
</g>
<g>
	<path style="fill:#52322A;" d="M78.4,110.29c-0.42,0-0.83-0.22-1.05-0.61l-1.69-3c-0.33-0.58-0.12-1.31,0.46-1.63   c0.58-0.33,1.31-0.12,1.63,0.46l1.69,3c0.33,0.58,0.12,1.31-0.46,1.63C78.8,110.24,78.6,110.29,78.4,110.29z"/>
</g>
<radialGradient id="SVGID_5_2_" cx="29.6746" cy="46.8145" r="24.012" gradientTransform="matrix(-0.8885 0.4589 -0.3302 -0.6394 71.4988 63.129)" gradientUnits="userSpaceOnUse">
	<stop offset="0.2712" style="stop-color:#FBE5CB"/>
	<stop offset="0.363" style="stop-color:#EFD7BE"/>
	<stop offset="0.5382" style="stop-color:#CFB09B"/>
	<stop offset="0.7764" style="stop-color:#9C7464"/>
	<stop offset="0.8653" style="stop-color:#875B4E"/>
</radialGradient>
<path style="fill:url(#SVGID_5_2_);" d="M11.69,63.29c2.87,3.56,10.1,9.39,28.06-1.27c16.49-9.78,12.32-20.14,10.61-23.46  c-1.6-3.1-3.54-4.31-3.54-4.31s1.71-3.72-1.48-5.6c-3.62-2.13-5.53,1.3-5.53,1.3s-7.69-3.37-17.7,1.09  C9.25,36.78,8.69,46.72,8.69,46.72s-3.85-0.07-4.32,4.32c-0.56,5.24,4.69,6.01,4.69,6.01S9.34,60.37,11.69,63.29z"/>
<path style="fill:#E0DFE2;" d="M44.43,68.5c2.32-1.48,2.46-5.33,2.53-7.81c0.07-2.46-0.92-4.25-2.75-4.01  c-2.18,0.28-2.11,2.67-2.11,2.67s-1.41-2.89-3.8-1.83c-2.51,1.11-1.06,4.43-1.06,4.43s-2.98-2.18-4.08,0.92  c-0.56,1.58,1.27,4.29,4.01,5.84C39.92,70.26,44.43,68.5,44.43,68.5z"/>
<path style="fill:#FEFCFE;" d="M39.11,59.21c-0.54,0.24-0.63,1.41,0.28,3.17c0.81,1.55,1.79,1.9,2.32,1.55  c0.53-0.35,0.04-1.72-0.49-2.75C40.87,60.5,40.06,58.78,39.11,59.21z"/>
<path style="fill:#FEFCFE;" d="M43.23,60.65c0.03,0.81,0.11,2.39,1.09,2.43c0.99,0.04,0.88-1.97,0.88-2.46s-0.04-1.94-0.92-2.01  C43.4,58.54,43.19,59.66,43.23,60.65z"/>
<path style="fill:#FEFCFE;" d="M35.34,64.49c0.87,0.97,1.72,2.04,2.5,1.48s-0.53-1.97-0.92-2.5c-0.39-0.53-1.34-1.48-1.94-1.06  C34.39,62.83,34.75,63.82,35.34,64.49z"/>
<path style="fill:#875B4E;" d="M52.03,59.91c0,0,3.76-7.01,12.11-1.2c8.87,6.17,1.97,13.3-2.67,13.23s-7.95,0.42-10.56-0.42  s-5-3.38-5-3.38l-2.46,1.69c0,0,0.49,4.79-1.2,6.83C40.55,78.71,44,88.21,41.4,90.74s-6.97,4.29-9.71,3.03  c-2.75-1.27-5.7-5.84-6.26-9.92c-0.56-4.08,1.41-13.59,5.28-13.87c3.87-0.28,4.36,0.07,4.36,0.07s1.27-4.5,4.65-4.08  s4.79,1.97,4.79,1.97l0.92-0.77c0,0-1.2-1.9,1.27-4.15c2.46-2.25,5.28-0.35,5.28-0.35S52.03,60.54,52.03,59.91z"/>
<path style="fill:#6A493B;" d="M26.45,81.97c0.43,0.9,1.36-0.05,1.27-2.82s0.52-5.58,2.53-7.23c2.02-1.64,4.13-0.28,4.13-0.28  s-0.42,1.27,0.05,2.86s1.41,2.16,1.17,0.42c-0.23-1.74,0-8.73,4.46-8.02c4.46,0.7,3.53,6.44,1.69,8.96  c-1.27,1.74-3.38,1.45-3.38,1.74c0,0.28,1.69,5.58,1.88,8.31c0.19,2.72-0.05,6.34-3.05,6.76c-3,0.42-7.04-0.94-6.8,0  c0.23,0.94,5.82,4.41,10.51,1.88c4.98-2.69,3.57-9.39,3.38-10.65c-0.19-1.27-1.17-4.55-1.22-5.21c-0.01-0.09,1.97-1.81,2.44-4.04  c0.66-3.1,0.09-4.6,0.09-4.6s1.83,2.3,4.46,3.05c2.63,0.75,5.77-0.05,5.77-0.05s5.4,1.74,9.24-0.84c3.85-2.58,3.93-5.77,3.71-6.52  c-0.61-2.06-0.98,0.24-1.55,1.22c-0.84,1.45-2.86,3.38-6.19,3.89c-3.33,0.52-4.74-0.7-5.26-0.66s-3.28,1.55-6.19-0.47  c-3.68-2.55-2.7-5.88-0.84-6.38c1.55-0.42,4.3,0.47,5.4,2.06c1.03,1.5,1.88,3.85,2.21,3.33c0.33-0.52,0.05-2.82-1.08-4.32  c-1.13-1.5-2.39-1.97-2.44-2.58c-0.09-1.17,0.38-2.21,1.17-3.1s2.77-1.41,2.02-1.97c-0.75-0.56-3.28-0.19-4.41,1.55  c-1.13,1.74-0.56,3.14-0.56,3.14s-3.43-1.45-5.73,1.22c-1.82,2.12-1.08,4.5-1.08,4.5s-1.83-2.86-5.02-2.25  c-3.19,0.61-4.32,3.99-4.32,3.99s-3-1.27-5.73,0.56s-3.61,5.77-3.52,7.88C25.75,79.43,26.03,81.07,26.45,81.97z"/>
<path style="fill:#27282D;" d="M19.01,47.06c-2.46,0.43-2.39,2.67-2.36,3.45c0.04,0.77,0.81,2.15,2.71,2.01  c2.05-0.15,2.71-2.08,2.57-3.31S20.42,46.82,19.01,47.06z"/>
<path style="fill:#27282D;" d="M36.4,38.9c-1.21,1.01-1.09,2.89,0.14,3.98c1.17,1.03,3.31,1.05,4.19-0.53  c0.85-1.52,0.28-2.78-0.67-3.55S37.28,38.16,36.4,38.9z"/>
<path style="fill:#27282D;" d="M28.31,41.86c-2.33,1.12-1.6,3.43-1.79,5.21C26.3,49.04,25,49.46,25,51.15  c0,1.37,2.11,0.97,4.08,1.06c1.65,0.07,3.21,1.83,2.22,3.1c-0.63,0.81-1.74,0.55-2.36-0.04c-0.63-0.6-1.16-0.6-1.44-0.14  c-0.28,0.46,0.46,2.91,3.34,2.67c2.57-0.21,3.2-3.1,3.2-3.1s2.33,0.97,4.05-0.18c1.9-1.27,1.44-3.77,0.67-4.5s-1.38-0.25-1.41,0.04  c-0.07,0.63,0.35,0.81,0.42,1.34s-0.14,1.3-0.77,1.65c-0.55,0.3-1.34-0.11-1.65-0.6c-0.32-0.49-0.35-1.45-0.28-1.97  c0.21-1.55,3.83-3.7,2.96-5.17c-0.81-1.37-1.72,0.25-4.33-1.48C32.63,43.12,31.23,40.45,28.31,41.86z"/>
<g>
	<path style="fill:#E2E2E4;" d="M20.42,67.59c-0.04,0-0.09,0-0.14-0.01c-0.41-0.07-0.68-0.46-0.6-0.87c0-0.03,0.46-2.52,0.88-5.19   c0.42-2.72,0.98-4.81,1-4.9c0.11-0.4,0.52-0.64,0.92-0.53c0.4,0.11,0.64,0.52,0.53,0.92c-0.01,0.02-0.56,2.11-0.97,4.74   c-0.42,2.69-0.88,5.2-0.88,5.23C21.09,67.34,20.78,67.59,20.42,67.59z"/>
</g>
<g>
	<path style="fill:#E2E2E4;" d="M24.97,68.27c0,0-0.03,1.07-0.84,1c-0.86-0.07-0.66-1.11-0.66-1.11c0,0,0.25-3.51,0.35-5.44   c0.11-1.94,0.35-5.09,0.35-5.09s0.06-0.84,0.82-0.79c0.76,0.05,0.68,0.9,0.68,0.9c0,0-0.25,3.12-0.35,5.05   C25.22,64.74,24.97,68.27,24.97,68.27z"/>
</g>
<g>
	<path style="fill:#E2E2E4;" d="M27.6,67.07c-0.4,0-0.73-0.32-0.75-0.72c0,0-0.1-2.51-0.17-3.39c-0.07-0.9-0.07-4.62-0.07-4.78   c0-0.41,0.34-0.75,0.75-0.75s0.75,0.34,0.75,0.75c0,1.32,0.01,3.98,0.07,4.66c0.07,0.88,0.17,3.34,0.18,3.44   c0.02,0.41-0.3,0.76-0.72,0.78C27.62,67.07,27.61,67.07,27.6,67.07z"/>
</g>
<g>
	<path style="fill:#E2E2E4;" d="M48.61,54.22c-0.12,0-0.25-0.03-0.37-0.1c-0.02-0.01-2.4-1.34-3.98-2.13   c-1.56-0.78-3.9-1.61-3.93-1.62c-0.39-0.14-0.6-0.57-0.46-0.96c0.14-0.39,0.57-0.59,0.96-0.46c0.1,0.04,2.46,0.87,4.1,1.69   c1.62,0.81,3.94,2.11,4.04,2.16c0.36,0.2,0.49,0.66,0.29,1.02C49.13,54.08,48.88,54.22,48.61,54.22z"/>
</g>
<g>
	<path style="fill:#E2E2E4;" d="M50.09,51.16c-0.12,0-0.25-0.03-0.36-0.09c-0.02-0.01-2.34-1.29-4.17-2c-1.8-0.7-4.5-1.12-4.52-1.12   c-0.41-0.06-0.69-0.44-0.63-0.85c0.06-0.41,0.44-0.69,0.85-0.63c0.12,0.02,2.89,0.44,4.84,1.2c1.92,0.75,4.25,2.03,4.35,2.08   c0.36,0.2,0.49,0.66,0.29,1.02C50.61,51.02,50.35,51.16,50.09,51.16z"/>
</g>
<g>
	<path style="fill:#E2E2E4;" d="M49.71,46.37c-0.04,0-0.07,0-0.11-0.01c-0.03,0-2.57-0.39-4.12-0.56c-1.51-0.17-4.19-0.07-4.22-0.07   c-0.41,0.03-0.76-0.31-0.78-0.72c-0.02-0.41,0.31-0.76,0.72-0.78c0.11,0,2.82-0.11,4.44,0.07c1.58,0.18,4.08,0.55,4.18,0.57   c0.41,0.06,0.69,0.44,0.63,0.85C50.39,46.1,50.07,46.37,49.71,46.37z"/>
</g>
<linearGradient id="SVGID_5_3_" gradientUnits="userSpaceOnUse" x1="88.8577" y1="107.7013" x2="111.3488" y2="87.2183">
	<stop offset="0.208" style="stop-color:#875B4E"/>
	<stop offset="0.5788" style="stop-color:#765247"/>
	<stop offset="0.8883" style="stop-color:#6E4D44"/>
</linearGradient>
<path style="fill:url(#SVGID_5_3_);" d="M82.93,106.72c-0.14-3.17,0.42-6.26,0.84-7.81c1.12-4.12,2.11-6.62,4.36-7.95  c5.96-3.54,9.95-3.11,12.11-4.65c2.46-1.76,7.34-9.46,10.91-8.05c2.5,0.99,2.39,5.3,2.39,5.3s3.87,0.07,4.5,2.39  c0.63,2.32-0.84,4.72-0.84,4.72s2.96,1.46,3.19,3.45c0.23,2.06-0.66,4.27-5.44,5.82s-10.98,1.64-10.98,1.64s-1.4,8.34-11.05,10.84  C86.66,114.04,83.14,111.51,82.93,106.72z"/>
<path style="fill:#50362D;" d="M83.23,103.27c-0.42,0.19-2.34-9.08,3.61-13.19c4.83-3.33,9.71-2.58,12.44-4.74  c2.72-2.16,9.24-11.47,13.89-7.51c2.53,2.16,1.22,4.79,1.22,4.79s2.97-0.64,4.69,2.3c1.74,2.96-0.75,5.63-0.75,5.63  s2.96,0.99,3,3.28c0.05,2.3-0.89,4.65-3.47,5.82c-2.99,1.36-7.46,2.53-10,2.67c-2.53,0.14-5.44-0.61-3.28-0.94  c2.16-0.33,10.14-2.86,11.87-3.38c2.96-0.89,2.91-3.1,2.11-3.94c-1.16-1.23-2.25-0.94-5.73,0.09c-2.92,0.87-6.57,2.58-6.71,1.5  c-0.14-1.08,3.33-2.25,5.68-3.57c2.35-1.31,6.24-2.72,5.21-5.11c-1.03-2.39-3.28-1.92-5.82-0.38c-2.53,1.55-6.83,4.79-7.04,3.52  c-0.09-0.56,4.13-3.99,5.35-4.83c1.22-0.84,3.75-2.67,2.02-4.69s-4.08,0.28-5.82,1.88c-1.74,1.6-3.85,4.65-6.19,5.63  c-3.53,1.48-8.56,1.95-10.93,3.75C83.52,95.72,84.06,102.9,83.23,103.27z"/>
</g>
  <g transform="translate(96.21286236252212, 682.8698059628388) scale(1 1) translate(0, 0) scale(1.0 1.0) "><path style="fill:#AFAFAF;" d="M29.39,61.37c0,0,0.26-4.98-4.23-4.57c-4.52,0.41-2.88,6.55-2.88,6.55L29.39,61.37z"/>
<path style="fill:#171717;" d="M48.56,93.79l-5.99,0.7c0,0,0.3,12.08-0.5,13.38c-0.8,1.3-5.99,4.59-5.99,4.59s-0.5,1.8,2.3,2.8  c2.8,1,8.29,0.6,8.29,0.6l7.89-19.28L48.56,93.79z"/>
<path style="fill:#171717;" d="M91.91,94.69c-0.6,0.1-8.39,2.8-8.39,2.8s2.8,10.29,1.1,11.98s-4.79,3.1-2.9,4.39  c1.9,1.3,9.29,1.1,11.29-1s2.2-3.8,2.3-5.89c0.1-2.1-0.2-12.68-0.2-12.68L91.91,94.69z"/>
<path style="fill:#575A5B;" d="M46.84,100.06c0,0,0.82,9.89-0.22,11.24c-1.05,1.35-5.47,4.19-5.62,4.72  c-0.15,0.52-0.07,3.9,5.77,3.82s9.74-0.79,12.28-3.86c2.55-3.07,2.25-12.32,2.25-12.32s10.71-0.3,14.08-0.67s7.57-0.67,7.57-0.67  s1.12,4.64,0.52,6.37c-0.6,1.72-2.77,3.22-2.17,3.82c0.6,0.6,3.52-0.22,4.34-2.47c0.82-2.25,0.15-8.16,0.15-8.16  s4.72-0.67,7.64-1.27c2.92-0.6,4.42-0.82,4.42-0.82s1.2,6.89,0.75,9.06c-0.45,2.17-5.84,7.19-3.9,7.64c1.95,0.45,5.58,1.16,9.14,0.3  c2.81-0.68,5.33-3.36,5.58-5.02c0.11-0.75,0.2-2.24,0.22-3.63c0.04-2.1-0.41-17.19-0.41-17.19l-53.71-23l-7.72-1.27  c0,0-2.4-1.05-4.19-1.87c-1.8-0.82-3.97-1.42-3.97-1.42s0-5.02-2.4-5.24c-2.4-0.22-3.97,2.85-3.97,2.85l-6.44,1.27L16.05,67.4  l-4.49,8.16l-4.34,0.52c0,0-5.84,0.94-6.52,3.67c-0.61,2.49,0.97,3.3,0.97,3.3s0.11,1.61,0.79,2.66s1.84,1.24,1.84,1.24  s1.07,1.74,2.4,2.32c2.92,1.27,5.18,0.67,8.24,0.45c3.15-0.22,6.97-0.52,6.97-0.52s6.89,3,11.09,4.72s8.69,3.82,8.69,3.82  s0.07,7.72-0.52,9.89c-0.6,2.17-5.84,3.67-5.69,4.79c0.15,1.12,2.85-0.07,4.49-0.97s2.77-2.25,3.15-3.52  c0.37-1.27,0.45-9.66,0.45-9.66L46.84,100.06z"/>
<path style="fill:#DFDFDF;" d="M113.28,88.55l-2,5.37c0,0,1.37,2.8,3.65,4.94c2,1.89,3.29,2.73,5.39,2.7  c3.1-0.05,8.24-3.82,6.97-5.32c-1.04-1.22-4.94-4.54-4.94-4.54L113.28,88.55z"/>
<path style="fill:#AFAFAF;" d="M81.15,56.77c15.43,0.75,24.42,7.72,27.57,14.31c3.15,6.59,4.27,9.89,5.32,11.54  s9.44,10.04,9.44,10.04s-1.91,1.89-5.92,2.55c-3.22,0.52-5.62-0.15-5.62-0.15s-0.62-0.84-1.12-1.6c-0.35-0.52-0.9-1.25-1.87-0.6  c-1.26,0.84-4.19,5.34-9.21,5.64c-6.03,0.36-11.76-1.8-11.76-1.8s0.22,2.77-0.37,2.92c-0.6,0.15-4.83-1.39-6.59-2.36  c-1.45-0.8-4.87-3.18-4.87-3.18s1.65,5.24,1.2,5.77c-0.45,0.52-3.71-0.45-5.92-2.25c-1.49-1.21-7.42-6.37-7.42-6.37  s1.8,5.47,1.35,6.07c-0.45,0.6-4.51-1.2-7.34-4.72c-3.07-3.82-4.79-7.79-5.99-13.63c-1.12-5.48-1.57-7.42-2.25-9.36  s-1.95-2.92-1.95-2.92s3.45,0.15,4.72-0.52C53.8,65.46,67.36,56.09,81.15,56.77z"/>
<path style="fill:#DFDFDF;" d="M49.31,84.78c-0.07,0.6-12.16,0.52-15.46,0.67c-3.3,0.15-10.76,2.02-13.83,2.4  c-3.07,0.37-8.16,1.35-10.56,0.97c-2.4-0.37-2.62-0.97-2.55-1.35c0.07-0.37,2.92,0.04,3.52-0.82c0.6-0.86-0.04-1.8-0.9-1.31  s-2.72,0.79-3.92,0.64s-1.92-1.2-1.92-1.84s1.8-0.84,2.52-1.56c0.96-0.96,1.52-2.2,1.37-4.32c-0.1-1.4-0.55-2.05-0.27-2.2  c0.4-0.22,1.45-0.3,2.37-2.67c0.75-1.92,2.27-5.48,5.12-7.62c3.21-2.41,5.94-3.94,11.14-4.72c5.09-0.76,5.51-0.36,5.51-0.36  s1.65-4.72,6.22-3.9s3.11,6.88,3.11,6.88l-2.05-0.32c0,0,0.59-3.07-1.59-3.45c-2.17-0.37-3.11,2.51-3.11,2.51s-8.01,0.79-11.27,2.73  c-3.6,2.15-11.24,8.54-9.14,13.15s11.87,0.07,13.56-1.05c1.69-1.12,6.69-4.7,9.7-3.96c3,0.74,3.98,3.07,6.77,5.52  C45.3,80.27,49.42,83.81,49.31,84.78z"/>
<path style="fill:#191919;" d="M24.07,74.78c-0.64,1.69-2.1,2.43-3.9,1.98c-1.55-0.39-2.4-3.07-1.35-5.02  c0.94-1.75,2.77-1.84,4.12-1.35C24.44,70.94,24.76,72.96,24.07,74.78z"/>
<path style="fill:#E1E1E1;" d="M21.43,73.24C21,74.03,20,74.58,19.31,73.96c-0.49-0.44-0.28-1.52,0.34-2.47  c0.62-0.95,1.69-1.17,2.06-0.7C22.19,71.41,21.84,72.5,21.43,73.24z"/>
<path style="fill:#DFDFDF;" d="M33.73,113.02c0.09,0.9,3.33,1.31,3.18-0.45C36.76,110.81,33.62,111.93,33.73,113.02z"/>
<path style="fill:#DFDFDF;" d="M35.64,115.83c0.44,0.86,4.04,0.04,3.18-1.72C37.96,112.35,35.04,114.67,35.64,115.83z"/>
<path style="fill:#DFDFDF;" d="M39.09,118.04c0.36,0.87,4.42-0.49,3.67-1.8S38.41,116.43,39.09,118.04z"/>
<path style="fill:#DFDFDF;" d="M40.81,120.17c0.61,1.03,4.79-0.71,3.56-2.1S40.17,119.09,40.81,120.17z"/>
<path style="fill:#E0E0E0;" d="M79.46,113.66c0.29,0.79,3.33,0.04,3-1.05S79.16,112.83,79.46,113.66z"/>
<path style="fill:#E0E0E0;" d="M82.04,115.53c0.59,0.44,3.41-1.35,2.1-2.06C82.83,112.76,81.15,114.86,82.04,115.53z"/>
<path style="fill:#E0E0E0;" d="M85.04,116.05c1.22,0.37,3.41-1.91,1.87-2.36C85.38,113.24,84.18,115.79,85.04,116.05z"/>
<path style="fill:#E0E0E0;" d="M95.9,114.97c-0.87-0.73-3.6,0.86-2.77,1.95C93.95,118,97.06,115.94,95.9,114.97z"/>
<path style="fill:#E0E0E0;" d="M95.85,118.65c1.29,0.7,3.79-2.54,2.35-2.97C96.76,115.26,94.82,118.09,95.85,118.65z"/>
<path style="fill:#E0E0E0;" d="M101.11,116.02c-1.6-0.23-3.52,2.73-1.8,2.85S102.64,116.24,101.11,116.02z"/>
<g>
	<path style="fill:#999999;" d="M65.79,84.95c-0.31,0-0.63-0.14-0.84-0.41l-2.25-2.85c-0.36-0.46-0.29-1.13,0.18-1.49   c0.46-0.36,1.13-0.28,1.49,0.18l2.25,2.85c0.36,0.46,0.28,1.13-0.18,1.49C66.25,84.87,66.02,84.95,65.79,84.95z"/>
</g>
<g>
	<path style="fill:#999999;" d="M77.77,86.22c-0.24,0-0.48-0.08-0.67-0.24l-3.75-3.07c-0.46-0.37-0.52-1.04-0.15-1.5   c0.37-0.45,1.04-0.52,1.5-0.15l3.75,3.07c0.46,0.37,0.52,1.04,0.15,1.5C78.39,86.09,78.08,86.22,77.77,86.22z"/>
</g>
<g>
	<path style="fill:#999999;" d="M82.12,76.78c-0.21,0-0.42-0.06-0.61-0.19l-3.75-2.62c-0.48-0.34-0.6-1-0.26-1.48   c0.34-0.48,1-0.6,1.48-0.26l3.75,2.62c0.48,0.34,0.6,1,0.26,1.48C82.78,76.62,82.45,76.78,82.12,76.78z"/>
</g>
<g>
	<path style="fill:#999999;" d="M93.5,73.61c-0.22,0-0.44-0.07-0.62-0.2l-3.82-2.77c-0.48-0.35-0.58-1.01-0.24-1.49   c0.34-0.48,1.01-0.58,1.49-0.24l3.82,2.77c0.48,0.35,0.58,1.01,0.24,1.49C94.16,73.46,93.83,73.61,93.5,73.61z"/>
</g>
<g>
	<path style="fill:#999999;" d="M95.6,83.22c-0.17,0-0.34-0.04-0.5-0.12l-3.37-1.8c-0.52-0.28-0.71-0.92-0.44-1.44   c0.28-0.52,0.92-0.71,1.44-0.44l3.37,1.8c0.52,0.28,0.71,0.92,0.44,1.44C96.35,83.02,95.98,83.22,95.6,83.22z"/>
</g>
<g>
	<path style="fill:#999999;" d="M105.02,76.66c-0.17-0.02-0.33-0.08-0.48-0.19l-3.11-2.21c-0.48-0.34-0.59-1.01-0.25-1.48   c0.34-0.48,1-0.59,1.48-0.25l3.11,2.21c0.48,0.34,0.59,1.01,0.25,1.48C105.79,76.55,105.4,76.71,105.02,76.66z"/>
</g>
</g>
  <g transform="translate(25.17800769180161, 523.3229101434589) scale(1 1) translate(0, 0) scale(1.0 1.0) "><g>
	<path style="fill:#CAD8DD;" d="M103.24,43.26c0.09-1.8-1.64-10.16-8.63-13.52c-1.86-0.9-6.69-1.38-5.59,3.66   c1.03,4.69,1.58,11.9,1.04,16.51c-0.54,4.55-2.62,9.92-8.01,12.19c-4.68,1.97-10.02,1.21-13.93-2.13   c-5.2-4.45-6.81-11.47-6.87-18.05c-0.17-17.75-3.71-26.95-17.99-30.12c-4.2-0.93-9.37-0.8-13.66,0.52   c-5.26,1.55-12.49,4.49-19.14,16.02c-6.68,11.57-7.84,27.11-5.72,40c7.16,43.53,42.02,54.32,67.34,46.64   c28.11-8.52,35.96-32.27,38.37-46.49c1.32-7.76,2.4-15.1,7.17-21.71c2.94-4.07,8.98-8.93,5.01-11.53   C114.83,30.15,105.24,38.84,103.24,43.26z"/>
	<g>
		<circle style="fill:#212121;" cx="28.8" cy="22.66" r="3.29"/>
		<circle style="fill:#212121;" cx="50.08" cy="27.46" r="3.29"/>
	</g>
	<g>
		<path style="fill:#212121;" d="M42,31.69c-0.26,1.15-3,2.11-4.45,1.78c-1.45-0.33-3.52-2.37-3.26-3.52c0.26-1.15,2.15-1.48,4.27-1    C40.69,29.43,42.26,30.53,42,31.69z"/>
		<path style="fill:#212121;" d="M45.28,39c-0.31,0.14-1.94,1.02-4.03,0.27c-2.2-0.79-2.51-2.01-2.84-2.88    c-0.46-1.21,0.38-4.41,0.38-4.41l-0.85-0.23l-0.87-0.16c0,0-0.62,3.25-1.55,4.15c-0.67,0.64-1.47,1.61-3.8,1.39    c-2.21-0.22-3.31-1.71-3.53-1.97c-0.22-0.26-0.97-0.37-0.71,0.52c0.27,0.94,1.21,2.56,4.07,3.21c2.47,0.56,4.51-0.7,5.02-1.06    c0.31,0.54,1.61,2.55,4.08,3.11c2.86,0.65,4.41-0.42,5.05-1.15C46.31,39.08,45.59,38.85,45.28,39z"/>
	</g>
	<g>
		<g>
			<g>
				<path style="fill:#212121;" d="M15.15,29.71c0.68-0.93,1.72-1.59,2.83-1.97c1.11-0.39,2.3-0.52,3.46-0.49      c1.16,0.04,2.31,0.24,3.41,0.59c1.09,0.35,2.18,0.83,3.03,1.61c-1.06-0.42-2.14-0.65-3.22-0.85c-1.08-0.19-2.17-0.33-3.26-0.35      C19.24,28.18,17.08,28.47,15.15,29.71z"/>
			</g>
			<g>
				<path style="fill:#212121;" d="M13.38,36.06c1.21-2.33,3.4-4.21,5.98-5.07c1.29-0.42,2.67-0.59,4.01-0.44      c1.34,0.13,2.63,0.58,3.76,1.25c-2.55-0.63-5.1-0.67-7.46,0.13C17.31,32.71,15.23,34.21,13.38,36.06z"/>
			</g>
			<g>
				<path style="fill:#212121;" d="M16.87,39.1c0.21-0.96,0.68-1.86,1.27-2.67c0.6-0.81,1.36-1.49,2.23-2.03      c0.43-0.27,0.91-0.46,1.37-0.66c0.49-0.13,0.97-0.3,1.48-0.33c1-0.15,2.01-0.01,2.95,0.26c-0.98,0.14-1.91,0.23-2.79,0.5      c-0.89,0.24-1.72,0.6-2.49,1.08C19.32,36.19,18.04,37.54,16.87,39.1z"/>
			</g>
		</g>
		<g>
			<g>
				<path style="fill:#212121;" d="M59.39,39.68c-1.21-1.95-3.04-3.13-5.02-4.01c-0.99-0.45-2.03-0.78-3.09-1.08      c-1.07-0.28-2.14-0.53-3.27-0.61c1.1-0.34,2.29-0.31,3.43-0.16c1.14,0.15,2.27,0.47,3.34,0.93c1.06,0.48,2.08,1.1,2.91,1.93      C58.51,37.5,59.17,38.55,59.39,39.68z"/>
			</g>
			<g>
				<path style="fill:#212121;" d="M58.08,46.4c-0.73-2.51-1.83-4.82-3.54-6.64c-1.68-1.84-3.94-3.03-6.48-3.7      c1.31-0.05,2.66,0.18,3.9,0.71c1.25,0.51,2.38,1.32,3.31,2.31C57.12,41.08,58.14,43.77,58.08,46.4z"/>
			</g>
			<g>
				<path style="fill:#212121;" d="M53.32,47.21c-0.39-1.91-0.97-3.68-1.99-5.19c-0.49-0.76-1.09-1.45-1.79-2.05      c-0.68-0.63-1.48-1.11-2.31-1.65c0.96,0.15,1.94,0.46,2.77,1.03c0.45,0.24,0.81,0.61,1.2,0.94c0.34,0.38,0.69,0.75,0.96,1.19      c0.55,0.85,0.95,1.8,1.14,2.79C53.5,45.23,53.54,46.24,53.32,47.21z"/>
			</g>
		</g>
	</g>
	<g>
		<path style="fill:#A8BAC1;" d="M32.25,17.35c-0.16,0.49-0.13,1.06,0.16,1.48c0.36,0.53,1.07,0.75,1.7,0.66    c1.44-0.2,3.65-2.1,2.19-3.53C34.96,14.66,32.76,15.79,32.25,17.35z"/>
		<path style="fill:#A8BAC1;" d="M49.24,21.18c-0.07,0.51-0.34,1.01-0.78,1.27c-0.55,0.32-1.28,0.22-1.82-0.13    c-1.22-0.79-2.4-3.47-0.46-4.13C47.95,17.59,49.45,19.55,49.24,21.18z"/>
	</g>
	
		<radialGradient id="SVGID_7_1_" cx="34.7393" cy="55.447" r="137.2468" gradientTransform="matrix(0.9434 0.3318 -0.2479 0.7049 15.715 4.8349)" gradientUnits="userSpaceOnUse">
		<stop offset="0.0874" style="stop-color:#CFD8DC;stop-opacity:0"/>
		<stop offset="0.9587" style="stop-color:#6899AD"/>
	</radialGradient>
	<path style="fill:url(#SVGID_7_1_);" d="M98.67,74.14c-4.57,3.46-20.06,12.28-37.69-6.09c-6.81-7.1-12.94-11.54-24.31-8.97   C22.94,62.19,20,70.34,17.64,76.91c-2.73,7.63-2.73,12.15-1.57,17.52c11.42,21.72,37.4,26.2,56.01,20.56   c28.11-8.52,35.96-32.27,38.37-46.49c0.81-4.78,1.54-9.41,3.09-13.8c0.13-0.61,0.31-1.2,0.54-1.77   C113.61,53.44,107.59,67.38,98.67,74.14z"/>
	<path style="fill:#78909C;" d="M111.15,35.53c-3.21,1.69-5.85,4.37-7.23,6.51C99.17,26.88,91.56,28.99,90.7,29.29   c-0.97,0.35-1.55,1-1.76,1.93c1-0.94,4.31-2.02,8.15,2.16c2,2.42,3.28,6.63,3.5,9.66c0.61,8.07-1.99,13.33-3.45,15.6   c-0.28,0.43,0.38,1.05,0.89,0.67c1.53-1.14,3.25-3.79,4.58-7.8c1.44-4.33,3.35-11.04,10.81-14.49c3.68-1.7,6.75-1.75,8.59-1.14   c1.4,0.47,1.93,1.51,1.93,1.51c0-1.08-0.61-2.2-1.65-2.8C121.64,34.21,117.72,32.05,111.15,35.53z"/>
	<path style="fill:#CAD8DD;" d="M58.08,56.22c2.91,11.84-1.18,15.31-1.26,26.46c-0.07,8.86,2.78,17.83,9.51,15.79   c5.03-1.52,12.49-21.04,8.83-30.88"/>
	<path style="fill:#728E9C;" d="M59.6,58.07c1.93,9.91-2.12,18.1-1.21,28.44c0.71,8.7,4.35,10.72,5.96,10.8   c1.74,0.23,3.1-1.2,4.14-2.76c1.19-1.78,2.65-4.25,3.91-7.3c2.93-7.35,3.35-16,2.89-19.07c-0.22-0.95,0.56-1.04,0.84-0.17   c0.29,0.9,0.84,3.45,0.48,9.79c-0.25,3.47-0.95,6.91-2.03,10.23c-0.53,1.66-2.14,6.13-4.79,9.53c-0.61,0.73-1.95,2.92-5.54,2.65   c-1.08-0.03-7.58-0.97-8.66-13.42c-0.13-1.77-0.39-5.97,0.58-10.51c0.6-3.46,1.69-6.68,2.12-9.97c0.42-2.68,0.12-5.41,0.03-8.19   C58.28,57.08,59.35,56.8,59.6,58.07z"/>
	<path style="fill:#CAD8DD;" d="M18.31,65.27c2.89,10.91,23.71,14.25,28.76,32.13c1.54,5.46-2.37,7.48-5.89,7.48   c-19.2,0-28.96-15.8-28.96-15.8"/>
	<path style="fill:#728E9C;" d="M19.17,67.08c1.78,2.45,3.99,4.53,6.45,6.25c3.03,2.12,6.27,4.01,9.35,6.23   c3.11,2.18,6.05,4.73,8.51,7.79c5.21,7.59,5.62,12.33,5.2,14.01c-0.28,1.18-0.98,2.32-1.91,3.1c-1.66,1.32-4.26,1.94-6.25,1.81   c-3.89-0.13-7.78-0.91-11.36-2.38c-3.6-1.44-6.89-3.55-9.76-6.06c-2-1.79-3.51-3.4-4.94-5.65c-0.77-1.22-1.21-2.65-0.13-1.43   c6.66,7.58,12.22,9.8,15.64,10.96c3.43,1.12,7,1.79,10.6,1.74c0.47,0,3.12-0.15,4.3-1.19c0.99-0.85,1.26-2.2,0.94-3.77   c-0.98-4.14-3.89-11.05-12.99-17.64C29.08,78.15,20,72,18.31,67.34C17.92,66.26,18.69,66.41,19.17,67.08z"/>
</g>
</g>
  <g transform="translate(25.17800769180161, 348.6770898565412) scale(1 1) translate(0, 0) scale(1.0 1.0) "><path style="fill:#855B52;" d="M63.29,9.93c14.92,0.22,16.4,3.61,20.77,3.73c6.32,0.18,15.98-11.97,29.07-0.99  c12.9,10.82,2.39,27.8,2.39,27.8s7.18,12.72,8.02,32.1c0.61,14.03-4.79,31.49-29,41.39c-22.29,9.12-55.55,7.3-75.88-8.31  C2.9,93.56,4.01,75.92,4.44,69.91c1.13-15.77,8.02-28.44,8.02-28.44s-10.19-20.15,2.25-29.7c13.66-10.49,23.38,1.86,29,1.41  C47.8,12.84,49.14,9.72,63.29,9.93z"/>
<path style="fill:#B99277;" d="M35.98,20.77c-0.19-1.11-7.43-8.29-14.92-0.99c-5.77,5.63,0,15.42,0.99,14.64  c0.76-0.6,3.56-4.21,6.83-7.32C32.23,23.91,36.05,21.2,35.98,20.77z"/>
<path style="fill:#B99277;" d="M92.5,20.84c-0.05,0.62,3.81,2.95,7.32,6.26c3.55,3.35,6.75,7.67,7.32,7.6  c1.13-0.14,5.98-9.64-0.35-14.99S92.64,19.01,92.5,20.84z"/>
<path style="fill:#F2A258;" d="M64.51,60.38c14.64,0,23.42,16.52,22.9,26.84c-0.47,9.39-5.82,17.18-23.84,17.08  c-18.02-0.09-22.59-8.36-22.9-17.18C40.39,79.24,46.02,60.38,64.51,60.38z"/>
<path style="fill:#171716;" d="M92.92,59.7c0.33,4.16-1.9,7.95-6.17,7.63c-4.12-0.32-7.13-3.66-7.13-7.84s2.22-7.14,5.56-7.6  C89.26,51.32,92.45,53.79,92.92,59.7z"/>
<path style="fill:#2F3030;" d="M74.55,76.99c-0.34,4.16-3.1,8.61-11.12,8.33c-6.73-0.24-9.9-4.72-10-8.89  c-0.14-5.89,3-8.06,10.61-8.17C72.72,68.15,75.02,71.27,74.55,76.99z"/>
<path style="fill:#171716;" d="M48.37,61.25c-0.43,4.15-4.33,7.06-7.98,6.17c-4.01-0.98-5.81-5.2-4.97-9.29  c0.75-3.66,3.96-6.51,7.6-6.1C46.82,52.45,48.91,56.02,48.37,61.25z"/>
<path style="fill:#2F3030;" d="M63.99,95.04c5.49,0,8.49-3.03,9.34-3.87s1.99-2.28,3.75-0.84c1.5,1.22,0.02,3.12-0.66,3.85  c-1.22,1.31-4.9,5.31-12.93,4.95c-7.88-0.35-10.91-3.92-11.76-4.76c-0.84-0.84-2.25-3-0.66-4.22c1.91-1.46,2.53,0.19,4.5,1.78  S58.78,95.04,63.99,95.04z"/>
</g>
  <g transform="translate(96.212862362522, 189.13019403716132) scale(1 1) translate(0, 0) scale(1.0 1.0) "><g>
	<g>
		<g>
			<g>
				<path style="fill:#FFFFFF;stroke:#91BDCE;stroke-width:3;stroke-miterlimit:10;" d="M110.2,54.68c0,0,10.58-5.06,13.09-15.84      c2.52-10.79-5.53-17.56-13.56-14.48C100.5,27.89,95.6,35.8,95.6,35.8L110.2,54.68z"/>
				<path style="fill:#91BDCE;" d="M106.34,52.66c0,0,6.8-11.71,8.39-15.67c1.16-2.88,0.67-4.21-2.81-2.84      c-6.06,2.39-14.49,5.88-14.49,5.88L106.34,52.66z"/>
			</g>
		</g>
		<g>
			<g>
				<path style="fill:#FFFFFF;stroke:#91BDCE;stroke-width:3;stroke-miterlimit:10;" d="M17.8,54.68c0,0-10.58-5.06-13.09-15.84      s5.53-17.56,13.56-14.48C27.5,27.89,32.4,35.8,32.4,35.8L17.8,54.68z"/>
				<path style="fill:#91BDCE;" d="M21.66,52.66c0,0-6.8-11.71-8.39-15.67c-1.16-2.88-0.67-4.21,2.81-2.84      c6.06,2.39,14.49,5.88,14.49,5.88L21.66,52.66z"/>
			</g>
		</g>
	</g>
	<path style="fill:#FFFFFF;stroke:#91BDCE;stroke-width:3;stroke-miterlimit:10;" d="M116.75,63.09   c-4.75-18.3-15.1-31.76-28.67-38.59c-7.73-3.89-13.54-2.45-18-0.54c-2.45,1.05-4.56,1.31-6.26,1.31s-3.62-0.27-6.07-1.31   c-4.46-1.91-10.27-3.36-18,0.54c-13.57,6.84-23.92,20.29-28.67,38.59c-4.8,18.51,2.36,25.76,8.28,31.64   c8.61,8.54,27.26,11.43,44.56,11.22c17.3,0.21,35.95-2.68,44.56-11.22C114.39,88.85,121.55,81.6,116.75,63.09z"/>
	<path style="fill:#CFD8DC;" d="M83.94,58.62C78.38,44.59,67.83,42.86,64,42.86s-14.38,1.73-19.94,15.76   c-2.97,7.5-4.87,13.28-3.65,19.09c2.42,11.57,11.9,17,23.6,17s21.18-5.44,23.6-17C88.81,71.9,86.92,66.12,83.94,58.62z"/>
	<path style="fill:#231F20;" d="M75.42,75.07c-1.19-0.9-3.34-2.1-6.15-3.14c-1.64-0.61-2.85-2-2.77-3.74   c0.09-1.93,0.16-4.02,0.06-4.24c-0.24-0.53-1.71-0.91-2.44-0.85c-0.04,0-0.08,0-0.12,0c-0.04,0-0.08,0-0.12,0   c-0.73-0.06-2.21,0.32-2.44,0.85c-0.08,0.19-0.04,1.79,0.03,3.47c0.09,2.1-1.28,3.87-3.23,4.65c-2.52,1-4.54,2.16-5.65,3.01   c-0.68,0.51-1.22,1.5-0.89,2.39c0.43,1.14,2.34,0.98,3.42,0.49c2.9-1.32,5.57-2.01,8.88-2.01c3.32,0,5.98,0.69,8.88,2.01   c1.08,0.49,2.99,0.65,3.42-0.49C76.64,76.57,76.1,75.58,75.42,75.07z"/>
	<g>
		<path style="fill:#231F20;" d="M70.56,52.25c-2.97-1.87-9.55-1.79-13.36,0c-1.82,0.85-5.98,5.12-4.8,9.68    c0.51,1.98,1.92,3.57,3.39,4.46c1.81,1.09,7.5,2.5,8.09,2.49c0.59,0.01,6.53-1.65,8.34-2.74c1.47-0.89,2.88-2.48,3.39-4.46    C76.8,57.13,72.26,53.32,70.56,52.25z"/>
	</g>
	<g>
		<g>
			<circle style="fill:#231F20;" cx="87.28" cy="47.24" r="4.42"/>
		</g>
		<g>
			<circle style="fill:#231F20;" cx="40.72" cy="47.24" r="4.42"/>
		</g>
	</g>
</g>
</g>
  <g transform="translate(225.99999999999977, 72.26933041053587) scale(1 1) translate(0, 0) scale(1.0 1.0) "><path style="fill:#4D4D4D;" d="M63.99,16.83c-11.4-0.29-20.55,4.65-20.55,4.65S31.82,4.11,15.42,16.41  c-16.89,12.67-0.99,30.83-0.99,30.83S2.91,61.36,3.88,79.34c1.04,19.28,11.26,42.02,61.38,41.18c50.12-0.84,58.82-22.74,58.71-41.74  c-0.11-18.3-8.73-29-8.73-29s15.63-17.03,2.53-30.41s-28.02,4.65-28.02,4.65S80.46,17.25,63.99,16.83z"/>
<path style="fill:#FFFFFF;" d="M63.47,20.51c-9.45,0-21.02,1.95-36.64,17.15S3.74,70.75,8.39,88.21s18.72,29.42,56.73,29  s50.64-11.66,54.76-30.97c1.54-7.22,0.98-19.73-5.35-31.53C106.23,39.22,87.57,20.51,63.47,20.51z"/>
<path style="fill:#4D4D4D;" d="M53.53,49.87c-7.77-4.74-15.86,0.28-21.96,8.54c-5.32,7.2-10.72,9.56-11.17,17.08  c-0.38,6.29,4.32,15.3,14.08,15.3c8.92,0,10.89-8.45,15.02-14.17C53.62,70.89,65.15,56.96,53.53,49.87z"/>
<path style="fill:#4D4D4D;" d="M72.49,51.56c-5.06,4.6-4.04,12.2-0.28,16.99s6.09,7.46,7.7,10.42c2.11,3.89,9.61,18.31,21.68,8.82  c12.29-9.67,3.03-21.47,0.19-24.4c-1.11-1.14-11.12-11.64-13.05-13.23C86.24,48.09,79.71,44.99,72.49,51.56z"/>
<path style="fill:#040301;" d="M93.6,67.04c0.32,4.99-1.41,9.29-5.82,9.67c-4.29,0.36-8.16-3.41-8.92-8.35  c-0.75-4.94,1.6-9.01,6.29-9.2C89.46,58.99,93.23,61.22,93.6,67.04z"/>
<path style="fill:#040301;" d="M47.05,73.14c-2.36,3.51-7.43,4.3-11.17,1.5c-2.63-1.97-3.22-7.63-0.84-11.73  c2.51-4.33,7.62-4.94,11.43-2.24C49.49,62.82,50.34,68.26,47.05,73.14z"/>
<path style="fill:#E0E0E0;" d="M81.31,63.48c-1.07,2.6-0.38,6.01,1.6,5.91c2.53-0.12,1.69-2.25,2.53-3.28  c0.84-1.03,2.35-3.19,0.75-4.41C84.18,60.15,81.97,61.88,81.31,63.48z"/>
<path style="fill:#E0E0E0;" d="M37.2,62.91c-1.77,2.8-1.39,5.24-0.38,6.1c1.55,1.31,3.43-0.52,4.65-2.77  c1.22-2.25,2.77-4.18,0.89-5.58C41.03,59.67,38.32,61.13,37.2,62.91z"/>
<path style="fill:#030200;" d="M63.67,81.4c-5.63,0.07-12.29,3.85-12.39,5.73c-0.09,1.88,2.82,4.04,4.79,5.54  c1.47,1.12,4.69,2.91,4.41,3.85c-0.28,0.94-2.45,1.99-4.79,2.25c-3.1,0.35-7.17-2.39-8.17-3.1c-1.2-0.84-3.94,0.35-2.67,2.82  c1.26,2.45,3.71,4.06,6.34,4.72c2.84,0.71,4.41,0.54,4.41,0.54s2.74,3.9,7.88,4.32c5.82,0.47,8.63-4.69,8.63-4.69  s3.53,0.55,5.82-0.28c3.1-1.13,4.29-3.12,5.07-4.69c0.9-1.83-0.33-4.42-3.28-2.53c-2.35,1.5-3.47,3.19-8.12,2.98  c-2.88-0.13-4.08-1.95-4.08-2.7s3.47-2.82,5.54-4.32c2.08-1.52,3.66-3.19,3.75-4.6C76.9,85.81,71.08,81.31,63.67,81.4z"/>
<path style="fill:#FDA4A5;" d="M63.99,99.4c0,0-1.36,1.71-1.92,2.09c-0.56,0.38-2.44,1.43-2.44,1.43s1.44,1.61,3.31,1.83  c3.59,0.42,5.07-1.62,5.07-1.62s-0.82-0.66-1.76-1.34C65.39,101.17,63.99,99.4,63.99,99.4z"/>
</g>
  <g transform="translate(392.09804542758525, 18.300803945325242) scale(1 1) translate(0, 0) scale(1.0 1.0) "><g>
	<path style="fill:#888071;" d="M19.7,45.67c-0.04,0-0.08,0-0.12-0.01c-0.06-0.01-1.56-0.18-4.11-0.64   c-2.78-0.51-4.61-0.72-4.63-0.72c-0.6-0.07-1.04-0.61-0.97-1.22c0.07-0.6,0.62-1.04,1.22-0.97c0.08,0.01,1.92,0.22,4.78,0.74   c2.47,0.45,3.95,0.62,3.96,0.62c0.6,0.07,1.04,0.61,0.97,1.22C20.73,45.25,20.25,45.67,19.7,45.67z"/>
</g>
<g>
	<path style="fill:#888071;" d="M10.78,50.08c-0.55,0-1.03-0.41-1.09-0.97c-0.07-0.6,0.36-1.15,0.97-1.22   c0.03,0,2.81-0.33,4.22-0.56c1.46-0.23,4.74-0.75,4.74-0.75l0.34,2.17c0,0-3.28,0.52-4.73,0.75c-1.46,0.24-4.2,0.56-4.32,0.57   C10.86,50.07,10.82,50.08,10.78,50.08z"/>
</g>
<g>
	<path style="fill:#888071;" d="M12.51,54.68c-0.48,0-0.92-0.31-1.06-0.8c-0.17-0.58,0.17-1.19,0.76-1.36l7.88-2.25   c0.59-0.16,1.19,0.17,1.36,0.76c0.17,0.58-0.17,1.19-0.76,1.36l-7.88,2.25C12.72,54.66,12.61,54.68,12.51,54.68z"/>
</g>
<path style="fill:#B85C3E;" d="M53.29,84.41l-10.84,8.31c0,0,0.42,17.32,0.14,18.02c-0.28,0.7-4.08,5.07-3.66,7.6  c0.33,1.97,1.83,2.67,5.91,2.82s12.39-1.69,12.39-1.69L53.29,84.41z"/>
<path style="fill:#B85C3E;" d="M85.11,91.02l-8.02,4.5c0,0,1.13,3.38,1.13,8.17s-0.42,7.79-0.7,8.78c-0.28,0.99-2.63,2.86-2.39,5.58  c0.11,1.26,1.69,2.25,4.5,2.11s6.9-0.42,6.9-0.42l4.08-26.61L85.11,91.02z"/>
<path style="fill:#FB8B02;" d="M33.26,27.81c0,0-1.31-4.6-0.19-11.92c1.13-7.32,3-11.17,4.79-11.36c1.78-0.19,5.16,3.19,7.79,7.23  c2.63,4.04,4.79,11.17,4.79,11.17L33.26,27.81z"/>
<path style="fill:#FB8B02;" d="M63.85,97.26c0,0,0.09,8.45,0.28,12.2c0.19,3.75,0.01,12.08-0.75,13c-1.17,1.41-2.35,1.45-4.88,1.55  c-1.51,0.06,0.47-9.29,0.47-9.67s0.09-22.81,0.09-22.81L63.85,97.26z"/>
<path style="fill:#FFB800;" d="M38.79,68.08c0,0-2.25,7.13-1.69,12.48c0.56,5.35,3.66,12.11,6.76,14.83s5.91,4.13,6.19,4.79  c0.28,0.66,1.41,9.95,1.03,11.92s-3.1,7.04-2.63,9.01c0.47,1.97,2.33,3.21,7.13,3.1c6.24-0.14,5.91-1.08,6.38-4.97  c0.32-2.62-0.09-20.74-0.09-20.74s3.85,0.38,9.29,0c5.44-0.38,12.2-2.82,12.2-2.82s3.85,12.01,2.53,15.67  c-1.31,3.66-3.47,5.73-3.1,8.26c0.38,2.53,3.66,3.66,7.7,3.28c4.04-0.38,7.13-3,7.32-6.48c0.19-3.47,0.09-22.71,0.66-24.21  c0.56-1.5,2.63-6.66,2.44-11.83s-0.56-7.23-0.56-7.23s4.85-1.85,9.34-5.25c3.42-2.59,5.99-6,7.36-11.08  c2.25-8.35-0.84-16.61-7.04-19.43c-5.96-2.71-11.83-1.69-12.01,2.63s3.66,3.38,6.57,4.5c2.91,1.13,6.19,6.29,2.72,11.36  c-3.47,5.07-9.57,6.66-11.45,6.85c-1.88,0.19-5.35-2.72-12.58-2.91c-7.23-0.19-17.64,5.07-17.93,4.41  c-0.28-0.66,10.32-7.51,11.07-16.42c0.7-8.26-1.03-12.11-1.03-12.11s-1.31-13.98-3.19-20.55S67.7,3.69,66.01,3.79  c-1.69,0.09-7.13,6.01-9.1,8.92s-4.13,7.6-4.13,7.6s-8.4-0.31-12.11,1.03c-3.38,1.22-7.23,3.28-9.67,7.13s-3.19,6.1-4.32,6.66  c-1.13,0.56-6.48,1.69-6.95,2.35c-0.47,0.66-1.69,9.39-1.41,10.7s0.5,4.37,2.06,6.1c1.78,1.97,6.71,5.3,10.61,7.79  C34.76,64.47,38.42,66.39,38.79,68.08z"/>
<path style="fill:#FF9B31;" d="M73.38,77.27c3.47-0.05,3.38-4.22,3.43-9.39c0.04-4.52-0.14-7.18-0.14-7.18s-1.99,0.27-3.75,0.94  c-1.74,0.66-3.24,1.27-3.24,1.27s0,5.11,0,7.27C69.67,72.67,69.95,77.32,73.38,77.27z"/>
<path style="fill:#FF9B31;" d="M79.48,60.05c0,0,0,4.36,0.05,8.07c0.05,3.99-0.33,8.31,3.66,8.26c3.43-0.04,3.43-4.41,3.47-9.34  c0.02-2.58,0.09-6.99,0.09-6.99s-1.69-0.33-3.71-0.28C81.45,59.81,79.48,60.05,79.48,60.05z"/>
<path style="fill:#2C312C;" d="M44.81,41.02c-0.73,1.77-2.3,4.3-4.89,3.64c-1.66-0.42-1.78-3.99-0.81-6.11  c1.15-2.5,2.68-3.63,4.47-3.42C45.55,35.37,45.74,38.75,44.81,41.02z"/>
<path style="fill:#2C312C;" d="M27.67,40.48c-0.05-1.13-2.96-1.92-5.21-2.77c-1.91-0.71-2.96-0.75-3.47-0.28s-1.13,1.69-1.41,3.57  s-0.18,5.06,0.28,7.04c0.47,2.02,1.22,4.55,4.55,5.87c2.86,1.13,4.55-0.42,5.77-1.27c1.55-1.07,0.88-3.61-1.31-2.3  c-1.64,0.99-2.77,1.27-4.04,0.33c-1.74-1.29-2.16-5.11-2.02-5.44c0.61-1.43,3.05-1.78,4.04-2.16  C25.84,42.69,27.72,41.47,27.67,40.48z"/>
<g>
	<path style="fill:#888071;" d="M47.34,50.45c-0.03,0-0.05,0-0.08,0c-0.03,0-3.19-0.23-5.16-0.28c-2.02-0.05-5.63-0.14-5.63-0.14   s-1.18,0.1-1.18-1.06c0-1.23,1.23-1.04,1.23-1.04s3.61,0.09,5.63,0.14c2.02,0.05,5.13,0.27,5.26,0.28   c0.58,0.04,1.01,0.55,0.97,1.12C48.34,50.03,47.88,50.45,47.34,50.45z"/>
</g>
<g>
	<path style="fill:#888071;" d="M45.55,57.3c-0.15,0-0.31-0.03-0.45-0.1c-0.02-0.01-2.51-1.2-4.76-1.97   c-2.34-0.79-4.96-1.64-4.96-1.64c-0.55-0.18-0.86-0.77-0.68-1.32c0.18-0.55,0.77-0.86,1.32-0.68c0,0,2.64,0.85,4.99,1.65   c2.38,0.81,4.89,2.01,5,2.07c0.52,0.25,0.74,0.88,0.49,1.4C46.32,57.08,45.94,57.3,45.55,57.3z"/>
</g>
<g>
	<path style="fill:#888071;" d="M40.44,61.2c-0.2,0-0.41-0.06-0.59-0.18c-0.02-0.01-1.78-1.21-2.96-1.94   c-1.23-0.75-3.44-2.17-3.44-2.17s-0.99-0.58-0.35-1.5s1.48-0.28,1.48-0.28c0,0,2.2,1.4,3.41,2.15c1.23,0.75,2.97,1.95,3.05,2   c0.48,0.33,0.6,0.98,0.27,1.46C41.1,61.04,40.77,61.2,40.44,61.2z"/>
</g>
<path style="fill:#FED0AB;" d="M64.35,12.33c-0.48-0.17-3.59,3.45-5.14,7.04c-1.55,3.59-2.11,5.56-1.97,6.19  c0.06,0.28,1.85,1.83,4.5,3.94c2.75,2.18,4.5,3.52,5.28,3.45c0.77-0.07,0.99-6.05,0.35-11.47S65.12,12.61,64.35,12.33z"/>
</g>
  <g transform="translate(565.7871376374778, 36.55626315603547) scale(1 1) translate(0, 0) scale(1.0 1.0) "><path style="fill:#865C50;" d="M62.59,13.59c0,0,1.83-4.22,5.98-6.9c2.02-1.3,5.55-3.31,6.19-2.18c0.28,0.49-0.63,1.76-1.55,3.73  c-0.37,0.81-1.2,3.45-1.2,3.45s3.66-4.79,10.07-6.05c5.04-1,10.49-0.35,11.12,0.77c0.68,1.21-2.89,3.87-4.01,6.19  s-1.97,5.28-1.97,5.28s6.75-3.19,8.45-3.87c2.11-0.84,6.69-2.6,7.32-1.83s-2.02,5.24-2.6,6.05c-0.7,0.99-1.76,2.82-1.76,2.82  s3.24-1.48,4.5-2.25c1.27-0.77,4.08-2.96,4.72-2.53c0.63,0.42,0.63,4.7,0.21,6.55c-0.56,2.46-3.17,5.14-3.17,5.14  s3.73,0.84,5.77,3.45s3.23,4.64,4.08,7.25c1.27,3.87,1.83,9.15,1.55,10.14c-0.28,0.99-1.83-0.35-4.72-0.56  c-1.71-0.13-2.11-0.14-2.11-0.14s1.63,1.94,2.39,3.73c0.99,2.32,2.07,5.98,2.67,7.53c0.63,1.62,1.13,2.89,2.04,4.72  c0.27,0.54-1.9,1.06-4.08-0.99c-0.73-0.68-1.62-1.34-1.62-1.34s1.29,7.67,1.2,12.81c-0.07,3.8-0.92,10.7-2.04,11.33  c-1.13,0.63-3.38-4.22-3.38-4.22s-0.98,5.52-2.11,9.22c-1.34,4.36-2.61,6.4-3.38,9.01c-0.92,3.1-1.83,5.35-2.46,4.36  c-0.55-0.85-1.13-2.18-1.69-3.17c-0.43-0.75-1.41-2.75-1.41-2.75s-0.99,5.98-5.77,10s-7.88,7.25-10.14,7.53  c-1.33,0.17,0.21-5.84,0.21-5.84s-7.46,5.86-11.05,8.52c-1.62,1.2-3.1,5.14-4.22,4.86c-1.13-0.28-4.01-4.65-5.84-5.98  s-5.28-2.89-5.77-3.17c-0.49-0.28-2.82-1.76-2.82-1.76s0.58,3.27-0.07,3.59c-1.41,0.7-6.83-3.17-8.38-5.56  c-1.55-2.39-4.29-7.32-4.29-7.32s-0.35,4.72-1.48,3.94c-1.2-0.82-7.04-5.14-9.08-8.38c-1.44-2.29-3.94-8.73-3.94-8.73  s-2.18,2.25-2.82,2.53s-2.25,0.92-1.97-1.55c0.28-2.46-1.65-8.04-1.97-11.4c-0.42-4.36,0.42-8.87,0.42-8.87s-3.59,4.79-5.28,4.72  s-0.7-9.29-0.28-12.11c0.42-2.82,1.83-7.74,2.39-9.5c0.56-1.76,2.67-4.36,2.67-4.36s-5.21,1.76-5.98,1.06s0.42-6.97,1.13-10.77  c0.36-1.95,1.9-5,3.87-7.25s5-1.83,5.28-2.82c0.28-0.99-1.12-1.77-2.11-3.38c-1.48-2.39-2.32-7.32-1.55-8.17  c0.48-0.52,3.17,1.55,6.41,1.9s6.12,0.14,6.12,0.14s-1.87-2.2-2.67-4.01c-1.13-2.53-1.2-5.56-0.49-6.34s3.17,1.62,6.48,2.46  c3.31,0.84,8.24,0.92,8.24,0.92s-2.11-2.25-2.67-4.86c-0.56-2.6-0.42-4.22,0.49-4.5c0.92-0.28,3.6,2.23,5.49,2.82  c2.04,0.63,8.94,0.21,12.04,1.13S62.59,13.59,62.59,13.59z"/>
<path style="fill:#FEC000;" d="M84.83,35.56c0,0,12.11-11.54,19.15-2.96c8.35,10.19-13.8,21.4-13.8,21.4L84.83,35.56z"/>
<path style="fill:#FEC000;" d="M42.6,38.51c0,0-11.29-14.8-19.59-6.78s8.89,20.29,8.89,20.29L42.6,38.51z"/>
<path style="fill:#FF8E06;" d="M95.25,45.41c0,0,8.87-6.19,5.21-10.14c-3.91-4.21-11.12,3.1-11.12,3.1L95.25,45.41z"/>
<path style="fill:#FF8E06;" d="M37.44,38.87c0,0-7.35-7.28-11.15-2.78c-3.42,4.05,6.34,11.83,6.34,11.83L37.44,38.87z"/>
<path style="fill:#FEC000;" d="M64.7,89.47c0,0,7.18-1.97,11.68-4.22c4.5-2.25,21.26-11.68,22.52-23.23  c1.27-11.54,0-14.64-5.35-21.68s-14.73-8.66-19.57-7.6c-5.77,1.27-6.76,5.48-9.29,5.63c-2.39,0.14-1.69-2.53-8.59-5.07  c-8.83-3.25-33,5.45-28.72,28.72c2.25,12.25,20.1,22.7,22.38,23.93C55.27,88.91,64.7,89.47,64.7,89.47z"/>
<ellipse transform="matrix(0.3698 -0.9291 0.9291 0.3698 3.8589 104.6836)" style="fill:#2E2F2F;" cx="79.1" cy="49.5" rx="4.23" ry="4.15"/>
<ellipse transform="matrix(0.9263 -0.3767 0.3767 0.9263 -14.8496 21.9828)" style="fill:#2E2F2F;" cx="48.78" cy="48.96" rx="4.27" ry="4.35"/>
<path style="fill:#FFD899;" d="M64.51,57c-8.54-0.26-16.05,9.39-16.05,25.43c0,15.58,8.26,19.24,14.92,19.24  c8.45,0,16.42-5.54,15.49-20.65C78,67.04,73.61,57.28,64.51,57z"/>
<path style="fill:#2E2F2F;" d="M54.56,65.82c-0.84,0.84,0.75,5.44,2.16,7.79s5.44,6.19,7.7,6.1c2.25-0.09,6.48-4.79,7.79-8.26  c1.31-3.47,1.69-5.63,1.13-6.48s-7.23,0.19-9.76,0.19S55.41,64.98,54.56,65.82z"/>
<path style="fill:#2E2F2F;" d="M64.23,76.48c0,0-3.63,3.95-5.21,4.55c-2.21,0.84-5.63,0.12-5.73,1.48  c-0.09,1.41,2.11,2.89,5.63,2.42c3.89-0.52,5.35-2.91,5.35-2.91s2.21,3.14,6.48,3.33c4.27,0.19,5.26-2.53,4.08-2.91  c-1.6-0.51-2.6-0.41-5.02-1.17C67.89,80.65,64.23,76.48,64.23,76.48z"/>
</g>
  <g transform="translate(717.0348546707205, 123.87917329949448) scale(1 1) translate(0, 0) scale(1.0 1.0) "><path style="fill:#FF8F04;" d="M26.01,33.58c0,0,0.84-2.32,2.59-5.18c1.63-2.66,3.4-3.03,4.81-2c1.41,1.04-0.15,5.03-0.15,5.03  l-4.14,4.44L26.01,33.58z"/>
<path style="fill:#FF8F04;" d="M42.21,41.65L17.66,65.68c0,0,2.44,2.66,3.99,3.85s3.92,3.77,3.92,3.77l22.04-12.5l0.3-8.21  c0,0-2.14-2.37-3.55-4.51C43.36,46.56,42.43,41.5,42.21,41.65z"/>
<path style="fill:#FF8F04;" d="M31.04,82.84c-0.07,0.37-2.29,5.55-4.66,9.02c-2.37,3.48-6.02,8.53-7.1,11.69  c-0.96,2.81-1.67,8.75,3.77,9.84c6.66,1.33,7.99-3.7,8.36-6.29c0.19-1.3,2.66-4.14,3.7-5.55c1.04-1.41,5.33-5.62,5.33-5.62  L31.04,82.84z"/>
<path style="fill:#FF8F04;" d="M73.8,87.8c0.22,0.07,2.51,4.96,2.81,6.14c0.3,1.18,0.07,8.36-0.22,10.06  c-0.3,1.7-4.51,4.51-3.99,7.91c0.25,1.62,1.85,2.59,5.47,2.59c3.62,0,8.58-0.44,8.58-0.44l4.22-15.68L77.12,86.84L73.8,87.8z"/>
<path style="fill:#FF8F04;" d="M96.58,67.76l-1.63-5.18c0,0,4.88,2.37,8.83,11.29c1.61,3.64,3.82,12.97,8.41,13.12  c4.59,0.15,6.21-5.81,6.21-5.81s6.32,4.81,5.58,7.1c-0.74,2.29-5.36,8.47-12.54,7.95c-7.17-0.52-9.59-6.59-12.76-10.91  C95.5,80.98,96.58,67.76,96.58,67.76z"/>
<path style="fill:#FD6A21;" d="M24.76,107.99c-1.26,0.78-2.96,2.81-1.33,4.81c0.99,1.22,3.55,1.18,5.25-0.3  c0.99-0.86,2.39-3.47,0.67-4.73C28.23,106.96,26.31,107.03,24.76,107.99z"/>
<path style="fill:#FD6A21;" d="M21.95,111.1c0.16-1.02-0.89-1.55-1.7-1.26c-0.7,0.25-1.18,1.33-0.37,2.07  C20.69,112.65,21.8,112.06,21.95,111.1z"/>
<path style="fill:#33312E;" d="M116.32,84.99c0,0,1.41,1.92,3.11,3.25c1.47,1.15,3.62,1.92,3.62,1.92s3.7-3.85,3.77-8.21  c0.05-2.89-1.92-4.44-4.81-4.22s-3.33,2.29-3.85,3.92C117.69,83.17,116.32,84.99,116.32,84.99z"/>
<path style="fill:#33312E;" d="M116.62,95.39c0,0-1.03-0.54-1.38-1.53c-0.32-0.91-0.02-2.28,1.13-2.88  c1.13-0.59,2.49-0.05,3.01,1.06c0.52,1.11,0.3,1.63,0.3,1.63s-0.69,0.59-1.36,0.96C117.61,95.02,116.62,95.39,116.62,95.39z"/>
<path style="fill:#33312E;" d="M108.61,84.69c0,0-1.6,0.96-1.08,2.86c0.37,1.36,2.47,1.9,3.45,1.31c1.15-0.69,1.21-1.87,1.21-1.87  s-1.21-0.2-2-0.79C109.37,85.59,108.61,84.69,108.61,84.69z"/>
<path style="fill:#33312E;" d="M105.23,77.72c0,0-1.26,0.37-1.65,1.73c-0.28,0.98,0.34,2.85,2.02,2.81  c0.94-0.02,1.43-0.25,1.43-0.25s-0.5-1.24-0.91-2.14C105.72,79,105.23,77.72,105.23,77.72z"/>
<path style="fill:#33312E;" d="M104.42,93.12c0,0,0.3-0.96,1.87-1.13c1.33-0.15,2.57,0.55,3.08,1.87c0.35,0.89,0.15,2.05,0.15,2.05  s-1.45-0.3-2.86-1.06C105.47,94.2,104.42,93.12,104.42,93.12z"/>
<path style="fill:#33312E;" d="M28.9,34.99c0,0,3.01-3.7,4.29-4.88s5.18-3.9,8.19-1.82c3.01,2.07,3.06,6.91,2.81,9.32  c-0.27,2.59-1.32,7.13-1.45,8.36c-0.1,0.89-0.42,2.84-1.31,2.24s-11-10.4-11-10.4L28.9,34.99z"/>
<path style="fill:#FFBA06;" d="M21.5,33.58c-3.32,0.89-5.35,2.49-7.32,4.22c-1.97,1.73-2.88,3.65-3.92,3.99  c-1.04,0.35-5.94,1.13-7.17,2.07s-1.11,1.92-1.11,1.92l8.48,16.07l7.64,4.88c0,0,2.07-1.55,3.25-2.24c1.18-0.69,3.18-1.55,3.18-1.55  s3.73,0.1,7.72-0.79c5.08-1.13,9.99-3.72,10.13-12.06c0.09-4.96-3.85-7.89-4.24-8.33s0.32-1.27,0.99-2.12  c1.28-1.63,4.39-6.36,1.18-8.88s-7.34,2.66-7.89,3.21c-0.57,0.57-1.04,1.68-1.33,1.48C30.8,35.26,26.83,32.15,21.5,33.58z"/>
<path style="fill:#FFEACF;" d="M33.26,36.25c-0.12,0.24,0.99,0.75,1.68,1.43c0.99,0.99,1.07,1.51,1.58,1.43  c0.99-0.15,4.09-5.57,2.56-6.71C36.98,30.84,33.61,35.56,33.26,36.25z"/>
<path style="fill:#FFEACF;" d="M9.03,45.34c-0.4,0.04-6.8,1.97-6.8,1.97l1.53,8.53c0,0-1.82,5.82,2.07,8.88  c3.9,3.06,8.95,2.39,11.17,2.19s1.55-1.21,1.45-1.9c-0.1-0.69-1.63-6.46-3.16-8.28s-2.81-3.21-3.01-3.85  C12.08,52.25,10.36,45.2,9.03,45.34z"/>
<path style="fill:#33312E;" d="M10.01,44.95c0.64,0.64-1.28,1.73-2.81,2.91c-1.53,1.18-3.06,2.51-3.06,2.51s-0.2,4.14,1.68,4.93  s5.18-0.05,5.57,0.69c0.39,0.74-0.84,3.25-3.45,3.3s-4.49-2.22-4.78-2.96c-0.3-0.74-1.28-2.76-1.78-5.97  c-0.32-2.07-0.35-4.73,0.1-5.18s3.16-0.54,4.49-0.59s2.81,0.1,2.81,0.1S9.77,44.7,10.01,44.95z"/>
<path style="fill:#33312E;" d="M22.05,43.17c0,0,0.25-1.82-1.97-1.43c-1.84,0.33-2.9,2.12-3.11,2.91c-0.32,1.21,0.35,1.87,0.35,1.87  s-1.78,1.83-0.96,2.69c1.08,1.13,2.59-1.21,2.59-1.21s0.42,0.71,1.18,0.49c0.89-0.25,1.65-1.36,2.69-2.59s2.69-1.77,2.34-3.03  C24.71,41.25,22.05,43.17,22.05,43.17z"/>
<ellipse style="fill:#33312E;" cx="27.44" cy="52.8" rx="1.68" ry="1.69"/>
<ellipse style="fill:#33312E;" cx="34.3" cy="49.26" rx="1.81" ry="1.78"/>
<ellipse style="fill:#33312E;" cx="33.32" cy="55.53" rx="1.81" ry="1.78"/>
<ellipse style="fill:#33312E;" cx="23.43" cy="58.88" rx="1.75" ry="1.73"/>
<ellipse style="fill:#33312E;" cx="26.85" cy="36.25" rx="1.75" ry="1.73"/>
<path style="fill:#33312E;" d="M22.02,34.74c0.33,0.82-0.24,1.62-1.13,1.97c-0.9,0.36-1.89,0.28-2.22-0.54  c-0.33-0.82,0.28-1.61,1.18-1.97C20.75,33.84,21.69,33.92,22.02,34.74z"/>
<path style="fill:#FFBA06;" d="M47.17,51.7c0,0-0.67,6.73-6.07,11.02s-16.86,9.25-16.86,9.25s3.18,3.33,3.92,4.96  c0.74,1.63,2.22,10.8,5.03,14.13s8.65,7.77,9.17,8.73c0.52,0.96,1.85,7.25,0.74,9.47c-1.11,2.22-1.48,2.14-1.48,2.14  s-5.78,2.09-4.96,5.99c1.04,4.88,9.91,2.81,11.09,2.74c1.18-0.07,3.77-3.18,3.77-3.18l3.62-4.36l1.48-6.29l1.78-8.43l2.81-4.36  l6.21-2.07l7.62-2.37l5.1,4.88l4.44,5.25l0.74,4.44l-0.22,3.99l-2.74,5.77l-0.52,4.59c0,0,1.04,2.14,2.29,2.59  c1.26,0.44,6.95,0.81,9.17-0.74c2.22-1.55,3.48-5.47,3.7-8.95c0.22-3.48,0.22-8.58,0.44-11.17c0.16-1.85-0.44-4.73-0.44-4.73  s4.29-5.4,4.51-15.83c0.22-10.43-4.36-15.38-8.06-17.83c-3.7-2.44-10.8-4.81-19.16-5.4c-8.36-0.59-12.5,0.07-17.97-0.81  S47.17,51.7,47.17,51.7z"/>
<path style="fill:#FF8F04;" d="M37.6,117.61c-0.02,0.94,0.25,2.42,1.48,2.66c1.23,0.25,0.84-1.43,0.89-2.47  c0.04-0.94,1.07-2.06,0.2-2.56C39.23,114.7,37.65,115.63,37.6,117.61z"/>
<path style="fill:#FF8F04;" d="M43.32,115.78c-0.94-0.1-2.02,0.35-2.12,2.07c-0.08,1.48,0.25,2.91,1.63,2.91s0.81-1.87,0.84-2.56  C43.72,116.87,44.55,115.91,43.32,115.78z"/>
<path style="fill:#FF8F04;" d="M86.07,116.42c-1.18-0.11-1.63,0.64-1.63,2.07c0,1.53,0.2,2.32,1.38,2.42s0.89-1.38,0.89-2.12  S87.11,116.52,86.07,116.42z"/>
<path style="fill:#FF8F04;" d="M90.07,116.62c-0.88-0.09-1.38,0.69-1.38,2.22c0,1.48,0.39,2.27,1.28,2.17  c0.88-0.1,0.99-1.18,0.99-2.12C90.95,117.85,91.05,116.72,90.07,116.62z"/>
<path style="fill:#FD6A21;" d="M46.63,119.48c-0.1,0.83,1.23,0.78,2.32,0.35c1.23-0.49,3.43-1.7,4.36-2.74  c1.33-1.48,2.22-2.96,2.93-5.05c0.44-1.3,1.37-5.68,2.22-9.37c0.89-3.85,1.58-5.23,1.78-5.87c0.35-1.13,1.58-2.56,1.58-2.56  s4.14-1.43,6.26-2.07c2.12-0.64,6.31-2.37,6.8-2.17c0.49,0.2,2.66,2.32,5.03,4.88c1.71,1.85,4.24,5.08,4.24,5.08s0.3,2.51,0.35,3.8  c0.05,1.28,0.05,3.4,0.05,3.65s-2.61,4.09-3.11,5.82c-0.49,1.73-1.22,3.62,0.25,5.92c0.79,1.23,2.51,1.73,2.76,1.23  c0.15-0.3-0.59-0.79-1.04-1.33c-0.44-0.54-0.84-1.58-0.84-2.47c0-1.82,0.64-3.27,1.04-4.14c0.54-1.18,2.27-3.9,2.47-4.59  c0.2-0.69,0.2-3.01,0.1-4.83c-0.07-1.29-0.25-3.21-0.54-3.85c-0.3-0.64-1.38-2.02-3.8-4.64c-3.65-3.95-5.82-6.11-6.61-6.36  s-6.8,2.12-7.79,2.42s-6.36,1.92-6.85,2.27c-0.49,0.35-2.02,2.27-2.56,4.19c-0.26,0.91-1.23,4.44-1.53,5.67  c-0.3,1.23-1.87,7.88-2.22,8.73c-0.69,1.68-1.43,3.11-2.61,4.24c-0.88,0.85-2.32,1.73-3.16,2.22  C47.96,118.22,46.72,118.64,46.63,119.48z"/>
<path style="fill:#33312E;" d="M90.61,69.48c0,0,2.18-1.06,2.12-2.42c-0.05-1.05-0.49-2.31-2.32-2.37c-1.53-0.05-3,0.74-3.16,2.27  c-0.15,1.48,1.48,2.47,1.48,2.47s-3.9-1.01-3.75,2.64c0.05,1.29,0.45,2.25,0.96,2.91c1.73,2.22,6.11,2.07,8.01,0.17  c1.16-1.16,1.38-2.56,1.13-3.8C94.51,68.4,90.61,69.48,90.61,69.48z"/>
<path style="fill:#33312E;" d="M80.45,62.38c0,0,2.39-0.22,2.27-2.27c-0.07-1.23-1.13-2-3.16-1.95c-2.02,0.05-3.07,1.11-3.16,2.14  c-0.15,1.78,1.73,2.12,1.73,2.12l-0.35,0.99c0,0-1.43-1.63-2.71-0.74c-1.28,0.89-1.13,4.38,1.6,5.89c2.22,1.23,5.42,0.49,7.03-0.99  c0.94-0.86,1.36-1.82,1.33-2.84c-0.03-1.36-0.54-1.82-1.38-2.19c-0.88-0.39-2.76,0.62-2.76,0.62L80.45,62.38z"/>
<path style="fill:#33312E;" d="M96.53,78.95c0,0-0.55-0.76-0.54-1.49c0-0.57,0.39-1.26,1.58-1.41c1.19-0.15,1.84,0.98,1.8,1.7  c-0.05,0.92-1.06,1.65-1.06,1.65l-0.02,0.89c0,0,1.22,0.43,1.5,1.58c0.39,1.63-1.95,3.6-4.61,2.56c-1.22-0.47-1.95-1.73-1.97-2.71  c-0.03-1.16,0.81-2.04,1.26-2.27C95.39,78.95,96.53,78.95,96.53,78.95z"/>
<path style="fill:#33312E;" d="M67.78,62.58c0,0,1.43-0.59,1.13-2.07c-0.3-1.48-2.32-1.94-3.99-1.78c-1.48,0.15-2.81,1.92-2.17,3.21  c0.64,1.28,1.58,1.33,1.58,1.33s-2.6-0.27-2.76,1.92c-0.15,1.97,1.08,4.44,5.28,4.59c4.19,0.15,5.42-5.62,4.09-6.9  C69.74,61.73,67.78,62.58,67.78,62.58z"/>
<path style="fill:#33312E;" d="M56.09,72.78c0,0,3.45-0.59,2.05-3.03c-0.98-1.7-5.53-0.58-5.18,1.87c0.08,0.58,1.04,1.17,1.5,1.28  c0.32,0.07-0.39,0.62-0.39,0.62s-2.34-0.64-3.03,1.01c-0.89,2.12,0.59,4.41,3.16,5.13c3.38,0.94,6.83-0.94,6.76-3.57  c-0.08-2.82-3.08-2.42-3.08-2.42L56.09,72.78z"/>
<path style="fill:#33312E;" d="M39.48,71.8c0,0-1.26-0.62-1.11-2.1c0.08-0.78,0.83-1.53,2-1.5c2.66,0.05,3.55,1.43,2.96,3.16  c-0.32,0.94-2.37,1.48-2.37,1.48l0.79,1.08c0,0,1.64-0.8,2.37,0.2c0.52,0.72,0.7,2.25-0.32,3.48c-0.62,0.74-2.44,1.65-5.1,1.06  c-1.92-0.43-3.25-1.61-3.72-2.96c-0.5-1.42-0.05-2.77,0.71-3.25c1.58-0.99,3.55,0.35,3.55,0.35L39.48,71.8z"/>
<path style="fill:#33312E;" d="M49.88,60.9c0,0-2.37-0.59-3.01,0.54c-0.64,1.13-0.89,3.45,1.68,4.78c2.56,1.33,6.85-0.6,7.05-3.25  c0.15-1.97-1.13-3.85-2.81-3.8c-2.27,0.07-1.63,0.54-1.63,0.54l-0.15-0.89c0,0,1.53-1.33,0.15-2.47c-1.38-1.13-3.85,0.74-3.75,1.97  s1.48,1.48,1.48,1.48L49.88,60.9z"/>
<path style="fill:#D2735B;" d="M42.88,73.01c0,1.46-0.92,2.49-2.42,2.49c-1.5,0-3.01-1.03-3.01-2.49c0-1.46,1.31-2.29,2.81-2.29  S42.88,71.55,42.88,73.01z"/>
<path style="fill:#D2735B;" d="M58.41,72.78c0.68,1.18,0.29,2.67-1.1,3.25c-1.57,0.65-3,0.25-3.69-0.93  c-0.68-1.18-0.08-2.6,1.22-3.35C56.14,71.01,57.73,71.6,58.41,72.78z"/>
<path style="fill:#D2735B;" d="M68.38,62.32c0.78,1.35,0.38,3.46-1.04,4.18c-1.84,0.94-3.53,0.1-4.31-1.25  c-0.78-1.35-0.18-2.93,1.2-3.72C65.61,60.73,67.6,60.96,68.38,62.32z"/>
<path style="fill:#D2735B;" d="M53.09,59.52c0.68,1.18,0.25,3.06-1.08,3.75c-1.73,0.89-3.26,0.19-3.94-0.99  c-0.68-1.18-0.08-2.6,1.22-3.35C50.57,58.19,52.4,58.34,53.09,59.52z"/>
<path style="fill:#D2735B;" d="M82.46,61.44c1.35,1.74,0.39,3.57-1.16,4.37c-2,1.04-3.97,0.61-4.7-0.66s0.02-3.34,1.53-4.21  C79.64,60.07,81.56,60.28,82.46,61.44z"/>
<path style="fill:#D2735B;" d="M91.55,67.45c1.9,0.97,1.93,2.83,1.01,4.06c-1.19,1.59-3.01,1.95-4.19,1.15  c-1.18-0.79-1.49-2.79-0.63-4.06C88.6,67.32,90.28,66.8,91.55,67.45z"/>
<path style="fill:#D2735B;" d="M98.89,78.51c1.14,1.26,0.7,2.62-0.26,3.24c-1.25,0.8-2.66,0.52-3.32-0.41  c-0.66-0.92-0.39-2.46,0.54-3.13C96.78,77.55,98.13,77.67,98.89,78.51z"/>
<ellipse transform="matrix(0.2086 -0.978 0.978 0.2086 -61.0606 128.7349)" style="fill:#33312E;" cx="49.01" cy="102.09" rx="2" ry="1.91"/>
<ellipse transform="matrix(0.7071 -0.7071 0.7071 0.7071 -41.1853 67.887)" style="fill:#33312E;" cx="61.35" cy="83.66" rx="2.02" ry="2.01"/>
<ellipse transform="matrix(0.7812 -0.6242 0.6242 0.7812 -42.9548 56.3956)" style="fill:#33312E;" cx="58.99" cy="89.48" rx="1.53" ry="1.32"/>
<ellipse transform="matrix(0.7812 -0.6242 0.6242 0.7812 -33.0662 69.4398)" style="fill:#33312E;" cx="82.54" cy="81.9" rx="2.18" ry="1.7"/>
<ellipse transform="matrix(0.0864 -0.9963 0.9963 0.0864 -35.718 134.914)" style="fill:#33312E;" cx="55.7" cy="86.93" rx="2.66" ry="2.05"/>
<ellipse transform="matrix(0.2086 -0.978 0.978 0.2086 -56.3377 102.7667)" style="fill:#33312E;" cx="35.33" cy="86.19" rx="2" ry="1.91"/>
<ellipse transform="matrix(0.866 -0.5 0.5 0.866 -40.7354 36.7524)" style="fill:#33312E;" cx="48.21" cy="94.39" rx="2.3" ry="2.12"/>
<ellipse transform="matrix(0.866 -0.5 0.5 0.866 -37.2357 34.1164)" style="fill:#33312E;" cx="45.04" cy="86.54" rx="2.39" ry="2.14"/>
<path style="fill:#D2735B;" d="M62.09,84.13c1.33,1.4,0.6,3.1-0.73,3.97c-1.72,1.12-3.51,0.95-4.26-0.1s-0.21-2.94,1.08-3.87  S61.21,83.2,62.09,84.13z"/>
<ellipse transform="matrix(0.2086 -0.978 0.978 0.2086 -16.3871 137.41)" style="fill:#33312E;" cx="76.71" cy="78.83" rx="1.87" ry="1.82"/>
<ellipse transform="matrix(0.7812 -0.6242 0.6242 0.7812 -31.2038 60.8153)" style="fill:#33312E;" cx="71.17" cy="74.93" rx="2.42" ry="1.9"/>
<ellipse transform="matrix(0.7071 -0.7071 0.7071 0.7071 -32.9946 86.9427)" style="fill:#33312E;" cx="88.45" cy="83.3" rx="1.61" ry="1.82"/>
<path style="fill:#33312E;" d="M72.76,78.31c-0.53-0.18-3.35-1.38-5.03,0.64c-1.68,2.02-1.33,6.36,2.91,6.56  C74.9,85.7,76.61,79.64,72.76,78.31z"/>
<path style="fill:#33312E;" d="M84.3,86c-1.42-0.34-4.27,0.5-4.04,2.96c0.2,2.14,2.08,3.19,4.39,2.86  C87.4,91.42,88.83,87.08,84.3,86z"/>
<path style="fill:#D2735B;" d="M75.71,79.88c-0.79,1.88-2.59,2.03-3.85,1.22c-1.64-1.04-2.12-2.77-1.45-3.95  c0.68-1.18,2.59-1.6,3.89-0.86C75.6,77.04,76.23,78.62,75.71,79.88z"/>
<path style="fill:#D2735B;" d="M87.26,83.01c1.57,1.66,0.76,3.64-0.76,4.62c-1.96,1.27-4.03,1.03-4.92-0.21s-0.31-3.45,1.16-4.5  C84.21,81.88,86.21,81.9,87.26,83.01z"/>
</g>
  <g transform="translate(819.6890922098924, 265.1706099081639) scale(1 1) translate(0, 0) scale(1.0 1.0) "><path style="fill:#FE6A1F;" d="M99.73,65.37c1.38,1.78,3.08,5.61,4.66,11.35S108.45,88.1,112.8,88c4.35-0.1,3.96-3.45,4.66-4.78  c0.44-0.83,1.17-2.83,5.33-0.56c4.15,2.27,2.55,4.3,1.83,5.97c-0.78,1.81-4.19,8.01-12.26,7.78c-7.47-0.22-10.53-3.91-13.4-9.45  C96.09,81.42,99.73,65.37,99.73,65.37z"/>
<path style="fill:#323130;" d="M102.15,91.93c0,0,1.89-0.48,3.86-2.3c1.68-1.55,3.08-3.23,3.08-3.23s-1-1.19-1.78-2.45  c-1.15-1.87-1.67-3.38-1.67-3.38l-7.42,5.19c0,0,1.19,1.94,1.82,3.19C100.88,90.67,102.15,91.93,102.15,91.93z"/>
<path style="fill:#FE6A1F;" d="M21.31,40.22c0,0-0.21-7.42,5.24-8.61c5.93-1.29,7.91,5.24,7.91,5.24l-3.36,4.25L21.31,40.22z"/>
<path style="fill:#FE6A1F;" d="M70.47,91.26c0,0,2.7,7.13,2.97,9.79c0.52,5.23-4.04,6.16-3.56,9.89c0.32,2.45,2.46,3.07,7.32,3.07  c6.13,0,9.1-2.87,9.1-2.87l2.18-26.31l-18.4,2.18L70.47,91.26z"/>
<path style="fill:#FE6A1F;" d="M28.41,83.81c0,0-2.81,7.07-5.64,10.61c-2.82,3.52-7.75,7.83-7.38,13.91  c0.23,3.72,2.43,5.37,4.95,5.87c2.61,0.52,5.62-0.18,7.01-3.44c1.38-3.26,1.38-5.74,1.38-5.74s6-6.5,7.88-8.48  c1.88-1.98,5.38-5.07,5.38-5.07L28.41,83.81z"/>
<path style="fill:#333132;" d="M26.26,99.94c1.11-1.54-0.31-3.02-1.26-3.86c-1.26-1.11-2.34-1.56-2.34-1.56l-2.15,2.56  c0,0,1.3,0.85,2.26,1.74C23.58,99.57,25.29,101.28,26.26,99.94z"/>
<path style="fill:#333132;" d="M24.25,92.3c0,0,1.63,1.11,2,1.48s1.97,1.48,2.63,0.74c0.99-1.09-0.17-2.67-0.93-3.6  C27.3,90.11,26.07,89,26.07,89L24.25,92.3z"/>
<path style="fill:#BB5D42;" d="M22.84,108.58c-1.63,0.89-2.37,2.56-1.78,4.01c0.54,1.33,3.12,2,5.42,0.04c1.17-1,1.48-3.3,0.78-4.04  C26.56,107.85,24.63,107.61,22.84,108.58z"/>
<path style="fill:#BB5D42;" d="M18.95,110.66c-0.97,0-2.34,0.69-1.89,2c0.33,0.96,3.11,1.84,3.6,0.19  C21.03,111.59,19.69,110.66,18.95,110.66z"/>
<path style="fill:#FF9613;" d="M26.95,79.79l-5.34-2.97c0,0-7.29,0.46-11.77-2.27c-4.19-2.56-7.02-6.13-7.62-10.09  s-0.51-7.81,0.19-9.1c0.69-1.29,1.99-1.58,3.77-2.27c1.78-0.69,4.46-2.31,4.46-2.31s0.39-3.14,2.24-5.78  c2.77-3.96,4.77-4.27,5.76-4.77c0.99-0.49,10.78-0.99,10.78-0.99l2.37-0.2l2.97-5.14c0,0,3.86-2.77,8.51-0.49s4.85,7.91,4.55,9.89  c-0.3,1.98-0.99,3.56-0.89,4.25c0.05,0.35,2.1,2.08,3.96,3.96c1.82,1.83,3.13,3.4,3.89,3.86c0.77,0.46,10.25-1.14,21.44-0.3  c11.31,0.85,18.73,3,22.89,8.94c4.15,5.93,4.2,12.43,3.02,19.35s-4.95,13.85-5.34,14.94c-0.4,1.09-0.4,8.8-0.4,10.78  c0,1.98,0.72,10.39-5.74,10.5c-3.68,0.06-7.23,0.66-8.72-2.41c-1.48-3.07-0.26-6.75-0.26-6.75l2.94-3.21l-0.4-5.64l-5.93-5.74  l-1.09-4.35l-11.37,0.49c0,0-9.3,1.48-9.89,2.18s-2.08,10.19-2.57,15.03c-0.49,4.85-2.74,9.52-4.33,10.21  c-1.58,0.69-4.64,1.82-8.79,0.89c-3.79-0.85-4.53-4.49-2.26-7.46c1.45-1.91,2.86-2.6,2.86-2.6s-0.26-5.49-0.41-10.46  c-0.11-3.64-0.05-7.07-0.3-7.53c-0.59-1.09-8.33-11.15-8.33-11.15L26.95,79.79z"/>
<path style="fill:#323130;" d="M110.94,87.66c0,0-0.11,3.2-0.45,4.56c-0.59,2.41-1.52,3.82-1.52,3.82s2.08,0.6,4.97,0.45  c2.71-0.15,4.55-1.32,4.55-1.32s-1.36-3.09-1.73-4.06c-0.37-0.96-1.52-3.75-1.52-3.75s-0.63,0.37-1.93,0.56  C112.01,88.11,110.94,87.66,110.94,87.66z"/>
<path style="fill:#323130;" d="M116.69,85.7c0,0,2.08,0.59,3.86,1.41c1.78,0.82,3.86,2.08,3.86,2.08s2-4.01,2.37-6.82  c0.26-2.01-0.42-4.59-2.45-5.34c-2.6-0.96-5.19,0.89-6.16,3.86S116.69,85.7,116.69,85.7z"/>
<path style="fill:#FD6A1F;" d="M43.69,44.97c0,0,2.45-5.64-1.11-7.57c-3.56-1.93-5.64,3.41-5.64,3.41s1.56,1.04,3.12,2  C41.61,43.78,43.69,44.97,43.69,44.97z"/>
<path style="fill:#FFFFFF;" d="M11.05,52.84c0,0-4.04,1.11-6.12,2.49c-1.24,0.82-1.5,2.44-1.56,4.23  c-0.19,6.08,3.49,12.31,9.16,14.21c6.65,2.22,10.39,0.59,10.39,0.59s-2.74-4.23-4.3-6.08s-2.89-3.12-3.41-4.08  c-0.52-0.96-1.11-5.3-1.93-7.23C12.46,55.02,11.05,52.84,11.05,52.84z"/>
<path style="fill:#323332;" d="M10.16,58.7c0,0-6.16,2-6.16,2.23c0,0.22-0.07,3.19,0.37,3.56c0.45,0.37,1.63,1.04,2.67,1.19  c1.04,0.15,2.3,0.07,2.89,0.59c0.33,0.28,0.59,2.3-2.37,2.97s-5.42-2.52-6.08-4.75c-0.67-2.23-0.67-6.97,1.04-9.27  C3.72,53.58,8.75,56.47,10.16,58.7z"/>
<path style="fill:#FE6A1F;" d="M43.5,114.3c-1.13-0.12-1.77,0.56-1.87,3.08c-0.09,2.23,0.7,3.17,1.64,3.3  c1.49,0.22,0.69-1.93,0.74-2.82C44.11,116.37,45.25,114.48,43.5,114.3z"/>
<path style="fill:#FE6A1F;" d="M38.61,113.74c-0.7-0.41-2,0.11-2.02,2.94c-0.01,2.29,1.52,3.45,2.53,3.18  c0.56-0.15-0.25-2.17-0.48-2.93C38.25,115.66,40.02,114.56,38.61,113.74z"/>
<path style="fill:#BB5D42;" d="M46.73,119.86c-0.19,0.78,4.5-0.11,6.08-3.82c1.58-3.71,2.37-11.97,2.72-15.13  c0.35-3.17,1.24-5.89,1.58-6.08c0.35-0.2,3.87-0.99,9.46-1.63c4.92-0.57,9.24-0.89,9.24-0.89s0.25,2.92,2.72,5.44  s4.85,4.35,5.04,4.7c0.2,0.35,0.27,4.39-0.05,5.24c-0.07,0.2-3.9,3.02-3.78,6.84c0.1,3.36,3.02,4.83,4.75,5.03  c1.73,0.2,2.46,0.14,1.37-0.51c-1.09-0.64-3.97-1.08-3.93-4.67c0.05-4.71,3.57-5.85,3.72-6.74c0.15-0.89-0.15-6.08-0.3-6.43  c-0.15-0.35-3.75-3.55-4.95-5.04c-2.11-2.63-1.53-5.44-1.98-5.84c-0.45-0.4-8.15-0.06-12.12,0.4c-2.8,0.32-10.09,1.21-11.62,2.97  c-0.49,0.56-1.7,11.88-1.88,13.3c-0.3,2.34-0.38,6.16-1.93,8.75C49.57,117.95,46.98,118.82,46.73,119.86z"/>
<path style="fill:#FE6A1F;" d="M84.71,116.71c0.05,2.03,0.73,3.19,2.21,3.09c1.48-0.1,0.18-2.23,0.1-2.92  c-0.15-1.29,1.07-3.05,0.15-3.26C85.69,113.27,84.67,114.93,84.71,116.71z"/>
<path style="fill:#313130;" d="M22.65,53.99c0.17,1.89-0.54,3.62-2.05,3.92c-1.51,0.31-3.04-0.39-3.44-2.88  c-0.38-2.35,0.72-3.63,2.23-3.93S22.45,51.78,22.65,53.99z"/>
<path style="fill:#33312F;" d="M22.92,47.2c1.93-0.26,1.56-2.27,1.26-3.66s-0.79-2.32-0.79-2.32s1.64-0.28,2.46,0.07  c0.33,0.14,0.63,0.45,0.95,0.82c1.78,2.03,1.1,5.6,2.83,5.8c1.73,0.2,1.77-2.49,1.67-4.17c-0.1-1.68-0.35-2.52-0.1-2.97  c0.25-0.45,1.52-0.13,1.63-0.45c0.32-0.95,1.04-3.46,2.18-4.75c1.14-1.29,2.96-2.58,5.12-2.55c1.51,0.02,3.23,0.48,2.89,0.22  c-1.03-0.8-6.08-2.6-9.5-0.1c-2.88,2.11-3.36,4.99-3.36,4.99s-2.05-0.15-5.54,0.11c-2.59,0.19-4.89,1.02-6.14,1.63  c-2.47,1.2-3.65,2.67-3.65,2.67s1.94-0.86,2.56-1.04c1.52-0.45,2.44,0.27,3.23,2.15C21.09,44.8,21.44,47.4,22.92,47.2z"/>
<path style="fill:#33312F;" d="M29.51,52.35c-0.89-0.07-0.91,1.31-1.03,2.71c-0.2,2.37-0.27,4.79-0.45,5.08  c-0.3,0.49-1.89,2.65-2.78,3.63c-0.45,0.49-1.96,1.87-1.53,2.57c0.94,1.53,6.92-2.32,7.47-5.69C31.69,57.57,31.49,52.5,29.51,52.35z  "/>
<path style="fill:#33312F;" d="M33.23,63.44c-0.15,0.45-1.98,2.31-4.08,3.75c-2.18,1.48-4.36,2.16-3.68,3.15  c0.84,1.24,4.4,0.05,6.33-0.84c1.55-0.72,4.3-2.9,4.9-4.45c0.49-1.29,0.25-5.64-0.49-8.06c-0.74-2.42-1.89-5.14-2.82-4.23  c-0.53,0.52-0.03,2.37,0.11,4.9C33.64,60.33,33.34,63.1,33.23,63.44z"/>
<path style="fill:#333132;" d="M40.61,104.35c0,0,2.57-0.73,4.15-0.63c1.58,0.1,5.04,0.45,5.64,0.15c0.97-0.49-2.49-3.21-5.55-3.51  s-4.46,0.06-4.46,0.06L40.61,104.35z"/>
<path style="fill:#333132;" d="M40.35,96.38c0,0,0.8-0.9,3.82-0.85c3.02,0.05,6.32,0.48,6.22-0.56c-0.1-1.04-4.59-3.15-6.53-3.26  c-1.19-0.07-3.88,0.3-3.88,0.3L40.35,96.38z"/>
<path style="fill:#FDEDCC;" d="M27.84,78.5c0,0,3.39-3.52,5.24-5.04c2.77-2.27,7.12-5.93,7.22-11.57c0.1-5.64-2.57-10.29-3.07-11.18  c-0.49-0.89-1.98-3.86-0.3-5.04c1.68-1.19,3.84-0.89,7.52,3.07c3.86,4.15,8.11,12.17,8.11,12.17s-2.27,6.33-7.12,9.99  c-1.78,1.34-3.68,1.91-4.99,2.97c-2.26,1.83-3.15,4.36-3.41,6.87c-0.79,7.52,1.69,7.46,2.65,9.38c0.68,1.38,0.83,5.17,0.67,5.3  c-0.84,0.71-3.71-2.37-4.2-2.87c-0.49-0.49-2.08-2.18-2.08-2.18s-0.1,1.78-0.79,1.78c-0.94,0-3.46-2.57-4.75-5.24  s-2.77-5.14-4.15-7.12c-0.6-0.86-2.94-2.92-2.94-2.92s0.87-0.94,2.55-0.64C25.66,76.52,27.84,78.5,27.84,78.5z"/>
<path style="fill:#33312F;" d="M42.23,54.47c-1.5,0.77,0.75,8.27-0.35,11.08c-0.55,1.4-2.37,4.9-1.09,5.64  c1.29,0.74,5.29-3.17,5.84-5.59S44.16,53.48,42.23,54.47z"/>
<path style="fill:#33312F;" d="M41.24,82.51c0,2.18,7.16,1.93,7.16,1.93s4.52,4.01,5.5,3.31c1.19-0.84,0.74-2.03-0.2-3.51  c-1.48-2.33-2.37-3.66-4.01-4.35c-1.48-0.63-4.4,0.22-5.93,0.59C41.84,80.95,41.24,81.8,41.24,82.51z"/>
<path style="fill:#33312F;" d="M50.84,67.52c-0.89,1.09,0.31,2.07,1.43,3.81c1.06,1.64,3.39,4.75,3.39,4.75s-0.32,7.02,0.57,7.66  c1.04,0.74,2.37-1.38,3.02-3.17s0.69-4.06,0.54-5.44c-0.15-1.38-1.09-3.61-4.46-6.02C52.75,67.28,51.28,66.98,50.84,67.52z"/>
<path style="fill:#33312F;" d="M55.53,55.41c0,0,2.03,3.12,3.12,6.08c1.09,2.97,2.16,6.19,2.55,8.56c0.21,1.27,0.87,4.01,1.85,4.15  c0.99,0.15,1.68-2.64,1.97-5.75c0.3-3.23-0.09-7.85-0.63-9.93s-1.19-3.65-1.19-3.65s-1.81-0.03-4.01,0.09  C57.27,55.06,55.53,55.41,55.53,55.41z"/>
<path style="fill:#33312F;" d="M69.43,54.76c0,0,1.08,4.08,1.3,9.9c0.15,3.81,0.63,10.42,1.78,10.42c1.48,0,2.82-5.03,3.41-10.72  s0.45-9.35,0.45-9.35s-1.8-0.2-3.38-0.26C71.03,54.69,69.43,54.76,69.43,54.76z"/>
<path style="fill:#33312F;" d="M82.56,75.16c2,0.26,3.89-5.61,4.78-9.27s1.47-8.75,1.47-8.75s-1.58-0.45-3.21-0.82  c-1.88-0.43-3.56-0.63-3.56-0.63s0.33,3.41,0.25,8.96C82.24,67.62,81.34,75.01,82.56,75.16z"/>
<path style="fill:#33312F;" d="M94.28,59.51c0,0-0.67,7.41-1.11,8.94c-0.45,1.53-4.27,7.01-3.49,7.9c1.02,1.17,6.05-2.93,7.53-6.19  s1.72-6.52,1.72-6.52s-0.57-1.09-2.24-2.46C95.39,60.11,94.28,59.51,94.28,59.51z"/>
<path style="fill:#33312F;" d="M57.08,94.86c0,0,4.54-6.47,5.63-9.33c1.09-2.87,3.02-7.58,4.7-8.01c1.73-0.45,1.23,4.11,0.15,7.67  c-1.04,3.41-2.87,8.21-2.87,8.21s-1.86,0.3-3.45,0.54C57.98,94.43,57.08,94.86,57.08,94.86z"/>
<path style="fill:#33312F;" d="M69.39,92.86c0,0,3.39-6.45,4.3-9.09c0.57-1.64,1.77-6.21,3.3-6.16s1.43,3.86,0.99,6.18  c-0.45,2.32-2.18,8.51-2.18,8.51s-1.36,0.11-2.82,0.26C71.78,92.68,69.39,92.86,69.39,92.86z"/>
<path style="fill:#33312F;" d="M80.71,89.25c0.25,0.83,7.03,0.42,9.27-1.06c4.27-2.83,6.45-10.41,4.97-10.31  c-1.48,0.1-5.98,5.14-7.57,6.18C85.8,85.09,80.21,87.61,80.71,89.25z"/>
<path style="fill:#33312F;" d="M77,95.64c0,0,6.34,1.08,10.09,0.19c3.34-0.79,6.23-4.49,7.27-3.89c1.04,0.59-0.3,5.64-5.04,7.27  c-4.59,1.58-8.16,0.89-8.16,0.89s-1.6-1.15-2.37-2.08C77.59,96.6,77,95.64,77,95.64z"/>
</g>
  <g>
    <defs/>
    <path d="M 485.33358744419047 554.7357968230472 L 500.0 500.0 L 560.9225514227011 341.2913274954757" fill="none" stroke="black" stroke-width="12.8"/>
    <path d="M 696.2990915244727 613.3333333333333 L 549.0747728811182 528.3333333333334 A 56.666666666666664 56.666666666666664 0 0,1 443.3333333333333 500.0 L 386.6666666666667 500.0" fill="none" stroke="black" stroke-width="12.8"/>
    <path d="M 777.1418202079117 558.9083123983652 L 721.7134561663293 547.1266499186921 A 226.66666666666666 226.66666666666666 0 0,1 651.6696041080079 668.4461604415427 L 727.5044061620118 752.669240662314" fill="none" stroke="black" stroke-width="12.8"/>
    <path d="M 840.0 500.0 L 783.3333333333334 500.0 A 283.33333333333337 283.33333333333337 0 0,1 758.8378796654035 615.2420488714768 L 810.6054555984842 638.2904586457721" fill="none" stroke="black" stroke-width="12.8"/>
    <path d="M 373.66537966884295 613.7522030810059 L 415.77691977922865 575.834802054004 A 113.33333333333333 113.33333333333333 0 0,1 415.77691977922865 424.16519794599606 L 331.5538395584573 348.3303958919921" fill="none" stroke="black" stroke-width="12.8"/>
    <path d="M 429.95614794167864 715.5728103602348 L 447.4671109562589 661.6796077701761 A 170.0 170.0 0 0,1 333.71490787525306 535.3449874390191 L 167.42981575050607 570.6899748780381" fill="none" stroke="black" stroke-width="12.8"/>
    <path d="M 529.6163979258351 781.7812036876775 L 523.6931183406681 725.4249629501419 A 226.66666666666666 226.66666666666666 0 0,1 348.3303958919922 668.4461604415427 L 310.4129948649902 710.5577005519285" fill="none" stroke="black" stroke-width="12.8"/>
    <path d="M 605.0657780874822 823.3592155403521 L 587.5548150729018 769.4660129502936 A 283.33333333333337 283.33333333333337 0 0,1 470.38360207416486 781.7812036876775 L 464.46032248899786 838.137444425213" fill="none" stroke="black" stroke-width="12.8"/>
    <path d="M 330.0000000000001 794.4486372867092 L 358.33333333333337 745.373864405591 A 283.33333333333337 283.33333333333337 0 0,1 270.77851826043155 666.5391548162008 L 224.9342219125179 699.846985779441" fill="none" stroke="black" stroke-width="12.8"/>
    <path d="M 241.1621203345963 384.75795112852336 L 292.92969626767706 407.8063609028187 A 226.66666666666666 226.66666666666666 0 0,1 386.6666666666666 303.7009084755273 L 329.9999999999999 205.55136271329093" fill="none" stroke="black" stroke-width="12.8"/>
    <path d="M 167.42981575050607 429.3100251219619 L 222.85817979208838 441.09168760163493 A 283.33333333333337 283.33333333333337 0 0,1 270.7785182604315 333.4608451837993 L 224.93422191251784 300.15301422055916" fill="none" stroke="black" stroke-width="12.8"/>
    <path d="M 464.4603224889976 161.8625555747871 L 482.2301612444988 330.9312777873936 A 170.0 170.0 0 0,1 626.3346203311569 386.247796918994 L 668.4461604415426 348.330395891992" fill="none" stroke="black" stroke-width="12.8"/>
    <path d="M 641.6666666666667 254.62613559440902 L 613.3333333333334 303.7009084755273 A 226.66666666666666 226.66666666666666 0 0,1 707.0703037323228 407.80636090281865 L 810.6054555984844 361.70954135422795" fill="none" stroke="black" stroke-width="12.8"/>
    <path d="M 605.065778087482 176.64078445964776 L 587.5548150729018 230.5339870497064 A 283.33333333333337 283.33333333333337 0 0,1 689.5870051350099 289.4422994480717 L 727.504406162012 247.33075933768603" fill="none" stroke="black" stroke-width="12.8"/>
  </g>
</svg>
